{
	"asset":{
		"generator":"Khronos glTF Blender I/O v4.2.70",
		"version":"2.0"
	},
	"extensionsUsed":[
		"KHR_materials_specular"
	],
	"scene":0,
	"scenes":[
		{
			"name":"Scene",
			"nodes":[
				0
			]
		}
	],
	"nodes":[
		{
			"mesh":0,
			"name":"building7"
		}
	],
	"materials":[
		{
			"doubleSided":true,
			"extensions":{
				"KHR_materials_specular":{
					"specularTexture":{
						"index":0
					}
				}
			},
			"name":"Downtown_Firstfloor_FLR_2",
			"pbrMetallicRoughness":{
				"baseColorTexture":{
					"index":1
				},
				"metallicFactor":0,
				"metallicRoughnessTexture":{
					"index":2
				}
			}
		},
		{
			"doubleSided":true,
			"extensions":{
				"KHR_materials_specular":{
					"specularTexture":{
						"index":3
					}
				}
			},
			"name":"Downtown_Firstfloortrim_FLR_1",
			"pbrMetallicRoughness":{
				"baseColorTexture":{
					"index":4
				},
				"metallicFactor":0,
				"metallicRoughnessTexture":{
					"index":5
				}
			}
		},
		{
			"doubleSided":true,
			"extensions":{
				"KHR_materials_specular":{
					"specularTexture":{
						"index":6
					}
				}
			},
			"name":"Downtown_Modern_Firstfloor_FLR_1",
			"pbrMetallicRoughness":{
				"baseColorTexture":{
					"index":7
				},
				"metallicFactor":0,
				"metallicRoughnessTexture":{
					"index":8
				}
			}
		}
	],
	"meshes":[
		{
			"name":"Downtown_ModernOffice_1_B_Downtown_Firstfloor_FLR_2_0",
			"primitives":[
				{
					"attributes":{
						"POSITION":0,
						"NORMAL":1,
						"TEXCOORD_0":2
					},
					"indices":3,
					"material":0
				},
				{
					"attributes":{
						"POSITION":4,
						"NORMAL":5,
						"TEXCOORD_0":6
					},
					"indices":7,
					"material":1
				},
				{
					"attributes":{
						"POSITION":8,
						"NORMAL":9,
						"TEXCOORD_0":10
					},
					"indices":11,
					"material":2
				}
			]
		}
	],
	"textures":[
		{
			"sampler":0,
			"source":0
		},
		{
			"sampler":0,
			"source":1
		},
		{
			"sampler":0,
			"source":2
		},
		{
			"sampler":0,
			"source":3
		},
		{
			"sampler":0,
			"source":4
		},
		{
			"sampler":0,
			"source":5
		},
		{
			"sampler":0,
			"source":6
		},
		{
			"sampler":0,
			"source":7
		},
		{
			"sampler":0,
			"source":8
		}
	],
	"images":[
		{
			"mimeType":"image/png",
			"name":"Image_14",
			"uri":"../textures/Image_14.png"
		},
		{
			"mimeType":"image/jpeg",
			"name":"Image_12",
			"uri":"../textures/Image_12.jpg"
		},
		{
			"mimeType":"image/png",
			"name":"Image_13",
			"uri":"../textures/Image_13.png"
		},
		{
			"mimeType":"image/png",
			"name":"Image_43",
			"uri":"../textures/Image_43.png"
		},
		{
			"mimeType":"image/jpeg",
			"name":"Image_41",
			"uri":"../textures/Image_41.jpg"
		},
		{
			"mimeType":"image/png",
			"name":"Image_42",
			"uri":"../textures/Image_42.png"
		},
		{
			"mimeType":"image/png",
			"name":"Image_34",
			"uri":"../textures/Image_34.png"
		},
		{
			"mimeType":"image/jpeg",
			"name":"Image_32",
			"uri":"../textures/Image_32.jpg"
		},
		{
			"mimeType":"image/png",
			"name":"Image_33",
			"uri":"../textures/Image_33.png"
		}
	],
	"accessors":[
		{
			"bufferView":0,
			"componentType":5126,
			"count":529,
			"max":[
				10.519258499145508,
				22.178884506225586,
				7.635402679443359
			],
			"min":[
				-8.361278533935547,
				-24.30067253112793,
				-9.322404861450195
			],
			"type":"VEC3"
		},
		{
			"bufferView":1,
			"componentType":5126,
			"count":529,
			"type":"VEC3"
		},
		{
			"bufferView":2,
			"componentType":5126,
			"count":529,
			"type":"VEC2"
		},
		{
			"bufferView":3,
			"componentType":5123,
			"count":855,
			"type":"SCALAR"
		},
		{
			"bufferView":4,
			"componentType":5126,
			"count":1074,
			"max":[
				10.441906929016113,
				22.178884506225586,
				7.571235656738281
			],
			"min":[
				-8.265219688415527,
				-24.30067253112793,
				-9.322418212890625
			],
			"type":"VEC3"
		},
		{
			"bufferView":5,
			"componentType":5126,
			"count":1074,
			"type":"VEC3"
		},
		{
			"bufferView":6,
			"componentType":5126,
			"count":1074,
			"type":"VEC2"
		},
		{
			"bufferView":7,
			"componentType":5123,
			"count":1896,
			"type":"SCALAR"
		},
		{
			"bufferView":8,
			"componentType":5126,
			"count":432,
			"max":[
				10.44190502166748,
				18.982999801635742,
				7.571231842041016
			],
			"min":[
				-8.07000732421875,
				-19.009098052978516,
				-8.966983795166016
			],
			"type":"VEC3"
		},
		{
			"bufferView":9,
			"componentType":5126,
			"count":432,
			"type":"VEC3"
		},
		{
			"bufferView":10,
			"componentType":5126,
			"count":432,
			"type":"VEC2"
		},
		{
			"bufferView":11,
			"componentType":5123,
			"count":648,
			"type":"SCALAR"
		}
	],
	"bufferViews":[
		{
			"buffer":0,
			"byteLength":6348,
			"byteOffset":0,
			"target":34962
		},
		{
			"buffer":0,
			"byteLength":6348,
			"byteOffset":6348,
			"target":34962
		},
		{
			"buffer":0,
			"byteLength":4232,
			"byteOffset":12696,
			"target":34962
		},
		{
			"buffer":0,
			"byteLength":1710,
			"byteOffset":16928,
			"target":34963
		},
		{
			"buffer":0,
			"byteLength":12888,
			"byteOffset":18640,
			"target":34962
		},
		{
			"buffer":0,
			"byteLength":12888,
			"byteOffset":31528,
			"target":34962
		},
		{
			"buffer":0,
			"byteLength":8592,
			"byteOffset":44416,
			"target":34962
		},
		{
			"buffer":0,
			"byteLength":3792,
			"byteOffset":53008,
			"target":34963
		},
		{
			"buffer":0,
			"byteLength":5184,
			"byteOffset":56800,
			"target":34962
		},
		{
			"buffer":0,
			"byteLength":5184,
			"byteOffset":61984,
			"target":34962
		},
		{
			"buffer":0,
			"byteLength":3456,
			"byteOffset":67168,
			"target":34962
		},
		{
			"buffer":0,
			"byteLength":1296,
			"byteOffset":70624,
			"target":34963
		}
	],
	"samplers":[
		{
			"magFilter":9729,
			"minFilter":9987
		}
	],
	"buffers":[
		{
			"byteLength":71920,
			"uri":"tutorial_building7.bin"
		}
	]
}
