{
	"asset":{
		"generator":"Khronos glTF Blender I/O v4.2.70",
		"version":"2.0"
	},
	"extensionsUsed":[
		"KHR_materials_specular"
	],
	"scene":0,
	"scenes":[
		{
			"name":"Scene",
			"nodes":[
				0
			]
		}
	],
	"nodes":[
		{
			"mesh":0,
			"name":"building9"
		}
	],
	"materials":[
		{
			"doubleSided":true,
			"extensions":{
				"KHR_materials_specular":{
					"specularTexture":{
						"index":0
					}
				}
			},
			"name":"Downtown_Facade_FLR_7",
			"pbrMetallicRoughness":{
				"baseColorTexture":{
					"index":1
				},
				"metallicFactor":0,
				"metallicRoughnessTexture":{
					"index":2
				}
			}
		},
		{
			"doubleSided":true,
			"extensions":{
				"KHR_materials_specular":{
					"specularTexture":{
						"index":3
					}
				}
			},
			"name":"Downtown_Modern_Firstfloor_FLR_1",
			"pbrMetallicRoughness":{
				"baseColorTexture":{
					"index":4
				},
				"metallicFactor":0,
				"metallicRoughnessTexture":{
					"index":5
				}
			}
		}
	],
	"meshes":[
		{
			"name":"Downtown_ModernOffice_3_Downtown_Facade_FLR_7_0",
			"primitives":[
				{
					"attributes":{
						"POSITION":0,
						"NORMAL":1,
						"TEXCOORD_0":2,
						"TEXCOORD_1":3,
						"TEXCOORD_2":4,
						"TEXCOORD_3":5,
						"TEXCOORD_4":6,
						"TEXCOORD_5":7,
						"TEXCOORD_6":8,
						"TEXCOORD_7":9
					},
					"indices":10,
					"material":0
				},
				{
					"attributes":{
						"POSITION":11,
						"NORMAL":12,
						"TEXCOORD_0":13,
						"TEXCOORD_1":14,
						"TEXCOORD_2":15,
						"TEXCOORD_3":16,
						"TEXCOORD_4":17,
						"TEXCOORD_5":18,
						"TEXCOORD_6":19,
						"TEXCOORD_7":20
					},
					"indices":21,
					"material":1
				}
			]
		}
	],
	"textures":[
		{
			"sampler":0,
			"source":0
		},
		{
			"sampler":0,
			"source":1
		},
		{
			"sampler":0,
			"source":2
		},
		{
			"sampler":0,
			"source":3
		},
		{
			"sampler":0,
			"source":4
		},
		{
			"sampler":0,
			"source":5
		}
	],
	"images":[
		{
			"mimeType":"image/png",
			"name":"Image_31",
			"uri":"../textures/Image_31.png"
		},
		{
			"mimeType":"image/jpeg",
			"name":"Image_29",
			"uri":"../textures/Image_29.jpg"
		},
		{
			"mimeType":"image/png",
			"name":"Image_30",
			"uri":"../textures/Image_30.png"
		},
		{
			"mimeType":"image/png",
			"name":"Image_34",
			"uri":"../textures/Image_34.png"
		},
		{
			"mimeType":"image/jpeg",
			"name":"Image_32",
			"uri":"../textures/Image_32.jpg"
		},
		{
			"mimeType":"image/png",
			"name":"Image_33",
			"uri":"../textures/Image_33.png"
		}
	],
	"accessors":[
		{
			"bufferView":0,
			"componentType":5126,
			"count":281,
			"max":[
				6.971062183380127,
				9.363529205322266,
				13.743850708007812
			],
			"min":[
				-7.470374584197998,
				-7.866516590118408,
				-11.258544921875
			],
			"type":"VEC3"
		},
		{
			"bufferView":1,
			"componentType":5126,
			"count":281,
			"type":"VEC3"
		},
		{
			"bufferView":2,
			"componentType":5126,
			"count":281,
			"type":"VEC2"
		},
		{
			"bufferView":3,
			"componentType":5126,
			"count":281,
			"type":"VEC2"
		},
		{
			"bufferView":4,
			"componentType":5126,
			"count":281,
			"type":"VEC2"
		},
		{
			"bufferView":5,
			"componentType":5126,
			"count":281,
			"type":"VEC2"
		},
		{
			"bufferView":6,
			"componentType":5126,
			"count":281,
			"type":"VEC2"
		},
		{
			"bufferView":7,
			"componentType":5126,
			"count":281,
			"type":"VEC2"
		},
		{
			"bufferView":8,
			"componentType":5126,
			"count":281,
			"type":"VEC2"
		},
		{
			"bufferView":9,
			"componentType":5126,
			"count":281,
			"type":"VEC2"
		},
		{
			"bufferView":10,
			"componentType":5123,
			"count":429,
			"type":"SCALAR"
		},
		{
			"bufferView":11,
			"componentType":5126,
			"count":531,
			"max":[
				6.648992538452148,
				9.363527297973633,
				13.450363159179688
			],
			"min":[
				-7.470374584197998,
				-10.601459503173828,
				-11.258544921875
			],
			"type":"VEC3"
		},
		{
			"bufferView":12,
			"componentType":5126,
			"count":531,
			"type":"VEC3"
		},
		{
			"bufferView":13,
			"componentType":5126,
			"count":531,
			"type":"VEC2"
		},
		{
			"bufferView":14,
			"componentType":5126,
			"count":531,
			"type":"VEC2"
		},
		{
			"bufferView":15,
			"componentType":5126,
			"count":531,
			"type":"VEC2"
		},
		{
			"bufferView":16,
			"componentType":5126,
			"count":531,
			"type":"VEC2"
		},
		{
			"bufferView":17,
			"componentType":5126,
			"count":531,
			"type":"VEC2"
		},
		{
			"bufferView":18,
			"componentType":5126,
			"count":531,
			"type":"VEC2"
		},
		{
			"bufferView":19,
			"componentType":5126,
			"count":531,
			"type":"VEC2"
		},
		{
			"bufferView":20,
			"componentType":5126,
			"count":531,
			"type":"VEC2"
		},
		{
			"bufferView":21,
			"componentType":5123,
			"count":969,
			"type":"SCALAR"
		}
	],
	"bufferViews":[
		{
			"buffer":0,
			"byteLength":3372,
			"byteOffset":0,
			"target":34962
		},
		{
			"buffer":0,
			"byteLength":3372,
			"byteOffset":3372,
			"target":34962
		},
		{
			"buffer":0,
			"byteLength":2248,
			"byteOffset":6744,
			"target":34962
		},
		{
			"buffer":0,
			"byteLength":2248,
			"byteOffset":8992,
			"target":34962
		},
		{
			"buffer":0,
			"byteLength":2248,
			"byteOffset":11240,
			"target":34962
		},
		{
			"buffer":0,
			"byteLength":2248,
			"byteOffset":13488,
			"target":34962
		},
		{
			"buffer":0,
			"byteLength":2248,
			"byteOffset":15736,
			"target":34962
		},
		{
			"buffer":0,
			"byteLength":2248,
			"byteOffset":17984,
			"target":34962
		},
		{
			"buffer":0,
			"byteLength":2248,
			"byteOffset":20232,
			"target":34962
		},
		{
			"buffer":0,
			"byteLength":2248,
			"byteOffset":22480,
			"target":34962
		},
		{
			"buffer":0,
			"byteLength":858,
			"byteOffset":24728,
			"target":34963
		},
		{
			"buffer":0,
			"byteLength":6372,
			"byteOffset":25588,
			"target":34962
		},
		{
			"buffer":0,
			"byteLength":6372,
			"byteOffset":31960,
			"target":34962
		},
		{
			"buffer":0,
			"byteLength":4248,
			"byteOffset":38332,
			"target":34962
		},
		{
			"buffer":0,
			"byteLength":4248,
			"byteOffset":42580,
			"target":34962
		},
		{
			"buffer":0,
			"byteLength":4248,
			"byteOffset":46828,
			"target":34962
		},
		{
			"buffer":0,
			"byteLength":4248,
			"byteOffset":51076,
			"target":34962
		},
		{
			"buffer":0,
			"byteLength":4248,
			"byteOffset":55324,
			"target":34962
		},
		{
			"buffer":0,
			"byteLength":4248,
			"byteOffset":59572,
			"target":34962
		},
		{
			"buffer":0,
			"byteLength":4248,
			"byteOffset":63820,
			"target":34962
		},
		{
			"buffer":0,
			"byteLength":4248,
			"byteOffset":68068,
			"target":34962
		},
		{
			"buffer":0,
			"byteLength":1938,
			"byteOffset":72316,
			"target":34963
		}
	],
	"samplers":[
		{
			"magFilter":9729,
			"minFilter":9987
		}
	],
	"buffers":[
		{
			"byteLength":74256,
			"uri":"tutorial_building9.bin"
		}
	]
}
