{
	"asset":{
		"generator":"Khronos glTF Blender I/O v4.2.70",
		"version":"2.0"
	},
	"extensionsUsed":[
		"KHR_materials_specular"
	],
	"scene":0,
	"scenes":[
		{
			"name":"Scene",
			"nodes":[
				0
			]
		}
	],
	"nodes":[
		{
			"mesh":0,
			"name":"building8"
		}
	],
	"materials":[
		{
			"doubleSided":true,
			"extensions":{
				"KHR_materials_specular":{
					"specularTexture":{
						"index":0
					}
				}
			},
			"name":"Downtown_Facade_FLR_7_0",
			"pbrMetallicRoughness":{
				"baseColorTexture":{
					"index":1
				},
				"metallicFactor":0,
				"metallicRoughnessTexture":{
					"index":2
				}
			}
		},
		{
			"doubleSided":true,
			"extensions":{
				"KHR_materials_specular":{
					"specularTexture":{
						"index":3
					}
				}
			},
			"name":"Downtown_Firstfloortrim_FLR_1",
			"pbrMetallicRoughness":{
				"baseColorTexture":{
					"index":4
				},
				"metallicFactor":0,
				"metallicRoughnessTexture":{
					"index":5
				}
			}
		},
		{
			"doubleSided":true,
			"extensions":{
				"KHR_materials_specular":{
					"specularTexture":{
						"index":6
					}
				}
			},
			"name":"Downtown_Firstfloor_FLR_2",
			"pbrMetallicRoughness":{
				"baseColorTexture":{
					"index":7
				},
				"metallicFactor":0,
				"metallicRoughnessTexture":{
					"index":8
				}
			}
		}
	],
	"meshes":[
		{
			"name":"Downtown_ModernOffice_1_Downtown_Facade_FLR_7_0",
			"primitives":[
				{
					"attributes":{
						"POSITION":0,
						"NORMAL":1,
						"TEXCOORD_0":2
					},
					"indices":3,
					"material":0
				},
				{
					"attributes":{
						"POSITION":4,
						"NORMAL":5,
						"TEXCOORD_0":6
					},
					"indices":7,
					"material":1
				},
				{
					"attributes":{
						"POSITION":8,
						"NORMAL":9,
						"TEXCOORD_0":10
					},
					"indices":11,
					"material":2
				}
			]
		}
	],
	"textures":[
		{
			"sampler":0,
			"source":0
		},
		{
			"sampler":0,
			"source":1
		},
		{
			"sampler":0,
			"source":2
		},
		{
			"sampler":0,
			"source":3
		},
		{
			"sampler":0,
			"source":4
		},
		{
			"sampler":0,
			"source":5
		},
		{
			"sampler":0,
			"source":6
		},
		{
			"sampler":0,
			"source":7
		},
		{
			"sampler":0,
			"source":8
		}
	],
	"images":[
		{
			"mimeType":"image/png",
			"name":"Image_31",
			"uri":"../textures/Image_31.png"
		},
		{
			"mimeType":"image/jpeg",
			"name":"Image_29",
			"uri":"../textures/Image_29.jpg"
		},
		{
			"mimeType":"image/png",
			"name":"Image_30",
			"uri":"../textures/Image_30.png"
		},
		{
			"mimeType":"image/png",
			"name":"Image_43",
			"uri":"../textures/Image_43.png"
		},
		{
			"mimeType":"image/jpeg",
			"name":"Image_41",
			"uri":"../textures/Image_41.jpg"
		},
		{
			"mimeType":"image/png",
			"name":"Image_42",
			"uri":"../textures/Image_42.png"
		},
		{
			"mimeType":"image/png",
			"name":"Image_14",
			"uri":"../textures/Image_14.png"
		},
		{
			"mimeType":"image/jpeg",
			"name":"Image_12",
			"uri":"../textures/Image_12.jpg"
		},
		{
			"mimeType":"image/png",
			"name":"Image_13",
			"uri":"../textures/Image_13.png"
		}
	],
	"accessors":[
		{
			"bufferView":0,
			"componentType":5126,
			"count":72,
			"max":[
				10.888937950134277,
				9.640190124511719,
				7.887138366699219
			],
			"min":[
				-8.472257614135742,
				-9.450118064880371,
				-9.409805297851562
			],
			"type":"VEC3"
		},
		{
			"bufferView":1,
			"componentType":5126,
			"count":72,
			"type":"VEC3"
		},
		{
			"bufferView":2,
			"componentType":5126,
			"count":72,
			"type":"VEC2"
		},
		{
			"bufferView":3,
			"componentType":5123,
			"count":108,
			"type":"SCALAR"
		},
		{
			"bufferView":4,
			"componentType":5126,
			"count":606,
			"max":[
				10.888938903808594,
				12.982696533203125,
				7.887138366699219
			],
			"min":[
				-8.67642593383789,
				-14.984454154968262,
				-9.781551361083984
			],
			"type":"VEC3"
		},
		{
			"bufferView":5,
			"componentType":5126,
			"count":606,
			"type":"VEC3"
		},
		{
			"bufferView":6,
			"componentType":5126,
			"count":606,
			"type":"VEC2"
		},
		{
			"bufferView":7,
			"componentType":5123,
			"count":1104,
			"type":"SCALAR"
		},
		{
			"bufferView":8,
			"componentType":5126,
			"count":529,
			"max":[
				10.969840049743652,
				12.982696533203125,
				7.954254150390625
			],
			"min":[
				-8.776890754699707,
				-14.984454154968262,
				-9.781539916992188
			],
			"type":"VEC3"
		},
		{
			"bufferView":9,
			"componentType":5126,
			"count":529,
			"type":"VEC3"
		},
		{
			"bufferView":10,
			"componentType":5126,
			"count":529,
			"type":"VEC2"
		},
		{
			"bufferView":11,
			"componentType":5123,
			"count":855,
			"type":"SCALAR"
		}
	],
	"bufferViews":[
		{
			"buffer":0,
			"byteLength":864,
			"byteOffset":0,
			"target":34962
		},
		{
			"buffer":0,
			"byteLength":864,
			"byteOffset":864,
			"target":34962
		},
		{
			"buffer":0,
			"byteLength":576,
			"byteOffset":1728,
			"target":34962
		},
		{
			"buffer":0,
			"byteLength":216,
			"byteOffset":2304,
			"target":34963
		},
		{
			"buffer":0,
			"byteLength":7272,
			"byteOffset":2520,
			"target":34962
		},
		{
			"buffer":0,
			"byteLength":7272,
			"byteOffset":9792,
			"target":34962
		},
		{
			"buffer":0,
			"byteLength":4848,
			"byteOffset":17064,
			"target":34962
		},
		{
			"buffer":0,
			"byteLength":2208,
			"byteOffset":21912,
			"target":34963
		},
		{
			"buffer":0,
			"byteLength":6348,
			"byteOffset":24120,
			"target":34962
		},
		{
			"buffer":0,
			"byteLength":6348,
			"byteOffset":30468,
			"target":34962
		},
		{
			"buffer":0,
			"byteLength":4232,
			"byteOffset":36816,
			"target":34962
		},
		{
			"buffer":0,
			"byteLength":1710,
			"byteOffset":41048,
			"target":34963
		}
	],
	"samplers":[
		{
			"magFilter":9729,
			"minFilter":9987
		}
	],
	"buffers":[
		{
			"byteLength":42760,
			"uri":"tutorial_building8.bin"
		}
	]
}
