{
	"asset":{
		"generator":"Khronos glTF Blender I/O v4.2.70",
		"version":"2.0"
	},
	"extensionsUsed":[
		"KHR_materials_specular"
	],
	"scene":0,
	"scenes":[
		{
			"name":"Scene",
			"nodes":[
				0
			]
		}
	],
	"nodes":[
		{
			"mesh":0,
			"name":"building4"
		}
	],
	"materials":[
		{
			"doubleSided":true,
			"extensions":{
				"KHR_materials_specular":{
					"specularTexture":{
						"index":0
					}
				}
			},
			"name":"Downtown_Concrete_FLR_1",
			"pbrMetallicRoughness":{
				"baseColorTexture":{
					"index":1
				},
				"metallicFactor":0,
				"roughnessFactor":0.8681367039680481
			}
		},
		{
			"doubleSided":true,
			"extensions":{
				"KHR_materials_specular":{
					"specularTexture":{
						"index":2
					}
				}
			},
			"name":"Downtown_Facade_FLR_1",
			"pbrMetallicRoughness":{
				"baseColorTexture":{
					"index":3
				},
				"metallicFactor":0,
				"metallicRoughnessTexture":{
					"index":4
				}
			}
		},
		{
			"doubleSided":true,
			"extensions":{
				"KHR_materials_specular":{
					"specularTexture":{
						"index":5
					}
				}
			},
			"name":"Downtown_Facade_FLR_3",
			"pbrMetallicRoughness":{
				"baseColorTexture":{
					"index":6
				},
				"metallicFactor":0,
				"metallicRoughnessTexture":{
					"index":7
				}
			}
		}
	],
	"meshes":[
		{
			"name":"Downtown_ClassicOffice_1_Downtown_Concrete_FLR_1_0",
			"primitives":[
				{
					"attributes":{
						"POSITION":0,
						"NORMAL":1,
						"TEXCOORD_0":2,
						"TEXCOORD_1":3,
						"TEXCOORD_2":4,
						"TEXCOORD_3":5,
						"TEXCOORD_4":6,
						"TEXCOORD_5":7,
						"TEXCOORD_6":8,
						"TEXCOORD_7":9
					},
					"indices":10,
					"material":0
				},
				{
					"attributes":{
						"POSITION":11,
						"NORMAL":12,
						"TEXCOORD_0":13,
						"TEXCOORD_1":14,
						"TEXCOORD_2":15,
						"TEXCOORD_3":16,
						"TEXCOORD_4":17,
						"TEXCOORD_5":18,
						"TEXCOORD_6":19,
						"TEXCOORD_7":20
					},
					"indices":21,
					"material":1
				},
				{
					"attributes":{
						"POSITION":22,
						"NORMAL":23,
						"TEXCOORD_0":24,
						"TEXCOORD_1":25,
						"TEXCOORD_2":26,
						"TEXCOORD_3":27,
						"TEXCOORD_4":28,
						"TEXCOORD_5":29,
						"TEXCOORD_6":30,
						"TEXCOORD_7":31
					},
					"indices":32,
					"material":2
				}
			]
		}
	],
	"textures":[
		{
			"sampler":0,
			"source":0
		},
		{
			"sampler":0,
			"source":1
		},
		{
			"sampler":0,
			"source":2
		},
		{
			"sampler":0,
			"source":3
		},
		{
			"sampler":0,
			"source":4
		},
		{
			"sampler":0,
			"source":5
		},
		{
			"sampler":0,
			"source":6
		},
		{
			"sampler":0,
			"source":7
		}
	],
	"images":[
		{
			"mimeType":"image/png",
			"name":"Image_22",
			"uri":"../textures/Image_22.png"
		},
		{
			"mimeType":"image/jpeg",
			"name":"Image_21",
			"uri":"../textures/Image_21.jpg"
		},
		{
			"mimeType":"image/png",
			"name":"Image_17",
			"uri":"../textures/Image_17.png"
		},
		{
			"mimeType":"image/jpeg",
			"name":"Image_15",
			"uri":"../textures/Image_15.jpg"
		},
		{
			"mimeType":"image/png",
			"name":"Image_16",
			"uri":"../textures/Image_16.png"
		},
		{
			"mimeType":"image/png",
			"name":"Image_20",
			"uri":"../textures/Image_20.png"
		},
		{
			"mimeType":"image/jpeg",
			"name":"Image_18",
			"uri":"../textures/Image_18.jpg"
		},
		{
			"mimeType":"image/png",
			"name":"Image_19",
			"uri":"../textures/Image_19.png"
		}
	],
	"accessors":[
		{
			"bufferView":0,
			"componentType":5126,
			"count":442,
			"max":[
				19.800779342651367,
				19.346132278442383,
				14.090373992919922
			],
			"min":[
				-19.810373306274414,
				-26.098735809326172,
				-14.572525024414062
			],
			"type":"VEC3"
		},
		{
			"bufferView":1,
			"componentType":5126,
			"count":442,
			"type":"VEC3"
		},
		{
			"bufferView":2,
			"componentType":5126,
			"count":442,
			"type":"VEC2"
		},
		{
			"bufferView":3,
			"componentType":5126,
			"count":442,
			"type":"VEC2"
		},
		{
			"bufferView":4,
			"componentType":5126,
			"count":442,
			"type":"VEC2"
		},
		{
			"bufferView":5,
			"componentType":5126,
			"count":442,
			"type":"VEC2"
		},
		{
			"bufferView":6,
			"componentType":5126,
			"count":442,
			"type":"VEC2"
		},
		{
			"bufferView":7,
			"componentType":5126,
			"count":442,
			"type":"VEC2"
		},
		{
			"bufferView":8,
			"componentType":5126,
			"count":442,
			"type":"VEC2"
		},
		{
			"bufferView":9,
			"componentType":5126,
			"count":442,
			"type":"VEC2"
		},
		{
			"bufferView":10,
			"componentType":5123,
			"count":840,
			"type":"SCALAR"
		},
		{
			"bufferView":11,
			"componentType":5126,
			"count":2759,
			"max":[
				19.8007869720459,
				18.45817756652832,
				16.276161193847656
			],
			"min":[
				-19.810373306274414,
				-26.098739624023438,
				-15.672576904296875
			],
			"type":"VEC3"
		},
		{
			"bufferView":12,
			"componentType":5126,
			"count":2759,
			"type":"VEC3"
		},
		{
			"bufferView":13,
			"componentType":5126,
			"count":2759,
			"type":"VEC2"
		},
		{
			"bufferView":14,
			"componentType":5126,
			"count":2759,
			"type":"VEC2"
		},
		{
			"bufferView":15,
			"componentType":5126,
			"count":2759,
			"type":"VEC2"
		},
		{
			"bufferView":16,
			"componentType":5126,
			"count":2759,
			"type":"VEC2"
		},
		{
			"bufferView":17,
			"componentType":5126,
			"count":2759,
			"type":"VEC2"
		},
		{
			"bufferView":18,
			"componentType":5126,
			"count":2759,
			"type":"VEC2"
		},
		{
			"bufferView":19,
			"componentType":5126,
			"count":2759,
			"type":"VEC2"
		},
		{
			"bufferView":20,
			"componentType":5126,
			"count":2759,
			"type":"VEC2"
		},
		{
			"bufferView":21,
			"componentType":5123,
			"count":4326,
			"type":"SCALAR"
		},
		{
			"bufferView":22,
			"componentType":5126,
			"count":1909,
			"max":[
				19.812007904052734,
				19.721065521240234,
				15.474418640136719
			],
			"min":[
				-19.82160186767578,
				-26.09872817993164,
				-15.956565856933594
			],
			"type":"VEC3"
		},
		{
			"bufferView":23,
			"componentType":5126,
			"count":1909,
			"type":"VEC3"
		},
		{
			"bufferView":24,
			"componentType":5126,
			"count":1909,
			"type":"VEC2"
		},
		{
			"bufferView":25,
			"componentType":5126,
			"count":1909,
			"type":"VEC2"
		},
		{
			"bufferView":26,
			"componentType":5126,
			"count":1909,
			"type":"VEC2"
		},
		{
			"bufferView":27,
			"componentType":5126,
			"count":1909,
			"type":"VEC2"
		},
		{
			"bufferView":28,
			"componentType":5126,
			"count":1909,
			"type":"VEC2"
		},
		{
			"bufferView":29,
			"componentType":5126,
			"count":1909,
			"type":"VEC2"
		},
		{
			"bufferView":30,
			"componentType":5126,
			"count":1909,
			"type":"VEC2"
		},
		{
			"bufferView":31,
			"componentType":5126,
			"count":1909,
			"type":"VEC2"
		},
		{
			"bufferView":32,
			"componentType":5123,
			"count":3108,
			"type":"SCALAR"
		}
	],
	"bufferViews":[
		{
			"buffer":0,
			"byteLength":5304,
			"byteOffset":0,
			"target":34962
		},
		{
			"buffer":0,
			"byteLength":5304,
			"byteOffset":5304,
			"target":34962
		},
		{
			"buffer":0,
			"byteLength":3536,
			"byteOffset":10608,
			"target":34962
		},
		{
			"buffer":0,
			"byteLength":3536,
			"byteOffset":14144,
			"target":34962
		},
		{
			"buffer":0,
			"byteLength":3536,
			"byteOffset":17680,
			"target":34962
		},
		{
			"buffer":0,
			"byteLength":3536,
			"byteOffset":21216,
			"target":34962
		},
		{
			"buffer":0,
			"byteLength":3536,
			"byteOffset":24752,
			"target":34962
		},
		{
			"buffer":0,
			"byteLength":3536,
			"byteOffset":28288,
			"target":34962
		},
		{
			"buffer":0,
			"byteLength":3536,
			"byteOffset":31824,
			"target":34962
		},
		{
			"buffer":0,
			"byteLength":3536,
			"byteOffset":35360,
			"target":34962
		},
		{
			"buffer":0,
			"byteLength":1680,
			"byteOffset":38896,
			"target":34963
		},
		{
			"buffer":0,
			"byteLength":33108,
			"byteOffset":40576,
			"target":34962
		},
		{
			"buffer":0,
			"byteLength":33108,
			"byteOffset":73684,
			"target":34962
		},
		{
			"buffer":0,
			"byteLength":22072,
			"byteOffset":106792,
			"target":34962
		},
		{
			"buffer":0,
			"byteLength":22072,
			"byteOffset":128864,
			"target":34962
		},
		{
			"buffer":0,
			"byteLength":22072,
			"byteOffset":150936,
			"target":34962
		},
		{
			"buffer":0,
			"byteLength":22072,
			"byteOffset":173008,
			"target":34962
		},
		{
			"buffer":0,
			"byteLength":22072,
			"byteOffset":195080,
			"target":34962
		},
		{
			"buffer":0,
			"byteLength":22072,
			"byteOffset":217152,
			"target":34962
		},
		{
			"buffer":0,
			"byteLength":22072,
			"byteOffset":239224,
			"target":34962
		},
		{
			"buffer":0,
			"byteLength":22072,
			"byteOffset":261296,
			"target":34962
		},
		{
			"buffer":0,
			"byteLength":8652,
			"byteOffset":283368,
			"target":34963
		},
		{
			"buffer":0,
			"byteLength":22908,
			"byteOffset":292020,
			"target":34962
		},
		{
			"buffer":0,
			"byteLength":22908,
			"byteOffset":314928,
			"target":34962
		},
		{
			"buffer":0,
			"byteLength":15272,
			"byteOffset":337836,
			"target":34962
		},
		{
			"buffer":0,
			"byteLength":15272,
			"byteOffset":353108,
			"target":34962
		},
		{
			"buffer":0,
			"byteLength":15272,
			"byteOffset":368380,
			"target":34962
		},
		{
			"buffer":0,
			"byteLength":15272,
			"byteOffset":383652,
			"target":34962
		},
		{
			"buffer":0,
			"byteLength":15272,
			"byteOffset":398924,
			"target":34962
		},
		{
			"buffer":0,
			"byteLength":15272,
			"byteOffset":414196,
			"target":34962
		},
		{
			"buffer":0,
			"byteLength":15272,
			"byteOffset":429468,
			"target":34962
		},
		{
			"buffer":0,
			"byteLength":15272,
			"byteOffset":444740,
			"target":34962
		},
		{
			"buffer":0,
			"byteLength":6216,
			"byteOffset":460012,
			"target":34963
		}
	],
	"samplers":[
		{
			"magFilter":9729,
			"minFilter":9987
		}
	],
	"buffers":[
		{
			"byteLength":466228,
			"uri":"tutorial_building4.bin"
		}
	]
}
