{
	"asset":{
		"generator":"Khronos glTF Blender I/O v4.2.70",
		"version":"2.0"
	},
	"extensionsUsed":[
		"KHR_materials_specular"
	],
	"scene":0,
	"scenes":[
		{
			"name":"Scene",
			"nodes":[
				0
			]
		}
	],
	"nodes":[
		{
			"mesh":0,
			"name":"building13"
		}
	],
	"materials":[
		{
			"doubleSided":true,
			"extensions":{
				"KHR_materials_specular":{
					"specularTexture":{
						"index":0
					}
				}
			},
			"name":"Downtown_Facade_FLR_3",
			"pbrMetallicRoughness":{
				"baseColorTexture":{
					"index":1
				},
				"metallicFactor":0,
				"metallicRoughnessTexture":{
					"index":2
				}
			}
		},
		{
			"doubleSided":true,
			"extensions":{
				"KHR_materials_specular":{
					"specularTexture":{
						"index":3
					}
				}
			},
			"name":"Downtown_Modern_Firstfloor_FLR_1",
			"pbrMetallicRoughness":{
				"baseColorTexture":{
					"index":4
				},
				"metallicFactor":0,
				"metallicRoughnessTexture":{
					"index":5
				}
			}
		}
	],
	"meshes":[
		{
			"name":"Downtown_Residential_2_Downtown_Facade_FLR_3_0",
			"primitives":[
				{
					"attributes":{
						"POSITION":0,
						"NORMAL":1,
						"TEXCOORD_0":2
					},
					"indices":3,
					"material":0
				},
				{
					"attributes":{
						"POSITION":4,
						"NORMAL":5,
						"TEXCOORD_0":6
					},
					"indices":7,
					"material":1
				}
			]
		}
	],
	"textures":[
		{
			"sampler":0,
			"source":0
		},
		{
			"sampler":0,
			"source":1
		},
		{
			"sampler":0,
			"source":2
		},
		{
			"sampler":0,
			"source":3
		},
		{
			"sampler":0,
			"source":4
		},
		{
			"sampler":0,
			"source":5
		}
	],
	"images":[
		{
			"mimeType":"image/png",
			"name":"Image_20",
			"uri":"../textures/Image_20.png"
		},
		{
			"mimeType":"image/jpeg",
			"name":"Image_18",
			"uri":"../textures/Image_18.jpg"
		},
		{
			"mimeType":"image/png",
			"name":"Image_19",
			"uri":"../textures/Image_19.png"
		},
		{
			"mimeType":"image/png",
			"name":"Image_34",
			"uri":"../textures/Image_34.png"
		},
		{
			"mimeType":"image/jpeg",
			"name":"Image_32",
			"uri":"../textures/Image_32.jpg"
		},
		{
			"mimeType":"image/png",
			"name":"Image_33",
			"uri":"../textures/Image_33.png"
		}
	],
	"accessors":[
		{
			"bufferView":0,
			"componentType":5126,
			"count":2093,
			"max":[
				16.354177474975586,
				13.834704399108887,
				16.655654907226562
			],
			"min":[
				-16.64906883239746,
				-17.350997924804688,
				-16.34759521484375
			],
			"type":"VEC3"
		},
		{
			"bufferView":1,
			"componentType":5126,
			"count":2093,
			"type":"VEC3"
		},
		{
			"bufferView":2,
			"componentType":5126,
			"count":2093,
			"type":"VEC2"
		},
		{
			"bufferView":3,
			"componentType":5123,
			"count":4011,
			"type":"SCALAR"
		},
		{
			"bufferView":4,
			"componentType":5126,
			"count":48,
			"max":[
				13.54893970489502,
				-12.300378799438477,
				14.000579833984375
			],
			"min":[
				-13.890725135803223,
				-17.350997924804688,
				-13.542373657226562
			],
			"type":"VEC3"
		},
		{
			"bufferView":5,
			"componentType":5126,
			"count":48,
			"type":"VEC3"
		},
		{
			"bufferView":6,
			"componentType":5126,
			"count":48,
			"type":"VEC2"
		},
		{
			"bufferView":7,
			"componentType":5123,
			"count":96,
			"type":"SCALAR"
		}
	],
	"bufferViews":[
		{
			"buffer":0,
			"byteLength":25116,
			"byteOffset":0,
			"target":34962
		},
		{
			"buffer":0,
			"byteLength":25116,
			"byteOffset":25116,
			"target":34962
		},
		{
			"buffer":0,
			"byteLength":16744,
			"byteOffset":50232,
			"target":34962
		},
		{
			"buffer":0,
			"byteLength":8022,
			"byteOffset":66976,
			"target":34963
		},
		{
			"buffer":0,
			"byteLength":576,
			"byteOffset":75000,
			"target":34962
		},
		{
			"buffer":0,
			"byteLength":576,
			"byteOffset":75576,
			"target":34962
		},
		{
			"buffer":0,
			"byteLength":384,
			"byteOffset":76152,
			"target":34962
		},
		{
			"buffer":0,
			"byteLength":192,
			"byteOffset":76536,
			"target":34963
		}
	],
	"samplers":[
		{
			"magFilter":9729,
			"minFilter":9987
		}
	],
	"buffers":[
		{
			"byteLength":76728,
			"uri":"tutorial_building13.bin"
		}
	]
}
