{
	"asset":{
		"generator":"Khronos glTF Blender I/O v4.2.70",
		"version":"2.0"
	},
	"extensionsUsed":[
		"KHR_materials_specular"
	],
	"scene":0,
	"scenes":[
		{
			"name":"Scene",
			"nodes":[
				0
			]
		}
	],
	"nodes":[
		{
			"mesh":0,
			"name":"building2"
		}
	],
	"materials":[
		{
			"doubleSided":true,
			"extensions":{
				"KHR_materials_specular":{
					"specularTexture":{
						"index":0
					}
				}
			},
			"name":"Downtown_Brownstone_Firstfloor_1",
			"pbrMetallicRoughness":{
				"baseColorTexture":{
					"index":1
				},
				"metallicFactor":0,
				"metallicRoughnessTexture":{
					"index":2
				}
			}
		},
		{
			"doubleSided":true,
			"extensions":{
				"KHR_materials_specular":{
					"specularTexture":{
						"index":3
					}
				}
			},
			"name":"Downtown_Facade_FLR_2",
			"pbrMetallicRoughness":{
				"baseColorTexture":{
					"index":4
				},
				"metallicFactor":0,
				"metallicRoughnessTexture":{
					"index":5
				}
			}
		}
	],
	"meshes":[
		{
			"name":"Downtown_BrownstoneOffice_1_Downtown_Brownstone_Firstfloor_1_0",
			"primitives":[
				{
					"attributes":{
						"POSITION":0,
						"NORMAL":1,
						"TEXCOORD_0":2
					},
					"indices":3,
					"material":0
				},
				{
					"attributes":{
						"POSITION":4,
						"NORMAL":5,
						"TEXCOORD_0":6
					},
					"indices":7,
					"material":1
				}
			]
		}
	],
	"textures":[
		{
			"sampler":0,
			"source":0
		},
		{
			"sampler":0,
			"source":1
		},
		{
			"sampler":0,
			"source":2
		},
		{
			"sampler":0,
			"source":3
		},
		{
			"sampler":0,
			"source":4
		},
		{
			"sampler":0,
			"source":5
		}
	],
	"images":[
		{
			"mimeType":"image/png",
			"name":"Image_5",
			"uri":"../textures/Image_5.png"
		},
		{
			"mimeType":"image/jpeg",
			"name":"Image_3",
			"uri":"../textures/Image_3.jpg"
		},
		{
			"mimeType":"image/png",
			"name":"Image_4",
			"uri":"../textures/Image_4.png"
		},
		{
			"mimeType":"image/png",
			"name":"Image_2",
			"uri":"../textures/Image_2.png"
		},
		{
			"mimeType":"image/jpeg",
			"name":"Image_0",
			"uri":"../textures/Image_0.jpg"
		},
		{
			"mimeType":"image/png",
			"name":"Image_1",
			"uri":"../textures/Image_1.png"
		}
	],
	"accessors":[
		{
			"bufferView":0,
			"componentType":5126,
			"count":1789,
			"max":[
				6.7937469482421875,
				9.246057510375977,
				20.37652587890625
			],
			"min":[
				-7.986140251159668,
				-10.33349323272705,
				-20.492294311523438
			],
			"type":"VEC3"
		},
		{
			"bufferView":1,
			"componentType":5126,
			"count":1789,
			"type":"VEC3"
		},
		{
			"bufferView":2,
			"componentType":5126,
			"count":1789,
			"type":"VEC2"
		},
		{
			"bufferView":3,
			"componentType":5123,
			"count":2964,
			"type":"SCALAR"
		},
		{
			"bufferView":4,
			"componentType":5126,
			"count":3946,
			"max":[
				7.344059467315674,
				8.453490257263184,
				20.94970703125
			],
			"min":[
				-7.372605323791504,
				-10.33349323272705,
				-21.019515991210938
			],
			"type":"VEC3"
		},
		{
			"bufferView":5,
			"componentType":5126,
			"count":3946,
			"type":"VEC3"
		},
		{
			"bufferView":6,
			"componentType":5126,
			"count":3946,
			"type":"VEC2"
		},
		{
			"bufferView":7,
			"componentType":5123,
			"count":6294,
			"type":"SCALAR"
		}
	],
	"bufferViews":[
		{
			"buffer":0,
			"byteLength":21468,
			"byteOffset":0,
			"target":34962
		},
		{
			"buffer":0,
			"byteLength":21468,
			"byteOffset":21468,
			"target":34962
		},
		{
			"buffer":0,
			"byteLength":14312,
			"byteOffset":42936,
			"target":34962
		},
		{
			"buffer":0,
			"byteLength":5928,
			"byteOffset":57248,
			"target":34963
		},
		{
			"buffer":0,
			"byteLength":47352,
			"byteOffset":63176,
			"target":34962
		},
		{
			"buffer":0,
			"byteLength":47352,
			"byteOffset":110528,
			"target":34962
		},
		{
			"buffer":0,
			"byteLength":31568,
			"byteOffset":157880,
			"target":34962
		},
		{
			"buffer":0,
			"byteLength":12588,
			"byteOffset":189448,
			"target":34963
		}
	],
	"samplers":[
		{
			"magFilter":9729,
			"minFilter":9987
		}
	],
	"buffers":[
		{
			"byteLength":202036,
			"uri":"tutorial_building2.bin"
		}
	]
}
