{
	"asset":{
		"generator":"Khronos glTF Blender I/O v4.2.70",
		"version":"2.0"
	},
	"extensionsUsed":[
		"KHR_materials_specular"
	],
	"scene":0,
	"scenes":[
		{
			"name":"Scene",
			"nodes":[
				0
			]
		}
	],
	"nodes":[
		{
			"mesh":0,
			"name":"building5"
		}
	],
	"materials":[
		{
			"doubleSided":true,
			"extensions":{
				"KHR_materials_specular":{
					"specularTexture":{
						"index":0
					}
				}
			},
			"name":"Downtown_Facade_FLR_1",
			"pbrMetallicRoughness":{
				"baseColorTexture":{
					"index":1
				},
				"metallicFactor":0,
				"metallicRoughnessTexture":{
					"index":2
				}
			}
		},
		{
			"doubleSided":true,
			"extensions":{
				"KHR_materials_specular":{
					"specularTexture":{
						"index":3
					}
				}
			},
			"name":"Downtown_Facade_FLR_3",
			"pbrMetallicRoughness":{
				"baseColorTexture":{
					"index":4
				},
				"metallicFactor":0,
				"metallicRoughnessTexture":{
					"index":5
				}
			}
		}
	],
	"meshes":[
		{
			"name":"Downtown_Flatiron_1_Downtown_Facade_FLR_1_0",
			"primitives":[
				{
					"attributes":{
						"POSITION":0,
						"NORMAL":1,
						"TEXCOORD_0":2,
						"TEXCOORD_1":3,
						"TEXCOORD_2":4,
						"TEXCOORD_3":5,
						"TEXCOORD_4":6,
						"TEXCOORD_5":7,
						"TEXCOORD_6":8,
						"TEXCOORD_7":9
					},
					"indices":10,
					"material":0
				},
				{
					"attributes":{
						"POSITION":11,
						"NORMAL":12,
						"TEXCOORD_0":13,
						"TEXCOORD_1":14,
						"TEXCOORD_2":15,
						"TEXCOORD_3":16,
						"TEXCOORD_4":17,
						"TEXCOORD_5":18,
						"TEXCOORD_6":19,
						"TEXCOORD_7":20
					},
					"indices":21,
					"material":1
				}
			]
		}
	],
	"textures":[
		{
			"sampler":0,
			"source":0
		},
		{
			"sampler":0,
			"source":1
		},
		{
			"sampler":0,
			"source":2
		},
		{
			"sampler":0,
			"source":3
		},
		{
			"sampler":0,
			"source":4
		},
		{
			"sampler":0,
			"source":5
		}
	],
	"images":[
		{
			"mimeType":"image/png",
			"name":"Image_17",
			"uri":"../textures/Image_17.png"
		},
		{
			"mimeType":"image/jpeg",
			"name":"Image_15",
			"uri":"../textures/Image_15.jpg"
		},
		{
			"mimeType":"image/png",
			"name":"Image_16",
			"uri":"../textures/Image_16.png"
		},
		{
			"mimeType":"image/png",
			"name":"Image_20",
			"uri":"../textures/Image_20.png"
		},
		{
			"mimeType":"image/jpeg",
			"name":"Image_18",
			"uri":"../textures/Image_18.jpg"
		},
		{
			"mimeType":"image/png",
			"name":"Image_19",
			"uri":"../textures/Image_19.png"
		}
	],
	"accessors":[
		{
			"bufferView":0,
			"componentType":5126,
			"count":711,
			"max":[
				15.886944770812988,
				21.13943862915039,
				8.828544616699219
			],
			"min":[
				-19.778810501098633,
				-33.04525375366211,
				-16.776561737060547
			],
			"type":"VEC3"
		},
		{
			"bufferView":1,
			"componentType":5126,
			"count":711,
			"type":"VEC3"
		},
		{
			"bufferView":2,
			"componentType":5126,
			"count":711,
			"type":"VEC2"
		},
		{
			"bufferView":3,
			"componentType":5126,
			"count":711,
			"type":"VEC2"
		},
		{
			"bufferView":4,
			"componentType":5126,
			"count":711,
			"type":"VEC2"
		},
		{
			"bufferView":5,
			"componentType":5126,
			"count":711,
			"type":"VEC2"
		},
		{
			"bufferView":6,
			"componentType":5126,
			"count":711,
			"type":"VEC2"
		},
		{
			"bufferView":7,
			"componentType":5126,
			"count":711,
			"type":"VEC2"
		},
		{
			"bufferView":8,
			"componentType":5126,
			"count":711,
			"type":"VEC2"
		},
		{
			"bufferView":9,
			"componentType":5126,
			"count":711,
			"type":"VEC2"
		},
		{
			"bufferView":10,
			"componentType":5123,
			"count":1191,
			"type":"SCALAR"
		},
		{
			"bufferView":11,
			"componentType":5126,
			"count":20883,
			"max":[
				15.886943817138672,
				20.027132034301758,
				8.828544616699219
			],
			"min":[
				-19.778810501098633,
				-33.04525375366211,
				-16.776561737060547
			],
			"type":"VEC3"
		},
		{
			"bufferView":12,
			"componentType":5126,
			"count":20883,
			"type":"VEC3"
		},
		{
			"bufferView":13,
			"componentType":5126,
			"count":20883,
			"type":"VEC2"
		},
		{
			"bufferView":14,
			"componentType":5126,
			"count":20883,
			"type":"VEC2"
		},
		{
			"bufferView":15,
			"componentType":5126,
			"count":20883,
			"type":"VEC2"
		},
		{
			"bufferView":16,
			"componentType":5126,
			"count":20883,
			"type":"VEC2"
		},
		{
			"bufferView":17,
			"componentType":5126,
			"count":20883,
			"type":"VEC2"
		},
		{
			"bufferView":18,
			"componentType":5126,
			"count":20883,
			"type":"VEC2"
		},
		{
			"bufferView":19,
			"componentType":5126,
			"count":20883,
			"type":"VEC2"
		},
		{
			"bufferView":20,
			"componentType":5126,
			"count":20883,
			"type":"VEC2"
		},
		{
			"bufferView":21,
			"componentType":5123,
			"count":44787,
			"type":"SCALAR"
		}
	],
	"bufferViews":[
		{
			"buffer":0,
			"byteLength":8532,
			"byteOffset":0,
			"target":34962
		},
		{
			"buffer":0,
			"byteLength":8532,
			"byteOffset":8532,
			"target":34962
		},
		{
			"buffer":0,
			"byteLength":5688,
			"byteOffset":17064,
			"target":34962
		},
		{
			"buffer":0,
			"byteLength":5688,
			"byteOffset":22752,
			"target":34962
		},
		{
			"buffer":0,
			"byteLength":5688,
			"byteOffset":28440,
			"target":34962
		},
		{
			"buffer":0,
			"byteLength":5688,
			"byteOffset":34128,
			"target":34962
		},
		{
			"buffer":0,
			"byteLength":5688,
			"byteOffset":39816,
			"target":34962
		},
		{
			"buffer":0,
			"byteLength":5688,
			"byteOffset":45504,
			"target":34962
		},
		{
			"buffer":0,
			"byteLength":5688,
			"byteOffset":51192,
			"target":34962
		},
		{
			"buffer":0,
			"byteLength":5688,
			"byteOffset":56880,
			"target":34962
		},
		{
			"buffer":0,
			"byteLength":2382,
			"byteOffset":62568,
			"target":34963
		},
		{
			"buffer":0,
			"byteLength":250596,
			"byteOffset":64952,
			"target":34962
		},
		{
			"buffer":0,
			"byteLength":250596,
			"byteOffset":315548,
			"target":34962
		},
		{
			"buffer":0,
			"byteLength":167064,
			"byteOffset":566144,
			"target":34962
		},
		{
			"buffer":0,
			"byteLength":167064,
			"byteOffset":733208,
			"target":34962
		},
		{
			"buffer":0,
			"byteLength":167064,
			"byteOffset":900272,
			"target":34962
		},
		{
			"buffer":0,
			"byteLength":167064,
			"byteOffset":1067336,
			"target":34962
		},
		{
			"buffer":0,
			"byteLength":167064,
			"byteOffset":1234400,
			"target":34962
		},
		{
			"buffer":0,
			"byteLength":167064,
			"byteOffset":1401464,
			"target":34962
		},
		{
			"buffer":0,
			"byteLength":167064,
			"byteOffset":1568528,
			"target":34962
		},
		{
			"buffer":0,
			"byteLength":167064,
			"byteOffset":1735592,
			"target":34962
		},
		{
			"buffer":0,
			"byteLength":89574,
			"byteOffset":1902656,
			"target":34963
		}
	],
	"samplers":[
		{
			"magFilter":9729,
			"minFilter":9987
		}
	],
	"buffers":[
		{
			"byteLength":1992232,
			"uri":"tutorial_building5.bin"
		}
	]
}
