{
	"asset":{
		"generator":"Khronos glTF Blender I/O v4.2.70",
		"version":"2.0"
	},
	"extensionsUsed":[
		"KHR_materials_specular"
	],
	"scene":0,
	"scenes":[
		{
			"name":"Scene",
			"nodes":[
				0
			]
		}
	],
	"nodes":[
		{
			"mesh":0,
			"name":"building11"
		}
	],
	"materials":[
		{
			"doubleSided":true,
			"extensions":{
				"KHR_materials_specular":{
					"specularTexture":{
						"index":0
					}
				}
			},
			"name":"Downtown_Facade_FLR_4",
			"pbrMetallicRoughness":{
				"baseColorTexture":{
					"index":1
				},
				"metallicFactor":0,
				"metallicRoughnessTexture":{
					"index":2
				}
			}
		},
		{
			"doubleSided":true,
			"extensions":{
				"KHR_materials_specular":{
					"specularTexture":{
						"index":3
					}
				}
			},
			"name":"Downtown_Modern_Firstfloor_FLR_1",
			"pbrMetallicRoughness":{
				"baseColorTexture":{
					"index":4
				},
				"metallicFactor":0,
				"metallicRoughnessTexture":{
					"index":5
				}
			}
		}
	],
	"meshes":[
		{
			"name":"Downtown_ModernOffice_5_B_Downtown_Facade_FLR_4_0",
			"primitives":[
				{
					"attributes":{
						"POSITION":0,
						"NORMAL":1,
						"TEXCOORD_0":2
					},
					"indices":3,
					"material":0
				},
				{
					"attributes":{
						"POSITION":4,
						"NORMAL":5,
						"TEXCOORD_0":6
					},
					"indices":7,
					"material":1
				}
			]
		}
	],
	"textures":[
		{
			"sampler":0,
			"source":0
		},
		{
			"sampler":0,
			"source":1
		},
		{
			"sampler":0,
			"source":2
		},
		{
			"sampler":0,
			"source":3
		},
		{
			"sampler":0,
			"source":4
		},
		{
			"sampler":0,
			"source":5
		}
	],
	"images":[
		{
			"mimeType":"image/png",
			"name":"Image_40",
			"uri":"../textures/Image_40.png"
		},
		{
			"mimeType":"image/jpeg",
			"name":"Image_38",
			"uri":"../textures/Image_38.jpg"
		},
		{
			"mimeType":"image/png",
			"name":"Image_39",
			"uri":"../textures/Image_39.png"
		},
		{
			"mimeType":"image/png",
			"name":"Image_34",
			"uri":"../textures/Image_34.png"
		},
		{
			"mimeType":"image/jpeg",
			"name":"Image_32",
			"uri":"../textures/Image_32.jpg"
		},
		{
			"mimeType":"image/png",
			"name":"Image_33",
			"uri":"../textures/Image_33.png"
		}
	],
	"accessors":[
		{
			"bufferView":0,
			"componentType":5126,
			"count":5272,
			"max":[
				11.28328800201416,
				27.47037696838379,
				11.137420654296875
			],
			"min":[
				-11.242582321166992,
				-25.14706039428711,
				-11.388458251953125
			],
			"type":"VEC3"
		},
		{
			"bufferView":1,
			"componentType":5126,
			"count":5272,
			"type":"VEC3"
		},
		{
			"bufferView":2,
			"componentType":5126,
			"count":5272,
			"type":"VEC2"
		},
		{
			"bufferView":3,
			"componentType":5123,
			"count":7896,
			"type":"SCALAR"
		},
		{
			"bufferView":4,
			"componentType":5126,
			"count":864,
			"max":[
				10.516753196716309,
				39.37078094482422,
				10.370880126953125
			],
			"min":[
				-10.47604751586914,
				-25.14706039428711,
				-10.621932983398438
			],
			"type":"VEC3"
		},
		{
			"bufferView":5,
			"componentType":5126,
			"count":864,
			"type":"VEC3"
		},
		{
			"bufferView":6,
			"componentType":5126,
			"count":864,
			"type":"VEC2"
		},
		{
			"bufferView":7,
			"componentType":5123,
			"count":1272,
			"type":"SCALAR"
		}
	],
	"bufferViews":[
		{
			"buffer":0,
			"byteLength":63264,
			"byteOffset":0,
			"target":34962
		},
		{
			"buffer":0,
			"byteLength":63264,
			"byteOffset":63264,
			"target":34962
		},
		{
			"buffer":0,
			"byteLength":42176,
			"byteOffset":126528,
			"target":34962
		},
		{
			"buffer":0,
			"byteLength":15792,
			"byteOffset":168704,
			"target":34963
		},
		{
			"buffer":0,
			"byteLength":10368,
			"byteOffset":184496,
			"target":34962
		},
		{
			"buffer":0,
			"byteLength":10368,
			"byteOffset":194864,
			"target":34962
		},
		{
			"buffer":0,
			"byteLength":6912,
			"byteOffset":205232,
			"target":34962
		},
		{
			"buffer":0,
			"byteLength":2544,
			"byteOffset":212144,
			"target":34963
		}
	],
	"samplers":[
		{
			"magFilter":9729,
			"minFilter":9987
		}
	],
	"buffers":[
		{
			"byteLength":214688,
			"uri":"tutorial_building11.bin"
		}
	]
}
