{
	"asset":{
		"generator":"Khronos glTF Blender I/O v4.2.70",
		"version":"2.0"
	},
	"extensionsUsed":[
		"KHR_materials_specular"
	],
	"scene":0,
	"scenes":[
		{
			"name":"Scene",
			"nodes":[
				0
			]
		}
	],
	"nodes":[
		{
			"mesh":0,
			"name":"building3"
		}
	],
	"materials":[
		{
			"doubleSided":true,
			"extensions":{
				"KHR_materials_specular":{
					"specularTexture":{
						"index":0
					}
				}
			},
			"name":"Downtown_Modern_Firstfloor_FLR_1",
			"pbrMetallicRoughness":{
				"baseColorTexture":{
					"index":1
				},
				"metallicFactor":0,
				"metallicRoughnessTexture":{
					"index":2
				}
			}
		},
		{
			"doubleSided":true,
			"extensions":{
				"KHR_materials_specular":{
					"specularTexture":{
						"index":3
					}
				}
			},
			"name":"Downtown_Concrete_FLR_1",
			"pbrMetallicRoughness":{
				"baseColorTexture":{
					"index":4
				},
				"metallicFactor":0,
				"roughnessFactor":0.8681367039680481
			}
		}
	],
	"meshes":[
		{
			"name":"Downtown_Brutal_1_Downtown_Modern_Firstfloor_FLR_1_0",
			"primitives":[
				{
					"attributes":{
						"POSITION":0,
						"NORMAL":1,
						"TEXCOORD_0":2
					},
					"indices":3,
					"material":0
				},
				{
					"attributes":{
						"POSITION":4,
						"NORMAL":5,
						"TEXCOORD_0":6
					},
					"indices":7,
					"material":1
				}
			]
		}
	],
	"textures":[
		{
			"sampler":0,
			"source":0
		},
		{
			"sampler":0,
			"source":1
		},
		{
			"sampler":0,
			"source":2
		},
		{
			"sampler":0,
			"source":3
		},
		{
			"sampler":0,
			"source":4
		}
	],
	"images":[
		{
			"mimeType":"image/png",
			"name":"Image_34",
			"uri":"../textures/Image_34.png"
		},
		{
			"mimeType":"image/jpeg",
			"name":"Image_32",
			"uri":"../textures/Image_32.jpg"
		},
		{
			"mimeType":"image/png",
			"name":"Image_33",
			"uri":"../textures/Image_33.png"
		},
		{
			"mimeType":"image/png",
			"name":"Image_22",
			"uri":"../textures/Image_22.png"
		},
		{
			"mimeType":"image/jpeg",
			"name":"Image_21",
			"uri":"../textures/Image_21.jpg"
		}
	],
	"accessors":[
		{
			"bufferView":0,
			"componentType":5126,
			"count":580,
			"max":[
				22.336814880371094,
				8.18858814239502,
				22.72235107421875
			],
			"min":[
				-22.33612823486328,
				-14.745878219604492,
				-21.078582763671875
			],
			"type":"VEC3"
		},
		{
			"bufferView":1,
			"componentType":5126,
			"count":580,
			"type":"VEC3"
		},
		{
			"bufferView":2,
			"componentType":5126,
			"count":580,
			"type":"VEC2"
		},
		{
			"bufferView":3,
			"componentType":5123,
			"count":870,
			"type":"SCALAR"
		},
		{
			"bufferView":4,
			"componentType":5126,
			"count":4633,
			"max":[
				22.646263122558594,
				10.52443790435791,
				23.03179931640625
			],
			"min":[
				-22.64557647705078,
				-14.74588680267334,
				-21.645248413085938
			],
			"type":"VEC3"
		},
		{
			"bufferView":5,
			"componentType":5126,
			"count":4633,
			"type":"VEC3"
		},
		{
			"bufferView":6,
			"componentType":5126,
			"count":4633,
			"type":"VEC2"
		},
		{
			"bufferView":7,
			"componentType":5123,
			"count":8778,
			"type":"SCALAR"
		}
	],
	"bufferViews":[
		{
			"buffer":0,
			"byteLength":6960,
			"byteOffset":0,
			"target":34962
		},
		{
			"buffer":0,
			"byteLength":6960,
			"byteOffset":6960,
			"target":34962
		},
		{
			"buffer":0,
			"byteLength":4640,
			"byteOffset":13920,
			"target":34962
		},
		{
			"buffer":0,
			"byteLength":1740,
			"byteOffset":18560,
			"target":34963
		},
		{
			"buffer":0,
			"byteLength":55596,
			"byteOffset":20300,
			"target":34962
		},
		{
			"buffer":0,
			"byteLength":55596,
			"byteOffset":75896,
			"target":34962
		},
		{
			"buffer":0,
			"byteLength":37064,
			"byteOffset":131492,
			"target":34962
		},
		{
			"buffer":0,
			"byteLength":17556,
			"byteOffset":168556,
			"target":34963
		}
	],
	"samplers":[
		{
			"magFilter":9729,
			"minFilter":9987
		}
	],
	"buffers":[
		{
			"byteLength":186112,
			"uri":"tutorial_building3.bin"
		}
	]
}
