{
	"asset":{
		"generator":"Khronos glTF Blender I/O v4.2.70",
		"version":"2.0"
	},
	"extensionsUsed":[
		"KHR_materials_specular"
	],
	"scene":0,
	"scenes":[
		{
			"name":"Scene",
			"nodes":[
				0
			]
		}
	],
	"nodes":[
		{
			"mesh":0,
			"name":"building12"
		}
	],
	"materials":[
		{
			"doubleSided":true,
			"extensions":{
				"KHR_materials_specular":{
					"specularTexture":{
						"index":0
					}
				}
			},
			"name":"Downtown_Facade_FLR_2",
			"pbrMetallicRoughness":{
				"baseColorTexture":{
					"index":1
				},
				"metallicFactor":0,
				"metallicRoughnessTexture":{
					"index":2
				}
			}
		},
		{
			"doubleSided":true,
			"extensions":{
				"KHR_materials_specular":{
					"specularTexture":{
						"index":3
					}
				}
			},
			"name":"Downtown_Modern_Firstfloor_FLR_1",
			"pbrMetallicRoughness":{
				"baseColorTexture":{
					"index":4
				},
				"metallicFactor":0,
				"metallicRoughnessTexture":{
					"index":5
				}
			}
		}
	],
	"meshes":[
		{
			"name":"Downtown_PublicBuilding_1_Downtown_Facade_FLR_2_0",
			"primitives":[
				{
					"attributes":{
						"POSITION":0,
						"NORMAL":1,
						"TEXCOORD_0":2
					},
					"indices":3,
					"material":0
				},
				{
					"attributes":{
						"POSITION":4,
						"NORMAL":5,
						"TEXCOORD_0":6
					},
					"indices":7,
					"material":1
				}
			]
		}
	],
	"textures":[
		{
			"sampler":0,
			"source":0
		},
		{
			"sampler":0,
			"source":1
		},
		{
			"sampler":0,
			"source":2
		},
		{
			"sampler":0,
			"source":3
		},
		{
			"sampler":0,
			"source":4
		},
		{
			"sampler":0,
			"source":5
		}
	],
	"images":[
		{
			"mimeType":"image/png",
			"name":"Image_2",
			"uri":"../textures/Image_2.png"
		},
		{
			"mimeType":"image/jpeg",
			"name":"Image_0",
			"uri":"../textures/Image_0.jpg"
		},
		{
			"mimeType":"image/png",
			"name":"Image_1",
			"uri":"../textures/Image_1.png"
		},
		{
			"mimeType":"image/png",
			"name":"Image_34",
			"uri":"../textures/Image_34.png"
		},
		{
			"mimeType":"image/jpeg",
			"name":"Image_32",
			"uri":"../textures/Image_32.jpg"
		},
		{
			"mimeType":"image/png",
			"name":"Image_33",
			"uri":"../textures/Image_33.png"
		}
	],
	"accessors":[
		{
			"bufferView":0,
			"componentType":5126,
			"count":811,
			"max":[
				12.369073867797852,
				9.013940811157227,
				12.371536254882812
			],
			"min":[
				-13.905104637145996,
				-11.60383129119873,
				-13.90264892578125
			],
			"type":"VEC3"
		},
		{
			"bufferView":1,
			"componentType":5126,
			"count":811,
			"type":"VEC3"
		},
		{
			"bufferView":2,
			"componentType":5126,
			"count":811,
			"type":"VEC2"
		},
		{
			"bufferView":3,
			"componentType":5123,
			"count":1488,
			"type":"SCALAR"
		},
		{
			"bufferView":4,
			"componentType":5126,
			"count":636,
			"max":[
				13.440986633300781,
				4.648406505584717,
				13.443450927734375
			],
			"min":[
				-14.700942993164062,
				-11.603832244873047,
				-14.698486328125
			],
			"type":"VEC3"
		},
		{
			"bufferView":5,
			"componentType":5126,
			"count":636,
			"type":"VEC3"
		},
		{
			"bufferView":6,
			"componentType":5126,
			"count":636,
			"type":"VEC2"
		},
		{
			"bufferView":7,
			"componentType":5123,
			"count":1026,
			"type":"SCALAR"
		}
	],
	"bufferViews":[
		{
			"buffer":0,
			"byteLength":9732,
			"byteOffset":0,
			"target":34962
		},
		{
			"buffer":0,
			"byteLength":9732,
			"byteOffset":9732,
			"target":34962
		},
		{
			"buffer":0,
			"byteLength":6488,
			"byteOffset":19464,
			"target":34962
		},
		{
			"buffer":0,
			"byteLength":2976,
			"byteOffset":25952,
			"target":34963
		},
		{
			"buffer":0,
			"byteLength":7632,
			"byteOffset":28928,
			"target":34962
		},
		{
			"buffer":0,
			"byteLength":7632,
			"byteOffset":36560,
			"target":34962
		},
		{
			"buffer":0,
			"byteLength":5088,
			"byteOffset":44192,
			"target":34962
		},
		{
			"buffer":0,
			"byteLength":2052,
			"byteOffset":49280,
			"target":34963
		}
	],
	"samplers":[
		{
			"magFilter":9729,
			"minFilter":9987
		}
	],
	"buffers":[
		{
			"byteLength":51332,
			"uri":"tutorial_building12.bin"
		}
	]
}
