{
	"asset":{
		"generator":"Khronos glTF Blender I/O v4.2.70",
		"version":"2.0"
	},
	"extensionsUsed":[
		"KHR_materials_specular"
	],
	"scene":0,
	"scenes":[
		{
			"name":"Scene",
			"nodes":[
				0
			]
		}
	],
	"nodes":[
		{
			"mesh":0,
			"name":"building10"
		}
	],
	"materials":[
		{
			"doubleSided":true,
			"extensions":{
				"KHR_materials_specular":{
					"specularTexture":{
						"index":0
					}
				}
			},
			"name":"Downtown_Concrete_FLR_1",
			"pbrMetallicRoughness":{
				"baseColorTexture":{
					"index":1
				},
				"metallicFactor":0,
				"roughnessFactor":0.8681367039680481
			}
		},
		{
			"doubleSided":true,
			"extensions":{
				"KHR_materials_specular":{
					"specularTexture":{
						"index":2
					}
				}
			},
			"name":"Downtown_International_Side_1",
			"pbrMetallicRoughness":{
				"baseColorTexture":{
					"index":3
				},
				"metallicFactor":0,
				"metallicRoughnessTexture":{
					"index":4
				}
			}
		},
		{
			"doubleSided":true,
			"extensions":{
				"KHR_materials_specular":{
					"specularTexture":{
						"index":5
					}
				}
			},
			"name":"Downtown_Firstfloor_FLR_2",
			"pbrMetallicRoughness":{
				"baseColorTexture":{
					"index":6
				},
				"metallicFactor":0,
				"metallicRoughnessTexture":{
					"index":7
				}
			}
		}
	],
	"meshes":[
		{
			"name":"Downtown_ModernOffice_4_Downtown_Concrete_FLR_1_0",
			"primitives":[
				{
					"attributes":{
						"POSITION":0,
						"NORMAL":1,
						"TEXCOORD_0":2
					},
					"indices":3,
					"material":0
				},
				{
					"attributes":{
						"POSITION":4,
						"NORMAL":5,
						"TEXCOORD_0":6
					},
					"indices":7,
					"material":1
				},
				{
					"attributes":{
						"POSITION":8,
						"NORMAL":9,
						"TEXCOORD_0":10
					},
					"indices":11,
					"material":2
				}
			]
		}
	],
	"textures":[
		{
			"sampler":0,
			"source":0
		},
		{
			"sampler":0,
			"source":1
		},
		{
			"sampler":0,
			"source":2
		},
		{
			"sampler":0,
			"source":3
		},
		{
			"sampler":0,
			"source":4
		},
		{
			"sampler":0,
			"source":5
		},
		{
			"sampler":0,
			"source":6
		},
		{
			"sampler":0,
			"source":7
		}
	],
	"images":[
		{
			"mimeType":"image/png",
			"name":"Image_22",
			"uri":"../textures/Image_22.png"
		},
		{
			"mimeType":"image/jpeg",
			"name":"Image_21",
			"uri":"../textures/Image_21.jpg"
		},
		{
			"mimeType":"image/png",
			"name":"Image_37",
			"uri":"../textures/Image_37.png"
		},
		{
			"mimeType":"image/jpeg",
			"name":"Image_35",
			"uri":"../textures/Image_35.jpg"
		},
		{
			"mimeType":"image/png",
			"name":"Image_36",
			"uri":"../textures/Image_36.png"
		},
		{
			"mimeType":"image/png",
			"name":"Image_14",
			"uri":"../textures/Image_14.png"
		},
		{
			"mimeType":"image/jpeg",
			"name":"Image_12",
			"uri":"../textures/Image_12.jpg"
		},
		{
			"mimeType":"image/png",
			"name":"Image_13",
			"uri":"../textures/Image_13.png"
		}
	],
	"accessors":[
		{
			"bufferView":0,
			"componentType":5126,
			"count":2189,
			"max":[
				11.68380069732666,
				23.050264358520508,
				12.278076171875
			],
			"min":[
				-12.741739273071289,
				-27.884984970092773,
				-12.235893249511719
			],
			"type":"VEC3"
		},
		{
			"bufferView":1,
			"componentType":5126,
			"count":2189,
			"type":"VEC3"
		},
		{
			"bufferView":2,
			"componentType":5126,
			"count":2189,
			"type":"VEC2"
		},
		{
			"bufferView":3,
			"componentType":5123,
			"count":3636,
			"type":"SCALAR"
		},
		{
			"bufferView":4,
			"componentType":5126,
			"count":88,
			"max":[
				11.280786514282227,
				16.80731773376465,
				11.87506103515625
			],
			"min":[
				-12.185717582702637,
				-25.20270538330078,
				-11.832870483398438
			],
			"type":"VEC3"
		},
		{
			"bufferView":5,
			"componentType":5126,
			"count":88,
			"type":"VEC3"
		},
		{
			"bufferView":6,
			"componentType":5126,
			"count":88,
			"type":"VEC2"
		},
		{
			"bufferView":7,
			"componentType":5123,
			"count":132,
			"type":"SCALAR"
		},
		{
			"bufferView":8,
			"componentType":5126,
			"count":1240,
			"max":[
				11.401494979858398,
				23.050264358520508,
				12.025726318359375
			],
			"min":[
				-11.645466804504395,
				-27.884984970092773,
				-11.96026611328125
			],
			"type":"VEC3"
		},
		{
			"bufferView":9,
			"componentType":5126,
			"count":1240,
			"type":"VEC3"
		},
		{
			"bufferView":10,
			"componentType":5126,
			"count":1240,
			"type":"VEC2"
		},
		{
			"bufferView":11,
			"componentType":5123,
			"count":1932,
			"type":"SCALAR"
		}
	],
	"bufferViews":[
		{
			"buffer":0,
			"byteLength":26268,
			"byteOffset":0,
			"target":34962
		},
		{
			"buffer":0,
			"byteLength":26268,
			"byteOffset":26268,
			"target":34962
		},
		{
			"buffer":0,
			"byteLength":17512,
			"byteOffset":52536,
			"target":34962
		},
		{
			"buffer":0,
			"byteLength":7272,
			"byteOffset":70048,
			"target":34963
		},
		{
			"buffer":0,
			"byteLength":1056,
			"byteOffset":77320,
			"target":34962
		},
		{
			"buffer":0,
			"byteLength":1056,
			"byteOffset":78376,
			"target":34962
		},
		{
			"buffer":0,
			"byteLength":704,
			"byteOffset":79432,
			"target":34962
		},
		{
			"buffer":0,
			"byteLength":264,
			"byteOffset":80136,
			"target":34963
		},
		{
			"buffer":0,
			"byteLength":14880,
			"byteOffset":80400,
			"target":34962
		},
		{
			"buffer":0,
			"byteLength":14880,
			"byteOffset":95280,
			"target":34962
		},
		{
			"buffer":0,
			"byteLength":9920,
			"byteOffset":110160,
			"target":34962
		},
		{
			"buffer":0,
			"byteLength":3864,
			"byteOffset":120080,
			"target":34963
		}
	],
	"samplers":[
		{
			"magFilter":9729,
			"minFilter":9987
		}
	],
	"buffers":[
		{
			"byteLength":123944,
			"uri":"tutorial_building10.bin"
		}
	]
}
