{
	"asset":{
		"generator":"Khronos glTF Blender I/O v4.2.70",
		"version":"2.0"
	},
	"extensionsUsed":[
		"KHR_materials_specular"
	],
	"scene":0,
	"scenes":[
		{
			"name":"Scene",
			"nodes":[
				0
			]
		}
	],
	"nodes":[
		{
			"mesh":0,
			"name":"building6"
		}
	],
	"materials":[
		{
			"doubleSided":true,
			"extensions":{
				"KHR_materials_specular":{
					"specularTexture":{
						"index":0
					}
				}
			},
			"name":"Downtown_Facade_FLR_2",
			"pbrMetallicRoughness":{
				"baseColorTexture":{
					"index":1
				},
				"metallicFactor":0,
				"metallicRoughnessTexture":{
					"index":2
				}
			}
		},
		{
			"doubleSided":true,
			"extensions":{
				"KHR_materials_specular":{
					"specularTexture":{
						"index":3
					}
				}
			},
			"name":"Downtown_Firstfloor_FLR_2",
			"pbrMetallicRoughness":{
				"baseColorTexture":{
					"index":4
				},
				"metallicFactor":0,
				"metallicRoughnessTexture":{
					"index":5
				}
			}
		}
	],
	"meshes":[
		{
			"name":"Downtown_Mall_1_Downtown_Facade_FLR_2_0",
			"primitives":[
				{
					"attributes":{
						"POSITION":0,
						"NORMAL":1,
						"TEXCOORD_0":2
					},
					"indices":3,
					"material":0
				},
				{
					"attributes":{
						"POSITION":4,
						"NORMAL":5,
						"TEXCOORD_0":6
					},
					"indices":7,
					"material":1
				}
			]
		}
	],
	"textures":[
		{
			"sampler":0,
			"source":0
		},
		{
			"sampler":0,
			"source":1
		},
		{
			"sampler":0,
			"source":2
		},
		{
			"sampler":0,
			"source":3
		},
		{
			"sampler":0,
			"source":4
		},
		{
			"sampler":0,
			"source":5
		}
	],
	"images":[
		{
			"mimeType":"image/png",
			"name":"Image_2",
			"uri":"../textures/Image_2.png"
		},
		{
			"mimeType":"image/jpeg",
			"name":"Image_0",
			"uri":"../textures/Image_0.jpg"
		},
		{
			"mimeType":"image/png",
			"name":"Image_1",
			"uri":"../textures/Image_1.png"
		},
		{
			"mimeType":"image/png",
			"name":"Image_14",
			"uri":"../textures/Image_14.png"
		},
		{
			"mimeType":"image/jpeg",
			"name":"Image_12",
			"uri":"../textures/Image_12.jpg"
		},
		{
			"mimeType":"image/png",
			"name":"Image_13",
			"uri":"../textures/Image_13.png"
		}
	],
	"accessors":[
		{
			"bufferView":0,
			"componentType":5126,
			"count":1350,
			"max":[
				18.012840270996094,
				8.159500122070312,
				19.115779876708984
			],
			"min":[
				-18.810285568237305,
				-12.005548477172852,
				-19.16146469116211
			],
			"type":"VEC3"
		},
		{
			"bufferView":1,
			"componentType":5126,
			"count":1350,
			"type":"VEC3"
		},
		{
			"bufferView":2,
			"componentType":5126,
			"count":1350,
			"type":"VEC2"
		},
		{
			"bufferView":3,
			"componentType":5123,
			"count":2268,
			"type":"SCALAR"
		},
		{
			"bufferView":4,
			"componentType":5126,
			"count":1228,
			"max":[
				19.36981964111328,
				9.433060646057129,
				18.78838348388672
			],
			"min":[
				-11.369376182556152,
				-12.005548477172852,
				-18.89495849609375
			],
			"type":"VEC3"
		},
		{
			"bufferView":5,
			"componentType":5126,
			"count":1228,
			"type":"VEC3"
		},
		{
			"bufferView":6,
			"componentType":5126,
			"count":1228,
			"type":"VEC2"
		},
		{
			"bufferView":7,
			"componentType":5123,
			"count":2043,
			"type":"SCALAR"
		}
	],
	"bufferViews":[
		{
			"buffer":0,
			"byteLength":16200,
			"byteOffset":0,
			"target":34962
		},
		{
			"buffer":0,
			"byteLength":16200,
			"byteOffset":16200,
			"target":34962
		},
		{
			"buffer":0,
			"byteLength":10800,
			"byteOffset":32400,
			"target":34962
		},
		{
			"buffer":0,
			"byteLength":4536,
			"byteOffset":43200,
			"target":34963
		},
		{
			"buffer":0,
			"byteLength":14736,
			"byteOffset":47736,
			"target":34962
		},
		{
			"buffer":0,
			"byteLength":14736,
			"byteOffset":62472,
			"target":34962
		},
		{
			"buffer":0,
			"byteLength":9824,
			"byteOffset":77208,
			"target":34962
		},
		{
			"buffer":0,
			"byteLength":4086,
			"byteOffset":87032,
			"target":34963
		}
	],
	"samplers":[
		{
			"magFilter":9729,
			"minFilter":9987
		}
	],
	"buffers":[
		{
			"byteLength":91120,
			"uri":"tutorial_building6.bin"
		}
	]
}
