{
	"asset":{
		"generator":"Khronos glTF Blender I/O v4.2.70",
		"version":"2.0"
	},
	"extensionsUsed":[
		"KHR_materials_specular"
	],
	"scene":0,
	"scenes":[
		{
			"name":"Scene",
			"nodes":[
				0
			]
		}
	],
	"nodes":[
		{
			"mesh":0,
			"name":"building1"
		}
	],
	"materials":[
		{
			"doubleSided":true,
			"extensions":{
				"KHR_materials_specular":{
					"specularTexture":{
						"index":0
					}
				}
			},
			"name":"Downtown_Concrete_FLR_1",
			"pbrMetallicRoughness":{
				"baseColorTexture":{
					"index":1
				},
				"metallicFactor":0,
				"roughnessFactor":0.8681367039680481
			}
		},
		{
			"doubleSided":true,
			"extensions":{
				"KHR_materials_specular":{
					"specularTexture":{
						"index":2
					}
				}
			},
			"name":"Downtown_Facade_FLR_3",
			"pbrMetallicRoughness":{
				"baseColorTexture":{
					"index":3
				},
				"metallicFactor":0,
				"metallicRoughnessTexture":{
					"index":4
				}
			}
		},
		{
			"doubleSided":true,
			"extensions":{
				"KHR_materials_specular":{
					"specularTexture":{
						"index":5
					}
				}
			},
			"name":"Downtown_Firstfloor_FLR_2",
			"pbrMetallicRoughness":{
				"baseColorTexture":{
					"index":6
				},
				"metallicFactor":0,
				"metallicRoughnessTexture":{
					"index":7
				}
			}
		}
	],
	"meshes":[
		{
			"name":"Downtown_ArtDeco_1_Downtown_Concrete_FLR_1_0",
			"primitives":[
				{
					"attributes":{
						"POSITION":0,
						"NORMAL":1,
						"TEXCOORD_0":2
					},
					"indices":3,
					"material":0
				},
				{
					"attributes":{
						"POSITION":4,
						"NORMAL":5,
						"TEXCOORD_0":6
					},
					"indices":7,
					"material":1
				},
				{
					"attributes":{
						"POSITION":8,
						"NORMAL":9,
						"TEXCOORD_0":10
					},
					"indices":11,
					"material":2
				}
			]
		}
	],
	"textures":[
		{
			"sampler":0,
			"source":0
		},
		{
			"sampler":0,
			"source":1
		},
		{
			"sampler":0,
			"source":2
		},
		{
			"sampler":0,
			"source":3
		},
		{
			"sampler":0,
			"source":4
		},
		{
			"sampler":0,
			"source":5
		},
		{
			"sampler":0,
			"source":6
		},
		{
			"sampler":0,
			"source":7
		}
	],
	"images":[
		{
			"mimeType":"image/png",
			"name":"Image_22",
			"uri":"../textures/Image_22.png"
		},
		{
			"mimeType":"image/jpeg",
			"name":"Image_21",
			"uri":"../textures/Image_21.jpg"
		},
		{
			"mimeType":"image/png",
			"name":"Image_20",
			"uri":"../textures/Image_20.png"
		},
		{
			"mimeType":"image/jpeg",
			"name":"Image_18",
			"uri":"../textures/Image_18.jpg"
		},
		{
			"mimeType":"image/png",
			"name":"Image_19",
			"uri":"../textures/Image_19.png"
		},
		{
			"mimeType":"image/png",
			"name":"Image_14",
			"uri":"../textures/Image_14.png"
		},
		{
			"mimeType":"image/jpeg",
			"name":"Image_12",
			"uri":"../textures/Image_12.jpg"
		},
		{
			"mimeType":"image/png",
			"name":"Image_13",
			"uri":"../textures/Image_13.png"
		}
	],
	"accessors":[
		{
			"bufferView":0,
			"componentType":5126,
			"count":1202,
			"max":[
				9.351832389831543,
				21.021549224853516,
				14.005218505859375
			],
			"min":[
				-9.361361503601074,
				-22.781126022338867,
				-17.7886962890625
			],
			"type":"VEC3"
		},
		{
			"bufferView":1,
			"componentType":5126,
			"count":1202,
			"type":"VEC3"
		},
		{
			"bufferView":2,
			"componentType":5126,
			"count":1202,
			"type":"VEC2"
		},
		{
			"bufferView":3,
			"componentType":5123,
			"count":2142,
			"type":"SCALAR"
		},
		{
			"bufferView":4,
			"componentType":5126,
			"count":2260,
			"max":[
				9.351832389831543,
				23.63003158569336,
				14.160675048828125
			],
			"min":[
				-9.361361503601074,
				-22.781118392944336,
				-18.431182861328125
			],
			"type":"VEC3"
		},
		{
			"bufferView":5,
			"componentType":5126,
			"count":2260,
			"type":"VEC3"
		},
		{
			"bufferView":6,
			"componentType":5126,
			"count":2260,
			"type":"VEC2"
		},
		{
			"bufferView":7,
			"componentType":5123,
			"count":3768,
			"type":"SCALAR"
		},
		{
			"bufferView":8,
			"componentType":5126,
			"count":809,
			"max":[
				9.363269805908203,
				24.077014923095703,
				13.136962890625
			],
			"min":[
				-9.372798919677734,
				-22.781126022338867,
				-9.831512451171875
			],
			"type":"VEC3"
		},
		{
			"bufferView":9,
			"componentType":5126,
			"count":809,
			"type":"VEC3"
		},
		{
			"bufferView":10,
			"componentType":5126,
			"count":809,
			"type":"VEC2"
		},
		{
			"bufferView":11,
			"componentType":5123,
			"count":1344,
			"type":"SCALAR"
		}
	],
	"bufferViews":[
		{
			"buffer":0,
			"byteLength":14424,
			"byteOffset":0,
			"target":34962
		},
		{
			"buffer":0,
			"byteLength":14424,
			"byteOffset":14424,
			"target":34962
		},
		{
			"buffer":0,
			"byteLength":9616,
			"byteOffset":28848,
			"target":34962
		},
		{
			"buffer":0,
			"byteLength":4284,
			"byteOffset":38464,
			"target":34963
		},
		{
			"buffer":0,
			"byteLength":27120,
			"byteOffset":42748,
			"target":34962
		},
		{
			"buffer":0,
			"byteLength":27120,
			"byteOffset":69868,
			"target":34962
		},
		{
			"buffer":0,
			"byteLength":18080,
			"byteOffset":96988,
			"target":34962
		},
		{
			"buffer":0,
			"byteLength":7536,
			"byteOffset":115068,
			"target":34963
		},
		{
			"buffer":0,
			"byteLength":9708,
			"byteOffset":122604,
			"target":34962
		},
		{
			"buffer":0,
			"byteLength":9708,
			"byteOffset":132312,
			"target":34962
		},
		{
			"buffer":0,
			"byteLength":6472,
			"byteOffset":142020,
			"target":34962
		},
		{
			"buffer":0,
			"byteLength":2688,
			"byteOffset":148492,
			"target":34963
		}
	],
	"samplers":[
		{
			"magFilter":9729,
			"minFilter":9987
		}
	],
	"buffers":[
		{
			"byteLength":151180,
			"uri":"tutorial_building1.bin"
		}
	]
}
