{
	"asset":{
		"generator":"Khronos glTF Blender I/O v4.2.70",
		"version":"2.0"
	},
	"extensionsUsed":[
		"KHR_materials_transmission"
	],
	"scene":0,
	"scenes":[
		{
			"name":"Scene",
			"nodes":[
				0,
				1,
				2,
				3,
				4,
				5,
				6
			]
		}
	],
	"nodes":[
		{
			"mesh":0,
			"name":"Object_65.001",
			"translation":[
				34.05931854248047,
				30.424943923950195,
				105.20365905761719
			]
		},
		{
			"mesh":1,
			"name":"Object_65.004",
			"translation":[
				24.436134338378906,
				30.383834838867188,
				103.3866195678711
			]
		},
		{
			"mesh":2,
			"name":"Object_67.004",
			"translation":[
				29.43903350830078,
				22.32086753845215,
				91.22850799560547
			]
		},
		{
			"mesh":3,
			"name":"Object_81.001",
			"translation":[
				24.933732986450195,
				48.29465103149414,
				77.93720245361328
			]
		},
		{
			"mesh":4,
			"name":"Object_91.001",
			"translation":[
				34.992286682128906,
				48.527587890625,
				85.2093276977539
			]
		},
		{
			"mesh":5,
			"name":"Object_95.001",
			"translation":[
				34.49695587158203,
				52.745574951171875,
				89.58297729492188
			]
		},
		{
			"mesh":6,
			"name":"Object_97.001",
			"translation":[
				23.549394607543945,
				49.56005859375,
				92.72285461425781
			]
		}
	],
	"materials":[
		{
			"doubleSided":true,
			"name":"firescape",
			"pbrMetallicRoughness":{
				"baseColorFactor":[
					0.3023209869861603,
					0.3023209869861603,
					0.3023209869861603,
					1
				],
				"roughnessFactor":0.49351200461387634
			}
		},
		{
			"doubleSided":true,
			"name":"solar",
			"pbrMetallicRoughness":{
				"baseColorTexture":{
					"index":0
				},
				"metallicFactor":0.8799999952316284,
				"roughnessFactor":0
			}
		},
		{
			"doubleSided":true,
			"name":"CityGensimple_concrete_1",
			"pbrMetallicRoughness":{
				"baseColorTexture":{
					"index":1
				},
				"metallicFactor":0,
				"metallicRoughnessTexture":{
					"index":2
				}
			}
		},
		{
			"doubleSided":true,
			"name":"CityGenroof.001",
			"normalTexture":{
				"index":3
			},
			"pbrMetallicRoughness":{
				"baseColorTexture":{
					"index":4
				},
				"metallicFactor":0,
				"roughnessFactor":0.5
			}
		},
		{
			"doubleSided":true,
			"name":"CityGenyellow_stone",
			"normalTexture":{
				"index":5,
				"scale":0.10000000149011612
			},
			"pbrMetallicRoughness":{
				"baseColorFactor":[
					0.11748600006103516,
					0.091798797249794,
					0.056883398443460464,
					1
				],
				"metallicFactor":0,
				"metallicRoughnessTexture":{
					"index":6
				}
			}
		},
		{
			"doubleSided":true,
			"name":"CityGenroof.003",
			"normalTexture":{
				"index":7
			},
			"pbrMetallicRoughness":{
				"baseColorTexture":{
					"index":8
				},
				"metallicFactor":0,
				"roughnessFactor":0.5
			}
		},
		{
			"doubleSided":true,
			"emissiveFactor":[
				5.96045985901128e-08,
				5.96045985901128e-08,
				5.96045985901128e-08
			],
			"name":"CityGen_LR_Facades",
			"pbrMetallicRoughness":{
				"baseColorTexture":{
					"index":9
				},
				"metallicFactor":0,
				"metallicRoughnessTexture":{
					"index":10
				}
			}
		},
		{
			"doubleSided":true,
			"name":"Material.001",
			"normalTexture":{
				"index":11
			},
			"pbrMetallicRoughness":{
				"baseColorFactor":[
					0.800000011920929,
					0.800000011920929,
					0.800000011920929,
					1
				],
				"roughnessFactor":0.30000001192092896
			}
		},
		{
			"doubleSided":true,
			"name":"CityGenbasic_dark_green",
			"normalTexture":{
				"index":12
			},
			"pbrMetallicRoughness":{
				"baseColorTexture":{
					"index":13
				},
				"metallicFactor":0,
				"metallicRoughnessTexture":{
					"index":14
				}
			}
		},
		{
			"doubleSided":true,
			"name":"CityGenbasic_metal.001",
			"pbrMetallicRoughness":{
				"baseColorFactor":[
					0.45012399554252625,
					0.45012399554252625,
					0.45012399554252625,
					1
				],
				"roughnessFactor":0.26060399413108826
			}
		},
		{
			"alphaMode":"BLEND",
			"doubleSided":true,
			"extensions":{
				"KHR_materials_transmission":{
					"transmissionFactor":1
				}
			},
			"name":"CityGenGlass.001",
			"normalTexture":{
				"index":15,
				"scale":0.20000000298023224
			},
			"pbrMetallicRoughness":{
				"baseColorFactor":[
					1,
					1,
					1,
					0.25
				],
				"metallicFactor":0,
				"roughnessFactor":0
			}
		},
		{
			"doubleSided":true,
			"name":"CityGenAC",
			"pbrMetallicRoughness":{
				"baseColorTexture":{
					"index":16
				},
				"metallicFactor":0,
				"roughnessFactor":0.5
			}
		},
		{
			"doubleSided":true,
			"name":"CityGenVent",
			"pbrMetallicRoughness":{
				"baseColorTexture":{
					"index":17
				},
				"metallicFactor":0,
				"roughnessFactor":0.5
			}
		},
		{
			"alphaMode":"BLEND",
			"doubleSided":true,
			"name":"Material.002",
			"normalTexture":{
				"index":18
			},
			"pbrMetallicRoughness":{
				"baseColorTexture":{
					"index":19
				},
				"metallicFactor":0,
				"roughnessFactor":0.5
			}
		},
		{
			"doubleSided":true,
			"name":"CityGenbasic_rough_metal_dark_.001",
			"pbrMetallicRoughness":{
				"baseColorFactor":[
					0.13662800192832947,
					0.15541599690914154,
					0.13210399448871613,
					1
				],
				"roughnessFactor":0.4942860007286072
			}
		},
		{
			"doubleSided":true,
			"name":"CityGenconcrete.001",
			"normalTexture":{
				"index":20
			},
			"pbrMetallicRoughness":{
				"baseColorTexture":{
					"index":21
				},
				"metallicFactor":0,
				"metallicRoughnessTexture":{
					"index":22
				}
			}
		}
	],
	"meshes":[
		{
			"name":"Object_28.002",
			"primitives":[
				{
					"attributes":{
						"POSITION":0,
						"NORMAL":1,
						"TEXCOORD_0":2
					},
					"indices":3,
					"material":0
				},
				{
					"attributes":{
						"POSITION":4,
						"NORMAL":5,
						"TEXCOORD_0":6
					},
					"indices":7,
					"material":1
				}
			]
		},
		{
			"name":"Object_28.001",
			"primitives":[
				{
					"attributes":{
						"POSITION":8,
						"NORMAL":9,
						"TEXCOORD_0":10
					},
					"indices":3,
					"material":0
				},
				{
					"attributes":{
						"POSITION":11,
						"NORMAL":12,
						"TEXCOORD_0":13
					},
					"indices":7,
					"material":1
				}
			]
		},
		{
			"name":"Object_29.005",
			"primitives":[
				{
					"attributes":{
						"POSITION":14,
						"NORMAL":15,
						"TEXCOORD_0":16,
						"TEXCOORD_1":17,
						"TEXCOORD_2":18,
						"TEXCOORD_3":19,
						"TEXCOORD_4":20,
						"TEXCOORD_5":21,
						"TEXCOORD_6":22
					},
					"indices":23,
					"material":0
				},
				{
					"attributes":{
						"POSITION":24,
						"NORMAL":25,
						"TEXCOORD_0":26,
						"TEXCOORD_1":27,
						"TEXCOORD_2":28,
						"TEXCOORD_3":29,
						"TEXCOORD_4":30,
						"TEXCOORD_5":31,
						"TEXCOORD_6":32
					},
					"indices":33,
					"material":2
				},
				{
					"attributes":{
						"POSITION":34,
						"NORMAL":35,
						"TEXCOORD_0":36,
						"TEXCOORD_1":37,
						"TEXCOORD_2":38,
						"TEXCOORD_3":39,
						"TEXCOORD_4":40,
						"TEXCOORD_5":41,
						"TEXCOORD_6":42
					},
					"indices":43,
					"material":3
				},
				{
					"attributes":{
						"POSITION":44,
						"NORMAL":45,
						"TEXCOORD_0":46,
						"TEXCOORD_1":47,
						"TEXCOORD_2":48,
						"TEXCOORD_3":49,
						"TEXCOORD_4":50,
						"TEXCOORD_5":51,
						"TEXCOORD_6":52
					},
					"indices":53,
					"material":4
				},
				{
					"attributes":{
						"POSITION":54,
						"NORMAL":55,
						"TEXCOORD_0":56,
						"TEXCOORD_1":57,
						"TEXCOORD_2":58,
						"TEXCOORD_3":59,
						"TEXCOORD_4":60,
						"TEXCOORD_5":61,
						"TEXCOORD_6":62
					},
					"indices":63,
					"material":5
				},
				{
					"attributes":{
						"POSITION":64,
						"NORMAL":65,
						"TEXCOORD_0":66,
						"TEXCOORD_1":67,
						"TEXCOORD_2":68,
						"TEXCOORD_3":69,
						"TEXCOORD_4":70,
						"TEXCOORD_5":71,
						"TEXCOORD_6":72
					},
					"indices":73,
					"material":6
				},
				{
					"attributes":{
						"POSITION":74,
						"NORMAL":75,
						"TEXCOORD_0":76,
						"TEXCOORD_1":77,
						"TEXCOORD_2":78,
						"TEXCOORD_3":79,
						"TEXCOORD_4":80,
						"TEXCOORD_5":81,
						"TEXCOORD_6":82
					},
					"indices":83,
					"material":7
				},
				{
					"attributes":{
						"POSITION":84,
						"NORMAL":85,
						"TEXCOORD_0":86,
						"TEXCOORD_1":87,
						"TEXCOORD_2":88,
						"TEXCOORD_3":89,
						"TEXCOORD_4":90,
						"TEXCOORD_5":91,
						"TEXCOORD_6":92
					},
					"indices":93,
					"material":8
				}
			]
		},
		{
			"name":"Object_36.002",
			"primitives":[
				{
					"attributes":{
						"POSITION":94,
						"NORMAL":95,
						"TEXCOORD_0":96
					},
					"indices":97,
					"material":9
				},
				{
					"attributes":{
						"POSITION":98,
						"NORMAL":99,
						"TEXCOORD_0":100
					},
					"indices":101,
					"material":10
				}
			]
		},
		{
			"name":"Object_41.002",
			"primitives":[
				{
					"attributes":{
						"POSITION":102,
						"NORMAL":103,
						"TEXCOORD_0":104
					},
					"indices":105,
					"material":11
				},
				{
					"attributes":{
						"POSITION":106,
						"NORMAL":107,
						"TEXCOORD_0":108
					},
					"indices":109,
					"material":12
				}
			]
		},
		{
			"name":"Object_43.002",
			"primitives":[
				{
					"attributes":{
						"POSITION":110,
						"NORMAL":111,
						"TEXCOORD_0":112,
						"TEXCOORD_1":113,
						"TEXCOORD_2":114
					},
					"indices":115,
					"material":13
				}
			]
		},
		{
			"name":"Object_44.002",
			"primitives":[
				{
					"attributes":{
						"POSITION":116,
						"NORMAL":117,
						"TEXCOORD_0":118,
						"TEXCOORD_1":119,
						"TEXCOORD_2":120,
						"TEXCOORD_3":121,
						"TEXCOORD_4":122,
						"TEXCOORD_5":123,
						"TEXCOORD_6":124
					},
					"indices":125,
					"material":14
				},
				{
					"attributes":{
						"POSITION":126,
						"NORMAL":127,
						"TEXCOORD_0":128,
						"TEXCOORD_1":129,
						"TEXCOORD_2":130,
						"TEXCOORD_3":131,
						"TEXCOORD_4":132,
						"TEXCOORD_5":133,
						"TEXCOORD_6":134
					},
					"indices":135,
					"material":15
				}
			]
		}
	],
	"textures":[
		{
			"sampler":0,
			"source":0
		},
		{
			"sampler":0,
			"source":1
		},
		{
			"sampler":0,
			"source":2
		},
		{
			"sampler":0,
			"source":3
		},
		{
			"sampler":0,
			"source":4
		},
		{
			"sampler":0,
			"source":5
		},
		{
			"sampler":0,
			"source":6
		},
		{
			"sampler":0,
			"source":7
		},
		{
			"sampler":0,
			"source":8
		},
		{
			"sampler":1,
			"source":9
		},
		{
			"sampler":0,
			"source":10
		},
		{
			"sampler":0,
			"source":11
		},
		{
			"sampler":0,
			"source":12
		},
		{
			"sampler":0,
			"source":13
		},
		{
			"sampler":0,
			"source":14
		},
		{
			"sampler":0,
			"source":15
		},
		{
			"sampler":0,
			"source":16
		},
		{
			"sampler":0,
			"source":17
		},
		{
			"sampler":0,
			"source":18
		},
		{
			"sampler":0,
			"source":19
		},
		{
			"sampler":0,
			"source":20
		},
		{
			"sampler":0,
			"source":21
		},
		{
			"sampler":0,
			"source":22
		}
	],
	"images":[
		{
			"mimeType":"image/jpeg",
			"name":"Image_61",
			"uri":"../textures/Image_61.jpg"
		},
		{
			"mimeType":"image/jpeg",
			"name":"Image_39",
			"uri":"../textures/Image_39.jpg"
		},
		{
			"mimeType":"image/png",
			"name":"Image_40",
			"uri":"../textures/Image_40.png"
		},
		{
			"mimeType":"image/jpeg",
			"name":"Image_31",
			"uri":"../textures/Image_31.jpg"
		},
		{
			"mimeType":"image/jpeg",
			"name":"Image_30",
			"uri":"../textures/Image_30.jpg"
		},
		{
			"mimeType":"image/jpeg",
			"name":"Image_42",
			"uri":"../textures/Image_42.jpg"
		},
		{
			"mimeType":"image/png",
			"name":"Image_41",
			"uri":"../textures/Image_41.png"
		},
		{
			"mimeType":"image/jpeg",
			"name":"Image_35",
			"uri":"../textures/Image_35.jpg"
		},
		{
			"mimeType":"image/jpeg",
			"name":"Image_34",
			"uri":"../textures/Image_34.jpg"
		},
		{
			"mimeType":"image/jpeg",
			"name":"Image_37",
			"uri":"../textures/Image_37.jpg"
		},
		{
			"mimeType":"image/png",
			"name":"Image_38",
			"uri":"../textures/Image_38.png"
		},
		{
			"mimeType":"image/jpeg",
			"name":"Image_36",
			"uri":"../textures/Image_36.jpg"
		},
		{
			"mimeType":"image/jpeg",
			"name":"Image_2",
			"uri":"../textures/Image_2.jpg"
		},
		{
			"mimeType":"image/jpeg",
			"name":"Image_0",
			"uri":"../textures/Image_0.jpg"
		},
		{
			"mimeType":"image/png",
			"name":"Image_1",
			"uri":"../textures/Image_1.png"
		},
		{
			"mimeType":"image/jpeg",
			"name":"Image_48",
			"uri":"../textures/Image_48.jpg"
		},
		{
			"mimeType":"image/jpeg",
			"name":"Image_53",
			"uri":"../textures/Image_53.jpg"
		},
		{
			"mimeType":"image/jpeg",
			"name":"Image_54",
			"uri":"../textures/Image_54.jpg"
		},
		{
			"mimeType":"image/jpeg",
			"name":"Image_56",
			"uri":"../textures/Image_56.jpg"
		},
		{
			"mimeType":"image/png",
			"name":"Image_55",
			"uri":"../textures/Image_55.png"
		},
		{
			"mimeType":"image/jpeg",
			"name":"Image_60",
			"uri":"../textures/Image_60.jpg"
		},
		{
			"mimeType":"image/jpeg",
			"name":"Image_58",
			"uri":"../textures/Image_58.jpg"
		},
		{
			"mimeType":"image/png",
			"name":"Image_59",
			"uri":"../textures/Image_59.png"
		}
	],
	"accessors":[
		{
			"bufferView":0,
			"componentType":5126,
			"count":36,
			"max":[
				3.919379234313965,
				0.1756264567375183,
				1.647240400314331
			],
			"min":[
				-3.919377565383911,
				-0.2758983075618744,
				-1.2970726490020752
			],
			"type":"VEC3"
		},
		{
			"bufferView":1,
			"componentType":5126,
			"count":36,
			"type":"VEC3"
		},
		{
			"bufferView":2,
			"componentType":5126,
			"count":36,
			"type":"VEC2"
		},
		{
			"bufferView":3,
			"componentType":5123,
			"count":54,
			"type":"SCALAR"
		},
		{
			"bufferView":4,
			"componentType":5126,
			"count":36,
			"max":[
				3.9015798568725586,
				0.3086754381656647,
				1.8613746166229248
			],
			"min":[
				-3.901578187942505,
				-0.26650458574295044,
				-2.0086510181427
			],
			"type":"VEC3"
		},
		{
			"bufferView":5,
			"componentType":5126,
			"count":36,
			"type":"VEC3"
		},
		{
			"bufferView":6,
			"componentType":5126,
			"count":36,
			"type":"VEC2"
		},
		{
			"bufferView":7,
			"componentType":5123,
			"count":54,
			"type":"SCALAR"
		},
		{
			"bufferView":8,
			"componentType":5126,
			"count":36,
			"max":[
				3.329723596572876,
				0.14920483529567719,
				1.3994247913360596
			],
			"min":[
				-3.3297252655029297,
				-0.23439159989356995,
				-1.1019331216812134
			],
			"type":"VEC3"
		},
		{
			"bufferView":9,
			"componentType":5126,
			"count":36,
			"type":"VEC3"
		},
		{
			"bufferView":10,
			"componentType":5126,
			"count":36,
			"type":"VEC2"
		},
		{
			"bufferView":11,
			"componentType":5126,
			"count":36,
			"max":[
				3.3146021366119385,
				0.26223623752593994,
				1.5813400745391846
			],
			"min":[
				-3.3146018981933594,
				-0.22640934586524963,
				-1.7064558267593384
			],
			"type":"VEC3"
		},
		{
			"bufferView":12,
			"componentType":5126,
			"count":36,
			"type":"VEC3"
		},
		{
			"bufferView":13,
			"componentType":5126,
			"count":36,
			"type":"VEC2"
		},
		{
			"bufferView":14,
			"componentType":5126,
			"count":11963,
			"max":[
				11.088248252868652,
				25.941316604614258,
				12.89656925201416
			],
			"min":[
				-11.019753456115723,
				-16.46504020690918,
				-17.283536911010742
			],
			"type":"VEC3"
		},
		{
			"bufferView":15,
			"componentType":5126,
			"count":11963,
			"type":"VEC3"
		},
		{
			"bufferView":16,
			"componentType":5126,
			"count":11963,
			"type":"VEC2"
		},
		{
			"bufferView":17,
			"componentType":5126,
			"count":11963,
			"type":"VEC2"
		},
		{
			"bufferView":18,
			"componentType":5126,
			"count":11963,
			"type":"VEC2"
		},
		{
			"bufferView":19,
			"componentType":5126,
			"count":11963,
			"type":"VEC2"
		},
		{
			"bufferView":20,
			"componentType":5126,
			"count":11963,
			"type":"VEC2"
		},
		{
			"bufferView":21,
			"componentType":5126,
			"count":11963,
			"type":"VEC2"
		},
		{
			"bufferView":22,
			"componentType":5126,
			"count":11963,
			"type":"VEC2"
		},
		{
			"bufferView":23,
			"componentType":5123,
			"count":18954,
			"type":"SCALAR"
		},
		{
			"bufferView":24,
			"componentType":5126,
			"count":540,
			"max":[
				9.779841423034668,
				8.40848445892334,
				16.577363967895508
			],
			"min":[
				-9.711346626281738,
				7.83082389831543,
				6.73723030090332
			],
			"type":"VEC3"
		},
		{
			"bufferView":25,
			"componentType":5126,
			"count":540,
			"type":"VEC3"
		},
		{
			"bufferView":26,
			"componentType":5126,
			"count":540,
			"type":"VEC2"
		},
		{
			"bufferView":27,
			"componentType":5126,
			"count":540,
			"type":"VEC2"
		},
		{
			"bufferView":28,
			"componentType":5126,
			"count":540,
			"type":"VEC2"
		},
		{
			"bufferView":29,
			"componentType":5126,
			"count":540,
			"type":"VEC2"
		},
		{
			"bufferView":30,
			"componentType":5126,
			"count":540,
			"type":"VEC2"
		},
		{
			"bufferView":31,
			"componentType":5126,
			"count":540,
			"type":"VEC2"
		},
		{
			"bufferView":32,
			"componentType":5126,
			"count":540,
			"type":"VEC2"
		},
		{
			"bufferView":33,
			"componentType":5123,
			"count":822,
			"type":"SCALAR"
		},
		{
			"bufferView":34,
			"componentType":5126,
			"count":4,
			"max":[
				9.637892723083496,
				7.83057975769043,
				16.43540382385254
			],
			"min":[
				-9.569397926330566,
				7.830450057983398,
				6.888696670532227
			],
			"type":"VEC3"
		},
		{
			"bufferView":35,
			"componentType":5126,
			"count":4,
			"type":"VEC3"
		},
		{
			"bufferView":36,
			"componentType":5126,
			"count":4,
			"type":"VEC2"
		},
		{
			"bufferView":37,
			"componentType":5126,
			"count":4,
			"type":"VEC2"
		},
		{
			"bufferView":38,
			"componentType":5126,
			"count":4,
			"type":"VEC2"
		},
		{
			"bufferView":39,
			"componentType":5126,
			"count":4,
			"type":"VEC2"
		},
		{
			"bufferView":40,
			"componentType":5126,
			"count":4,
			"type":"VEC2"
		},
		{
			"bufferView":41,
			"componentType":5126,
			"count":4,
			"type":"VEC2"
		},
		{
			"bufferView":42,
			"componentType":5126,
			"count":4,
			"type":"VEC2"
		},
		{
			"bufferView":43,
			"componentType":5123,
			"count":6,
			"type":"SCALAR"
		},
		{
			"bufferView":44,
			"componentType":5126,
			"count":774,
			"max":[
				9.779841423034668,
				26.36760139465332,
				7.019533157348633
			],
			"min":[
				-9.711346626281738,
				25.789934158325195,
				-15.999930381774902
			],
			"type":"VEC3"
		},
		{
			"bufferView":45,
			"componentType":5126,
			"count":774,
			"type":"VEC3"
		},
		{
			"bufferView":46,
			"componentType":5126,
			"count":774,
			"type":"VEC2"
		},
		{
			"bufferView":47,
			"componentType":5126,
			"count":774,
			"type":"VEC2"
		},
		{
			"bufferView":48,
			"componentType":5126,
			"count":774,
			"type":"VEC2"
		},
		{
			"bufferView":49,
			"componentType":5126,
			"count":774,
			"type":"VEC2"
		},
		{
			"bufferView":50,
			"componentType":5126,
			"count":774,
			"type":"VEC2"
		},
		{
			"bufferView":51,
			"componentType":5126,
			"count":774,
			"type":"VEC2"
		},
		{
			"bufferView":52,
			"componentType":5126,
			"count":774,
			"type":"VEC2"
		},
		{
			"bufferView":53,
			"componentType":5123,
			"count":1182,
			"type":"SCALAR"
		},
		{
			"bufferView":54,
			"componentType":5126,
			"count":4,
			"max":[
				9.628397941589355,
				25.789697647094727,
				6.877580642700195
			],
			"min":[
				-9.569397926330566,
				25.789609909057617,
				-15.848570823669434
			],
			"type":"VEC3"
		},
		{
			"bufferView":55,
			"componentType":5126,
			"count":4,
			"type":"VEC3"
		},
		{
			"bufferView":56,
			"componentType":5126,
			"count":4,
			"type":"VEC2"
		},
		{
			"bufferView":57,
			"componentType":5126,
			"count":4,
			"type":"VEC2"
		},
		{
			"bufferView":58,
			"componentType":5126,
			"count":4,
			"type":"VEC2"
		},
		{
			"bufferView":59,
			"componentType":5126,
			"count":4,
			"type":"VEC2"
		},
		{
			"bufferView":60,
			"componentType":5126,
			"count":4,
			"type":"VEC2"
		},
		{
			"bufferView":61,
			"componentType":5126,
			"count":4,
			"type":"VEC2"
		},
		{
			"bufferView":62,
			"componentType":5126,
			"count":4,
			"type":"VEC2"
		},
		{
			"bufferView":63,
			"componentType":5123,
			"count":6,
			"type":"SCALAR"
		},
		{
			"bufferView":64,
			"componentType":5126,
			"count":1502,
			"max":[
				9.637896537780762,
				25.789758682250977,
				16.43541145324707
			],
			"min":[
				-9.569397926330566,
				-22.242015838623047,
				-15.857993125915527
			],
			"type":"VEC3"
		},
		{
			"bufferView":65,
			"componentType":5126,
			"count":1502,
			"type":"VEC3"
		},
		{
			"bufferView":66,
			"componentType":5126,
			"count":1502,
			"type":"VEC2"
		},
		{
			"bufferView":67,
			"componentType":5126,
			"count":1502,
			"type":"VEC2"
		},
		{
			"bufferView":68,
			"componentType":5126,
			"count":1502,
			"type":"VEC2"
		},
		{
			"bufferView":69,
			"componentType":5126,
			"count":1502,
			"type":"VEC2"
		},
		{
			"bufferView":70,
			"componentType":5126,
			"count":1502,
			"type":"VEC2"
		},
		{
			"bufferView":71,
			"componentType":5126,
			"count":1502,
			"type":"VEC2"
		},
		{
			"bufferView":72,
			"componentType":5126,
			"count":1502,
			"type":"VEC2"
		},
		{
			"bufferView":73,
			"componentType":5123,
			"count":2472,
			"type":"SCALAR"
		},
		{
			"bufferView":74,
			"componentType":5126,
			"count":306,
			"max":[
				11.820158958435059,
				-18.346019744873047,
				18.5989933013916
			],
			"min":[
				-11.76457691192627,
				-22.211545944213867,
				-15.858054161071777
			],
			"type":"VEC3"
		},
		{
			"bufferView":75,
			"componentType":5126,
			"count":306,
			"type":"VEC3"
		},
		{
			"bufferView":76,
			"componentType":5126,
			"count":306,
			"type":"VEC2"
		},
		{
			"bufferView":77,
			"componentType":5126,
			"count":306,
			"type":"VEC2"
		},
		{
			"bufferView":78,
			"componentType":5126,
			"count":306,
			"type":"VEC2"
		},
		{
			"bufferView":79,
			"componentType":5126,
			"count":306,
			"type":"VEC2"
		},
		{
			"bufferView":80,
			"componentType":5126,
			"count":306,
			"type":"VEC2"
		},
		{
			"bufferView":81,
			"componentType":5126,
			"count":306,
			"type":"VEC2"
		},
		{
			"bufferView":82,
			"componentType":5126,
			"count":306,
			"type":"VEC2"
		},
		{
			"bufferView":83,
			"componentType":5123,
			"count":456,
			"type":"SCALAR"
		},
		{
			"bufferView":84,
			"componentType":5126,
			"count":760,
			"max":[
				11.820158958435059,
				-17.870759963989258,
				18.5989933013916
			],
			"min":[
				-11.76457691192627,
				-18.346019744873047,
				-15.858054161071777
			],
			"type":"VEC3"
		},
		{
			"bufferView":85,
			"componentType":5126,
			"count":760,
			"type":"VEC3"
		},
		{
			"bufferView":86,
			"componentType":5126,
			"count":760,
			"type":"VEC2"
		},
		{
			"bufferView":87,
			"componentType":5126,
			"count":760,
			"type":"VEC2"
		},
		{
			"bufferView":88,
			"componentType":5126,
			"count":760,
			"type":"VEC2"
		},
		{
			"bufferView":89,
			"componentType":5126,
			"count":760,
			"type":"VEC2"
		},
		{
			"bufferView":90,
			"componentType":5126,
			"count":760,
			"type":"VEC2"
		},
		{
			"bufferView":91,
			"componentType":5126,
			"count":760,
			"type":"VEC2"
		},
		{
			"bufferView":92,
			"componentType":5126,
			"count":760,
			"type":"VEC2"
		},
		{
			"bufferView":93,
			"componentType":5123,
			"count":1140,
			"type":"SCALAR"
		},
		{
			"bufferView":94,
			"componentType":5126,
			"count":415,
			"max":[
				1.3607292175292969,
				0.35451191663742065,
				0.649566650390625
			],
			"min":[
				-1.3607292175292969,
				-0.18384869396686554,
				-0.649566650390625
			],
			"type":"VEC3"
		},
		{
			"bufferView":95,
			"componentType":5126,
			"count":415,
			"type":"VEC3"
		},
		{
			"bufferView":96,
			"componentType":5126,
			"count":415,
			"type":"VEC2"
		},
		{
			"bufferView":97,
			"componentType":5123,
			"count":708,
			"type":"SCALAR"
		},
		{
			"bufferView":98,
			"componentType":5126,
			"count":40,
			"max":[
				1.2608184814453125,
				0.3229033350944519,
				0.5496597290039062
			],
			"min":[
				-1.2608184814453125,
				0.06774967163801193,
				-0.5496597290039062
			],
			"type":"VEC3"
		},
		{
			"bufferView":99,
			"componentType":5126,
			"count":40,
			"type":"VEC3"
		},
		{
			"bufferView":100,
			"componentType":5126,
			"count":40,
			"type":"VEC2"
		},
		{
			"bufferView":101,
			"componentType":5123,
			"count":60,
			"type":"SCALAR"
		},
		{
			"bufferView":102,
			"componentType":5126,
			"count":303,
			"max":[
				0.3390145003795624,
				0.35688701272010803,
				0.7489030957221985
			],
			"min":[
				-0.3391318619251251,
				-0.4167831838130951,
				-0.7467939257621765
			],
			"type":"VEC3"
		},
		{
			"bufferView":103,
			"componentType":5126,
			"count":303,
			"type":"VEC3"
		},
		{
			"bufferView":104,
			"componentType":5126,
			"count":303,
			"type":"VEC2"
		},
		{
			"bufferView":105,
			"componentType":5123,
			"count":480,
			"type":"SCALAR"
		},
		{
			"bufferView":106,
			"componentType":5126,
			"count":24,
			"max":[
				0.31180426478385925,
				0.2969123423099518,
				0.7188966870307922
			],
			"min":[
				-0.311921626329422,
				-0.3826340138912201,
				-0.7126447558403015
			],
			"type":"VEC3"
		},
		{
			"bufferView":107,
			"componentType":5126,
			"count":24,
			"type":"VEC3"
		},
		{
			"bufferView":108,
			"componentType":5126,
			"count":24,
			"type":"VEC2"
		},
		{
			"bufferView":109,
			"componentType":5123,
			"count":36,
			"type":"SCALAR"
		},
		{
			"bufferView":110,
			"componentType":5126,
			"count":515,
			"max":[
				1.160287618637085,
				4.9176201820373535,
				1.333447813987732
			],
			"min":[
				-1.095247507095337,
				-4.717141628265381,
				-1.3545480966567993
			],
			"type":"VEC3"
		},
		{
			"bufferView":111,
			"componentType":5126,
			"count":515,
			"type":"VEC3"
		},
		{
			"bufferView":112,
			"componentType":5126,
			"count":515,
			"type":"VEC2"
		},
		{
			"bufferView":113,
			"componentType":5126,
			"count":515,
			"type":"VEC2"
		},
		{
			"bufferView":114,
			"componentType":5126,
			"count":515,
			"type":"VEC2"
		},
		{
			"bufferView":115,
			"componentType":5123,
			"count":531,
			"type":"SCALAR"
		},
		{
			"bufferView":116,
			"componentType":5126,
			"count":210,
			"max":[
				2.8186326026916504,
				2.270941734313965,
				1.5382002592086792
			],
			"min":[
				-2.790881633758545,
				-1.1271142959594727,
				-2.503387689590454
			],
			"type":"VEC3"
		},
		{
			"bufferView":117,
			"componentType":5126,
			"count":210,
			"type":"VEC3"
		},
		{
			"bufferView":118,
			"componentType":5126,
			"count":210,
			"type":"VEC2"
		},
		{
			"bufferView":119,
			"componentType":5126,
			"count":210,
			"type":"VEC2"
		},
		{
			"bufferView":120,
			"componentType":5126,
			"count":210,
			"type":"VEC2"
		},
		{
			"bufferView":121,
			"componentType":5126,
			"count":210,
			"type":"VEC2"
		},
		{
			"bufferView":122,
			"componentType":5126,
			"count":210,
			"type":"VEC2"
		},
		{
			"bufferView":123,
			"componentType":5126,
			"count":210,
			"type":"VEC2"
		},
		{
			"bufferView":124,
			"componentType":5126,
			"count":210,
			"type":"VEC2"
		},
		{
			"bufferView":125,
			"componentType":5123,
			"count":282,
			"type":"SCALAR"
		},
		{
			"bufferView":126,
			"componentType":5126,
			"count":848,
			"max":[
				2.8186326026916504,
				1.1566076278686523,
				1.7104796171188354
			],
			"min":[
				-3.276486873626709,
				-1.4492578506469727,
				-2.494934320449829
			],
			"type":"VEC3"
		},
		{
			"bufferView":127,
			"componentType":5126,
			"count":848,
			"type":"VEC3"
		},
		{
			"bufferView":128,
			"componentType":5126,
			"count":848,
			"type":"VEC2"
		},
		{
			"bufferView":129,
			"componentType":5126,
			"count":848,
			"type":"VEC2"
		},
		{
			"bufferView":130,
			"componentType":5126,
			"count":848,
			"type":"VEC2"
		},
		{
			"bufferView":131,
			"componentType":5126,
			"count":848,
			"type":"VEC2"
		},
		{
			"bufferView":132,
			"componentType":5126,
			"count":848,
			"type":"VEC2"
		},
		{
			"bufferView":133,
			"componentType":5126,
			"count":848,
			"type":"VEC2"
		},
		{
			"bufferView":134,
			"componentType":5126,
			"count":848,
			"type":"VEC2"
		},
		{
			"bufferView":135,
			"componentType":5123,
			"count":1554,
			"type":"SCALAR"
		}
	],
	"bufferViews":[
		{
			"buffer":0,
			"byteLength":432,
			"byteOffset":0,
			"target":34962
		},
		{
			"buffer":0,
			"byteLength":432,
			"byteOffset":432,
			"target":34962
		},
		{
			"buffer":0,
			"byteLength":288,
			"byteOffset":864,
			"target":34962
		},
		{
			"buffer":0,
			"byteLength":108,
			"byteOffset":1152,
			"target":34963
		},
		{
			"buffer":0,
			"byteLength":432,
			"byteOffset":1260,
			"target":34962
		},
		{
			"buffer":0,
			"byteLength":432,
			"byteOffset":1692,
			"target":34962
		},
		{
			"buffer":0,
			"byteLength":288,
			"byteOffset":2124,
			"target":34962
		},
		{
			"buffer":0,
			"byteLength":108,
			"byteOffset":2412,
			"target":34963
		},
		{
			"buffer":0,
			"byteLength":432,
			"byteOffset":2520,
			"target":34962
		},
		{
			"buffer":0,
			"byteLength":432,
			"byteOffset":2952,
			"target":34962
		},
		{
			"buffer":0,
			"byteLength":288,
			"byteOffset":3384,
			"target":34962
		},
		{
			"buffer":0,
			"byteLength":432,
			"byteOffset":3672,
			"target":34962
		},
		{
			"buffer":0,
			"byteLength":432,
			"byteOffset":4104,
			"target":34962
		},
		{
			"buffer":0,
			"byteLength":288,
			"byteOffset":4536,
			"target":34962
		},
		{
			"buffer":0,
			"byteLength":143556,
			"byteOffset":4824,
			"target":34962
		},
		{
			"buffer":0,
			"byteLength":143556,
			"byteOffset":148380,
			"target":34962
		},
		{
			"buffer":0,
			"byteLength":95704,
			"byteOffset":291936,
			"target":34962
		},
		{
			"buffer":0,
			"byteLength":95704,
			"byteOffset":387640,
			"target":34962
		},
		{
			"buffer":0,
			"byteLength":95704,
			"byteOffset":483344,
			"target":34962
		},
		{
			"buffer":0,
			"byteLength":95704,
			"byteOffset":579048,
			"target":34962
		},
		{
			"buffer":0,
			"byteLength":95704,
			"byteOffset":674752,
			"target":34962
		},
		{
			"buffer":0,
			"byteLength":95704,
			"byteOffset":770456,
			"target":34962
		},
		{
			"buffer":0,
			"byteLength":95704,
			"byteOffset":866160,
			"target":34962
		},
		{
			"buffer":0,
			"byteLength":37908,
			"byteOffset":961864,
			"target":34963
		},
		{
			"buffer":0,
			"byteLength":6480,
			"byteOffset":999772,
			"target":34962
		},
		{
			"buffer":0,
			"byteLength":6480,
			"byteOffset":1006252,
			"target":34962
		},
		{
			"buffer":0,
			"byteLength":4320,
			"byteOffset":1012732,
			"target":34962
		},
		{
			"buffer":0,
			"byteLength":4320,
			"byteOffset":1017052,
			"target":34962
		},
		{
			"buffer":0,
			"byteLength":4320,
			"byteOffset":1021372,
			"target":34962
		},
		{
			"buffer":0,
			"byteLength":4320,
			"byteOffset":1025692,
			"target":34962
		},
		{
			"buffer":0,
			"byteLength":4320,
			"byteOffset":1030012,
			"target":34962
		},
		{
			"buffer":0,
			"byteLength":4320,
			"byteOffset":1034332,
			"target":34962
		},
		{
			"buffer":0,
			"byteLength":4320,
			"byteOffset":1038652,
			"target":34962
		},
		{
			"buffer":0,
			"byteLength":1644,
			"byteOffset":1042972,
			"target":34963
		},
		{
			"buffer":0,
			"byteLength":48,
			"byteOffset":1044616,
			"target":34962
		},
		{
			"buffer":0,
			"byteLength":48,
			"byteOffset":1044664,
			"target":34962
		},
		{
			"buffer":0,
			"byteLength":32,
			"byteOffset":1044712,
			"target":34962
		},
		{
			"buffer":0,
			"byteLength":32,
			"byteOffset":1044744,
			"target":34962
		},
		{
			"buffer":0,
			"byteLength":32,
			"byteOffset":1044776,
			"target":34962
		},
		{
			"buffer":0,
			"byteLength":32,
			"byteOffset":1044808,
			"target":34962
		},
		{
			"buffer":0,
			"byteLength":32,
			"byteOffset":1044840,
			"target":34962
		},
		{
			"buffer":0,
			"byteLength":32,
			"byteOffset":1044872,
			"target":34962
		},
		{
			"buffer":0,
			"byteLength":32,
			"byteOffset":1044904,
			"target":34962
		},
		{
			"buffer":0,
			"byteLength":12,
			"byteOffset":1044936,
			"target":34963
		},
		{
			"buffer":0,
			"byteLength":9288,
			"byteOffset":1044948,
			"target":34962
		},
		{
			"buffer":0,
			"byteLength":9288,
			"byteOffset":1054236,
			"target":34962
		},
		{
			"buffer":0,
			"byteLength":6192,
			"byteOffset":1063524,
			"target":34962
		},
		{
			"buffer":0,
			"byteLength":6192,
			"byteOffset":1069716,
			"target":34962
		},
		{
			"buffer":0,
			"byteLength":6192,
			"byteOffset":1075908,
			"target":34962
		},
		{
			"buffer":0,
			"byteLength":6192,
			"byteOffset":1082100,
			"target":34962
		},
		{
			"buffer":0,
			"byteLength":6192,
			"byteOffset":1088292,
			"target":34962
		},
		{
			"buffer":0,
			"byteLength":6192,
			"byteOffset":1094484,
			"target":34962
		},
		{
			"buffer":0,
			"byteLength":6192,
			"byteOffset":1100676,
			"target":34962
		},
		{
			"buffer":0,
			"byteLength":2364,
			"byteOffset":1106868,
			"target":34963
		},
		{
			"buffer":0,
			"byteLength":48,
			"byteOffset":1109232,
			"target":34962
		},
		{
			"buffer":0,
			"byteLength":48,
			"byteOffset":1109280,
			"target":34962
		},
		{
			"buffer":0,
			"byteLength":32,
			"byteOffset":1109328,
			"target":34962
		},
		{
			"buffer":0,
			"byteLength":32,
			"byteOffset":1109360,
			"target":34962
		},
		{
			"buffer":0,
			"byteLength":32,
			"byteOffset":1109392,
			"target":34962
		},
		{
			"buffer":0,
			"byteLength":32,
			"byteOffset":1109424,
			"target":34962
		},
		{
			"buffer":0,
			"byteLength":32,
			"byteOffset":1109456,
			"target":34962
		},
		{
			"buffer":0,
			"byteLength":32,
			"byteOffset":1109488,
			"target":34962
		},
		{
			"buffer":0,
			"byteLength":32,
			"byteOffset":1109520,
			"target":34962
		},
		{
			"buffer":0,
			"byteLength":12,
			"byteOffset":1109552,
			"target":34963
		},
		{
			"buffer":0,
			"byteLength":18024,
			"byteOffset":1109564,
			"target":34962
		},
		{
			"buffer":0,
			"byteLength":18024,
			"byteOffset":1127588,
			"target":34962
		},
		{
			"buffer":0,
			"byteLength":12016,
			"byteOffset":1145612,
			"target":34962
		},
		{
			"buffer":0,
			"byteLength":12016,
			"byteOffset":1157628,
			"target":34962
		},
		{
			"buffer":0,
			"byteLength":12016,
			"byteOffset":1169644,
			"target":34962
		},
		{
			"buffer":0,
			"byteLength":12016,
			"byteOffset":1181660,
			"target":34962
		},
		{
			"buffer":0,
			"byteLength":12016,
			"byteOffset":1193676,
			"target":34962
		},
		{
			"buffer":0,
			"byteLength":12016,
			"byteOffset":1205692,
			"target":34962
		},
		{
			"buffer":0,
			"byteLength":12016,
			"byteOffset":1217708,
			"target":34962
		},
		{
			"buffer":0,
			"byteLength":4944,
			"byteOffset":1229724,
			"target":34963
		},
		{
			"buffer":0,
			"byteLength":3672,
			"byteOffset":1234668,
			"target":34962
		},
		{
			"buffer":0,
			"byteLength":3672,
			"byteOffset":1238340,
			"target":34962
		},
		{
			"buffer":0,
			"byteLength":2448,
			"byteOffset":1242012,
			"target":34962
		},
		{
			"buffer":0,
			"byteLength":2448,
			"byteOffset":1244460,
			"target":34962
		},
		{
			"buffer":0,
			"byteLength":2448,
			"byteOffset":1246908,
			"target":34962
		},
		{
			"buffer":0,
			"byteLength":2448,
			"byteOffset":1249356,
			"target":34962
		},
		{
			"buffer":0,
			"byteLength":2448,
			"byteOffset":1251804,
			"target":34962
		},
		{
			"buffer":0,
			"byteLength":2448,
			"byteOffset":1254252,
			"target":34962
		},
		{
			"buffer":0,
			"byteLength":2448,
			"byteOffset":1256700,
			"target":34962
		},
		{
			"buffer":0,
			"byteLength":912,
			"byteOffset":1259148,
			"target":34963
		},
		{
			"buffer":0,
			"byteLength":9120,
			"byteOffset":1260060,
			"target":34962
		},
		{
			"buffer":0,
			"byteLength":9120,
			"byteOffset":1269180,
			"target":34962
		},
		{
			"buffer":0,
			"byteLength":6080,
			"byteOffset":1278300,
			"target":34962
		},
		{
			"buffer":0,
			"byteLength":6080,
			"byteOffset":1284380,
			"target":34962
		},
		{
			"buffer":0,
			"byteLength":6080,
			"byteOffset":1290460,
			"target":34962
		},
		{
			"buffer":0,
			"byteLength":6080,
			"byteOffset":1296540,
			"target":34962
		},
		{
			"buffer":0,
			"byteLength":6080,
			"byteOffset":1302620,
			"target":34962
		},
		{
			"buffer":0,
			"byteLength":6080,
			"byteOffset":1308700,
			"target":34962
		},
		{
			"buffer":0,
			"byteLength":6080,
			"byteOffset":1314780,
			"target":34962
		},
		{
			"buffer":0,
			"byteLength":2280,
			"byteOffset":1320860,
			"target":34963
		},
		{
			"buffer":0,
			"byteLength":4980,
			"byteOffset":1323140,
			"target":34962
		},
		{
			"buffer":0,
			"byteLength":4980,
			"byteOffset":1328120,
			"target":34962
		},
		{
			"buffer":0,
			"byteLength":3320,
			"byteOffset":1333100,
			"target":34962
		},
		{
			"buffer":0,
			"byteLength":1416,
			"byteOffset":1336420,
			"target":34963
		},
		{
			"buffer":0,
			"byteLength":480,
			"byteOffset":1337836,
			"target":34962
		},
		{
			"buffer":0,
			"byteLength":480,
			"byteOffset":1338316,
			"target":34962
		},
		{
			"buffer":0,
			"byteLength":320,
			"byteOffset":1338796,
			"target":34962
		},
		{
			"buffer":0,
			"byteLength":120,
			"byteOffset":1339116,
			"target":34963
		},
		{
			"buffer":0,
			"byteLength":3636,
			"byteOffset":1339236,
			"target":34962
		},
		{
			"buffer":0,
			"byteLength":3636,
			"byteOffset":1342872,
			"target":34962
		},
		{
			"buffer":0,
			"byteLength":2424,
			"byteOffset":1346508,
			"target":34962
		},
		{
			"buffer":0,
			"byteLength":960,
			"byteOffset":1348932,
			"target":34963
		},
		{
			"buffer":0,
			"byteLength":288,
			"byteOffset":1349892,
			"target":34962
		},
		{
			"buffer":0,
			"byteLength":288,
			"byteOffset":1350180,
			"target":34962
		},
		{
			"buffer":0,
			"byteLength":192,
			"byteOffset":1350468,
			"target":34962
		},
		{
			"buffer":0,
			"byteLength":72,
			"byteOffset":1350660,
			"target":34963
		},
		{
			"buffer":0,
			"byteLength":6180,
			"byteOffset":1350732,
			"target":34962
		},
		{
			"buffer":0,
			"byteLength":6180,
			"byteOffset":1356912,
			"target":34962
		},
		{
			"buffer":0,
			"byteLength":4120,
			"byteOffset":1363092,
			"target":34962
		},
		{
			"buffer":0,
			"byteLength":4120,
			"byteOffset":1367212,
			"target":34962
		},
		{
			"buffer":0,
			"byteLength":4120,
			"byteOffset":1371332,
			"target":34962
		},
		{
			"buffer":0,
			"byteLength":1062,
			"byteOffset":1375452,
			"target":34963
		},
		{
			"buffer":0,
			"byteLength":2520,
			"byteOffset":1376516,
			"target":34962
		},
		{
			"buffer":0,
			"byteLength":2520,
			"byteOffset":1379036,
			"target":34962
		},
		{
			"buffer":0,
			"byteLength":1680,
			"byteOffset":1381556,
			"target":34962
		},
		{
			"buffer":0,
			"byteLength":1680,
			"byteOffset":1383236,
			"target":34962
		},
		{
			"buffer":0,
			"byteLength":1680,
			"byteOffset":1384916,
			"target":34962
		},
		{
			"buffer":0,
			"byteLength":1680,
			"byteOffset":1386596,
			"target":34962
		},
		{
			"buffer":0,
			"byteLength":1680,
			"byteOffset":1388276,
			"target":34962
		},
		{
			"buffer":0,
			"byteLength":1680,
			"byteOffset":1389956,
			"target":34962
		},
		{
			"buffer":0,
			"byteLength":1680,
			"byteOffset":1391636,
			"target":34962
		},
		{
			"buffer":0,
			"byteLength":564,
			"byteOffset":1393316,
			"target":34963
		},
		{
			"buffer":0,
			"byteLength":10176,
			"byteOffset":1393880,
			"target":34962
		},
		{
			"buffer":0,
			"byteLength":10176,
			"byteOffset":1404056,
			"target":34962
		},
		{
			"buffer":0,
			"byteLength":6784,
			"byteOffset":1414232,
			"target":34962
		},
		{
			"buffer":0,
			"byteLength":6784,
			"byteOffset":1421016,
			"target":34962
		},
		{
			"buffer":0,
			"byteLength":6784,
			"byteOffset":1427800,
			"target":34962
		},
		{
			"buffer":0,
			"byteLength":6784,
			"byteOffset":1434584,
			"target":34962
		},
		{
			"buffer":0,
			"byteLength":6784,
			"byteOffset":1441368,
			"target":34962
		},
		{
			"buffer":0,
			"byteLength":6784,
			"byteOffset":1448152,
			"target":34962
		},
		{
			"buffer":0,
			"byteLength":6784,
			"byteOffset":1454936,
			"target":34962
		},
		{
			"buffer":0,
			"byteLength":3108,
			"byteOffset":1461720,
			"target":34963
		}
	],
	"samplers":[
		{
			"magFilter":9729,
			"minFilter":9987
		},
		{
			"magFilter":9729,
			"minFilter":9987,
			"wrapS":33071,
			"wrapT":33071
		}
	],
	"buffers":[
		{
			"byteLength":1464828,
			"uri":"building6.bin"
		}
	]
}
