{
	"asset":{
		"generator":"Khronos glTF Blender I/O v4.2.70",
		"version":"2.0"
	},
	"extensionsUsed":[
		"KHR_materials_transmission"
	],
	"scene":0,
	"scenes":[
		{
			"name":"Scene",
			"nodes":[
				0,
				1,
				2,
				3,
				4,
				5,
				6,
				7,
				8,
				9,
				10,
				11,
				12,
				13,
				14,
				15,
				16,
				17,
				18
			]
		}
	],
	"nodes":[
		{
			"mesh":0,
			"name":"Object_99.106",
			"translation":[
				-11.577522277832031,
				45.41572952270508,
				18.165302276611328
			]
		},
		{
			"mesh":1,
			"name":"Object_99.107",
			"translation":[
				-13.928550720214844,
				48.699928283691406,
				20.339778900146484
			]
		},
		{
			"mesh":2,
			"name":"Object_99.108",
			"translation":[
				-12.271488189697266,
				45.51020050048828,
				23.833465576171875
			]
		},
		{
			"mesh":3,
			"name":"Object_99.109",
			"translation":[
				-14.712352752685547,
				45.33705139160156,
				23.383228302001953
			]
		},
		{
			"mesh":4,
			"name":"Object_99.110",
			"translation":[
				-2.7903594970703125,
				45.35149383544922,
				17.983240127563477
			]
		},
		{
			"mesh":5,
			"name":"Object_99.111",
			"translation":[
				-3.5352935791015625,
				45.57407760620117,
				21.15956687927246
			]
		},
		{
			"mesh":6,
			"name":"Object_99.112",
			"translation":[
				-6.6170806884765625,
				45.59811782836914,
				29.361988067626953
			]
		},
		{
			"mesh":7,
			"name":"Object_99.113",
			"translation":[
				-3.221832275390625,
				49.11488342285156,
				30.462871551513672
			]
		},
		{
			"mesh":8,
			"name":"Object_99.114",
			"translation":[
				0.6796035766601562,
				45.985572814941406,
				29.25503158569336
			]
		},
		{
			"mesh":9,
			"name":"Object_99.115",
			"translation":[
				-5.054374694824219,
				45.90420913696289,
				32.85524368286133
			]
		},
		{
			"mesh":10,
			"name":"Object_99.116",
			"translation":[
				-9.490982055664062,
				45.936866760253906,
				31.557817459106445
			]
		},
		{
			"mesh":11,
			"name":"Object_99.117",
			"translation":[
				-12.654266357421875,
				45.664180755615234,
				31.394363403320312
			]
		},
		{
			"mesh":12,
			"name":"Object_99.118",
			"translation":[
				-8.639759063720703,
				45.716609954833984,
				35.21706771850586
			]
		},
		{
			"mesh":13,
			"name":"Object_99.119",
			"translation":[
				-4.210472106933594,
				46.11090087890625,
				37.09033966064453
			]
		},
		{
			"mesh":14,
			"name":"Object_99.120",
			"translation":[
				-8.019336700439453,
				45.35986328125,
				39.71556091308594
			]
		},
		{
			"mesh":15,
			"name":"Object_99.121",
			"translation":[
				-11.078357696533203,
				45.156585693359375,
				39.50525665283203
			]
		},
		{
			"mesh":16,
			"name":"Object_99.122",
			"translation":[
				-15.1993408203125,
				45.453216552734375,
				39.1422004699707
			]
		},
		{
			"mesh":17,
			"name":"Object_99.123",
			"translation":[
				2.0055770874023438,
				45.46759796142578,
				36.174476623535156
			]
		},
		{
			"mesh":18,
			"name":"Object_118.006",
			"translation":[
				-6.2503132820129395,
				25.221771240234375,
				28.945117950439453
			]
		}
	],
	"materials":[
		{
			"doubleSided":true,
			"name":"CityGenAC",
			"pbrMetallicRoughness":{
				"baseColorTexture":{
					"index":0
				},
				"metallicFactor":0,
				"roughnessFactor":0.5
			}
		},
		{
			"doubleSided":true,
			"name":"rooftop_tank",
			"pbrMetallicRoughness":{
				"baseColorTexture":{
					"index":1
				},
				"metallicFactor":0,
				"roughnessFactor":0.5
			}
		},
		{
			"alphaMode":"BLEND",
			"doubleSided":true,
			"name":"Material.004",
			"pbrMetallicRoughness":{
				"baseColorTexture":{
					"index":2
				},
				"metallicFactor":0,
				"roughnessFactor":0.5
			}
		},
		{
			"doubleSided":true,
			"name":"CityGenVent",
			"pbrMetallicRoughness":{
				"baseColorTexture":{
					"index":3
				},
				"metallicFactor":0,
				"roughnessFactor":0.5
			}
		},
		{
			"doubleSided":true,
			"name":"CityGentextured_metal",
			"normalTexture":{
				"index":4
			},
			"pbrMetallicRoughness":{
				"baseColorTexture":{
					"index":5
				},
				"metallicRoughnessTexture":{
					"index":6
				}
			}
		},
		{
			"doubleSided":true,
			"name":"CityGentextured_metal.009",
			"normalTexture":{
				"index":7
			},
			"pbrMetallicRoughness":{
				"baseColorTexture":{
					"index":8
				},
				"metallicRoughnessTexture":{
					"index":9
				}
			}
		},
		{
			"doubleSided":true,
			"name":"firescape",
			"pbrMetallicRoughness":{
				"baseColorFactor":[
					0.3023209869861603,
					0.3023209869861603,
					0.3023209869861603,
					1
				],
				"roughnessFactor":0.49351200461387634
			}
		},
		{
			"doubleSided":true,
			"name":"solar",
			"pbrMetallicRoughness":{
				"baseColorTexture":{
					"index":10
				},
				"metallicFactor":0.8799999952316284,
				"roughnessFactor":0
			}
		},
		{
			"alphaMode":"BLEND",
			"doubleSided":true,
			"name":"Material.002",
			"normalTexture":{
				"index":11
			},
			"pbrMetallicRoughness":{
				"baseColorTexture":{
					"index":12
				},
				"metallicFactor":0,
				"roughnessFactor":0.5
			}
		},
		{
			"doubleSided":true,
			"name":"CityGenbasic_rough_metal_dark_.001",
			"pbrMetallicRoughness":{
				"baseColorFactor":[
					0.13662800192832947,
					0.15541599690914154,
					0.13210399448871613,
					1
				],
				"roughnessFactor":0.4942860007286072
			}
		},
		{
			"doubleSided":true,
			"name":"CityGenconcrete.001",
			"normalTexture":{
				"index":13
			},
			"pbrMetallicRoughness":{
				"baseColorTexture":{
					"index":14
				},
				"metallicFactor":0,
				"metallicRoughnessTexture":{
					"index":15
				}
			}
		},
		{
			"doubleSided":true,
			"name":"CityGenblack_.001",
			"pbrMetallicRoughness":{
				"baseColorFactor":[
					0.02315320074558258,
					0.02955690026283264,
					0.033104799687862396,
					1
				],
				"metallicFactor":0.9205440282821655,
				"roughnessFactor":0.548337996006012
			}
		},
		{
			"doubleSided":true,
			"name":"CityGenblack_.004",
			"pbrMetallicRoughness":{
				"baseColorFactor":[
					0.02315320074558258,
					0.02955690026283264,
					0.033104799687862396,
					1
				],
				"metallicFactor":0.9205440282821655,
				"roughnessFactor":0.548337996006012
			}
		},
		{
			"doubleSided":true,
			"name":"material",
			"normalTexture":{
				"index":16
			},
			"pbrMetallicRoughness":{
				"baseColorTexture":{
					"index":17
				},
				"metallicFactor":0,
				"roughnessFactor":0.5
			}
		},
		{
			"doubleSided":true,
			"name":"Material.003",
			"normalTexture":{
				"index":18
			},
			"pbrMetallicRoughness":{
				"baseColorFactor":[
					0.5764470100402832,
					0.5764470100402832,
					0.5764470100402832,
					1
				],
				"roughnessFactor":0.25636398792266846
			}
		},
		{
			"doubleSided":true,
			"name":"CityGenbasic_metal.001",
			"pbrMetallicRoughness":{
				"baseColorFactor":[
					0.45012399554252625,
					0.45012399554252625,
					0.45012399554252625,
					1
				],
				"roughnessFactor":0.26060399413108826
			}
		},
		{
			"alphaMode":"BLEND",
			"doubleSided":true,
			"extensions":{
				"KHR_materials_transmission":{
					"transmissionFactor":1
				}
			},
			"name":"CityGenGlass.001",
			"normalTexture":{
				"index":19,
				"scale":0.20000000298023224
			},
			"pbrMetallicRoughness":{
				"baseColorFactor":[
					1,
					1,
					1,
					0.25
				],
				"metallicFactor":0,
				"roughnessFactor":0
			}
		},
		{
			"doubleSided":true,
			"name":"material_34",
			"pbrMetallicRoughness":{
				"baseColorTexture":{
					"index":20
				},
				"metallicFactor":0,
				"roughnessFactor":0.5
			}
		},
		{
			"doubleSided":true,
			"name":"Material.001",
			"normalTexture":{
				"index":21
			},
			"pbrMetallicRoughness":{
				"baseColorFactor":[
					0.800000011920929,
					0.800000011920929,
					0.800000011920929,
					1
				],
				"roughnessFactor":0.30000001192092896
			}
		},
		{
			"doubleSided":true,
			"name":"CityGenbasic_dark_green",
			"normalTexture":{
				"index":22
			},
			"pbrMetallicRoughness":{
				"baseColorTexture":{
					"index":23
				},
				"metallicFactor":0,
				"metallicRoughnessTexture":{
					"index":24
				}
			}
		},
		{
			"doubleSided":true,
			"emissiveFactor":[
				5.96045985901128e-08,
				5.96045985901128e-08,
				5.96045985901128e-08
			],
			"name":"CityGen_LR_Facades",
			"pbrMetallicRoughness":{
				"baseColorTexture":{
					"index":25
				},
				"metallicFactor":0,
				"metallicRoughnessTexture":{
					"index":26
				}
			}
		},
		{
			"doubleSided":true,
			"name":"CityGensimple_concrete_1",
			"pbrMetallicRoughness":{
				"baseColorTexture":{
					"index":27
				},
				"metallicFactor":0,
				"metallicRoughnessTexture":{
					"index":28
				}
			}
		},
		{
			"doubleSided":true,
			"name":"CityGenroof.003",
			"normalTexture":{
				"index":29
			},
			"pbrMetallicRoughness":{
				"baseColorTexture":{
					"index":30
				},
				"metallicFactor":0,
				"roughnessFactor":0.5
			}
		}
	],
	"meshes":[
		{
			"name":"Object_45.113",
			"primitives":[
				{
					"attributes":{
						"POSITION":0,
						"NORMAL":1,
						"TEXCOORD_0":2,
						"TEXCOORD_1":3,
						"TEXCOORD_2":4,
						"TEXCOORD_3":5,
						"TEXCOORD_4":6,
						"TEXCOORD_5":7,
						"TEXCOORD_6":8
					},
					"indices":9,
					"material":0
				}
			]
		},
		{
			"name":"Object_45.114",
			"primitives":[
				{
					"attributes":{
						"POSITION":10,
						"NORMAL":11,
						"TEXCOORD_0":12,
						"TEXCOORD_1":13,
						"TEXCOORD_2":14,
						"TEXCOORD_3":15,
						"TEXCOORD_4":16,
						"TEXCOORD_5":17,
						"TEXCOORD_6":18
					},
					"indices":19,
					"material":1
				},
				{
					"attributes":{
						"POSITION":20,
						"NORMAL":21,
						"TEXCOORD_0":22,
						"TEXCOORD_1":23,
						"TEXCOORD_2":24,
						"TEXCOORD_3":25,
						"TEXCOORD_4":26,
						"TEXCOORD_5":27,
						"TEXCOORD_6":28
					},
					"indices":29,
					"material":2
				}
			]
		},
		{
			"name":"Object_45.115",
			"primitives":[
				{
					"attributes":{
						"POSITION":30,
						"NORMAL":31,
						"TEXCOORD_0":32,
						"TEXCOORD_1":33,
						"TEXCOORD_2":34,
						"TEXCOORD_3":35,
						"TEXCOORD_4":36,
						"TEXCOORD_5":37,
						"TEXCOORD_6":38
					},
					"indices":39,
					"material":0
				},
				{
					"attributes":{
						"POSITION":40,
						"NORMAL":41,
						"TEXCOORD_0":42,
						"TEXCOORD_1":43,
						"TEXCOORD_2":44,
						"TEXCOORD_3":45,
						"TEXCOORD_4":46,
						"TEXCOORD_5":47,
						"TEXCOORD_6":48
					},
					"indices":49,
					"material":3
				}
			]
		},
		{
			"name":"Object_45.116",
			"primitives":[
				{
					"attributes":{
						"POSITION":50,
						"NORMAL":51,
						"TEXCOORD_0":52,
						"TEXCOORD_1":53,
						"TEXCOORD_2":54,
						"TEXCOORD_3":55,
						"TEXCOORD_4":56,
						"TEXCOORD_5":57,
						"TEXCOORD_6":58
					},
					"indices":59,
					"material":4
				},
				{
					"attributes":{
						"POSITION":60,
						"NORMAL":61,
						"TEXCOORD_0":62,
						"TEXCOORD_1":63,
						"TEXCOORD_2":64,
						"TEXCOORD_3":65,
						"TEXCOORD_4":66,
						"TEXCOORD_5":67,
						"TEXCOORD_6":68
					},
					"indices":69,
					"material":5
				}
			]
		},
		{
			"name":"Object_45.117",
			"primitives":[
				{
					"attributes":{
						"POSITION":70,
						"NORMAL":71,
						"TEXCOORD_0":72,
						"TEXCOORD_1":73,
						"TEXCOORD_2":74,
						"TEXCOORD_3":75,
						"TEXCOORD_4":76,
						"TEXCOORD_5":77,
						"TEXCOORD_6":78
					},
					"indices":79,
					"material":6
				},
				{
					"attributes":{
						"POSITION":80,
						"NORMAL":81,
						"TEXCOORD_0":82,
						"TEXCOORD_1":83,
						"TEXCOORD_2":84,
						"TEXCOORD_3":85,
						"TEXCOORD_4":86,
						"TEXCOORD_5":87,
						"TEXCOORD_6":88
					},
					"indices":89,
					"material":7
				}
			]
		},
		{
			"name":"Object_45.118",
			"primitives":[
				{
					"attributes":{
						"POSITION":90,
						"NORMAL":91,
						"TEXCOORD_0":92,
						"TEXCOORD_1":93,
						"TEXCOORD_2":94,
						"TEXCOORD_3":95,
						"TEXCOORD_4":96,
						"TEXCOORD_5":97,
						"TEXCOORD_6":98
					},
					"indices":99,
					"material":0
				},
				{
					"attributes":{
						"POSITION":100,
						"NORMAL":101,
						"TEXCOORD_0":102,
						"TEXCOORD_1":103,
						"TEXCOORD_2":104,
						"TEXCOORD_3":105,
						"TEXCOORD_4":106,
						"TEXCOORD_5":107,
						"TEXCOORD_6":108
					},
					"indices":109,
					"material":3
				}
			]
		},
		{
			"name":"Object_45.119",
			"primitives":[
				{
					"attributes":{
						"POSITION":110,
						"NORMAL":111,
						"TEXCOORD_0":112,
						"TEXCOORD_1":113,
						"TEXCOORD_2":114,
						"TEXCOORD_3":115,
						"TEXCOORD_4":116,
						"TEXCOORD_5":117,
						"TEXCOORD_6":118
					},
					"indices":119,
					"material":0
				}
			]
		},
		{
			"name":"Object_45.120",
			"primitives":[
				{
					"attributes":{
						"POSITION":120,
						"NORMAL":121,
						"TEXCOORD_0":122,
						"TEXCOORD_1":123,
						"TEXCOORD_2":124,
						"TEXCOORD_3":125,
						"TEXCOORD_4":126,
						"TEXCOORD_5":127,
						"TEXCOORD_6":128
					},
					"indices":129,
					"material":8
				}
			]
		},
		{
			"name":"Object_45.121",
			"primitives":[
				{
					"attributes":{
						"POSITION":130,
						"NORMAL":131,
						"TEXCOORD_0":132,
						"TEXCOORD_1":133,
						"TEXCOORD_2":134,
						"TEXCOORD_3":135,
						"TEXCOORD_4":136,
						"TEXCOORD_5":137,
						"TEXCOORD_6":138
					},
					"indices":139,
					"material":9
				},
				{
					"attributes":{
						"POSITION":140,
						"NORMAL":141,
						"TEXCOORD_0":142,
						"TEXCOORD_1":143,
						"TEXCOORD_2":144,
						"TEXCOORD_3":145,
						"TEXCOORD_4":146,
						"TEXCOORD_5":147,
						"TEXCOORD_6":148
					},
					"indices":149,
					"material":10
				}
			]
		},
		{
			"name":"Object_45.122",
			"primitives":[
				{
					"attributes":{
						"POSITION":150,
						"NORMAL":151,
						"TEXCOORD_0":152,
						"TEXCOORD_1":153,
						"TEXCOORD_2":154,
						"TEXCOORD_3":155,
						"TEXCOORD_4":156,
						"TEXCOORD_5":157,
						"TEXCOORD_6":158
					},
					"indices":159,
					"material":11
				},
				{
					"attributes":{
						"POSITION":160,
						"NORMAL":161,
						"TEXCOORD_0":162,
						"TEXCOORD_1":163,
						"TEXCOORD_2":164,
						"TEXCOORD_3":165,
						"TEXCOORD_4":166,
						"TEXCOORD_5":167,
						"TEXCOORD_6":168
					},
					"indices":169,
					"material":4
				},
				{
					"attributes":{
						"POSITION":170,
						"NORMAL":171,
						"TEXCOORD_0":172,
						"TEXCOORD_1":173,
						"TEXCOORD_2":174,
						"TEXCOORD_3":175,
						"TEXCOORD_4":176,
						"TEXCOORD_5":177,
						"TEXCOORD_6":178
					},
					"indices":159,
					"material":12
				},
				{
					"attributes":{
						"POSITION":179,
						"NORMAL":180,
						"TEXCOORD_0":181,
						"TEXCOORD_1":182,
						"TEXCOORD_2":183,
						"TEXCOORD_3":184,
						"TEXCOORD_4":185,
						"TEXCOORD_5":186,
						"TEXCOORD_6":187
					},
					"indices":188,
					"material":5
				}
			]
		},
		{
			"name":"Object_45.123",
			"primitives":[
				{
					"attributes":{
						"POSITION":189,
						"NORMAL":190,
						"TEXCOORD_0":191,
						"TEXCOORD_1":192,
						"TEXCOORD_2":193,
						"TEXCOORD_3":194,
						"TEXCOORD_4":195,
						"TEXCOORD_5":196,
						"TEXCOORD_6":197
					},
					"indices":198,
					"material":11
				},
				{
					"attributes":{
						"POSITION":199,
						"NORMAL":200,
						"TEXCOORD_0":201,
						"TEXCOORD_1":202,
						"TEXCOORD_2":203,
						"TEXCOORD_3":204,
						"TEXCOORD_4":205,
						"TEXCOORD_5":206,
						"TEXCOORD_6":207
					},
					"indices":208,
					"material":4
				},
				{
					"attributes":{
						"POSITION":209,
						"NORMAL":210,
						"TEXCOORD_0":211,
						"TEXCOORD_1":212,
						"TEXCOORD_2":213,
						"TEXCOORD_3":214,
						"TEXCOORD_4":215,
						"TEXCOORD_5":216,
						"TEXCOORD_6":217
					},
					"indices":198,
					"material":12
				},
				{
					"attributes":{
						"POSITION":218,
						"NORMAL":219,
						"TEXCOORD_0":220,
						"TEXCOORD_1":221,
						"TEXCOORD_2":222,
						"TEXCOORD_3":223,
						"TEXCOORD_4":224,
						"TEXCOORD_5":225,
						"TEXCOORD_6":226
					},
					"indices":208,
					"material":5
				}
			]
		},
		{
			"name":"Object_45.124",
			"primitives":[
				{
					"attributes":{
						"POSITION":227,
						"NORMAL":228,
						"TEXCOORD_0":229,
						"TEXCOORD_1":230,
						"TEXCOORD_2":231,
						"TEXCOORD_3":232,
						"TEXCOORD_4":233,
						"TEXCOORD_5":234,
						"TEXCOORD_6":235
					},
					"indices":236,
					"material":13
				}
			]
		},
		{
			"name":"Object_45.125",
			"primitives":[
				{
					"attributes":{
						"POSITION":237,
						"NORMAL":238,
						"TEXCOORD_0":239,
						"TEXCOORD_1":240,
						"TEXCOORD_2":241,
						"TEXCOORD_3":242,
						"TEXCOORD_4":243,
						"TEXCOORD_5":244,
						"TEXCOORD_6":245
					},
					"indices":246,
					"material":0
				}
			]
		},
		{
			"name":"Object_45.126",
			"primitives":[
				{
					"attributes":{
						"POSITION":247,
						"NORMAL":248,
						"TEXCOORD_0":249,
						"TEXCOORD_1":250,
						"TEXCOORD_2":251,
						"TEXCOORD_3":252,
						"TEXCOORD_4":253,
						"TEXCOORD_5":254,
						"TEXCOORD_6":255
					},
					"indices":256,
					"material":13
				}
			]
		},
		{
			"name":"Object_45.127",
			"primitives":[
				{
					"attributes":{
						"POSITION":257,
						"NORMAL":258,
						"TEXCOORD_0":259,
						"TEXCOORD_1":260,
						"TEXCOORD_2":261,
						"TEXCOORD_3":262,
						"TEXCOORD_4":263,
						"TEXCOORD_5":264,
						"TEXCOORD_6":265
					},
					"indices":266,
					"material":0
				}
			]
		},
		{
			"name":"Object_45.128",
			"primitives":[
				{
					"attributes":{
						"POSITION":267,
						"NORMAL":268,
						"TEXCOORD_0":269,
						"TEXCOORD_1":270,
						"TEXCOORD_2":271,
						"TEXCOORD_3":272,
						"TEXCOORD_4":273,
						"TEXCOORD_5":274,
						"TEXCOORD_6":275
					},
					"indices":276,
					"material":14
				}
			]
		},
		{
			"name":"Object_45.129",
			"primitives":[
				{
					"attributes":{
						"POSITION":277,
						"NORMAL":278,
						"TEXCOORD_0":279,
						"TEXCOORD_1":280,
						"TEXCOORD_2":281,
						"TEXCOORD_3":282,
						"TEXCOORD_4":283,
						"TEXCOORD_5":284,
						"TEXCOORD_6":285
					},
					"indices":286,
					"material":15
				},
				{
					"attributes":{
						"POSITION":287,
						"NORMAL":288,
						"TEXCOORD_0":289,
						"TEXCOORD_1":290,
						"TEXCOORD_2":291,
						"TEXCOORD_3":292,
						"TEXCOORD_4":293,
						"TEXCOORD_5":294,
						"TEXCOORD_6":295
					},
					"indices":296,
					"material":16
				}
			]
		},
		{
			"name":"Object_45.130",
			"primitives":[
				{
					"attributes":{
						"POSITION":297,
						"NORMAL":298,
						"TEXCOORD_0":299,
						"TEXCOORD_1":300,
						"TEXCOORD_2":301,
						"TEXCOORD_3":302,
						"TEXCOORD_4":303,
						"TEXCOORD_5":304,
						"TEXCOORD_6":305
					},
					"indices":236,
					"material":17
				}
			]
		},
		{
			"name":"Object_54.006",
			"primitives":[
				{
					"attributes":{
						"POSITION":306,
						"NORMAL":307,
						"TEXCOORD_0":308,
						"TEXCOORD_1":309,
						"TEXCOORD_2":310,
						"TEXCOORD_3":311,
						"TEXCOORD_4":312,
						"TEXCOORD_5":313,
						"TEXCOORD_6":314,
						"TEXCOORD_7":315
					},
					"indices":316,
					"material":18
				},
				{
					"attributes":{
						"POSITION":317,
						"NORMAL":318,
						"TEXCOORD_0":319,
						"TEXCOORD_1":320,
						"TEXCOORD_2":321,
						"TEXCOORD_3":322,
						"TEXCOORD_4":323,
						"TEXCOORD_5":324,
						"TEXCOORD_6":325,
						"TEXCOORD_7":326
					},
					"indices":327,
					"material":19
				},
				{
					"attributes":{
						"POSITION":328,
						"NORMAL":329,
						"TEXCOORD_0":330,
						"TEXCOORD_1":331,
						"TEXCOORD_2":332,
						"TEXCOORD_3":333,
						"TEXCOORD_4":334,
						"TEXCOORD_5":335,
						"TEXCOORD_6":336,
						"TEXCOORD_7":337
					},
					"indices":338,
					"material":20
				},
				{
					"attributes":{
						"POSITION":339,
						"NORMAL":340,
						"TEXCOORD_0":341,
						"TEXCOORD_1":342,
						"TEXCOORD_2":343,
						"TEXCOORD_3":344,
						"TEXCOORD_4":345,
						"TEXCOORD_5":346,
						"TEXCOORD_6":347,
						"TEXCOORD_7":348
					},
					"indices":349,
					"material":21
				},
				{
					"attributes":{
						"POSITION":350,
						"NORMAL":351,
						"TEXCOORD_0":352,
						"TEXCOORD_1":353,
						"TEXCOORD_2":354,
						"TEXCOORD_3":355,
						"TEXCOORD_4":356,
						"TEXCOORD_5":357,
						"TEXCOORD_6":358,
						"TEXCOORD_7":359
					},
					"indices":360,
					"material":22
				},
				{
					"attributes":{
						"POSITION":361,
						"NORMAL":362,
						"TEXCOORD_0":363,
						"TEXCOORD_1":364,
						"TEXCOORD_2":365,
						"TEXCOORD_3":366,
						"TEXCOORD_4":367,
						"TEXCOORD_5":368,
						"TEXCOORD_6":369,
						"TEXCOORD_7":370
					},
					"indices":371,
					"material":6
				}
			]
		}
	],
	"textures":[
		{
			"sampler":0,
			"source":0
		},
		{
			"sampler":0,
			"source":1
		},
		{
			"sampler":0,
			"source":2
		},
		{
			"sampler":0,
			"source":3
		},
		{
			"sampler":0,
			"source":4
		},
		{
			"sampler":0,
			"source":5
		},
		{
			"sampler":0,
			"source":6
		},
		{
			"sampler":0,
			"source":4
		},
		{
			"sampler":0,
			"source":5
		},
		{
			"sampler":0,
			"source":6
		},
		{
			"sampler":0,
			"source":7
		},
		{
			"sampler":0,
			"source":8
		},
		{
			"sampler":0,
			"source":9
		},
		{
			"sampler":0,
			"source":10
		},
		{
			"sampler":0,
			"source":11
		},
		{
			"sampler":0,
			"source":12
		},
		{
			"sampler":0,
			"source":13
		},
		{
			"sampler":0,
			"source":14
		},
		{
			"sampler":0,
			"source":15
		},
		{
			"sampler":0,
			"source":16
		},
		{
			"sampler":0,
			"source":17
		},
		{
			"sampler":0,
			"source":18
		},
		{
			"sampler":0,
			"source":19
		},
		{
			"sampler":0,
			"source":20
		},
		{
			"sampler":0,
			"source":21
		},
		{
			"sampler":1,
			"source":22
		},
		{
			"sampler":0,
			"source":23
		},
		{
			"sampler":0,
			"source":24
		},
		{
			"sampler":0,
			"source":25
		},
		{
			"sampler":0,
			"source":26
		},
		{
			"sampler":0,
			"source":27
		}
	],
	"images":[
		{
			"mimeType":"image/jpeg",
			"name":"Image_53",
			"uri":"../textures/Image_53.jpg"
		},
		{
			"mimeType":"image/jpeg",
			"name":"Image_62",
			"uri":"../textures/Image_62.jpg"
		},
		{
			"mimeType":"image/png",
			"name":"Image_63",
			"uri":"../textures/Image_63.png"
		},
		{
			"mimeType":"image/jpeg",
			"name":"Image_54",
			"uri":"../textures/Image_54.jpg"
		},
		{
			"mimeType":"image/jpeg",
			"name":"Image_52",
			"uri":"../textures/Image_52.jpg"
		},
		{
			"mimeType":"image/jpeg",
			"name":"Image_50",
			"uri":"../textures/Image_50.jpg"
		},
		{
			"mimeType":"image/png",
			"name":"Image_51",
			"uri":"../textures/Image_51.png"
		},
		{
			"mimeType":"image/jpeg",
			"name":"Image_61",
			"uri":"../textures/Image_61.jpg"
		},
		{
			"mimeType":"image/jpeg",
			"name":"Image_56",
			"uri":"../textures/Image_56.jpg"
		},
		{
			"mimeType":"image/png",
			"name":"Image_55",
			"uri":"../textures/Image_55.png"
		},
		{
			"mimeType":"image/jpeg",
			"name":"Image_60",
			"uri":"../textures/Image_60.jpg"
		},
		{
			"mimeType":"image/jpeg",
			"name":"Image_58",
			"uri":"../textures/Image_58.jpg"
		},
		{
			"mimeType":"image/png",
			"name":"Image_59",
			"uri":"../textures/Image_59.png"
		},
		{
			"mimeType":"image/jpeg",
			"name":"Image_47",
			"uri":"../textures/Image_47.jpg"
		},
		{
			"mimeType":"image/jpeg",
			"name":"Image_46",
			"uri":"../textures/Image_46.jpg"
		},
		{
			"mimeType":"image/jpeg",
			"name":"Image_57",
			"uri":"../textures/Image_57.jpg"
		},
		{
			"mimeType":"image/jpeg",
			"name":"Image_48",
			"uri":"../textures/Image_48.jpg"
		},
		{
			"mimeType":"image/jpeg",
			"name":"Image_49",
			"uri":"../textures/Image_49.jpg"
		},
		{
			"mimeType":"image/jpeg",
			"name":"Image_36",
			"uri":"../textures/Image_36.jpg"
		},
		{
			"mimeType":"image/jpeg",
			"name":"Image_2",
			"uri":"../textures/Image_2.jpg"
		},
		{
			"mimeType":"image/jpeg",
			"name":"Image_0",
			"uri":"../textures/Image_0.jpg"
		},
		{
			"mimeType":"image/png",
			"name":"Image_1",
			"uri":"../textures/Image_1.png"
		},
		{
			"mimeType":"image/jpeg",
			"name":"Image_37",
			"uri":"../textures/Image_37.jpg"
		},
		{
			"mimeType":"image/png",
			"name":"Image_38",
			"uri":"../textures/Image_38.png"
		},
		{
			"mimeType":"image/jpeg",
			"name":"Image_39",
			"uri":"../textures/Image_39.jpg"
		},
		{
			"mimeType":"image/png",
			"name":"Image_40",
			"uri":"../textures/Image_40.png"
		},
		{
			"mimeType":"image/jpeg",
			"name":"Image_35",
			"uri":"../textures/Image_35.jpg"
		},
		{
			"mimeType":"image/jpeg",
			"name":"Image_34",
			"uri":"../textures/Image_34.jpg"
		}
	],
	"accessors":[
		{
			"bufferView":0,
			"componentType":5126,
			"count":283,
			"max":[
				0.49480438232421875,
				0.4809303283691406,
				0.4456367492675781
			],
			"min":[
				-0.7088165283203125,
				-0.29547119140625,
				-0.4375953674316406
			],
			"type":"VEC3"
		},
		{
			"bufferView":1,
			"componentType":5126,
			"count":283,
			"type":"VEC3"
		},
		{
			"bufferView":2,
			"componentType":5126,
			"count":283,
			"type":"VEC2"
		},
		{
			"bufferView":3,
			"componentType":5126,
			"count":283,
			"type":"VEC2"
		},
		{
			"bufferView":4,
			"componentType":5126,
			"count":283,
			"type":"VEC2"
		},
		{
			"bufferView":5,
			"componentType":5126,
			"count":283,
			"type":"VEC2"
		},
		{
			"bufferView":6,
			"componentType":5126,
			"count":283,
			"type":"VEC2"
		},
		{
			"bufferView":7,
			"componentType":5126,
			"count":283,
			"type":"VEC2"
		},
		{
			"bufferView":8,
			"componentType":5126,
			"count":283,
			"type":"VEC2"
		},
		{
			"bufferView":9,
			"componentType":5123,
			"count":384,
			"type":"SCALAR"
		},
		{
			"bufferView":10,
			"componentType":5126,
			"count":201,
			"max":[
				1.1059799194335938,
				4.682548522949219,
				1.1350212097167969
			],
			"min":[
				-1.1058425903320312,
				1.2247505187988281,
				-1.1359367370605469
			],
			"type":"VEC3"
		},
		{
			"bufferView":11,
			"componentType":5126,
			"count":201,
			"type":"VEC3"
		},
		{
			"bufferView":12,
			"componentType":5126,
			"count":201,
			"type":"VEC2"
		},
		{
			"bufferView":13,
			"componentType":5126,
			"count":201,
			"type":"VEC2"
		},
		{
			"bufferView":14,
			"componentType":5126,
			"count":201,
			"type":"VEC2"
		},
		{
			"bufferView":15,
			"componentType":5126,
			"count":201,
			"type":"VEC2"
		},
		{
			"bufferView":16,
			"componentType":5126,
			"count":201,
			"type":"VEC2"
		},
		{
			"bufferView":17,
			"componentType":5126,
			"count":201,
			"type":"VEC2"
		},
		{
			"bufferView":18,
			"componentType":5126,
			"count":201,
			"type":"VEC2"
		},
		{
			"bufferView":19,
			"componentType":5123,
			"count":492,
			"type":"SCALAR"
		},
		{
			"bufferView":20,
			"componentType":5126,
			"count":98,
			"max":[
				1.7709274291992188,
				1.2198028564453125,
				1.7704048156738281
			],
			"min":[
				-1.7707901000976562,
				-3.5841064453125,
				-1.7713127136230469
			],
			"type":"VEC3"
		},
		{
			"bufferView":21,
			"componentType":5126,
			"count":98,
			"type":"VEC3"
		},
		{
			"bufferView":22,
			"componentType":5126,
			"count":98,
			"type":"VEC2"
		},
		{
			"bufferView":23,
			"componentType":5126,
			"count":98,
			"type":"VEC2"
		},
		{
			"bufferView":24,
			"componentType":5126,
			"count":98,
			"type":"VEC2"
		},
		{
			"bufferView":25,
			"componentType":5126,
			"count":98,
			"type":"VEC2"
		},
		{
			"bufferView":26,
			"componentType":5126,
			"count":98,
			"type":"VEC2"
		},
		{
			"bufferView":27,
			"componentType":5126,
			"count":98,
			"type":"VEC2"
		},
		{
			"bufferView":28,
			"componentType":5126,
			"count":98,
			"type":"VEC2"
		},
		{
			"bufferView":29,
			"componentType":5123,
			"count":120,
			"type":"SCALAR"
		},
		{
			"bufferView":30,
			"componentType":5126,
			"count":302,
			"max":[
				0.3209266662597656,
				0.3376121520996094,
				0.7063674926757812
			],
			"min":[
				-0.3206443786621094,
				-0.3943290710449219,
				-0.7086563110351562
			],
			"type":"VEC3"
		},
		{
			"bufferView":31,
			"componentType":5126,
			"count":302,
			"type":"VEC3"
		},
		{
			"bufferView":32,
			"componentType":5126,
			"count":302,
			"type":"VEC2"
		},
		{
			"bufferView":33,
			"componentType":5126,
			"count":302,
			"type":"VEC2"
		},
		{
			"bufferView":34,
			"componentType":5126,
			"count":302,
			"type":"VEC2"
		},
		{
			"bufferView":35,
			"componentType":5126,
			"count":302,
			"type":"VEC2"
		},
		{
			"bufferView":36,
			"componentType":5126,
			"count":302,
			"type":"VEC2"
		},
		{
			"bufferView":37,
			"componentType":5126,
			"count":302,
			"type":"VEC2"
		},
		{
			"bufferView":38,
			"componentType":5126,
			"count":302,
			"type":"VEC2"
		},
		{
			"bufferView":39,
			"componentType":5123,
			"count":480,
			"type":"SCALAR"
		},
		{
			"bufferView":40,
			"componentType":5126,
			"count":24,
			"max":[
				0.2951850891113281,
				0.2808723449707031,
				0.677978515625
			],
			"min":[
				-0.2949028015136719,
				-0.36202239990234375,
				-0.680267333984375
			],
			"type":"VEC3"
		},
		{
			"bufferView":41,
			"componentType":5126,
			"count":24,
			"type":"VEC3"
		},
		{
			"bufferView":42,
			"componentType":5126,
			"count":24,
			"type":"VEC2"
		},
		{
			"bufferView":43,
			"componentType":5126,
			"count":24,
			"type":"VEC2"
		},
		{
			"bufferView":44,
			"componentType":5126,
			"count":24,
			"type":"VEC2"
		},
		{
			"bufferView":45,
			"componentType":5126,
			"count":24,
			"type":"VEC2"
		},
		{
			"bufferView":46,
			"componentType":5126,
			"count":24,
			"type":"VEC2"
		},
		{
			"bufferView":47,
			"componentType":5126,
			"count":24,
			"type":"VEC2"
		},
		{
			"bufferView":48,
			"componentType":5126,
			"count":24,
			"type":"VEC2"
		},
		{
			"bufferView":49,
			"componentType":5123,
			"count":36,
			"type":"SCALAR"
		},
		{
			"bufferView":50,
			"componentType":5126,
			"count":375,
			"max":[
				1.0214958190917969,
				0.19999313354492188,
				0.22345256805419922
			],
			"min":[
				-1.0226707458496094,
				-0.22127914428710938,
				-0.22243213653564453
			],
			"type":"VEC3"
		},
		{
			"bufferView":51,
			"componentType":5126,
			"count":375,
			"type":"VEC3"
		},
		{
			"bufferView":52,
			"componentType":5126,
			"count":375,
			"type":"VEC2"
		},
		{
			"bufferView":53,
			"componentType":5126,
			"count":375,
			"type":"VEC2"
		},
		{
			"bufferView":54,
			"componentType":5126,
			"count":375,
			"type":"VEC2"
		},
		{
			"bufferView":55,
			"componentType":5126,
			"count":375,
			"type":"VEC2"
		},
		{
			"bufferView":56,
			"componentType":5126,
			"count":375,
			"type":"VEC2"
		},
		{
			"bufferView":57,
			"componentType":5126,
			"count":375,
			"type":"VEC2"
		},
		{
			"bufferView":58,
			"componentType":5126,
			"count":375,
			"type":"VEC2"
		},
		{
			"bufferView":59,
			"componentType":5123,
			"count":600,
			"type":"SCALAR"
		},
		{
			"bufferView":60,
			"componentType":5126,
			"count":374,
			"max":[
				1.0214958190917969,
				0.19998931884765625,
				0.22345256805419922
			],
			"min":[
				-1.0226707458496094,
				-0.22127532958984375,
				-0.22243213653564453
			],
			"type":"VEC3"
		},
		{
			"bufferView":61,
			"componentType":5126,
			"count":374,
			"type":"VEC3"
		},
		{
			"bufferView":62,
			"componentType":5126,
			"count":374,
			"type":"VEC2"
		},
		{
			"bufferView":63,
			"componentType":5126,
			"count":374,
			"type":"VEC2"
		},
		{
			"bufferView":64,
			"componentType":5126,
			"count":374,
			"type":"VEC2"
		},
		{
			"bufferView":65,
			"componentType":5126,
			"count":374,
			"type":"VEC2"
		},
		{
			"bufferView":66,
			"componentType":5126,
			"count":374,
			"type":"VEC2"
		},
		{
			"bufferView":67,
			"componentType":5126,
			"count":374,
			"type":"VEC2"
		},
		{
			"bufferView":68,
			"componentType":5126,
			"count":374,
			"type":"VEC2"
		},
		{
			"bufferView":69,
			"componentType":5123,
			"count":600,
			"type":"SCALAR"
		},
		{
			"bufferView":70,
			"componentType":5126,
			"count":36,
			"max":[
				3.37957763671875,
				0.15143585205078125,
				1.1184368133544922
			],
			"min":[
				-3.379608154296875,
				-0.23790359497070312,
				-1.4203815460205078
			],
			"type":"VEC3"
		},
		{
			"bufferView":71,
			"componentType":5126,
			"count":36,
			"type":"VEC3"
		},
		{
			"bufferView":72,
			"componentType":5126,
			"count":36,
			"type":"VEC2"
		},
		{
			"bufferView":73,
			"componentType":5126,
			"count":36,
			"type":"VEC2"
		},
		{
			"bufferView":74,
			"componentType":5126,
			"count":36,
			"type":"VEC2"
		},
		{
			"bufferView":75,
			"componentType":5126,
			"count":36,
			"type":"VEC2"
		},
		{
			"bufferView":76,
			"componentType":5126,
			"count":36,
			"type":"VEC2"
		},
		{
			"bufferView":77,
			"componentType":5126,
			"count":36,
			"type":"VEC2"
		},
		{
			"bufferView":78,
			"componentType":5126,
			"count":36,
			"type":"VEC2"
		},
		{
			"bufferView":79,
			"componentType":5123,
			"count":54,
			"type":"SCALAR"
		},
		{
			"bufferView":80,
			"componentType":5126,
			"count":36,
			"max":[
				3.364227294921875,
				0.2661628723144531,
				1.7320079803466797
			],
			"min":[
				-3.3642578125,
				-0.22980499267578125,
				-1.605020523071289
			],
			"type":"VEC3"
		},
		{
			"bufferView":81,
			"componentType":5126,
			"count":36,
			"type":"VEC3"
		},
		{
			"bufferView":82,
			"componentType":5126,
			"count":36,
			"type":"VEC2"
		},
		{
			"bufferView":83,
			"componentType":5126,
			"count":36,
			"type":"VEC2"
		},
		{
			"bufferView":84,
			"componentType":5126,
			"count":36,
			"type":"VEC2"
		},
		{
			"bufferView":85,
			"componentType":5126,
			"count":36,
			"type":"VEC2"
		},
		{
			"bufferView":86,
			"componentType":5126,
			"count":36,
			"type":"VEC2"
		},
		{
			"bufferView":87,
			"componentType":5126,
			"count":36,
			"type":"VEC2"
		},
		{
			"bufferView":88,
			"componentType":5126,
			"count":36,
			"type":"VEC2"
		},
		{
			"bufferView":89,
			"componentType":5123,
			"count":54,
			"type":"SCALAR"
		},
		{
			"bufferView":90,
			"componentType":5126,
			"count":296,
			"max":[
				0.8235244750976562,
				0.39232635498046875,
				0.37287330627441406
			],
			"min":[
				-0.820770263671875,
				-0.4582061767578125,
				-0.3726482391357422
			],
			"type":"VEC3"
		},
		{
			"bufferView":91,
			"componentType":5126,
			"count":296,
			"type":"VEC3"
		},
		{
			"bufferView":92,
			"componentType":5126,
			"count":296,
			"type":"VEC2"
		},
		{
			"bufferView":93,
			"componentType":5126,
			"count":296,
			"type":"VEC2"
		},
		{
			"bufferView":94,
			"componentType":5126,
			"count":296,
			"type":"VEC2"
		},
		{
			"bufferView":95,
			"componentType":5126,
			"count":296,
			"type":"VEC2"
		},
		{
			"bufferView":96,
			"componentType":5126,
			"count":296,
			"type":"VEC2"
		},
		{
			"bufferView":97,
			"componentType":5126,
			"count":296,
			"type":"VEC2"
		},
		{
			"bufferView":98,
			"componentType":5126,
			"count":296,
			"type":"VEC2"
		},
		{
			"bufferView":99,
			"componentType":5123,
			"count":480,
			"type":"SCALAR"
		},
		{
			"bufferView":100,
			"componentType":5126,
			"count":24,
			"max":[
				0.7905349731445312,
				0.3263969421386719,
				0.3429584503173828
			],
			"min":[
				-0.78778076171875,
				-0.42066192626953125,
				-0.34273719787597656
			],
			"type":"VEC3"
		},
		{
			"bufferView":101,
			"componentType":5126,
			"count":24,
			"type":"VEC3"
		},
		{
			"bufferView":102,
			"componentType":5126,
			"count":24,
			"type":"VEC2"
		},
		{
			"bufferView":103,
			"componentType":5126,
			"count":24,
			"type":"VEC2"
		},
		{
			"bufferView":104,
			"componentType":5126,
			"count":24,
			"type":"VEC2"
		},
		{
			"bufferView":105,
			"componentType":5126,
			"count":24,
			"type":"VEC2"
		},
		{
			"bufferView":106,
			"componentType":5126,
			"count":24,
			"type":"VEC2"
		},
		{
			"bufferView":107,
			"componentType":5126,
			"count":24,
			"type":"VEC2"
		},
		{
			"bufferView":108,
			"componentType":5126,
			"count":24,
			"type":"VEC2"
		},
		{
			"bufferView":109,
			"componentType":5123,
			"count":36,
			"type":"SCALAR"
		},
		{
			"bufferView":110,
			"componentType":5126,
			"count":616,
			"max":[
				0.7045669555664062,
				0.7750816345214844,
				0.795628547668457
			],
			"min":[
				-0.7177276611328125,
				-0.48224639892578125,
				-1.1425962448120117
			],
			"type":"VEC3"
		},
		{
			"bufferView":111,
			"componentType":5126,
			"count":616,
			"type":"VEC3"
		},
		{
			"bufferView":112,
			"componentType":5126,
			"count":616,
			"type":"VEC2"
		},
		{
			"bufferView":113,
			"componentType":5126,
			"count":616,
			"type":"VEC2"
		},
		{
			"bufferView":114,
			"componentType":5126,
			"count":616,
			"type":"VEC2"
		},
		{
			"bufferView":115,
			"componentType":5126,
			"count":616,
			"type":"VEC2"
		},
		{
			"bufferView":116,
			"componentType":5126,
			"count":616,
			"type":"VEC2"
		},
		{
			"bufferView":117,
			"componentType":5126,
			"count":616,
			"type":"VEC2"
		},
		{
			"bufferView":118,
			"componentType":5126,
			"count":616,
			"type":"VEC2"
		},
		{
			"bufferView":119,
			"componentType":5123,
			"count":858,
			"type":"SCALAR"
		},
		{
			"bufferView":120,
			"componentType":5126,
			"count":514,
			"max":[
				1.0011367797851562,
				4.243072509765625,
				1.1505396366119385
			],
			"min":[
				-0.94500732421875,
				-4.070079803466797,
				-1.1687428951263428
			],
			"type":"VEC3"
		},
		{
			"bufferView":121,
			"componentType":5126,
			"count":514,
			"type":"VEC3"
		},
		{
			"bufferView":122,
			"componentType":5126,
			"count":514,
			"type":"VEC2"
		},
		{
			"bufferView":123,
			"componentType":5126,
			"count":514,
			"type":"VEC2"
		},
		{
			"bufferView":124,
			"componentType":5126,
			"count":514,
			"type":"VEC2"
		},
		{
			"bufferView":125,
			"componentType":5126,
			"count":514,
			"type":"VEC2"
		},
		{
			"bufferView":126,
			"componentType":5126,
			"count":514,
			"type":"VEC2"
		},
		{
			"bufferView":127,
			"componentType":5126,
			"count":514,
			"type":"VEC2"
		},
		{
			"bufferView":128,
			"componentType":5126,
			"count":514,
			"type":"VEC2"
		},
		{
			"bufferView":129,
			"componentType":5123,
			"count":531,
			"type":"SCALAR"
		},
		{
			"bufferView":130,
			"componentType":5126,
			"count":172,
			"max":[
				1.6749267578125,
				1.3624420166015625,
				1.5021324157714844
			],
			"min":[
				-1.6908187866210938,
				-0.6764144897460938,
				-0.9228477478027344
			],
			"type":"VEC3"
		},
		{
			"bufferView":131,
			"componentType":5126,
			"count":172,
			"type":"VEC3"
		},
		{
			"bufferView":132,
			"componentType":5126,
			"count":172,
			"type":"VEC2"
		},
		{
			"bufferView":133,
			"componentType":5126,
			"count":172,
			"type":"VEC2"
		},
		{
			"bufferView":134,
			"componentType":5126,
			"count":172,
			"type":"VEC2"
		},
		{
			"bufferView":135,
			"componentType":5126,
			"count":172,
			"type":"VEC2"
		},
		{
			"bufferView":136,
			"componentType":5126,
			"count":172,
			"type":"VEC2"
		},
		{
			"bufferView":137,
			"componentType":5126,
			"count":172,
			"type":"VEC2"
		},
		{
			"bufferView":138,
			"componentType":5126,
			"count":172,
			"type":"VEC2"
		},
		{
			"bufferView":139,
			"componentType":5123,
			"count":222,
			"type":"SCALAR"
		},
		{
			"bufferView":140,
			"componentType":5126,
			"count":854,
			"max":[
				1.9662933349609375,
				0.6938362121582031,
				1.4970664978027344
			],
			"min":[
				-1.6908187866210938,
				-0.8697052001953125,
				-1.0262107849121094
			],
			"type":"VEC3"
		},
		{
			"bufferView":141,
			"componentType":5126,
			"count":854,
			"type":"VEC3"
		},
		{
			"bufferView":142,
			"componentType":5126,
			"count":854,
			"type":"VEC2"
		},
		{
			"bufferView":143,
			"componentType":5126,
			"count":854,
			"type":"VEC2"
		},
		{
			"bufferView":144,
			"componentType":5126,
			"count":854,
			"type":"VEC2"
		},
		{
			"bufferView":145,
			"componentType":5126,
			"count":854,
			"type":"VEC2"
		},
		{
			"bufferView":146,
			"componentType":5126,
			"count":854,
			"type":"VEC2"
		},
		{
			"bufferView":147,
			"componentType":5126,
			"count":854,
			"type":"VEC2"
		},
		{
			"bufferView":148,
			"componentType":5126,
			"count":854,
			"type":"VEC2"
		},
		{
			"bufferView":149,
			"componentType":5123,
			"count":1554,
			"type":"SCALAR"
		},
		{
			"bufferView":150,
			"componentType":5126,
			"count":426,
			"max":[
				0.04149627685546875,
				0.8559951782226562,
				0.051954030990600586
			],
			"min":[
				-0.08209228515625,
				-0.7880935668945312,
				-0.08462738990783691
			],
			"type":"VEC3"
		},
		{
			"bufferView":151,
			"componentType":5126,
			"count":426,
			"type":"VEC3"
		},
		{
			"bufferView":152,
			"componentType":5126,
			"count":426,
			"type":"VEC2"
		},
		{
			"bufferView":153,
			"componentType":5126,
			"count":426,
			"type":"VEC2"
		},
		{
			"bufferView":154,
			"componentType":5126,
			"count":426,
			"type":"VEC2"
		},
		{
			"bufferView":155,
			"componentType":5126,
			"count":426,
			"type":"VEC2"
		},
		{
			"bufferView":156,
			"componentType":5126,
			"count":426,
			"type":"VEC2"
		},
		{
			"bufferView":157,
			"componentType":5126,
			"count":426,
			"type":"VEC2"
		},
		{
			"bufferView":158,
			"componentType":5126,
			"count":426,
			"type":"VEC2"
		},
		{
			"bufferView":159,
			"componentType":5123,
			"count":501,
			"type":"SCALAR"
		},
		{
			"bufferView":160,
			"componentType":5126,
			"count":327,
			"max":[
				0.1174774169921875,
				0.6484222412109375,
				0.06819701194763184
			],
			"min":[
				-0.08550262451171875,
				-0.7633285522460938,
				-0.10489106178283691
			],
			"type":"VEC3"
		},
		{
			"bufferView":161,
			"componentType":5126,
			"count":327,
			"type":"VEC3"
		},
		{
			"bufferView":162,
			"componentType":5126,
			"count":327,
			"type":"VEC2"
		},
		{
			"bufferView":163,
			"componentType":5126,
			"count":327,
			"type":"VEC2"
		},
		{
			"bufferView":164,
			"componentType":5126,
			"count":327,
			"type":"VEC2"
		},
		{
			"bufferView":165,
			"componentType":5126,
			"count":327,
			"type":"VEC2"
		},
		{
			"bufferView":166,
			"componentType":5126,
			"count":327,
			"type":"VEC2"
		},
		{
			"bufferView":167,
			"componentType":5126,
			"count":327,
			"type":"VEC2"
		},
		{
			"bufferView":168,
			"componentType":5126,
			"count":327,
			"type":"VEC2"
		},
		{
			"bufferView":169,
			"componentType":5123,
			"count":432,
			"type":"SCALAR"
		},
		{
			"bufferView":170,
			"componentType":5126,
			"count":426,
			"max":[
				0.04149627685546875,
				0.8559913635253906,
				0.051954030990600586
			],
			"min":[
				-0.08209228515625,
				-0.7880897521972656,
				-0.08462738990783691
			],
			"type":"VEC3"
		},
		{
			"bufferView":171,
			"componentType":5126,
			"count":426,
			"type":"VEC3"
		},
		{
			"bufferView":172,
			"componentType":5126,
			"count":426,
			"type":"VEC2"
		},
		{
			"bufferView":173,
			"componentType":5126,
			"count":426,
			"type":"VEC2"
		},
		{
			"bufferView":174,
			"componentType":5126,
			"count":426,
			"type":"VEC2"
		},
		{
			"bufferView":175,
			"componentType":5126,
			"count":426,
			"type":"VEC2"
		},
		{
			"bufferView":176,
			"componentType":5126,
			"count":426,
			"type":"VEC2"
		},
		{
			"bufferView":177,
			"componentType":5126,
			"count":426,
			"type":"VEC2"
		},
		{
			"bufferView":178,
			"componentType":5126,
			"count":426,
			"type":"VEC2"
		},
		{
			"bufferView":179,
			"componentType":5126,
			"count":327,
			"max":[
				0.1174774169921875,
				0.6484260559082031,
				0.06819701194763184
			],
			"min":[
				-0.08550262451171875,
				-0.7633247375488281,
				-0.10489106178283691
			],
			"type":"VEC3"
		},
		{
			"bufferView":180,
			"componentType":5126,
			"count":327,
			"type":"VEC3"
		},
		{
			"bufferView":181,
			"componentType":5126,
			"count":327,
			"type":"VEC2"
		},
		{
			"bufferView":182,
			"componentType":5126,
			"count":327,
			"type":"VEC2"
		},
		{
			"bufferView":183,
			"componentType":5126,
			"count":327,
			"type":"VEC2"
		},
		{
			"bufferView":184,
			"componentType":5126,
			"count":327,
			"type":"VEC2"
		},
		{
			"bufferView":185,
			"componentType":5126,
			"count":327,
			"type":"VEC2"
		},
		{
			"bufferView":186,
			"componentType":5126,
			"count":327,
			"type":"VEC2"
		},
		{
			"bufferView":187,
			"componentType":5126,
			"count":327,
			"type":"VEC2"
		},
		{
			"bufferView":188,
			"componentType":5123,
			"count":432,
			"type":"SCALAR"
		},
		{
			"bufferView":189,
			"componentType":5126,
			"count":437,
			"max":[
				0.0915679931640625,
				0.9036216735839844,
				0.09076476097106934
			],
			"min":[
				-0.043365478515625,
				-0.8207359313964844,
				-0.054659128189086914
			],
			"type":"VEC3"
		},
		{
			"bufferView":190,
			"componentType":5126,
			"count":437,
			"type":"VEC3"
		},
		{
			"bufferView":191,
			"componentType":5126,
			"count":437,
			"type":"VEC2"
		},
		{
			"bufferView":192,
			"componentType":5126,
			"count":437,
			"type":"VEC2"
		},
		{
			"bufferView":193,
			"componentType":5126,
			"count":437,
			"type":"VEC2"
		},
		{
			"bufferView":194,
			"componentType":5126,
			"count":437,
			"type":"VEC2"
		},
		{
			"bufferView":195,
			"componentType":5126,
			"count":437,
			"type":"VEC2"
		},
		{
			"bufferView":196,
			"componentType":5126,
			"count":437,
			"type":"VEC2"
		},
		{
			"bufferView":197,
			"componentType":5126,
			"count":437,
			"type":"VEC2"
		},
		{
			"bufferView":198,
			"componentType":5123,
			"count":525,
			"type":"SCALAR"
		},
		{
			"bufferView":199,
			"componentType":5126,
			"count":333,
			"max":[
				0.0890045166015625,
				0.6859169006347656,
				0.10984587669372559
			],
			"min":[
				-0.12305450439453125,
				-0.7943611145019531,
				-0.07155823707580566
			],
			"type":"VEC3"
		},
		{
			"bufferView":200,
			"componentType":5126,
			"count":333,
			"type":"VEC3"
		},
		{
			"bufferView":201,
			"componentType":5126,
			"count":333,
			"type":"VEC2"
		},
		{
			"bufferView":202,
			"componentType":5126,
			"count":333,
			"type":"VEC2"
		},
		{
			"bufferView":203,
			"componentType":5126,
			"count":333,
			"type":"VEC2"
		},
		{
			"bufferView":204,
			"componentType":5126,
			"count":333,
			"type":"VEC2"
		},
		{
			"bufferView":205,
			"componentType":5126,
			"count":333,
			"type":"VEC2"
		},
		{
			"bufferView":206,
			"componentType":5126,
			"count":333,
			"type":"VEC2"
		},
		{
			"bufferView":207,
			"componentType":5126,
			"count":333,
			"type":"VEC2"
		},
		{
			"bufferView":208,
			"componentType":5123,
			"count":444,
			"type":"SCALAR"
		},
		{
			"bufferView":209,
			"componentType":5126,
			"count":437,
			"max":[
				0.0915679931640625,
				0.90362548828125,
				0.09076476097106934
			],
			"min":[
				-0.043365478515625,
				-0.8207321166992188,
				-0.054659128189086914
			],
			"type":"VEC3"
		},
		{
			"bufferView":210,
			"componentType":5126,
			"count":437,
			"type":"VEC3"
		},
		{
			"bufferView":211,
			"componentType":5126,
			"count":437,
			"type":"VEC2"
		},
		{
			"bufferView":212,
			"componentType":5126,
			"count":437,
			"type":"VEC2"
		},
		{
			"bufferView":213,
			"componentType":5126,
			"count":437,
			"type":"VEC2"
		},
		{
			"bufferView":214,
			"componentType":5126,
			"count":437,
			"type":"VEC2"
		},
		{
			"bufferView":215,
			"componentType":5126,
			"count":437,
			"type":"VEC2"
		},
		{
			"bufferView":216,
			"componentType":5126,
			"count":437,
			"type":"VEC2"
		},
		{
			"bufferView":217,
			"componentType":5126,
			"count":437,
			"type":"VEC2"
		},
		{
			"bufferView":218,
			"componentType":5126,
			"count":333,
			"max":[
				0.0890045166015625,
				0.6859207153320312,
				0.10984587669372559
			],
			"min":[
				-0.12305450439453125,
				-0.7943649291992188,
				-0.07155823707580566
			],
			"type":"VEC3"
		},
		{
			"bufferView":219,
			"componentType":5126,
			"count":333,
			"type":"VEC3"
		},
		{
			"bufferView":220,
			"componentType":5126,
			"count":333,
			"type":"VEC2"
		},
		{
			"bufferView":221,
			"componentType":5126,
			"count":333,
			"type":"VEC2"
		},
		{
			"bufferView":222,
			"componentType":5126,
			"count":333,
			"type":"VEC2"
		},
		{
			"bufferView":223,
			"componentType":5126,
			"count":333,
			"type":"VEC2"
		},
		{
			"bufferView":224,
			"componentType":5126,
			"count":333,
			"type":"VEC2"
		},
		{
			"bufferView":225,
			"componentType":5126,
			"count":333,
			"type":"VEC2"
		},
		{
			"bufferView":226,
			"componentType":5126,
			"count":333,
			"type":"VEC2"
		},
		{
			"bufferView":227,
			"componentType":5126,
			"count":24,
			"max":[
				0.5483055114746094,
				0.5482902526855469,
				0.38042449951171875
			],
			"min":[
				-0.5482940673828125,
				-0.548309326171875,
				-0.38042449951171875
			],
			"type":"VEC3"
		},
		{
			"bufferView":228,
			"componentType":5126,
			"count":24,
			"type":"VEC3"
		},
		{
			"bufferView":229,
			"componentType":5126,
			"count":24,
			"type":"VEC2"
		},
		{
			"bufferView":230,
			"componentType":5126,
			"count":24,
			"type":"VEC2"
		},
		{
			"bufferView":231,
			"componentType":5126,
			"count":24,
			"type":"VEC2"
		},
		{
			"bufferView":232,
			"componentType":5126,
			"count":24,
			"type":"VEC2"
		},
		{
			"bufferView":233,
			"componentType":5126,
			"count":24,
			"type":"VEC2"
		},
		{
			"bufferView":234,
			"componentType":5126,
			"count":24,
			"type":"VEC2"
		},
		{
			"bufferView":235,
			"componentType":5126,
			"count":24,
			"type":"VEC2"
		},
		{
			"bufferView":236,
			"componentType":5123,
			"count":36,
			"type":"SCALAR"
		},
		{
			"bufferView":237,
			"componentType":5126,
			"count":602,
			"max":[
				1.4234123229980469,
				0.9651832580566406,
				0.876811683177948
			],
			"min":[
				-0.9905242919921875,
				-0.600738525390625,
				-0.8945582509040833
			],
			"type":"VEC3"
		},
		{
			"bufferView":238,
			"componentType":5126,
			"count":602,
			"type":"VEC3"
		},
		{
			"bufferView":239,
			"componentType":5126,
			"count":602,
			"type":"VEC2"
		},
		{
			"bufferView":240,
			"componentType":5126,
			"count":602,
			"type":"VEC2"
		},
		{
			"bufferView":241,
			"componentType":5126,
			"count":602,
			"type":"VEC2"
		},
		{
			"bufferView":242,
			"componentType":5126,
			"count":602,
			"type":"VEC2"
		},
		{
			"bufferView":243,
			"componentType":5126,
			"count":602,
			"type":"VEC2"
		},
		{
			"bufferView":244,
			"componentType":5126,
			"count":602,
			"type":"VEC2"
		},
		{
			"bufferView":245,
			"componentType":5126,
			"count":602,
			"type":"VEC2"
		},
		{
			"bufferView":246,
			"componentType":5123,
			"count":876,
			"type":"SCALAR"
		},
		{
			"bufferView":247,
			"componentType":5126,
			"count":24,
			"max":[
				0.6903839111328125,
				0.9950218200683594,
				0.9950258731842041
			],
			"min":[
				-0.6903762817382812,
				-0.9950332641601562,
				-0.9950253963470459
			],
			"type":"VEC3"
		},
		{
			"bufferView":248,
			"componentType":5126,
			"count":24,
			"type":"VEC3"
		},
		{
			"bufferView":249,
			"componentType":5126,
			"count":24,
			"type":"VEC2"
		},
		{
			"bufferView":250,
			"componentType":5126,
			"count":24,
			"type":"VEC2"
		},
		{
			"bufferView":251,
			"componentType":5126,
			"count":24,
			"type":"VEC2"
		},
		{
			"bufferView":252,
			"componentType":5126,
			"count":24,
			"type":"VEC2"
		},
		{
			"bufferView":253,
			"componentType":5126,
			"count":24,
			"type":"VEC2"
		},
		{
			"bufferView":254,
			"componentType":5126,
			"count":24,
			"type":"VEC2"
		},
		{
			"bufferView":255,
			"componentType":5126,
			"count":24,
			"type":"VEC2"
		},
		{
			"bufferView":256,
			"componentType":5123,
			"count":36,
			"type":"SCALAR"
		},
		{
			"bufferView":257,
			"componentType":5126,
			"count":241,
			"max":[
				0.5789451599121094,
				0.3923377990722656,
				0.35582923889160156
			],
			"min":[
				-0.40198516845703125,
				-0.24399185180664062,
				-0.3602886199951172
			],
			"type":"VEC3"
		},
		{
			"bufferView":258,
			"componentType":5126,
			"count":241,
			"type":"VEC3"
		},
		{
			"bufferView":259,
			"componentType":5126,
			"count":241,
			"type":"VEC2"
		},
		{
			"bufferView":260,
			"componentType":5126,
			"count":241,
			"type":"VEC2"
		},
		{
			"bufferView":261,
			"componentType":5126,
			"count":241,
			"type":"VEC2"
		},
		{
			"bufferView":262,
			"componentType":5126,
			"count":241,
			"type":"VEC2"
		},
		{
			"bufferView":263,
			"componentType":5126,
			"count":241,
			"type":"VEC2"
		},
		{
			"bufferView":264,
			"componentType":5126,
			"count":241,
			"type":"VEC2"
		},
		{
			"bufferView":265,
			"componentType":5126,
			"count":241,
			"type":"VEC2"
		},
		{
			"bufferView":266,
			"componentType":5123,
			"count":312,
			"type":"SCALAR"
		},
		{
			"bufferView":267,
			"componentType":5126,
			"count":67,
			"max":[
				0.2673606872558594,
				0.01750946044921875,
				0.20828819274902344
			],
			"min":[
				-0.2674560546875,
				-0.039340972900390625,
				-0.20752906799316406
			],
			"type":"VEC3"
		},
		{
			"bufferView":268,
			"componentType":5126,
			"count":67,
			"type":"VEC3"
		},
		{
			"bufferView":269,
			"componentType":5126,
			"count":67,
			"type":"VEC2"
		},
		{
			"bufferView":270,
			"componentType":5126,
			"count":67,
			"type":"VEC2"
		},
		{
			"bufferView":271,
			"componentType":5126,
			"count":67,
			"type":"VEC2"
		},
		{
			"bufferView":272,
			"componentType":5126,
			"count":67,
			"type":"VEC2"
		},
		{
			"bufferView":273,
			"componentType":5126,
			"count":67,
			"type":"VEC2"
		},
		{
			"bufferView":274,
			"componentType":5126,
			"count":67,
			"type":"VEC2"
		},
		{
			"bufferView":275,
			"componentType":5126,
			"count":67,
			"type":"VEC2"
		},
		{
			"bufferView":276,
			"componentType":5123,
			"count":102,
			"type":"SCALAR"
		},
		{
			"bufferView":277,
			"componentType":5126,
			"count":344,
			"max":[
				1.1746597290039062,
				0.6506156921386719,
				2.4889864921569824
			],
			"min":[
				-1.1748199462890625,
				-0.3373451232910156,
				-2.488987445831299
			],
			"type":"VEC3"
		},
		{
			"bufferView":278,
			"componentType":5126,
			"count":344,
			"type":"VEC3"
		},
		{
			"bufferView":279,
			"componentType":5126,
			"count":344,
			"type":"VEC2"
		},
		{
			"bufferView":280,
			"componentType":5126,
			"count":344,
			"type":"VEC2"
		},
		{
			"bufferView":281,
			"componentType":5126,
			"count":344,
			"type":"VEC2"
		},
		{
			"bufferView":282,
			"componentType":5126,
			"count":344,
			"type":"VEC2"
		},
		{
			"bufferView":283,
			"componentType":5126,
			"count":344,
			"type":"VEC2"
		},
		{
			"bufferView":284,
			"componentType":5126,
			"count":344,
			"type":"VEC2"
		},
		{
			"bufferView":285,
			"componentType":5126,
			"count":344,
			"type":"VEC2"
		},
		{
			"bufferView":286,
			"componentType":5123,
			"count":708,
			"type":"SCALAR"
		},
		{
			"bufferView":287,
			"componentType":5126,
			"count":40,
			"max":[
				0.993133544921875,
				0.5926055908203125,
				2.307460308074951
			],
			"min":[
				-0.9932937622070312,
				0.12437057495117188,
				-2.3074612617492676
			],
			"type":"VEC3"
		},
		{
			"bufferView":288,
			"componentType":5126,
			"count":40,
			"type":"VEC3"
		},
		{
			"bufferView":289,
			"componentType":5126,
			"count":40,
			"type":"VEC2"
		},
		{
			"bufferView":290,
			"componentType":5126,
			"count":40,
			"type":"VEC2"
		},
		{
			"bufferView":291,
			"componentType":5126,
			"count":40,
			"type":"VEC2"
		},
		{
			"bufferView":292,
			"componentType":5126,
			"count":40,
			"type":"VEC2"
		},
		{
			"bufferView":293,
			"componentType":5126,
			"count":40,
			"type":"VEC2"
		},
		{
			"bufferView":294,
			"componentType":5126,
			"count":40,
			"type":"VEC2"
		},
		{
			"bufferView":295,
			"componentType":5126,
			"count":40,
			"type":"VEC2"
		},
		{
			"bufferView":296,
			"componentType":5123,
			"count":60,
			"type":"SCALAR"
		},
		{
			"bufferView":297,
			"componentType":5126,
			"count":24,
			"max":[
				0.13535308837890625,
				0.3490447998046875,
				0.28641486167907715
			],
			"min":[
				-0.13538360595703125,
				-0.3490409851074219,
				-0.28641533851623535
			],
			"type":"VEC3"
		},
		{
			"bufferView":298,
			"componentType":5126,
			"count":24,
			"type":"VEC3"
		},
		{
			"bufferView":299,
			"componentType":5126,
			"count":24,
			"type":"VEC2"
		},
		{
			"bufferView":300,
			"componentType":5126,
			"count":24,
			"type":"VEC2"
		},
		{
			"bufferView":301,
			"componentType":5126,
			"count":24,
			"type":"VEC2"
		},
		{
			"bufferView":302,
			"componentType":5126,
			"count":24,
			"type":"VEC2"
		},
		{
			"bufferView":303,
			"componentType":5126,
			"count":24,
			"type":"VEC2"
		},
		{
			"bufferView":304,
			"componentType":5126,
			"count":24,
			"type":"VEC2"
		},
		{
			"bufferView":305,
			"componentType":5126,
			"count":24,
			"type":"VEC2"
		},
		{
			"bufferView":306,
			"componentType":5126,
			"count":56,
			"max":[
				11.432334899902344,
				-21.246925354003906,
				-13.326338768005371
			],
			"min":[
				-12.29825210571289,
				-25.112449645996094,
				-15.73195743560791
			],
			"type":"VEC3"
		},
		{
			"bufferView":307,
			"componentType":5126,
			"count":56,
			"type":"VEC3"
		},
		{
			"bufferView":308,
			"componentType":5126,
			"count":56,
			"type":"VEC2"
		},
		{
			"bufferView":309,
			"componentType":5126,
			"count":56,
			"type":"VEC2"
		},
		{
			"bufferView":310,
			"componentType":5126,
			"count":56,
			"type":"VEC2"
		},
		{
			"bufferView":311,
			"componentType":5126,
			"count":56,
			"type":"VEC2"
		},
		{
			"bufferView":312,
			"componentType":5126,
			"count":56,
			"type":"VEC2"
		},
		{
			"bufferView":313,
			"componentType":5126,
			"count":56,
			"type":"VEC2"
		},
		{
			"bufferView":314,
			"componentType":5126,
			"count":56,
			"type":"VEC2"
		},
		{
			"bufferView":315,
			"componentType":5126,
			"count":56,
			"type":"VEC2"
		},
		{
			"bufferView":316,
			"componentType":5123,
			"count":84,
			"type":"SCALAR"
		},
		{
			"bufferView":317,
			"componentType":5126,
			"count":140,
			"max":[
				11.432334899902344,
				-20.771663665771484,
				-13.326338768005371
			],
			"min":[
				-12.29825210571289,
				-21.246925354003906,
				-15.73195743560791
			],
			"type":"VEC3"
		},
		{
			"bufferView":318,
			"componentType":5126,
			"count":140,
			"type":"VEC3"
		},
		{
			"bufferView":319,
			"componentType":5126,
			"count":140,
			"type":"VEC2"
		},
		{
			"bufferView":320,
			"componentType":5126,
			"count":140,
			"type":"VEC2"
		},
		{
			"bufferView":321,
			"componentType":5126,
			"count":140,
			"type":"VEC2"
		},
		{
			"bufferView":322,
			"componentType":5126,
			"count":140,
			"type":"VEC2"
		},
		{
			"bufferView":323,
			"componentType":5126,
			"count":140,
			"type":"VEC2"
		},
		{
			"bufferView":324,
			"componentType":5126,
			"count":140,
			"type":"VEC2"
		},
		{
			"bufferView":325,
			"componentType":5126,
			"count":140,
			"type":"VEC2"
		},
		{
			"bufferView":326,
			"componentType":5126,
			"count":140,
			"type":"VEC2"
		},
		{
			"bufferView":327,
			"componentType":5123,
			"count":210,
			"type":"SCALAR"
		},
		{
			"bufferView":328,
			"componentType":5126,
			"count":1610,
			"max":[
				11.432334899902344,
				19.89407730102539,
				14.576918601989746
			],
			"min":[
				-12.29825210571289,
				-25.106769561767578,
				-13.440716743469238
			],
			"type":"VEC3"
		},
		{
			"bufferView":329,
			"componentType":5126,
			"count":1610,
			"type":"VEC3"
		},
		{
			"bufferView":330,
			"componentType":5126,
			"count":1610,
			"type":"VEC2"
		},
		{
			"bufferView":331,
			"componentType":5126,
			"count":1610,
			"type":"VEC2"
		},
		{
			"bufferView":332,
			"componentType":5126,
			"count":1610,
			"type":"VEC2"
		},
		{
			"bufferView":333,
			"componentType":5126,
			"count":1610,
			"type":"VEC2"
		},
		{
			"bufferView":334,
			"componentType":5126,
			"count":1610,
			"type":"VEC2"
		},
		{
			"bufferView":335,
			"componentType":5126,
			"count":1610,
			"type":"VEC2"
		},
		{
			"bufferView":336,
			"componentType":5126,
			"count":1610,
			"type":"VEC2"
		},
		{
			"bufferView":337,
			"componentType":5126,
			"count":1610,
			"type":"VEC2"
		},
		{
			"bufferView":338,
			"componentType":5123,
			"count":2580,
			"type":"SCALAR"
		},
		{
			"bufferView":339,
			"componentType":5126,
			"count":946,
			"max":[
				11.574283599853516,
				20.471755981445312,
				14.718867301940918
			],
			"min":[
				-12.440200805664062,
				19.89410400390625,
				-13.58266544342041
			],
			"type":"VEC3"
		},
		{
			"bufferView":340,
			"componentType":5126,
			"count":946,
			"type":"VEC3"
		},
		{
			"bufferView":341,
			"componentType":5126,
			"count":946,
			"type":"VEC2"
		},
		{
			"bufferView":342,
			"componentType":5126,
			"count":946,
			"type":"VEC2"
		},
		{
			"bufferView":343,
			"componentType":5126,
			"count":946,
			"type":"VEC2"
		},
		{
			"bufferView":344,
			"componentType":5126,
			"count":946,
			"type":"VEC2"
		},
		{
			"bufferView":345,
			"componentType":5126,
			"count":946,
			"type":"VEC2"
		},
		{
			"bufferView":346,
			"componentType":5126,
			"count":946,
			"type":"VEC2"
		},
		{
			"bufferView":347,
			"componentType":5126,
			"count":946,
			"type":"VEC2"
		},
		{
			"bufferView":348,
			"componentType":5126,
			"count":946,
			"type":"VEC2"
		},
		{
			"bufferView":349,
			"componentType":5123,
			"count":1452,
			"type":"SCALAR"
		},
		{
			"bufferView":350,
			"componentType":5126,
			"count":4,
			"max":[
				11.432334899902344,
				19.89394760131836,
				14.576918601989746
			],
			"min":[
				-12.29825210571289,
				19.893856048583984,
				-13.430716514587402
			],
			"type":"VEC3"
		},
		{
			"bufferView":351,
			"componentType":5126,
			"count":4,
			"type":"VEC3"
		},
		{
			"bufferView":352,
			"componentType":5126,
			"count":4,
			"type":"VEC2"
		},
		{
			"bufferView":353,
			"componentType":5126,
			"count":4,
			"type":"VEC2"
		},
		{
			"bufferView":354,
			"componentType":5126,
			"count":4,
			"type":"VEC2"
		},
		{
			"bufferView":355,
			"componentType":5126,
			"count":4,
			"type":"VEC2"
		},
		{
			"bufferView":356,
			"componentType":5126,
			"count":4,
			"type":"VEC2"
		},
		{
			"bufferView":357,
			"componentType":5126,
			"count":4,
			"type":"VEC2"
		},
		{
			"bufferView":358,
			"componentType":5126,
			"count":4,
			"type":"VEC2"
		},
		{
			"bufferView":359,
			"componentType":5126,
			"count":4,
			"type":"VEC2"
		},
		{
			"bufferView":360,
			"componentType":5123,
			"count":6,
			"type":"SCALAR"
		},
		{
			"bufferView":361,
			"componentType":5126,
			"count":11562,
			"max":[
				12.8826904296875,
				20.045494079589844,
				16.027273178100586
			],
			"min":[
				-13.748607635498047,
				-19.40209197998047,
				-14.891072273254395
			],
			"type":"VEC3"
		},
		{
			"bufferView":362,
			"componentType":5126,
			"count":11562,
			"type":"VEC3"
		},
		{
			"bufferView":363,
			"componentType":5126,
			"count":11562,
			"type":"VEC2"
		},
		{
			"bufferView":364,
			"componentType":5126,
			"count":11562,
			"type":"VEC2"
		},
		{
			"bufferView":365,
			"componentType":5126,
			"count":11562,
			"type":"VEC2"
		},
		{
			"bufferView":366,
			"componentType":5126,
			"count":11562,
			"type":"VEC2"
		},
		{
			"bufferView":367,
			"componentType":5126,
			"count":11562,
			"type":"VEC2"
		},
		{
			"bufferView":368,
			"componentType":5126,
			"count":11562,
			"type":"VEC2"
		},
		{
			"bufferView":369,
			"componentType":5126,
			"count":11562,
			"type":"VEC2"
		},
		{
			"bufferView":370,
			"componentType":5126,
			"count":11562,
			"type":"VEC2"
		},
		{
			"bufferView":371,
			"componentType":5123,
			"count":18900,
			"type":"SCALAR"
		}
	],
	"bufferViews":[
		{
			"buffer":0,
			"byteLength":3396,
			"byteOffset":0,
			"target":34962
		},
		{
			"buffer":0,
			"byteLength":3396,
			"byteOffset":3396,
			"target":34962
		},
		{
			"buffer":0,
			"byteLength":2264,
			"byteOffset":6792,
			"target":34962
		},
		{
			"buffer":0,
			"byteLength":2264,
			"byteOffset":9056,
			"target":34962
		},
		{
			"buffer":0,
			"byteLength":2264,
			"byteOffset":11320,
			"target":34962
		},
		{
			"buffer":0,
			"byteLength":2264,
			"byteOffset":13584,
			"target":34962
		},
		{
			"buffer":0,
			"byteLength":2264,
			"byteOffset":15848,
			"target":34962
		},
		{
			"buffer":0,
			"byteLength":2264,
			"byteOffset":18112,
			"target":34962
		},
		{
			"buffer":0,
			"byteLength":2264,
			"byteOffset":20376,
			"target":34962
		},
		{
			"buffer":0,
			"byteLength":768,
			"byteOffset":22640,
			"target":34963
		},
		{
			"buffer":0,
			"byteLength":2412,
			"byteOffset":23408,
			"target":34962
		},
		{
			"buffer":0,
			"byteLength":2412,
			"byteOffset":25820,
			"target":34962
		},
		{
			"buffer":0,
			"byteLength":1608,
			"byteOffset":28232,
			"target":34962
		},
		{
			"buffer":0,
			"byteLength":1608,
			"byteOffset":29840,
			"target":34962
		},
		{
			"buffer":0,
			"byteLength":1608,
			"byteOffset":31448,
			"target":34962
		},
		{
			"buffer":0,
			"byteLength":1608,
			"byteOffset":33056,
			"target":34962
		},
		{
			"buffer":0,
			"byteLength":1608,
			"byteOffset":34664,
			"target":34962
		},
		{
			"buffer":0,
			"byteLength":1608,
			"byteOffset":36272,
			"target":34962
		},
		{
			"buffer":0,
			"byteLength":1608,
			"byteOffset":37880,
			"target":34962
		},
		{
			"buffer":0,
			"byteLength":984,
			"byteOffset":39488,
			"target":34963
		},
		{
			"buffer":0,
			"byteLength":1176,
			"byteOffset":40472,
			"target":34962
		},
		{
			"buffer":0,
			"byteLength":1176,
			"byteOffset":41648,
			"target":34962
		},
		{
			"buffer":0,
			"byteLength":784,
			"byteOffset":42824,
			"target":34962
		},
		{
			"buffer":0,
			"byteLength":784,
			"byteOffset":43608,
			"target":34962
		},
		{
			"buffer":0,
			"byteLength":784,
			"byteOffset":44392,
			"target":34962
		},
		{
			"buffer":0,
			"byteLength":784,
			"byteOffset":45176,
			"target":34962
		},
		{
			"buffer":0,
			"byteLength":784,
			"byteOffset":45960,
			"target":34962
		},
		{
			"buffer":0,
			"byteLength":784,
			"byteOffset":46744,
			"target":34962
		},
		{
			"buffer":0,
			"byteLength":784,
			"byteOffset":47528,
			"target":34962
		},
		{
			"buffer":0,
			"byteLength":240,
			"byteOffset":48312,
			"target":34963
		},
		{
			"buffer":0,
			"byteLength":3624,
			"byteOffset":48552,
			"target":34962
		},
		{
			"buffer":0,
			"byteLength":3624,
			"byteOffset":52176,
			"target":34962
		},
		{
			"buffer":0,
			"byteLength":2416,
			"byteOffset":55800,
			"target":34962
		},
		{
			"buffer":0,
			"byteLength":2416,
			"byteOffset":58216,
			"target":34962
		},
		{
			"buffer":0,
			"byteLength":2416,
			"byteOffset":60632,
			"target":34962
		},
		{
			"buffer":0,
			"byteLength":2416,
			"byteOffset":63048,
			"target":34962
		},
		{
			"buffer":0,
			"byteLength":2416,
			"byteOffset":65464,
			"target":34962
		},
		{
			"buffer":0,
			"byteLength":2416,
			"byteOffset":67880,
			"target":34962
		},
		{
			"buffer":0,
			"byteLength":2416,
			"byteOffset":70296,
			"target":34962
		},
		{
			"buffer":0,
			"byteLength":960,
			"byteOffset":72712,
			"target":34963
		},
		{
			"buffer":0,
			"byteLength":288,
			"byteOffset":73672,
			"target":34962
		},
		{
			"buffer":0,
			"byteLength":288,
			"byteOffset":73960,
			"target":34962
		},
		{
			"buffer":0,
			"byteLength":192,
			"byteOffset":74248,
			"target":34962
		},
		{
			"buffer":0,
			"byteLength":192,
			"byteOffset":74440,
			"target":34962
		},
		{
			"buffer":0,
			"byteLength":192,
			"byteOffset":74632,
			"target":34962
		},
		{
			"buffer":0,
			"byteLength":192,
			"byteOffset":74824,
			"target":34962
		},
		{
			"buffer":0,
			"byteLength":192,
			"byteOffset":75016,
			"target":34962
		},
		{
			"buffer":0,
			"byteLength":192,
			"byteOffset":75208,
			"target":34962
		},
		{
			"buffer":0,
			"byteLength":192,
			"byteOffset":75400,
			"target":34962
		},
		{
			"buffer":0,
			"byteLength":72,
			"byteOffset":75592,
			"target":34963
		},
		{
			"buffer":0,
			"byteLength":4500,
			"byteOffset":75664,
			"target":34962
		},
		{
			"buffer":0,
			"byteLength":4500,
			"byteOffset":80164,
			"target":34962
		},
		{
			"buffer":0,
			"byteLength":3000,
			"byteOffset":84664,
			"target":34962
		},
		{
			"buffer":0,
			"byteLength":3000,
			"byteOffset":87664,
			"target":34962
		},
		{
			"buffer":0,
			"byteLength":3000,
			"byteOffset":90664,
			"target":34962
		},
		{
			"buffer":0,
			"byteLength":3000,
			"byteOffset":93664,
			"target":34962
		},
		{
			"buffer":0,
			"byteLength":3000,
			"byteOffset":96664,
			"target":34962
		},
		{
			"buffer":0,
			"byteLength":3000,
			"byteOffset":99664,
			"target":34962
		},
		{
			"buffer":0,
			"byteLength":3000,
			"byteOffset":102664,
			"target":34962
		},
		{
			"buffer":0,
			"byteLength":1200,
			"byteOffset":105664,
			"target":34963
		},
		{
			"buffer":0,
			"byteLength":4488,
			"byteOffset":106864,
			"target":34962
		},
		{
			"buffer":0,
			"byteLength":4488,
			"byteOffset":111352,
			"target":34962
		},
		{
			"buffer":0,
			"byteLength":2992,
			"byteOffset":115840,
			"target":34962
		},
		{
			"buffer":0,
			"byteLength":2992,
			"byteOffset":118832,
			"target":34962
		},
		{
			"buffer":0,
			"byteLength":2992,
			"byteOffset":121824,
			"target":34962
		},
		{
			"buffer":0,
			"byteLength":2992,
			"byteOffset":124816,
			"target":34962
		},
		{
			"buffer":0,
			"byteLength":2992,
			"byteOffset":127808,
			"target":34962
		},
		{
			"buffer":0,
			"byteLength":2992,
			"byteOffset":130800,
			"target":34962
		},
		{
			"buffer":0,
			"byteLength":2992,
			"byteOffset":133792,
			"target":34962
		},
		{
			"buffer":0,
			"byteLength":1200,
			"byteOffset":136784,
			"target":34963
		},
		{
			"buffer":0,
			"byteLength":432,
			"byteOffset":137984,
			"target":34962
		},
		{
			"buffer":0,
			"byteLength":432,
			"byteOffset":138416,
			"target":34962
		},
		{
			"buffer":0,
			"byteLength":288,
			"byteOffset":138848,
			"target":34962
		},
		{
			"buffer":0,
			"byteLength":288,
			"byteOffset":139136,
			"target":34962
		},
		{
			"buffer":0,
			"byteLength":288,
			"byteOffset":139424,
			"target":34962
		},
		{
			"buffer":0,
			"byteLength":288,
			"byteOffset":139712,
			"target":34962
		},
		{
			"buffer":0,
			"byteLength":288,
			"byteOffset":140000,
			"target":34962
		},
		{
			"buffer":0,
			"byteLength":288,
			"byteOffset":140288,
			"target":34962
		},
		{
			"buffer":0,
			"byteLength":288,
			"byteOffset":140576,
			"target":34962
		},
		{
			"buffer":0,
			"byteLength":108,
			"byteOffset":140864,
			"target":34963
		},
		{
			"buffer":0,
			"byteLength":432,
			"byteOffset":140972,
			"target":34962
		},
		{
			"buffer":0,
			"byteLength":432,
			"byteOffset":141404,
			"target":34962
		},
		{
			"buffer":0,
			"byteLength":288,
			"byteOffset":141836,
			"target":34962
		},
		{
			"buffer":0,
			"byteLength":288,
			"byteOffset":142124,
			"target":34962
		},
		{
			"buffer":0,
			"byteLength":288,
			"byteOffset":142412,
			"target":34962
		},
		{
			"buffer":0,
			"byteLength":288,
			"byteOffset":142700,
			"target":34962
		},
		{
			"buffer":0,
			"byteLength":288,
			"byteOffset":142988,
			"target":34962
		},
		{
			"buffer":0,
			"byteLength":288,
			"byteOffset":143276,
			"target":34962
		},
		{
			"buffer":0,
			"byteLength":288,
			"byteOffset":143564,
			"target":34962
		},
		{
			"buffer":0,
			"byteLength":108,
			"byteOffset":143852,
			"target":34963
		},
		{
			"buffer":0,
			"byteLength":3552,
			"byteOffset":143960,
			"target":34962
		},
		{
			"buffer":0,
			"byteLength":3552,
			"byteOffset":147512,
			"target":34962
		},
		{
			"buffer":0,
			"byteLength":2368,
			"byteOffset":151064,
			"target":34962
		},
		{
			"buffer":0,
			"byteLength":2368,
			"byteOffset":153432,
			"target":34962
		},
		{
			"buffer":0,
			"byteLength":2368,
			"byteOffset":155800,
			"target":34962
		},
		{
			"buffer":0,
			"byteLength":2368,
			"byteOffset":158168,
			"target":34962
		},
		{
			"buffer":0,
			"byteLength":2368,
			"byteOffset":160536,
			"target":34962
		},
		{
			"buffer":0,
			"byteLength":2368,
			"byteOffset":162904,
			"target":34962
		},
		{
			"buffer":0,
			"byteLength":2368,
			"byteOffset":165272,
			"target":34962
		},
		{
			"buffer":0,
			"byteLength":960,
			"byteOffset":167640,
			"target":34963
		},
		{
			"buffer":0,
			"byteLength":288,
			"byteOffset":168600,
			"target":34962
		},
		{
			"buffer":0,
			"byteLength":288,
			"byteOffset":168888,
			"target":34962
		},
		{
			"buffer":0,
			"byteLength":192,
			"byteOffset":169176,
			"target":34962
		},
		{
			"buffer":0,
			"byteLength":192,
			"byteOffset":169368,
			"target":34962
		},
		{
			"buffer":0,
			"byteLength":192,
			"byteOffset":169560,
			"target":34962
		},
		{
			"buffer":0,
			"byteLength":192,
			"byteOffset":169752,
			"target":34962
		},
		{
			"buffer":0,
			"byteLength":192,
			"byteOffset":169944,
			"target":34962
		},
		{
			"buffer":0,
			"byteLength":192,
			"byteOffset":170136,
			"target":34962
		},
		{
			"buffer":0,
			"byteLength":192,
			"byteOffset":170328,
			"target":34962
		},
		{
			"buffer":0,
			"byteLength":72,
			"byteOffset":170520,
			"target":34963
		},
		{
			"buffer":0,
			"byteLength":7392,
			"byteOffset":170592,
			"target":34962
		},
		{
			"buffer":0,
			"byteLength":7392,
			"byteOffset":177984,
			"target":34962
		},
		{
			"buffer":0,
			"byteLength":4928,
			"byteOffset":185376,
			"target":34962
		},
		{
			"buffer":0,
			"byteLength":4928,
			"byteOffset":190304,
			"target":34962
		},
		{
			"buffer":0,
			"byteLength":4928,
			"byteOffset":195232,
			"target":34962
		},
		{
			"buffer":0,
			"byteLength":4928,
			"byteOffset":200160,
			"target":34962
		},
		{
			"buffer":0,
			"byteLength":4928,
			"byteOffset":205088,
			"target":34962
		},
		{
			"buffer":0,
			"byteLength":4928,
			"byteOffset":210016,
			"target":34962
		},
		{
			"buffer":0,
			"byteLength":4928,
			"byteOffset":214944,
			"target":34962
		},
		{
			"buffer":0,
			"byteLength":1716,
			"byteOffset":219872,
			"target":34963
		},
		{
			"buffer":0,
			"byteLength":6168,
			"byteOffset":221588,
			"target":34962
		},
		{
			"buffer":0,
			"byteLength":6168,
			"byteOffset":227756,
			"target":34962
		},
		{
			"buffer":0,
			"byteLength":4112,
			"byteOffset":233924,
			"target":34962
		},
		{
			"buffer":0,
			"byteLength":4112,
			"byteOffset":238036,
			"target":34962
		},
		{
			"buffer":0,
			"byteLength":4112,
			"byteOffset":242148,
			"target":34962
		},
		{
			"buffer":0,
			"byteLength":4112,
			"byteOffset":246260,
			"target":34962
		},
		{
			"buffer":0,
			"byteLength":4112,
			"byteOffset":250372,
			"target":34962
		},
		{
			"buffer":0,
			"byteLength":4112,
			"byteOffset":254484,
			"target":34962
		},
		{
			"buffer":0,
			"byteLength":4112,
			"byteOffset":258596,
			"target":34962
		},
		{
			"buffer":0,
			"byteLength":1062,
			"byteOffset":262708,
			"target":34963
		},
		{
			"buffer":0,
			"byteLength":2064,
			"byteOffset":263772,
			"target":34962
		},
		{
			"buffer":0,
			"byteLength":2064,
			"byteOffset":265836,
			"target":34962
		},
		{
			"buffer":0,
			"byteLength":1376,
			"byteOffset":267900,
			"target":34962
		},
		{
			"buffer":0,
			"byteLength":1376,
			"byteOffset":269276,
			"target":34962
		},
		{
			"buffer":0,
			"byteLength":1376,
			"byteOffset":270652,
			"target":34962
		},
		{
			"buffer":0,
			"byteLength":1376,
			"byteOffset":272028,
			"target":34962
		},
		{
			"buffer":0,
			"byteLength":1376,
			"byteOffset":273404,
			"target":34962
		},
		{
			"buffer":0,
			"byteLength":1376,
			"byteOffset":274780,
			"target":34962
		},
		{
			"buffer":0,
			"byteLength":1376,
			"byteOffset":276156,
			"target":34962
		},
		{
			"buffer":0,
			"byteLength":444,
			"byteOffset":277532,
			"target":34963
		},
		{
			"buffer":0,
			"byteLength":10248,
			"byteOffset":277976,
			"target":34962
		},
		{
			"buffer":0,
			"byteLength":10248,
			"byteOffset":288224,
			"target":34962
		},
		{
			"buffer":0,
			"byteLength":6832,
			"byteOffset":298472,
			"target":34962
		},
		{
			"buffer":0,
			"byteLength":6832,
			"byteOffset":305304,
			"target":34962
		},
		{
			"buffer":0,
			"byteLength":6832,
			"byteOffset":312136,
			"target":34962
		},
		{
			"buffer":0,
			"byteLength":6832,
			"byteOffset":318968,
			"target":34962
		},
		{
			"buffer":0,
			"byteLength":6832,
			"byteOffset":325800,
			"target":34962
		},
		{
			"buffer":0,
			"byteLength":6832,
			"byteOffset":332632,
			"target":34962
		},
		{
			"buffer":0,
			"byteLength":6832,
			"byteOffset":339464,
			"target":34962
		},
		{
			"buffer":0,
			"byteLength":3108,
			"byteOffset":346296,
			"target":34963
		},
		{
			"buffer":0,
			"byteLength":5112,
			"byteOffset":349404,
			"target":34962
		},
		{
			"buffer":0,
			"byteLength":5112,
			"byteOffset":354516,
			"target":34962
		},
		{
			"buffer":0,
			"byteLength":3408,
			"byteOffset":359628,
			"target":34962
		},
		{
			"buffer":0,
			"byteLength":3408,
			"byteOffset":363036,
			"target":34962
		},
		{
			"buffer":0,
			"byteLength":3408,
			"byteOffset":366444,
			"target":34962
		},
		{
			"buffer":0,
			"byteLength":3408,
			"byteOffset":369852,
			"target":34962
		},
		{
			"buffer":0,
			"byteLength":3408,
			"byteOffset":373260,
			"target":34962
		},
		{
			"buffer":0,
			"byteLength":3408,
			"byteOffset":376668,
			"target":34962
		},
		{
			"buffer":0,
			"byteLength":3408,
			"byteOffset":380076,
			"target":34962
		},
		{
			"buffer":0,
			"byteLength":1002,
			"byteOffset":383484,
			"target":34963
		},
		{
			"buffer":0,
			"byteLength":3924,
			"byteOffset":384488,
			"target":34962
		},
		{
			"buffer":0,
			"byteLength":3924,
			"byteOffset":388412,
			"target":34962
		},
		{
			"buffer":0,
			"byteLength":2616,
			"byteOffset":392336,
			"target":34962
		},
		{
			"buffer":0,
			"byteLength":2616,
			"byteOffset":394952,
			"target":34962
		},
		{
			"buffer":0,
			"byteLength":2616,
			"byteOffset":397568,
			"target":34962
		},
		{
			"buffer":0,
			"byteLength":2616,
			"byteOffset":400184,
			"target":34962
		},
		{
			"buffer":0,
			"byteLength":2616,
			"byteOffset":402800,
			"target":34962
		},
		{
			"buffer":0,
			"byteLength":2616,
			"byteOffset":405416,
			"target":34962
		},
		{
			"buffer":0,
			"byteLength":2616,
			"byteOffset":408032,
			"target":34962
		},
		{
			"buffer":0,
			"byteLength":864,
			"byteOffset":410648,
			"target":34963
		},
		{
			"buffer":0,
			"byteLength":5112,
			"byteOffset":411512,
			"target":34962
		},
		{
			"buffer":0,
			"byteLength":5112,
			"byteOffset":416624,
			"target":34962
		},
		{
			"buffer":0,
			"byteLength":3408,
			"byteOffset":421736,
			"target":34962
		},
		{
			"buffer":0,
			"byteLength":3408,
			"byteOffset":425144,
			"target":34962
		},
		{
			"buffer":0,
			"byteLength":3408,
			"byteOffset":428552,
			"target":34962
		},
		{
			"buffer":0,
			"byteLength":3408,
			"byteOffset":431960,
			"target":34962
		},
		{
			"buffer":0,
			"byteLength":3408,
			"byteOffset":435368,
			"target":34962
		},
		{
			"buffer":0,
			"byteLength":3408,
			"byteOffset":438776,
			"target":34962
		},
		{
			"buffer":0,
			"byteLength":3408,
			"byteOffset":442184,
			"target":34962
		},
		{
			"buffer":0,
			"byteLength":3924,
			"byteOffset":445592,
			"target":34962
		},
		{
			"buffer":0,
			"byteLength":3924,
			"byteOffset":449516,
			"target":34962
		},
		{
			"buffer":0,
			"byteLength":2616,
			"byteOffset":453440,
			"target":34962
		},
		{
			"buffer":0,
			"byteLength":2616,
			"byteOffset":456056,
			"target":34962
		},
		{
			"buffer":0,
			"byteLength":2616,
			"byteOffset":458672,
			"target":34962
		},
		{
			"buffer":0,
			"byteLength":2616,
			"byteOffset":461288,
			"target":34962
		},
		{
			"buffer":0,
			"byteLength":2616,
			"byteOffset":463904,
			"target":34962
		},
		{
			"buffer":0,
			"byteLength":2616,
			"byteOffset":466520,
			"target":34962
		},
		{
			"buffer":0,
			"byteLength":2616,
			"byteOffset":469136,
			"target":34962
		},
		{
			"buffer":0,
			"byteLength":864,
			"byteOffset":471752,
			"target":34963
		},
		{
			"buffer":0,
			"byteLength":5244,
			"byteOffset":472616,
			"target":34962
		},
		{
			"buffer":0,
			"byteLength":5244,
			"byteOffset":477860,
			"target":34962
		},
		{
			"buffer":0,
			"byteLength":3496,
			"byteOffset":483104,
			"target":34962
		},
		{
			"buffer":0,
			"byteLength":3496,
			"byteOffset":486600,
			"target":34962
		},
		{
			"buffer":0,
			"byteLength":3496,
			"byteOffset":490096,
			"target":34962
		},
		{
			"buffer":0,
			"byteLength":3496,
			"byteOffset":493592,
			"target":34962
		},
		{
			"buffer":0,
			"byteLength":3496,
			"byteOffset":497088,
			"target":34962
		},
		{
			"buffer":0,
			"byteLength":3496,
			"byteOffset":500584,
			"target":34962
		},
		{
			"buffer":0,
			"byteLength":3496,
			"byteOffset":504080,
			"target":34962
		},
		{
			"buffer":0,
			"byteLength":1050,
			"byteOffset":507576,
			"target":34963
		},
		{
			"buffer":0,
			"byteLength":3996,
			"byteOffset":508628,
			"target":34962
		},
		{
			"buffer":0,
			"byteLength":3996,
			"byteOffset":512624,
			"target":34962
		},
		{
			"buffer":0,
			"byteLength":2664,
			"byteOffset":516620,
			"target":34962
		},
		{
			"buffer":0,
			"byteLength":2664,
			"byteOffset":519284,
			"target":34962
		},
		{
			"buffer":0,
			"byteLength":2664,
			"byteOffset":521948,
			"target":34962
		},
		{
			"buffer":0,
			"byteLength":2664,
			"byteOffset":524612,
			"target":34962
		},
		{
			"buffer":0,
			"byteLength":2664,
			"byteOffset":527276,
			"target":34962
		},
		{
			"buffer":0,
			"byteLength":2664,
			"byteOffset":529940,
			"target":34962
		},
		{
			"buffer":0,
			"byteLength":2664,
			"byteOffset":532604,
			"target":34962
		},
		{
			"buffer":0,
			"byteLength":888,
			"byteOffset":535268,
			"target":34963
		},
		{
			"buffer":0,
			"byteLength":5244,
			"byteOffset":536156,
			"target":34962
		},
		{
			"buffer":0,
			"byteLength":5244,
			"byteOffset":541400,
			"target":34962
		},
		{
			"buffer":0,
			"byteLength":3496,
			"byteOffset":546644,
			"target":34962
		},
		{
			"buffer":0,
			"byteLength":3496,
			"byteOffset":550140,
			"target":34962
		},
		{
			"buffer":0,
			"byteLength":3496,
			"byteOffset":553636,
			"target":34962
		},
		{
			"buffer":0,
			"byteLength":3496,
			"byteOffset":557132,
			"target":34962
		},
		{
			"buffer":0,
			"byteLength":3496,
			"byteOffset":560628,
			"target":34962
		},
		{
			"buffer":0,
			"byteLength":3496,
			"byteOffset":564124,
			"target":34962
		},
		{
			"buffer":0,
			"byteLength":3496,
			"byteOffset":567620,
			"target":34962
		},
		{
			"buffer":0,
			"byteLength":3996,
			"byteOffset":571116,
			"target":34962
		},
		{
			"buffer":0,
			"byteLength":3996,
			"byteOffset":575112,
			"target":34962
		},
		{
			"buffer":0,
			"byteLength":2664,
			"byteOffset":579108,
			"target":34962
		},
		{
			"buffer":0,
			"byteLength":2664,
			"byteOffset":581772,
			"target":34962
		},
		{
			"buffer":0,
			"byteLength":2664,
			"byteOffset":584436,
			"target":34962
		},
		{
			"buffer":0,
			"byteLength":2664,
			"byteOffset":587100,
			"target":34962
		},
		{
			"buffer":0,
			"byteLength":2664,
			"byteOffset":589764,
			"target":34962
		},
		{
			"buffer":0,
			"byteLength":2664,
			"byteOffset":592428,
			"target":34962
		},
		{
			"buffer":0,
			"byteLength":2664,
			"byteOffset":595092,
			"target":34962
		},
		{
			"buffer":0,
			"byteLength":288,
			"byteOffset":597756,
			"target":34962
		},
		{
			"buffer":0,
			"byteLength":288,
			"byteOffset":598044,
			"target":34962
		},
		{
			"buffer":0,
			"byteLength":192,
			"byteOffset":598332,
			"target":34962
		},
		{
			"buffer":0,
			"byteLength":192,
			"byteOffset":598524,
			"target":34962
		},
		{
			"buffer":0,
			"byteLength":192,
			"byteOffset":598716,
			"target":34962
		},
		{
			"buffer":0,
			"byteLength":192,
			"byteOffset":598908,
			"target":34962
		},
		{
			"buffer":0,
			"byteLength":192,
			"byteOffset":599100,
			"target":34962
		},
		{
			"buffer":0,
			"byteLength":192,
			"byteOffset":599292,
			"target":34962
		},
		{
			"buffer":0,
			"byteLength":192,
			"byteOffset":599484,
			"target":34962
		},
		{
			"buffer":0,
			"byteLength":72,
			"byteOffset":599676,
			"target":34963
		},
		{
			"buffer":0,
			"byteLength":7224,
			"byteOffset":599748,
			"target":34962
		},
		{
			"buffer":0,
			"byteLength":7224,
			"byteOffset":606972,
			"target":34962
		},
		{
			"buffer":0,
			"byteLength":4816,
			"byteOffset":614196,
			"target":34962
		},
		{
			"buffer":0,
			"byteLength":4816,
			"byteOffset":619012,
			"target":34962
		},
		{
			"buffer":0,
			"byteLength":4816,
			"byteOffset":623828,
			"target":34962
		},
		{
			"buffer":0,
			"byteLength":4816,
			"byteOffset":628644,
			"target":34962
		},
		{
			"buffer":0,
			"byteLength":4816,
			"byteOffset":633460,
			"target":34962
		},
		{
			"buffer":0,
			"byteLength":4816,
			"byteOffset":638276,
			"target":34962
		},
		{
			"buffer":0,
			"byteLength":4816,
			"byteOffset":643092,
			"target":34962
		},
		{
			"buffer":0,
			"byteLength":1752,
			"byteOffset":647908,
			"target":34963
		},
		{
			"buffer":0,
			"byteLength":288,
			"byteOffset":649660,
			"target":34962
		},
		{
			"buffer":0,
			"byteLength":288,
			"byteOffset":649948,
			"target":34962
		},
		{
			"buffer":0,
			"byteLength":192,
			"byteOffset":650236,
			"target":34962
		},
		{
			"buffer":0,
			"byteLength":192,
			"byteOffset":650428,
			"target":34962
		},
		{
			"buffer":0,
			"byteLength":192,
			"byteOffset":650620,
			"target":34962
		},
		{
			"buffer":0,
			"byteLength":192,
			"byteOffset":650812,
			"target":34962
		},
		{
			"buffer":0,
			"byteLength":192,
			"byteOffset":651004,
			"target":34962
		},
		{
			"buffer":0,
			"byteLength":192,
			"byteOffset":651196,
			"target":34962
		},
		{
			"buffer":0,
			"byteLength":192,
			"byteOffset":651388,
			"target":34962
		},
		{
			"buffer":0,
			"byteLength":72,
			"byteOffset":651580,
			"target":34963
		},
		{
			"buffer":0,
			"byteLength":2892,
			"byteOffset":651652,
			"target":34962
		},
		{
			"buffer":0,
			"byteLength":2892,
			"byteOffset":654544,
			"target":34962
		},
		{
			"buffer":0,
			"byteLength":1928,
			"byteOffset":657436,
			"target":34962
		},
		{
			"buffer":0,
			"byteLength":1928,
			"byteOffset":659364,
			"target":34962
		},
		{
			"buffer":0,
			"byteLength":1928,
			"byteOffset":661292,
			"target":34962
		},
		{
			"buffer":0,
			"byteLength":1928,
			"byteOffset":663220,
			"target":34962
		},
		{
			"buffer":0,
			"byteLength":1928,
			"byteOffset":665148,
			"target":34962
		},
		{
			"buffer":0,
			"byteLength":1928,
			"byteOffset":667076,
			"target":34962
		},
		{
			"buffer":0,
			"byteLength":1928,
			"byteOffset":669004,
			"target":34962
		},
		{
			"buffer":0,
			"byteLength":624,
			"byteOffset":670932,
			"target":34963
		},
		{
			"buffer":0,
			"byteLength":804,
			"byteOffset":671556,
			"target":34962
		},
		{
			"buffer":0,
			"byteLength":804,
			"byteOffset":672360,
			"target":34962
		},
		{
			"buffer":0,
			"byteLength":536,
			"byteOffset":673164,
			"target":34962
		},
		{
			"buffer":0,
			"byteLength":536,
			"byteOffset":673700,
			"target":34962
		},
		{
			"buffer":0,
			"byteLength":536,
			"byteOffset":674236,
			"target":34962
		},
		{
			"buffer":0,
			"byteLength":536,
			"byteOffset":674772,
			"target":34962
		},
		{
			"buffer":0,
			"byteLength":536,
			"byteOffset":675308,
			"target":34962
		},
		{
			"buffer":0,
			"byteLength":536,
			"byteOffset":675844,
			"target":34962
		},
		{
			"buffer":0,
			"byteLength":536,
			"byteOffset":676380,
			"target":34962
		},
		{
			"buffer":0,
			"byteLength":204,
			"byteOffset":676916,
			"target":34963
		},
		{
			"buffer":0,
			"byteLength":4128,
			"byteOffset":677120,
			"target":34962
		},
		{
			"buffer":0,
			"byteLength":4128,
			"byteOffset":681248,
			"target":34962
		},
		{
			"buffer":0,
			"byteLength":2752,
			"byteOffset":685376,
			"target":34962
		},
		{
			"buffer":0,
			"byteLength":2752,
			"byteOffset":688128,
			"target":34962
		},
		{
			"buffer":0,
			"byteLength":2752,
			"byteOffset":690880,
			"target":34962
		},
		{
			"buffer":0,
			"byteLength":2752,
			"byteOffset":693632,
			"target":34962
		},
		{
			"buffer":0,
			"byteLength":2752,
			"byteOffset":696384,
			"target":34962
		},
		{
			"buffer":0,
			"byteLength":2752,
			"byteOffset":699136,
			"target":34962
		},
		{
			"buffer":0,
			"byteLength":2752,
			"byteOffset":701888,
			"target":34962
		},
		{
			"buffer":0,
			"byteLength":1416,
			"byteOffset":704640,
			"target":34963
		},
		{
			"buffer":0,
			"byteLength":480,
			"byteOffset":706056,
			"target":34962
		},
		{
			"buffer":0,
			"byteLength":480,
			"byteOffset":706536,
			"target":34962
		},
		{
			"buffer":0,
			"byteLength":320,
			"byteOffset":707016,
			"target":34962
		},
		{
			"buffer":0,
			"byteLength":320,
			"byteOffset":707336,
			"target":34962
		},
		{
			"buffer":0,
			"byteLength":320,
			"byteOffset":707656,
			"target":34962
		},
		{
			"buffer":0,
			"byteLength":320,
			"byteOffset":707976,
			"target":34962
		},
		{
			"buffer":0,
			"byteLength":320,
			"byteOffset":708296,
			"target":34962
		},
		{
			"buffer":0,
			"byteLength":320,
			"byteOffset":708616,
			"target":34962
		},
		{
			"buffer":0,
			"byteLength":320,
			"byteOffset":708936,
			"target":34962
		},
		{
			"buffer":0,
			"byteLength":120,
			"byteOffset":709256,
			"target":34963
		},
		{
			"buffer":0,
			"byteLength":288,
			"byteOffset":709376,
			"target":34962
		},
		{
			"buffer":0,
			"byteLength":288,
			"byteOffset":709664,
			"target":34962
		},
		{
			"buffer":0,
			"byteLength":192,
			"byteOffset":709952,
			"target":34962
		},
		{
			"buffer":0,
			"byteLength":192,
			"byteOffset":710144,
			"target":34962
		},
		{
			"buffer":0,
			"byteLength":192,
			"byteOffset":710336,
			"target":34962
		},
		{
			"buffer":0,
			"byteLength":192,
			"byteOffset":710528,
			"target":34962
		},
		{
			"buffer":0,
			"byteLength":192,
			"byteOffset":710720,
			"target":34962
		},
		{
			"buffer":0,
			"byteLength":192,
			"byteOffset":710912,
			"target":34962
		},
		{
			"buffer":0,
			"byteLength":192,
			"byteOffset":711104,
			"target":34962
		},
		{
			"buffer":0,
			"byteLength":672,
			"byteOffset":711296,
			"target":34962
		},
		{
			"buffer":0,
			"byteLength":672,
			"byteOffset":711968,
			"target":34962
		},
		{
			"buffer":0,
			"byteLength":448,
			"byteOffset":712640,
			"target":34962
		},
		{
			"buffer":0,
			"byteLength":448,
			"byteOffset":713088,
			"target":34962
		},
		{
			"buffer":0,
			"byteLength":448,
			"byteOffset":713536,
			"target":34962
		},
		{
			"buffer":0,
			"byteLength":448,
			"byteOffset":713984,
			"target":34962
		},
		{
			"buffer":0,
			"byteLength":448,
			"byteOffset":714432,
			"target":34962
		},
		{
			"buffer":0,
			"byteLength":448,
			"byteOffset":714880,
			"target":34962
		},
		{
			"buffer":0,
			"byteLength":448,
			"byteOffset":715328,
			"target":34962
		},
		{
			"buffer":0,
			"byteLength":448,
			"byteOffset":715776,
			"target":34962
		},
		{
			"buffer":0,
			"byteLength":168,
			"byteOffset":716224,
			"target":34963
		},
		{
			"buffer":0,
			"byteLength":1680,
			"byteOffset":716392,
			"target":34962
		},
		{
			"buffer":0,
			"byteLength":1680,
			"byteOffset":718072,
			"target":34962
		},
		{
			"buffer":0,
			"byteLength":1120,
			"byteOffset":719752,
			"target":34962
		},
		{
			"buffer":0,
			"byteLength":1120,
			"byteOffset":720872,
			"target":34962
		},
		{
			"buffer":0,
			"byteLength":1120,
			"byteOffset":721992,
			"target":34962
		},
		{
			"buffer":0,
			"byteLength":1120,
			"byteOffset":723112,
			"target":34962
		},
		{
			"buffer":0,
			"byteLength":1120,
			"byteOffset":724232,
			"target":34962
		},
		{
			"buffer":0,
			"byteLength":1120,
			"byteOffset":725352,
			"target":34962
		},
		{
			"buffer":0,
			"byteLength":1120,
			"byteOffset":726472,
			"target":34962
		},
		{
			"buffer":0,
			"byteLength":1120,
			"byteOffset":727592,
			"target":34962
		},
		{
			"buffer":0,
			"byteLength":420,
			"byteOffset":728712,
			"target":34963
		},
		{
			"buffer":0,
			"byteLength":19320,
			"byteOffset":729132,
			"target":34962
		},
		{
			"buffer":0,
			"byteLength":19320,
			"byteOffset":748452,
			"target":34962
		},
		{
			"buffer":0,
			"byteLength":12880,
			"byteOffset":767772,
			"target":34962
		},
		{
			"buffer":0,
			"byteLength":12880,
			"byteOffset":780652,
			"target":34962
		},
		{
			"buffer":0,
			"byteLength":12880,
			"byteOffset":793532,
			"target":34962
		},
		{
			"buffer":0,
			"byteLength":12880,
			"byteOffset":806412,
			"target":34962
		},
		{
			"buffer":0,
			"byteLength":12880,
			"byteOffset":819292,
			"target":34962
		},
		{
			"buffer":0,
			"byteLength":12880,
			"byteOffset":832172,
			"target":34962
		},
		{
			"buffer":0,
			"byteLength":12880,
			"byteOffset":845052,
			"target":34962
		},
		{
			"buffer":0,
			"byteLength":12880,
			"byteOffset":857932,
			"target":34962
		},
		{
			"buffer":0,
			"byteLength":5160,
			"byteOffset":870812,
			"target":34963
		},
		{
			"buffer":0,
			"byteLength":11352,
			"byteOffset":875972,
			"target":34962
		},
		{
			"buffer":0,
			"byteLength":11352,
			"byteOffset":887324,
			"target":34962
		},
		{
			"buffer":0,
			"byteLength":7568,
			"byteOffset":898676,
			"target":34962
		},
		{
			"buffer":0,
			"byteLength":7568,
			"byteOffset":906244,
			"target":34962
		},
		{
			"buffer":0,
			"byteLength":7568,
			"byteOffset":913812,
			"target":34962
		},
		{
			"buffer":0,
			"byteLength":7568,
			"byteOffset":921380,
			"target":34962
		},
		{
			"buffer":0,
			"byteLength":7568,
			"byteOffset":928948,
			"target":34962
		},
		{
			"buffer":0,
			"byteLength":7568,
			"byteOffset":936516,
			"target":34962
		},
		{
			"buffer":0,
			"byteLength":7568,
			"byteOffset":944084,
			"target":34962
		},
		{
			"buffer":0,
			"byteLength":7568,
			"byteOffset":951652,
			"target":34962
		},
		{
			"buffer":0,
			"byteLength":2904,
			"byteOffset":959220,
			"target":34963
		},
		{
			"buffer":0,
			"byteLength":48,
			"byteOffset":962124,
			"target":34962
		},
		{
			"buffer":0,
			"byteLength":48,
			"byteOffset":962172,
			"target":34962
		},
		{
			"buffer":0,
			"byteLength":32,
			"byteOffset":962220,
			"target":34962
		},
		{
			"buffer":0,
			"byteLength":32,
			"byteOffset":962252,
			"target":34962
		},
		{
			"buffer":0,
			"byteLength":32,
			"byteOffset":962284,
			"target":34962
		},
		{
			"buffer":0,
			"byteLength":32,
			"byteOffset":962316,
			"target":34962
		},
		{
			"buffer":0,
			"byteLength":32,
			"byteOffset":962348,
			"target":34962
		},
		{
			"buffer":0,
			"byteLength":32,
			"byteOffset":962380,
			"target":34962
		},
		{
			"buffer":0,
			"byteLength":32,
			"byteOffset":962412,
			"target":34962
		},
		{
			"buffer":0,
			"byteLength":32,
			"byteOffset":962444,
			"target":34962
		},
		{
			"buffer":0,
			"byteLength":12,
			"byteOffset":962476,
			"target":34963
		},
		{
			"buffer":0,
			"byteLength":138744,
			"byteOffset":962488,
			"target":34962
		},
		{
			"buffer":0,
			"byteLength":138744,
			"byteOffset":1101232,
			"target":34962
		},
		{
			"buffer":0,
			"byteLength":92496,
			"byteOffset":1239976,
			"target":34962
		},
		{
			"buffer":0,
			"byteLength":92496,
			"byteOffset":1332472,
			"target":34962
		},
		{
			"buffer":0,
			"byteLength":92496,
			"byteOffset":1424968,
			"target":34962
		},
		{
			"buffer":0,
			"byteLength":92496,
			"byteOffset":1517464,
			"target":34962
		},
		{
			"buffer":0,
			"byteLength":92496,
			"byteOffset":1609960,
			"target":34962
		},
		{
			"buffer":0,
			"byteLength":92496,
			"byteOffset":1702456,
			"target":34962
		},
		{
			"buffer":0,
			"byteLength":92496,
			"byteOffset":1794952,
			"target":34962
		},
		{
			"buffer":0,
			"byteLength":92496,
			"byteOffset":1887448,
			"target":34962
		},
		{
			"buffer":0,
			"byteLength":37800,
			"byteOffset":1979944,
			"target":34963
		}
	],
	"samplers":[
		{
			"magFilter":9729,
			"minFilter":9987
		},
		{
			"magFilter":9729,
			"minFilter":9987,
			"wrapS":33071,
			"wrapT":33071
		}
	],
	"buffers":[
		{
			"byteLength":2017744,
			"uri":"building4.bin"
		}
	]
}
