{
	"asset":{
		"generator":"Khronos glTF Blender I/O v4.2.70",
		"version":"2.0"
	},
	"extensionsUsed":[
		"KHR_materials_transmission",
		"KHR_texture_transform"
	],
	"extensionsRequired":[
		"KHR_texture_transform"
	],
	"scene":0,
	"scenes":[
		{
			"name":"Scene",
			"nodes":[
				0,
				1,
				2,
				3,
				4,
				5,
				6,
				7,
				8,
				9,
				10,
				11,
				12,
				13,
				14,
				15,
				16,
				17
			]
		}
	],
	"nodes":[
		{
			"mesh":0,
			"name":"Object_79.008",
			"translation":[
				-122.79042053222656,
				54.99291229248047,
				21.466712951660156
			]
		},
		{
			"mesh":1,
			"name":"Object_79.009",
			"translation":[
				-128.03465270996094,
				55.12950897216797,
				27.668527603149414
			]
		},
		{
			"mesh":2,
			"name":"Object_79.010",
			"translation":[
				-132.719970703125,
				63.6952018737793,
				33.472496032714844
			]
		},
		{
			"mesh":3,
			"name":"Object_79.011",
			"translation":[
				-122.29725646972656,
				64.24431610107422,
				41.83661651611328
			]
		},
		{
			"mesh":4,
			"name":"Object_81.021",
			"translation":[
				-118.31437683105469,
				54.31797409057617,
				27.405391693115234
			]
		},
		{
			"mesh":5,
			"name":"Object_81.022",
			"translation":[
				-119.23174285888672,
				63.3601188659668,
				40.86219024658203
			]
		},
		{
			"mesh":6,
			"name":"Object_81.023",
			"translation":[
				-138.35047912597656,
				54.317996978759766,
				25.065658569335938
			]
		},
		{
			"mesh":7,
			"name":"Object_87.015",
			"translation":[
				-134.8602294921875,
				54.5213508605957,
				21.737255096435547
			]
		},
		{
			"mesh":8,
			"name":"Object_87.016",
			"translation":[
				-134.23199462890625,
				63.31853103637695,
				40.63883972167969
			]
		},
		{
			"mesh":9,
			"name":"Object_87.020",
			"translation":[
				-139.1218719482422,
				63.569732666015625,
				39.84036636352539
			]
		},
		{
			"mesh":10,
			"name":"Object_91.018",
			"translation":[
				-135.8158416748047,
				54.349700927734375,
				27.926040649414062
			]
		},
		{
			"mesh":11,
			"name":"Object_95.007",
			"translation":[
				-115.5020523071289,
				65.91008758544922,
				40.90664291381836
			]
		},
		{
			"mesh":12,
			"name":"Object_99.003",
			"translation":[
				-109.24493408203125,
				45.16672897338867,
				21.483272552490234
			]
		},
		{
			"mesh":13,
			"name":"Object_99.004",
			"translation":[
				-131.50987243652344,
				54.16260528564453,
				27.90644645690918
			]
		},
		{
			"mesh":14,
			"name":"Object_99.005",
			"translation":[
				-116.66732788085938,
				63.178955078125,
				37.8485107421875
			]
		},
		{
			"mesh":15,
			"name":"Object_99.006",
			"translation":[
				-135.64993286132812,
				63.17426300048828,
				37.29170227050781
			]
		},
		{
			"mesh":16,
			"name":"Object_107.005",
			"translation":[
				-131.17709350585938,
				67.2013931274414,
				36.347469329833984
			]
		},
		{
			"mesh":17,
			"name":"Object_122.009",
			"translation":[
				-124.78463745117188,
				30.979990005493164,
				30.07166290283203
			]
		}
	],
	"materials":[
		{
			"doubleSided":true,
			"name":"material",
			"normalTexture":{
				"index":0
			},
			"pbrMetallicRoughness":{
				"baseColorTexture":{
					"index":1
				},
				"metallicFactor":0,
				"roughnessFactor":0.5
			}
		},
		{
			"doubleSided":true,
			"name":"CityGenbasic_metal.001",
			"pbrMetallicRoughness":{
				"baseColorFactor":[
					0.45012399554252625,
					0.45012399554252625,
					0.45012399554252625,
					1
				],
				"roughnessFactor":0.26060399413108826
			}
		},
		{
			"alphaMode":"BLEND",
			"doubleSided":true,
			"extensions":{
				"KHR_materials_transmission":{
					"transmissionFactor":1
				}
			},
			"name":"CityGenGlass.001",
			"normalTexture":{
				"index":2,
				"scale":0.20000000298023224
			},
			"pbrMetallicRoughness":{
				"baseColorFactor":[
					1,
					1,
					1,
					0.25
				],
				"metallicFactor":0,
				"roughnessFactor":0
			}
		},
		{
			"doubleSided":true,
			"name":"CityGenbasic_rough_metal_dark_.001",
			"pbrMetallicRoughness":{
				"baseColorFactor":[
					0.13662800192832947,
					0.15541599690914154,
					0.13210399448871613,
					1
				],
				"roughnessFactor":0.4942860007286072
			}
		},
		{
			"doubleSided":true,
			"name":"CityGentextured_metal",
			"normalTexture":{
				"index":3
			},
			"pbrMetallicRoughness":{
				"baseColorTexture":{
					"index":4
				},
				"metallicRoughnessTexture":{
					"index":5
				}
			}
		},
		{
			"doubleSided":true,
			"name":"CityGenAC",
			"pbrMetallicRoughness":{
				"baseColorTexture":{
					"index":6
				},
				"metallicFactor":0,
				"roughnessFactor":0.5
			}
		},
		{
			"alphaMode":"BLEND",
			"doubleSided":true,
			"name":"Material.002",
			"normalTexture":{
				"index":7
			},
			"pbrMetallicRoughness":{
				"baseColorTexture":{
					"index":8
				},
				"metallicFactor":0,
				"roughnessFactor":0.5
			}
		},
		{
			"doubleSided":true,
			"name":"Material.003",
			"normalTexture":{
				"index":9
			},
			"pbrMetallicRoughness":{
				"baseColorFactor":[
					0.5764470100402832,
					0.5764470100402832,
					0.5764470100402832,
					1
				],
				"roughnessFactor":0.25636398792266846
			}
		},
		{
			"doubleSided":true,
			"name":"rooftop_tank",
			"pbrMetallicRoughness":{
				"baseColorTexture":{
					"index":10
				},
				"metallicFactor":0,
				"roughnessFactor":0.5
			}
		},
		{
			"alphaMode":"BLEND",
			"doubleSided":true,
			"name":"Material.004",
			"pbrMetallicRoughness":{
				"baseColorTexture":{
					"index":11
				},
				"metallicFactor":0,
				"roughnessFactor":0.5
			}
		},
		{
			"doubleSided":true,
			"emissiveFactor":[
				5.96045985901128e-08,
				5.96045985901128e-08,
				5.96045985901128e-08
			],
			"name":"CityGen_LR_Facades",
			"pbrMetallicRoughness":{
				"baseColorTexture":{
					"index":12
				},
				"metallicFactor":0,
				"metallicRoughnessTexture":{
					"index":13
				}
			}
		},
		{
			"doubleSided":true,
			"name":"CityGenyellow_stone",
			"normalTexture":{
				"index":14,
				"scale":0.10000000149011612
			},
			"pbrMetallicRoughness":{
				"baseColorFactor":[
					0.11748600006103516,
					0.091798797249794,
					0.056883398443460464,
					1
				],
				"metallicFactor":0,
				"metallicRoughnessTexture":{
					"index":15
				}
			}
		},
		{
			"doubleSided":true,
			"name":"CityGenroof.002",
			"normalTexture":{
				"index":16
			},
			"pbrMetallicRoughness":{
				"baseColorTexture":{
					"index":17
				},
				"metallicFactor":0,
				"roughnessFactor":0.5
			}
		},
		{
			"doubleSided":true,
			"name":"CityGen_Curb",
			"normalTexture":{
				"index":18,
				"texCoord":2
			},
			"pbrMetallicRoughness":{
				"baseColorTexture":{
					"index":19
				},
				"metallicFactor":0,
				"metallicRoughnessTexture":{
					"index":20,
					"texCoord":1
				}
			}
		},
		{
			"doubleSided":true,
			"name":"CityGenwhite_marble_tiles",
			"normalTexture":{
				"extensions":{
					"KHR_texture_transform":{
						"offset":[
							0,
							0.8333330005407333
						],
						"scale":[
							0.16666699945926666,
							0.16666699945926666
						]
					}
				},
				"index":21
			},
			"pbrMetallicRoughness":{
				"baseColorTexture":{
					"extensions":{
						"KHR_texture_transform":{
							"offset":[
								0,
								0.8333330005407333
							],
							"scale":[
								0.16666699945926666,
								0.16666699945926666
							]
						}
					},
					"index":22
				},
				"metallicFactor":0,
				"metallicRoughnessTexture":{
					"extensions":{
						"KHR_texture_transform":{
							"offset":[
								0,
								0.8333330005407333
							],
							"scale":[
								0.16666699945926666,
								0.16666699945926666
							]
						}
					},
					"index":23
				}
			}
		},
		{
			"doubleSided":true,
			"name":"CityGenroof.003",
			"normalTexture":{
				"index":24
			},
			"pbrMetallicRoughness":{
				"baseColorTexture":{
					"index":25
				},
				"metallicFactor":0,
				"roughnessFactor":0.5
			}
		},
		{
			"doubleSided":true,
			"name":"firescape",
			"pbrMetallicRoughness":{
				"baseColorFactor":[
					0.3023209869861603,
					0.3023209869861603,
					0.3023209869861603,
					1
				],
				"roughnessFactor":0.49351200461387634
			}
		},
		{
			"doubleSided":true,
			"name":"Material.001",
			"normalTexture":{
				"index":26
			},
			"pbrMetallicRoughness":{
				"baseColorFactor":[
					0.800000011920929,
					0.800000011920929,
					0.800000011920929,
					1
				],
				"roughnessFactor":0.30000001192092896
			}
		},
		{
			"doubleSided":true,
			"name":"CityGenbasic_dark_green",
			"normalTexture":{
				"index":27
			},
			"pbrMetallicRoughness":{
				"baseColorTexture":{
					"index":28
				},
				"metallicFactor":0,
				"metallicRoughnessTexture":{
					"index":29
				}
			}
		}
	],
	"meshes":[
		{
			"name":"Object_35.008",
			"primitives":[
				{
					"attributes":{
						"POSITION":0,
						"NORMAL":1,
						"TEXCOORD_0":2,
						"TEXCOORD_1":3,
						"TEXCOORD_2":4
					},
					"indices":5,
					"material":0
				}
			]
		},
		{
			"name":"Object_35.009",
			"primitives":[
				{
					"attributes":{
						"POSITION":6,
						"NORMAL":7,
						"TEXCOORD_0":8,
						"TEXCOORD_1":9,
						"TEXCOORD_2":10
					},
					"indices":11,
					"material":0
				}
			]
		},
		{
			"name":"Object_35.010",
			"primitives":[
				{
					"attributes":{
						"POSITION":12,
						"NORMAL":13,
						"TEXCOORD_0":14,
						"TEXCOORD_1":15,
						"TEXCOORD_2":16
					},
					"indices":11,
					"material":0
				}
			]
		},
		{
			"name":"Object_35.011",
			"primitives":[
				{
					"attributes":{
						"POSITION":17,
						"NORMAL":18,
						"TEXCOORD_0":19,
						"TEXCOORD_1":20,
						"TEXCOORD_2":21
					},
					"indices":22,
					"material":0
				}
			]
		},
		{
			"name":"Object_36.021",
			"primitives":[
				{
					"attributes":{
						"POSITION":23,
						"NORMAL":24,
						"TEXCOORD_0":25,
						"TEXCOORD_1":26,
						"TEXCOORD_2":27,
						"TEXCOORD_3":28,
						"TEXCOORD_4":29,
						"TEXCOORD_5":30,
						"TEXCOORD_6":31
					},
					"indices":32,
					"material":1
				},
				{
					"attributes":{
						"POSITION":33,
						"NORMAL":34,
						"TEXCOORD_0":35,
						"TEXCOORD_1":36,
						"TEXCOORD_2":37,
						"TEXCOORD_3":38,
						"TEXCOORD_4":39,
						"TEXCOORD_5":40,
						"TEXCOORD_6":41
					},
					"indices":42,
					"material":2
				}
			]
		},
		{
			"name":"Object_36.022",
			"primitives":[
				{
					"attributes":{
						"POSITION":43,
						"NORMAL":44,
						"TEXCOORD_0":45,
						"TEXCOORD_1":46,
						"TEXCOORD_2":47,
						"TEXCOORD_3":48,
						"TEXCOORD_4":49,
						"TEXCOORD_5":50,
						"TEXCOORD_6":51
					},
					"indices":52,
					"material":1
				},
				{
					"attributes":{
						"POSITION":53,
						"NORMAL":54,
						"TEXCOORD_0":55,
						"TEXCOORD_1":56,
						"TEXCOORD_2":57,
						"TEXCOORD_3":58,
						"TEXCOORD_4":59,
						"TEXCOORD_5":60,
						"TEXCOORD_6":61
					},
					"indices":62,
					"material":2
				}
			]
		},
		{
			"name":"Object_36.023",
			"primitives":[
				{
					"attributes":{
						"POSITION":63,
						"NORMAL":64,
						"TEXCOORD_0":65,
						"TEXCOORD_1":66,
						"TEXCOORD_2":67,
						"TEXCOORD_3":68,
						"TEXCOORD_4":69,
						"TEXCOORD_5":70,
						"TEXCOORD_6":71
					},
					"indices":72,
					"material":2
				},
				{
					"attributes":{
						"POSITION":73,
						"NORMAL":74,
						"TEXCOORD_0":75,
						"TEXCOORD_1":76,
						"TEXCOORD_2":77,
						"TEXCOORD_3":78,
						"TEXCOORD_4":79,
						"TEXCOORD_5":80,
						"TEXCOORD_6":81
					},
					"indices":82,
					"material":3
				}
			]
		},
		{
			"name":"Object_39.015",
			"primitives":[
				{
					"attributes":{
						"POSITION":83,
						"NORMAL":84,
						"TEXCOORD_0":85,
						"TEXCOORD_1":86,
						"TEXCOORD_2":87,
						"TEXCOORD_3":88,
						"TEXCOORD_4":89,
						"TEXCOORD_5":90,
						"TEXCOORD_6":91
					},
					"indices":92,
					"material":4
				}
			]
		},
		{
			"name":"Object_39.016",
			"primitives":[
				{
					"attributes":{
						"POSITION":93,
						"NORMAL":94,
						"TEXCOORD_0":95,
						"TEXCOORD_1":96,
						"TEXCOORD_2":97,
						"TEXCOORD_3":98,
						"TEXCOORD_4":99,
						"TEXCOORD_5":100,
						"TEXCOORD_6":101
					},
					"indices":102,
					"material":4
				}
			]
		},
		{
			"name":"Object_39.020",
			"primitives":[
				{
					"attributes":{
						"POSITION":103,
						"NORMAL":104,
						"TEXCOORD_0":105,
						"TEXCOORD_1":106,
						"TEXCOORD_2":107,
						"TEXCOORD_3":108,
						"TEXCOORD_4":109,
						"TEXCOORD_5":110,
						"TEXCOORD_6":111
					},
					"indices":112,
					"material":4
				}
			]
		},
		{
			"name":"Object_41.018",
			"primitives":[
				{
					"attributes":{
						"POSITION":113,
						"NORMAL":114,
						"TEXCOORD_0":115
					},
					"indices":116,
					"material":5
				}
			]
		},
		{
			"name":"Object_43.007",
			"primitives":[
				{
					"attributes":{
						"POSITION":117,
						"NORMAL":118,
						"TEXCOORD_0":119,
						"TEXCOORD_1":120,
						"TEXCOORD_2":121
					},
					"indices":122,
					"material":6
				}
			]
		},
		{
			"name":"Object_45.003",
			"primitives":[
				{
					"attributes":{
						"POSITION":123,
						"NORMAL":124,
						"TEXCOORD_0":125
					},
					"indices":126,
					"material":7
				}
			]
		},
		{
			"name":"Object_45.004",
			"primitives":[
				{
					"attributes":{
						"POSITION":127,
						"NORMAL":128,
						"TEXCOORD_0":129
					},
					"indices":130,
					"material":7
				}
			]
		},
		{
			"name":"Object_45.005",
			"primitives":[
				{
					"attributes":{
						"POSITION":131,
						"NORMAL":132,
						"TEXCOORD_0":133
					},
					"indices":134,
					"material":7
				}
			]
		},
		{
			"name":"Object_45.006",
			"primitives":[
				{
					"attributes":{
						"POSITION":135,
						"NORMAL":136,
						"TEXCOORD_0":137
					},
					"indices":138,
					"material":7
				}
			]
		},
		{
			"name":"Object_49.005",
			"primitives":[
				{
					"attributes":{
						"POSITION":139,
						"NORMAL":140,
						"TEXCOORD_0":141
					},
					"indices":142,
					"material":8
				},
				{
					"attributes":{
						"POSITION":143,
						"NORMAL":144,
						"TEXCOORD_0":145
					},
					"indices":146,
					"material":9
				}
			]
		},
		{
			"name":"Object_56.011",
			"primitives":[
				{
					"attributes":{
						"POSITION":147,
						"NORMAL":148,
						"TEXCOORD_0":149,
						"TEXCOORD_1":150,
						"TEXCOORD_2":151,
						"TEXCOORD_3":152,
						"TEXCOORD_4":153,
						"TEXCOORD_5":154,
						"TEXCOORD_6":155
					},
					"indices":156,
					"material":10
				},
				{
					"attributes":{
						"POSITION":157,
						"NORMAL":158,
						"TEXCOORD_0":159,
						"TEXCOORD_1":160,
						"TEXCOORD_2":161,
						"TEXCOORD_3":162,
						"TEXCOORD_4":163,
						"TEXCOORD_5":164,
						"TEXCOORD_6":165
					},
					"indices":166,
					"material":11
				},
				{
					"attributes":{
						"POSITION":167,
						"NORMAL":168,
						"TEXCOORD_0":169,
						"TEXCOORD_1":170,
						"TEXCOORD_2":171,
						"TEXCOORD_3":172,
						"TEXCOORD_4":173,
						"TEXCOORD_5":174,
						"TEXCOORD_6":175
					},
					"indices":176,
					"material":12
				},
				{
					"attributes":{
						"POSITION":177,
						"NORMAL":178,
						"TEXCOORD_0":179,
						"TEXCOORD_1":180,
						"TEXCOORD_2":181,
						"TEXCOORD_3":182,
						"TEXCOORD_4":183,
						"TEXCOORD_5":184,
						"TEXCOORD_6":185
					},
					"indices":186,
					"material":13
				},
				{
					"attributes":{
						"POSITION":187,
						"NORMAL":188,
						"TEXCOORD_0":189,
						"TEXCOORD_1":190,
						"TEXCOORD_2":191,
						"TEXCOORD_3":192,
						"TEXCOORD_4":193,
						"TEXCOORD_5":194,
						"TEXCOORD_6":195
					},
					"indices":196,
					"material":14
				},
				{
					"attributes":{
						"POSITION":197,
						"NORMAL":198,
						"TEXCOORD_0":199,
						"TEXCOORD_1":200,
						"TEXCOORD_2":201,
						"TEXCOORD_3":202,
						"TEXCOORD_4":203,
						"TEXCOORD_5":204,
						"TEXCOORD_6":205
					},
					"indices":206,
					"material":15
				},
				{
					"attributes":{
						"POSITION":207,
						"NORMAL":208,
						"TEXCOORD_0":209,
						"TEXCOORD_1":210,
						"TEXCOORD_2":211,
						"TEXCOORD_3":212,
						"TEXCOORD_4":213,
						"TEXCOORD_5":214,
						"TEXCOORD_6":215
					},
					"indices":216,
					"material":16
				},
				{
					"attributes":{
						"POSITION":217,
						"NORMAL":218,
						"TEXCOORD_0":219,
						"TEXCOORD_1":220,
						"TEXCOORD_2":221,
						"TEXCOORD_3":222,
						"TEXCOORD_4":223,
						"TEXCOORD_5":224,
						"TEXCOORD_6":225
					},
					"indices":226,
					"material":17
				},
				{
					"attributes":{
						"POSITION":227,
						"NORMAL":228,
						"TEXCOORD_0":229,
						"TEXCOORD_1":230,
						"TEXCOORD_2":231,
						"TEXCOORD_3":232,
						"TEXCOORD_4":233,
						"TEXCOORD_5":234,
						"TEXCOORD_6":235
					},
					"indices":236,
					"material":18
				}
			]
		}
	],
	"textures":[
		{
			"sampler":0,
			"source":0
		},
		{
			"sampler":0,
			"source":1
		},
		{
			"sampler":0,
			"source":2
		},
		{
			"sampler":0,
			"source":3
		},
		{
			"sampler":0,
			"source":4
		},
		{
			"sampler":0,
			"source":5
		},
		{
			"sampler":0,
			"source":6
		},
		{
			"sampler":0,
			"source":7
		},
		{
			"sampler":0,
			"source":8
		},
		{
			"sampler":0,
			"source":9
		},
		{
			"sampler":0,
			"source":10
		},
		{
			"sampler":0,
			"source":11
		},
		{
			"sampler":1,
			"source":12
		},
		{
			"sampler":0,
			"source":13
		},
		{
			"sampler":0,
			"source":14
		},
		{
			"sampler":0,
			"source":15
		},
		{
			"sampler":0,
			"source":16
		},
		{
			"sampler":0,
			"source":17
		},
		{
			"sampler":0,
			"source":18
		},
		{
			"sampler":0,
			"source":19
		},
		{
			"sampler":0,
			"source":20
		},
		{
			"sampler":0,
			"source":21
		},
		{
			"sampler":0,
			"source":22
		},
		{
			"sampler":0,
			"source":23
		},
		{
			"sampler":0,
			"source":24
		},
		{
			"sampler":0,
			"source":25
		},
		{
			"sampler":0,
			"source":26
		},
		{
			"sampler":0,
			"source":27
		},
		{
			"sampler":0,
			"source":28
		},
		{
			"sampler":0,
			"source":29
		}
	],
	"images":[
		{
			"mimeType":"image/jpeg",
			"name":"Image_47",
			"uri":"../textures/Image_47.jpg"
		},
		{
			"mimeType":"image/jpeg",
			"name":"Image_46",
			"uri":"../textures/Image_46.jpg"
		},
		{
			"mimeType":"image/jpeg",
			"name":"Image_48",
			"uri":"../textures/Image_48.jpg"
		},
		{
			"mimeType":"image/jpeg",
			"name":"Image_52",
			"uri":"../textures/Image_52.jpg"
		},
		{
			"mimeType":"image/jpeg",
			"name":"Image_50",
			"uri":"../textures/Image_50.jpg"
		},
		{
			"mimeType":"image/png",
			"name":"Image_51",
			"uri":"../textures/Image_51.png"
		},
		{
			"mimeType":"image/jpeg",
			"name":"Image_53",
			"uri":"../textures/Image_53.jpg"
		},
		{
			"mimeType":"image/jpeg",
			"name":"Image_56",
			"uri":"../textures/Image_56.jpg"
		},
		{
			"mimeType":"image/png",
			"name":"Image_55",
			"uri":"../textures/Image_55.png"
		},
		{
			"mimeType":"image/jpeg",
			"name":"Image_57",
			"uri":"../textures/Image_57.jpg"
		},
		{
			"mimeType":"image/jpeg",
			"name":"Image_62",
			"uri":"../textures/Image_62.jpg"
		},
		{
			"mimeType":"image/png",
			"name":"Image_63",
			"uri":"../textures/Image_63.png"
		},
		{
			"mimeType":"image/jpeg",
			"name":"Image_37",
			"uri":"../textures/Image_37.jpg"
		},
		{
			"mimeType":"image/png",
			"name":"Image_38",
			"uri":"../textures/Image_38.png"
		},
		{
			"mimeType":"image/jpeg",
			"name":"Image_42",
			"uri":"../textures/Image_42.jpg"
		},
		{
			"mimeType":"image/png",
			"name":"Image_41",
			"uri":"../textures/Image_41.png"
		},
		{
			"mimeType":"image/jpeg",
			"name":"Image_33",
			"uri":"../textures/Image_33.jpg"
		},
		{
			"mimeType":"image/jpeg",
			"name":"Image_32",
			"uri":"../textures/Image_32.jpg"
		},
		{
			"mimeType":"image/jpeg",
			"name":"Image_11",
			"uri":"../textures/Image_11.jpg"
		},
		{
			"mimeType":"image/jpeg",
			"name":"Image_9",
			"uri":"../textures/Image_9.jpg"
		},
		{
			"mimeType":"image/png",
			"name":"Image_10",
			"uri":"../textures/Image_10.png"
		},
		{
			"mimeType":"image/jpeg",
			"name":"Image_45",
			"uri":"../textures/Image_45.jpg"
		},
		{
			"mimeType":"image/jpeg",
			"name":"Image_43",
			"uri":"../textures/Image_43.jpg"
		},
		{
			"mimeType":"image/png",
			"name":"Image_44",
			"uri":"../textures/Image_44.png"
		},
		{
			"mimeType":"image/jpeg",
			"name":"Image_35",
			"uri":"../textures/Image_35.jpg"
		},
		{
			"mimeType":"image/jpeg",
			"name":"Image_34",
			"uri":"../textures/Image_34.jpg"
		},
		{
			"mimeType":"image/jpeg",
			"name":"Image_36",
			"uri":"../textures/Image_36.jpg"
		},
		{
			"mimeType":"image/jpeg",
			"name":"Image_2",
			"uri":"../textures/Image_2.jpg"
		},
		{
			"mimeType":"image/jpeg",
			"name":"Image_0",
			"uri":"../textures/Image_0.jpg"
		},
		{
			"mimeType":"image/png",
			"name":"Image_1",
			"uri":"../textures/Image_1.png"
		}
	],
	"accessors":[
		{
			"bufferView":0,
			"componentType":5126,
			"count":24,
			"max":[
				0.6085968017578125,
				0.8768272399902344,
				0.8769855499267578
			],
			"min":[
				-0.6085968017578125,
				-0.8768272399902344,
				-0.8769855499267578
			],
			"type":"VEC3"
		},
		{
			"bufferView":1,
			"componentType":5126,
			"count":24,
			"type":"VEC3"
		},
		{
			"bufferView":2,
			"componentType":5126,
			"count":24,
			"type":"VEC2"
		},
		{
			"bufferView":3,
			"componentType":5126,
			"count":24,
			"type":"VEC2"
		},
		{
			"bufferView":4,
			"componentType":5126,
			"count":24,
			"type":"VEC2"
		},
		{
			"bufferView":5,
			"componentType":5123,
			"count":36,
			"type":"SCALAR"
		},
		{
			"bufferView":6,
			"componentType":5126,
			"count":24,
			"max":[
				0.7031440734863281,
				1.013427734375,
				1.013427734375
			],
			"min":[
				-0.7031440734863281,
				-1.013427734375,
				-1.013427734375
			],
			"type":"VEC3"
		},
		{
			"bufferView":7,
			"componentType":5126,
			"count":24,
			"type":"VEC3"
		},
		{
			"bufferView":8,
			"componentType":5126,
			"count":24,
			"type":"VEC2"
		},
		{
			"bufferView":9,
			"componentType":5126,
			"count":24,
			"type":"VEC2"
		},
		{
			"bufferView":10,
			"componentType":5126,
			"count":24,
			"type":"VEC2"
		},
		{
			"bufferView":11,
			"componentType":5123,
			"count":36,
			"type":"SCALAR"
		},
		{
			"bufferView":12,
			"componentType":5126,
			"count":24,
			"max":[
				0.40167236328125,
				0.5789146423339844,
				0.5789146423339844
			],
			"min":[
				-0.40167236328125,
				-0.5789146423339844,
				-0.5789146423339844
			],
			"type":"VEC3"
		},
		{
			"bufferView":13,
			"componentType":5126,
			"count":24,
			"type":"VEC3"
		},
		{
			"bufferView":14,
			"componentType":5126,
			"count":24,
			"type":"VEC2"
		},
		{
			"bufferView":15,
			"componentType":5126,
			"count":24,
			"type":"VEC2"
		},
		{
			"bufferView":16,
			"componentType":5126,
			"count":24,
			"type":"VEC2"
		},
		{
			"bufferView":17,
			"componentType":5126,
			"count":24,
			"max":[
				0.8053512573242188,
				1.1280250549316406,
				1.143646240234375
			],
			"min":[
				-0.8053512573242188,
				-1.1280250549316406,
				-1.143646240234375
			],
			"type":"VEC3"
		},
		{
			"bufferView":18,
			"componentType":5126,
			"count":24,
			"type":"VEC3"
		},
		{
			"bufferView":19,
			"componentType":5126,
			"count":24,
			"type":"VEC2"
		},
		{
			"bufferView":20,
			"componentType":5126,
			"count":24,
			"type":"VEC2"
		},
		{
			"bufferView":21,
			"componentType":5126,
			"count":24,
			"type":"VEC2"
		},
		{
			"bufferView":22,
			"componentType":5123,
			"count":36,
			"type":"SCALAR"
		},
		{
			"bufferView":23,
			"componentType":5126,
			"count":339,
			"max":[
				1.489410400390625,
				0.38930562138557434,
				0.7029647827148438
			],
			"min":[
				-1.489410400390625,
				-0.20189234614372253,
				-0.7029647827148438
			],
			"type":"VEC3"
		},
		{
			"bufferView":24,
			"componentType":5126,
			"count":339,
			"type":"VEC3"
		},
		{
			"bufferView":25,
			"componentType":5126,
			"count":339,
			"type":"VEC2"
		},
		{
			"bufferView":26,
			"componentType":5126,
			"count":339,
			"type":"VEC2"
		},
		{
			"bufferView":27,
			"componentType":5126,
			"count":339,
			"type":"VEC2"
		},
		{
			"bufferView":28,
			"componentType":5126,
			"count":339,
			"type":"VEC2"
		},
		{
			"bufferView":29,
			"componentType":5126,
			"count":339,
			"type":"VEC2"
		},
		{
			"bufferView":30,
			"componentType":5126,
			"count":339,
			"type":"VEC2"
		},
		{
			"bufferView":31,
			"componentType":5126,
			"count":339,
			"type":"VEC2"
		},
		{
			"bufferView":32,
			"componentType":5123,
			"count":708,
			"type":"SCALAR"
		},
		{
			"bufferView":33,
			"componentType":5126,
			"count":40,
			"max":[
				1.3807830810546875,
				0.35459187626838684,
				0.5943393707275391
			],
			"min":[
				-1.3807830810546875,
				0.07439853996038437,
				-0.5943393707275391
			],
			"type":"VEC3"
		},
		{
			"bufferView":34,
			"componentType":5126,
			"count":40,
			"type":"VEC3"
		},
		{
			"bufferView":35,
			"componentType":5126,
			"count":40,
			"type":"VEC2"
		},
		{
			"bufferView":36,
			"componentType":5126,
			"count":40,
			"type":"VEC2"
		},
		{
			"bufferView":37,
			"componentType":5126,
			"count":40,
			"type":"VEC2"
		},
		{
			"bufferView":38,
			"componentType":5126,
			"count":40,
			"type":"VEC2"
		},
		{
			"bufferView":39,
			"componentType":5126,
			"count":40,
			"type":"VEC2"
		},
		{
			"bufferView":40,
			"componentType":5126,
			"count":40,
			"type":"VEC2"
		},
		{
			"bufferView":41,
			"componentType":5126,
			"count":40,
			"type":"VEC2"
		},
		{
			"bufferView":42,
			"componentType":5123,
			"count":60,
			"type":"SCALAR"
		},
		{
			"bufferView":43,
			"componentType":5126,
			"count":416,
			"max":[
				1.8156356811523438,
				0.47017335891723633,
				0.88525390625
			],
			"min":[
				-1.8156356811523438,
				-0.24383115768432617,
				-0.88525390625
			],
			"type":"VEC3"
		},
		{
			"bufferView":44,
			"componentType":5126,
			"count":416,
			"type":"VEC3"
		},
		{
			"bufferView":45,
			"componentType":5126,
			"count":416,
			"type":"VEC2"
		},
		{
			"bufferView":46,
			"componentType":5126,
			"count":416,
			"type":"VEC2"
		},
		{
			"bufferView":47,
			"componentType":5126,
			"count":416,
			"type":"VEC2"
		},
		{
			"bufferView":48,
			"componentType":5126,
			"count":416,
			"type":"VEC2"
		},
		{
			"bufferView":49,
			"componentType":5126,
			"count":416,
			"type":"VEC2"
		},
		{
			"bufferView":50,
			"componentType":5126,
			"count":416,
			"type":"VEC2"
		},
		{
			"bufferView":51,
			"componentType":5126,
			"count":416,
			"type":"VEC2"
		},
		{
			"bufferView":52,
			"componentType":5123,
			"count":708,
			"type":"SCALAR"
		},
		{
			"bufferView":53,
			"componentType":5126,
			"count":40,
			"max":[
				1.680633544921875,
				0.4282498359680176,
				0.7502517700195312
			],
			"min":[
				-1.680633544921875,
				0.08985185623168945,
				-0.7502517700195312
			],
			"type":"VEC3"
		},
		{
			"bufferView":54,
			"componentType":5126,
			"count":40,
			"type":"VEC3"
		},
		{
			"bufferView":55,
			"componentType":5126,
			"count":40,
			"type":"VEC2"
		},
		{
			"bufferView":56,
			"componentType":5126,
			"count":40,
			"type":"VEC2"
		},
		{
			"bufferView":57,
			"componentType":5126,
			"count":40,
			"type":"VEC2"
		},
		{
			"bufferView":58,
			"componentType":5126,
			"count":40,
			"type":"VEC2"
		},
		{
			"bufferView":59,
			"componentType":5126,
			"count":40,
			"type":"VEC2"
		},
		{
			"bufferView":60,
			"componentType":5126,
			"count":40,
			"type":"VEC2"
		},
		{
			"bufferView":61,
			"componentType":5126,
			"count":40,
			"type":"VEC2"
		},
		{
			"bufferView":62,
			"componentType":5123,
			"count":60,
			"type":"SCALAR"
		},
		{
			"bufferView":63,
			"componentType":5126,
			"count":48,
			"max":[
				0.5485785007476807,
				0.1581553816795349,
				0.9357867240905762
			],
			"min":[
				-0.38091060519218445,
				-0.10614210367202759,
				-0.935783863067627
			],
			"type":"VEC3"
		},
		{
			"bufferView":64,
			"componentType":5126,
			"count":48,
			"type":"VEC3"
		},
		{
			"bufferView":65,
			"componentType":5126,
			"count":48,
			"type":"VEC2"
		},
		{
			"bufferView":66,
			"componentType":5126,
			"count":48,
			"type":"VEC2"
		},
		{
			"bufferView":67,
			"componentType":5126,
			"count":48,
			"type":"VEC2"
		},
		{
			"bufferView":68,
			"componentType":5126,
			"count":48,
			"type":"VEC2"
		},
		{
			"bufferView":69,
			"componentType":5126,
			"count":48,
			"type":"VEC2"
		},
		{
			"bufferView":70,
			"componentType":5126,
			"count":48,
			"type":"VEC2"
		},
		{
			"bufferView":71,
			"componentType":5126,
			"count":48,
			"type":"VEC2"
		},
		{
			"bufferView":72,
			"componentType":5123,
			"count":72,
			"type":"SCALAR"
		},
		{
			"bufferView":73,
			"componentType":5126,
			"count":499,
			"max":[
				0.5673468112945557,
				0.18102067708969116,
				0.965512752532959
			],
			"min":[
				-0.39816829562187195,
				-0.20191389322280884,
				-0.9655098915100098
			],
			"type":"VEC3"
		},
		{
			"bufferView":74,
			"componentType":5126,
			"count":499,
			"type":"VEC3"
		},
		{
			"bufferView":75,
			"componentType":5126,
			"count":499,
			"type":"VEC2"
		},
		{
			"bufferView":76,
			"componentType":5126,
			"count":499,
			"type":"VEC2"
		},
		{
			"bufferView":77,
			"componentType":5126,
			"count":499,
			"type":"VEC2"
		},
		{
			"bufferView":78,
			"componentType":5126,
			"count":499,
			"type":"VEC2"
		},
		{
			"bufferView":79,
			"componentType":5126,
			"count":499,
			"type":"VEC2"
		},
		{
			"bufferView":80,
			"componentType":5126,
			"count":499,
			"type":"VEC2"
		},
		{
			"bufferView":81,
			"componentType":5126,
			"count":499,
			"type":"VEC2"
		},
		{
			"bufferView":82,
			"componentType":5123,
			"count":858,
			"type":"SCALAR"
		},
		{
			"bufferView":83,
			"componentType":5126,
			"count":479,
			"max":[
				0.4068295359611511,
				0.3606862723827362,
				1.858231782913208
			],
			"min":[
				-0.4048007130622864,
				-0.40544989705085754,
				-1.8595530986785889
			],
			"type":"VEC3"
		},
		{
			"bufferView":84,
			"componentType":5126,
			"count":479,
			"type":"VEC3"
		},
		{
			"bufferView":85,
			"componentType":5126,
			"count":479,
			"type":"VEC2"
		},
		{
			"bufferView":86,
			"componentType":5126,
			"count":479,
			"type":"VEC2"
		},
		{
			"bufferView":87,
			"componentType":5126,
			"count":479,
			"type":"VEC2"
		},
		{
			"bufferView":88,
			"componentType":5126,
			"count":479,
			"type":"VEC2"
		},
		{
			"bufferView":89,
			"componentType":5126,
			"count":479,
			"type":"VEC2"
		},
		{
			"bufferView":90,
			"componentType":5126,
			"count":479,
			"type":"VEC2"
		},
		{
			"bufferView":91,
			"componentType":5126,
			"count":479,
			"type":"VEC2"
		},
		{
			"bufferView":92,
			"componentType":5123,
			"count":717,
			"type":"SCALAR"
		},
		{
			"bufferView":93,
			"componentType":5126,
			"count":384,
			"max":[
				0.2200714349746704,
				0.17827504873275757,
				0.9258327484130859
			],
			"min":[
				-0.2123779058456421,
				-0.20233255624771118,
				-0.9272403717041016
			],
			"type":"VEC3"
		},
		{
			"bufferView":94,
			"componentType":5126,
			"count":384,
			"type":"VEC3"
		},
		{
			"bufferView":95,
			"componentType":5126,
			"count":384,
			"type":"VEC2"
		},
		{
			"bufferView":96,
			"componentType":5126,
			"count":384,
			"type":"VEC2"
		},
		{
			"bufferView":97,
			"componentType":5126,
			"count":384,
			"type":"VEC2"
		},
		{
			"bufferView":98,
			"componentType":5126,
			"count":384,
			"type":"VEC2"
		},
		{
			"bufferView":99,
			"componentType":5126,
			"count":384,
			"type":"VEC2"
		},
		{
			"bufferView":100,
			"componentType":5126,
			"count":384,
			"type":"VEC2"
		},
		{
			"bufferView":101,
			"componentType":5126,
			"count":384,
			"type":"VEC2"
		},
		{
			"bufferView":102,
			"componentType":5123,
			"count":612,
			"type":"SCALAR"
		},
		{
			"bufferView":103,
			"componentType":5126,
			"count":588,
			"max":[
				2.0805325508117676,
				0.40359416604042053,
				0.45240020751953125
			],
			"min":[
				-2.0791659355163574,
				-0.45364460349082947,
				-0.45494842529296875
			],
			"type":"VEC3"
		},
		{
			"bufferView":104,
			"componentType":5126,
			"count":588,
			"type":"VEC3"
		},
		{
			"bufferView":105,
			"componentType":5126,
			"count":588,
			"type":"VEC2"
		},
		{
			"bufferView":106,
			"componentType":5126,
			"count":588,
			"type":"VEC2"
		},
		{
			"bufferView":107,
			"componentType":5126,
			"count":588,
			"type":"VEC2"
		},
		{
			"bufferView":108,
			"componentType":5126,
			"count":588,
			"type":"VEC2"
		},
		{
			"bufferView":109,
			"componentType":5126,
			"count":588,
			"type":"VEC2"
		},
		{
			"bufferView":110,
			"componentType":5126,
			"count":588,
			"type":"VEC2"
		},
		{
			"bufferView":111,
			"componentType":5126,
			"count":588,
			"type":"VEC2"
		},
		{
			"bufferView":112,
			"componentType":5123,
			"count":828,
			"type":"SCALAR"
		},
		{
			"bufferView":113,
			"componentType":5126,
			"count":200,
			"max":[
				0.55537348985672,
				0.37260615825653076,
				0.3411363363265991
			],
			"min":[
				-0.38443058729171753,
				-0.233617901802063,
				-0.3485056161880493
			],
			"type":"VEC3"
		},
		{
			"bufferView":114,
			"componentType":5126,
			"count":200,
			"type":"VEC3"
		},
		{
			"bufferView":115,
			"componentType":5126,
			"count":200,
			"type":"VEC2"
		},
		{
			"bufferView":116,
			"componentType":5123,
			"count":300,
			"type":"SCALAR"
		},
		{
			"bufferView":117,
			"componentType":5126,
			"count":511,
			"max":[
				0.6994089484214783,
				2.9643001556396484,
				0.8037939071655273
			],
			"min":[
				-0.6602025628089905,
				-2.8434505462646484,
				-0.8165102005004883
			],
			"type":"VEC3"
		},
		{
			"bufferView":118,
			"componentType":5126,
			"count":511,
			"type":"VEC3"
		},
		{
			"bufferView":119,
			"componentType":5126,
			"count":511,
			"type":"VEC2"
		},
		{
			"bufferView":120,
			"componentType":5126,
			"count":511,
			"type":"VEC2"
		},
		{
			"bufferView":121,
			"componentType":5126,
			"count":511,
			"type":"VEC2"
		},
		{
			"bufferView":122,
			"componentType":5123,
			"count":531,
			"type":"SCALAR"
		},
		{
			"bufferView":123,
			"componentType":5126,
			"count":86,
			"max":[
				0.278656005859375,
				0.022043533623218536,
				0.3583984375
			],
			"min":[
				-0.278656005859375,
				-0.05414741858839989,
				-0.3583984375
			],
			"type":"VEC3"
		},
		{
			"bufferView":124,
			"componentType":5126,
			"count":86,
			"type":"VEC3"
		},
		{
			"bufferView":125,
			"componentType":5126,
			"count":86,
			"type":"VEC2"
		},
		{
			"bufferView":126,
			"componentType":5123,
			"count":150,
			"type":"SCALAR"
		},
		{
			"bufferView":127,
			"componentType":5126,
			"count":64,
			"max":[
				0.28543218970298767,
				0.015578428283333778,
				0.22155103087425232
			],
			"min":[
				-0.28503289818763733,
				-0.04506000131368637,
				-0.22198382019996643
			],
			"type":"VEC3"
		},
		{
			"bufferView":128,
			"componentType":5126,
			"count":64,
			"type":"VEC3"
		},
		{
			"bufferView":129,
			"componentType":5126,
			"count":64,
			"type":"VEC2"
		},
		{
			"bufferView":130,
			"componentType":5123,
			"count":102,
			"type":"SCALAR"
		},
		{
			"bufferView":131,
			"componentType":5126,
			"count":84,
			"max":[
				0.3118826746940613,
				0.024670517072081566,
				0.40113821625709534
			],
			"min":[
				-0.3118813633918762,
				-0.06060322746634483,
				-0.40113839507102966
			],
			"type":"VEC3"
		},
		{
			"bufferView":132,
			"componentType":5126,
			"count":84,
			"type":"VEC3"
		},
		{
			"bufferView":133,
			"componentType":5126,
			"count":84,
			"type":"VEC2"
		},
		{
			"bufferView":134,
			"componentType":5123,
			"count":150,
			"type":"SCALAR"
		},
		{
			"bufferView":135,
			"componentType":5126,
			"count":90,
			"max":[
				0.2885284423828125,
				0.022824274376034737,
				0.3711090087890625
			],
			"min":[
				-0.2885284423828125,
				-0.05606748163700104,
				-0.3711090087890625
			],
			"type":"VEC3"
		},
		{
			"bufferView":136,
			"componentType":5126,
			"count":90,
			"type":"VEC3"
		},
		{
			"bufferView":137,
			"componentType":5126,
			"count":90,
			"type":"VEC2"
		},
		{
			"bufferView":138,
			"componentType":5123,
			"count":150,
			"type":"SCALAR"
		},
		{
			"bufferView":139,
			"componentType":5126,
			"count":204,
			"max":[
				1.2945785522460938,
				5.337296009063721,
				1.2602663040161133
			],
			"min":[
				-1.2938919067382812,
				1.396049976348877,
				-1.2608060836791992
			],
			"type":"VEC3"
		},
		{
			"bufferView":140,
			"componentType":5126,
			"count":204,
			"type":"VEC3"
		},
		{
			"bufferView":141,
			"componentType":5126,
			"count":204,
			"type":"VEC2"
		},
		{
			"bufferView":142,
			"componentType":5123,
			"count":492,
			"type":"SCALAR"
		},
		{
			"bufferView":143,
			"componentType":5126,
			"count":98,
			"max":[
				2.0188064575195312,
				1.390404224395752,
				2.018185615539551
			],
			"min":[
				-2.0181198120117188,
				-4.0851664543151855,
				-2.0187253952026367
			],
			"type":"VEC3"
		},
		{
			"bufferView":144,
			"componentType":5126,
			"count":98,
			"type":"VEC3"
		},
		{
			"bufferView":145,
			"componentType":5126,
			"count":98,
			"type":"VEC2"
		},
		{
			"bufferView":146,
			"componentType":5123,
			"count":120,
			"type":"SCALAR"
		},
		{
			"bufferView":147,
			"componentType":5126,
			"count":2936,
			"max":[
				22.706409454345703,
				32.13629913330078,
				15.24928092956543
			],
			"min":[
				-17.501041412353516,
				-30.864990234375,
				-14.57844352722168
			],
			"type":"VEC3"
		},
		{
			"bufferView":148,
			"componentType":5126,
			"count":2936,
			"type":"VEC3"
		},
		{
			"bufferView":149,
			"componentType":5126,
			"count":2936,
			"type":"VEC2"
		},
		{
			"bufferView":150,
			"componentType":5126,
			"count":2936,
			"type":"VEC2"
		},
		{
			"bufferView":151,
			"componentType":5126,
			"count":2936,
			"type":"VEC2"
		},
		{
			"bufferView":152,
			"componentType":5126,
			"count":2936,
			"type":"VEC2"
		},
		{
			"bufferView":153,
			"componentType":5126,
			"count":2936,
			"type":"VEC2"
		},
		{
			"bufferView":154,
			"componentType":5126,
			"count":2936,
			"type":"VEC2"
		},
		{
			"bufferView":155,
			"componentType":5126,
			"count":2936,
			"type":"VEC2"
		},
		{
			"bufferView":156,
			"componentType":5123,
			"count":4464,
			"type":"SCALAR"
		},
		{
			"bufferView":157,
			"componentType":5126,
			"count":472,
			"max":[
				22.84836196899414,
				14.708413124084473,
				0.7167430520057678
			],
			"min":[
				11.929944038391113,
				14.130749702453613,
				-14.712728500366211
			],
			"type":"VEC3"
		},
		{
			"bufferView":158,
			"componentType":5126,
			"count":472,
			"type":"VEC3"
		},
		{
			"bufferView":159,
			"componentType":5126,
			"count":472,
			"type":"VEC2"
		},
		{
			"bufferView":160,
			"componentType":5126,
			"count":472,
			"type":"VEC2"
		},
		{
			"bufferView":161,
			"componentType":5126,
			"count":472,
			"type":"VEC2"
		},
		{
			"bufferView":162,
			"componentType":5126,
			"count":472,
			"type":"VEC2"
		},
		{
			"bufferView":163,
			"componentType":5126,
			"count":472,
			"type":"VEC2"
		},
		{
			"bufferView":164,
			"componentType":5126,
			"count":472,
			"type":"VEC2"
		},
		{
			"bufferView":165,
			"componentType":5126,
			"count":472,
			"type":"VEC2"
		},
		{
			"bufferView":166,
			"componentType":5123,
			"count":732,
			"type":"SCALAR"
		},
		{
			"bufferView":167,
			"componentType":5126,
			"count":8,
			"max":[
				22.706401824951172,
				32.13629913330078,
				15.24928092956543
			],
			"min":[
				-17.501041412353516,
				14.130589485168457,
				-14.570779800415039
			],
			"type":"VEC3"
		},
		{
			"bufferView":168,
			"componentType":5126,
			"count":8,
			"type":"VEC3"
		},
		{
			"bufferView":169,
			"componentType":5126,
			"count":8,
			"type":"VEC2"
		},
		{
			"bufferView":170,
			"componentType":5126,
			"count":8,
			"type":"VEC2"
		},
		{
			"bufferView":171,
			"componentType":5126,
			"count":8,
			"type":"VEC2"
		},
		{
			"bufferView":172,
			"componentType":5126,
			"count":8,
			"type":"VEC2"
		},
		{
			"bufferView":173,
			"componentType":5126,
			"count":8,
			"type":"VEC2"
		},
		{
			"bufferView":174,
			"componentType":5126,
			"count":8,
			"type":"VEC2"
		},
		{
			"bufferView":175,
			"componentType":5126,
			"count":8,
			"type":"VEC2"
		},
		{
			"bufferView":176,
			"componentType":5123,
			"count":12,
			"type":"SCALAR"
		},
		{
			"bufferView":177,
			"componentType":5126,
			"count":604,
			"max":[
				12.0698823928833,
				33.14683532714844,
				15.24928092956543
			],
			"min":[
				-17.50528335571289,
				32.13589096069336,
				0.57626873254776
			],
			"type":"VEC3"
		},
		{
			"bufferView":178,
			"componentType":5126,
			"count":604,
			"type":"VEC3"
		},
		{
			"bufferView":179,
			"componentType":5126,
			"count":604,
			"type":"VEC2"
		},
		{
			"bufferView":180,
			"componentType":5126,
			"count":604,
			"type":"VEC2"
		},
		{
			"bufferView":181,
			"componentType":5126,
			"count":604,
			"type":"VEC2"
		},
		{
			"bufferView":182,
			"componentType":5126,
			"count":604,
			"type":"VEC2"
		},
		{
			"bufferView":183,
			"componentType":5126,
			"count":604,
			"type":"VEC2"
		},
		{
			"bufferView":184,
			"componentType":5126,
			"count":604,
			"type":"VEC2"
		},
		{
			"bufferView":185,
			"componentType":5126,
			"count":604,
			"type":"VEC2"
		},
		{
			"bufferView":186,
			"componentType":5123,
			"count":804,
			"type":"SCALAR"
		},
		{
			"bufferView":187,
			"componentType":5126,
			"count":507,
			"max":[
				12.356389045715332,
				24.14664649963379,
				0.8613048195838928
			],
			"min":[
				-17.787555694580078,
				23.135866165161133,
				-14.864952087402344
			],
			"type":"VEC3"
		},
		{
			"bufferView":188,
			"componentType":5126,
			"count":507,
			"type":"VEC3"
		},
		{
			"bufferView":189,
			"componentType":5126,
			"count":507,
			"type":"VEC2"
		},
		{
			"bufferView":190,
			"componentType":5126,
			"count":507,
			"type":"VEC2"
		},
		{
			"bufferView":191,
			"componentType":5126,
			"count":507,
			"type":"VEC2"
		},
		{
			"bufferView":192,
			"componentType":5126,
			"count":507,
			"type":"VEC2"
		},
		{
			"bufferView":193,
			"componentType":5126,
			"count":507,
			"type":"VEC2"
		},
		{
			"bufferView":194,
			"componentType":5126,
			"count":507,
			"type":"VEC2"
		},
		{
			"bufferView":195,
			"componentType":5126,
			"count":507,
			"type":"VEC2"
		},
		{
			"bufferView":196,
			"componentType":5123,
			"count":864,
			"type":"SCALAR"
		},
		{
			"bufferView":197,
			"componentType":5126,
			"count":4,
			"max":[
				12.0698823928833,
				23.13606071472168,
				0.5647903084754944
			],
			"min":[
				-17.501041412353516,
				23.135866165161133,
				-14.570783615112305
			],
			"type":"VEC3"
		},
		{
			"bufferView":198,
			"componentType":5126,
			"count":4,
			"type":"VEC3"
		},
		{
			"bufferView":199,
			"componentType":5126,
			"count":4,
			"type":"VEC2"
		},
		{
			"bufferView":200,
			"componentType":5126,
			"count":4,
			"type":"VEC2"
		},
		{
			"bufferView":201,
			"componentType":5126,
			"count":4,
			"type":"VEC2"
		},
		{
			"bufferView":202,
			"componentType":5126,
			"count":4,
			"type":"VEC2"
		},
		{
			"bufferView":203,
			"componentType":5126,
			"count":4,
			"type":"VEC2"
		},
		{
			"bufferView":204,
			"componentType":5126,
			"count":4,
			"type":"VEC2"
		},
		{
			"bufferView":205,
			"componentType":5126,
			"count":4,
			"type":"VEC2"
		},
		{
			"bufferView":206,
			"componentType":5123,
			"count":6,
			"type":"SCALAR"
		},
		{
			"bufferView":207,
			"componentType":5126,
			"count":22851,
			"max":[
				13.520237922668457,
				32.28768539428711,
				16.690128326416016
			],
			"min":[
				-18.95138931274414,
				-25.160310745239258,
				-16.026994705200195
			],
			"type":"VEC3"
		},
		{
			"bufferView":208,
			"componentType":5126,
			"count":22851,
			"type":"VEC3"
		},
		{
			"bufferView":209,
			"componentType":5126,
			"count":22851,
			"type":"VEC2"
		},
		{
			"bufferView":210,
			"componentType":5126,
			"count":22851,
			"type":"VEC2"
		},
		{
			"bufferView":211,
			"componentType":5126,
			"count":22851,
			"type":"VEC2"
		},
		{
			"bufferView":212,
			"componentType":5126,
			"count":22851,
			"type":"VEC2"
		},
		{
			"bufferView":213,
			"componentType":5126,
			"count":22851,
			"type":"VEC2"
		},
		{
			"bufferView":214,
			"componentType":5126,
			"count":22851,
			"type":"VEC2"
		},
		{
			"bufferView":215,
			"componentType":5126,
			"count":22851,
			"type":"VEC2"
		},
		{
			"bufferView":216,
			"componentType":5123,
			"count":35388,
			"type":"SCALAR"
		},
		{
			"bufferView":217,
			"componentType":5126,
			"count":280,
			"max":[
				22.706401824951172,
				-27.005142211914062,
				17.470138549804688
			],
			"min":[
				-17.503299713134766,
				-30.870668411254883,
				-16.799118041992188
			],
			"type":"VEC3"
		},
		{
			"bufferView":218,
			"componentType":5126,
			"count":280,
			"type":"VEC3"
		},
		{
			"bufferView":219,
			"componentType":5126,
			"count":280,
			"type":"VEC2"
		},
		{
			"bufferView":220,
			"componentType":5126,
			"count":280,
			"type":"VEC2"
		},
		{
			"bufferView":221,
			"componentType":5126,
			"count":280,
			"type":"VEC2"
		},
		{
			"bufferView":222,
			"componentType":5126,
			"count":280,
			"type":"VEC2"
		},
		{
			"bufferView":223,
			"componentType":5126,
			"count":280,
			"type":"VEC2"
		},
		{
			"bufferView":224,
			"componentType":5126,
			"count":280,
			"type":"VEC2"
		},
		{
			"bufferView":225,
			"componentType":5126,
			"count":280,
			"type":"VEC2"
		},
		{
			"bufferView":226,
			"componentType":5123,
			"count":420,
			"type":"SCALAR"
		},
		{
			"bufferView":227,
			"componentType":5126,
			"count":704,
			"max":[
				22.706401824951172,
				-26.529882431030273,
				17.470138549804688
			],
			"min":[
				-17.503299713134766,
				-27.005142211914062,
				-16.799118041992188
			],
			"type":"VEC3"
		},
		{
			"bufferView":228,
			"componentType":5126,
			"count":704,
			"type":"VEC3"
		},
		{
			"bufferView":229,
			"componentType":5126,
			"count":704,
			"type":"VEC2"
		},
		{
			"bufferView":230,
			"componentType":5126,
			"count":704,
			"type":"VEC2"
		},
		{
			"bufferView":231,
			"componentType":5126,
			"count":704,
			"type":"VEC2"
		},
		{
			"bufferView":232,
			"componentType":5126,
			"count":704,
			"type":"VEC2"
		},
		{
			"bufferView":233,
			"componentType":5126,
			"count":704,
			"type":"VEC2"
		},
		{
			"bufferView":234,
			"componentType":5126,
			"count":704,
			"type":"VEC2"
		},
		{
			"bufferView":235,
			"componentType":5126,
			"count":704,
			"type":"VEC2"
		},
		{
			"bufferView":236,
			"componentType":5123,
			"count":1050,
			"type":"SCALAR"
		}
	],
	"bufferViews":[
		{
			"buffer":0,
			"byteLength":288,
			"byteOffset":0,
			"target":34962
		},
		{
			"buffer":0,
			"byteLength":288,
			"byteOffset":288,
			"target":34962
		},
		{
			"buffer":0,
			"byteLength":192,
			"byteOffset":576,
			"target":34962
		},
		{
			"buffer":0,
			"byteLength":192,
			"byteOffset":768,
			"target":34962
		},
		{
			"buffer":0,
			"byteLength":192,
			"byteOffset":960,
			"target":34962
		},
		{
			"buffer":0,
			"byteLength":72,
			"byteOffset":1152,
			"target":34963
		},
		{
			"buffer":0,
			"byteLength":288,
			"byteOffset":1224,
			"target":34962
		},
		{
			"buffer":0,
			"byteLength":288,
			"byteOffset":1512,
			"target":34962
		},
		{
			"buffer":0,
			"byteLength":192,
			"byteOffset":1800,
			"target":34962
		},
		{
			"buffer":0,
			"byteLength":192,
			"byteOffset":1992,
			"target":34962
		},
		{
			"buffer":0,
			"byteLength":192,
			"byteOffset":2184,
			"target":34962
		},
		{
			"buffer":0,
			"byteLength":72,
			"byteOffset":2376,
			"target":34963
		},
		{
			"buffer":0,
			"byteLength":288,
			"byteOffset":2448,
			"target":34962
		},
		{
			"buffer":0,
			"byteLength":288,
			"byteOffset":2736,
			"target":34962
		},
		{
			"buffer":0,
			"byteLength":192,
			"byteOffset":3024,
			"target":34962
		},
		{
			"buffer":0,
			"byteLength":192,
			"byteOffset":3216,
			"target":34962
		},
		{
			"buffer":0,
			"byteLength":192,
			"byteOffset":3408,
			"target":34962
		},
		{
			"buffer":0,
			"byteLength":288,
			"byteOffset":3600,
			"target":34962
		},
		{
			"buffer":0,
			"byteLength":288,
			"byteOffset":3888,
			"target":34962
		},
		{
			"buffer":0,
			"byteLength":192,
			"byteOffset":4176,
			"target":34962
		},
		{
			"buffer":0,
			"byteLength":192,
			"byteOffset":4368,
			"target":34962
		},
		{
			"buffer":0,
			"byteLength":192,
			"byteOffset":4560,
			"target":34962
		},
		{
			"buffer":0,
			"byteLength":72,
			"byteOffset":4752,
			"target":34963
		},
		{
			"buffer":0,
			"byteLength":4068,
			"byteOffset":4824,
			"target":34962
		},
		{
			"buffer":0,
			"byteLength":4068,
			"byteOffset":8892,
			"target":34962
		},
		{
			"buffer":0,
			"byteLength":2712,
			"byteOffset":12960,
			"target":34962
		},
		{
			"buffer":0,
			"byteLength":2712,
			"byteOffset":15672,
			"target":34962
		},
		{
			"buffer":0,
			"byteLength":2712,
			"byteOffset":18384,
			"target":34962
		},
		{
			"buffer":0,
			"byteLength":2712,
			"byteOffset":21096,
			"target":34962
		},
		{
			"buffer":0,
			"byteLength":2712,
			"byteOffset":23808,
			"target":34962
		},
		{
			"buffer":0,
			"byteLength":2712,
			"byteOffset":26520,
			"target":34962
		},
		{
			"buffer":0,
			"byteLength":2712,
			"byteOffset":29232,
			"target":34962
		},
		{
			"buffer":0,
			"byteLength":1416,
			"byteOffset":31944,
			"target":34963
		},
		{
			"buffer":0,
			"byteLength":480,
			"byteOffset":33360,
			"target":34962
		},
		{
			"buffer":0,
			"byteLength":480,
			"byteOffset":33840,
			"target":34962
		},
		{
			"buffer":0,
			"byteLength":320,
			"byteOffset":34320,
			"target":34962
		},
		{
			"buffer":0,
			"byteLength":320,
			"byteOffset":34640,
			"target":34962
		},
		{
			"buffer":0,
			"byteLength":320,
			"byteOffset":34960,
			"target":34962
		},
		{
			"buffer":0,
			"byteLength":320,
			"byteOffset":35280,
			"target":34962
		},
		{
			"buffer":0,
			"byteLength":320,
			"byteOffset":35600,
			"target":34962
		},
		{
			"buffer":0,
			"byteLength":320,
			"byteOffset":35920,
			"target":34962
		},
		{
			"buffer":0,
			"byteLength":320,
			"byteOffset":36240,
			"target":34962
		},
		{
			"buffer":0,
			"byteLength":120,
			"byteOffset":36560,
			"target":34963
		},
		{
			"buffer":0,
			"byteLength":4992,
			"byteOffset":36680,
			"target":34962
		},
		{
			"buffer":0,
			"byteLength":4992,
			"byteOffset":41672,
			"target":34962
		},
		{
			"buffer":0,
			"byteLength":3328,
			"byteOffset":46664,
			"target":34962
		},
		{
			"buffer":0,
			"byteLength":3328,
			"byteOffset":49992,
			"target":34962
		},
		{
			"buffer":0,
			"byteLength":3328,
			"byteOffset":53320,
			"target":34962
		},
		{
			"buffer":0,
			"byteLength":3328,
			"byteOffset":56648,
			"target":34962
		},
		{
			"buffer":0,
			"byteLength":3328,
			"byteOffset":59976,
			"target":34962
		},
		{
			"buffer":0,
			"byteLength":3328,
			"byteOffset":63304,
			"target":34962
		},
		{
			"buffer":0,
			"byteLength":3328,
			"byteOffset":66632,
			"target":34962
		},
		{
			"buffer":0,
			"byteLength":1416,
			"byteOffset":69960,
			"target":34963
		},
		{
			"buffer":0,
			"byteLength":480,
			"byteOffset":71376,
			"target":34962
		},
		{
			"buffer":0,
			"byteLength":480,
			"byteOffset":71856,
			"target":34962
		},
		{
			"buffer":0,
			"byteLength":320,
			"byteOffset":72336,
			"target":34962
		},
		{
			"buffer":0,
			"byteLength":320,
			"byteOffset":72656,
			"target":34962
		},
		{
			"buffer":0,
			"byteLength":320,
			"byteOffset":72976,
			"target":34962
		},
		{
			"buffer":0,
			"byteLength":320,
			"byteOffset":73296,
			"target":34962
		},
		{
			"buffer":0,
			"byteLength":320,
			"byteOffset":73616,
			"target":34962
		},
		{
			"buffer":0,
			"byteLength":320,
			"byteOffset":73936,
			"target":34962
		},
		{
			"buffer":0,
			"byteLength":320,
			"byteOffset":74256,
			"target":34962
		},
		{
			"buffer":0,
			"byteLength":120,
			"byteOffset":74576,
			"target":34963
		},
		{
			"buffer":0,
			"byteLength":576,
			"byteOffset":74696,
			"target":34962
		},
		{
			"buffer":0,
			"byteLength":576,
			"byteOffset":75272,
			"target":34962
		},
		{
			"buffer":0,
			"byteLength":384,
			"byteOffset":75848,
			"target":34962
		},
		{
			"buffer":0,
			"byteLength":384,
			"byteOffset":76232,
			"target":34962
		},
		{
			"buffer":0,
			"byteLength":384,
			"byteOffset":76616,
			"target":34962
		},
		{
			"buffer":0,
			"byteLength":384,
			"byteOffset":77000,
			"target":34962
		},
		{
			"buffer":0,
			"byteLength":384,
			"byteOffset":77384,
			"target":34962
		},
		{
			"buffer":0,
			"byteLength":384,
			"byteOffset":77768,
			"target":34962
		},
		{
			"buffer":0,
			"byteLength":384,
			"byteOffset":78152,
			"target":34962
		},
		{
			"buffer":0,
			"byteLength":144,
			"byteOffset":78536,
			"target":34963
		},
		{
			"buffer":0,
			"byteLength":5988,
			"byteOffset":78680,
			"target":34962
		},
		{
			"buffer":0,
			"byteLength":5988,
			"byteOffset":84668,
			"target":34962
		},
		{
			"buffer":0,
			"byteLength":3992,
			"byteOffset":90656,
			"target":34962
		},
		{
			"buffer":0,
			"byteLength":3992,
			"byteOffset":94648,
			"target":34962
		},
		{
			"buffer":0,
			"byteLength":3992,
			"byteOffset":98640,
			"target":34962
		},
		{
			"buffer":0,
			"byteLength":3992,
			"byteOffset":102632,
			"target":34962
		},
		{
			"buffer":0,
			"byteLength":3992,
			"byteOffset":106624,
			"target":34962
		},
		{
			"buffer":0,
			"byteLength":3992,
			"byteOffset":110616,
			"target":34962
		},
		{
			"buffer":0,
			"byteLength":3992,
			"byteOffset":114608,
			"target":34962
		},
		{
			"buffer":0,
			"byteLength":1716,
			"byteOffset":118600,
			"target":34963
		},
		{
			"buffer":0,
			"byteLength":5748,
			"byteOffset":120316,
			"target":34962
		},
		{
			"buffer":0,
			"byteLength":5748,
			"byteOffset":126064,
			"target":34962
		},
		{
			"buffer":0,
			"byteLength":3832,
			"byteOffset":131812,
			"target":34962
		},
		{
			"buffer":0,
			"byteLength":3832,
			"byteOffset":135644,
			"target":34962
		},
		{
			"buffer":0,
			"byteLength":3832,
			"byteOffset":139476,
			"target":34962
		},
		{
			"buffer":0,
			"byteLength":3832,
			"byteOffset":143308,
			"target":34962
		},
		{
			"buffer":0,
			"byteLength":3832,
			"byteOffset":147140,
			"target":34962
		},
		{
			"buffer":0,
			"byteLength":3832,
			"byteOffset":150972,
			"target":34962
		},
		{
			"buffer":0,
			"byteLength":3832,
			"byteOffset":154804,
			"target":34962
		},
		{
			"buffer":0,
			"byteLength":1434,
			"byteOffset":158636,
			"target":34963
		},
		{
			"buffer":0,
			"byteLength":4608,
			"byteOffset":160072,
			"target":34962
		},
		{
			"buffer":0,
			"byteLength":4608,
			"byteOffset":164680,
			"target":34962
		},
		{
			"buffer":0,
			"byteLength":3072,
			"byteOffset":169288,
			"target":34962
		},
		{
			"buffer":0,
			"byteLength":3072,
			"byteOffset":172360,
			"target":34962
		},
		{
			"buffer":0,
			"byteLength":3072,
			"byteOffset":175432,
			"target":34962
		},
		{
			"buffer":0,
			"byteLength":3072,
			"byteOffset":178504,
			"target":34962
		},
		{
			"buffer":0,
			"byteLength":3072,
			"byteOffset":181576,
			"target":34962
		},
		{
			"buffer":0,
			"byteLength":3072,
			"byteOffset":184648,
			"target":34962
		},
		{
			"buffer":0,
			"byteLength":3072,
			"byteOffset":187720,
			"target":34962
		},
		{
			"buffer":0,
			"byteLength":1224,
			"byteOffset":190792,
			"target":34963
		},
		{
			"buffer":0,
			"byteLength":7056,
			"byteOffset":192016,
			"target":34962
		},
		{
			"buffer":0,
			"byteLength":7056,
			"byteOffset":199072,
			"target":34962
		},
		{
			"buffer":0,
			"byteLength":4704,
			"byteOffset":206128,
			"target":34962
		},
		{
			"buffer":0,
			"byteLength":4704,
			"byteOffset":210832,
			"target":34962
		},
		{
			"buffer":0,
			"byteLength":4704,
			"byteOffset":215536,
			"target":34962
		},
		{
			"buffer":0,
			"byteLength":4704,
			"byteOffset":220240,
			"target":34962
		},
		{
			"buffer":0,
			"byteLength":4704,
			"byteOffset":224944,
			"target":34962
		},
		{
			"buffer":0,
			"byteLength":4704,
			"byteOffset":229648,
			"target":34962
		},
		{
			"buffer":0,
			"byteLength":4704,
			"byteOffset":234352,
			"target":34962
		},
		{
			"buffer":0,
			"byteLength":1656,
			"byteOffset":239056,
			"target":34963
		},
		{
			"buffer":0,
			"byteLength":2400,
			"byteOffset":240712,
			"target":34962
		},
		{
			"buffer":0,
			"byteLength":2400,
			"byteOffset":243112,
			"target":34962
		},
		{
			"buffer":0,
			"byteLength":1600,
			"byteOffset":245512,
			"target":34962
		},
		{
			"buffer":0,
			"byteLength":600,
			"byteOffset":247112,
			"target":34963
		},
		{
			"buffer":0,
			"byteLength":6132,
			"byteOffset":247712,
			"target":34962
		},
		{
			"buffer":0,
			"byteLength":6132,
			"byteOffset":253844,
			"target":34962
		},
		{
			"buffer":0,
			"byteLength":4088,
			"byteOffset":259976,
			"target":34962
		},
		{
			"buffer":0,
			"byteLength":4088,
			"byteOffset":264064,
			"target":34962
		},
		{
			"buffer":0,
			"byteLength":4088,
			"byteOffset":268152,
			"target":34962
		},
		{
			"buffer":0,
			"byteLength":1062,
			"byteOffset":272240,
			"target":34963
		},
		{
			"buffer":0,
			"byteLength":1032,
			"byteOffset":273304,
			"target":34962
		},
		{
			"buffer":0,
			"byteLength":1032,
			"byteOffset":274336,
			"target":34962
		},
		{
			"buffer":0,
			"byteLength":688,
			"byteOffset":275368,
			"target":34962
		},
		{
			"buffer":0,
			"byteLength":300,
			"byteOffset":276056,
			"target":34963
		},
		{
			"buffer":0,
			"byteLength":768,
			"byteOffset":276356,
			"target":34962
		},
		{
			"buffer":0,
			"byteLength":768,
			"byteOffset":277124,
			"target":34962
		},
		{
			"buffer":0,
			"byteLength":512,
			"byteOffset":277892,
			"target":34962
		},
		{
			"buffer":0,
			"byteLength":204,
			"byteOffset":278404,
			"target":34963
		},
		{
			"buffer":0,
			"byteLength":1008,
			"byteOffset":278608,
			"target":34962
		},
		{
			"buffer":0,
			"byteLength":1008,
			"byteOffset":279616,
			"target":34962
		},
		{
			"buffer":0,
			"byteLength":672,
			"byteOffset":280624,
			"target":34962
		},
		{
			"buffer":0,
			"byteLength":300,
			"byteOffset":281296,
			"target":34963
		},
		{
			"buffer":0,
			"byteLength":1080,
			"byteOffset":281596,
			"target":34962
		},
		{
			"buffer":0,
			"byteLength":1080,
			"byteOffset":282676,
			"target":34962
		},
		{
			"buffer":0,
			"byteLength":720,
			"byteOffset":283756,
			"target":34962
		},
		{
			"buffer":0,
			"byteLength":300,
			"byteOffset":284476,
			"target":34963
		},
		{
			"buffer":0,
			"byteLength":2448,
			"byteOffset":284776,
			"target":34962
		},
		{
			"buffer":0,
			"byteLength":2448,
			"byteOffset":287224,
			"target":34962
		},
		{
			"buffer":0,
			"byteLength":1632,
			"byteOffset":289672,
			"target":34962
		},
		{
			"buffer":0,
			"byteLength":984,
			"byteOffset":291304,
			"target":34963
		},
		{
			"buffer":0,
			"byteLength":1176,
			"byteOffset":292288,
			"target":34962
		},
		{
			"buffer":0,
			"byteLength":1176,
			"byteOffset":293464,
			"target":34962
		},
		{
			"buffer":0,
			"byteLength":784,
			"byteOffset":294640,
			"target":34962
		},
		{
			"buffer":0,
			"byteLength":240,
			"byteOffset":295424,
			"target":34963
		},
		{
			"buffer":0,
			"byteLength":35232,
			"byteOffset":295664,
			"target":34962
		},
		{
			"buffer":0,
			"byteLength":35232,
			"byteOffset":330896,
			"target":34962
		},
		{
			"buffer":0,
			"byteLength":23488,
			"byteOffset":366128,
			"target":34962
		},
		{
			"buffer":0,
			"byteLength":23488,
			"byteOffset":389616,
			"target":34962
		},
		{
			"buffer":0,
			"byteLength":23488,
			"byteOffset":413104,
			"target":34962
		},
		{
			"buffer":0,
			"byteLength":23488,
			"byteOffset":436592,
			"target":34962
		},
		{
			"buffer":0,
			"byteLength":23488,
			"byteOffset":460080,
			"target":34962
		},
		{
			"buffer":0,
			"byteLength":23488,
			"byteOffset":483568,
			"target":34962
		},
		{
			"buffer":0,
			"byteLength":23488,
			"byteOffset":507056,
			"target":34962
		},
		{
			"buffer":0,
			"byteLength":8928,
			"byteOffset":530544,
			"target":34963
		},
		{
			"buffer":0,
			"byteLength":5664,
			"byteOffset":539472,
			"target":34962
		},
		{
			"buffer":0,
			"byteLength":5664,
			"byteOffset":545136,
			"target":34962
		},
		{
			"buffer":0,
			"byteLength":3776,
			"byteOffset":550800,
			"target":34962
		},
		{
			"buffer":0,
			"byteLength":3776,
			"byteOffset":554576,
			"target":34962
		},
		{
			"buffer":0,
			"byteLength":3776,
			"byteOffset":558352,
			"target":34962
		},
		{
			"buffer":0,
			"byteLength":3776,
			"byteOffset":562128,
			"target":34962
		},
		{
			"buffer":0,
			"byteLength":3776,
			"byteOffset":565904,
			"target":34962
		},
		{
			"buffer":0,
			"byteLength":3776,
			"byteOffset":569680,
			"target":34962
		},
		{
			"buffer":0,
			"byteLength":3776,
			"byteOffset":573456,
			"target":34962
		},
		{
			"buffer":0,
			"byteLength":1464,
			"byteOffset":577232,
			"target":34963
		},
		{
			"buffer":0,
			"byteLength":96,
			"byteOffset":578696,
			"target":34962
		},
		{
			"buffer":0,
			"byteLength":96,
			"byteOffset":578792,
			"target":34962
		},
		{
			"buffer":0,
			"byteLength":64,
			"byteOffset":578888,
			"target":34962
		},
		{
			"buffer":0,
			"byteLength":64,
			"byteOffset":578952,
			"target":34962
		},
		{
			"buffer":0,
			"byteLength":64,
			"byteOffset":579016,
			"target":34962
		},
		{
			"buffer":0,
			"byteLength":64,
			"byteOffset":579080,
			"target":34962
		},
		{
			"buffer":0,
			"byteLength":64,
			"byteOffset":579144,
			"target":34962
		},
		{
			"buffer":0,
			"byteLength":64,
			"byteOffset":579208,
			"target":34962
		},
		{
			"buffer":0,
			"byteLength":64,
			"byteOffset":579272,
			"target":34962
		},
		{
			"buffer":0,
			"byteLength":24,
			"byteOffset":579336,
			"target":34963
		},
		{
			"buffer":0,
			"byteLength":7248,
			"byteOffset":579360,
			"target":34962
		},
		{
			"buffer":0,
			"byteLength":7248,
			"byteOffset":586608,
			"target":34962
		},
		{
			"buffer":0,
			"byteLength":4832,
			"byteOffset":593856,
			"target":34962
		},
		{
			"buffer":0,
			"byteLength":4832,
			"byteOffset":598688,
			"target":34962
		},
		{
			"buffer":0,
			"byteLength":4832,
			"byteOffset":603520,
			"target":34962
		},
		{
			"buffer":0,
			"byteLength":4832,
			"byteOffset":608352,
			"target":34962
		},
		{
			"buffer":0,
			"byteLength":4832,
			"byteOffset":613184,
			"target":34962
		},
		{
			"buffer":0,
			"byteLength":4832,
			"byteOffset":618016,
			"target":34962
		},
		{
			"buffer":0,
			"byteLength":4832,
			"byteOffset":622848,
			"target":34962
		},
		{
			"buffer":0,
			"byteLength":1608,
			"byteOffset":627680,
			"target":34963
		},
		{
			"buffer":0,
			"byteLength":6084,
			"byteOffset":629288,
			"target":34962
		},
		{
			"buffer":0,
			"byteLength":6084,
			"byteOffset":635372,
			"target":34962
		},
		{
			"buffer":0,
			"byteLength":4056,
			"byteOffset":641456,
			"target":34962
		},
		{
			"buffer":0,
			"byteLength":4056,
			"byteOffset":645512,
			"target":34962
		},
		{
			"buffer":0,
			"byteLength":4056,
			"byteOffset":649568,
			"target":34962
		},
		{
			"buffer":0,
			"byteLength":4056,
			"byteOffset":653624,
			"target":34962
		},
		{
			"buffer":0,
			"byteLength":4056,
			"byteOffset":657680,
			"target":34962
		},
		{
			"buffer":0,
			"byteLength":4056,
			"byteOffset":661736,
			"target":34962
		},
		{
			"buffer":0,
			"byteLength":4056,
			"byteOffset":665792,
			"target":34962
		},
		{
			"buffer":0,
			"byteLength":1728,
			"byteOffset":669848,
			"target":34963
		},
		{
			"buffer":0,
			"byteLength":48,
			"byteOffset":671576,
			"target":34962
		},
		{
			"buffer":0,
			"byteLength":48,
			"byteOffset":671624,
			"target":34962
		},
		{
			"buffer":0,
			"byteLength":32,
			"byteOffset":671672,
			"target":34962
		},
		{
			"buffer":0,
			"byteLength":32,
			"byteOffset":671704,
			"target":34962
		},
		{
			"buffer":0,
			"byteLength":32,
			"byteOffset":671736,
			"target":34962
		},
		{
			"buffer":0,
			"byteLength":32,
			"byteOffset":671768,
			"target":34962
		},
		{
			"buffer":0,
			"byteLength":32,
			"byteOffset":671800,
			"target":34962
		},
		{
			"buffer":0,
			"byteLength":32,
			"byteOffset":671832,
			"target":34962
		},
		{
			"buffer":0,
			"byteLength":32,
			"byteOffset":671864,
			"target":34962
		},
		{
			"buffer":0,
			"byteLength":12,
			"byteOffset":671896,
			"target":34963
		},
		{
			"buffer":0,
			"byteLength":274212,
			"byteOffset":671908,
			"target":34962
		},
		{
			"buffer":0,
			"byteLength":274212,
			"byteOffset":946120,
			"target":34962
		},
		{
			"buffer":0,
			"byteLength":182808,
			"byteOffset":1220332,
			"target":34962
		},
		{
			"buffer":0,
			"byteLength":182808,
			"byteOffset":1403140,
			"target":34962
		},
		{
			"buffer":0,
			"byteLength":182808,
			"byteOffset":1585948,
			"target":34962
		},
		{
			"buffer":0,
			"byteLength":182808,
			"byteOffset":1768756,
			"target":34962
		},
		{
			"buffer":0,
			"byteLength":182808,
			"byteOffset":1951564,
			"target":34962
		},
		{
			"buffer":0,
			"byteLength":182808,
			"byteOffset":2134372,
			"target":34962
		},
		{
			"buffer":0,
			"byteLength":182808,
			"byteOffset":2317180,
			"target":34962
		},
		{
			"buffer":0,
			"byteLength":70776,
			"byteOffset":2499988,
			"target":34963
		},
		{
			"buffer":0,
			"byteLength":3360,
			"byteOffset":2570764,
			"target":34962
		},
		{
			"buffer":0,
			"byteLength":3360,
			"byteOffset":2574124,
			"target":34962
		},
		{
			"buffer":0,
			"byteLength":2240,
			"byteOffset":2577484,
			"target":34962
		},
		{
			"buffer":0,
			"byteLength":2240,
			"byteOffset":2579724,
			"target":34962
		},
		{
			"buffer":0,
			"byteLength":2240,
			"byteOffset":2581964,
			"target":34962
		},
		{
			"buffer":0,
			"byteLength":2240,
			"byteOffset":2584204,
			"target":34962
		},
		{
			"buffer":0,
			"byteLength":2240,
			"byteOffset":2586444,
			"target":34962
		},
		{
			"buffer":0,
			"byteLength":2240,
			"byteOffset":2588684,
			"target":34962
		},
		{
			"buffer":0,
			"byteLength":2240,
			"byteOffset":2590924,
			"target":34962
		},
		{
			"buffer":0,
			"byteLength":840,
			"byteOffset":2593164,
			"target":34963
		},
		{
			"buffer":0,
			"byteLength":8448,
			"byteOffset":2594004,
			"target":34962
		},
		{
			"buffer":0,
			"byteLength":8448,
			"byteOffset":2602452,
			"target":34962
		},
		{
			"buffer":0,
			"byteLength":5632,
			"byteOffset":2610900,
			"target":34962
		},
		{
			"buffer":0,
			"byteLength":5632,
			"byteOffset":2616532,
			"target":34962
		},
		{
			"buffer":0,
			"byteLength":5632,
			"byteOffset":2622164,
			"target":34962
		},
		{
			"buffer":0,
			"byteLength":5632,
			"byteOffset":2627796,
			"target":34962
		},
		{
			"buffer":0,
			"byteLength":5632,
			"byteOffset":2633428,
			"target":34962
		},
		{
			"buffer":0,
			"byteLength":5632,
			"byteOffset":2639060,
			"target":34962
		},
		{
			"buffer":0,
			"byteLength":5632,
			"byteOffset":2644692,
			"target":34962
		},
		{
			"buffer":0,
			"byteLength":2100,
			"byteOffset":2650324,
			"target":34963
		}
	],
	"samplers":[
		{
			"magFilter":9729,
			"minFilter":9987
		},
		{
			"magFilter":9729,
			"minFilter":9987,
			"wrapS":33071,
			"wrapT":33071
		}
	],
	"buffers":[
		{
			"byteLength":2652424,
			"uri":"building9.bin"
		}
	]
}
