{
	"asset":{
		"generator":"Khronos glTF Blender I/O v4.2.70",
		"version":"2.0"
	},
	"extensionsUsed":[
		"KHR_materials_transmission"
	],
	"scene":0,
	"scenes":[
		{
			"name":"Scene",
			"nodes":[
				0,
				1,
				2,
				3,
				4,
				5,
				6,
				7,
				8,
				9
			]
		}
	],
	"nodes":[
		{
			"mesh":0,
			"name":"Object_79.007",
			"translation":[
				-154.59262084960938,
				45.689945220947266,
				20.075069427490234
			]
		},
		{
			"mesh":1,
			"name":"Object_81.024",
			"translation":[
				-153.24908447265625,
				45.281158447265625,
				33.46506118774414
			]
		},
		{
			"mesh":2,
			"name":"Object_81.025",
			"translation":[
				-149.8373565673828,
				46.181480407714844,
				43.08485794067383
			]
		},
		{
			"mesh":3,
			"name":"Object_81.026",
			"translation":[
				-151.2520751953125,
				45.28782272338867,
				23.83193588256836
			]
		},
		{
			"mesh":4,
			"name":"Object_87.017",
			"translation":[
				-153.49774169921875,
				45.508426666259766,
				37.302146911621094
			]
		},
		{
			"mesh":5,
			"name":"Object_87.019",
			"translation":[
				-157.3076934814453,
				45.543514251708984,
				43.315330505371094
			]
		},
		{
			"mesh":6,
			"name":"Object_107.006",
			"translation":[
				-158.69505310058594,
				52.28009033203125,
				24.612506866455078
			]
		},
		{
			"mesh":7,
			"name":"Object_122.001",
			"translation":[
				-154.9380340576172,
				25.070192337036133,
				31.028535842895508
			]
		},
		{
			"mesh":8,
			"name":"Object_144.005",
			"translation":[
				-156.38201904296875,
				46.5069465637207,
				32.25299072265625
			]
		},
		{
			"mesh":9,
			"name":"Object_144.006",
			"translation":[
				-156.38201904296875,
				46.5069465637207,
				32.25299072265625
			]
		}
	],
	"materials":[
		{
			"doubleSided":true,
			"name":"material",
			"normalTexture":{
				"index":0
			},
			"pbrMetallicRoughness":{
				"baseColorTexture":{
					"index":1
				},
				"metallicFactor":0,
				"roughnessFactor":0.5
			}
		},
		{
			"alphaMode":"BLEND",
			"doubleSided":true,
			"extensions":{
				"KHR_materials_transmission":{
					"transmissionFactor":1
				}
			},
			"name":"CityGenGlass.001",
			"normalTexture":{
				"index":2,
				"scale":0.20000000298023224
			},
			"pbrMetallicRoughness":{
				"baseColorFactor":[
					1,
					1,
					1,
					0.25
				],
				"metallicFactor":0,
				"roughnessFactor":0
			}
		},
		{
			"doubleSided":true,
			"name":"CityGenbasic_rough_metal_dark_.001",
			"pbrMetallicRoughness":{
				"baseColorFactor":[
					0.13662800192832947,
					0.15541599690914154,
					0.13210399448871613,
					1
				],
				"roughnessFactor":0.4942860007286072
			}
		},
		{
			"doubleSided":true,
			"name":"CityGenconcrete.001",
			"normalTexture":{
				"index":3
			},
			"pbrMetallicRoughness":{
				"baseColorTexture":{
					"index":4
				},
				"metallicFactor":0,
				"metallicRoughnessTexture":{
					"index":5
				}
			}
		},
		{
			"doubleSided":true,
			"name":"CityGenbasic_metal.001",
			"pbrMetallicRoughness":{
				"baseColorFactor":[
					0.45012399554252625,
					0.45012399554252625,
					0.45012399554252625,
					1
				],
				"roughnessFactor":0.26060399413108826
			}
		},
		{
			"doubleSided":true,
			"name":"CityGentextured_metal",
			"normalTexture":{
				"index":6
			},
			"pbrMetallicRoughness":{
				"baseColorTexture":{
					"index":7
				},
				"metallicRoughnessTexture":{
					"index":8
				}
			}
		},
		{
			"doubleSided":true,
			"name":"rooftop_tank",
			"pbrMetallicRoughness":{
				"baseColorTexture":{
					"index":9
				},
				"metallicFactor":0,
				"roughnessFactor":0.5
			}
		},
		{
			"alphaMode":"BLEND",
			"doubleSided":true,
			"name":"Material.004",
			"pbrMetallicRoughness":{
				"baseColorTexture":{
					"index":10
				},
				"metallicFactor":0,
				"roughnessFactor":0.5
			}
		},
		{
			"doubleSided":true,
			"emissiveFactor":[
				5.96045985901128e-08,
				5.96045985901128e-08,
				5.96045985901128e-08
			],
			"name":"CityGen_LR_Facades",
			"pbrMetallicRoughness":{
				"baseColorTexture":{
					"index":11
				},
				"metallicFactor":0,
				"metallicRoughnessTexture":{
					"index":12
				}
			}
		},
		{
			"doubleSided":true,
			"name":"CityGenyellow_stone",
			"normalTexture":{
				"index":13,
				"scale":0.10000000149011612
			},
			"pbrMetallicRoughness":{
				"baseColorFactor":[
					0.11748600006103516,
					0.091798797249794,
					0.056883398443460464,
					1
				],
				"metallicFactor":0,
				"metallicRoughnessTexture":{
					"index":14
				}
			}
		},
		{
			"doubleSided":true,
			"name":"CityGenroof.002",
			"normalTexture":{
				"index":15
			},
			"pbrMetallicRoughness":{
				"baseColorTexture":{
					"index":16
				},
				"metallicFactor":0,
				"roughnessFactor":0.5
			}
		},
		{
			"doubleSided":true,
			"name":"Material.001",
			"normalTexture":{
				"index":17
			},
			"pbrMetallicRoughness":{
				"baseColorFactor":[
					0.800000011920929,
					0.800000011920929,
					0.800000011920929,
					1
				],
				"roughnessFactor":0.30000001192092896
			}
		},
		{
			"doubleSided":true,
			"name":"CityGenbasic_dark_green",
			"normalTexture":{
				"index":18
			},
			"pbrMetallicRoughness":{
				"baseColorTexture":{
					"index":19
				},
				"metallicFactor":0,
				"metallicRoughnessTexture":{
					"index":20
				}
			}
		},
		{
			"doubleSided":true,
			"name":"CityGenblack_.001",
			"pbrMetallicRoughness":{
				"baseColorFactor":[
					0.02315320074558258,
					0.02955690026283264,
					0.033104799687862396,
					1
				],
				"metallicFactor":0.9205440282821655,
				"roughnessFactor":0.548337996006012
			}
		},
		{
			"doubleSided":true,
			"name":"CityGenblack_.004",
			"pbrMetallicRoughness":{
				"baseColorFactor":[
					0.02315320074558258,
					0.02955690026283264,
					0.033104799687862396,
					1
				],
				"metallicFactor":0.9205440282821655,
				"roughnessFactor":0.548337996006012
			}
		},
		{
			"doubleSided":true,
			"name":"CityGentextured_metal.009",
			"normalTexture":{
				"index":21
			},
			"pbrMetallicRoughness":{
				"baseColorTexture":{
					"index":22
				},
				"metallicRoughnessTexture":{
					"index":23
				}
			}
		}
	],
	"meshes":[
		{
			"name":"Object_35.007",
			"primitives":[
				{
					"attributes":{
						"POSITION":0,
						"NORMAL":1,
						"TEXCOORD_0":2,
						"TEXCOORD_1":3,
						"TEXCOORD_2":4
					},
					"indices":5,
					"material":0
				}
			]
		},
		{
			"name":"Object_36.024",
			"primitives":[
				{
					"attributes":{
						"POSITION":6,
						"NORMAL":7,
						"TEXCOORD_0":8,
						"TEXCOORD_1":9,
						"TEXCOORD_2":10,
						"TEXCOORD_3":11,
						"TEXCOORD_4":12,
						"TEXCOORD_5":13,
						"TEXCOORD_6":14
					},
					"indices":15,
					"material":1
				},
				{
					"attributes":{
						"POSITION":16,
						"NORMAL":17,
						"TEXCOORD_0":18,
						"TEXCOORD_1":19,
						"TEXCOORD_2":20,
						"TEXCOORD_3":21,
						"TEXCOORD_4":22,
						"TEXCOORD_5":23,
						"TEXCOORD_6":24
					},
					"indices":25,
					"material":2
				}
			]
		},
		{
			"name":"Object_36.025",
			"primitives":[
				{
					"attributes":{
						"POSITION":26,
						"NORMAL":27,
						"TEXCOORD_0":28,
						"TEXCOORD_1":29,
						"TEXCOORD_2":30,
						"TEXCOORD_3":31,
						"TEXCOORD_4":32,
						"TEXCOORD_5":33,
						"TEXCOORD_6":34
					},
					"indices":35,
					"material":2
				},
				{
					"attributes":{
						"POSITION":36,
						"NORMAL":37,
						"TEXCOORD_0":38,
						"TEXCOORD_1":39,
						"TEXCOORD_2":40,
						"TEXCOORD_3":41,
						"TEXCOORD_4":42,
						"TEXCOORD_5":43,
						"TEXCOORD_6":44
					},
					"indices":45,
					"material":3
				}
			]
		},
		{
			"name":"Object_36.026",
			"primitives":[
				{
					"attributes":{
						"POSITION":46,
						"NORMAL":47,
						"TEXCOORD_0":48,
						"TEXCOORD_1":49,
						"TEXCOORD_2":50,
						"TEXCOORD_3":51,
						"TEXCOORD_4":52,
						"TEXCOORD_5":53,
						"TEXCOORD_6":54
					},
					"indices":55,
					"material":4
				},
				{
					"attributes":{
						"POSITION":56,
						"NORMAL":57,
						"TEXCOORD_0":58,
						"TEXCOORD_1":59,
						"TEXCOORD_2":60,
						"TEXCOORD_3":61,
						"TEXCOORD_4":62,
						"TEXCOORD_5":63,
						"TEXCOORD_6":64
					},
					"indices":65,
					"material":1
				}
			]
		},
		{
			"name":"Object_39.017",
			"primitives":[
				{
					"attributes":{
						"POSITION":66,
						"NORMAL":67,
						"TEXCOORD_0":68,
						"TEXCOORD_1":69,
						"TEXCOORD_2":70,
						"TEXCOORD_3":71,
						"TEXCOORD_4":72,
						"TEXCOORD_5":73,
						"TEXCOORD_6":74
					},
					"indices":75,
					"material":5
				}
			]
		},
		{
			"name":"Object_39.019",
			"primitives":[
				{
					"attributes":{
						"POSITION":76,
						"NORMAL":77,
						"TEXCOORD_0":78,
						"TEXCOORD_1":79,
						"TEXCOORD_2":80,
						"TEXCOORD_3":81,
						"TEXCOORD_4":82,
						"TEXCOORD_5":83,
						"TEXCOORD_6":84
					},
					"indices":85,
					"material":5
				}
			]
		},
		{
			"name":"Object_49.006",
			"primitives":[
				{
					"attributes":{
						"POSITION":86,
						"NORMAL":87,
						"TEXCOORD_0":88
					},
					"indices":89,
					"material":6
				},
				{
					"attributes":{
						"POSITION":90,
						"NORMAL":91,
						"TEXCOORD_0":92
					},
					"indices":93,
					"material":7
				}
			]
		},
		{
			"name":"Object_56.010",
			"primitives":[
				{
					"attributes":{
						"POSITION":94,
						"NORMAL":95,
						"TEXCOORD_0":96,
						"TEXCOORD_1":97,
						"TEXCOORD_2":98,
						"TEXCOORD_3":99,
						"TEXCOORD_4":100,
						"TEXCOORD_5":101,
						"TEXCOORD_6":102
					},
					"indices":103,
					"material":8
				},
				{
					"attributes":{
						"POSITION":104,
						"NORMAL":105,
						"TEXCOORD_0":106,
						"TEXCOORD_1":107,
						"TEXCOORD_2":108,
						"TEXCOORD_3":109,
						"TEXCOORD_4":110,
						"TEXCOORD_5":111,
						"TEXCOORD_6":112
					},
					"indices":113,
					"material":9
				},
				{
					"attributes":{
						"POSITION":114,
						"NORMAL":115,
						"TEXCOORD_0":116,
						"TEXCOORD_1":117,
						"TEXCOORD_2":118,
						"TEXCOORD_3":119,
						"TEXCOORD_4":120,
						"TEXCOORD_5":121,
						"TEXCOORD_6":122
					},
					"indices":123,
					"material":10
				},
				{
					"attributes":{
						"POSITION":124,
						"NORMAL":125,
						"TEXCOORD_0":126,
						"TEXCOORD_1":127,
						"TEXCOORD_2":128,
						"TEXCOORD_3":129,
						"TEXCOORD_4":130,
						"TEXCOORD_5":131,
						"TEXCOORD_6":132
					},
					"indices":133,
					"material":11
				},
				{
					"attributes":{
						"POSITION":134,
						"NORMAL":135,
						"TEXCOORD_0":136,
						"TEXCOORD_1":137,
						"TEXCOORD_2":138,
						"TEXCOORD_3":139,
						"TEXCOORD_4":140,
						"TEXCOORD_5":141,
						"TEXCOORD_6":142
					},
					"indices":143,
					"material":12
				}
			]
		},
		{
			"name":"Object_67.005",
			"primitives":[
				{
					"attributes":{
						"POSITION":144,
						"NORMAL":145,
						"TEXCOORD_0":146,
						"TEXCOORD_1":147,
						"TEXCOORD_2":148,
						"TEXCOORD_3":149,
						"TEXCOORD_4":150,
						"TEXCOORD_5":151,
						"TEXCOORD_6":152
					},
					"indices":153,
					"material":13
				},
				{
					"attributes":{
						"POSITION":154,
						"NORMAL":155,
						"TEXCOORD_0":156,
						"TEXCOORD_1":157,
						"TEXCOORD_2":158,
						"TEXCOORD_3":159,
						"TEXCOORD_4":160,
						"TEXCOORD_5":161,
						"TEXCOORD_6":162
					},
					"indices":163,
					"material":5
				}
			]
		},
		{
			"name":"Object_67.006",
			"primitives":[
				{
					"attributes":{
						"POSITION":164,
						"NORMAL":165,
						"TEXCOORD_0":166,
						"TEXCOORD_1":167,
						"TEXCOORD_2":168,
						"TEXCOORD_3":169,
						"TEXCOORD_4":170,
						"TEXCOORD_5":171,
						"TEXCOORD_6":172
					},
					"indices":153,
					"material":14
				},
				{
					"attributes":{
						"POSITION":173,
						"NORMAL":174,
						"TEXCOORD_0":175,
						"TEXCOORD_1":176,
						"TEXCOORD_2":177,
						"TEXCOORD_3":178,
						"TEXCOORD_4":179,
						"TEXCOORD_5":180,
						"TEXCOORD_6":181
					},
					"indices":163,
					"material":15
				}
			]
		}
	],
	"textures":[
		{
			"sampler":0,
			"source":0
		},
		{
			"sampler":0,
			"source":1
		},
		{
			"sampler":0,
			"source":2
		},
		{
			"sampler":0,
			"source":3
		},
		{
			"sampler":0,
			"source":4
		},
		{
			"sampler":0,
			"source":5
		},
		{
			"sampler":0,
			"source":6
		},
		{
			"sampler":0,
			"source":7
		},
		{
			"sampler":0,
			"source":8
		},
		{
			"sampler":0,
			"source":9
		},
		{
			"sampler":0,
			"source":10
		},
		{
			"sampler":1,
			"source":11
		},
		{
			"sampler":0,
			"source":12
		},
		{
			"sampler":0,
			"source":13
		},
		{
			"sampler":0,
			"source":14
		},
		{
			"sampler":0,
			"source":15
		},
		{
			"sampler":0,
			"source":16
		},
		{
			"sampler":0,
			"source":17
		},
		{
			"sampler":0,
			"source":18
		},
		{
			"sampler":0,
			"source":19
		},
		{
			"sampler":0,
			"source":20
		},
		{
			"sampler":0,
			"source":6
		},
		{
			"sampler":0,
			"source":7
		},
		{
			"sampler":0,
			"source":8
		}
	],
	"images":[
		{
			"mimeType":"image/jpeg",
			"name":"Image_47",
			"uri":"../textures/Image_47.jpg"
		},
		{
			"mimeType":"image/jpeg",
			"name":"Image_46",
			"uri":"../textures/Image_46.jpg"
		},
		{
			"mimeType":"image/jpeg",
			"name":"Image_48",
			"uri":"../textures/Image_48.jpg"
		},
		{
			"mimeType":"image/jpeg",
			"name":"Image_60",
			"uri":"../textures/Image_60.jpg"
		},
		{
			"mimeType":"image/jpeg",
			"name":"Image_58",
			"uri":"../textures/Image_58.jpg"
		},
		{
			"mimeType":"image/png",
			"name":"Image_59",
			"uri":"../textures/Image_59.png"
		},
		{
			"mimeType":"image/jpeg",
			"name":"Image_52",
			"uri":"../textures/Image_52.jpg"
		},
		{
			"mimeType":"image/jpeg",
			"name":"Image_50",
			"uri":"../textures/Image_50.jpg"
		},
		{
			"mimeType":"image/png",
			"name":"Image_51",
			"uri":"../textures/Image_51.png"
		},
		{
			"mimeType":"image/jpeg",
			"name":"Image_62",
			"uri":"../textures/Image_62.jpg"
		},
		{
			"mimeType":"image/png",
			"name":"Image_63",
			"uri":"../textures/Image_63.png"
		},
		{
			"mimeType":"image/jpeg",
			"name":"Image_37",
			"uri":"../textures/Image_37.jpg"
		},
		{
			"mimeType":"image/png",
			"name":"Image_38",
			"uri":"../textures/Image_38.png"
		},
		{
			"mimeType":"image/jpeg",
			"name":"Image_42",
			"uri":"../textures/Image_42.jpg"
		},
		{
			"mimeType":"image/png",
			"name":"Image_41",
			"uri":"../textures/Image_41.png"
		},
		{
			"mimeType":"image/jpeg",
			"name":"Image_33",
			"uri":"../textures/Image_33.jpg"
		},
		{
			"mimeType":"image/jpeg",
			"name":"Image_32",
			"uri":"../textures/Image_32.jpg"
		},
		{
			"mimeType":"image/jpeg",
			"name":"Image_36",
			"uri":"../textures/Image_36.jpg"
		},
		{
			"mimeType":"image/jpeg",
			"name":"Image_2",
			"uri":"../textures/Image_2.jpg"
		},
		{
			"mimeType":"image/jpeg",
			"name":"Image_0",
			"uri":"../textures/Image_0.jpg"
		},
		{
			"mimeType":"image/png",
			"name":"Image_1",
			"uri":"../textures/Image_1.png"
		}
	],
	"accessors":[
		{
			"bufferView":0,
			"componentType":5126,
			"count":24,
			"max":[
				0.4019775390625,
				0.5792045593261719,
				0.57928466796875
			],
			"min":[
				-0.4019775390625,
				-0.5792045593261719,
				-0.57928466796875
			],
			"type":"VEC3"
		},
		{
			"bufferView":1,
			"componentType":5126,
			"count":24,
			"type":"VEC3"
		},
		{
			"bufferView":2,
			"componentType":5126,
			"count":24,
			"type":"VEC2"
		},
		{
			"bufferView":3,
			"componentType":5126,
			"count":24,
			"type":"VEC2"
		},
		{
			"bufferView":4,
			"componentType":5126,
			"count":24,
			"type":"VEC2"
		},
		{
			"bufferView":5,
			"componentType":5123,
			"count":36,
			"type":"SCALAR"
		},
		{
			"bufferView":6,
			"componentType":5126,
			"count":48,
			"max":[
				0.321674108505249,
				0.1335422247648239,
				0.7899515628814697
			],
			"min":[
				-0.4629786014556885,
				-0.08956796675920486,
				-0.789966344833374
			],
			"type":"VEC3"
		},
		{
			"bufferView":7,
			"componentType":5126,
			"count":48,
			"type":"VEC3"
		},
		{
			"bufferView":8,
			"componentType":5126,
			"count":48,
			"type":"VEC2"
		},
		{
			"bufferView":9,
			"componentType":5126,
			"count":48,
			"type":"VEC2"
		},
		{
			"bufferView":10,
			"componentType":5126,
			"count":48,
			"type":"VEC2"
		},
		{
			"bufferView":11,
			"componentType":5126,
			"count":48,
			"type":"VEC2"
		},
		{
			"bufferView":12,
			"componentType":5126,
			"count":48,
			"type":"VEC2"
		},
		{
			"bufferView":13,
			"componentType":5126,
			"count":48,
			"type":"VEC2"
		},
		{
			"bufferView":14,
			"componentType":5126,
			"count":48,
			"type":"VEC2"
		},
		{
			"bufferView":15,
			"componentType":5123,
			"count":72,
			"type":"SCALAR"
		},
		{
			"bufferView":16,
			"componentType":5126,
			"count":475,
			"max":[
				0.3362462520599365,
				0.1528445929288864,
				0.815044641494751
			],
			"min":[
				-0.4788172245025635,
				-0.1704166680574417,
				-0.8150594234466553
			],
			"type":"VEC3"
		},
		{
			"bufferView":17,
			"componentType":5126,
			"count":475,
			"type":"VEC3"
		},
		{
			"bufferView":18,
			"componentType":5126,
			"count":475,
			"type":"VEC2"
		},
		{
			"bufferView":19,
			"componentType":5126,
			"count":475,
			"type":"VEC2"
		},
		{
			"bufferView":20,
			"componentType":5126,
			"count":475,
			"type":"VEC2"
		},
		{
			"bufferView":21,
			"componentType":5126,
			"count":475,
			"type":"VEC2"
		},
		{
			"bufferView":22,
			"componentType":5126,
			"count":475,
			"type":"VEC2"
		},
		{
			"bufferView":23,
			"componentType":5126,
			"count":475,
			"type":"VEC2"
		},
		{
			"bufferView":24,
			"componentType":5126,
			"count":475,
			"type":"VEC2"
		},
		{
			"bufferView":25,
			"componentType":5123,
			"count":858,
			"type":"SCALAR"
		},
		{
			"bufferView":26,
			"componentType":5126,
			"count":219,
			"max":[
				2.0618300437927246,
				1.6776888370513916,
				1.849568486213684
			],
			"min":[
				-2.0823960304260254,
				-0.832744300365448,
				-1.1362980604171753
			],
			"type":"VEC3"
		},
		{
			"bufferView":27,
			"componentType":5126,
			"count":219,
			"type":"VEC3"
		},
		{
			"bufferView":28,
			"componentType":5126,
			"count":219,
			"type":"VEC2"
		},
		{
			"bufferView":29,
			"componentType":5126,
			"count":219,
			"type":"VEC2"
		},
		{
			"bufferView":30,
			"componentType":5126,
			"count":219,
			"type":"VEC2"
		},
		{
			"bufferView":31,
			"componentType":5126,
			"count":219,
			"type":"VEC2"
		},
		{
			"bufferView":32,
			"componentType":5126,
			"count":219,
			"type":"VEC2"
		},
		{
			"bufferView":33,
			"componentType":5126,
			"count":219,
			"type":"VEC2"
		},
		{
			"bufferView":34,
			"componentType":5126,
			"count":219,
			"type":"VEC2"
		},
		{
			"bufferView":35,
			"componentType":5123,
			"count":267,
			"type":"SCALAR"
		},
		{
			"bufferView":36,
			"componentType":5126,
			"count":876,
			"max":[
				2.420579433441162,
				0.8544352650642395,
				1.843323826789856
			],
			"min":[
				-2.0823960304260254,
				-1.070739507675171,
				-1.2635716199874878
			],
			"type":"VEC3"
		},
		{
			"bufferView":37,
			"componentType":5126,
			"count":876,
			"type":"VEC3"
		},
		{
			"bufferView":38,
			"componentType":5126,
			"count":876,
			"type":"VEC2"
		},
		{
			"bufferView":39,
			"componentType":5126,
			"count":876,
			"type":"VEC2"
		},
		{
			"bufferView":40,
			"componentType":5126,
			"count":876,
			"type":"VEC2"
		},
		{
			"bufferView":41,
			"componentType":5126,
			"count":876,
			"type":"VEC2"
		},
		{
			"bufferView":42,
			"componentType":5126,
			"count":876,
			"type":"VEC2"
		},
		{
			"bufferView":43,
			"componentType":5126,
			"count":876,
			"type":"VEC2"
		},
		{
			"bufferView":44,
			"componentType":5126,
			"count":876,
			"type":"VEC2"
		},
		{
			"bufferView":45,
			"componentType":5123,
			"count":1554,
			"type":"SCALAR"
		},
		{
			"bufferView":46,
			"componentType":5126,
			"count":416,
			"max":[
				0.6165771484375,
				0.3414590060710907,
				1.3063697814941406
			],
			"min":[
				-0.6165771484375,
				-0.1770804524421692,
				-1.3063697814941406
			],
			"type":"VEC3"
		},
		{
			"bufferView":47,
			"componentType":5126,
			"count":416,
			"type":"VEC3"
		},
		{
			"bufferView":48,
			"componentType":5126,
			"count":416,
			"type":"VEC2"
		},
		{
			"bufferView":49,
			"componentType":5126,
			"count":416,
			"type":"VEC2"
		},
		{
			"bufferView":50,
			"componentType":5126,
			"count":416,
			"type":"VEC2"
		},
		{
			"bufferView":51,
			"componentType":5126,
			"count":416,
			"type":"VEC2"
		},
		{
			"bufferView":52,
			"componentType":5126,
			"count":416,
			"type":"VEC2"
		},
		{
			"bufferView":53,
			"componentType":5126,
			"count":416,
			"type":"VEC2"
		},
		{
			"bufferView":54,
			"componentType":5126,
			"count":416,
			"type":"VEC2"
		},
		{
			"bufferView":55,
			"componentType":5123,
			"count":708,
			"type":"SCALAR"
		},
		{
			"bufferView":56,
			"componentType":5126,
			"count":40,
			"max":[
				0.52130126953125,
				0.3110139071941376,
				1.2110939025878906
			],
			"min":[
				-0.52130126953125,
				0.06525583565235138,
				-1.2110939025878906
			],
			"type":"VEC3"
		},
		{
			"bufferView":57,
			"componentType":5126,
			"count":40,
			"type":"VEC3"
		},
		{
			"bufferView":58,
			"componentType":5126,
			"count":40,
			"type":"VEC2"
		},
		{
			"bufferView":59,
			"componentType":5126,
			"count":40,
			"type":"VEC2"
		},
		{
			"bufferView":60,
			"componentType":5126,
			"count":40,
			"type":"VEC2"
		},
		{
			"bufferView":61,
			"componentType":5126,
			"count":40,
			"type":"VEC2"
		},
		{
			"bufferView":62,
			"componentType":5126,
			"count":40,
			"type":"VEC2"
		},
		{
			"bufferView":63,
			"componentType":5126,
			"count":40,
			"type":"VEC2"
		},
		{
			"bufferView":64,
			"componentType":5126,
			"count":40,
			"type":"VEC2"
		},
		{
			"bufferView":65,
			"componentType":5123,
			"count":60,
			"type":"SCALAR"
		},
		{
			"bufferView":66,
			"componentType":5126,
			"count":466,
			"max":[
				1.8261220455169678,
				0.35433661937713623,
				0.398476779460907
			],
			"min":[
				-1.8238565921783447,
				-0.39786064624786377,
				-0.39768868684768677
			],
			"type":"VEC3"
		},
		{
			"bufferView":67,
			"componentType":5126,
			"count":466,
			"type":"VEC3"
		},
		{
			"bufferView":68,
			"componentType":5126,
			"count":466,
			"type":"VEC2"
		},
		{
			"bufferView":69,
			"componentType":5126,
			"count":466,
			"type":"VEC2"
		},
		{
			"bufferView":70,
			"componentType":5126,
			"count":466,
			"type":"VEC2"
		},
		{
			"bufferView":71,
			"componentType":5126,
			"count":466,
			"type":"VEC2"
		},
		{
			"bufferView":72,
			"componentType":5126,
			"count":466,
			"type":"VEC2"
		},
		{
			"bufferView":73,
			"componentType":5126,
			"count":466,
			"type":"VEC2"
		},
		{
			"bufferView":74,
			"componentType":5126,
			"count":466,
			"type":"VEC2"
		},
		{
			"bufferView":75,
			"componentType":5123,
			"count":705,
			"type":"SCALAR"
		},
		{
			"bufferView":76,
			"componentType":5126,
			"count":591,
			"max":[
				0.46177688241004944,
				0.3849693238735199,
				1.989565134048462
			],
			"min":[
				-0.45632919669151306,
				-0.4329666197299957,
				-1.989755392074585
			],
			"type":"VEC3"
		},
		{
			"bufferView":77,
			"componentType":5126,
			"count":591,
			"type":"VEC3"
		},
		{
			"bufferView":78,
			"componentType":5126,
			"count":591,
			"type":"VEC2"
		},
		{
			"bufferView":79,
			"componentType":5126,
			"count":591,
			"type":"VEC2"
		},
		{
			"bufferView":80,
			"componentType":5126,
			"count":591,
			"type":"VEC2"
		},
		{
			"bufferView":81,
			"componentType":5126,
			"count":591,
			"type":"VEC2"
		},
		{
			"bufferView":82,
			"componentType":5126,
			"count":591,
			"type":"VEC2"
		},
		{
			"bufferView":83,
			"componentType":5126,
			"count":591,
			"type":"VEC2"
		},
		{
			"bufferView":84,
			"componentType":5126,
			"count":591,
			"type":"VEC2"
		},
		{
			"bufferView":85,
			"componentType":5123,
			"count":825,
			"type":"SCALAR"
		},
		{
			"bufferView":86,
			"componentType":5126,
			"count":195,
			"max":[
				2.212883472442627,
				9.367246627807617,
				2.2709527015686035
			],
			"min":[
				-2.211677074432373,
				2.450239896774292,
				-2.271897792816162
			],
			"type":"VEC3"
		},
		{
			"bufferView":87,
			"componentType":5126,
			"count":195,
			"type":"VEC3"
		},
		{
			"bufferView":88,
			"componentType":5126,
			"count":195,
			"type":"VEC2"
		},
		{
			"bufferView":89,
			"componentType":5123,
			"count":504,
			"type":"SCALAR"
		},
		{
			"bufferView":90,
			"componentType":5126,
			"count":98,
			"max":[
				3.543053150177002,
				2.4411799907684326,
				3.5419774055480957
			],
			"min":[
				-3.541846752166748,
				-7.169450283050537,
				-3.5429224967956543
			],
			"type":"VEC3"
		},
		{
			"bufferView":91,
			"componentType":5126,
			"count":98,
			"type":"VEC3"
		},
		{
			"bufferView":92,
			"componentType":5126,
			"count":98,
			"type":"VEC2"
		},
		{
			"bufferView":93,
			"componentType":5123,
			"count":120,
			"type":"SCALAR"
		},
		{
			"bufferView":94,
			"componentType":5126,
			"count":1364,
			"max":[
				7.563913345336914,
				20.04054832458496,
				14.525655746459961
			],
			"min":[
				-7.523870468139648,
				-24.950115203857422,
				-15.537569046020508
			],
			"type":"VEC3"
		},
		{
			"bufferView":95,
			"componentType":5126,
			"count":1364,
			"type":"VEC3"
		},
		{
			"bufferView":96,
			"componentType":5126,
			"count":1364,
			"type":"VEC2"
		},
		{
			"bufferView":97,
			"componentType":5126,
			"count":1364,
			"type":"VEC2"
		},
		{
			"bufferView":98,
			"componentType":5126,
			"count":1364,
			"type":"VEC2"
		},
		{
			"bufferView":99,
			"componentType":5126,
			"count":1364,
			"type":"VEC2"
		},
		{
			"bufferView":100,
			"componentType":5126,
			"count":1364,
			"type":"VEC2"
		},
		{
			"bufferView":101,
			"componentType":5126,
			"count":1364,
			"type":"VEC2"
		},
		{
			"bufferView":102,
			"componentType":5126,
			"count":1364,
			"type":"VEC2"
		},
		{
			"bufferView":103,
			"componentType":5123,
			"count":2166,
			"type":"SCALAR"
		},
		{
			"bufferView":104,
			"componentType":5126,
			"count":856,
			"max":[
				7.705865859985352,
				20.618215560913086,
				14.667428970336914
			],
			"min":[
				-7.665822982788086,
				20.04054832458496,
				-15.67951774597168
			],
			"type":"VEC3"
		},
		{
			"bufferView":105,
			"componentType":5126,
			"count":856,
			"type":"VEC3"
		},
		{
			"bufferView":106,
			"componentType":5126,
			"count":856,
			"type":"VEC2"
		},
		{
			"bufferView":107,
			"componentType":5126,
			"count":856,
			"type":"VEC2"
		},
		{
			"bufferView":108,
			"componentType":5126,
			"count":856,
			"type":"VEC2"
		},
		{
			"bufferView":109,
			"componentType":5126,
			"count":856,
			"type":"VEC2"
		},
		{
			"bufferView":110,
			"componentType":5126,
			"count":856,
			"type":"VEC2"
		},
		{
			"bufferView":111,
			"componentType":5126,
			"count":856,
			"type":"VEC2"
		},
		{
			"bufferView":112,
			"componentType":5126,
			"count":856,
			"type":"VEC2"
		},
		{
			"bufferView":113,
			"componentType":5123,
			"count":1320,
			"type":"SCALAR"
		},
		{
			"bufferView":114,
			"componentType":5126,
			"count":5,
			"max":[
				7.563913345336914,
				20.04054832458496,
				14.525655746459961
			],
			"min":[
				-7.523855209350586,
				20.040380477905273,
				-15.534581184387207
			],
			"type":"VEC3"
		},
		{
			"bufferView":115,
			"componentType":5126,
			"count":5,
			"type":"VEC3"
		},
		{
			"bufferView":116,
			"componentType":5126,
			"count":5,
			"type":"VEC2"
		},
		{
			"bufferView":117,
			"componentType":5126,
			"count":5,
			"type":"VEC2"
		},
		{
			"bufferView":118,
			"componentType":5126,
			"count":5,
			"type":"VEC2"
		},
		{
			"bufferView":119,
			"componentType":5126,
			"count":5,
			"type":"VEC2"
		},
		{
			"bufferView":120,
			"componentType":5126,
			"count":5,
			"type":"VEC2"
		},
		{
			"bufferView":121,
			"componentType":5126,
			"count":5,
			"type":"VEC2"
		},
		{
			"bufferView":122,
			"componentType":5126,
			"count":5,
			"type":"VEC2"
		},
		{
			"bufferView":123,
			"componentType":5123,
			"count":9,
			"type":"SCALAR"
		},
		{
			"bufferView":124,
			"componentType":5126,
			"count":40,
			"max":[
				7.595529556274414,
				-21.09534454345703,
				16.565114974975586
			],
			"min":[
				-7.525426864624023,
				-24.96087074279785,
				14.190046310424805
			],
			"type":"VEC3"
		},
		{
			"bufferView":125,
			"componentType":5126,
			"count":40,
			"type":"VEC3"
		},
		{
			"bufferView":126,
			"componentType":5126,
			"count":40,
			"type":"VEC2"
		},
		{
			"bufferView":127,
			"componentType":5126,
			"count":40,
			"type":"VEC2"
		},
		{
			"bufferView":128,
			"componentType":5126,
			"count":40,
			"type":"VEC2"
		},
		{
			"bufferView":129,
			"componentType":5126,
			"count":40,
			"type":"VEC2"
		},
		{
			"bufferView":130,
			"componentType":5126,
			"count":40,
			"type":"VEC2"
		},
		{
			"bufferView":131,
			"componentType":5126,
			"count":40,
			"type":"VEC2"
		},
		{
			"bufferView":132,
			"componentType":5126,
			"count":40,
			"type":"VEC2"
		},
		{
			"bufferView":133,
			"componentType":5123,
			"count":60,
			"type":"SCALAR"
		},
		{
			"bufferView":134,
			"componentType":5126,
			"count":100,
			"max":[
				7.595529556274414,
				-20.620084762573242,
				16.565114974975586
			],
			"min":[
				-7.525426864624023,
				-21.09534454345703,
				14.190046310424805
			],
			"type":"VEC3"
		},
		{
			"bufferView":135,
			"componentType":5126,
			"count":100,
			"type":"VEC3"
		},
		{
			"bufferView":136,
			"componentType":5126,
			"count":100,
			"type":"VEC2"
		},
		{
			"bufferView":137,
			"componentType":5126,
			"count":100,
			"type":"VEC2"
		},
		{
			"bufferView":138,
			"componentType":5126,
			"count":100,
			"type":"VEC2"
		},
		{
			"bufferView":139,
			"componentType":5126,
			"count":100,
			"type":"VEC2"
		},
		{
			"bufferView":140,
			"componentType":5126,
			"count":100,
			"type":"VEC2"
		},
		{
			"bufferView":141,
			"componentType":5126,
			"count":100,
			"type":"VEC2"
		},
		{
			"bufferView":142,
			"componentType":5126,
			"count":100,
			"type":"VEC2"
		},
		{
			"bufferView":143,
			"componentType":5123,
			"count":150,
			"type":"SCALAR"
		},
		{
			"bufferView":144,
			"componentType":5126,
			"count":589,
			"max":[
				0.1450144648551941,
				2.017360210418701,
				0.155673086643219
			],
			"min":[
				-0.07080584019422531,
				-1.3957715034484863,
				-0.09652036428451538
			],
			"type":"VEC3"
		},
		{
			"bufferView":145,
			"componentType":5126,
			"count":589,
			"type":"VEC3"
		},
		{
			"bufferView":146,
			"componentType":5126,
			"count":589,
			"type":"VEC2"
		},
		{
			"bufferView":147,
			"componentType":5126,
			"count":589,
			"type":"VEC2"
		},
		{
			"bufferView":148,
			"componentType":5126,
			"count":589,
			"type":"VEC2"
		},
		{
			"bufferView":149,
			"componentType":5126,
			"count":589,
			"type":"VEC2"
		},
		{
			"bufferView":150,
			"componentType":5126,
			"count":589,
			"type":"VEC2"
		},
		{
			"bufferView":151,
			"componentType":5126,
			"count":589,
			"type":"VEC2"
		},
		{
			"bufferView":152,
			"componentType":5126,
			"count":589,
			"type":"VEC2"
		},
		{
			"bufferView":153,
			"componentType":5123,
			"count":717,
			"type":"SCALAR"
		},
		{
			"bufferView":154,
			"componentType":5126,
			"count":698,
			"max":[
				0.1495768427848816,
				1.1126208305358887,
				0.19995790719985962
			],
			"min":[
				-0.2034810185432434,
				-1.3525280952453613,
				-0.118832528591156
			],
			"type":"VEC3"
		},
		{
			"bufferView":155,
			"componentType":5126,
			"count":698,
			"type":"VEC3"
		},
		{
			"bufferView":156,
			"componentType":5126,
			"count":698,
			"type":"VEC2"
		},
		{
			"bufferView":157,
			"componentType":5126,
			"count":698,
			"type":"VEC2"
		},
		{
			"bufferView":158,
			"componentType":5126,
			"count":698,
			"type":"VEC2"
		},
		{
			"bufferView":159,
			"componentType":5126,
			"count":698,
			"type":"VEC2"
		},
		{
			"bufferView":160,
			"componentType":5126,
			"count":698,
			"type":"VEC2"
		},
		{
			"bufferView":161,
			"componentType":5126,
			"count":698,
			"type":"VEC2"
		},
		{
			"bufferView":162,
			"componentType":5126,
			"count":698,
			"type":"VEC2"
		},
		{
			"bufferView":163,
			"componentType":5123,
			"count":936,
			"type":"SCALAR"
		},
		{
			"bufferView":164,
			"componentType":5126,
			"count":589,
			"max":[
				0.1450144648551941,
				2.017360210418701,
				0.155673086643219
			],
			"min":[
				-0.07080584019422531,
				-1.3957715034484863,
				-0.09652036428451538
			],
			"type":"VEC3"
		},
		{
			"bufferView":165,
			"componentType":5126,
			"count":589,
			"type":"VEC3"
		},
		{
			"bufferView":166,
			"componentType":5126,
			"count":589,
			"type":"VEC2"
		},
		{
			"bufferView":167,
			"componentType":5126,
			"count":589,
			"type":"VEC2"
		},
		{
			"bufferView":168,
			"componentType":5126,
			"count":589,
			"type":"VEC2"
		},
		{
			"bufferView":169,
			"componentType":5126,
			"count":589,
			"type":"VEC2"
		},
		{
			"bufferView":170,
			"componentType":5126,
			"count":589,
			"type":"VEC2"
		},
		{
			"bufferView":171,
			"componentType":5126,
			"count":589,
			"type":"VEC2"
		},
		{
			"bufferView":172,
			"componentType":5126,
			"count":589,
			"type":"VEC2"
		},
		{
			"bufferView":173,
			"componentType":5126,
			"count":698,
			"max":[
				0.1495768427848816,
				1.1126208305358887,
				0.19995790719985962
			],
			"min":[
				-0.2034810185432434,
				-1.3525280952453613,
				-0.118832528591156
			],
			"type":"VEC3"
		},
		{
			"bufferView":174,
			"componentType":5126,
			"count":698,
			"type":"VEC3"
		},
		{
			"bufferView":175,
			"componentType":5126,
			"count":698,
			"type":"VEC2"
		},
		{
			"bufferView":176,
			"componentType":5126,
			"count":698,
			"type":"VEC2"
		},
		{
			"bufferView":177,
			"componentType":5126,
			"count":698,
			"type":"VEC2"
		},
		{
			"bufferView":178,
			"componentType":5126,
			"count":698,
			"type":"VEC2"
		},
		{
			"bufferView":179,
			"componentType":5126,
			"count":698,
			"type":"VEC2"
		},
		{
			"bufferView":180,
			"componentType":5126,
			"count":698,
			"type":"VEC2"
		},
		{
			"bufferView":181,
			"componentType":5126,
			"count":698,
			"type":"VEC2"
		}
	],
	"bufferViews":[
		{
			"buffer":0,
			"byteLength":288,
			"byteOffset":0,
			"target":34962
		},
		{
			"buffer":0,
			"byteLength":288,
			"byteOffset":288,
			"target":34962
		},
		{
			"buffer":0,
			"byteLength":192,
			"byteOffset":576,
			"target":34962
		},
		{
			"buffer":0,
			"byteLength":192,
			"byteOffset":768,
			"target":34962
		},
		{
			"buffer":0,
			"byteLength":192,
			"byteOffset":960,
			"target":34962
		},
		{
			"buffer":0,
			"byteLength":72,
			"byteOffset":1152,
			"target":34963
		},
		{
			"buffer":0,
			"byteLength":576,
			"byteOffset":1224,
			"target":34962
		},
		{
			"buffer":0,
			"byteLength":576,
			"byteOffset":1800,
			"target":34962
		},
		{
			"buffer":0,
			"byteLength":384,
			"byteOffset":2376,
			"target":34962
		},
		{
			"buffer":0,
			"byteLength":384,
			"byteOffset":2760,
			"target":34962
		},
		{
			"buffer":0,
			"byteLength":384,
			"byteOffset":3144,
			"target":34962
		},
		{
			"buffer":0,
			"byteLength":384,
			"byteOffset":3528,
			"target":34962
		},
		{
			"buffer":0,
			"byteLength":384,
			"byteOffset":3912,
			"target":34962
		},
		{
			"buffer":0,
			"byteLength":384,
			"byteOffset":4296,
			"target":34962
		},
		{
			"buffer":0,
			"byteLength":384,
			"byteOffset":4680,
			"target":34962
		},
		{
			"buffer":0,
			"byteLength":144,
			"byteOffset":5064,
			"target":34963
		},
		{
			"buffer":0,
			"byteLength":5700,
			"byteOffset":5208,
			"target":34962
		},
		{
			"buffer":0,
			"byteLength":5700,
			"byteOffset":10908,
			"target":34962
		},
		{
			"buffer":0,
			"byteLength":3800,
			"byteOffset":16608,
			"target":34962
		},
		{
			"buffer":0,
			"byteLength":3800,
			"byteOffset":20408,
			"target":34962
		},
		{
			"buffer":0,
			"byteLength":3800,
			"byteOffset":24208,
			"target":34962
		},
		{
			"buffer":0,
			"byteLength":3800,
			"byteOffset":28008,
			"target":34962
		},
		{
			"buffer":0,
			"byteLength":3800,
			"byteOffset":31808,
			"target":34962
		},
		{
			"buffer":0,
			"byteLength":3800,
			"byteOffset":35608,
			"target":34962
		},
		{
			"buffer":0,
			"byteLength":3800,
			"byteOffset":39408,
			"target":34962
		},
		{
			"buffer":0,
			"byteLength":1716,
			"byteOffset":43208,
			"target":34963
		},
		{
			"buffer":0,
			"byteLength":2628,
			"byteOffset":44924,
			"target":34962
		},
		{
			"buffer":0,
			"byteLength":2628,
			"byteOffset":47552,
			"target":34962
		},
		{
			"buffer":0,
			"byteLength":1752,
			"byteOffset":50180,
			"target":34962
		},
		{
			"buffer":0,
			"byteLength":1752,
			"byteOffset":51932,
			"target":34962
		},
		{
			"buffer":0,
			"byteLength":1752,
			"byteOffset":53684,
			"target":34962
		},
		{
			"buffer":0,
			"byteLength":1752,
			"byteOffset":55436,
			"target":34962
		},
		{
			"buffer":0,
			"byteLength":1752,
			"byteOffset":57188,
			"target":34962
		},
		{
			"buffer":0,
			"byteLength":1752,
			"byteOffset":58940,
			"target":34962
		},
		{
			"buffer":0,
			"byteLength":1752,
			"byteOffset":60692,
			"target":34962
		},
		{
			"buffer":0,
			"byteLength":534,
			"byteOffset":62444,
			"target":34963
		},
		{
			"buffer":0,
			"byteLength":10512,
			"byteOffset":62980,
			"target":34962
		},
		{
			"buffer":0,
			"byteLength":10512,
			"byteOffset":73492,
			"target":34962
		},
		{
			"buffer":0,
			"byteLength":7008,
			"byteOffset":84004,
			"target":34962
		},
		{
			"buffer":0,
			"byteLength":7008,
			"byteOffset":91012,
			"target":34962
		},
		{
			"buffer":0,
			"byteLength":7008,
			"byteOffset":98020,
			"target":34962
		},
		{
			"buffer":0,
			"byteLength":7008,
			"byteOffset":105028,
			"target":34962
		},
		{
			"buffer":0,
			"byteLength":7008,
			"byteOffset":112036,
			"target":34962
		},
		{
			"buffer":0,
			"byteLength":7008,
			"byteOffset":119044,
			"target":34962
		},
		{
			"buffer":0,
			"byteLength":7008,
			"byteOffset":126052,
			"target":34962
		},
		{
			"buffer":0,
			"byteLength":3108,
			"byteOffset":133060,
			"target":34963
		},
		{
			"buffer":0,
			"byteLength":4992,
			"byteOffset":136168,
			"target":34962
		},
		{
			"buffer":0,
			"byteLength":4992,
			"byteOffset":141160,
			"target":34962
		},
		{
			"buffer":0,
			"byteLength":3328,
			"byteOffset":146152,
			"target":34962
		},
		{
			"buffer":0,
			"byteLength":3328,
			"byteOffset":149480,
			"target":34962
		},
		{
			"buffer":0,
			"byteLength":3328,
			"byteOffset":152808,
			"target":34962
		},
		{
			"buffer":0,
			"byteLength":3328,
			"byteOffset":156136,
			"target":34962
		},
		{
			"buffer":0,
			"byteLength":3328,
			"byteOffset":159464,
			"target":34962
		},
		{
			"buffer":0,
			"byteLength":3328,
			"byteOffset":162792,
			"target":34962
		},
		{
			"buffer":0,
			"byteLength":3328,
			"byteOffset":166120,
			"target":34962
		},
		{
			"buffer":0,
			"byteLength":1416,
			"byteOffset":169448,
			"target":34963
		},
		{
			"buffer":0,
			"byteLength":480,
			"byteOffset":170864,
			"target":34962
		},
		{
			"buffer":0,
			"byteLength":480,
			"byteOffset":171344,
			"target":34962
		},
		{
			"buffer":0,
			"byteLength":320,
			"byteOffset":171824,
			"target":34962
		},
		{
			"buffer":0,
			"byteLength":320,
			"byteOffset":172144,
			"target":34962
		},
		{
			"buffer":0,
			"byteLength":320,
			"byteOffset":172464,
			"target":34962
		},
		{
			"buffer":0,
			"byteLength":320,
			"byteOffset":172784,
			"target":34962
		},
		{
			"buffer":0,
			"byteLength":320,
			"byteOffset":173104,
			"target":34962
		},
		{
			"buffer":0,
			"byteLength":320,
			"byteOffset":173424,
			"target":34962
		},
		{
			"buffer":0,
			"byteLength":320,
			"byteOffset":173744,
			"target":34962
		},
		{
			"buffer":0,
			"byteLength":120,
			"byteOffset":174064,
			"target":34963
		},
		{
			"buffer":0,
			"byteLength":5592,
			"byteOffset":174184,
			"target":34962
		},
		{
			"buffer":0,
			"byteLength":5592,
			"byteOffset":179776,
			"target":34962
		},
		{
			"buffer":0,
			"byteLength":3728,
			"byteOffset":185368,
			"target":34962
		},
		{
			"buffer":0,
			"byteLength":3728,
			"byteOffset":189096,
			"target":34962
		},
		{
			"buffer":0,
			"byteLength":3728,
			"byteOffset":192824,
			"target":34962
		},
		{
			"buffer":0,
			"byteLength":3728,
			"byteOffset":196552,
			"target":34962
		},
		{
			"buffer":0,
			"byteLength":3728,
			"byteOffset":200280,
			"target":34962
		},
		{
			"buffer":0,
			"byteLength":3728,
			"byteOffset":204008,
			"target":34962
		},
		{
			"buffer":0,
			"byteLength":3728,
			"byteOffset":207736,
			"target":34962
		},
		{
			"buffer":0,
			"byteLength":1410,
			"byteOffset":211464,
			"target":34963
		},
		{
			"buffer":0,
			"byteLength":7092,
			"byteOffset":212876,
			"target":34962
		},
		{
			"buffer":0,
			"byteLength":7092,
			"byteOffset":219968,
			"target":34962
		},
		{
			"buffer":0,
			"byteLength":4728,
			"byteOffset":227060,
			"target":34962
		},
		{
			"buffer":0,
			"byteLength":4728,
			"byteOffset":231788,
			"target":34962
		},
		{
			"buffer":0,
			"byteLength":4728,
			"byteOffset":236516,
			"target":34962
		},
		{
			"buffer":0,
			"byteLength":4728,
			"byteOffset":241244,
			"target":34962
		},
		{
			"buffer":0,
			"byteLength":4728,
			"byteOffset":245972,
			"target":34962
		},
		{
			"buffer":0,
			"byteLength":4728,
			"byteOffset":250700,
			"target":34962
		},
		{
			"buffer":0,
			"byteLength":4728,
			"byteOffset":255428,
			"target":34962
		},
		{
			"buffer":0,
			"byteLength":1650,
			"byteOffset":260156,
			"target":34963
		},
		{
			"buffer":0,
			"byteLength":2340,
			"byteOffset":261808,
			"target":34962
		},
		{
			"buffer":0,
			"byteLength":2340,
			"byteOffset":264148,
			"target":34962
		},
		{
			"buffer":0,
			"byteLength":1560,
			"byteOffset":266488,
			"target":34962
		},
		{
			"buffer":0,
			"byteLength":1008,
			"byteOffset":268048,
			"target":34963
		},
		{
			"buffer":0,
			"byteLength":1176,
			"byteOffset":269056,
			"target":34962
		},
		{
			"buffer":0,
			"byteLength":1176,
			"byteOffset":270232,
			"target":34962
		},
		{
			"buffer":0,
			"byteLength":784,
			"byteOffset":271408,
			"target":34962
		},
		{
			"buffer":0,
			"byteLength":240,
			"byteOffset":272192,
			"target":34963
		},
		{
			"buffer":0,
			"byteLength":16368,
			"byteOffset":272432,
			"target":34962
		},
		{
			"buffer":0,
			"byteLength":16368,
			"byteOffset":288800,
			"target":34962
		},
		{
			"buffer":0,
			"byteLength":10912,
			"byteOffset":305168,
			"target":34962
		},
		{
			"buffer":0,
			"byteLength":10912,
			"byteOffset":316080,
			"target":34962
		},
		{
			"buffer":0,
			"byteLength":10912,
			"byteOffset":326992,
			"target":34962
		},
		{
			"buffer":0,
			"byteLength":10912,
			"byteOffset":337904,
			"target":34962
		},
		{
			"buffer":0,
			"byteLength":10912,
			"byteOffset":348816,
			"target":34962
		},
		{
			"buffer":0,
			"byteLength":10912,
			"byteOffset":359728,
			"target":34962
		},
		{
			"buffer":0,
			"byteLength":10912,
			"byteOffset":370640,
			"target":34962
		},
		{
			"buffer":0,
			"byteLength":4332,
			"byteOffset":381552,
			"target":34963
		},
		{
			"buffer":0,
			"byteLength":10272,
			"byteOffset":385884,
			"target":34962
		},
		{
			"buffer":0,
			"byteLength":10272,
			"byteOffset":396156,
			"target":34962
		},
		{
			"buffer":0,
			"byteLength":6848,
			"byteOffset":406428,
			"target":34962
		},
		{
			"buffer":0,
			"byteLength":6848,
			"byteOffset":413276,
			"target":34962
		},
		{
			"buffer":0,
			"byteLength":6848,
			"byteOffset":420124,
			"target":34962
		},
		{
			"buffer":0,
			"byteLength":6848,
			"byteOffset":426972,
			"target":34962
		},
		{
			"buffer":0,
			"byteLength":6848,
			"byteOffset":433820,
			"target":34962
		},
		{
			"buffer":0,
			"byteLength":6848,
			"byteOffset":440668,
			"target":34962
		},
		{
			"buffer":0,
			"byteLength":6848,
			"byteOffset":447516,
			"target":34962
		},
		{
			"buffer":0,
			"byteLength":2640,
			"byteOffset":454364,
			"target":34963
		},
		{
			"buffer":0,
			"byteLength":60,
			"byteOffset":457004,
			"target":34962
		},
		{
			"buffer":0,
			"byteLength":60,
			"byteOffset":457064,
			"target":34962
		},
		{
			"buffer":0,
			"byteLength":40,
			"byteOffset":457124,
			"target":34962
		},
		{
			"buffer":0,
			"byteLength":40,
			"byteOffset":457164,
			"target":34962
		},
		{
			"buffer":0,
			"byteLength":40,
			"byteOffset":457204,
			"target":34962
		},
		{
			"buffer":0,
			"byteLength":40,
			"byteOffset":457244,
			"target":34962
		},
		{
			"buffer":0,
			"byteLength":40,
			"byteOffset":457284,
			"target":34962
		},
		{
			"buffer":0,
			"byteLength":40,
			"byteOffset":457324,
			"target":34962
		},
		{
			"buffer":0,
			"byteLength":40,
			"byteOffset":457364,
			"target":34962
		},
		{
			"buffer":0,
			"byteLength":18,
			"byteOffset":457404,
			"target":34963
		},
		{
			"buffer":0,
			"byteLength":480,
			"byteOffset":457424,
			"target":34962
		},
		{
			"buffer":0,
			"byteLength":480,
			"byteOffset":457904,
			"target":34962
		},
		{
			"buffer":0,
			"byteLength":320,
			"byteOffset":458384,
			"target":34962
		},
		{
			"buffer":0,
			"byteLength":320,
			"byteOffset":458704,
			"target":34962
		},
		{
			"buffer":0,
			"byteLength":320,
			"byteOffset":459024,
			"target":34962
		},
		{
			"buffer":0,
			"byteLength":320,
			"byteOffset":459344,
			"target":34962
		},
		{
			"buffer":0,
			"byteLength":320,
			"byteOffset":459664,
			"target":34962
		},
		{
			"buffer":0,
			"byteLength":320,
			"byteOffset":459984,
			"target":34962
		},
		{
			"buffer":0,
			"byteLength":320,
			"byteOffset":460304,
			"target":34962
		},
		{
			"buffer":0,
			"byteLength":120,
			"byteOffset":460624,
			"target":34963
		},
		{
			"buffer":0,
			"byteLength":1200,
			"byteOffset":460744,
			"target":34962
		},
		{
			"buffer":0,
			"byteLength":1200,
			"byteOffset":461944,
			"target":34962
		},
		{
			"buffer":0,
			"byteLength":800,
			"byteOffset":463144,
			"target":34962
		},
		{
			"buffer":0,
			"byteLength":800,
			"byteOffset":463944,
			"target":34962
		},
		{
			"buffer":0,
			"byteLength":800,
			"byteOffset":464744,
			"target":34962
		},
		{
			"buffer":0,
			"byteLength":800,
			"byteOffset":465544,
			"target":34962
		},
		{
			"buffer":0,
			"byteLength":800,
			"byteOffset":466344,
			"target":34962
		},
		{
			"buffer":0,
			"byteLength":800,
			"byteOffset":467144,
			"target":34962
		},
		{
			"buffer":0,
			"byteLength":800,
			"byteOffset":467944,
			"target":34962
		},
		{
			"buffer":0,
			"byteLength":300,
			"byteOffset":468744,
			"target":34963
		},
		{
			"buffer":0,
			"byteLength":7068,
			"byteOffset":469044,
			"target":34962
		},
		{
			"buffer":0,
			"byteLength":7068,
			"byteOffset":476112,
			"target":34962
		},
		{
			"buffer":0,
			"byteLength":4712,
			"byteOffset":483180,
			"target":34962
		},
		{
			"buffer":0,
			"byteLength":4712,
			"byteOffset":487892,
			"target":34962
		},
		{
			"buffer":0,
			"byteLength":4712,
			"byteOffset":492604,
			"target":34962
		},
		{
			"buffer":0,
			"byteLength":4712,
			"byteOffset":497316,
			"target":34962
		},
		{
			"buffer":0,
			"byteLength":4712,
			"byteOffset":502028,
			"target":34962
		},
		{
			"buffer":0,
			"byteLength":4712,
			"byteOffset":506740,
			"target":34962
		},
		{
			"buffer":0,
			"byteLength":4712,
			"byteOffset":511452,
			"target":34962
		},
		{
			"buffer":0,
			"byteLength":1434,
			"byteOffset":516164,
			"target":34963
		},
		{
			"buffer":0,
			"byteLength":8376,
			"byteOffset":517600,
			"target":34962
		},
		{
			"buffer":0,
			"byteLength":8376,
			"byteOffset":525976,
			"target":34962
		},
		{
			"buffer":0,
			"byteLength":5584,
			"byteOffset":534352,
			"target":34962
		},
		{
			"buffer":0,
			"byteLength":5584,
			"byteOffset":539936,
			"target":34962
		},
		{
			"buffer":0,
			"byteLength":5584,
			"byteOffset":545520,
			"target":34962
		},
		{
			"buffer":0,
			"byteLength":5584,
			"byteOffset":551104,
			"target":34962
		},
		{
			"buffer":0,
			"byteLength":5584,
			"byteOffset":556688,
			"target":34962
		},
		{
			"buffer":0,
			"byteLength":5584,
			"byteOffset":562272,
			"target":34962
		},
		{
			"buffer":0,
			"byteLength":5584,
			"byteOffset":567856,
			"target":34962
		},
		{
			"buffer":0,
			"byteLength":1872,
			"byteOffset":573440,
			"target":34963
		},
		{
			"buffer":0,
			"byteLength":7068,
			"byteOffset":575312,
			"target":34962
		},
		{
			"buffer":0,
			"byteLength":7068,
			"byteOffset":582380,
			"target":34962
		},
		{
			"buffer":0,
			"byteLength":4712,
			"byteOffset":589448,
			"target":34962
		},
		{
			"buffer":0,
			"byteLength":4712,
			"byteOffset":594160,
			"target":34962
		},
		{
			"buffer":0,
			"byteLength":4712,
			"byteOffset":598872,
			"target":34962
		},
		{
			"buffer":0,
			"byteLength":4712,
			"byteOffset":603584,
			"target":34962
		},
		{
			"buffer":0,
			"byteLength":4712,
			"byteOffset":608296,
			"target":34962
		},
		{
			"buffer":0,
			"byteLength":4712,
			"byteOffset":613008,
			"target":34962
		},
		{
			"buffer":0,
			"byteLength":4712,
			"byteOffset":617720,
			"target":34962
		},
		{
			"buffer":0,
			"byteLength":8376,
			"byteOffset":622432,
			"target":34962
		},
		{
			"buffer":0,
			"byteLength":8376,
			"byteOffset":630808,
			"target":34962
		},
		{
			"buffer":0,
			"byteLength":5584,
			"byteOffset":639184,
			"target":34962
		},
		{
			"buffer":0,
			"byteLength":5584,
			"byteOffset":644768,
			"target":34962
		},
		{
			"buffer":0,
			"byteLength":5584,
			"byteOffset":650352,
			"target":34962
		},
		{
			"buffer":0,
			"byteLength":5584,
			"byteOffset":655936,
			"target":34962
		},
		{
			"buffer":0,
			"byteLength":5584,
			"byteOffset":661520,
			"target":34962
		},
		{
			"buffer":0,
			"byteLength":5584,
			"byteOffset":667104,
			"target":34962
		},
		{
			"buffer":0,
			"byteLength":5584,
			"byteOffset":672688,
			"target":34962
		}
	],
	"samplers":[
		{
			"magFilter":9729,
			"minFilter":9987
		},
		{
			"magFilter":9729,
			"minFilter":9987,
			"wrapS":33071,
			"wrapT":33071
		}
	],
	"buffers":[
		{
			"byteLength":678272,
			"uri":"building10.bin"
		}
	]
}
