{
	"asset":{
		"generator":"Khronos glTF Blender I/O v4.2.70",
		"version":"2.0"
	},
	"extensionsUsed":[
		"KHR_materials_transmission",
		"KHR_texture_transform"
	],
	"extensionsRequired":[
		"KHR_texture_transform"
	],
	"scene":0,
	"scenes":[
		{
			"name":"Scene",
			"nodes":[
				0,
				1,
				2,
				3,
				4,
				5,
				6,
				7,
				8,
				9,
				10,
				11,
				12,
				13,
				14,
				15,
				16,
				17
			]
		}
	],
	"nodes":[
		{
			"mesh":0,
			"name":"Object_67.002",
			"translation":[
				9.838470458984375,
				45.25493621826172,
				84.9249038696289
			]
		},
		{
			"mesh":1,
			"name":"Object_79.001",
			"translation":[
				10.249004364013672,
				46.5660400390625,
				78.92088317871094
			]
		},
		{
			"mesh":2,
			"name":"Object_81.003",
			"translation":[
				-15.826894760131836,
				57.34549331665039,
				103.06292724609375
			]
		},
		{
			"mesh":3,
			"name":"Object_81.004",
			"translation":[
				-7.388375759124756,
				33.3712272644043,
				87.92591857910156
			]
		},
		{
			"mesh":4,
			"name":"Object_81.005",
			"translation":[
				-2.0326955318450928,
				33.27946472167969,
				91.75061798095703
			]
		},
		{
			"mesh":5,
			"name":"Object_81.006",
			"translation":[
				-7.918936252593994,
				33.34080123901367,
				79.55435943603516
			]
		},
		{
			"mesh":6,
			"name":"Object_81.007",
			"translation":[
				-14.745418548583984,
				33.282596588134766,
				82.34317016601562
			]
		},
		{
			"mesh":7,
			"name":"Object_85.001",
			"translation":[
				-7.529181003570557,
				57.71220016479492,
				100.78419494628906
			]
		},
		{
			"mesh":8,
			"name":"Object_85.002",
			"translation":[
				-5.284678936004639,
				33.858924865722656,
				77.7653579711914
			]
		},
		{
			"mesh":9,
			"name":"Object_87.001",
			"translation":[
				-11.764620780944824,
				33.44990539550781,
				82.9094467163086
			]
		},
		{
			"mesh":10,
			"name":"Object_91.003",
			"translation":[
				-12.779084205627441,
				33.477783203125,
				94.86852264404297
			]
		},
		{
			"mesh":11,
			"name":"Object_91.004",
			"translation":[
				-7.212184429168701,
				33.626155853271484,
				84.39315795898438
			]
		},
		{
			"mesh":12,
			"name":"Object_91.005",
			"translation":[
				-12.111400604248047,
				33.707462310791016,
				93.36524963378906
			]
		},
		{
			"mesh":13,
			"name":"Object_91.006",
			"translation":[
				3.4255521297454834,
				45.47422409057617,
				91.0658187866211
			]
		},
		{
			"mesh":14,
			"name":"Object_91.007",
			"translation":[
				5.245120525360107,
				45.3618049621582,
				96.33708190917969
			]
		},
		{
			"mesh":15,
			"name":"Object_95.003",
			"translation":[
				-3.794123649597168,
				37.23767852783203,
				85.95702362060547
			]
		},
		{
			"mesh":16,
			"name":"Object_99.001",
			"translation":[
				4.035534381866455,
				45.145992279052734,
				79.72930145263672
			]
		},
		{
			"mesh":17,
			"name":"Object_122.003",
			"translation":[
				-3.4601149559020996,
				27.006519317626953,
				92.10211181640625
			]
		}
	],
	"materials":[
		{
			"doubleSided":true,
			"name":"firescape",
			"pbrMetallicRoughness":{
				"baseColorFactor":[
					0.3023209869861603,
					0.3023209869861603,
					0.3023209869861603,
					1
				],
				"roughnessFactor":0.49351200461387634
			}
		},
		{
			"doubleSided":true,
			"name":"solar",
			"pbrMetallicRoughness":{
				"baseColorTexture":{
					"index":0
				},
				"metallicFactor":0.8799999952316284,
				"roughnessFactor":0
			}
		},
		{
			"doubleSided":true,
			"name":"material",
			"normalTexture":{
				"index":1
			},
			"pbrMetallicRoughness":{
				"baseColorTexture":{
					"index":2
				},
				"metallicFactor":0,
				"roughnessFactor":0.5
			}
		},
		{
			"alphaMode":"BLEND",
			"doubleSided":true,
			"extensions":{
				"KHR_materials_transmission":{
					"transmissionFactor":1
				}
			},
			"name":"CityGenGlass.001",
			"normalTexture":{
				"index":3,
				"scale":0.20000000298023224
			},
			"pbrMetallicRoughness":{
				"baseColorFactor":[
					1,
					1,
					1,
					0.25
				],
				"metallicFactor":0,
				"roughnessFactor":0
			}
		},
		{
			"doubleSided":true,
			"name":"CityGenbasic_rough_metal_dark_.001",
			"pbrMetallicRoughness":{
				"baseColorFactor":[
					0.13662800192832947,
					0.15541599690914154,
					0.13210399448871613,
					1
				],
				"roughnessFactor":0.4942860007286072
			}
		},
		{
			"doubleSided":true,
			"name":"CityGenbasic_metal.001",
			"pbrMetallicRoughness":{
				"baseColorFactor":[
					0.45012399554252625,
					0.45012399554252625,
					0.45012399554252625,
					1
				],
				"roughnessFactor":0.26060399413108826
			}
		},
		{
			"doubleSided":true,
			"name":"material_34",
			"pbrMetallicRoughness":{
				"baseColorTexture":{
					"index":4
				},
				"metallicFactor":0,
				"roughnessFactor":0.5
			}
		},
		{
			"doubleSided":true,
			"name":"CityGentextured_metal",
			"normalTexture":{
				"index":5
			},
			"pbrMetallicRoughness":{
				"baseColorTexture":{
					"index":6
				},
				"metallicRoughnessTexture":{
					"index":7
				}
			}
		},
		{
			"doubleSided":true,
			"name":"CityGenAC",
			"pbrMetallicRoughness":{
				"baseColorTexture":{
					"index":8
				},
				"metallicFactor":0,
				"roughnessFactor":0.5
			}
		},
		{
			"doubleSided":true,
			"name":"CityGenVent",
			"pbrMetallicRoughness":{
				"baseColorTexture":{
					"index":9
				},
				"metallicFactor":0,
				"roughnessFactor":0.5
			}
		},
		{
			"alphaMode":"BLEND",
			"doubleSided":true,
			"name":"Material.002",
			"normalTexture":{
				"index":10
			},
			"pbrMetallicRoughness":{
				"baseColorTexture":{
					"index":11
				},
				"metallicFactor":0,
				"roughnessFactor":0.5
			}
		},
		{
			"doubleSided":true,
			"name":"Material.003",
			"normalTexture":{
				"index":12
			},
			"pbrMetallicRoughness":{
				"baseColorFactor":[
					0.5764470100402832,
					0.5764470100402832,
					0.5764470100402832,
					1
				],
				"roughnessFactor":0.25636398792266846
			}
		},
		{
			"doubleSided":true,
			"emissiveFactor":[
				5.96045985901128e-08,
				5.96045985901128e-08,
				5.96045985901128e-08
			],
			"name":"CityGen_LR_Facades",
			"pbrMetallicRoughness":{
				"baseColorTexture":{
					"index":13
				},
				"metallicFactor":0,
				"metallicRoughnessTexture":{
					"index":14
				}
			}
		},
		{
			"doubleSided":true,
			"name":"CityGenyellow_stone",
			"normalTexture":{
				"index":15,
				"scale":0.10000000149011612
			},
			"pbrMetallicRoughness":{
				"baseColorFactor":[
					0.11748600006103516,
					0.091798797249794,
					0.056883398443460464,
					1
				],
				"metallicFactor":0,
				"metallicRoughnessTexture":{
					"index":16
				}
			}
		},
		{
			"doubleSided":true,
			"name":"CityGenroof.002",
			"normalTexture":{
				"index":17
			},
			"pbrMetallicRoughness":{
				"baseColorTexture":{
					"index":18
				},
				"metallicFactor":0,
				"roughnessFactor":0.5
			}
		},
		{
			"doubleSided":true,
			"name":"CityGenroof.001",
			"normalTexture":{
				"index":19
			},
			"pbrMetallicRoughness":{
				"baseColorTexture":{
					"index":20
				},
				"metallicFactor":0,
				"roughnessFactor":0.5
			}
		},
		{
			"doubleSided":true,
			"name":"CityGen_Curb",
			"normalTexture":{
				"index":21,
				"texCoord":2
			},
			"pbrMetallicRoughness":{
				"baseColorTexture":{
					"index":22
				},
				"metallicFactor":0,
				"metallicRoughnessTexture":{
					"index":23,
					"texCoord":1
				}
			}
		},
		{
			"doubleSided":true,
			"name":"CityGenwhite_marble_tiles",
			"normalTexture":{
				"extensions":{
					"KHR_texture_transform":{
						"offset":[
							0,
							0.8333330005407333
						],
						"scale":[
							0.16666699945926666,
							0.16666699945926666
						]
					}
				},
				"index":24
			},
			"pbrMetallicRoughness":{
				"baseColorTexture":{
					"extensions":{
						"KHR_texture_transform":{
							"offset":[
								0,
								0.8333330005407333
							],
							"scale":[
								0.16666699945926666,
								0.16666699945926666
							]
						}
					},
					"index":25
				},
				"metallicFactor":0,
				"metallicRoughnessTexture":{
					"extensions":{
						"KHR_texture_transform":{
							"offset":[
								0,
								0.8333330005407333
							],
							"scale":[
								0.16666699945926666,
								0.16666699945926666
							]
						}
					},
					"index":26
				}
			}
		},
		{
			"doubleSided":true,
			"name":"Material.001",
			"normalTexture":{
				"index":27
			},
			"pbrMetallicRoughness":{
				"baseColorFactor":[
					0.800000011920929,
					0.800000011920929,
					0.800000011920929,
					1
				],
				"roughnessFactor":0.30000001192092896
			}
		},
		{
			"doubleSided":true,
			"name":"CityGenbasic_dark_green",
			"normalTexture":{
				"index":28
			},
			"pbrMetallicRoughness":{
				"baseColorTexture":{
					"index":29
				},
				"metallicFactor":0,
				"metallicRoughnessTexture":{
					"index":30
				}
			}
		}
	],
	"meshes":[
		{
			"name":"Object_29.001",
			"primitives":[
				{
					"attributes":{
						"POSITION":0,
						"NORMAL":1,
						"TEXCOORD_0":2
					},
					"indices":3,
					"material":0
				},
				{
					"attributes":{
						"POSITION":4,
						"NORMAL":5,
						"TEXCOORD_0":6
					},
					"indices":7,
					"material":1
				}
			]
		},
		{
			"name":"Object_35.001",
			"primitives":[
				{
					"attributes":{
						"POSITION":8,
						"NORMAL":9,
						"TEXCOORD_0":10,
						"TEXCOORD_1":11,
						"TEXCOORD_2":12
					},
					"indices":13,
					"material":2
				}
			]
		},
		{
			"name":"Object_36.001",
			"primitives":[
				{
					"attributes":{
						"POSITION":14,
						"NORMAL":15,
						"TEXCOORD_0":16,
						"TEXCOORD_1":17,
						"TEXCOORD_2":18,
						"TEXCOORD_3":19,
						"TEXCOORD_4":20,
						"TEXCOORD_5":21,
						"TEXCOORD_6":22
					},
					"indices":23,
					"material":3
				},
				{
					"attributes":{
						"POSITION":24,
						"NORMAL":25,
						"TEXCOORD_0":26,
						"TEXCOORD_1":27,
						"TEXCOORD_2":28,
						"TEXCOORD_3":29,
						"TEXCOORD_4":30,
						"TEXCOORD_5":31,
						"TEXCOORD_6":32
					},
					"indices":33,
					"material":4
				}
			]
		},
		{
			"name":"Object_36.003",
			"primitives":[
				{
					"attributes":{
						"POSITION":34,
						"NORMAL":35,
						"TEXCOORD_0":36,
						"TEXCOORD_1":37,
						"TEXCOORD_2":38,
						"TEXCOORD_3":39,
						"TEXCOORD_4":40,
						"TEXCOORD_5":41,
						"TEXCOORD_6":42
					},
					"indices":43,
					"material":3
				},
				{
					"attributes":{
						"POSITION":44,
						"NORMAL":45,
						"TEXCOORD_0":46,
						"TEXCOORD_1":47,
						"TEXCOORD_2":48,
						"TEXCOORD_3":49,
						"TEXCOORD_4":50,
						"TEXCOORD_5":51,
						"TEXCOORD_6":52
					},
					"indices":53,
					"material":4
				}
			]
		},
		{
			"name":"Object_36.005",
			"primitives":[
				{
					"attributes":{
						"POSITION":54,
						"NORMAL":55,
						"TEXCOORD_0":56,
						"TEXCOORD_1":57,
						"TEXCOORD_2":58,
						"TEXCOORD_3":59,
						"TEXCOORD_4":60,
						"TEXCOORD_5":61,
						"TEXCOORD_6":62
					},
					"indices":63,
					"material":3
				},
				{
					"attributes":{
						"POSITION":64,
						"NORMAL":65,
						"TEXCOORD_0":66,
						"TEXCOORD_1":67,
						"TEXCOORD_2":68,
						"TEXCOORD_3":69,
						"TEXCOORD_4":70,
						"TEXCOORD_5":71,
						"TEXCOORD_6":72
					},
					"indices":73,
					"material":4
				}
			]
		},
		{
			"name":"Object_36.006",
			"primitives":[
				{
					"attributes":{
						"POSITION":74,
						"NORMAL":75,
						"TEXCOORD_0":76,
						"TEXCOORD_1":77,
						"TEXCOORD_2":78,
						"TEXCOORD_3":79,
						"TEXCOORD_4":80,
						"TEXCOORD_5":81,
						"TEXCOORD_6":82
					},
					"indices":83,
					"material":3
				},
				{
					"attributes":{
						"POSITION":84,
						"NORMAL":85,
						"TEXCOORD_0":86,
						"TEXCOORD_1":87,
						"TEXCOORD_2":88,
						"TEXCOORD_3":89,
						"TEXCOORD_4":90,
						"TEXCOORD_5":91,
						"TEXCOORD_6":92
					},
					"indices":93,
					"material":4
				}
			]
		},
		{
			"name":"Object_36.007",
			"primitives":[
				{
					"attributes":{
						"POSITION":94,
						"NORMAL":95,
						"TEXCOORD_0":96,
						"TEXCOORD_1":97,
						"TEXCOORD_2":98,
						"TEXCOORD_3":99,
						"TEXCOORD_4":100,
						"TEXCOORD_5":101,
						"TEXCOORD_6":102
					},
					"indices":103,
					"material":5
				},
				{
					"attributes":{
						"POSITION":104,
						"NORMAL":105,
						"TEXCOORD_0":106,
						"TEXCOORD_1":107,
						"TEXCOORD_2":108,
						"TEXCOORD_3":109,
						"TEXCOORD_4":110,
						"TEXCOORD_5":111,
						"TEXCOORD_6":112
					},
					"indices":113,
					"material":3
				}
			]
		},
		{
			"name":"Object_38.001",
			"primitives":[
				{
					"attributes":{
						"POSITION":114,
						"NORMAL":115,
						"TEXCOORD_0":116
					},
					"indices":117,
					"material":6
				}
			]
		},
		{
			"name":"Object_38.002",
			"primitives":[
				{
					"attributes":{
						"POSITION":118,
						"NORMAL":119,
						"TEXCOORD_0":120
					},
					"indices":117,
					"material":6
				}
			]
		},
		{
			"name":"Object_39.001",
			"primitives":[
				{
					"attributes":{
						"POSITION":121,
						"NORMAL":122,
						"TEXCOORD_0":123,
						"TEXCOORD_1":124,
						"TEXCOORD_2":125,
						"TEXCOORD_3":126,
						"TEXCOORD_4":127,
						"TEXCOORD_5":128,
						"TEXCOORD_6":129
					},
					"indices":130,
					"material":7
				}
			]
		},
		{
			"name":"Object_41.001",
			"primitives":[
				{
					"attributes":{
						"POSITION":131,
						"NORMAL":132,
						"TEXCOORD_0":133
					},
					"indices":134,
					"material":8
				}
			]
		},
		{
			"name":"Object_41.003",
			"primitives":[
				{
					"attributes":{
						"POSITION":135,
						"NORMAL":136,
						"TEXCOORD_0":137
					},
					"indices":138,
					"material":8
				}
			]
		},
		{
			"name":"Object_41.005",
			"primitives":[
				{
					"attributes":{
						"POSITION":139,
						"NORMAL":140,
						"TEXCOORD_0":141
					},
					"indices":142,
					"material":8
				},
				{
					"attributes":{
						"POSITION":143,
						"NORMAL":144,
						"TEXCOORD_0":145
					},
					"indices":146,
					"material":9
				}
			]
		},
		{
			"name":"Object_41.006",
			"primitives":[
				{
					"attributes":{
						"POSITION":147,
						"NORMAL":148,
						"TEXCOORD_0":149
					},
					"indices":150,
					"material":8
				},
				{
					"attributes":{
						"POSITION":151,
						"NORMAL":152,
						"TEXCOORD_0":153
					},
					"indices":154,
					"material":9
				}
			]
		},
		{
			"name":"Object_41.007",
			"primitives":[
				{
					"attributes":{
						"POSITION":155,
						"NORMAL":156,
						"TEXCOORD_0":157
					},
					"indices":158,
					"material":8
				},
				{
					"attributes":{
						"POSITION":159,
						"NORMAL":160,
						"TEXCOORD_0":161
					},
					"indices":162,
					"material":9
				}
			]
		},
		{
			"name":"Object_43.001",
			"primitives":[
				{
					"attributes":{
						"POSITION":163,
						"NORMAL":164,
						"TEXCOORD_0":165,
						"TEXCOORD_1":166,
						"TEXCOORD_2":167
					},
					"indices":168,
					"material":10
				}
			]
		},
		{
			"name":"Object_45.001",
			"primitives":[
				{
					"attributes":{
						"POSITION":169,
						"NORMAL":170,
						"TEXCOORD_0":171
					},
					"indices":172,
					"material":11
				}
			]
		},
		{
			"name":"Object_56.003",
			"primitives":[
				{
					"attributes":{
						"POSITION":173,
						"NORMAL":174,
						"TEXCOORD_0":175,
						"TEXCOORD_1":176,
						"TEXCOORD_2":177,
						"TEXCOORD_3":178,
						"TEXCOORD_4":179,
						"TEXCOORD_5":180,
						"TEXCOORD_6":181
					},
					"indices":182,
					"material":12
				},
				{
					"attributes":{
						"POSITION":183,
						"NORMAL":184,
						"TEXCOORD_0":185,
						"TEXCOORD_1":186,
						"TEXCOORD_2":187,
						"TEXCOORD_3":188,
						"TEXCOORD_4":189,
						"TEXCOORD_5":190,
						"TEXCOORD_6":191
					},
					"indices":192,
					"material":13
				},
				{
					"attributes":{
						"POSITION":193,
						"NORMAL":194,
						"TEXCOORD_0":195,
						"TEXCOORD_1":196,
						"TEXCOORD_2":197,
						"TEXCOORD_3":198,
						"TEXCOORD_4":199,
						"TEXCOORD_5":200,
						"TEXCOORD_6":201
					},
					"indices":202,
					"material":14
				},
				{
					"attributes":{
						"POSITION":203,
						"NORMAL":204,
						"TEXCOORD_0":205,
						"TEXCOORD_1":206,
						"TEXCOORD_2":207,
						"TEXCOORD_3":208,
						"TEXCOORD_4":209,
						"TEXCOORD_5":210,
						"TEXCOORD_6":211
					},
					"indices":212,
					"material":15
				},
				{
					"attributes":{
						"POSITION":213,
						"NORMAL":214,
						"TEXCOORD_0":215,
						"TEXCOORD_1":216,
						"TEXCOORD_2":217,
						"TEXCOORD_3":218,
						"TEXCOORD_4":219,
						"TEXCOORD_5":220,
						"TEXCOORD_6":221
					},
					"indices":222,
					"material":16
				},
				{
					"attributes":{
						"POSITION":223,
						"NORMAL":224,
						"TEXCOORD_0":225,
						"TEXCOORD_1":226,
						"TEXCOORD_2":227,
						"TEXCOORD_3":228,
						"TEXCOORD_4":229,
						"TEXCOORD_5":230,
						"TEXCOORD_6":231
					},
					"indices":232,
					"material":17
				},
				{
					"attributes":{
						"POSITION":233,
						"NORMAL":234,
						"TEXCOORD_0":235,
						"TEXCOORD_1":236,
						"TEXCOORD_2":237,
						"TEXCOORD_3":238,
						"TEXCOORD_4":239,
						"TEXCOORD_5":240,
						"TEXCOORD_6":241
					},
					"indices":242,
					"material":0
				},
				{
					"attributes":{
						"POSITION":243,
						"NORMAL":244,
						"TEXCOORD_0":245,
						"TEXCOORD_1":246,
						"TEXCOORD_2":247,
						"TEXCOORD_3":248,
						"TEXCOORD_4":249,
						"TEXCOORD_5":250,
						"TEXCOORD_6":251
					},
					"indices":252,
					"material":18
				},
				{
					"attributes":{
						"POSITION":253,
						"NORMAL":254,
						"TEXCOORD_0":255,
						"TEXCOORD_1":256,
						"TEXCOORD_2":257,
						"TEXCOORD_3":258,
						"TEXCOORD_4":259,
						"TEXCOORD_5":260,
						"TEXCOORD_6":261
					},
					"indices":262,
					"material":19
				}
			]
		}
	],
	"textures":[
		{
			"sampler":0,
			"source":0
		},
		{
			"sampler":0,
			"source":1
		},
		{
			"sampler":0,
			"source":2
		},
		{
			"sampler":0,
			"source":3
		},
		{
			"sampler":0,
			"source":4
		},
		{
			"sampler":0,
			"source":5
		},
		{
			"sampler":0,
			"source":6
		},
		{
			"sampler":0,
			"source":7
		},
		{
			"sampler":0,
			"source":8
		},
		{
			"sampler":0,
			"source":9
		},
		{
			"sampler":0,
			"source":10
		},
		{
			"sampler":0,
			"source":11
		},
		{
			"sampler":0,
			"source":12
		},
		{
			"sampler":1,
			"source":13
		},
		{
			"sampler":0,
			"source":14
		},
		{
			"sampler":0,
			"source":15
		},
		{
			"sampler":0,
			"source":16
		},
		{
			"sampler":0,
			"source":17
		},
		{
			"sampler":0,
			"source":18
		},
		{
			"sampler":0,
			"source":19
		},
		{
			"sampler":0,
			"source":20
		},
		{
			"sampler":0,
			"source":21
		},
		{
			"sampler":0,
			"source":22
		},
		{
			"sampler":0,
			"source":23
		},
		{
			"sampler":0,
			"source":24
		},
		{
			"sampler":0,
			"source":25
		},
		{
			"sampler":0,
			"source":26
		},
		{
			"sampler":0,
			"source":27
		},
		{
			"sampler":0,
			"source":28
		},
		{
			"sampler":0,
			"source":29
		},
		{
			"sampler":0,
			"source":30
		}
	],
	"images":[
		{
			"mimeType":"image/jpeg",
			"name":"Image_61",
			"uri":"../textures/Image_61.jpg"
		},
		{
			"mimeType":"image/jpeg",
			"name":"Image_47",
			"uri":"../textures/Image_47.jpg"
		},
		{
			"mimeType":"image/jpeg",
			"name":"Image_46",
			"uri":"../textures/Image_46.jpg"
		},
		{
			"mimeType":"image/jpeg",
			"name":"Image_48",
			"uri":"../textures/Image_48.jpg"
		},
		{
			"mimeType":"image/jpeg",
			"name":"Image_49",
			"uri":"../textures/Image_49.jpg"
		},
		{
			"mimeType":"image/jpeg",
			"name":"Image_52",
			"uri":"../textures/Image_52.jpg"
		},
		{
			"mimeType":"image/jpeg",
			"name":"Image_50",
			"uri":"../textures/Image_50.jpg"
		},
		{
			"mimeType":"image/png",
			"name":"Image_51",
			"uri":"../textures/Image_51.png"
		},
		{
			"mimeType":"image/jpeg",
			"name":"Image_53",
			"uri":"../textures/Image_53.jpg"
		},
		{
			"mimeType":"image/jpeg",
			"name":"Image_54",
			"uri":"../textures/Image_54.jpg"
		},
		{
			"mimeType":"image/jpeg",
			"name":"Image_56",
			"uri":"../textures/Image_56.jpg"
		},
		{
			"mimeType":"image/png",
			"name":"Image_55",
			"uri":"../textures/Image_55.png"
		},
		{
			"mimeType":"image/jpeg",
			"name":"Image_57",
			"uri":"../textures/Image_57.jpg"
		},
		{
			"mimeType":"image/jpeg",
			"name":"Image_37",
			"uri":"../textures/Image_37.jpg"
		},
		{
			"mimeType":"image/png",
			"name":"Image_38",
			"uri":"../textures/Image_38.png"
		},
		{
			"mimeType":"image/jpeg",
			"name":"Image_42",
			"uri":"../textures/Image_42.jpg"
		},
		{
			"mimeType":"image/png",
			"name":"Image_41",
			"uri":"../textures/Image_41.png"
		},
		{
			"mimeType":"image/jpeg",
			"name":"Image_33",
			"uri":"../textures/Image_33.jpg"
		},
		{
			"mimeType":"image/jpeg",
			"name":"Image_32",
			"uri":"../textures/Image_32.jpg"
		},
		{
			"mimeType":"image/jpeg",
			"name":"Image_31",
			"uri":"../textures/Image_31.jpg"
		},
		{
			"mimeType":"image/jpeg",
			"name":"Image_30",
			"uri":"../textures/Image_30.jpg"
		},
		{
			"mimeType":"image/jpeg",
			"name":"Image_11",
			"uri":"../textures/Image_11.jpg"
		},
		{
			"mimeType":"image/jpeg",
			"name":"Image_9",
			"uri":"../textures/Image_9.jpg"
		},
		{
			"mimeType":"image/png",
			"name":"Image_10",
			"uri":"../textures/Image_10.png"
		},
		{
			"mimeType":"image/jpeg",
			"name":"Image_45",
			"uri":"../textures/Image_45.jpg"
		},
		{
			"mimeType":"image/jpeg",
			"name":"Image_43",
			"uri":"../textures/Image_43.jpg"
		},
		{
			"mimeType":"image/png",
			"name":"Image_44",
			"uri":"../textures/Image_44.png"
		},
		{
			"mimeType":"image/jpeg",
			"name":"Image_36",
			"uri":"../textures/Image_36.jpg"
		},
		{
			"mimeType":"image/jpeg",
			"name":"Image_2",
			"uri":"../textures/Image_2.jpg"
		},
		{
			"mimeType":"image/jpeg",
			"name":"Image_0",
			"uri":"../textures/Image_0.jpg"
		},
		{
			"mimeType":"image/png",
			"name":"Image_1",
			"uri":"../textures/Image_1.png"
		}
	],
	"accessors":[
		{
			"bufferView":0,
			"componentType":5126,
			"count":36,
			"max":[
				0.8692936301231384,
				0.09268201887607574,
				2.068359375
			],
			"min":[
				-0.6844983696937561,
				-0.14559923112392426,
				-2.068359375
			],
			"type":"VEC3"
		},
		{
			"bufferView":1,
			"componentType":5126,
			"count":36,
			"type":"VEC3"
		},
		{
			"bufferView":2,
			"componentType":5126,
			"count":36,
			"type":"VEC2"
		},
		{
			"bufferView":3,
			"componentType":5123,
			"count":54,
			"type":"SCALAR"
		},
		{
			"bufferView":4,
			"componentType":5126,
			"count":36,
			"max":[
				0.9822964072227478,
				0.1628953367471695,
				2.0589675903320312
			],
			"min":[
				-1.0600152015686035,
				-0.14064012467861176,
				-2.0589675903320312
			],
			"type":"VEC3"
		},
		{
			"bufferView":5,
			"componentType":5126,
			"count":36,
			"type":"VEC3"
		},
		{
			"bufferView":6,
			"componentType":5126,
			"count":36,
			"type":"VEC2"
		},
		{
			"bufferView":7,
			"componentType":5123,
			"count":54,
			"type":"SCALAR"
		},
		{
			"bufferView":8,
			"componentType":5126,
			"count":24,
			"max":[
				1.4553031921386719,
				1.4553031921386719,
				1.009735107421875
			],
			"min":[
				-1.4553031921386719,
				-1.4553031921386719,
				-1.009735107421875
			],
			"type":"VEC3"
		},
		{
			"bufferView":9,
			"componentType":5126,
			"count":24,
			"type":"VEC3"
		},
		{
			"bufferView":10,
			"componentType":5126,
			"count":24,
			"type":"VEC2"
		},
		{
			"bufferView":11,
			"componentType":5126,
			"count":24,
			"type":"VEC2"
		},
		{
			"bufferView":12,
			"componentType":5126,
			"count":24,
			"type":"VEC2"
		},
		{
			"bufferView":13,
			"componentType":5123,
			"count":36,
			"type":"SCALAR"
		},
		{
			"bufferView":14,
			"componentType":5126,
			"count":48,
			"max":[
				0.6230984926223755,
				0.17963849008083344,
				1.0628981590270996
			],
			"min":[
				-0.4326590597629547,
				-0.12055911123752594,
				-1.0628952980041504
			],
			"type":"VEC3"
		},
		{
			"bufferView":15,
			"componentType":5126,
			"count":48,
			"type":"VEC3"
		},
		{
			"bufferView":16,
			"componentType":5126,
			"count":48,
			"type":"VEC2"
		},
		{
			"bufferView":17,
			"componentType":5126,
			"count":48,
			"type":"VEC2"
		},
		{
			"bufferView":18,
			"componentType":5126,
			"count":48,
			"type":"VEC2"
		},
		{
			"bufferView":19,
			"componentType":5126,
			"count":48,
			"type":"VEC2"
		},
		{
			"bufferView":20,
			"componentType":5126,
			"count":48,
			"type":"VEC2"
		},
		{
			"bufferView":21,
			"componentType":5126,
			"count":48,
			"type":"VEC2"
		},
		{
			"bufferView":22,
			"componentType":5126,
			"count":48,
			"type":"VEC2"
		},
		{
			"bufferView":23,
			"componentType":5123,
			"count":72,
			"type":"SCALAR"
		},
		{
			"bufferView":24,
			"componentType":5126,
			"count":418,
			"max":[
				0.644410252571106,
				0.20560894906520844,
				1.096665859222412
			],
			"min":[
				-0.4522513449192047,
				-0.22934283316135406,
				-1.096662998199463
			],
			"type":"VEC3"
		},
		{
			"bufferView":25,
			"componentType":5126,
			"count":418,
			"type":"VEC3"
		},
		{
			"bufferView":26,
			"componentType":5126,
			"count":418,
			"type":"VEC2"
		},
		{
			"bufferView":27,
			"componentType":5126,
			"count":418,
			"type":"VEC2"
		},
		{
			"bufferView":28,
			"componentType":5126,
			"count":418,
			"type":"VEC2"
		},
		{
			"bufferView":29,
			"componentType":5126,
			"count":418,
			"type":"VEC2"
		},
		{
			"bufferView":30,
			"componentType":5126,
			"count":418,
			"type":"VEC2"
		},
		{
			"bufferView":31,
			"componentType":5126,
			"count":418,
			"type":"VEC2"
		},
		{
			"bufferView":32,
			"componentType":5126,
			"count":418,
			"type":"VEC2"
		},
		{
			"bufferView":33,
			"componentType":5123,
			"count":858,
			"type":"SCALAR"
		},
		{
			"bufferView":34,
			"componentType":5126,
			"count":48,
			"max":[
				0.414266973733902,
				0.17197830975055695,
				1.0173091888427734
			],
			"min":[
				-0.5962215065956116,
				-0.11534851044416428,
				-1.0173282623291016
			],
			"type":"VEC3"
		},
		{
			"bufferView":35,
			"componentType":5126,
			"count":48,
			"type":"VEC3"
		},
		{
			"bufferView":36,
			"componentType":5126,
			"count":48,
			"type":"VEC2"
		},
		{
			"bufferView":37,
			"componentType":5126,
			"count":48,
			"type":"VEC2"
		},
		{
			"bufferView":38,
			"componentType":5126,
			"count":48,
			"type":"VEC2"
		},
		{
			"bufferView":39,
			"componentType":5126,
			"count":48,
			"type":"VEC2"
		},
		{
			"bufferView":40,
			"componentType":5126,
			"count":48,
			"type":"VEC2"
		},
		{
			"bufferView":41,
			"componentType":5126,
			"count":48,
			"type":"VEC2"
		},
		{
			"bufferView":42,
			"componentType":5126,
			"count":48,
			"type":"VEC2"
		},
		{
			"bufferView":43,
			"componentType":5123,
			"count":72,
			"type":"SCALAR"
		},
		{
			"bufferView":44,
			"componentType":5126,
			"count":500,
			"max":[
				0.43301811814308167,
				0.19683487713336945,
				1.0496273040771484
			],
			"min":[
				-0.6166196465492249,
				-0.21946685016155243,
				-1.0496463775634766
			],
			"type":"VEC3"
		},
		{
			"bufferView":45,
			"componentType":5126,
			"count":500,
			"type":"VEC3"
		},
		{
			"bufferView":46,
			"componentType":5126,
			"count":500,
			"type":"VEC2"
		},
		{
			"bufferView":47,
			"componentType":5126,
			"count":500,
			"type":"VEC2"
		},
		{
			"bufferView":48,
			"componentType":5126,
			"count":500,
			"type":"VEC2"
		},
		{
			"bufferView":49,
			"componentType":5126,
			"count":500,
			"type":"VEC2"
		},
		{
			"bufferView":50,
			"componentType":5126,
			"count":500,
			"type":"VEC2"
		},
		{
			"bufferView":51,
			"componentType":5126,
			"count":500,
			"type":"VEC2"
		},
		{
			"bufferView":52,
			"componentType":5126,
			"count":500,
			"type":"VEC2"
		},
		{
			"bufferView":53,
			"componentType":5123,
			"count":858,
			"type":"SCALAR"
		},
		{
			"bufferView":54,
			"componentType":5126,
			"count":48,
			"max":[
				0.24105879664421082,
				0.10007407516241074,
				0.5919668078422546
			],
			"min":[
				-0.3469363749027252,
				-0.06712029129266739,
				-0.5919778943061829
			],
			"type":"VEC3"
		},
		{
			"bufferView":55,
			"componentType":5126,
			"count":48,
			"type":"VEC3"
		},
		{
			"bufferView":56,
			"componentType":5126,
			"count":48,
			"type":"VEC2"
		},
		{
			"bufferView":57,
			"componentType":5126,
			"count":48,
			"type":"VEC2"
		},
		{
			"bufferView":58,
			"componentType":5126,
			"count":48,
			"type":"VEC2"
		},
		{
			"bufferView":59,
			"componentType":5126,
			"count":48,
			"type":"VEC2"
		},
		{
			"bufferView":60,
			"componentType":5126,
			"count":48,
			"type":"VEC2"
		},
		{
			"bufferView":61,
			"componentType":5126,
			"count":48,
			"type":"VEC2"
		},
		{
			"bufferView":62,
			"componentType":5126,
			"count":48,
			"type":"VEC2"
		},
		{
			"bufferView":63,
			"componentType":5123,
			"count":72,
			"type":"SCALAR"
		},
		{
			"bufferView":64,
			"componentType":5126,
			"count":513,
			"max":[
				0.2519699037075043,
				0.11453559249639511,
				0.6107732653617859
			],
			"min":[
				-0.3588060438632965,
				-0.12770530581474304,
				-0.6107843518257141
			],
			"type":"VEC3"
		},
		{
			"bufferView":65,
			"componentType":5126,
			"count":513,
			"type":"VEC3"
		},
		{
			"bufferView":66,
			"componentType":5126,
			"count":513,
			"type":"VEC2"
		},
		{
			"bufferView":67,
			"componentType":5126,
			"count":513,
			"type":"VEC2"
		},
		{
			"bufferView":68,
			"componentType":5126,
			"count":513,
			"type":"VEC2"
		},
		{
			"bufferView":69,
			"componentType":5126,
			"count":513,
			"type":"VEC2"
		},
		{
			"bufferView":70,
			"componentType":5126,
			"count":513,
			"type":"VEC2"
		},
		{
			"bufferView":71,
			"componentType":5126,
			"count":513,
			"type":"VEC2"
		},
		{
			"bufferView":72,
			"componentType":5126,
			"count":513,
			"type":"VEC2"
		},
		{
			"bufferView":73,
			"componentType":5123,
			"count":858,
			"type":"SCALAR"
		},
		{
			"bufferView":74,
			"componentType":5126,
			"count":48,
			"max":[
				0.8762766718864441,
				0.1481359452009201,
				0.5135636329650879
			],
			"min":[
				-0.8762930035591125,
				-0.09935780614614487,
				-0.3568282127380371
			],
			"type":"VEC3"
		},
		{
			"bufferView":75,
			"componentType":5126,
			"count":48,
			"type":"VEC3"
		},
		{
			"bufferView":76,
			"componentType":5126,
			"count":48,
			"type":"VEC2"
		},
		{
			"bufferView":77,
			"componentType":5126,
			"count":48,
			"type":"VEC2"
		},
		{
			"bufferView":78,
			"componentType":5126,
			"count":48,
			"type":"VEC2"
		},
		{
			"bufferView":79,
			"componentType":5126,
			"count":48,
			"type":"VEC2"
		},
		{
			"bufferView":80,
			"componentType":5126,
			"count":48,
			"type":"VEC2"
		},
		{
			"bufferView":81,
			"componentType":5126,
			"count":48,
			"type":"VEC2"
		},
		{
			"bufferView":82,
			"componentType":5126,
			"count":48,
			"type":"VEC2"
		},
		{
			"bufferView":83,
			"componentType":5123,
			"count":72,
			"type":"SCALAR"
		},
		{
			"bufferView":84,
			"componentType":5126,
			"count":503,
			"max":[
				0.9041125178337097,
				0.16954784095287323,
				0.5311341285705566
			],
			"min":[
				-0.9041288495063782,
				-0.18904133141040802,
				-0.37297964096069336
			],
			"type":"VEC3"
		},
		{
			"bufferView":85,
			"componentType":5126,
			"count":503,
			"type":"VEC3"
		},
		{
			"bufferView":86,
			"componentType":5126,
			"count":503,
			"type":"VEC2"
		},
		{
			"bufferView":87,
			"componentType":5126,
			"count":503,
			"type":"VEC2"
		},
		{
			"bufferView":88,
			"componentType":5126,
			"count":503,
			"type":"VEC2"
		},
		{
			"bufferView":89,
			"componentType":5126,
			"count":503,
			"type":"VEC2"
		},
		{
			"bufferView":90,
			"componentType":5126,
			"count":503,
			"type":"VEC2"
		},
		{
			"bufferView":91,
			"componentType":5126,
			"count":503,
			"type":"VEC2"
		},
		{
			"bufferView":92,
			"componentType":5126,
			"count":503,
			"type":"VEC2"
		},
		{
			"bufferView":93,
			"componentType":5123,
			"count":858,
			"type":"SCALAR"
		},
		{
			"bufferView":94,
			"componentType":5126,
			"count":280,
			"max":[
				0.4637669026851654,
				0.2592273950576782,
				0.982670783996582
			],
			"min":[
				-0.4638473093509674,
				-0.1308368742465973,
				-0.982722282409668
			],
			"type":"VEC3"
		},
		{
			"bufferView":95,
			"componentType":5126,
			"count":280,
			"type":"VEC3"
		},
		{
			"bufferView":96,
			"componentType":5126,
			"count":280,
			"type":"VEC2"
		},
		{
			"bufferView":97,
			"componentType":5126,
			"count":280,
			"type":"VEC2"
		},
		{
			"bufferView":98,
			"componentType":5126,
			"count":280,
			"type":"VEC2"
		},
		{
			"bufferView":99,
			"componentType":5126,
			"count":280,
			"type":"VEC2"
		},
		{
			"bufferView":100,
			"componentType":5126,
			"count":280,
			"type":"VEC2"
		},
		{
			"bufferView":101,
			"componentType":5126,
			"count":280,
			"type":"VEC2"
		},
		{
			"bufferView":102,
			"componentType":5126,
			"count":280,
			"type":"VEC2"
		},
		{
			"bufferView":103,
			"componentType":5123,
			"count":468,
			"type":"SCALAR"
		},
		{
			"bufferView":104,
			"componentType":5126,
			"count":42,
			"max":[
				0.3920973241329193,
				0.24583014845848083,
				0.9110002517700195
			],
			"min":[
				-0.3921777307987213,
				0.051456063985824585,
				-0.9110517501831055
			],
			"type":"VEC3"
		},
		{
			"bufferView":105,
			"componentType":5126,
			"count":42,
			"type":"VEC3"
		},
		{
			"bufferView":106,
			"componentType":5126,
			"count":42,
			"type":"VEC2"
		},
		{
			"bufferView":107,
			"componentType":5126,
			"count":42,
			"type":"VEC2"
		},
		{
			"bufferView":108,
			"componentType":5126,
			"count":42,
			"type":"VEC2"
		},
		{
			"bufferView":109,
			"componentType":5126,
			"count":42,
			"type":"VEC2"
		},
		{
			"bufferView":110,
			"componentType":5126,
			"count":42,
			"type":"VEC2"
		},
		{
			"bufferView":111,
			"componentType":5126,
			"count":42,
			"type":"VEC2"
		},
		{
			"bufferView":112,
			"componentType":5126,
			"count":42,
			"type":"VEC2"
		},
		{
			"bufferView":113,
			"componentType":5123,
			"count":60,
			"type":"SCALAR"
		},
		{
			"bufferView":114,
			"componentType":5126,
			"count":24,
			"max":[
				0.485370397567749,
				0.5915012359619141,
				0.229400634765625
			],
			"min":[
				-0.485370397567749,
				-0.5915012359619141,
				-0.229400634765625
			],
			"type":"VEC3"
		},
		{
			"bufferView":115,
			"componentType":5126,
			"count":24,
			"type":"VEC3"
		},
		{
			"bufferView":116,
			"componentType":5126,
			"count":24,
			"type":"VEC2"
		},
		{
			"bufferView":117,
			"componentType":5123,
			"count":36,
			"type":"SCALAR"
		},
		{
			"bufferView":118,
			"componentType":5126,
			"count":24,
			"max":[
				0.5758533477783203,
				0.7017707824707031,
				0.27216339111328125
			],
			"min":[
				-0.5758533477783203,
				-0.7017707824707031,
				-0.27216339111328125
			],
			"type":"VEC3"
		},
		{
			"bufferView":119,
			"componentType":5126,
			"count":24,
			"type":"VEC3"
		},
		{
			"bufferView":120,
			"componentType":5126,
			"count":24,
			"type":"VEC2"
		},
		{
			"bufferView":121,
			"componentType":5126,
			"count":403,
			"max":[
				1.3669968843460083,
				0.2652498185634613,
				0.29746830463409424
			],
			"min":[
				-1.3674677610397339,
				-0.2982725203037262,
				-0.29899775981903076
			],
			"type":"VEC3"
		},
		{
			"bufferView":122,
			"componentType":5126,
			"count":403,
			"type":"VEC3"
		},
		{
			"bufferView":123,
			"componentType":5126,
			"count":403,
			"type":"VEC2"
		},
		{
			"bufferView":124,
			"componentType":5126,
			"count":403,
			"type":"VEC2"
		},
		{
			"bufferView":125,
			"componentType":5126,
			"count":403,
			"type":"VEC2"
		},
		{
			"bufferView":126,
			"componentType":5126,
			"count":403,
			"type":"VEC2"
		},
		{
			"bufferView":127,
			"componentType":5126,
			"count":403,
			"type":"VEC2"
		},
		{
			"bufferView":128,
			"componentType":5126,
			"count":403,
			"type":"VEC2"
		},
		{
			"bufferView":129,
			"componentType":5126,
			"count":403,
			"type":"VEC2"
		},
		{
			"bufferView":130,
			"componentType":5123,
			"count":633,
			"type":"SCALAR"
		},
		{
			"bufferView":131,
			"componentType":5126,
			"count":269,
			"max":[
				0.7744521498680115,
				0.5203710198402405,
				0.4764323830604553
			],
			"min":[
				-0.5376825928688049,
				-0.32602253556251526,
				-0.4864277243614197
			],
			"type":"VEC3"
		},
		{
			"bufferView":132,
			"componentType":5126,
			"count":269,
			"type":"VEC3"
		},
		{
			"bufferView":133,
			"componentType":5126,
			"count":269,
			"type":"VEC2"
		},
		{
			"bufferView":134,
			"componentType":5123,
			"count":408,
			"type":"SCALAR"
		},
		{
			"bufferView":135,
			"componentType":5126,
			"count":393,
			"max":[
				0.692421555519104,
				0.7613270282745361,
				0.7817219495773315
			],
			"min":[
				-0.7054303884506226,
				-0.4743945896625519,
				-1.1231929063796997
			],
			"type":"VEC3"
		},
		{
			"bufferView":136,
			"componentType":5126,
			"count":393,
			"type":"VEC3"
		},
		{
			"bufferView":137,
			"componentType":5126,
			"count":393,
			"type":"VEC2"
		},
		{
			"bufferView":138,
			"componentType":5123,
			"count":582,
			"type":"SCALAR"
		},
		{
			"bufferView":139,
			"componentType":5126,
			"count":296,
			"max":[
				0.9956987500190735,
				0.4758395552635193,
				0.45180544257164
			],
			"min":[
				-0.9985200762748718,
				-0.5557003617286682,
				-0.45237699151039124
			],
			"type":"VEC3"
		},
		{
			"bufferView":140,
			"componentType":5126,
			"count":296,
			"type":"VEC3"
		},
		{
			"bufferView":141,
			"componentType":5126,
			"count":296,
			"type":"VEC2"
		},
		{
			"bufferView":142,
			"componentType":5123,
			"count":480,
			"type":"SCALAR"
		},
		{
			"bufferView":143,
			"componentType":5126,
			"count":24,
			"max":[
				0.9556911587715149,
				0.39587587118148804,
				0.41552767157554626
			],
			"min":[
				-0.9585124850273132,
				-0.5101681351661682,
				-0.41609159111976624
			],
			"type":"VEC3"
		},
		{
			"bufferView":144,
			"componentType":5126,
			"count":24,
			"type":"VEC3"
		},
		{
			"bufferView":145,
			"componentType":5126,
			"count":24,
			"type":"VEC2"
		},
		{
			"bufferView":146,
			"componentType":5123,
			"count":36,
			"type":"SCALAR"
		},
		{
			"bufferView":147,
			"componentType":5126,
			"count":296,
			"max":[
				0.2958596348762512,
				0.31125470995903015,
				0.6512112617492676
			],
			"min":[
				-0.2955781817436218,
				-0.3634927570819855,
				-0.6532397270202637
			],
			"type":"VEC3"
		},
		{
			"bufferView":148,
			"componentType":5126,
			"count":296,
			"type":"VEC3"
		},
		{
			"bufferView":149,
			"componentType":5126,
			"count":296,
			"type":"VEC2"
		},
		{
			"bufferView":150,
			"componentType":5123,
			"count":480,
			"type":"SCALAR"
		},
		{
			"bufferView":151,
			"componentType":5126,
			"count":24,
			"max":[
				0.2721286416053772,
				0.25894758105278015,
				0.6250424385070801
			],
			"min":[
				-0.2718474268913269,
				-0.3337114155292511,
				-0.6270709037780762
			],
			"type":"VEC3"
		},
		{
			"bufferView":152,
			"componentType":5126,
			"count":24,
			"type":"VEC3"
		},
		{
			"bufferView":153,
			"componentType":5126,
			"count":24,
			"type":"VEC2"
		},
		{
			"bufferView":154,
			"componentType":5123,
			"count":36,
			"type":"SCALAR"
		},
		{
			"bufferView":155,
			"componentType":5126,
			"count":296,
			"max":[
				0.4498671293258667,
				0.21498653292655945,
				0.2041603922843933
			],
			"min":[
				-0.45113813877105713,
				-0.2510703206062317,
				-0.20435553789138794
			],
			"type":"VEC3"
		},
		{
			"bufferView":156,
			"componentType":5126,
			"count":296,
			"type":"VEC3"
		},
		{
			"bufferView":157,
			"componentType":5126,
			"count":296,
			"type":"VEC2"
		},
		{
			"bufferView":158,
			"componentType":5123,
			"count":480,
			"type":"SCALAR"
		},
		{
			"bufferView":159,
			"componentType":5126,
			"count":24,
			"max":[
				0.4292949438095093,
				0.17885753512382507,
				0.18776482343673706
			],
			"min":[
				-0.43306219577789307,
				-0.23049762845039368,
				-0.18796759843826294
			],
			"type":"VEC3"
		},
		{
			"bufferView":160,
			"componentType":5126,
			"count":24,
			"type":"VEC3"
		},
		{
			"bufferView":161,
			"componentType":5126,
			"count":24,
			"type":"VEC2"
		},
		{
			"bufferView":162,
			"componentType":5123,
			"count":36,
			"type":"SCALAR"
		},
		{
			"bufferView":163,
			"componentType":5126,
			"count":513,
			"max":[
				1.0228862762451172,
				4.335270404815674,
				1.1755434274673462
			],
			"min":[
				-0.9655470848083496,
				-4.1585307121276855,
				-1.1941388845443726
			],
			"type":"VEC3"
		},
		{
			"bufferView":164,
			"componentType":5126,
			"count":513,
			"type":"VEC3"
		},
		{
			"bufferView":165,
			"componentType":5126,
			"count":513,
			"type":"VEC2"
		},
		{
			"bufferView":166,
			"componentType":5126,
			"count":513,
			"type":"VEC2"
		},
		{
			"bufferView":167,
			"componentType":5126,
			"count":513,
			"type":"VEC2"
		},
		{
			"bufferView":168,
			"componentType":5123,
			"count":531,
			"type":"SCALAR"
		},
		{
			"bufferView":169,
			"componentType":5126,
			"count":61,
			"max":[
				0.1747070997953415,
				0.013645227998495102,
				0.2247127741575241
			],
			"min":[
				-0.17455776035785675,
				-0.03410333767533302,
				-0.2245059758424759
			],
			"type":"VEC3"
		},
		{
			"bufferView":170,
			"componentType":5126,
			"count":61,
			"type":"VEC3"
		},
		{
			"bufferView":171,
			"componentType":5126,
			"count":61,
			"type":"VEC2"
		},
		{
			"bufferView":172,
			"componentType":5123,
			"count":102,
			"type":"SCALAR"
		},
		{
			"bufferView":173,
			"componentType":5126,
			"count":2320,
			"max":[
				16.311887741088867,
				30.109638214111328,
				15.561809539794922
			],
			"min":[
				-15.088674545288086,
				-26.927663803100586,
				-16.731555938720703
			],
			"type":"VEC3"
		},
		{
			"bufferView":174,
			"componentType":5126,
			"count":2320,
			"type":"VEC3"
		},
		{
			"bufferView":175,
			"componentType":5126,
			"count":2320,
			"type":"VEC2"
		},
		{
			"bufferView":176,
			"componentType":5126,
			"count":2320,
			"type":"VEC2"
		},
		{
			"bufferView":177,
			"componentType":5126,
			"count":2320,
			"type":"VEC2"
		},
		{
			"bufferView":178,
			"componentType":5126,
			"count":2320,
			"type":"VEC2"
		},
		{
			"bufferView":179,
			"componentType":5126,
			"count":2320,
			"type":"VEC2"
		},
		{
			"bufferView":180,
			"componentType":5126,
			"count":2320,
			"type":"VEC2"
		},
		{
			"bufferView":181,
			"componentType":5126,
			"count":2320,
			"type":"VEC2"
		},
		{
			"bufferView":182,
			"componentType":5123,
			"count":3612,
			"type":"SCALAR"
		},
		{
			"bufferView":183,
			"componentType":5126,
			"count":648,
			"max":[
				16.453834533691406,
				18.681873321533203,
				6.145931243896484
			],
			"min":[
				3.978238105773926,
				18.10421371459961,
				-16.873493194580078
			],
			"type":"VEC3"
		},
		{
			"bufferView":184,
			"componentType":5126,
			"count":648,
			"type":"VEC3"
		},
		{
			"bufferView":185,
			"componentType":5126,
			"count":648,
			"type":"VEC2"
		},
		{
			"bufferView":186,
			"componentType":5126,
			"count":648,
			"type":"VEC2"
		},
		{
			"bufferView":187,
			"componentType":5126,
			"count":648,
			"type":"VEC2"
		},
		{
			"bufferView":188,
			"componentType":5126,
			"count":648,
			"type":"VEC2"
		},
		{
			"bufferView":189,
			"componentType":5126,
			"count":648,
			"type":"VEC2"
		},
		{
			"bufferView":190,
			"componentType":5126,
			"count":648,
			"type":"VEC2"
		},
		{
			"bufferView":191,
			"componentType":5126,
			"count":648,
			"type":"VEC2"
		},
		{
			"bufferView":192,
			"componentType":5123,
			"count":1002,
			"type":"SCALAR"
		},
		{
			"bufferView":193,
			"componentType":5126,
			"count":8,
			"max":[
				16.302366256713867,
				30.109638214111328,
				15.561809539794922
			],
			"min":[
				-15.088674545288086,
				18.103878021240234,
				-16.731555938720703
			],
			"type":"VEC3"
		},
		{
			"bufferView":194,
			"componentType":5126,
			"count":8,
			"type":"VEC3"
		},
		{
			"bufferView":195,
			"componentType":5126,
			"count":8,
			"type":"VEC2"
		},
		{
			"bufferView":196,
			"componentType":5126,
			"count":8,
			"type":"VEC2"
		},
		{
			"bufferView":197,
			"componentType":5126,
			"count":8,
			"type":"VEC2"
		},
		{
			"bufferView":198,
			"componentType":5126,
			"count":8,
			"type":"VEC2"
		},
		{
			"bufferView":199,
			"componentType":5126,
			"count":8,
			"type":"VEC2"
		},
		{
			"bufferView":200,
			"componentType":5126,
			"count":8,
			"type":"VEC2"
		},
		{
			"bufferView":201,
			"componentType":5126,
			"count":8,
			"type":"VEC2"
		},
		{
			"bufferView":202,
			"componentType":5123,
			"count":12,
			"type":"SCALAR"
		},
		{
			"bufferView":203,
			"componentType":5126,
			"count":4,
			"max":[
				4.118616104125977,
				6.145240306854248,
				6.003978729248047
			],
			"min":[
				-15.088674545288086,
				6.144954204559326,
				-16.588451385498047
			],
			"type":"VEC3"
		},
		{
			"bufferView":204,
			"componentType":5126,
			"count":4,
			"type":"VEC3"
		},
		{
			"bufferView":205,
			"componentType":5126,
			"count":4,
			"type":"VEC2"
		},
		{
			"bufferView":206,
			"componentType":5126,
			"count":4,
			"type":"VEC2"
		},
		{
			"bufferView":207,
			"componentType":5126,
			"count":4,
			"type":"VEC2"
		},
		{
			"bufferView":208,
			"componentType":5126,
			"count":4,
			"type":"VEC2"
		},
		{
			"bufferView":209,
			"componentType":5126,
			"count":4,
			"type":"VEC2"
		},
		{
			"bufferView":210,
			"componentType":5126,
			"count":4,
			"type":"VEC2"
		},
		{
			"bufferView":211,
			"componentType":5126,
			"count":4,
			"type":"VEC2"
		},
		{
			"bufferView":212,
			"componentType":5123,
			"count":6,
			"type":"SCALAR"
		},
		{
			"bufferView":213,
			"componentType":5126,
			"count":568,
			"max":[
				4.118617534637451,
				7.1557841300964355,
				6.003978729248047
			],
			"min":[
				-15.088674545288086,
				6.144900798797607,
				-16.597942352294922
			],
			"type":"VEC3"
		},
		{
			"bufferView":214,
			"componentType":5126,
			"count":568,
			"type":"VEC3"
		},
		{
			"bufferView":215,
			"componentType":5126,
			"count":568,
			"type":"VEC2"
		},
		{
			"bufferView":216,
			"componentType":5126,
			"count":568,
			"type":"VEC2"
		},
		{
			"bufferView":217,
			"componentType":5126,
			"count":568,
			"type":"VEC2"
		},
		{
			"bufferView":218,
			"componentType":5126,
			"count":568,
			"type":"VEC2"
		},
		{
			"bufferView":219,
			"componentType":5126,
			"count":568,
			"type":"VEC2"
		},
		{
			"bufferView":220,
			"componentType":5126,
			"count":568,
			"type":"VEC2"
		},
		{
			"bufferView":221,
			"componentType":5126,
			"count":568,
			"type":"VEC2"
		},
		{
			"bufferView":222,
			"componentType":5123,
			"count":804,
			"type":"SCALAR"
		},
		{
			"bufferView":223,
			"componentType":5126,
			"count":347,
			"max":[
				4.405126094818115,
				31.120197296142578,
				15.848316192626953
			],
			"min":[
				-15.37518310546875,
				30.109256744384766,
				5.719074249267578
			],
			"type":"VEC3"
		},
		{
			"bufferView":224,
			"componentType":5126,
			"count":347,
			"type":"VEC3"
		},
		{
			"bufferView":225,
			"componentType":5126,
			"count":347,
			"type":"VEC2"
		},
		{
			"bufferView":226,
			"componentType":5126,
			"count":347,
			"type":"VEC2"
		},
		{
			"bufferView":227,
			"componentType":5126,
			"count":347,
			"type":"VEC2"
		},
		{
			"bufferView":228,
			"componentType":5126,
			"count":347,
			"type":"VEC2"
		},
		{
			"bufferView":229,
			"componentType":5126,
			"count":347,
			"type":"VEC2"
		},
		{
			"bufferView":230,
			"componentType":5126,
			"count":347,
			"type":"VEC2"
		},
		{
			"bufferView":231,
			"componentType":5126,
			"count":347,
			"type":"VEC2"
		},
		{
			"bufferView":232,
			"componentType":5123,
			"count":564,
			"type":"SCALAR"
		},
		{
			"bufferView":233,
			"componentType":5126,
			"count":11011,
			"max":[
				17.76224136352539,
				30.261016845703125,
				17.012149810791016
			],
			"min":[
				-16.539031982421875,
				-21.186840057373047,
				-18.111408233642578
			],
			"type":"VEC3"
		},
		{
			"bufferView":234,
			"componentType":5126,
			"count":11011,
			"type":"VEC3"
		},
		{
			"bufferView":235,
			"componentType":5126,
			"count":11011,
			"type":"VEC2"
		},
		{
			"bufferView":236,
			"componentType":5126,
			"count":11011,
			"type":"VEC2"
		},
		{
			"bufferView":237,
			"componentType":5126,
			"count":11011,
			"type":"VEC2"
		},
		{
			"bufferView":238,
			"componentType":5126,
			"count":11011,
			"type":"VEC2"
		},
		{
			"bufferView":239,
			"componentType":5126,
			"count":11011,
			"type":"VEC2"
		},
		{
			"bufferView":240,
			"componentType":5126,
			"count":11011,
			"type":"VEC2"
		},
		{
			"bufferView":241,
			"componentType":5126,
			"count":11011,
			"type":"VEC2"
		},
		{
			"bufferView":242,
			"componentType":5123,
			"count":17604,
			"type":"SCALAR"
		},
		{
			"bufferView":243,
			"componentType":5126,
			"count":160,
			"max":[
				16.313013076782227,
				-23.03167152404785,
				8.063961029052734
			],
			"min":[
				-15.088674545288086,
				-26.897197723388672,
				-18.79165267944336
			],
			"type":"VEC3"
		},
		{
			"bufferView":244,
			"componentType":5126,
			"count":160,
			"type":"VEC3"
		},
		{
			"bufferView":245,
			"componentType":5126,
			"count":160,
			"type":"VEC2"
		},
		{
			"bufferView":246,
			"componentType":5126,
			"count":160,
			"type":"VEC2"
		},
		{
			"bufferView":247,
			"componentType":5126,
			"count":160,
			"type":"VEC2"
		},
		{
			"bufferView":248,
			"componentType":5126,
			"count":160,
			"type":"VEC2"
		},
		{
			"bufferView":249,
			"componentType":5126,
			"count":160,
			"type":"VEC2"
		},
		{
			"bufferView":250,
			"componentType":5126,
			"count":160,
			"type":"VEC2"
		},
		{
			"bufferView":251,
			"componentType":5126,
			"count":160,
			"type":"VEC2"
		},
		{
			"bufferView":252,
			"componentType":5123,
			"count":240,
			"type":"SCALAR"
		},
		{
			"bufferView":253,
			"componentType":5126,
			"count":400,
			"max":[
				16.313013076782227,
				-22.556411743164062,
				8.063961029052734
			],
			"min":[
				-15.088674545288086,
				-23.03167152404785,
				-18.79165267944336
			],
			"type":"VEC3"
		},
		{
			"bufferView":254,
			"componentType":5126,
			"count":400,
			"type":"VEC3"
		},
		{
			"bufferView":255,
			"componentType":5126,
			"count":400,
			"type":"VEC2"
		},
		{
			"bufferView":256,
			"componentType":5126,
			"count":400,
			"type":"VEC2"
		},
		{
			"bufferView":257,
			"componentType":5126,
			"count":400,
			"type":"VEC2"
		},
		{
			"bufferView":258,
			"componentType":5126,
			"count":400,
			"type":"VEC2"
		},
		{
			"bufferView":259,
			"componentType":5126,
			"count":400,
			"type":"VEC2"
		},
		{
			"bufferView":260,
			"componentType":5126,
			"count":400,
			"type":"VEC2"
		},
		{
			"bufferView":261,
			"componentType":5126,
			"count":400,
			"type":"VEC2"
		},
		{
			"bufferView":262,
			"componentType":5123,
			"count":600,
			"type":"SCALAR"
		}
	],
	"bufferViews":[
		{
			"buffer":0,
			"byteLength":432,
			"byteOffset":0,
			"target":34962
		},
		{
			"buffer":0,
			"byteLength":432,
			"byteOffset":432,
			"target":34962
		},
		{
			"buffer":0,
			"byteLength":288,
			"byteOffset":864,
			"target":34962
		},
		{
			"buffer":0,
			"byteLength":108,
			"byteOffset":1152,
			"target":34963
		},
		{
			"buffer":0,
			"byteLength":432,
			"byteOffset":1260,
			"target":34962
		},
		{
			"buffer":0,
			"byteLength":432,
			"byteOffset":1692,
			"target":34962
		},
		{
			"buffer":0,
			"byteLength":288,
			"byteOffset":2124,
			"target":34962
		},
		{
			"buffer":0,
			"byteLength":108,
			"byteOffset":2412,
			"target":34963
		},
		{
			"buffer":0,
			"byteLength":288,
			"byteOffset":2520,
			"target":34962
		},
		{
			"buffer":0,
			"byteLength":288,
			"byteOffset":2808,
			"target":34962
		},
		{
			"buffer":0,
			"byteLength":192,
			"byteOffset":3096,
			"target":34962
		},
		{
			"buffer":0,
			"byteLength":192,
			"byteOffset":3288,
			"target":34962
		},
		{
			"buffer":0,
			"byteLength":192,
			"byteOffset":3480,
			"target":34962
		},
		{
			"buffer":0,
			"byteLength":72,
			"byteOffset":3672,
			"target":34963
		},
		{
			"buffer":0,
			"byteLength":576,
			"byteOffset":3744,
			"target":34962
		},
		{
			"buffer":0,
			"byteLength":576,
			"byteOffset":4320,
			"target":34962
		},
		{
			"buffer":0,
			"byteLength":384,
			"byteOffset":4896,
			"target":34962
		},
		{
			"buffer":0,
			"byteLength":384,
			"byteOffset":5280,
			"target":34962
		},
		{
			"buffer":0,
			"byteLength":384,
			"byteOffset":5664,
			"target":34962
		},
		{
			"buffer":0,
			"byteLength":384,
			"byteOffset":6048,
			"target":34962
		},
		{
			"buffer":0,
			"byteLength":384,
			"byteOffset":6432,
			"target":34962
		},
		{
			"buffer":0,
			"byteLength":384,
			"byteOffset":6816,
			"target":34962
		},
		{
			"buffer":0,
			"byteLength":384,
			"byteOffset":7200,
			"target":34962
		},
		{
			"buffer":0,
			"byteLength":144,
			"byteOffset":7584,
			"target":34963
		},
		{
			"buffer":0,
			"byteLength":5016,
			"byteOffset":7728,
			"target":34962
		},
		{
			"buffer":0,
			"byteLength":5016,
			"byteOffset":12744,
			"target":34962
		},
		{
			"buffer":0,
			"byteLength":3344,
			"byteOffset":17760,
			"target":34962
		},
		{
			"buffer":0,
			"byteLength":3344,
			"byteOffset":21104,
			"target":34962
		},
		{
			"buffer":0,
			"byteLength":3344,
			"byteOffset":24448,
			"target":34962
		},
		{
			"buffer":0,
			"byteLength":3344,
			"byteOffset":27792,
			"target":34962
		},
		{
			"buffer":0,
			"byteLength":3344,
			"byteOffset":31136,
			"target":34962
		},
		{
			"buffer":0,
			"byteLength":3344,
			"byteOffset":34480,
			"target":34962
		},
		{
			"buffer":0,
			"byteLength":3344,
			"byteOffset":37824,
			"target":34962
		},
		{
			"buffer":0,
			"byteLength":1716,
			"byteOffset":41168,
			"target":34963
		},
		{
			"buffer":0,
			"byteLength":576,
			"byteOffset":42884,
			"target":34962
		},
		{
			"buffer":0,
			"byteLength":576,
			"byteOffset":43460,
			"target":34962
		},
		{
			"buffer":0,
			"byteLength":384,
			"byteOffset":44036,
			"target":34962
		},
		{
			"buffer":0,
			"byteLength":384,
			"byteOffset":44420,
			"target":34962
		},
		{
			"buffer":0,
			"byteLength":384,
			"byteOffset":44804,
			"target":34962
		},
		{
			"buffer":0,
			"byteLength":384,
			"byteOffset":45188,
			"target":34962
		},
		{
			"buffer":0,
			"byteLength":384,
			"byteOffset":45572,
			"target":34962
		},
		{
			"buffer":0,
			"byteLength":384,
			"byteOffset":45956,
			"target":34962
		},
		{
			"buffer":0,
			"byteLength":384,
			"byteOffset":46340,
			"target":34962
		},
		{
			"buffer":0,
			"byteLength":144,
			"byteOffset":46724,
			"target":34963
		},
		{
			"buffer":0,
			"byteLength":6000,
			"byteOffset":46868,
			"target":34962
		},
		{
			"buffer":0,
			"byteLength":6000,
			"byteOffset":52868,
			"target":34962
		},
		{
			"buffer":0,
			"byteLength":4000,
			"byteOffset":58868,
			"target":34962
		},
		{
			"buffer":0,
			"byteLength":4000,
			"byteOffset":62868,
			"target":34962
		},
		{
			"buffer":0,
			"byteLength":4000,
			"byteOffset":66868,
			"target":34962
		},
		{
			"buffer":0,
			"byteLength":4000,
			"byteOffset":70868,
			"target":34962
		},
		{
			"buffer":0,
			"byteLength":4000,
			"byteOffset":74868,
			"target":34962
		},
		{
			"buffer":0,
			"byteLength":4000,
			"byteOffset":78868,
			"target":34962
		},
		{
			"buffer":0,
			"byteLength":4000,
			"byteOffset":82868,
			"target":34962
		},
		{
			"buffer":0,
			"byteLength":1716,
			"byteOffset":86868,
			"target":34963
		},
		{
			"buffer":0,
			"byteLength":576,
			"byteOffset":88584,
			"target":34962
		},
		{
			"buffer":0,
			"byteLength":576,
			"byteOffset":89160,
			"target":34962
		},
		{
			"buffer":0,
			"byteLength":384,
			"byteOffset":89736,
			"target":34962
		},
		{
			"buffer":0,
			"byteLength":384,
			"byteOffset":90120,
			"target":34962
		},
		{
			"buffer":0,
			"byteLength":384,
			"byteOffset":90504,
			"target":34962
		},
		{
			"buffer":0,
			"byteLength":384,
			"byteOffset":90888,
			"target":34962
		},
		{
			"buffer":0,
			"byteLength":384,
			"byteOffset":91272,
			"target":34962
		},
		{
			"buffer":0,
			"byteLength":384,
			"byteOffset":91656,
			"target":34962
		},
		{
			"buffer":0,
			"byteLength":384,
			"byteOffset":92040,
			"target":34962
		},
		{
			"buffer":0,
			"byteLength":144,
			"byteOffset":92424,
			"target":34963
		},
		{
			"buffer":0,
			"byteLength":6156,
			"byteOffset":92568,
			"target":34962
		},
		{
			"buffer":0,
			"byteLength":6156,
			"byteOffset":98724,
			"target":34962
		},
		{
			"buffer":0,
			"byteLength":4104,
			"byteOffset":104880,
			"target":34962
		},
		{
			"buffer":0,
			"byteLength":4104,
			"byteOffset":108984,
			"target":34962
		},
		{
			"buffer":0,
			"byteLength":4104,
			"byteOffset":113088,
			"target":34962
		},
		{
			"buffer":0,
			"byteLength":4104,
			"byteOffset":117192,
			"target":34962
		},
		{
			"buffer":0,
			"byteLength":4104,
			"byteOffset":121296,
			"target":34962
		},
		{
			"buffer":0,
			"byteLength":4104,
			"byteOffset":125400,
			"target":34962
		},
		{
			"buffer":0,
			"byteLength":4104,
			"byteOffset":129504,
			"target":34962
		},
		{
			"buffer":0,
			"byteLength":1716,
			"byteOffset":133608,
			"target":34963
		},
		{
			"buffer":0,
			"byteLength":576,
			"byteOffset":135324,
			"target":34962
		},
		{
			"buffer":0,
			"byteLength":576,
			"byteOffset":135900,
			"target":34962
		},
		{
			"buffer":0,
			"byteLength":384,
			"byteOffset":136476,
			"target":34962
		},
		{
			"buffer":0,
			"byteLength":384,
			"byteOffset":136860,
			"target":34962
		},
		{
			"buffer":0,
			"byteLength":384,
			"byteOffset":137244,
			"target":34962
		},
		{
			"buffer":0,
			"byteLength":384,
			"byteOffset":137628,
			"target":34962
		},
		{
			"buffer":0,
			"byteLength":384,
			"byteOffset":138012,
			"target":34962
		},
		{
			"buffer":0,
			"byteLength":384,
			"byteOffset":138396,
			"target":34962
		},
		{
			"buffer":0,
			"byteLength":384,
			"byteOffset":138780,
			"target":34962
		},
		{
			"buffer":0,
			"byteLength":144,
			"byteOffset":139164,
			"target":34963
		},
		{
			"buffer":0,
			"byteLength":6036,
			"byteOffset":139308,
			"target":34962
		},
		{
			"buffer":0,
			"byteLength":6036,
			"byteOffset":145344,
			"target":34962
		},
		{
			"buffer":0,
			"byteLength":4024,
			"byteOffset":151380,
			"target":34962
		},
		{
			"buffer":0,
			"byteLength":4024,
			"byteOffset":155404,
			"target":34962
		},
		{
			"buffer":0,
			"byteLength":4024,
			"byteOffset":159428,
			"target":34962
		},
		{
			"buffer":0,
			"byteLength":4024,
			"byteOffset":163452,
			"target":34962
		},
		{
			"buffer":0,
			"byteLength":4024,
			"byteOffset":167476,
			"target":34962
		},
		{
			"buffer":0,
			"byteLength":4024,
			"byteOffset":171500,
			"target":34962
		},
		{
			"buffer":0,
			"byteLength":4024,
			"byteOffset":175524,
			"target":34962
		},
		{
			"buffer":0,
			"byteLength":1716,
			"byteOffset":179548,
			"target":34963
		},
		{
			"buffer":0,
			"byteLength":3360,
			"byteOffset":181264,
			"target":34962
		},
		{
			"buffer":0,
			"byteLength":3360,
			"byteOffset":184624,
			"target":34962
		},
		{
			"buffer":0,
			"byteLength":2240,
			"byteOffset":187984,
			"target":34962
		},
		{
			"buffer":0,
			"byteLength":2240,
			"byteOffset":190224,
			"target":34962
		},
		{
			"buffer":0,
			"byteLength":2240,
			"byteOffset":192464,
			"target":34962
		},
		{
			"buffer":0,
			"byteLength":2240,
			"byteOffset":194704,
			"target":34962
		},
		{
			"buffer":0,
			"byteLength":2240,
			"byteOffset":196944,
			"target":34962
		},
		{
			"buffer":0,
			"byteLength":2240,
			"byteOffset":199184,
			"target":34962
		},
		{
			"buffer":0,
			"byteLength":2240,
			"byteOffset":201424,
			"target":34962
		},
		{
			"buffer":0,
			"byteLength":936,
			"byteOffset":203664,
			"target":34963
		},
		{
			"buffer":0,
			"byteLength":504,
			"byteOffset":204600,
			"target":34962
		},
		{
			"buffer":0,
			"byteLength":504,
			"byteOffset":205104,
			"target":34962
		},
		{
			"buffer":0,
			"byteLength":336,
			"byteOffset":205608,
			"target":34962
		},
		{
			"buffer":0,
			"byteLength":336,
			"byteOffset":205944,
			"target":34962
		},
		{
			"buffer":0,
			"byteLength":336,
			"byteOffset":206280,
			"target":34962
		},
		{
			"buffer":0,
			"byteLength":336,
			"byteOffset":206616,
			"target":34962
		},
		{
			"buffer":0,
			"byteLength":336,
			"byteOffset":206952,
			"target":34962
		},
		{
			"buffer":0,
			"byteLength":336,
			"byteOffset":207288,
			"target":34962
		},
		{
			"buffer":0,
			"byteLength":336,
			"byteOffset":207624,
			"target":34962
		},
		{
			"buffer":0,
			"byteLength":120,
			"byteOffset":207960,
			"target":34963
		},
		{
			"buffer":0,
			"byteLength":288,
			"byteOffset":208080,
			"target":34962
		},
		{
			"buffer":0,
			"byteLength":288,
			"byteOffset":208368,
			"target":34962
		},
		{
			"buffer":0,
			"byteLength":192,
			"byteOffset":208656,
			"target":34962
		},
		{
			"buffer":0,
			"byteLength":72,
			"byteOffset":208848,
			"target":34963
		},
		{
			"buffer":0,
			"byteLength":288,
			"byteOffset":208920,
			"target":34962
		},
		{
			"buffer":0,
			"byteLength":288,
			"byteOffset":209208,
			"target":34962
		},
		{
			"buffer":0,
			"byteLength":192,
			"byteOffset":209496,
			"target":34962
		},
		{
			"buffer":0,
			"byteLength":4836,
			"byteOffset":209688,
			"target":34962
		},
		{
			"buffer":0,
			"byteLength":4836,
			"byteOffset":214524,
			"target":34962
		},
		{
			"buffer":0,
			"byteLength":3224,
			"byteOffset":219360,
			"target":34962
		},
		{
			"buffer":0,
			"byteLength":3224,
			"byteOffset":222584,
			"target":34962
		},
		{
			"buffer":0,
			"byteLength":3224,
			"byteOffset":225808,
			"target":34962
		},
		{
			"buffer":0,
			"byteLength":3224,
			"byteOffset":229032,
			"target":34962
		},
		{
			"buffer":0,
			"byteLength":3224,
			"byteOffset":232256,
			"target":34962
		},
		{
			"buffer":0,
			"byteLength":3224,
			"byteOffset":235480,
			"target":34962
		},
		{
			"buffer":0,
			"byteLength":3224,
			"byteOffset":238704,
			"target":34962
		},
		{
			"buffer":0,
			"byteLength":1266,
			"byteOffset":241928,
			"target":34963
		},
		{
			"buffer":0,
			"byteLength":3228,
			"byteOffset":243196,
			"target":34962
		},
		{
			"buffer":0,
			"byteLength":3228,
			"byteOffset":246424,
			"target":34962
		},
		{
			"buffer":0,
			"byteLength":2152,
			"byteOffset":249652,
			"target":34962
		},
		{
			"buffer":0,
			"byteLength":816,
			"byteOffset":251804,
			"target":34963
		},
		{
			"buffer":0,
			"byteLength":4716,
			"byteOffset":252620,
			"target":34962
		},
		{
			"buffer":0,
			"byteLength":4716,
			"byteOffset":257336,
			"target":34962
		},
		{
			"buffer":0,
			"byteLength":3144,
			"byteOffset":262052,
			"target":34962
		},
		{
			"buffer":0,
			"byteLength":1164,
			"byteOffset":265196,
			"target":34963
		},
		{
			"buffer":0,
			"byteLength":3552,
			"byteOffset":266360,
			"target":34962
		},
		{
			"buffer":0,
			"byteLength":3552,
			"byteOffset":269912,
			"target":34962
		},
		{
			"buffer":0,
			"byteLength":2368,
			"byteOffset":273464,
			"target":34962
		},
		{
			"buffer":0,
			"byteLength":960,
			"byteOffset":275832,
			"target":34963
		},
		{
			"buffer":0,
			"byteLength":288,
			"byteOffset":276792,
			"target":34962
		},
		{
			"buffer":0,
			"byteLength":288,
			"byteOffset":277080,
			"target":34962
		},
		{
			"buffer":0,
			"byteLength":192,
			"byteOffset":277368,
			"target":34962
		},
		{
			"buffer":0,
			"byteLength":72,
			"byteOffset":277560,
			"target":34963
		},
		{
			"buffer":0,
			"byteLength":3552,
			"byteOffset":277632,
			"target":34962
		},
		{
			"buffer":0,
			"byteLength":3552,
			"byteOffset":281184,
			"target":34962
		},
		{
			"buffer":0,
			"byteLength":2368,
			"byteOffset":284736,
			"target":34962
		},
		{
			"buffer":0,
			"byteLength":960,
			"byteOffset":287104,
			"target":34963
		},
		{
			"buffer":0,
			"byteLength":288,
			"byteOffset":288064,
			"target":34962
		},
		{
			"buffer":0,
			"byteLength":288,
			"byteOffset":288352,
			"target":34962
		},
		{
			"buffer":0,
			"byteLength":192,
			"byteOffset":288640,
			"target":34962
		},
		{
			"buffer":0,
			"byteLength":72,
			"byteOffset":288832,
			"target":34963
		},
		{
			"buffer":0,
			"byteLength":3552,
			"byteOffset":288904,
			"target":34962
		},
		{
			"buffer":0,
			"byteLength":3552,
			"byteOffset":292456,
			"target":34962
		},
		{
			"buffer":0,
			"byteLength":2368,
			"byteOffset":296008,
			"target":34962
		},
		{
			"buffer":0,
			"byteLength":960,
			"byteOffset":298376,
			"target":34963
		},
		{
			"buffer":0,
			"byteLength":288,
			"byteOffset":299336,
			"target":34962
		},
		{
			"buffer":0,
			"byteLength":288,
			"byteOffset":299624,
			"target":34962
		},
		{
			"buffer":0,
			"byteLength":192,
			"byteOffset":299912,
			"target":34962
		},
		{
			"buffer":0,
			"byteLength":72,
			"byteOffset":300104,
			"target":34963
		},
		{
			"buffer":0,
			"byteLength":6156,
			"byteOffset":300176,
			"target":34962
		},
		{
			"buffer":0,
			"byteLength":6156,
			"byteOffset":306332,
			"target":34962
		},
		{
			"buffer":0,
			"byteLength":4104,
			"byteOffset":312488,
			"target":34962
		},
		{
			"buffer":0,
			"byteLength":4104,
			"byteOffset":316592,
			"target":34962
		},
		{
			"buffer":0,
			"byteLength":4104,
			"byteOffset":320696,
			"target":34962
		},
		{
			"buffer":0,
			"byteLength":1062,
			"byteOffset":324800,
			"target":34963
		},
		{
			"buffer":0,
			"byteLength":732,
			"byteOffset":325864,
			"target":34962
		},
		{
			"buffer":0,
			"byteLength":732,
			"byteOffset":326596,
			"target":34962
		},
		{
			"buffer":0,
			"byteLength":488,
			"byteOffset":327328,
			"target":34962
		},
		{
			"buffer":0,
			"byteLength":204,
			"byteOffset":327816,
			"target":34963
		},
		{
			"buffer":0,
			"byteLength":27840,
			"byteOffset":328020,
			"target":34962
		},
		{
			"buffer":0,
			"byteLength":27840,
			"byteOffset":355860,
			"target":34962
		},
		{
			"buffer":0,
			"byteLength":18560,
			"byteOffset":383700,
			"target":34962
		},
		{
			"buffer":0,
			"byteLength":18560,
			"byteOffset":402260,
			"target":34962
		},
		{
			"buffer":0,
			"byteLength":18560,
			"byteOffset":420820,
			"target":34962
		},
		{
			"buffer":0,
			"byteLength":18560,
			"byteOffset":439380,
			"target":34962
		},
		{
			"buffer":0,
			"byteLength":18560,
			"byteOffset":457940,
			"target":34962
		},
		{
			"buffer":0,
			"byteLength":18560,
			"byteOffset":476500,
			"target":34962
		},
		{
			"buffer":0,
			"byteLength":18560,
			"byteOffset":495060,
			"target":34962
		},
		{
			"buffer":0,
			"byteLength":7224,
			"byteOffset":513620,
			"target":34963
		},
		{
			"buffer":0,
			"byteLength":7776,
			"byteOffset":520844,
			"target":34962
		},
		{
			"buffer":0,
			"byteLength":7776,
			"byteOffset":528620,
			"target":34962
		},
		{
			"buffer":0,
			"byteLength":5184,
			"byteOffset":536396,
			"target":34962
		},
		{
			"buffer":0,
			"byteLength":5184,
			"byteOffset":541580,
			"target":34962
		},
		{
			"buffer":0,
			"byteLength":5184,
			"byteOffset":546764,
			"target":34962
		},
		{
			"buffer":0,
			"byteLength":5184,
			"byteOffset":551948,
			"target":34962
		},
		{
			"buffer":0,
			"byteLength":5184,
			"byteOffset":557132,
			"target":34962
		},
		{
			"buffer":0,
			"byteLength":5184,
			"byteOffset":562316,
			"target":34962
		},
		{
			"buffer":0,
			"byteLength":5184,
			"byteOffset":567500,
			"target":34962
		},
		{
			"buffer":0,
			"byteLength":2004,
			"byteOffset":572684,
			"target":34963
		},
		{
			"buffer":0,
			"byteLength":96,
			"byteOffset":574688,
			"target":34962
		},
		{
			"buffer":0,
			"byteLength":96,
			"byteOffset":574784,
			"target":34962
		},
		{
			"buffer":0,
			"byteLength":64,
			"byteOffset":574880,
			"target":34962
		},
		{
			"buffer":0,
			"byteLength":64,
			"byteOffset":574944,
			"target":34962
		},
		{
			"buffer":0,
			"byteLength":64,
			"byteOffset":575008,
			"target":34962
		},
		{
			"buffer":0,
			"byteLength":64,
			"byteOffset":575072,
			"target":34962
		},
		{
			"buffer":0,
			"byteLength":64,
			"byteOffset":575136,
			"target":34962
		},
		{
			"buffer":0,
			"byteLength":64,
			"byteOffset":575200,
			"target":34962
		},
		{
			"buffer":0,
			"byteLength":64,
			"byteOffset":575264,
			"target":34962
		},
		{
			"buffer":0,
			"byteLength":24,
			"byteOffset":575328,
			"target":34963
		},
		{
			"buffer":0,
			"byteLength":48,
			"byteOffset":575352,
			"target":34962
		},
		{
			"buffer":0,
			"byteLength":48,
			"byteOffset":575400,
			"target":34962
		},
		{
			"buffer":0,
			"byteLength":32,
			"byteOffset":575448,
			"target":34962
		},
		{
			"buffer":0,
			"byteLength":32,
			"byteOffset":575480,
			"target":34962
		},
		{
			"buffer":0,
			"byteLength":32,
			"byteOffset":575512,
			"target":34962
		},
		{
			"buffer":0,
			"byteLength":32,
			"byteOffset":575544,
			"target":34962
		},
		{
			"buffer":0,
			"byteLength":32,
			"byteOffset":575576,
			"target":34962
		},
		{
			"buffer":0,
			"byteLength":32,
			"byteOffset":575608,
			"target":34962
		},
		{
			"buffer":0,
			"byteLength":32,
			"byteOffset":575640,
			"target":34962
		},
		{
			"buffer":0,
			"byteLength":12,
			"byteOffset":575672,
			"target":34963
		},
		{
			"buffer":0,
			"byteLength":6816,
			"byteOffset":575684,
			"target":34962
		},
		{
			"buffer":0,
			"byteLength":6816,
			"byteOffset":582500,
			"target":34962
		},
		{
			"buffer":0,
			"byteLength":4544,
			"byteOffset":589316,
			"target":34962
		},
		{
			"buffer":0,
			"byteLength":4544,
			"byteOffset":593860,
			"target":34962
		},
		{
			"buffer":0,
			"byteLength":4544,
			"byteOffset":598404,
			"target":34962
		},
		{
			"buffer":0,
			"byteLength":4544,
			"byteOffset":602948,
			"target":34962
		},
		{
			"buffer":0,
			"byteLength":4544,
			"byteOffset":607492,
			"target":34962
		},
		{
			"buffer":0,
			"byteLength":4544,
			"byteOffset":612036,
			"target":34962
		},
		{
			"buffer":0,
			"byteLength":4544,
			"byteOffset":616580,
			"target":34962
		},
		{
			"buffer":0,
			"byteLength":1608,
			"byteOffset":621124,
			"target":34963
		},
		{
			"buffer":0,
			"byteLength":4164,
			"byteOffset":622732,
			"target":34962
		},
		{
			"buffer":0,
			"byteLength":4164,
			"byteOffset":626896,
			"target":34962
		},
		{
			"buffer":0,
			"byteLength":2776,
			"byteOffset":631060,
			"target":34962
		},
		{
			"buffer":0,
			"byteLength":2776,
			"byteOffset":633836,
			"target":34962
		},
		{
			"buffer":0,
			"byteLength":2776,
			"byteOffset":636612,
			"target":34962
		},
		{
			"buffer":0,
			"byteLength":2776,
			"byteOffset":639388,
			"target":34962
		},
		{
			"buffer":0,
			"byteLength":2776,
			"byteOffset":642164,
			"target":34962
		},
		{
			"buffer":0,
			"byteLength":2776,
			"byteOffset":644940,
			"target":34962
		},
		{
			"buffer":0,
			"byteLength":2776,
			"byteOffset":647716,
			"target":34962
		},
		{
			"buffer":0,
			"byteLength":1128,
			"byteOffset":650492,
			"target":34963
		},
		{
			"buffer":0,
			"byteLength":132132,
			"byteOffset":651620,
			"target":34962
		},
		{
			"buffer":0,
			"byteLength":132132,
			"byteOffset":783752,
			"target":34962
		},
		{
			"buffer":0,
			"byteLength":88088,
			"byteOffset":915884,
			"target":34962
		},
		{
			"buffer":0,
			"byteLength":88088,
			"byteOffset":1003972,
			"target":34962
		},
		{
			"buffer":0,
			"byteLength":88088,
			"byteOffset":1092060,
			"target":34962
		},
		{
			"buffer":0,
			"byteLength":88088,
			"byteOffset":1180148,
			"target":34962
		},
		{
			"buffer":0,
			"byteLength":88088,
			"byteOffset":1268236,
			"target":34962
		},
		{
			"buffer":0,
			"byteLength":88088,
			"byteOffset":1356324,
			"target":34962
		},
		{
			"buffer":0,
			"byteLength":88088,
			"byteOffset":1444412,
			"target":34962
		},
		{
			"buffer":0,
			"byteLength":35208,
			"byteOffset":1532500,
			"target":34963
		},
		{
			"buffer":0,
			"byteLength":1920,
			"byteOffset":1567708,
			"target":34962
		},
		{
			"buffer":0,
			"byteLength":1920,
			"byteOffset":1569628,
			"target":34962
		},
		{
			"buffer":0,
			"byteLength":1280,
			"byteOffset":1571548,
			"target":34962
		},
		{
			"buffer":0,
			"byteLength":1280,
			"byteOffset":1572828,
			"target":34962
		},
		{
			"buffer":0,
			"byteLength":1280,
			"byteOffset":1574108,
			"target":34962
		},
		{
			"buffer":0,
			"byteLength":1280,
			"byteOffset":1575388,
			"target":34962
		},
		{
			"buffer":0,
			"byteLength":1280,
			"byteOffset":1576668,
			"target":34962
		},
		{
			"buffer":0,
			"byteLength":1280,
			"byteOffset":1577948,
			"target":34962
		},
		{
			"buffer":0,
			"byteLength":1280,
			"byteOffset":1579228,
			"target":34962
		},
		{
			"buffer":0,
			"byteLength":480,
			"byteOffset":1580508,
			"target":34963
		},
		{
			"buffer":0,
			"byteLength":4800,
			"byteOffset":1580988,
			"target":34962
		},
		{
			"buffer":0,
			"byteLength":4800,
			"byteOffset":1585788,
			"target":34962
		},
		{
			"buffer":0,
			"byteLength":3200,
			"byteOffset":1590588,
			"target":34962
		},
		{
			"buffer":0,
			"byteLength":3200,
			"byteOffset":1593788,
			"target":34962
		},
		{
			"buffer":0,
			"byteLength":3200,
			"byteOffset":1596988,
			"target":34962
		},
		{
			"buffer":0,
			"byteLength":3200,
			"byteOffset":1600188,
			"target":34962
		},
		{
			"buffer":0,
			"byteLength":3200,
			"byteOffset":1603388,
			"target":34962
		},
		{
			"buffer":0,
			"byteLength":3200,
			"byteOffset":1606588,
			"target":34962
		},
		{
			"buffer":0,
			"byteLength":3200,
			"byteOffset":1609788,
			"target":34962
		},
		{
			"buffer":0,
			"byteLength":1200,
			"byteOffset":1612988,
			"target":34963
		}
	],
	"samplers":[
		{
			"magFilter":9729,
			"minFilter":9987
		},
		{
			"magFilter":9729,
			"minFilter":9987,
			"wrapS":33071,
			"wrapT":33071
		}
	],
	"buffers":[
		{
			"byteLength":1614188,
			"uri":"building7.bin"
		}
	]
}
