{
	"asset":{
		"generator":"Khronos glTF Blender I/O v4.2.70",
		"version":"2.0"
	},
	"extensionsUsed":[
		"KHR_materials_transmission"
	],
	"scene":0,
	"scenes":[
		{
			"name":"Scene",
			"nodes":[
				0,
				1,
				2,
				3,
				4,
				5,
				6,
				7,
				8,
				9,
				10,
				11,
				12,
				13,
				14,
				15,
				16,
				17,
				18,
				19
			]
		}
	],
	"nodes":[
		{
			"mesh":0,
			"name":"Object_99.124",
			"translation":[
				12.477188110351562,
				48.14301300048828,
				32.141056060791016
			]
		},
		{
			"mesh":1,
			"name":"Object_99.125",
			"translation":[
				13.378082275390625,
				48.29944610595703,
				38.97208786010742
			]
		},
		{
			"mesh":2,
			"name":"Object_99.126",
			"translation":[
				14.963104248046875,
				48.705684661865234,
				29.212757110595703
			]
		},
		{
			"mesh":3,
			"name":"Object_99.127",
			"translation":[
				15.991218566894531,
				48.67715835571289,
				25.22308349609375
			]
		},
		{
			"mesh":4,
			"name":"Object_99.128",
			"translation":[
				29.777923583984375,
				48.4556999206543,
				18.521549224853516
			]
		},
		{
			"mesh":5,
			"name":"Object_99.129",
			"translation":[
				20.960609436035156,
				48.41752624511719,
				20.31114959716797
			]
		},
		{
			"mesh":6,
			"name":"Object_99.130",
			"translation":[
				20.258209228515625,
				48.5548210144043,
				24.577865600585938
			]
		},
		{
			"mesh":7,
			"name":"Object_99.131",
			"translation":[
				25.423194885253906,
				48.14917755126953,
				20.402498245239258
			]
		},
		{
			"mesh":8,
			"name":"Object_99.132",
			"translation":[
				29.152427673339844,
				48.17153549194336,
				24.837432861328125
			]
		},
		{
			"mesh":9,
			"name":"Object_99.133",
			"translation":[
				20.69415283203125,
				48.14274597167969,
				28.07293701171875
			]
		},
		{
			"mesh":10,
			"name":"Object_99.134",
			"translation":[
				26.313385009765625,
				53.416805267333984,
				33.5423698425293
			]
		},
		{
			"mesh":11,
			"name":"Object_99.135",
			"translation":[
				24.49786376953125,
				48.347991943359375,
				30.57847785949707
			]
		},
		{
			"mesh":12,
			"name":"Object_99.136",
			"translation":[
				33.87969970703125,
				48.243492126464844,
				32.090492248535156
			]
		},
		{
			"mesh":13,
			"name":"Object_99.137",
			"translation":[
				34.325706481933594,
				48.474910736083984,
				36.73468780517578
			]
		},
		{
			"mesh":14,
			"name":"Object_99.138",
			"translation":[
				31.356536865234375,
				48.3763313293457,
				38.80098342895508
			]
		},
		{
			"mesh":15,
			"name":"Object_99.139",
			"translation":[
				27.322303771972656,
				48.15348815917969,
				39.83365249633789
			]
		},
		{
			"mesh":16,
			"name":"Object_99.140",
			"translation":[
				34.87194061279297,
				48.231327056884766,
				40.49368667602539
			]
		},
		{
			"mesh":17,
			"name":"Object_99.141",
			"translation":[
				16.101768493652344,
				48.37177658081055,
				40.97148513793945
			]
		},
		{
			"mesh":18,
			"name":"Object_99.142",
			"translation":[
				21.870635986328125,
				48.3057861328125,
				46.66118621826172
			]
		},
		{
			"mesh":19,
			"name":"Object_118.005",
			"translation":[
				23.65357208251953,
				24.998750686645508,
				32.95679473876953
			]
		}
	],
	"materials":[
		{
			"doubleSided":true,
			"name":"Material.003",
			"normalTexture":{
				"index":0
			},
			"pbrMetallicRoughness":{
				"baseColorFactor":[
					0.5764470100402832,
					0.5764470100402832,
					0.5764470100402832,
					1
				],
				"roughnessFactor":0.25636398792266846
			}
		},
		{
			"doubleSided":true,
			"name":"CityGentextured_metal",
			"normalTexture":{
				"index":1
			},
			"pbrMetallicRoughness":{
				"baseColorTexture":{
					"index":2
				},
				"metallicRoughnessTexture":{
					"index":3
				}
			}
		},
		{
			"doubleSided":true,
			"name":"CityGentextured_metal.009",
			"normalTexture":{
				"index":4
			},
			"pbrMetallicRoughness":{
				"baseColorTexture":{
					"index":5
				},
				"metallicRoughnessTexture":{
					"index":6
				}
			}
		},
		{
			"doubleSided":true,
			"name":"CityGenbasic_rough_metal_dark_.001",
			"pbrMetallicRoughness":{
				"baseColorFactor":[
					0.13662800192832947,
					0.15541599690914154,
					0.13210399448871613,
					1
				],
				"roughnessFactor":0.4942860007286072
			}
		},
		{
			"doubleSided":true,
			"name":"CityGenconcrete.001",
			"normalTexture":{
				"index":7
			},
			"pbrMetallicRoughness":{
				"baseColorTexture":{
					"index":8
				},
				"metallicFactor":0,
				"metallicRoughnessTexture":{
					"index":9
				}
			}
		},
		{
			"doubleSided":true,
			"name":"CityGenAC",
			"pbrMetallicRoughness":{
				"baseColorTexture":{
					"index":10
				},
				"metallicFactor":0,
				"roughnessFactor":0.5
			}
		},
		{
			"doubleSided":true,
			"name":"CityGenbasic_metal.001",
			"pbrMetallicRoughness":{
				"baseColorFactor":[
					0.45012399554252625,
					0.45012399554252625,
					0.45012399554252625,
					1
				],
				"roughnessFactor":0.26060399413108826
			}
		},
		{
			"alphaMode":"BLEND",
			"doubleSided":true,
			"extensions":{
				"KHR_materials_transmission":{
					"transmissionFactor":1
				}
			},
			"name":"CityGenGlass.001",
			"normalTexture":{
				"index":11,
				"scale":0.20000000298023224
			},
			"pbrMetallicRoughness":{
				"baseColorFactor":[
					1,
					1,
					1,
					0.25
				],
				"metallicFactor":0,
				"roughnessFactor":0
			}
		},
		{
			"doubleSided":true,
			"name":"firescape",
			"pbrMetallicRoughness":{
				"baseColorFactor":[
					0.3023209869861603,
					0.3023209869861603,
					0.3023209869861603,
					1
				],
				"roughnessFactor":0.49351200461387634
			}
		},
		{
			"doubleSided":true,
			"name":"solar",
			"pbrMetallicRoughness":{
				"baseColorTexture":{
					"index":12
				},
				"metallicFactor":0.8799999952316284,
				"roughnessFactor":0
			}
		},
		{
			"doubleSided":true,
			"name":"rooftop_tank",
			"pbrMetallicRoughness":{
				"baseColorTexture":{
					"index":13
				},
				"metallicFactor":0,
				"roughnessFactor":0.5
			}
		},
		{
			"alphaMode":"BLEND",
			"doubleSided":true,
			"name":"Material.004",
			"pbrMetallicRoughness":{
				"baseColorTexture":{
					"index":14
				},
				"metallicFactor":0,
				"roughnessFactor":0.5
			}
		},
		{
			"doubleSided":true,
			"name":"Material.001",
			"normalTexture":{
				"index":15
			},
			"pbrMetallicRoughness":{
				"baseColorFactor":[
					0.800000011920929,
					0.800000011920929,
					0.800000011920929,
					1
				],
				"roughnessFactor":0.30000001192092896
			}
		},
		{
			"doubleSided":true,
			"name":"CityGenbasic_dark_green",
			"normalTexture":{
				"index":16
			},
			"pbrMetallicRoughness":{
				"baseColorTexture":{
					"index":17
				},
				"metallicFactor":0,
				"metallicRoughnessTexture":{
					"index":18
				}
			}
		},
		{
			"doubleSided":true,
			"emissiveFactor":[
				5.96045985901128e-08,
				5.96045985901128e-08,
				5.96045985901128e-08
			],
			"name":"CityGen_LR_Facades",
			"pbrMetallicRoughness":{
				"baseColorTexture":{
					"index":19
				},
				"metallicFactor":0,
				"metallicRoughnessTexture":{
					"index":20
				}
			}
		},
		{
			"doubleSided":true,
			"name":"CityGenroof.002",
			"normalTexture":{
				"index":21
			},
			"pbrMetallicRoughness":{
				"baseColorTexture":{
					"index":22
				},
				"metallicFactor":0,
				"roughnessFactor":0.5
			}
		},
		{
			"doubleSided":true,
			"name":"CityGensimple_concrete_1",
			"pbrMetallicRoughness":{
				"baseColorTexture":{
					"index":23
				},
				"metallicFactor":0,
				"metallicRoughnessTexture":{
					"index":24
				}
			}
		},
		{
			"doubleSided":true,
			"name":"CityGenroof.003",
			"normalTexture":{
				"index":25
			},
			"pbrMetallicRoughness":{
				"baseColorTexture":{
					"index":26
				},
				"metallicFactor":0,
				"roughnessFactor":0.5
			}
		}
	],
	"meshes":[
		{
			"name":"Object_45.131",
			"primitives":[
				{
					"attributes":{
						"POSITION":0,
						"NORMAL":1,
						"TEXCOORD_0":2,
						"TEXCOORD_1":3,
						"TEXCOORD_2":4,
						"TEXCOORD_3":5,
						"TEXCOORD_4":6,
						"TEXCOORD_5":7,
						"TEXCOORD_6":8
					},
					"indices":9,
					"material":0
				}
			]
		},
		{
			"name":"Object_45.132",
			"primitives":[
				{
					"attributes":{
						"POSITION":10,
						"NORMAL":11,
						"TEXCOORD_0":12,
						"TEXCOORD_1":13,
						"TEXCOORD_2":14,
						"TEXCOORD_3":15,
						"TEXCOORD_4":16,
						"TEXCOORD_5":17,
						"TEXCOORD_6":18
					},
					"indices":19,
					"material":1
				},
				{
					"attributes":{
						"POSITION":20,
						"NORMAL":21,
						"TEXCOORD_0":22,
						"TEXCOORD_1":23,
						"TEXCOORD_2":24,
						"TEXCOORD_3":25,
						"TEXCOORD_4":26,
						"TEXCOORD_5":27,
						"TEXCOORD_6":28
					},
					"indices":29,
					"material":2
				}
			]
		},
		{
			"name":"Object_45.133",
			"primitives":[
				{
					"attributes":{
						"POSITION":30,
						"NORMAL":31,
						"TEXCOORD_0":32,
						"TEXCOORD_1":33,
						"TEXCOORD_2":34,
						"TEXCOORD_3":35,
						"TEXCOORD_4":36,
						"TEXCOORD_5":37,
						"TEXCOORD_6":38
					},
					"indices":39,
					"material":3
				},
				{
					"attributes":{
						"POSITION":40,
						"NORMAL":41,
						"TEXCOORD_0":42,
						"TEXCOORD_1":43,
						"TEXCOORD_2":44,
						"TEXCOORD_3":45,
						"TEXCOORD_4":46,
						"TEXCOORD_5":47,
						"TEXCOORD_6":48
					},
					"indices":49,
					"material":4
				}
			]
		},
		{
			"name":"Object_45.134",
			"primitives":[
				{
					"attributes":{
						"POSITION":50,
						"NORMAL":51,
						"TEXCOORD_0":52,
						"TEXCOORD_1":53,
						"TEXCOORD_2":54,
						"TEXCOORD_3":55,
						"TEXCOORD_4":56,
						"TEXCOORD_5":57,
						"TEXCOORD_6":58
					},
					"indices":59,
					"material":5
				}
			]
		},
		{
			"name":"Object_45.135",
			"primitives":[
				{
					"attributes":{
						"POSITION":60,
						"NORMAL":61,
						"TEXCOORD_0":62,
						"TEXCOORD_1":63,
						"TEXCOORD_2":64,
						"TEXCOORD_3":65,
						"TEXCOORD_4":66,
						"TEXCOORD_5":67,
						"TEXCOORD_6":68
					},
					"indices":69,
					"material":6
				},
				{
					"attributes":{
						"POSITION":70,
						"NORMAL":71,
						"TEXCOORD_0":72,
						"TEXCOORD_1":73,
						"TEXCOORD_2":74,
						"TEXCOORD_3":75,
						"TEXCOORD_4":76,
						"TEXCOORD_5":77,
						"TEXCOORD_6":78
					},
					"indices":79,
					"material":7
				}
			]
		},
		{
			"name":"Object_45.136",
			"primitives":[
				{
					"attributes":{
						"POSITION":80,
						"NORMAL":81,
						"TEXCOORD_0":82,
						"TEXCOORD_1":83,
						"TEXCOORD_2":84,
						"TEXCOORD_3":85,
						"TEXCOORD_4":86,
						"TEXCOORD_5":87,
						"TEXCOORD_6":88
					},
					"indices":89,
					"material":8
				},
				{
					"attributes":{
						"POSITION":90,
						"NORMAL":91,
						"TEXCOORD_0":92,
						"TEXCOORD_1":93,
						"TEXCOORD_2":94,
						"TEXCOORD_3":95,
						"TEXCOORD_4":96,
						"TEXCOORD_5":97,
						"TEXCOORD_6":98
					},
					"indices":99,
					"material":9
				}
			]
		},
		{
			"name":"Object_45.137",
			"primitives":[
				{
					"attributes":{
						"POSITION":100,
						"NORMAL":101,
						"TEXCOORD_0":102,
						"TEXCOORD_1":103,
						"TEXCOORD_2":104,
						"TEXCOORD_3":105,
						"TEXCOORD_4":106,
						"TEXCOORD_5":107,
						"TEXCOORD_6":108
					},
					"indices":109,
					"material":1
				},
				{
					"attributes":{
						"POSITION":110,
						"NORMAL":111,
						"TEXCOORD_0":112,
						"TEXCOORD_1":113,
						"TEXCOORD_2":114,
						"TEXCOORD_3":115,
						"TEXCOORD_4":116,
						"TEXCOORD_5":117,
						"TEXCOORD_6":118
					},
					"indices":119,
					"material":2
				}
			]
		},
		{
			"name":"Object_45.138",
			"primitives":[
				{
					"attributes":{
						"POSITION":120,
						"NORMAL":121,
						"TEXCOORD_0":122,
						"TEXCOORD_1":123,
						"TEXCOORD_2":124,
						"TEXCOORD_3":125,
						"TEXCOORD_4":126,
						"TEXCOORD_5":127,
						"TEXCOORD_6":128
					},
					"indices":129,
					"material":0
				}
			]
		},
		{
			"name":"Object_45.139",
			"primitives":[
				{
					"attributes":{
						"POSITION":130,
						"NORMAL":131,
						"TEXCOORD_0":132,
						"TEXCOORD_1":133,
						"TEXCOORD_2":134,
						"TEXCOORD_3":135,
						"TEXCOORD_4":136,
						"TEXCOORD_5":137,
						"TEXCOORD_6":138
					},
					"indices":139,
					"material":0
				}
			]
		},
		{
			"name":"Object_45.140",
			"primitives":[
				{
					"attributes":{
						"POSITION":140,
						"NORMAL":141,
						"TEXCOORD_0":142,
						"TEXCOORD_1":143,
						"TEXCOORD_2":144,
						"TEXCOORD_3":145,
						"TEXCOORD_4":146,
						"TEXCOORD_5":147,
						"TEXCOORD_6":148
					},
					"indices":149,
					"material":0
				}
			]
		},
		{
			"name":"Object_45.141",
			"primitives":[
				{
					"attributes":{
						"POSITION":150,
						"NORMAL":151,
						"TEXCOORD_0":152,
						"TEXCOORD_1":153,
						"TEXCOORD_2":154,
						"TEXCOORD_3":155,
						"TEXCOORD_4":156,
						"TEXCOORD_5":157,
						"TEXCOORD_6":158
					},
					"indices":159,
					"material":10
				},
				{
					"attributes":{
						"POSITION":160,
						"NORMAL":161,
						"TEXCOORD_0":162,
						"TEXCOORD_1":163,
						"TEXCOORD_2":164,
						"TEXCOORD_3":165,
						"TEXCOORD_4":166,
						"TEXCOORD_5":167,
						"TEXCOORD_6":168
					},
					"indices":169,
					"material":11
				}
			]
		},
		{
			"name":"Object_45.142",
			"primitives":[
				{
					"attributes":{
						"POSITION":170,
						"NORMAL":171,
						"TEXCOORD_0":172,
						"TEXCOORD_1":173,
						"TEXCOORD_2":174,
						"TEXCOORD_3":175,
						"TEXCOORD_4":176,
						"TEXCOORD_5":177,
						"TEXCOORD_6":178
					},
					"indices":179,
					"material":6
				},
				{
					"attributes":{
						"POSITION":180,
						"NORMAL":181,
						"TEXCOORD_0":182,
						"TEXCOORD_1":183,
						"TEXCOORD_2":184,
						"TEXCOORD_3":185,
						"TEXCOORD_4":186,
						"TEXCOORD_5":187,
						"TEXCOORD_6":188
					},
					"indices":189,
					"material":7
				}
			]
		},
		{
			"name":"Object_45.143",
			"primitives":[
				{
					"attributes":{
						"POSITION":190,
						"NORMAL":191,
						"TEXCOORD_0":192,
						"TEXCOORD_1":193,
						"TEXCOORD_2":194,
						"TEXCOORD_3":195,
						"TEXCOORD_4":196,
						"TEXCOORD_5":197,
						"TEXCOORD_6":198
					},
					"indices":199,
					"material":7
				},
				{
					"attributes":{
						"POSITION":200,
						"NORMAL":201,
						"TEXCOORD_0":202,
						"TEXCOORD_1":203,
						"TEXCOORD_2":204,
						"TEXCOORD_3":205,
						"TEXCOORD_4":206,
						"TEXCOORD_5":207,
						"TEXCOORD_6":208
					},
					"indices":209,
					"material":3
				}
			]
		},
		{
			"name":"Object_45.144",
			"primitives":[
				{
					"attributes":{
						"POSITION":210,
						"NORMAL":211,
						"TEXCOORD_0":212,
						"TEXCOORD_1":213,
						"TEXCOORD_2":214,
						"TEXCOORD_3":215,
						"TEXCOORD_4":216,
						"TEXCOORD_5":217,
						"TEXCOORD_6":218
					},
					"indices":219,
					"material":1
				},
				{
					"attributes":{
						"POSITION":220,
						"NORMAL":221,
						"TEXCOORD_0":222,
						"TEXCOORD_1":223,
						"TEXCOORD_2":224,
						"TEXCOORD_3":225,
						"TEXCOORD_4":226,
						"TEXCOORD_5":227,
						"TEXCOORD_6":228
					},
					"indices":229,
					"material":2
				}
			]
		},
		{
			"name":"Object_45.145",
			"primitives":[
				{
					"attributes":{
						"POSITION":230,
						"NORMAL":231,
						"TEXCOORD_0":232,
						"TEXCOORD_1":233,
						"TEXCOORD_2":234,
						"TEXCOORD_3":235,
						"TEXCOORD_4":236,
						"TEXCOORD_5":237,
						"TEXCOORD_6":238
					},
					"indices":239,
					"material":6
				},
				{
					"attributes":{
						"POSITION":240,
						"NORMAL":241,
						"TEXCOORD_0":242,
						"TEXCOORD_1":243,
						"TEXCOORD_2":244,
						"TEXCOORD_3":245,
						"TEXCOORD_4":246,
						"TEXCOORD_5":247,
						"TEXCOORD_6":248
					},
					"indices":249,
					"material":7
				}
			]
		},
		{
			"name":"Object_45.146",
			"primitives":[
				{
					"attributes":{
						"POSITION":250,
						"NORMAL":251,
						"TEXCOORD_0":252,
						"TEXCOORD_1":253,
						"TEXCOORD_2":254,
						"TEXCOORD_3":255,
						"TEXCOORD_4":256,
						"TEXCOORD_5":257,
						"TEXCOORD_6":258
					},
					"indices":259,
					"material":0
				}
			]
		},
		{
			"name":"Object_45.147",
			"primitives":[
				{
					"attributes":{
						"POSITION":260,
						"NORMAL":261,
						"TEXCOORD_0":262,
						"TEXCOORD_1":263,
						"TEXCOORD_2":264,
						"TEXCOORD_3":265,
						"TEXCOORD_4":266,
						"TEXCOORD_5":267,
						"TEXCOORD_6":268
					},
					"indices":269,
					"material":7
				},
				{
					"attributes":{
						"POSITION":270,
						"NORMAL":271,
						"TEXCOORD_0":272,
						"TEXCOORD_1":273,
						"TEXCOORD_2":274,
						"TEXCOORD_3":275,
						"TEXCOORD_4":276,
						"TEXCOORD_5":277,
						"TEXCOORD_6":278
					},
					"indices":279,
					"material":3
				}
			]
		},
		{
			"name":"Object_45.148",
			"primitives":[
				{
					"attributes":{
						"POSITION":280,
						"NORMAL":281,
						"TEXCOORD_0":282,
						"TEXCOORD_1":283,
						"TEXCOORD_2":284,
						"TEXCOORD_3":285,
						"TEXCOORD_4":286,
						"TEXCOORD_5":287,
						"TEXCOORD_6":288
					},
					"indices":289,
					"material":7
				},
				{
					"attributes":{
						"POSITION":290,
						"NORMAL":291,
						"TEXCOORD_0":292,
						"TEXCOORD_1":293,
						"TEXCOORD_2":294,
						"TEXCOORD_3":295,
						"TEXCOORD_4":296,
						"TEXCOORD_5":297,
						"TEXCOORD_6":298
					},
					"indices":299,
					"material":3
				}
			]
		},
		{
			"name":"Object_45.149",
			"primitives":[
				{
					"attributes":{
						"POSITION":300,
						"NORMAL":301,
						"TEXCOORD_0":302,
						"TEXCOORD_1":303,
						"TEXCOORD_2":304,
						"TEXCOORD_3":305,
						"TEXCOORD_4":306,
						"TEXCOORD_5":307,
						"TEXCOORD_6":308
					},
					"indices":89,
					"material":8
				},
				{
					"attributes":{
						"POSITION":309,
						"NORMAL":310,
						"TEXCOORD_0":311,
						"TEXCOORD_1":312,
						"TEXCOORD_2":313,
						"TEXCOORD_3":314,
						"TEXCOORD_4":315,
						"TEXCOORD_5":316,
						"TEXCOORD_6":317
					},
					"indices":99,
					"material":9
				}
			]
		},
		{
			"name":"Object_54.003",
			"primitives":[
				{
					"attributes":{
						"POSITION":318,
						"NORMAL":319,
						"TEXCOORD_0":320,
						"TEXCOORD_1":321,
						"TEXCOORD_2":322,
						"TEXCOORD_3":323,
						"TEXCOORD_4":324,
						"TEXCOORD_5":325,
						"TEXCOORD_6":326,
						"TEXCOORD_7":327
					},
					"indices":328,
					"material":12
				},
				{
					"attributes":{
						"POSITION":329,
						"NORMAL":330,
						"TEXCOORD_0":331,
						"TEXCOORD_1":332,
						"TEXCOORD_2":333,
						"TEXCOORD_3":334,
						"TEXCOORD_4":335,
						"TEXCOORD_5":336,
						"TEXCOORD_6":337,
						"TEXCOORD_7":338
					},
					"indices":339,
					"material":13
				},
				{
					"attributes":{
						"POSITION":340,
						"NORMAL":341,
						"TEXCOORD_0":342,
						"TEXCOORD_1":343,
						"TEXCOORD_2":344,
						"TEXCOORD_3":345,
						"TEXCOORD_4":346,
						"TEXCOORD_5":347,
						"TEXCOORD_6":348,
						"TEXCOORD_7":349
					},
					"indices":350,
					"material":14
				},
				{
					"attributes":{
						"POSITION":351,
						"NORMAL":352,
						"TEXCOORD_0":353,
						"TEXCOORD_1":354,
						"TEXCOORD_2":355,
						"TEXCOORD_3":356,
						"TEXCOORD_4":357,
						"TEXCOORD_5":358,
						"TEXCOORD_6":359,
						"TEXCOORD_7":360
					},
					"indices":361,
					"material":15
				},
				{
					"attributes":{
						"POSITION":362,
						"NORMAL":363,
						"TEXCOORD_0":364,
						"TEXCOORD_1":365,
						"TEXCOORD_2":366,
						"TEXCOORD_3":367,
						"TEXCOORD_4":368,
						"TEXCOORD_5":369,
						"TEXCOORD_6":370,
						"TEXCOORD_7":371
					},
					"indices":372,
					"material":16
				},
				{
					"attributes":{
						"POSITION":373,
						"NORMAL":374,
						"TEXCOORD_0":375,
						"TEXCOORD_1":376,
						"TEXCOORD_2":377,
						"TEXCOORD_3":378,
						"TEXCOORD_4":379,
						"TEXCOORD_5":380,
						"TEXCOORD_6":381,
						"TEXCOORD_7":382
					},
					"indices":383,
					"material":17
				},
				{
					"attributes":{
						"POSITION":384,
						"NORMAL":385,
						"TEXCOORD_0":386,
						"TEXCOORD_1":387,
						"TEXCOORD_2":388,
						"TEXCOORD_3":389,
						"TEXCOORD_4":390,
						"TEXCOORD_5":391,
						"TEXCOORD_6":392,
						"TEXCOORD_7":393
					},
					"indices":394,
					"material":8
				}
			]
		}
	],
	"textures":[
		{
			"sampler":0,
			"source":0
		},
		{
			"sampler":0,
			"source":1
		},
		{
			"sampler":0,
			"source":2
		},
		{
			"sampler":0,
			"source":3
		},
		{
			"sampler":0,
			"source":1
		},
		{
			"sampler":0,
			"source":2
		},
		{
			"sampler":0,
			"source":3
		},
		{
			"sampler":0,
			"source":4
		},
		{
			"sampler":0,
			"source":5
		},
		{
			"sampler":0,
			"source":6
		},
		{
			"sampler":0,
			"source":7
		},
		{
			"sampler":0,
			"source":8
		},
		{
			"sampler":0,
			"source":9
		},
		{
			"sampler":0,
			"source":10
		},
		{
			"sampler":0,
			"source":11
		},
		{
			"sampler":0,
			"source":12
		},
		{
			"sampler":0,
			"source":13
		},
		{
			"sampler":0,
			"source":14
		},
		{
			"sampler":0,
			"source":15
		},
		{
			"sampler":1,
			"source":16
		},
		{
			"sampler":0,
			"source":17
		},
		{
			"sampler":0,
			"source":18
		},
		{
			"sampler":0,
			"source":19
		},
		{
			"sampler":0,
			"source":20
		},
		{
			"sampler":0,
			"source":21
		},
		{
			"sampler":0,
			"source":22
		},
		{
			"sampler":0,
			"source":23
		}
	],
	"images":[
		{
			"mimeType":"image/jpeg",
			"name":"Image_57",
			"uri":"../textures/Image_57.jpg"
		},
		{
			"mimeType":"image/jpeg",
			"name":"Image_52",
			"uri":"../textures/Image_52.jpg"
		},
		{
			"mimeType":"image/jpeg",
			"name":"Image_50",
			"uri":"../textures/Image_50.jpg"
		},
		{
			"mimeType":"image/png",
			"name":"Image_51",
			"uri":"../textures/Image_51.png"
		},
		{
			"mimeType":"image/jpeg",
			"name":"Image_60",
			"uri":"../textures/Image_60.jpg"
		},
		{
			"mimeType":"image/jpeg",
			"name":"Image_58",
			"uri":"../textures/Image_58.jpg"
		},
		{
			"mimeType":"image/png",
			"name":"Image_59",
			"uri":"../textures/Image_59.png"
		},
		{
			"mimeType":"image/jpeg",
			"name":"Image_53",
			"uri":"../textures/Image_53.jpg"
		},
		{
			"mimeType":"image/jpeg",
			"name":"Image_48",
			"uri":"../textures/Image_48.jpg"
		},
		{
			"mimeType":"image/jpeg",
			"name":"Image_61",
			"uri":"../textures/Image_61.jpg"
		},
		{
			"mimeType":"image/jpeg",
			"name":"Image_62",
			"uri":"../textures/Image_62.jpg"
		},
		{
			"mimeType":"image/png",
			"name":"Image_63",
			"uri":"../textures/Image_63.png"
		},
		{
			"mimeType":"image/jpeg",
			"name":"Image_36",
			"uri":"../textures/Image_36.jpg"
		},
		{
			"mimeType":"image/jpeg",
			"name":"Image_2",
			"uri":"../textures/Image_2.jpg"
		},
		{
			"mimeType":"image/jpeg",
			"name":"Image_0",
			"uri":"../textures/Image_0.jpg"
		},
		{
			"mimeType":"image/png",
			"name":"Image_1",
			"uri":"../textures/Image_1.png"
		},
		{
			"mimeType":"image/jpeg",
			"name":"Image_37",
			"uri":"../textures/Image_37.jpg"
		},
		{
			"mimeType":"image/png",
			"name":"Image_38",
			"uri":"../textures/Image_38.png"
		},
		{
			"mimeType":"image/jpeg",
			"name":"Image_33",
			"uri":"../textures/Image_33.jpg"
		},
		{
			"mimeType":"image/jpeg",
			"name":"Image_32",
			"uri":"../textures/Image_32.jpg"
		},
		{
			"mimeType":"image/jpeg",
			"name":"Image_39",
			"uri":"../textures/Image_39.jpg"
		},
		{
			"mimeType":"image/png",
			"name":"Image_40",
			"uri":"../textures/Image_40.png"
		},
		{
			"mimeType":"image/jpeg",
			"name":"Image_35",
			"uri":"../textures/Image_35.jpg"
		},
		{
			"mimeType":"image/jpeg",
			"name":"Image_34",
			"uri":"../textures/Image_34.jpg"
		}
	],
	"accessors":[
		{
			"bufferView":0,
			"componentType":5126,
			"count":60,
			"max":[
				0.128204345703125,
				0.0092315673828125,
				0.16664910316467285
			],
			"min":[
				-0.1310882568359375,
				-0.026214599609375,
				-0.16684699058532715
			],
			"type":"VEC3"
		},
		{
			"bufferView":1,
			"componentType":5126,
			"count":60,
			"type":"VEC3"
		},
		{
			"bufferView":2,
			"componentType":5126,
			"count":60,
			"type":"VEC2"
		},
		{
			"bufferView":3,
			"componentType":5126,
			"count":60,
			"type":"VEC2"
		},
		{
			"bufferView":4,
			"componentType":5126,
			"count":60,
			"type":"VEC2"
		},
		{
			"bufferView":5,
			"componentType":5126,
			"count":60,
			"type":"VEC2"
		},
		{
			"bufferView":6,
			"componentType":5126,
			"count":60,
			"type":"VEC2"
		},
		{
			"bufferView":7,
			"componentType":5126,
			"count":60,
			"type":"VEC2"
		},
		{
			"bufferView":8,
			"componentType":5126,
			"count":60,
			"type":"VEC2"
		},
		{
			"bufferView":9,
			"componentType":5123,
			"count":78,
			"type":"SCALAR"
		},
		{
			"bufferView":10,
			"componentType":5126,
			"count":407,
			"max":[
				0.8463973999023438,
				0.16553878784179688,
				0.18462800979614258
			],
			"min":[
				-0.84771728515625,
				-0.18358993530273438,
				-0.18490934371948242
			],
			"type":"VEC3"
		},
		{
			"bufferView":11,
			"componentType":5126,
			"count":407,
			"type":"VEC3"
		},
		{
			"bufferView":12,
			"componentType":5126,
			"count":407,
			"type":"VEC2"
		},
		{
			"bufferView":13,
			"componentType":5126,
			"count":407,
			"type":"VEC2"
		},
		{
			"bufferView":14,
			"componentType":5126,
			"count":407,
			"type":"VEC2"
		},
		{
			"bufferView":15,
			"componentType":5126,
			"count":407,
			"type":"VEC2"
		},
		{
			"bufferView":16,
			"componentType":5126,
			"count":407,
			"type":"VEC2"
		},
		{
			"bufferView":17,
			"componentType":5126,
			"count":407,
			"type":"VEC2"
		},
		{
			"bufferView":18,
			"componentType":5126,
			"count":407,
			"type":"VEC2"
		},
		{
			"bufferView":19,
			"componentType":5123,
			"count":621,
			"type":"SCALAR"
		},
		{
			"bufferView":20,
			"componentType":5126,
			"count":406,
			"max":[
				0.8463973999023438,
				0.16553497314453125,
				0.18462800979614258
			],
			"min":[
				-0.84771728515625,
				-0.18358612060546875,
				-0.18490934371948242
			],
			"type":"VEC3"
		},
		{
			"bufferView":21,
			"componentType":5126,
			"count":406,
			"type":"VEC3"
		},
		{
			"bufferView":22,
			"componentType":5126,
			"count":406,
			"type":"VEC2"
		},
		{
			"bufferView":23,
			"componentType":5126,
			"count":406,
			"type":"VEC2"
		},
		{
			"bufferView":24,
			"componentType":5126,
			"count":406,
			"type":"VEC2"
		},
		{
			"bufferView":25,
			"componentType":5126,
			"count":406,
			"type":"VEC2"
		},
		{
			"bufferView":26,
			"componentType":5126,
			"count":406,
			"type":"VEC2"
		},
		{
			"bufferView":27,
			"componentType":5126,
			"count":406,
			"type":"VEC2"
		},
		{
			"bufferView":28,
			"componentType":5126,
			"count":406,
			"type":"VEC2"
		},
		{
			"bufferView":29,
			"componentType":5123,
			"count":621,
			"type":"SCALAR"
		},
		{
			"bufferView":30,
			"componentType":5126,
			"count":149,
			"max":[
				1.1472091674804688,
				0.9248046875,
				0.6236295700073242
			],
			"min":[
				-1.136505126953125,
				-0.45859527587890625,
				-1.0217561721801758
			],
			"type":"VEC3"
		},
		{
			"bufferView":31,
			"componentType":5126,
			"count":149,
			"type":"VEC3"
		},
		{
			"bufferView":32,
			"componentType":5126,
			"count":149,
			"type":"VEC2"
		},
		{
			"bufferView":33,
			"componentType":5126,
			"count":149,
			"type":"VEC2"
		},
		{
			"bufferView":34,
			"componentType":5126,
			"count":149,
			"type":"VEC2"
		},
		{
			"bufferView":35,
			"componentType":5126,
			"count":149,
			"type":"VEC2"
		},
		{
			"bufferView":36,
			"componentType":5126,
			"count":149,
			"type":"VEC2"
		},
		{
			"bufferView":37,
			"componentType":5126,
			"count":149,
			"type":"VEC2"
		},
		{
			"bufferView":38,
			"componentType":5126,
			"count":149,
			"type":"VEC2"
		},
		{
			"bufferView":39,
			"componentType":5123,
			"count":192,
			"type":"SCALAR"
		},
		{
			"bufferView":40,
			"componentType":5126,
			"count":592,
			"max":[
				1.1472091674804688,
				0.4711418151855469,
				0.6937665939331055
			],
			"min":[
				-1.3342056274414062,
				-0.5897445678710938,
				-1.018315315246582
			],
			"type":"VEC3"
		},
		{
			"bufferView":41,
			"componentType":5126,
			"count":592,
			"type":"VEC3"
		},
		{
			"bufferView":42,
			"componentType":5126,
			"count":592,
			"type":"VEC2"
		},
		{
			"bufferView":43,
			"componentType":5126,
			"count":592,
			"type":"VEC2"
		},
		{
			"bufferView":44,
			"componentType":5126,
			"count":592,
			"type":"VEC2"
		},
		{
			"bufferView":45,
			"componentType":5126,
			"count":592,
			"type":"VEC2"
		},
		{
			"bufferView":46,
			"componentType":5126,
			"count":592,
			"type":"VEC2"
		},
		{
			"bufferView":47,
			"componentType":5126,
			"count":592,
			"type":"VEC2"
		},
		{
			"bufferView":48,
			"componentType":5126,
			"count":592,
			"type":"VEC2"
		},
		{
			"bufferView":49,
			"componentType":5123,
			"count":984,
			"type":"SCALAR"
		},
		{
			"bufferView":50,
			"componentType":5126,
			"count":593,
			"max":[
				0.8355026245117188,
				0.9016761779785156,
				1.329543113708496
			],
			"min":[
				-0.8193359375,
				-0.56121826171875,
				-0.9255762100219727
			],
			"type":"VEC3"
		},
		{
			"bufferView":51,
			"componentType":5126,
			"count":593,
			"type":"VEC3"
		},
		{
			"bufferView":52,
			"componentType":5126,
			"count":593,
			"type":"VEC2"
		},
		{
			"bufferView":53,
			"componentType":5126,
			"count":593,
			"type":"VEC2"
		},
		{
			"bufferView":54,
			"componentType":5126,
			"count":593,
			"type":"VEC2"
		},
		{
			"bufferView":55,
			"componentType":5126,
			"count":593,
			"type":"VEC2"
		},
		{
			"bufferView":56,
			"componentType":5126,
			"count":593,
			"type":"VEC2"
		},
		{
			"bufferView":57,
			"componentType":5126,
			"count":593,
			"type":"VEC2"
		},
		{
			"bufferView":58,
			"componentType":5126,
			"count":593,
			"type":"VEC2"
		},
		{
			"bufferView":59,
			"componentType":5123,
			"count":864,
			"type":"SCALAR"
		},
		{
			"bufferView":60,
			"componentType":5126,
			"count":397,
			"max":[
				2.5064697265625,
				0.6551246643066406,
				1.1829643249511719
			],
			"min":[
				-2.5063934326171875,
				-0.33975982666015625,
				-1.1829795837402344
			],
			"type":"VEC3"
		},
		{
			"bufferView":61,
			"componentType":5126,
			"count":397,
			"type":"VEC3"
		},
		{
			"bufferView":62,
			"componentType":5126,
			"count":397,
			"type":"VEC2"
		},
		{
			"bufferView":63,
			"componentType":5126,
			"count":397,
			"type":"VEC2"
		},
		{
			"bufferView":64,
			"componentType":5126,
			"count":397,
			"type":"VEC2"
		},
		{
			"bufferView":65,
			"componentType":5126,
			"count":397,
			"type":"VEC2"
		},
		{
			"bufferView":66,
			"componentType":5126,
			"count":397,
			"type":"VEC2"
		},
		{
			"bufferView":67,
			"componentType":5126,
			"count":397,
			"type":"VEC2"
		},
		{
			"bufferView":68,
			"componentType":5126,
			"count":397,
			"type":"VEC2"
		},
		{
			"bufferView":69,
			"componentType":5123,
			"count":708,
			"type":"SCALAR"
		},
		{
			"bufferView":70,
			"componentType":5126,
			"count":40,
			"max":[
				2.32366943359375,
				0.596710205078125,
				1.0001640319824219
			],
			"min":[
				-2.3235931396484375,
				0.12519073486328125,
				-1.0001869201660156
			],
			"type":"VEC3"
		},
		{
			"bufferView":71,
			"componentType":5126,
			"count":40,
			"type":"VEC3"
		},
		{
			"bufferView":72,
			"componentType":5126,
			"count":40,
			"type":"VEC2"
		},
		{
			"bufferView":73,
			"componentType":5126,
			"count":40,
			"type":"VEC2"
		},
		{
			"bufferView":74,
			"componentType":5126,
			"count":40,
			"type":"VEC2"
		},
		{
			"bufferView":75,
			"componentType":5126,
			"count":40,
			"type":"VEC2"
		},
		{
			"bufferView":76,
			"componentType":5126,
			"count":40,
			"type":"VEC2"
		},
		{
			"bufferView":77,
			"componentType":5126,
			"count":40,
			"type":"VEC2"
		},
		{
			"bufferView":78,
			"componentType":5126,
			"count":40,
			"type":"VEC2"
		},
		{
			"bufferView":79,
			"componentType":5123,
			"count":60,
			"type":"SCALAR"
		},
		{
			"bufferView":80,
			"componentType":5126,
			"count":36,
			"max":[
				4.3256683349609375,
				0.19382476806640625,
				1.4315195083618164
			],
			"min":[
				-4.325630187988281,
				-0.3045082092285156,
				-1.8179922103881836
			],
			"type":"VEC3"
		},
		{
			"bufferView":81,
			"componentType":5126,
			"count":36,
			"type":"VEC3"
		},
		{
			"bufferView":82,
			"componentType":5126,
			"count":36,
			"type":"VEC2"
		},
		{
			"bufferView":83,
			"componentType":5126,
			"count":36,
			"type":"VEC2"
		},
		{
			"bufferView":84,
			"componentType":5126,
			"count":36,
			"type":"VEC2"
		},
		{
			"bufferView":85,
			"componentType":5126,
			"count":36,
			"type":"VEC2"
		},
		{
			"bufferView":86,
			"componentType":5126,
			"count":36,
			"type":"VEC2"
		},
		{
			"bufferView":87,
			"componentType":5126,
			"count":36,
			"type":"VEC2"
		},
		{
			"bufferView":88,
			"componentType":5126,
			"count":36,
			"type":"VEC2"
		},
		{
			"bufferView":89,
			"componentType":5123,
			"count":54,
			"type":"SCALAR"
		},
		{
			"bufferView":90,
			"componentType":5126,
			"count":36,
			"max":[
				4.306022644042969,
				0.3406639099121094,
				2.216855049133301
			],
			"min":[
				-4.3059844970703125,
				-0.2941398620605469,
				-2.0543203353881836
			],
			"type":"VEC3"
		},
		{
			"bufferView":91,
			"componentType":5126,
			"count":36,
			"type":"VEC3"
		},
		{
			"bufferView":92,
			"componentType":5126,
			"count":36,
			"type":"VEC2"
		},
		{
			"bufferView":93,
			"componentType":5126,
			"count":36,
			"type":"VEC2"
		},
		{
			"bufferView":94,
			"componentType":5126,
			"count":36,
			"type":"VEC2"
		},
		{
			"bufferView":95,
			"componentType":5126,
			"count":36,
			"type":"VEC2"
		},
		{
			"bufferView":96,
			"componentType":5126,
			"count":36,
			"type":"VEC2"
		},
		{
			"bufferView":97,
			"componentType":5126,
			"count":36,
			"type":"VEC2"
		},
		{
			"bufferView":98,
			"componentType":5126,
			"count":36,
			"type":"VEC2"
		},
		{
			"bufferView":99,
			"componentType":5123,
			"count":54,
			"type":"SCALAR"
		},
		{
			"bufferView":100,
			"componentType":5126,
			"count":584,
			"max":[
				0.44120025634765625,
				0.3897705078125,
				2.0121755599975586
			],
			"min":[
				-0.43608856201171875,
				-0.43907928466796875,
				-2.0097360610961914
			],
			"type":"VEC3"
		},
		{
			"bufferView":101,
			"componentType":5126,
			"count":584,
			"type":"VEC3"
		},
		{
			"bufferView":102,
			"componentType":5126,
			"count":584,
			"type":"VEC2"
		},
		{
			"bufferView":103,
			"componentType":5126,
			"count":584,
			"type":"VEC2"
		},
		{
			"bufferView":104,
			"componentType":5126,
			"count":584,
			"type":"VEC2"
		},
		{
			"bufferView":105,
			"componentType":5126,
			"count":584,
			"type":"VEC2"
		},
		{
			"bufferView":106,
			"componentType":5126,
			"count":584,
			"type":"VEC2"
		},
		{
			"bufferView":107,
			"componentType":5126,
			"count":584,
			"type":"VEC2"
		},
		{
			"bufferView":108,
			"componentType":5126,
			"count":584,
			"type":"VEC2"
		},
		{
			"bufferView":109,
			"componentType":5123,
			"count":822,
			"type":"SCALAR"
		},
		{
			"bufferView":110,
			"componentType":5126,
			"count":584,
			"max":[
				0.44120025634765625,
				0.3897666931152344,
				2.0121755599975586
			],
			"min":[
				-0.43608856201171875,
				-0.4390754699707031,
				-2.0097360610961914
			],
			"type":"VEC3"
		},
		{
			"bufferView":111,
			"componentType":5126,
			"count":584,
			"type":"VEC3"
		},
		{
			"bufferView":112,
			"componentType":5126,
			"count":584,
			"type":"VEC2"
		},
		{
			"bufferView":113,
			"componentType":5126,
			"count":584,
			"type":"VEC2"
		},
		{
			"bufferView":114,
			"componentType":5126,
			"count":584,
			"type":"VEC2"
		},
		{
			"bufferView":115,
			"componentType":5126,
			"count":584,
			"type":"VEC2"
		},
		{
			"bufferView":116,
			"componentType":5126,
			"count":584,
			"type":"VEC2"
		},
		{
			"bufferView":117,
			"componentType":5126,
			"count":584,
			"type":"VEC2"
		},
		{
			"bufferView":118,
			"componentType":5126,
			"count":584,
			"type":"VEC2"
		},
		{
			"bufferView":119,
			"componentType":5123,
			"count":822,
			"type":"SCALAR"
		},
		{
			"bufferView":120,
			"componentType":5126,
			"count":79,
			"max":[
				0.207183837890625,
				0.011890411376953125,
				0.1612529754638672
			],
			"min":[
				-0.207305908203125,
				-0.032169342041015625,
				-0.1610126495361328
			],
			"type":"VEC3"
		},
		{
			"bufferView":121,
			"componentType":5126,
			"count":79,
			"type":"VEC3"
		},
		{
			"bufferView":122,
			"componentType":5126,
			"count":79,
			"type":"VEC2"
		},
		{
			"bufferView":123,
			"componentType":5126,
			"count":79,
			"type":"VEC2"
		},
		{
			"bufferView":124,
			"componentType":5126,
			"count":79,
			"type":"VEC2"
		},
		{
			"bufferView":125,
			"componentType":5126,
			"count":79,
			"type":"VEC2"
		},
		{
			"bufferView":126,
			"componentType":5126,
			"count":79,
			"type":"VEC2"
		},
		{
			"bufferView":127,
			"componentType":5126,
			"count":79,
			"type":"VEC2"
		},
		{
			"bufferView":128,
			"componentType":5126,
			"count":79,
			"type":"VEC2"
		},
		{
			"bufferView":129,
			"componentType":5123,
			"count":102,
			"type":"SCALAR"
		},
		{
			"bufferView":130,
			"componentType":5126,
			"count":84,
			"max":[
				0.355865478515625,
				0.021877288818359375,
				0.2766542434692383
			],
			"min":[
				-0.35579681396484375,
				-0.05376434326171875,
				-0.2766599655151367
			],
			"type":"VEC3"
		},
		{
			"bufferView":131,
			"componentType":5126,
			"count":84,
			"type":"VEC3"
		},
		{
			"bufferView":132,
			"componentType":5126,
			"count":84,
			"type":"VEC2"
		},
		{
			"bufferView":133,
			"componentType":5126,
			"count":84,
			"type":"VEC2"
		},
		{
			"bufferView":134,
			"componentType":5126,
			"count":84,
			"type":"VEC2"
		},
		{
			"bufferView":135,
			"componentType":5126,
			"count":84,
			"type":"VEC2"
		},
		{
			"bufferView":136,
			"componentType":5126,
			"count":84,
			"type":"VEC2"
		},
		{
			"bufferView":137,
			"componentType":5126,
			"count":84,
			"type":"VEC2"
		},
		{
			"bufferView":138,
			"componentType":5126,
			"count":84,
			"type":"VEC2"
		},
		{
			"bufferView":139,
			"componentType":5123,
			"count":150,
			"type":"SCALAR"
		},
		{
			"bufferView":140,
			"componentType":5126,
			"count":63,
			"max":[
				0.132232666015625,
				0.009769439697265625,
				0.1681814193725586
			],
			"min":[
				-0.1289825439453125,
				-0.025943756103515625,
				-0.16779041290283203
			],
			"type":"VEC3"
		},
		{
			"bufferView":141,
			"componentType":5126,
			"count":63,
			"type":"VEC3"
		},
		{
			"bufferView":142,
			"componentType":5126,
			"count":63,
			"type":"VEC2"
		},
		{
			"bufferView":143,
			"componentType":5126,
			"count":63,
			"type":"VEC2"
		},
		{
			"bufferView":144,
			"componentType":5126,
			"count":63,
			"type":"VEC2"
		},
		{
			"bufferView":145,
			"componentType":5126,
			"count":63,
			"type":"VEC2"
		},
		{
			"bufferView":146,
			"componentType":5126,
			"count":63,
			"type":"VEC2"
		},
		{
			"bufferView":147,
			"componentType":5126,
			"count":63,
			"type":"VEC2"
		},
		{
			"bufferView":148,
			"componentType":5126,
			"count":63,
			"type":"VEC2"
		},
		{
			"bufferView":149,
			"componentType":5123,
			"count":78,
			"type":"SCALAR"
		},
		{
			"bufferView":150,
			"componentType":5126,
			"count":185,
			"max":[
				1.6793975830078125,
				6.924915313720703,
				1.6353814601898193
			],
			"min":[
				-1.67919921875,
				1.8110542297363281,
				-1.6357672214508057
			],
			"type":"VEC3"
		},
		{
			"bufferView":151,
			"componentType":5126,
			"count":185,
			"type":"VEC3"
		},
		{
			"bufferView":152,
			"componentType":5126,
			"count":185,
			"type":"VEC2"
		},
		{
			"bufferView":153,
			"componentType":5126,
			"count":185,
			"type":"VEC2"
		},
		{
			"bufferView":154,
			"componentType":5126,
			"count":185,
			"type":"VEC2"
		},
		{
			"bufferView":155,
			"componentType":5126,
			"count":185,
			"type":"VEC2"
		},
		{
			"bufferView":156,
			"componentType":5126,
			"count":185,
			"type":"VEC2"
		},
		{
			"bufferView":157,
			"componentType":5126,
			"count":185,
			"type":"VEC2"
		},
		{
			"bufferView":158,
			"componentType":5126,
			"count":185,
			"type":"VEC2"
		},
		{
			"bufferView":159,
			"componentType":5123,
			"count":492,
			"type":"SCALAR"
		},
		{
			"bufferView":160,
			"componentType":5126,
			"count":97,
			"max":[
				2.6190948486328125,
				1.8043594360351562,
				2.618802785873413
			],
			"min":[
				-2.618896484375,
				-5.300937652587891,
				-2.619180917739868
			],
			"type":"VEC3"
		},
		{
			"bufferView":161,
			"componentType":5126,
			"count":97,
			"type":"VEC3"
		},
		{
			"bufferView":162,
			"componentType":5126,
			"count":97,
			"type":"VEC2"
		},
		{
			"bufferView":163,
			"componentType":5126,
			"count":97,
			"type":"VEC2"
		},
		{
			"bufferView":164,
			"componentType":5126,
			"count":97,
			"type":"VEC2"
		},
		{
			"bufferView":165,
			"componentType":5126,
			"count":97,
			"type":"VEC2"
		},
		{
			"bufferView":166,
			"componentType":5126,
			"count":97,
			"type":"VEC2"
		},
		{
			"bufferView":167,
			"componentType":5126,
			"count":97,
			"type":"VEC2"
		},
		{
			"bufferView":168,
			"componentType":5126,
			"count":97,
			"type":"VEC2"
		},
		{
			"bufferView":169,
			"componentType":5123,
			"count":120,
			"type":"SCALAR"
		},
		{
			"bufferView":170,
			"componentType":5126,
			"count":374,
			"max":[
				1.7122039794921875,
				0.447601318359375,
				0.808150053024292
			],
			"min":[
				-1.712310791015625,
				-0.23205184936523438,
				-0.8081448078155518
			],
			"type":"VEC3"
		},
		{
			"bufferView":171,
			"componentType":5126,
			"count":374,
			"type":"VEC3"
		},
		{
			"bufferView":172,
			"componentType":5126,
			"count":374,
			"type":"VEC2"
		},
		{
			"bufferView":173,
			"componentType":5126,
			"count":374,
			"type":"VEC2"
		},
		{
			"bufferView":174,
			"componentType":5126,
			"count":374,
			"type":"VEC2"
		},
		{
			"bufferView":175,
			"componentType":5126,
			"count":374,
			"type":"VEC2"
		},
		{
			"bufferView":176,
			"componentType":5126,
			"count":374,
			"type":"VEC2"
		},
		{
			"bufferView":177,
			"componentType":5126,
			"count":374,
			"type":"VEC2"
		},
		{
			"bufferView":178,
			"componentType":5126,
			"count":374,
			"type":"VEC2"
		},
		{
			"bufferView":179,
			"componentType":5123,
			"count":708,
			"type":"SCALAR"
		},
		{
			"bufferView":180,
			"componentType":5126,
			"count":40,
			"max":[
				1.5873260498046875,
				0.4076957702636719,
				0.683272123336792
			],
			"min":[
				-1.587432861328125,
				0.08557891845703125,
				-0.6832592487335205
			],
			"type":"VEC3"
		},
		{
			"bufferView":181,
			"componentType":5126,
			"count":40,
			"type":"VEC3"
		},
		{
			"bufferView":182,
			"componentType":5126,
			"count":40,
			"type":"VEC2"
		},
		{
			"bufferView":183,
			"componentType":5126,
			"count":40,
			"type":"VEC2"
		},
		{
			"bufferView":184,
			"componentType":5126,
			"count":40,
			"type":"VEC2"
		},
		{
			"bufferView":185,
			"componentType":5126,
			"count":40,
			"type":"VEC2"
		},
		{
			"bufferView":186,
			"componentType":5126,
			"count":40,
			"type":"VEC2"
		},
		{
			"bufferView":187,
			"componentType":5126,
			"count":40,
			"type":"VEC2"
		},
		{
			"bufferView":188,
			"componentType":5126,
			"count":40,
			"type":"VEC2"
		},
		{
			"bufferView":189,
			"componentType":5123,
			"count":60,
			"type":"SCALAR"
		},
		{
			"bufferView":190,
			"componentType":5126,
			"count":48,
			"max":[
				0.240631103515625,
				0.09984207153320312,
				0.5909647941589355
			],
			"min":[
				-0.3463592529296875,
				-0.06707000732421875,
				-0.5909810066223145
			],
			"type":"VEC3"
		},
		{
			"bufferView":191,
			"componentType":5126,
			"count":48,
			"type":"VEC3"
		},
		{
			"bufferView":192,
			"componentType":5126,
			"count":48,
			"type":"VEC2"
		},
		{
			"bufferView":193,
			"componentType":5126,
			"count":48,
			"type":"VEC2"
		},
		{
			"bufferView":194,
			"componentType":5126,
			"count":48,
			"type":"VEC2"
		},
		{
			"bufferView":195,
			"componentType":5126,
			"count":48,
			"type":"VEC2"
		},
		{
			"bufferView":196,
			"componentType":5126,
			"count":48,
			"type":"VEC2"
		},
		{
			"bufferView":197,
			"componentType":5126,
			"count":48,
			"type":"VEC2"
		},
		{
			"bufferView":198,
			"componentType":5126,
			"count":48,
			"type":"VEC2"
		},
		{
			"bufferView":199,
			"componentType":5123,
			"count":72,
			"type":"SCALAR"
		},
		{
			"bufferView":200,
			"componentType":5126,
			"count":520,
			"max":[
				0.25152587890625,
				0.11428070068359375,
				0.6097407341003418
			],
			"min":[
				-0.35821533203125,
				-0.12755203247070312,
				-0.6097569465637207
			],
			"type":"VEC3"
		},
		{
			"bufferView":201,
			"componentType":5126,
			"count":520,
			"type":"VEC3"
		},
		{
			"bufferView":202,
			"componentType":5126,
			"count":520,
			"type":"VEC2"
		},
		{
			"bufferView":203,
			"componentType":5126,
			"count":520,
			"type":"VEC2"
		},
		{
			"bufferView":204,
			"componentType":5126,
			"count":520,
			"type":"VEC2"
		},
		{
			"bufferView":205,
			"componentType":5126,
			"count":520,
			"type":"VEC2"
		},
		{
			"bufferView":206,
			"componentType":5126,
			"count":520,
			"type":"VEC2"
		},
		{
			"bufferView":207,
			"componentType":5126,
			"count":520,
			"type":"VEC2"
		},
		{
			"bufferView":208,
			"componentType":5126,
			"count":520,
			"type":"VEC2"
		},
		{
			"bufferView":209,
			"componentType":5123,
			"count":858,
			"type":"SCALAR"
		},
		{
			"bufferView":210,
			"componentType":5126,
			"count":470,
			"max":[
				1.643646240234375,
				0.31890869140625,
				0.35883498191833496
			],
			"min":[
				-1.6465072631835938,
				-0.359130859375,
				-0.3588392734527588
			],
			"type":"VEC3"
		},
		{
			"bufferView":211,
			"componentType":5126,
			"count":470,
			"type":"VEC3"
		},
		{
			"bufferView":212,
			"componentType":5126,
			"count":470,
			"type":"VEC2"
		},
		{
			"bufferView":213,
			"componentType":5126,
			"count":470,
			"type":"VEC2"
		},
		{
			"bufferView":214,
			"componentType":5126,
			"count":470,
			"type":"VEC2"
		},
		{
			"bufferView":215,
			"componentType":5126,
			"count":470,
			"type":"VEC2"
		},
		{
			"bufferView":216,
			"componentType":5126,
			"count":470,
			"type":"VEC2"
		},
		{
			"bufferView":217,
			"componentType":5126,
			"count":470,
			"type":"VEC2"
		},
		{
			"bufferView":218,
			"componentType":5126,
			"count":470,
			"type":"VEC2"
		},
		{
			"bufferView":219,
			"componentType":5123,
			"count":705,
			"type":"SCALAR"
		},
		{
			"bufferView":220,
			"componentType":5126,
			"count":470,
			"max":[
				1.643646240234375,
				0.3189125061035156,
				0.35883498191833496
			],
			"min":[
				-1.6465072631835938,
				-0.3591270446777344,
				-0.3588392734527588
			],
			"type":"VEC3"
		},
		{
			"bufferView":221,
			"componentType":5126,
			"count":470,
			"type":"VEC3"
		},
		{
			"bufferView":222,
			"componentType":5126,
			"count":470,
			"type":"VEC2"
		},
		{
			"bufferView":223,
			"componentType":5126,
			"count":470,
			"type":"VEC2"
		},
		{
			"bufferView":224,
			"componentType":5126,
			"count":470,
			"type":"VEC2"
		},
		{
			"bufferView":225,
			"componentType":5126,
			"count":470,
			"type":"VEC2"
		},
		{
			"bufferView":226,
			"componentType":5126,
			"count":470,
			"type":"VEC2"
		},
		{
			"bufferView":227,
			"componentType":5126,
			"count":470,
			"type":"VEC2"
		},
		{
			"bufferView":228,
			"componentType":5126,
			"count":470,
			"type":"VEC2"
		},
		{
			"bufferView":229,
			"componentType":5123,
			"count":705,
			"type":"SCALAR"
		},
		{
			"bufferView":230,
			"componentType":5126,
			"count":414,
			"max":[
				1.9209136962890625,
				0.5021018981933594,
				0.9066424369812012
			],
			"min":[
				-1.9210205078125,
				-0.2603912353515625,
				-0.9066510200500488
			],
			"type":"VEC3"
		},
		{
			"bufferView":231,
			"componentType":5126,
			"count":414,
			"type":"VEC3"
		},
		{
			"bufferView":232,
			"componentType":5126,
			"count":414,
			"type":"VEC2"
		},
		{
			"bufferView":233,
			"componentType":5126,
			"count":414,
			"type":"VEC2"
		},
		{
			"bufferView":234,
			"componentType":5126,
			"count":414,
			"type":"VEC2"
		},
		{
			"bufferView":235,
			"componentType":5126,
			"count":414,
			"type":"VEC2"
		},
		{
			"bufferView":236,
			"componentType":5126,
			"count":414,
			"type":"VEC2"
		},
		{
			"bufferView":237,
			"componentType":5126,
			"count":414,
			"type":"VEC2"
		},
		{
			"bufferView":238,
			"componentType":5126,
			"count":414,
			"type":"VEC2"
		},
		{
			"bufferView":239,
			"componentType":5123,
			"count":708,
			"type":"SCALAR"
		},
		{
			"bufferView":240,
			"componentType":5126,
			"count":40,
			"max":[
				1.78082275390625,
				0.4573326110839844,
				0.7665438652038574
			],
			"min":[
				-1.780914306640625,
				0.09595489501953125,
				-0.7665524482727051
			],
			"type":"VEC3"
		},
		{
			"bufferView":241,
			"componentType":5126,
			"count":40,
			"type":"VEC3"
		},
		{
			"bufferView":242,
			"componentType":5126,
			"count":40,
			"type":"VEC2"
		},
		{
			"bufferView":243,
			"componentType":5126,
			"count":40,
			"type":"VEC2"
		},
		{
			"bufferView":244,
			"componentType":5126,
			"count":40,
			"type":"VEC2"
		},
		{
			"bufferView":245,
			"componentType":5126,
			"count":40,
			"type":"VEC2"
		},
		{
			"bufferView":246,
			"componentType":5126,
			"count":40,
			"type":"VEC2"
		},
		{
			"bufferView":247,
			"componentType":5126,
			"count":40,
			"type":"VEC2"
		},
		{
			"bufferView":248,
			"componentType":5126,
			"count":40,
			"type":"VEC2"
		},
		{
			"bufferView":249,
			"componentType":5123,
			"count":60,
			"type":"SCALAR"
		},
		{
			"bufferView":250,
			"componentType":5126,
			"count":65,
			"max":[
				0.23456573486328125,
				0.013561248779296875,
				0.18250751495361328
			],
			"min":[
				-0.23491668701171875,
				-0.036342620849609375,
				-0.18251323699951172
			],
			"type":"VEC3"
		},
		{
			"bufferView":251,
			"componentType":5126,
			"count":65,
			"type":"VEC3"
		},
		{
			"bufferView":252,
			"componentType":5126,
			"count":65,
			"type":"VEC2"
		},
		{
			"bufferView":253,
			"componentType":5126,
			"count":65,
			"type":"VEC2"
		},
		{
			"bufferView":254,
			"componentType":5126,
			"count":65,
			"type":"VEC2"
		},
		{
			"bufferView":255,
			"componentType":5126,
			"count":65,
			"type":"VEC2"
		},
		{
			"bufferView":256,
			"componentType":5126,
			"count":65,
			"type":"VEC2"
		},
		{
			"bufferView":257,
			"componentType":5126,
			"count":65,
			"type":"VEC2"
		},
		{
			"bufferView":258,
			"componentType":5126,
			"count":65,
			"type":"VEC2"
		},
		{
			"bufferView":259,
			"componentType":5123,
			"count":102,
			"type":"SCALAR"
		},
		{
			"bufferView":260,
			"componentType":5126,
			"count":52,
			"max":[
				0.5329818725585938,
				0.0898284912109375,
				0.22942066192626953
			],
			"min":[
				-0.5336837768554688,
				-0.060802459716796875,
				-0.31016063690185547
			],
			"type":"VEC3"
		},
		{
			"bufferView":261,
			"componentType":5126,
			"count":52,
			"type":"VEC3"
		},
		{
			"bufferView":262,
			"componentType":5126,
			"count":52,
			"type":"VEC2"
		},
		{
			"bufferView":263,
			"componentType":5126,
			"count":52,
			"type":"VEC2"
		},
		{
			"bufferView":264,
			"componentType":5126,
			"count":52,
			"type":"VEC2"
		},
		{
			"bufferView":265,
			"componentType":5126,
			"count":52,
			"type":"VEC2"
		},
		{
			"bufferView":266,
			"componentType":5126,
			"count":52,
			"type":"VEC2"
		},
		{
			"bufferView":267,
			"componentType":5126,
			"count":52,
			"type":"VEC2"
		},
		{
			"bufferView":268,
			"componentType":5126,
			"count":52,
			"type":"VEC2"
		},
		{
			"bufferView":269,
			"componentType":5123,
			"count":72,
			"type":"SCALAR"
		},
		{
			"bufferView":270,
			"componentType":5126,
			"count":460,
			"max":[
				0.5499191284179688,
				0.1028594970703125,
				0.22942066192626953
			],
			"min":[
				-0.5506210327148438,
				-0.115386962890625,
				-0.3208494186401367
			],
			"type":"VEC3"
		},
		{
			"bufferView":271,
			"componentType":5126,
			"count":460,
			"type":"VEC3"
		},
		{
			"bufferView":272,
			"componentType":5126,
			"count":460,
			"type":"VEC2"
		},
		{
			"bufferView":273,
			"componentType":5126,
			"count":460,
			"type":"VEC2"
		},
		{
			"bufferView":274,
			"componentType":5126,
			"count":460,
			"type":"VEC2"
		},
		{
			"bufferView":275,
			"componentType":5126,
			"count":460,
			"type":"VEC2"
		},
		{
			"bufferView":276,
			"componentType":5126,
			"count":460,
			"type":"VEC2"
		},
		{
			"bufferView":277,
			"componentType":5126,
			"count":460,
			"type":"VEC2"
		},
		{
			"bufferView":278,
			"componentType":5126,
			"count":460,
			"type":"VEC2"
		},
		{
			"bufferView":279,
			"componentType":5123,
			"count":774,
			"type":"SCALAR"
		},
		{
			"bufferView":280,
			"componentType":5126,
			"count":48,
			"max":[
				1.1855392456054688,
				0.20032882690429688,
				0.48258447647094727
			],
			"min":[
				-1.1854934692382812,
				-0.13450241088867188,
				-0.694974422454834
			],
			"type":"VEC3"
		},
		{
			"bufferView":281,
			"componentType":5126,
			"count":48,
			"type":"VEC3"
		},
		{
			"bufferView":282,
			"componentType":5126,
			"count":48,
			"type":"VEC2"
		},
		{
			"bufferView":283,
			"componentType":5126,
			"count":48,
			"type":"VEC2"
		},
		{
			"bufferView":284,
			"componentType":5126,
			"count":48,
			"type":"VEC2"
		},
		{
			"bufferView":285,
			"componentType":5126,
			"count":48,
			"type":"VEC2"
		},
		{
			"bufferView":286,
			"componentType":5126,
			"count":48,
			"type":"VEC2"
		},
		{
			"bufferView":287,
			"componentType":5126,
			"count":48,
			"type":"VEC2"
		},
		{
			"bufferView":288,
			"componentType":5126,
			"count":48,
			"type":"VEC2"
		},
		{
			"bufferView":289,
			"componentType":5123,
			"count":72,
			"type":"SCALAR"
		},
		{
			"bufferView":290,
			"componentType":5126,
			"count":413,
			"max":[
				1.2231979370117188,
				0.2292938232421875,
				0.5044350624084473
			],
			"min":[
				-1.2231521606445312,
				-0.25583648681640625,
				-0.718747615814209
			],
			"type":"VEC3"
		},
		{
			"bufferView":291,
			"componentType":5126,
			"count":413,
			"type":"VEC3"
		},
		{
			"bufferView":292,
			"componentType":5126,
			"count":413,
			"type":"VEC2"
		},
		{
			"bufferView":293,
			"componentType":5126,
			"count":413,
			"type":"VEC2"
		},
		{
			"bufferView":294,
			"componentType":5126,
			"count":413,
			"type":"VEC2"
		},
		{
			"bufferView":295,
			"componentType":5126,
			"count":413,
			"type":"VEC2"
		},
		{
			"bufferView":296,
			"componentType":5126,
			"count":413,
			"type":"VEC2"
		},
		{
			"bufferView":297,
			"componentType":5126,
			"count":413,
			"type":"VEC2"
		},
		{
			"bufferView":298,
			"componentType":5126,
			"count":413,
			"type":"VEC2"
		},
		{
			"bufferView":299,
			"componentType":5123,
			"count":858,
			"type":"SCALAR"
		},
		{
			"bufferView":300,
			"componentType":5126,
			"count":36,
			"max":[
				2.2044525146484375,
				0.098785400390625,
				0.9264984130859375
			],
			"min":[
				-2.2044906616210938,
				-0.15517807006835938,
				-0.7295455932617188
			],
			"type":"VEC3"
		},
		{
			"bufferView":301,
			"componentType":5126,
			"count":36,
			"type":"VEC3"
		},
		{
			"bufferView":302,
			"componentType":5126,
			"count":36,
			"type":"VEC2"
		},
		{
			"bufferView":303,
			"componentType":5126,
			"count":36,
			"type":"VEC2"
		},
		{
			"bufferView":304,
			"componentType":5126,
			"count":36,
			"type":"VEC2"
		},
		{
			"bufferView":305,
			"componentType":5126,
			"count":36,
			"type":"VEC2"
		},
		{
			"bufferView":306,
			"componentType":5126,
			"count":36,
			"type":"VEC2"
		},
		{
			"bufferView":307,
			"componentType":5126,
			"count":36,
			"type":"VEC2"
		},
		{
			"bufferView":308,
			"componentType":5126,
			"count":36,
			"type":"VEC2"
		},
		{
			"bufferView":309,
			"componentType":5126,
			"count":36,
			"max":[
				2.1944427490234375,
				0.17361831665039062,
				1.04693603515625
			],
			"min":[
				-2.1944808959960938,
				-0.14989471435546875,
				-1.1297760009765625
			],
			"type":"VEC3"
		},
		{
			"bufferView":310,
			"componentType":5126,
			"count":36,
			"type":"VEC3"
		},
		{
			"bufferView":311,
			"componentType":5126,
			"count":36,
			"type":"VEC2"
		},
		{
			"bufferView":312,
			"componentType":5126,
			"count":36,
			"type":"VEC2"
		},
		{
			"bufferView":313,
			"componentType":5126,
			"count":36,
			"type":"VEC2"
		},
		{
			"bufferView":314,
			"componentType":5126,
			"count":36,
			"type":"VEC2"
		},
		{
			"bufferView":315,
			"componentType":5126,
			"count":36,
			"type":"VEC2"
		},
		{
			"bufferView":316,
			"componentType":5126,
			"count":36,
			"type":"VEC2"
		},
		{
			"bufferView":317,
			"componentType":5126,
			"count":36,
			"type":"VEC2"
		},
		{
			"bufferView":318,
			"componentType":5126,
			"count":240,
			"max":[
				19.131824493408203,
				-21.02390480041504,
				18.21820640563965
			],
			"min":[
				-15.491890907287598,
				-24.889429092407227,
				-19.07775115966797
			],
			"type":"VEC3"
		},
		{
			"bufferView":319,
			"componentType":5126,
			"count":240,
			"type":"VEC3"
		},
		{
			"bufferView":320,
			"componentType":5126,
			"count":240,
			"type":"VEC2"
		},
		{
			"bufferView":321,
			"componentType":5126,
			"count":240,
			"type":"VEC2"
		},
		{
			"bufferView":322,
			"componentType":5126,
			"count":240,
			"type":"VEC2"
		},
		{
			"bufferView":323,
			"componentType":5126,
			"count":240,
			"type":"VEC2"
		},
		{
			"bufferView":324,
			"componentType":5126,
			"count":240,
			"type":"VEC2"
		},
		{
			"bufferView":325,
			"componentType":5126,
			"count":240,
			"type":"VEC2"
		},
		{
			"bufferView":326,
			"componentType":5126,
			"count":240,
			"type":"VEC2"
		},
		{
			"bufferView":327,
			"componentType":5126,
			"count":240,
			"type":"VEC2"
		},
		{
			"bufferView":328,
			"componentType":5123,
			"count":360,
			"type":"SCALAR"
		},
		{
			"bufferView":329,
			"componentType":5126,
			"count":600,
			"max":[
				19.131824493408203,
				-20.548643112182617,
				18.21820640563965
			],
			"min":[
				-15.491890907287598,
				-21.02390480041504,
				-19.07775115966797
			],
			"type":"VEC3"
		},
		{
			"bufferView":330,
			"componentType":5126,
			"count":600,
			"type":"VEC3"
		},
		{
			"bufferView":331,
			"componentType":5126,
			"count":600,
			"type":"VEC2"
		},
		{
			"bufferView":332,
			"componentType":5126,
			"count":600,
			"type":"VEC2"
		},
		{
			"bufferView":333,
			"componentType":5126,
			"count":600,
			"type":"VEC2"
		},
		{
			"bufferView":334,
			"componentType":5126,
			"count":600,
			"type":"VEC2"
		},
		{
			"bufferView":335,
			"componentType":5126,
			"count":600,
			"type":"VEC2"
		},
		{
			"bufferView":336,
			"componentType":5126,
			"count":600,
			"type":"VEC2"
		},
		{
			"bufferView":337,
			"componentType":5126,
			"count":600,
			"type":"VEC2"
		},
		{
			"bufferView":338,
			"componentType":5126,
			"count":600,
			"type":"VEC2"
		},
		{
			"bufferView":339,
			"componentType":5123,
			"count":900,
			"type":"SCALAR"
		},
		{
			"bufferView":340,
			"componentType":5126,
			"count":1916,
			"max":[
				15.423068046569824,
				23.153305053710938,
				16.054616928100586
			],
			"min":[
				-13.388062477111816,
				-24.91990089416504,
				-17.452579498291016
			],
			"type":"VEC3"
		},
		{
			"bufferView":341,
			"componentType":5126,
			"count":1916,
			"type":"VEC3"
		},
		{
			"bufferView":342,
			"componentType":5126,
			"count":1916,
			"type":"VEC2"
		},
		{
			"bufferView":343,
			"componentType":5126,
			"count":1916,
			"type":"VEC2"
		},
		{
			"bufferView":344,
			"componentType":5126,
			"count":1916,
			"type":"VEC2"
		},
		{
			"bufferView":345,
			"componentType":5126,
			"count":1916,
			"type":"VEC2"
		},
		{
			"bufferView":346,
			"componentType":5126,
			"count":1916,
			"type":"VEC2"
		},
		{
			"bufferView":347,
			"componentType":5126,
			"count":1916,
			"type":"VEC2"
		},
		{
			"bufferView":348,
			"componentType":5126,
			"count":1916,
			"type":"VEC2"
		},
		{
			"bufferView":349,
			"componentType":5126,
			"count":1916,
			"type":"VEC2"
		},
		{
			"bufferView":350,
			"componentType":5123,
			"count":3126,
			"type":"SCALAR"
		},
		{
			"bufferView":351,
			"componentType":5126,
			"count":5,
			"max":[
				15.423068046569824,
				23.117191314697266,
				10.565053939819336
			],
			"min":[
				-13.387871742248535,
				23.11700439453125,
				-17.452577590942383
			],
			"type":"VEC3"
		},
		{
			"bufferView":352,
			"componentType":5126,
			"count":5,
			"type":"VEC3"
		},
		{
			"bufferView":353,
			"componentType":5126,
			"count":5,
			"type":"VEC2"
		},
		{
			"bufferView":354,
			"componentType":5126,
			"count":5,
			"type":"VEC2"
		},
		{
			"bufferView":355,
			"componentType":5126,
			"count":5,
			"type":"VEC2"
		},
		{
			"bufferView":356,
			"componentType":5126,
			"count":5,
			"type":"VEC2"
		},
		{
			"bufferView":357,
			"componentType":5126,
			"count":5,
			"type":"VEC2"
		},
		{
			"bufferView":358,
			"componentType":5126,
			"count":5,
			"type":"VEC2"
		},
		{
			"bufferView":359,
			"componentType":5126,
			"count":5,
			"type":"VEC2"
		},
		{
			"bufferView":360,
			"componentType":5126,
			"count":5,
			"type":"VEC2"
		},
		{
			"bufferView":361,
			"componentType":5123,
			"count":9,
			"type":"SCALAR"
		},
		{
			"bufferView":362,
			"componentType":5126,
			"count":1065,
			"max":[
				15.56501293182373,
				23.731014251708984,
				16.196565628051758
			],
			"min":[
				-13.530011177062988,
				23.117191314697266,
				-17.594528198242188
			],
			"type":"VEC3"
		},
		{
			"bufferView":363,
			"componentType":5126,
			"count":1065,
			"type":"VEC3"
		},
		{
			"bufferView":364,
			"componentType":5126,
			"count":1065,
			"type":"VEC2"
		},
		{
			"bufferView":365,
			"componentType":5126,
			"count":1065,
			"type":"VEC2"
		},
		{
			"bufferView":366,
			"componentType":5126,
			"count":1065,
			"type":"VEC2"
		},
		{
			"bufferView":367,
			"componentType":5126,
			"count":1065,
			"type":"VEC2"
		},
		{
			"bufferView":368,
			"componentType":5126,
			"count":1065,
			"type":"VEC2"
		},
		{
			"bufferView":369,
			"componentType":5126,
			"count":1065,
			"type":"VEC2"
		},
		{
			"bufferView":370,
			"componentType":5126,
			"count":1065,
			"type":"VEC2"
		},
		{
			"bufferView":371,
			"componentType":5126,
			"count":1065,
			"type":"VEC2"
		},
		{
			"bufferView":372,
			"componentType":5123,
			"count":1641,
			"type":"SCALAR"
		},
		{
			"bufferView":373,
			"componentType":5126,
			"count":4,
			"max":[
				15.422869682312012,
				23.153213500976562,
				16.05461311340332
			],
			"min":[
				-13.388062477111816,
				23.153099060058594,
				10.576925277709961
			],
			"type":"VEC3"
		},
		{
			"bufferView":374,
			"componentType":5126,
			"count":4,
			"type":"VEC3"
		},
		{
			"bufferView":375,
			"componentType":5126,
			"count":4,
			"type":"VEC2"
		},
		{
			"bufferView":376,
			"componentType":5126,
			"count":4,
			"type":"VEC2"
		},
		{
			"bufferView":377,
			"componentType":5126,
			"count":4,
			"type":"VEC2"
		},
		{
			"bufferView":378,
			"componentType":5126,
			"count":4,
			"type":"VEC2"
		},
		{
			"bufferView":379,
			"componentType":5126,
			"count":4,
			"type":"VEC2"
		},
		{
			"bufferView":380,
			"componentType":5126,
			"count":4,
			"type":"VEC2"
		},
		{
			"bufferView":381,
			"componentType":5126,
			"count":4,
			"type":"VEC2"
		},
		{
			"bufferView":382,
			"componentType":5126,
			"count":4,
			"type":"VEC2"
		},
		{
			"bufferView":383,
			"componentType":5123,
			"count":6,
			"type":"SCALAR"
		},
		{
			"bufferView":384,
			"componentType":5126,
			"count":10687,
			"max":[
				16.873416900634766,
				23.26858139038086,
				10.238912582397461
			],
			"min":[
				-14.838227272033691,
				-19.1790714263916,
				-18.902935028076172
			],
			"type":"VEC3"
		},
		{
			"bufferView":385,
			"componentType":5126,
			"count":10687,
			"type":"VEC3"
		},
		{
			"bufferView":386,
			"componentType":5126,
			"count":10687,
			"type":"VEC2"
		},
		{
			"bufferView":387,
			"componentType":5126,
			"count":10687,
			"type":"VEC2"
		},
		{
			"bufferView":388,
			"componentType":5126,
			"count":10687,
			"type":"VEC2"
		},
		{
			"bufferView":389,
			"componentType":5126,
			"count":10687,
			"type":"VEC2"
		},
		{
			"bufferView":390,
			"componentType":5126,
			"count":10687,
			"type":"VEC2"
		},
		{
			"bufferView":391,
			"componentType":5126,
			"count":10687,
			"type":"VEC2"
		},
		{
			"bufferView":392,
			"componentType":5126,
			"count":10687,
			"type":"VEC2"
		},
		{
			"bufferView":393,
			"componentType":5126,
			"count":10687,
			"type":"VEC2"
		},
		{
			"bufferView":394,
			"componentType":5123,
			"count":17496,
			"type":"SCALAR"
		}
	],
	"bufferViews":[
		{
			"buffer":0,
			"byteLength":720,
			"byteOffset":0,
			"target":34962
		},
		{
			"buffer":0,
			"byteLength":720,
			"byteOffset":720,
			"target":34962
		},
		{
			"buffer":0,
			"byteLength":480,
			"byteOffset":1440,
			"target":34962
		},
		{
			"buffer":0,
			"byteLength":480,
			"byteOffset":1920,
			"target":34962
		},
		{
			"buffer":0,
			"byteLength":480,
			"byteOffset":2400,
			"target":34962
		},
		{
			"buffer":0,
			"byteLength":480,
			"byteOffset":2880,
			"target":34962
		},
		{
			"buffer":0,
			"byteLength":480,
			"byteOffset":3360,
			"target":34962
		},
		{
			"buffer":0,
			"byteLength":480,
			"byteOffset":3840,
			"target":34962
		},
		{
			"buffer":0,
			"byteLength":480,
			"byteOffset":4320,
			"target":34962
		},
		{
			"buffer":0,
			"byteLength":156,
			"byteOffset":4800,
			"target":34963
		},
		{
			"buffer":0,
			"byteLength":4884,
			"byteOffset":4956,
			"target":34962
		},
		{
			"buffer":0,
			"byteLength":4884,
			"byteOffset":9840,
			"target":34962
		},
		{
			"buffer":0,
			"byteLength":3256,
			"byteOffset":14724,
			"target":34962
		},
		{
			"buffer":0,
			"byteLength":3256,
			"byteOffset":17980,
			"target":34962
		},
		{
			"buffer":0,
			"byteLength":3256,
			"byteOffset":21236,
			"target":34962
		},
		{
			"buffer":0,
			"byteLength":3256,
			"byteOffset":24492,
			"target":34962
		},
		{
			"buffer":0,
			"byteLength":3256,
			"byteOffset":27748,
			"target":34962
		},
		{
			"buffer":0,
			"byteLength":3256,
			"byteOffset":31004,
			"target":34962
		},
		{
			"buffer":0,
			"byteLength":3256,
			"byteOffset":34260,
			"target":34962
		},
		{
			"buffer":0,
			"byteLength":1242,
			"byteOffset":37516,
			"target":34963
		},
		{
			"buffer":0,
			"byteLength":4872,
			"byteOffset":38760,
			"target":34962
		},
		{
			"buffer":0,
			"byteLength":4872,
			"byteOffset":43632,
			"target":34962
		},
		{
			"buffer":0,
			"byteLength":3248,
			"byteOffset":48504,
			"target":34962
		},
		{
			"buffer":0,
			"byteLength":3248,
			"byteOffset":51752,
			"target":34962
		},
		{
			"buffer":0,
			"byteLength":3248,
			"byteOffset":55000,
			"target":34962
		},
		{
			"buffer":0,
			"byteLength":3248,
			"byteOffset":58248,
			"target":34962
		},
		{
			"buffer":0,
			"byteLength":3248,
			"byteOffset":61496,
			"target":34962
		},
		{
			"buffer":0,
			"byteLength":3248,
			"byteOffset":64744,
			"target":34962
		},
		{
			"buffer":0,
			"byteLength":3248,
			"byteOffset":67992,
			"target":34962
		},
		{
			"buffer":0,
			"byteLength":1242,
			"byteOffset":71240,
			"target":34963
		},
		{
			"buffer":0,
			"byteLength":1788,
			"byteOffset":72484,
			"target":34962
		},
		{
			"buffer":0,
			"byteLength":1788,
			"byteOffset":74272,
			"target":34962
		},
		{
			"buffer":0,
			"byteLength":1192,
			"byteOffset":76060,
			"target":34962
		},
		{
			"buffer":0,
			"byteLength":1192,
			"byteOffset":77252,
			"target":34962
		},
		{
			"buffer":0,
			"byteLength":1192,
			"byteOffset":78444,
			"target":34962
		},
		{
			"buffer":0,
			"byteLength":1192,
			"byteOffset":79636,
			"target":34962
		},
		{
			"buffer":0,
			"byteLength":1192,
			"byteOffset":80828,
			"target":34962
		},
		{
			"buffer":0,
			"byteLength":1192,
			"byteOffset":82020,
			"target":34962
		},
		{
			"buffer":0,
			"byteLength":1192,
			"byteOffset":83212,
			"target":34962
		},
		{
			"buffer":0,
			"byteLength":384,
			"byteOffset":84404,
			"target":34963
		},
		{
			"buffer":0,
			"byteLength":7104,
			"byteOffset":84788,
			"target":34962
		},
		{
			"buffer":0,
			"byteLength":7104,
			"byteOffset":91892,
			"target":34962
		},
		{
			"buffer":0,
			"byteLength":4736,
			"byteOffset":98996,
			"target":34962
		},
		{
			"buffer":0,
			"byteLength":4736,
			"byteOffset":103732,
			"target":34962
		},
		{
			"buffer":0,
			"byteLength":4736,
			"byteOffset":108468,
			"target":34962
		},
		{
			"buffer":0,
			"byteLength":4736,
			"byteOffset":113204,
			"target":34962
		},
		{
			"buffer":0,
			"byteLength":4736,
			"byteOffset":117940,
			"target":34962
		},
		{
			"buffer":0,
			"byteLength":4736,
			"byteOffset":122676,
			"target":34962
		},
		{
			"buffer":0,
			"byteLength":4736,
			"byteOffset":127412,
			"target":34962
		},
		{
			"buffer":0,
			"byteLength":1968,
			"byteOffset":132148,
			"target":34963
		},
		{
			"buffer":0,
			"byteLength":7116,
			"byteOffset":134116,
			"target":34962
		},
		{
			"buffer":0,
			"byteLength":7116,
			"byteOffset":141232,
			"target":34962
		},
		{
			"buffer":0,
			"byteLength":4744,
			"byteOffset":148348,
			"target":34962
		},
		{
			"buffer":0,
			"byteLength":4744,
			"byteOffset":153092,
			"target":34962
		},
		{
			"buffer":0,
			"byteLength":4744,
			"byteOffset":157836,
			"target":34962
		},
		{
			"buffer":0,
			"byteLength":4744,
			"byteOffset":162580,
			"target":34962
		},
		{
			"buffer":0,
			"byteLength":4744,
			"byteOffset":167324,
			"target":34962
		},
		{
			"buffer":0,
			"byteLength":4744,
			"byteOffset":172068,
			"target":34962
		},
		{
			"buffer":0,
			"byteLength":4744,
			"byteOffset":176812,
			"target":34962
		},
		{
			"buffer":0,
			"byteLength":1728,
			"byteOffset":181556,
			"target":34963
		},
		{
			"buffer":0,
			"byteLength":4764,
			"byteOffset":183284,
			"target":34962
		},
		{
			"buffer":0,
			"byteLength":4764,
			"byteOffset":188048,
			"target":34962
		},
		{
			"buffer":0,
			"byteLength":3176,
			"byteOffset":192812,
			"target":34962
		},
		{
			"buffer":0,
			"byteLength":3176,
			"byteOffset":195988,
			"target":34962
		},
		{
			"buffer":0,
			"byteLength":3176,
			"byteOffset":199164,
			"target":34962
		},
		{
			"buffer":0,
			"byteLength":3176,
			"byteOffset":202340,
			"target":34962
		},
		{
			"buffer":0,
			"byteLength":3176,
			"byteOffset":205516,
			"target":34962
		},
		{
			"buffer":0,
			"byteLength":3176,
			"byteOffset":208692,
			"target":34962
		},
		{
			"buffer":0,
			"byteLength":3176,
			"byteOffset":211868,
			"target":34962
		},
		{
			"buffer":0,
			"byteLength":1416,
			"byteOffset":215044,
			"target":34963
		},
		{
			"buffer":0,
			"byteLength":480,
			"byteOffset":216460,
			"target":34962
		},
		{
			"buffer":0,
			"byteLength":480,
			"byteOffset":216940,
			"target":34962
		},
		{
			"buffer":0,
			"byteLength":320,
			"byteOffset":217420,
			"target":34962
		},
		{
			"buffer":0,
			"byteLength":320,
			"byteOffset":217740,
			"target":34962
		},
		{
			"buffer":0,
			"byteLength":320,
			"byteOffset":218060,
			"target":34962
		},
		{
			"buffer":0,
			"byteLength":320,
			"byteOffset":218380,
			"target":34962
		},
		{
			"buffer":0,
			"byteLength":320,
			"byteOffset":218700,
			"target":34962
		},
		{
			"buffer":0,
			"byteLength":320,
			"byteOffset":219020,
			"target":34962
		},
		{
			"buffer":0,
			"byteLength":320,
			"byteOffset":219340,
			"target":34962
		},
		{
			"buffer":0,
			"byteLength":120,
			"byteOffset":219660,
			"target":34963
		},
		{
			"buffer":0,
			"byteLength":432,
			"byteOffset":219780,
			"target":34962
		},
		{
			"buffer":0,
			"byteLength":432,
			"byteOffset":220212,
			"target":34962
		},
		{
			"buffer":0,
			"byteLength":288,
			"byteOffset":220644,
			"target":34962
		},
		{
			"buffer":0,
			"byteLength":288,
			"byteOffset":220932,
			"target":34962
		},
		{
			"buffer":0,
			"byteLength":288,
			"byteOffset":221220,
			"target":34962
		},
		{
			"buffer":0,
			"byteLength":288,
			"byteOffset":221508,
			"target":34962
		},
		{
			"buffer":0,
			"byteLength":288,
			"byteOffset":221796,
			"target":34962
		},
		{
			"buffer":0,
			"byteLength":288,
			"byteOffset":222084,
			"target":34962
		},
		{
			"buffer":0,
			"byteLength":288,
			"byteOffset":222372,
			"target":34962
		},
		{
			"buffer":0,
			"byteLength":108,
			"byteOffset":222660,
			"target":34963
		},
		{
			"buffer":0,
			"byteLength":432,
			"byteOffset":222768,
			"target":34962
		},
		{
			"buffer":0,
			"byteLength":432,
			"byteOffset":223200,
			"target":34962
		},
		{
			"buffer":0,
			"byteLength":288,
			"byteOffset":223632,
			"target":34962
		},
		{
			"buffer":0,
			"byteLength":288,
			"byteOffset":223920,
			"target":34962
		},
		{
			"buffer":0,
			"byteLength":288,
			"byteOffset":224208,
			"target":34962
		},
		{
			"buffer":0,
			"byteLength":288,
			"byteOffset":224496,
			"target":34962
		},
		{
			"buffer":0,
			"byteLength":288,
			"byteOffset":224784,
			"target":34962
		},
		{
			"buffer":0,
			"byteLength":288,
			"byteOffset":225072,
			"target":34962
		},
		{
			"buffer":0,
			"byteLength":288,
			"byteOffset":225360,
			"target":34962
		},
		{
			"buffer":0,
			"byteLength":108,
			"byteOffset":225648,
			"target":34963
		},
		{
			"buffer":0,
			"byteLength":7008,
			"byteOffset":225756,
			"target":34962
		},
		{
			"buffer":0,
			"byteLength":7008,
			"byteOffset":232764,
			"target":34962
		},
		{
			"buffer":0,
			"byteLength":4672,
			"byteOffset":239772,
			"target":34962
		},
		{
			"buffer":0,
			"byteLength":4672,
			"byteOffset":244444,
			"target":34962
		},
		{
			"buffer":0,
			"byteLength":4672,
			"byteOffset":249116,
			"target":34962
		},
		{
			"buffer":0,
			"byteLength":4672,
			"byteOffset":253788,
			"target":34962
		},
		{
			"buffer":0,
			"byteLength":4672,
			"byteOffset":258460,
			"target":34962
		},
		{
			"buffer":0,
			"byteLength":4672,
			"byteOffset":263132,
			"target":34962
		},
		{
			"buffer":0,
			"byteLength":4672,
			"byteOffset":267804,
			"target":34962
		},
		{
			"buffer":0,
			"byteLength":1644,
			"byteOffset":272476,
			"target":34963
		},
		{
			"buffer":0,
			"byteLength":7008,
			"byteOffset":274120,
			"target":34962
		},
		{
			"buffer":0,
			"byteLength":7008,
			"byteOffset":281128,
			"target":34962
		},
		{
			"buffer":0,
			"byteLength":4672,
			"byteOffset":288136,
			"target":34962
		},
		{
			"buffer":0,
			"byteLength":4672,
			"byteOffset":292808,
			"target":34962
		},
		{
			"buffer":0,
			"byteLength":4672,
			"byteOffset":297480,
			"target":34962
		},
		{
			"buffer":0,
			"byteLength":4672,
			"byteOffset":302152,
			"target":34962
		},
		{
			"buffer":0,
			"byteLength":4672,
			"byteOffset":306824,
			"target":34962
		},
		{
			"buffer":0,
			"byteLength":4672,
			"byteOffset":311496,
			"target":34962
		},
		{
			"buffer":0,
			"byteLength":4672,
			"byteOffset":316168,
			"target":34962
		},
		{
			"buffer":0,
			"byteLength":1644,
			"byteOffset":320840,
			"target":34963
		},
		{
			"buffer":0,
			"byteLength":948,
			"byteOffset":322484,
			"target":34962
		},
		{
			"buffer":0,
			"byteLength":948,
			"byteOffset":323432,
			"target":34962
		},
		{
			"buffer":0,
			"byteLength":632,
			"byteOffset":324380,
			"target":34962
		},
		{
			"buffer":0,
			"byteLength":632,
			"byteOffset":325012,
			"target":34962
		},
		{
			"buffer":0,
			"byteLength":632,
			"byteOffset":325644,
			"target":34962
		},
		{
			"buffer":0,
			"byteLength":632,
			"byteOffset":326276,
			"target":34962
		},
		{
			"buffer":0,
			"byteLength":632,
			"byteOffset":326908,
			"target":34962
		},
		{
			"buffer":0,
			"byteLength":632,
			"byteOffset":327540,
			"target":34962
		},
		{
			"buffer":0,
			"byteLength":632,
			"byteOffset":328172,
			"target":34962
		},
		{
			"buffer":0,
			"byteLength":204,
			"byteOffset":328804,
			"target":34963
		},
		{
			"buffer":0,
			"byteLength":1008,
			"byteOffset":329008,
			"target":34962
		},
		{
			"buffer":0,
			"byteLength":1008,
			"byteOffset":330016,
			"target":34962
		},
		{
			"buffer":0,
			"byteLength":672,
			"byteOffset":331024,
			"target":34962
		},
		{
			"buffer":0,
			"byteLength":672,
			"byteOffset":331696,
			"target":34962
		},
		{
			"buffer":0,
			"byteLength":672,
			"byteOffset":332368,
			"target":34962
		},
		{
			"buffer":0,
			"byteLength":672,
			"byteOffset":333040,
			"target":34962
		},
		{
			"buffer":0,
			"byteLength":672,
			"byteOffset":333712,
			"target":34962
		},
		{
			"buffer":0,
			"byteLength":672,
			"byteOffset":334384,
			"target":34962
		},
		{
			"buffer":0,
			"byteLength":672,
			"byteOffset":335056,
			"target":34962
		},
		{
			"buffer":0,
			"byteLength":300,
			"byteOffset":335728,
			"target":34963
		},
		{
			"buffer":0,
			"byteLength":756,
			"byteOffset":336028,
			"target":34962
		},
		{
			"buffer":0,
			"byteLength":756,
			"byteOffset":336784,
			"target":34962
		},
		{
			"buffer":0,
			"byteLength":504,
			"byteOffset":337540,
			"target":34962
		},
		{
			"buffer":0,
			"byteLength":504,
			"byteOffset":338044,
			"target":34962
		},
		{
			"buffer":0,
			"byteLength":504,
			"byteOffset":338548,
			"target":34962
		},
		{
			"buffer":0,
			"byteLength":504,
			"byteOffset":339052,
			"target":34962
		},
		{
			"buffer":0,
			"byteLength":504,
			"byteOffset":339556,
			"target":34962
		},
		{
			"buffer":0,
			"byteLength":504,
			"byteOffset":340060,
			"target":34962
		},
		{
			"buffer":0,
			"byteLength":504,
			"byteOffset":340564,
			"target":34962
		},
		{
			"buffer":0,
			"byteLength":156,
			"byteOffset":341068,
			"target":34963
		},
		{
			"buffer":0,
			"byteLength":2220,
			"byteOffset":341224,
			"target":34962
		},
		{
			"buffer":0,
			"byteLength":2220,
			"byteOffset":343444,
			"target":34962
		},
		{
			"buffer":0,
			"byteLength":1480,
			"byteOffset":345664,
			"target":34962
		},
		{
			"buffer":0,
			"byteLength":1480,
			"byteOffset":347144,
			"target":34962
		},
		{
			"buffer":0,
			"byteLength":1480,
			"byteOffset":348624,
			"target":34962
		},
		{
			"buffer":0,
			"byteLength":1480,
			"byteOffset":350104,
			"target":34962
		},
		{
			"buffer":0,
			"byteLength":1480,
			"byteOffset":351584,
			"target":34962
		},
		{
			"buffer":0,
			"byteLength":1480,
			"byteOffset":353064,
			"target":34962
		},
		{
			"buffer":0,
			"byteLength":1480,
			"byteOffset":354544,
			"target":34962
		},
		{
			"buffer":0,
			"byteLength":984,
			"byteOffset":356024,
			"target":34963
		},
		{
			"buffer":0,
			"byteLength":1164,
			"byteOffset":357008,
			"target":34962
		},
		{
			"buffer":0,
			"byteLength":1164,
			"byteOffset":358172,
			"target":34962
		},
		{
			"buffer":0,
			"byteLength":776,
			"byteOffset":359336,
			"target":34962
		},
		{
			"buffer":0,
			"byteLength":776,
			"byteOffset":360112,
			"target":34962
		},
		{
			"buffer":0,
			"byteLength":776,
			"byteOffset":360888,
			"target":34962
		},
		{
			"buffer":0,
			"byteLength":776,
			"byteOffset":361664,
			"target":34962
		},
		{
			"buffer":0,
			"byteLength":776,
			"byteOffset":362440,
			"target":34962
		},
		{
			"buffer":0,
			"byteLength":776,
			"byteOffset":363216,
			"target":34962
		},
		{
			"buffer":0,
			"byteLength":776,
			"byteOffset":363992,
			"target":34962
		},
		{
			"buffer":0,
			"byteLength":240,
			"byteOffset":364768,
			"target":34963
		},
		{
			"buffer":0,
			"byteLength":4488,
			"byteOffset":365008,
			"target":34962
		},
		{
			"buffer":0,
			"byteLength":4488,
			"byteOffset":369496,
			"target":34962
		},
		{
			"buffer":0,
			"byteLength":2992,
			"byteOffset":373984,
			"target":34962
		},
		{
			"buffer":0,
			"byteLength":2992,
			"byteOffset":376976,
			"target":34962
		},
		{
			"buffer":0,
			"byteLength":2992,
			"byteOffset":379968,
			"target":34962
		},
		{
			"buffer":0,
			"byteLength":2992,
			"byteOffset":382960,
			"target":34962
		},
		{
			"buffer":0,
			"byteLength":2992,
			"byteOffset":385952,
			"target":34962
		},
		{
			"buffer":0,
			"byteLength":2992,
			"byteOffset":388944,
			"target":34962
		},
		{
			"buffer":0,
			"byteLength":2992,
			"byteOffset":391936,
			"target":34962
		},
		{
			"buffer":0,
			"byteLength":1416,
			"byteOffset":394928,
			"target":34963
		},
		{
			"buffer":0,
			"byteLength":480,
			"byteOffset":396344,
			"target":34962
		},
		{
			"buffer":0,
			"byteLength":480,
			"byteOffset":396824,
			"target":34962
		},
		{
			"buffer":0,
			"byteLength":320,
			"byteOffset":397304,
			"target":34962
		},
		{
			"buffer":0,
			"byteLength":320,
			"byteOffset":397624,
			"target":34962
		},
		{
			"buffer":0,
			"byteLength":320,
			"byteOffset":397944,
			"target":34962
		},
		{
			"buffer":0,
			"byteLength":320,
			"byteOffset":398264,
			"target":34962
		},
		{
			"buffer":0,
			"byteLength":320,
			"byteOffset":398584,
			"target":34962
		},
		{
			"buffer":0,
			"byteLength":320,
			"byteOffset":398904,
			"target":34962
		},
		{
			"buffer":0,
			"byteLength":320,
			"byteOffset":399224,
			"target":34962
		},
		{
			"buffer":0,
			"byteLength":120,
			"byteOffset":399544,
			"target":34963
		},
		{
			"buffer":0,
			"byteLength":576,
			"byteOffset":399664,
			"target":34962
		},
		{
			"buffer":0,
			"byteLength":576,
			"byteOffset":400240,
			"target":34962
		},
		{
			"buffer":0,
			"byteLength":384,
			"byteOffset":400816,
			"target":34962
		},
		{
			"buffer":0,
			"byteLength":384,
			"byteOffset":401200,
			"target":34962
		},
		{
			"buffer":0,
			"byteLength":384,
			"byteOffset":401584,
			"target":34962
		},
		{
			"buffer":0,
			"byteLength":384,
			"byteOffset":401968,
			"target":34962
		},
		{
			"buffer":0,
			"byteLength":384,
			"byteOffset":402352,
			"target":34962
		},
		{
			"buffer":0,
			"byteLength":384,
			"byteOffset":402736,
			"target":34962
		},
		{
			"buffer":0,
			"byteLength":384,
			"byteOffset":403120,
			"target":34962
		},
		{
			"buffer":0,
			"byteLength":144,
			"byteOffset":403504,
			"target":34963
		},
		{
			"buffer":0,
			"byteLength":6240,
			"byteOffset":403648,
			"target":34962
		},
		{
			"buffer":0,
			"byteLength":6240,
			"byteOffset":409888,
			"target":34962
		},
		{
			"buffer":0,
			"byteLength":4160,
			"byteOffset":416128,
			"target":34962
		},
		{
			"buffer":0,
			"byteLength":4160,
			"byteOffset":420288,
			"target":34962
		},
		{
			"buffer":0,
			"byteLength":4160,
			"byteOffset":424448,
			"target":34962
		},
		{
			"buffer":0,
			"byteLength":4160,
			"byteOffset":428608,
			"target":34962
		},
		{
			"buffer":0,
			"byteLength":4160,
			"byteOffset":432768,
			"target":34962
		},
		{
			"buffer":0,
			"byteLength":4160,
			"byteOffset":436928,
			"target":34962
		},
		{
			"buffer":0,
			"byteLength":4160,
			"byteOffset":441088,
			"target":34962
		},
		{
			"buffer":0,
			"byteLength":1716,
			"byteOffset":445248,
			"target":34963
		},
		{
			"buffer":0,
			"byteLength":5640,
			"byteOffset":446964,
			"target":34962
		},
		{
			"buffer":0,
			"byteLength":5640,
			"byteOffset":452604,
			"target":34962
		},
		{
			"buffer":0,
			"byteLength":3760,
			"byteOffset":458244,
			"target":34962
		},
		{
			"buffer":0,
			"byteLength":3760,
			"byteOffset":462004,
			"target":34962
		},
		{
			"buffer":0,
			"byteLength":3760,
			"byteOffset":465764,
			"target":34962
		},
		{
			"buffer":0,
			"byteLength":3760,
			"byteOffset":469524,
			"target":34962
		},
		{
			"buffer":0,
			"byteLength":3760,
			"byteOffset":473284,
			"target":34962
		},
		{
			"buffer":0,
			"byteLength":3760,
			"byteOffset":477044,
			"target":34962
		},
		{
			"buffer":0,
			"byteLength":3760,
			"byteOffset":480804,
			"target":34962
		},
		{
			"buffer":0,
			"byteLength":1410,
			"byteOffset":484564,
			"target":34963
		},
		{
			"buffer":0,
			"byteLength":5640,
			"byteOffset":485976,
			"target":34962
		},
		{
			"buffer":0,
			"byteLength":5640,
			"byteOffset":491616,
			"target":34962
		},
		{
			"buffer":0,
			"byteLength":3760,
			"byteOffset":497256,
			"target":34962
		},
		{
			"buffer":0,
			"byteLength":3760,
			"byteOffset":501016,
			"target":34962
		},
		{
			"buffer":0,
			"byteLength":3760,
			"byteOffset":504776,
			"target":34962
		},
		{
			"buffer":0,
			"byteLength":3760,
			"byteOffset":508536,
			"target":34962
		},
		{
			"buffer":0,
			"byteLength":3760,
			"byteOffset":512296,
			"target":34962
		},
		{
			"buffer":0,
			"byteLength":3760,
			"byteOffset":516056,
			"target":34962
		},
		{
			"buffer":0,
			"byteLength":3760,
			"byteOffset":519816,
			"target":34962
		},
		{
			"buffer":0,
			"byteLength":1410,
			"byteOffset":523576,
			"target":34963
		},
		{
			"buffer":0,
			"byteLength":4968,
			"byteOffset":524988,
			"target":34962
		},
		{
			"buffer":0,
			"byteLength":4968,
			"byteOffset":529956,
			"target":34962
		},
		{
			"buffer":0,
			"byteLength":3312,
			"byteOffset":534924,
			"target":34962
		},
		{
			"buffer":0,
			"byteLength":3312,
			"byteOffset":538236,
			"target":34962
		},
		{
			"buffer":0,
			"byteLength":3312,
			"byteOffset":541548,
			"target":34962
		},
		{
			"buffer":0,
			"byteLength":3312,
			"byteOffset":544860,
			"target":34962
		},
		{
			"buffer":0,
			"byteLength":3312,
			"byteOffset":548172,
			"target":34962
		},
		{
			"buffer":0,
			"byteLength":3312,
			"byteOffset":551484,
			"target":34962
		},
		{
			"buffer":0,
			"byteLength":3312,
			"byteOffset":554796,
			"target":34962
		},
		{
			"buffer":0,
			"byteLength":1416,
			"byteOffset":558108,
			"target":34963
		},
		{
			"buffer":0,
			"byteLength":480,
			"byteOffset":559524,
			"target":34962
		},
		{
			"buffer":0,
			"byteLength":480,
			"byteOffset":560004,
			"target":34962
		},
		{
			"buffer":0,
			"byteLength":320,
			"byteOffset":560484,
			"target":34962
		},
		{
			"buffer":0,
			"byteLength":320,
			"byteOffset":560804,
			"target":34962
		},
		{
			"buffer":0,
			"byteLength":320,
			"byteOffset":561124,
			"target":34962
		},
		{
			"buffer":0,
			"byteLength":320,
			"byteOffset":561444,
			"target":34962
		},
		{
			"buffer":0,
			"byteLength":320,
			"byteOffset":561764,
			"target":34962
		},
		{
			"buffer":0,
			"byteLength":320,
			"byteOffset":562084,
			"target":34962
		},
		{
			"buffer":0,
			"byteLength":320,
			"byteOffset":562404,
			"target":34962
		},
		{
			"buffer":0,
			"byteLength":120,
			"byteOffset":562724,
			"target":34963
		},
		{
			"buffer":0,
			"byteLength":780,
			"byteOffset":562844,
			"target":34962
		},
		{
			"buffer":0,
			"byteLength":780,
			"byteOffset":563624,
			"target":34962
		},
		{
			"buffer":0,
			"byteLength":520,
			"byteOffset":564404,
			"target":34962
		},
		{
			"buffer":0,
			"byteLength":520,
			"byteOffset":564924,
			"target":34962
		},
		{
			"buffer":0,
			"byteLength":520,
			"byteOffset":565444,
			"target":34962
		},
		{
			"buffer":0,
			"byteLength":520,
			"byteOffset":565964,
			"target":34962
		},
		{
			"buffer":0,
			"byteLength":520,
			"byteOffset":566484,
			"target":34962
		},
		{
			"buffer":0,
			"byteLength":520,
			"byteOffset":567004,
			"target":34962
		},
		{
			"buffer":0,
			"byteLength":520,
			"byteOffset":567524,
			"target":34962
		},
		{
			"buffer":0,
			"byteLength":204,
			"byteOffset":568044,
			"target":34963
		},
		{
			"buffer":0,
			"byteLength":624,
			"byteOffset":568248,
			"target":34962
		},
		{
			"buffer":0,
			"byteLength":624,
			"byteOffset":568872,
			"target":34962
		},
		{
			"buffer":0,
			"byteLength":416,
			"byteOffset":569496,
			"target":34962
		},
		{
			"buffer":0,
			"byteLength":416,
			"byteOffset":569912,
			"target":34962
		},
		{
			"buffer":0,
			"byteLength":416,
			"byteOffset":570328,
			"target":34962
		},
		{
			"buffer":0,
			"byteLength":416,
			"byteOffset":570744,
			"target":34962
		},
		{
			"buffer":0,
			"byteLength":416,
			"byteOffset":571160,
			"target":34962
		},
		{
			"buffer":0,
			"byteLength":416,
			"byteOffset":571576,
			"target":34962
		},
		{
			"buffer":0,
			"byteLength":416,
			"byteOffset":571992,
			"target":34962
		},
		{
			"buffer":0,
			"byteLength":144,
			"byteOffset":572408,
			"target":34963
		},
		{
			"buffer":0,
			"byteLength":5520,
			"byteOffset":572552,
			"target":34962
		},
		{
			"buffer":0,
			"byteLength":5520,
			"byteOffset":578072,
			"target":34962
		},
		{
			"buffer":0,
			"byteLength":3680,
			"byteOffset":583592,
			"target":34962
		},
		{
			"buffer":0,
			"byteLength":3680,
			"byteOffset":587272,
			"target":34962
		},
		{
			"buffer":0,
			"byteLength":3680,
			"byteOffset":590952,
			"target":34962
		},
		{
			"buffer":0,
			"byteLength":3680,
			"byteOffset":594632,
			"target":34962
		},
		{
			"buffer":0,
			"byteLength":3680,
			"byteOffset":598312,
			"target":34962
		},
		{
			"buffer":0,
			"byteLength":3680,
			"byteOffset":601992,
			"target":34962
		},
		{
			"buffer":0,
			"byteLength":3680,
			"byteOffset":605672,
			"target":34962
		},
		{
			"buffer":0,
			"byteLength":1548,
			"byteOffset":609352,
			"target":34963
		},
		{
			"buffer":0,
			"byteLength":576,
			"byteOffset":610900,
			"target":34962
		},
		{
			"buffer":0,
			"byteLength":576,
			"byteOffset":611476,
			"target":34962
		},
		{
			"buffer":0,
			"byteLength":384,
			"byteOffset":612052,
			"target":34962
		},
		{
			"buffer":0,
			"byteLength":384,
			"byteOffset":612436,
			"target":34962
		},
		{
			"buffer":0,
			"byteLength":384,
			"byteOffset":612820,
			"target":34962
		},
		{
			"buffer":0,
			"byteLength":384,
			"byteOffset":613204,
			"target":34962
		},
		{
			"buffer":0,
			"byteLength":384,
			"byteOffset":613588,
			"target":34962
		},
		{
			"buffer":0,
			"byteLength":384,
			"byteOffset":613972,
			"target":34962
		},
		{
			"buffer":0,
			"byteLength":384,
			"byteOffset":614356,
			"target":34962
		},
		{
			"buffer":0,
			"byteLength":144,
			"byteOffset":614740,
			"target":34963
		},
		{
			"buffer":0,
			"byteLength":4956,
			"byteOffset":614884,
			"target":34962
		},
		{
			"buffer":0,
			"byteLength":4956,
			"byteOffset":619840,
			"target":34962
		},
		{
			"buffer":0,
			"byteLength":3304,
			"byteOffset":624796,
			"target":34962
		},
		{
			"buffer":0,
			"byteLength":3304,
			"byteOffset":628100,
			"target":34962
		},
		{
			"buffer":0,
			"byteLength":3304,
			"byteOffset":631404,
			"target":34962
		},
		{
			"buffer":0,
			"byteLength":3304,
			"byteOffset":634708,
			"target":34962
		},
		{
			"buffer":0,
			"byteLength":3304,
			"byteOffset":638012,
			"target":34962
		},
		{
			"buffer":0,
			"byteLength":3304,
			"byteOffset":641316,
			"target":34962
		},
		{
			"buffer":0,
			"byteLength":3304,
			"byteOffset":644620,
			"target":34962
		},
		{
			"buffer":0,
			"byteLength":1716,
			"byteOffset":647924,
			"target":34963
		},
		{
			"buffer":0,
			"byteLength":432,
			"byteOffset":649640,
			"target":34962
		},
		{
			"buffer":0,
			"byteLength":432,
			"byteOffset":650072,
			"target":34962
		},
		{
			"buffer":0,
			"byteLength":288,
			"byteOffset":650504,
			"target":34962
		},
		{
			"buffer":0,
			"byteLength":288,
			"byteOffset":650792,
			"target":34962
		},
		{
			"buffer":0,
			"byteLength":288,
			"byteOffset":651080,
			"target":34962
		},
		{
			"buffer":0,
			"byteLength":288,
			"byteOffset":651368,
			"target":34962
		},
		{
			"buffer":0,
			"byteLength":288,
			"byteOffset":651656,
			"target":34962
		},
		{
			"buffer":0,
			"byteLength":288,
			"byteOffset":651944,
			"target":34962
		},
		{
			"buffer":0,
			"byteLength":288,
			"byteOffset":652232,
			"target":34962
		},
		{
			"buffer":0,
			"byteLength":432,
			"byteOffset":652520,
			"target":34962
		},
		{
			"buffer":0,
			"byteLength":432,
			"byteOffset":652952,
			"target":34962
		},
		{
			"buffer":0,
			"byteLength":288,
			"byteOffset":653384,
			"target":34962
		},
		{
			"buffer":0,
			"byteLength":288,
			"byteOffset":653672,
			"target":34962
		},
		{
			"buffer":0,
			"byteLength":288,
			"byteOffset":653960,
			"target":34962
		},
		{
			"buffer":0,
			"byteLength":288,
			"byteOffset":654248,
			"target":34962
		},
		{
			"buffer":0,
			"byteLength":288,
			"byteOffset":654536,
			"target":34962
		},
		{
			"buffer":0,
			"byteLength":288,
			"byteOffset":654824,
			"target":34962
		},
		{
			"buffer":0,
			"byteLength":288,
			"byteOffset":655112,
			"target":34962
		},
		{
			"buffer":0,
			"byteLength":2880,
			"byteOffset":655400,
			"target":34962
		},
		{
			"buffer":0,
			"byteLength":2880,
			"byteOffset":658280,
			"target":34962
		},
		{
			"buffer":0,
			"byteLength":1920,
			"byteOffset":661160,
			"target":34962
		},
		{
			"buffer":0,
			"byteLength":1920,
			"byteOffset":663080,
			"target":34962
		},
		{
			"buffer":0,
			"byteLength":1920,
			"byteOffset":665000,
			"target":34962
		},
		{
			"buffer":0,
			"byteLength":1920,
			"byteOffset":666920,
			"target":34962
		},
		{
			"buffer":0,
			"byteLength":1920,
			"byteOffset":668840,
			"target":34962
		},
		{
			"buffer":0,
			"byteLength":1920,
			"byteOffset":670760,
			"target":34962
		},
		{
			"buffer":0,
			"byteLength":1920,
			"byteOffset":672680,
			"target":34962
		},
		{
			"buffer":0,
			"byteLength":1920,
			"byteOffset":674600,
			"target":34962
		},
		{
			"buffer":0,
			"byteLength":720,
			"byteOffset":676520,
			"target":34963
		},
		{
			"buffer":0,
			"byteLength":7200,
			"byteOffset":677240,
			"target":34962
		},
		{
			"buffer":0,
			"byteLength":7200,
			"byteOffset":684440,
			"target":34962
		},
		{
			"buffer":0,
			"byteLength":4800,
			"byteOffset":691640,
			"target":34962
		},
		{
			"buffer":0,
			"byteLength":4800,
			"byteOffset":696440,
			"target":34962
		},
		{
			"buffer":0,
			"byteLength":4800,
			"byteOffset":701240,
			"target":34962
		},
		{
			"buffer":0,
			"byteLength":4800,
			"byteOffset":706040,
			"target":34962
		},
		{
			"buffer":0,
			"byteLength":4800,
			"byteOffset":710840,
			"target":34962
		},
		{
			"buffer":0,
			"byteLength":4800,
			"byteOffset":715640,
			"target":34962
		},
		{
			"buffer":0,
			"byteLength":4800,
			"byteOffset":720440,
			"target":34962
		},
		{
			"buffer":0,
			"byteLength":4800,
			"byteOffset":725240,
			"target":34962
		},
		{
			"buffer":0,
			"byteLength":1800,
			"byteOffset":730040,
			"target":34963
		},
		{
			"buffer":0,
			"byteLength":22992,
			"byteOffset":731840,
			"target":34962
		},
		{
			"buffer":0,
			"byteLength":22992,
			"byteOffset":754832,
			"target":34962
		},
		{
			"buffer":0,
			"byteLength":15328,
			"byteOffset":777824,
			"target":34962
		},
		{
			"buffer":0,
			"byteLength":15328,
			"byteOffset":793152,
			"target":34962
		},
		{
			"buffer":0,
			"byteLength":15328,
			"byteOffset":808480,
			"target":34962
		},
		{
			"buffer":0,
			"byteLength":15328,
			"byteOffset":823808,
			"target":34962
		},
		{
			"buffer":0,
			"byteLength":15328,
			"byteOffset":839136,
			"target":34962
		},
		{
			"buffer":0,
			"byteLength":15328,
			"byteOffset":854464,
			"target":34962
		},
		{
			"buffer":0,
			"byteLength":15328,
			"byteOffset":869792,
			"target":34962
		},
		{
			"buffer":0,
			"byteLength":15328,
			"byteOffset":885120,
			"target":34962
		},
		{
			"buffer":0,
			"byteLength":6252,
			"byteOffset":900448,
			"target":34963
		},
		{
			"buffer":0,
			"byteLength":60,
			"byteOffset":906700,
			"target":34962
		},
		{
			"buffer":0,
			"byteLength":60,
			"byteOffset":906760,
			"target":34962
		},
		{
			"buffer":0,
			"byteLength":40,
			"byteOffset":906820,
			"target":34962
		},
		{
			"buffer":0,
			"byteLength":40,
			"byteOffset":906860,
			"target":34962
		},
		{
			"buffer":0,
			"byteLength":40,
			"byteOffset":906900,
			"target":34962
		},
		{
			"buffer":0,
			"byteLength":40,
			"byteOffset":906940,
			"target":34962
		},
		{
			"buffer":0,
			"byteLength":40,
			"byteOffset":906980,
			"target":34962
		},
		{
			"buffer":0,
			"byteLength":40,
			"byteOffset":907020,
			"target":34962
		},
		{
			"buffer":0,
			"byteLength":40,
			"byteOffset":907060,
			"target":34962
		},
		{
			"buffer":0,
			"byteLength":40,
			"byteOffset":907100,
			"target":34962
		},
		{
			"buffer":0,
			"byteLength":18,
			"byteOffset":907140,
			"target":34963
		},
		{
			"buffer":0,
			"byteLength":12780,
			"byteOffset":907160,
			"target":34962
		},
		{
			"buffer":0,
			"byteLength":12780,
			"byteOffset":919940,
			"target":34962
		},
		{
			"buffer":0,
			"byteLength":8520,
			"byteOffset":932720,
			"target":34962
		},
		{
			"buffer":0,
			"byteLength":8520,
			"byteOffset":941240,
			"target":34962
		},
		{
			"buffer":0,
			"byteLength":8520,
			"byteOffset":949760,
			"target":34962
		},
		{
			"buffer":0,
			"byteLength":8520,
			"byteOffset":958280,
			"target":34962
		},
		{
			"buffer":0,
			"byteLength":8520,
			"byteOffset":966800,
			"target":34962
		},
		{
			"buffer":0,
			"byteLength":8520,
			"byteOffset":975320,
			"target":34962
		},
		{
			"buffer":0,
			"byteLength":8520,
			"byteOffset":983840,
			"target":34962
		},
		{
			"buffer":0,
			"byteLength":8520,
			"byteOffset":992360,
			"target":34962
		},
		{
			"buffer":0,
			"byteLength":3282,
			"byteOffset":1000880,
			"target":34963
		},
		{
			"buffer":0,
			"byteLength":48,
			"byteOffset":1004164,
			"target":34962
		},
		{
			"buffer":0,
			"byteLength":48,
			"byteOffset":1004212,
			"target":34962
		},
		{
			"buffer":0,
			"byteLength":32,
			"byteOffset":1004260,
			"target":34962
		},
		{
			"buffer":0,
			"byteLength":32,
			"byteOffset":1004292,
			"target":34962
		},
		{
			"buffer":0,
			"byteLength":32,
			"byteOffset":1004324,
			"target":34962
		},
		{
			"buffer":0,
			"byteLength":32,
			"byteOffset":1004356,
			"target":34962
		},
		{
			"buffer":0,
			"byteLength":32,
			"byteOffset":1004388,
			"target":34962
		},
		{
			"buffer":0,
			"byteLength":32,
			"byteOffset":1004420,
			"target":34962
		},
		{
			"buffer":0,
			"byteLength":32,
			"byteOffset":1004452,
			"target":34962
		},
		{
			"buffer":0,
			"byteLength":32,
			"byteOffset":1004484,
			"target":34962
		},
		{
			"buffer":0,
			"byteLength":12,
			"byteOffset":1004516,
			"target":34963
		},
		{
			"buffer":0,
			"byteLength":128244,
			"byteOffset":1004528,
			"target":34962
		},
		{
			"buffer":0,
			"byteLength":128244,
			"byteOffset":1132772,
			"target":34962
		},
		{
			"buffer":0,
			"byteLength":85496,
			"byteOffset":1261016,
			"target":34962
		},
		{
			"buffer":0,
			"byteLength":85496,
			"byteOffset":1346512,
			"target":34962
		},
		{
			"buffer":0,
			"byteLength":85496,
			"byteOffset":1432008,
			"target":34962
		},
		{
			"buffer":0,
			"byteLength":85496,
			"byteOffset":1517504,
			"target":34962
		},
		{
			"buffer":0,
			"byteLength":85496,
			"byteOffset":1603000,
			"target":34962
		},
		{
			"buffer":0,
			"byteLength":85496,
			"byteOffset":1688496,
			"target":34962
		},
		{
			"buffer":0,
			"byteLength":85496,
			"byteOffset":1773992,
			"target":34962
		},
		{
			"buffer":0,
			"byteLength":85496,
			"byteOffset":1859488,
			"target":34962
		},
		{
			"buffer":0,
			"byteLength":34992,
			"byteOffset":1944984,
			"target":34963
		}
	],
	"samplers":[
		{
			"magFilter":9729,
			"minFilter":9987
		},
		{
			"magFilter":9729,
			"minFilter":9987,
			"wrapS":33071,
			"wrapT":33071
		}
	],
	"buffers":[
		{
			"byteLength":1979976,
			"uri":"building5.bin"
		}
	]
}
