{
	"asset":{
		"generator":"Khronos glTF Blender I/O v4.2.70",
		"version":"2.0"
	},
	"extensionsUsed":[
		"KHR_materials_transmission",
		"KHR_texture_transform"
	],
	"extensionsRequired":[
		"KHR_texture_transform"
	],
	"scene":0,
	"scenes":[
		{
			"name":"Scene",
			"nodes":[
				0,
				1,
				2,
				3,
				4,
				5,
				6,
				7,
				8,
				9,
				10,
				11,
				12,
				13,
				14,
				15,
				16,
				17,
				18,
				19,
				20,
				21,
				22,
				23,
				24,
				25,
				26,
				27,
				28,
				29
			]
		}
	],
	"nodes":[
		{
			"mesh":0,
			"name":"Object_87.012",
			"translation":[
				-117.65398406982422,
				72.5595474243164,
				104.06991577148438
			]
		},
		{
			"mesh":1,
			"name":"Object_67.012",
			"translation":[
				-111.9567642211914,
				72.31822204589844,
				105.75799560546875
			]
		},
		{
			"mesh":2,
			"name":"Object_67.013",
			"translation":[
				-142.13925170898438,
				84.3636245727539,
				113.595947265625
			]
		},
		{
			"mesh":3,
			"name":"Object_67.014",
			"translation":[
				-137.7615966796875,
				60.38959884643555,
				97.65036010742188
			]
		},
		{
			"mesh":4,
			"name":"Object_67.015",
			"translation":[
				-151.99014282226562,
				60.348487854003906,
				94.96160888671875
			]
		},
		{
			"mesh":5,
			"name":"Object_156.006",
			"translation":[
				-121.7139663696289,
				72.75028991699219,
				111.22911071777344
			]
		},
		{
			"mesh":6,
			"name":"Object_156.007",
			"translation":[
				-151.9307403564453,
				60.3618049621582,
				89.29449462890625
			]
		},
		{
			"mesh":7,
			"name":"Object_156.008",
			"translation":[
				-140.37588500976562,
				84.62396240234375,
				103.80392456054688
			]
		},
		{
			"mesh":8,
			"name":"Object_156.009",
			"translation":[
				-129.03810119628906,
				91.56635284423828,
				97.04737854003906
			]
		},
		{
			"mesh":9,
			"name":"Object_156.010",
			"translation":[
				-108.12989044189453,
				90.3284683227539,
				89.77679443359375
			]
		},
		{
			"mesh":10,
			"name":"Object_150.003",
			"translation":[
				-159.3083038330078,
				63.07931900024414,
				89.88044738769531
			]
		},
		{
			"mesh":11,
			"name":"Object_150.004",
			"translation":[
				-143.3380889892578,
				86.22109985351562,
				109.76675415039062
			]
		},
		{
			"mesh":12,
			"name":"Object_146.010",
			"translation":[
				-113.31062316894531,
				90.53380584716797,
				91.12625122070312
			]
		},
		{
			"mesh":13,
			"name":"Object_146.011",
			"translation":[
				-160.03530883789062,
				60.59766387939453,
				95.03982543945312
			]
		},
		{
			"mesh":14,
			"name":"Object_146.012",
			"translation":[
				-153.1167449951172,
				84.61454772949219,
				105.00228881835938
			]
		},
		{
			"mesh":15,
			"name":"Object_146.013",
			"translation":[
				-141.72760009765625,
				84.48206329345703,
				107.14791870117188
			]
		},
		{
			"mesh":16,
			"name":"Object_146.014",
			"translation":[
				-138.43568420410156,
				84.64405059814453,
				114.35931396484375
			]
		},
		{
			"mesh":17,
			"name":"Object_146.015",
			"translation":[
				-131.50083923339844,
				72.39175415039062,
				106.93960571289062
			]
		},
		{
			"mesh":18,
			"name":"Object_146.016",
			"translation":[
				-131.15243530273438,
				72.5877456665039,
				102.39346313476562
			]
		},
		{
			"mesh":19,
			"name":"Object_146.017",
			"translation":[
				-124.85308837890625,
				72.65630340576172,
				105.45233154296875
			]
		},
		{
			"mesh":20,
			"name":"Object_146.018",
			"translation":[
				-122.43894958496094,
				72.60785675048828,
				106.18742370605469
			]
		},
		{
			"mesh":21,
			"name":"Object_144.003",
			"translation":[
				-119.61370849609375,
				91.55677032470703,
				95.58477783203125
			]
		},
		{
			"mesh":22,
			"name":"Object_140.002",
			"translation":[
				-122.8722152709961,
				90.42723083496094,
				96.07003784179688
			]
		},
		{
			"mesh":23,
			"name":"Object_138.004",
			"translation":[
				-108.13021087646484,
				90.38370513916016,
				89.77676391601562
			]
		},
		{
			"mesh":24,
			"name":"Object_138.005",
			"translation":[
				-151.93075561523438,
				60.4259147644043,
				89.29486083984375
			]
		},
		{
			"mesh":25,
			"name":"Object_138.006",
			"translation":[
				-142.1383056640625,
				60.300941467285156,
				90.36119079589844
			]
		},
		{
			"mesh":26,
			"name":"Object_134.003",
			"translation":[
				-149.4332275390625,
				85.20399475097656,
				103.93916320800781
			]
		},
		{
			"mesh":27,
			"name":"Object_134.004",
			"translation":[
				-136.94293212890625,
				84.7209701538086,
				107.6474609375
			]
		},
		{
			"mesh":28,
			"name":"Object_118.004",
			"translation":[
				-132.70220947265625,
				45.1447868347168,
				100.40191650390625
			]
		},
		{
			"mesh":29,
			"name":"Object_107.004",
			"translation":[
				-158.19876098632812,
				62.63301467895508,
				97.77188110351562
			]
		}
	],
	"materials":[
		{
			"doubleSided":true,
			"name":"CityGentextured_metal.028",
			"normalTexture":{
				"index":0
			},
			"pbrMetallicRoughness":{
				"baseColorTexture":{
					"index":1
				},
				"metallicRoughnessTexture":{
					"index":2
				}
			}
		},
		{
			"doubleSided":true,
			"name":"firescape.017",
			"pbrMetallicRoughness":{
				"baseColorFactor":[
					0.3023209869861603,
					0.3023209869861603,
					0.3023209869861603,
					1
				],
				"roughnessFactor":0.49351200461387634
			}
		},
		{
			"doubleSided":true,
			"name":"solar.017",
			"pbrMetallicRoughness":{
				"baseColorTexture":{
					"index":3
				},
				"metallicFactor":0.8799999952316284,
				"roughnessFactor":0
			}
		},
		{
			"doubleSided":true,
			"name":"CityGenconcrete.018",
			"normalTexture":{
				"index":4
			},
			"pbrMetallicRoughness":{
				"baseColorTexture":{
					"index":5
				},
				"metallicFactor":0,
				"metallicRoughnessTexture":{
					"index":6
				}
			}
		},
		{
			"doubleSided":true,
			"name":"CityGenbasic_rough_metal_dark_.018",
			"pbrMetallicRoughness":{
				"baseColorFactor":[
					0.13662800192832947,
					0.15541599690914154,
					0.13210399448871613,
					1
				],
				"roughnessFactor":0.4942860007286072
			}
		},
		{
			"alphaMode":"BLEND",
			"doubleSided":true,
			"name":"Material.061",
			"normalTexture":{
				"index":7
			},
			"pbrMetallicRoughness":{
				"baseColorTexture":{
					"index":8
				},
				"metallicFactor":0,
				"roughnessFactor":0.5
			}
		},
		{
			"doubleSided":true,
			"name":"CityGenAC.016",
			"pbrMetallicRoughness":{
				"baseColorTexture":{
					"index":9
				},
				"metallicFactor":0,
				"roughnessFactor":0.5
			}
		},
		{
			"doubleSided":true,
			"name":"CityGenVent.016",
			"pbrMetallicRoughness":{
				"baseColorTexture":{
					"index":10
				},
				"metallicFactor":0,
				"roughnessFactor":0.5
			}
		},
		{
			"doubleSided":true,
			"name":"CityGenblack_.023",
			"pbrMetallicRoughness":{
				"baseColorFactor":[
					0.02315320074558258,
					0.02955690026283264,
					0.033104799687862396,
					1
				],
				"metallicFactor":0.9205440282821655,
				"roughnessFactor":0.548337996006012
			}
		},
		{
			"doubleSided":true,
			"name":"material_34.012",
			"pbrMetallicRoughness":{
				"baseColorTexture":{
					"index":11
				},
				"metallicFactor":0,
				"roughnessFactor":0.5
			}
		},
		{
			"alphaMode":"BLEND",
			"doubleSided":true,
			"extensions":{
				"KHR_materials_transmission":{
					"transmissionFactor":1
				}
			},
			"name":"CityGenGlass.018",
			"normalTexture":{
				"index":12,
				"scale":0.20000000298023224
			},
			"pbrMetallicRoughness":{
				"baseColorFactor":[
					1,
					1,
					1,
					0.25
				],
				"metallicFactor":0,
				"roughnessFactor":0
			}
		},
		{
			"doubleSided":true,
			"name":"CityGenbasic_metal.018",
			"pbrMetallicRoughness":{
				"baseColorFactor":[
					0.45012399554252625,
					0.45012399554252625,
					0.45012399554252625,
					1
				],
				"roughnessFactor":0.26060399413108826
			}
		},
		{
			"doubleSided":true,
			"name":"material.016",
			"normalTexture":{
				"index":13
			},
			"pbrMetallicRoughness":{
				"baseColorTexture":{
					"index":14
				},
				"metallicFactor":0,
				"roughnessFactor":0.5
			}
		},
		{
			"doubleSided":true,
			"name":"Material.062",
			"normalTexture":{
				"index":15
			},
			"pbrMetallicRoughness":{
				"baseColorFactor":[
					0.800000011920929,
					0.800000011920929,
					0.800000011920929,
					1
				],
				"roughnessFactor":0.30000001192092896
			}
		},
		{
			"doubleSided":true,
			"name":"CityGenbasic_dark_green.016",
			"normalTexture":{
				"index":16
			},
			"pbrMetallicRoughness":{
				"baseColorTexture":{
					"index":17
				},
				"metallicFactor":0,
				"metallicRoughnessTexture":{
					"index":18
				}
			}
		},
		{
			"doubleSided":true,
			"emissiveFactor":[
				5.96045985901128e-08,
				5.96045985901128e-08,
				5.96045985901128e-08
			],
			"name":"CityGen_LR_Facades.017",
			"pbrMetallicRoughness":{
				"baseColorTexture":{
					"index":19
				},
				"metallicFactor":0,
				"metallicRoughnessTexture":{
					"index":20
				}
			}
		},
		{
			"doubleSided":true,
			"name":"CityGensimple_concrete_1.017",
			"pbrMetallicRoughness":{
				"baseColorTexture":{
					"index":21
				},
				"metallicFactor":0,
				"metallicRoughnessTexture":{
					"index":22
				}
			}
		},
		{
			"doubleSided":true,
			"name":"CityGenroof.053",
			"normalTexture":{
				"index":23
			},
			"pbrMetallicRoughness":{
				"baseColorTexture":{
					"index":24
				},
				"metallicFactor":0,
				"roughnessFactor":0.5
			}
		},
		{
			"doubleSided":true,
			"name":"CityGenwhite_marble_tiles.016",
			"normalTexture":{
				"extensions":{
					"KHR_texture_transform":{
						"offset":[
							0,
							0.8333330005407333
						],
						"scale":[
							0.16666699945926666,
							0.16666699945926666
						]
					}
				},
				"index":25
			},
			"pbrMetallicRoughness":{
				"baseColorTexture":{
					"extensions":{
						"KHR_texture_transform":{
							"offset":[
								0,
								0.8333330005407333
							],
							"scale":[
								0.16666699945926666,
								0.16666699945926666
							]
						}
					},
					"index":26
				},
				"metallicFactor":0,
				"metallicRoughnessTexture":{
					"extensions":{
						"KHR_texture_transform":{
							"offset":[
								0,
								0.8333330005407333
							],
							"scale":[
								0.16666699945926666,
								0.16666699945926666
							]
						}
					},
					"index":27
				}
			}
		},
		{
			"doubleSided":true,
			"name":"CityGenroof.051",
			"normalTexture":{
				"index":28
			},
			"pbrMetallicRoughness":{
				"baseColorTexture":{
					"index":29
				},
				"metallicFactor":0,
				"roughnessFactor":0.5
			}
		},
		{
			"doubleSided":true,
			"name":"rooftop_tank.015",
			"pbrMetallicRoughness":{
				"baseColorTexture":{
					"index":30
				},
				"metallicFactor":0,
				"roughnessFactor":0.5
			}
		},
		{
			"alphaMode":"BLEND",
			"doubleSided":true,
			"name":"Material.060",
			"pbrMetallicRoughness":{
				"baseColorTexture":{
					"index":31
				},
				"metallicFactor":0,
				"roughnessFactor":0.5
			}
		}
	],
	"meshes":[
		{
			"name":"Object_39.012",
			"primitives":[
				{
					"attributes":{
						"POSITION":0,
						"NORMAL":1,
						"TEXCOORD_0":2,
						"TEXCOORD_1":3,
						"TEXCOORD_2":4,
						"TEXCOORD_3":5,
						"TEXCOORD_4":6,
						"TEXCOORD_5":7,
						"TEXCOORD_6":8
					},
					"indices":9,
					"material":0
				}
			]
		},
		{
			"name":"Object_29.031",
			"primitives":[
				{
					"attributes":{
						"POSITION":10,
						"NORMAL":11,
						"TEXCOORD_0":12
					},
					"indices":13,
					"material":1
				},
				{
					"attributes":{
						"POSITION":14,
						"NORMAL":15,
						"TEXCOORD_0":16
					},
					"indices":17,
					"material":2
				}
			]
		},
		{
			"name":"Object_29.032",
			"primitives":[
				{
					"attributes":{
						"POSITION":18,
						"NORMAL":19,
						"TEXCOORD_0":20
					},
					"indices":13,
					"material":1
				},
				{
					"attributes":{
						"POSITION":21,
						"NORMAL":22,
						"TEXCOORD_0":23
					},
					"indices":24,
					"material":2
				}
			]
		},
		{
			"name":"Object_29.033",
			"primitives":[
				{
					"attributes":{
						"POSITION":25,
						"NORMAL":26,
						"TEXCOORD_0":27
					},
					"indices":13,
					"material":1
				},
				{
					"attributes":{
						"POSITION":28,
						"NORMAL":29,
						"TEXCOORD_0":30
					},
					"indices":24,
					"material":2
				}
			]
		},
		{
			"name":"Object_29.034",
			"primitives":[
				{
					"attributes":{
						"POSITION":31,
						"NORMAL":32,
						"TEXCOORD_0":33
					},
					"indices":13,
					"material":1
				},
				{
					"attributes":{
						"POSITION":34,
						"NORMAL":35,
						"TEXCOORD_0":36
					},
					"indices":24,
					"material":2
				}
			]
		},
		{
			"name":"Object_73.006",
			"primitives":[
				{
					"attributes":{
						"POSITION":37,
						"NORMAL":38,
						"TEXCOORD_0":39,
						"TEXCOORD_1":40,
						"TEXCOORD_2":41,
						"TEXCOORD_3":42,
						"TEXCOORD_4":43,
						"TEXCOORD_5":44,
						"TEXCOORD_6":45
					},
					"indices":46,
					"material":3
				},
				{
					"attributes":{
						"POSITION":47,
						"NORMAL":48,
						"TEXCOORD_0":49,
						"TEXCOORD_1":50,
						"TEXCOORD_2":51,
						"TEXCOORD_3":52,
						"TEXCOORD_4":53,
						"TEXCOORD_5":54,
						"TEXCOORD_6":55
					},
					"indices":56,
					"material":4
				}
			]
		},
		{
			"name":"Object_73.007",
			"primitives":[
				{
					"attributes":{
						"POSITION":57,
						"NORMAL":58,
						"TEXCOORD_0":59,
						"TEXCOORD_1":60,
						"TEXCOORD_2":61,
						"TEXCOORD_3":62,
						"TEXCOORD_4":63,
						"TEXCOORD_5":64,
						"TEXCOORD_6":65
					},
					"indices":66,
					"material":4
				}
			]
		},
		{
			"name":"Object_73.008",
			"primitives":[
				{
					"attributes":{
						"POSITION":67,
						"NORMAL":68,
						"TEXCOORD_0":69,
						"TEXCOORD_1":70,
						"TEXCOORD_2":71,
						"TEXCOORD_3":72,
						"TEXCOORD_4":73,
						"TEXCOORD_5":74,
						"TEXCOORD_6":75
					},
					"indices":76,
					"material":3
				},
				{
					"attributes":{
						"POSITION":77,
						"NORMAL":78,
						"TEXCOORD_0":79,
						"TEXCOORD_1":80,
						"TEXCOORD_2":81,
						"TEXCOORD_3":82,
						"TEXCOORD_4":83,
						"TEXCOORD_5":84,
						"TEXCOORD_6":85
					},
					"indices":86,
					"material":4
				}
			]
		},
		{
			"name":"Object_73.009",
			"primitives":[
				{
					"attributes":{
						"POSITION":87,
						"NORMAL":88,
						"TEXCOORD_0":89,
						"TEXCOORD_1":90,
						"TEXCOORD_2":91,
						"TEXCOORD_3":92,
						"TEXCOORD_4":93,
						"TEXCOORD_5":94,
						"TEXCOORD_6":95
					},
					"indices":96,
					"material":3
				},
				{
					"attributes":{
						"POSITION":97,
						"NORMAL":98,
						"TEXCOORD_0":99,
						"TEXCOORD_1":100,
						"TEXCOORD_2":101,
						"TEXCOORD_3":102,
						"TEXCOORD_4":103,
						"TEXCOORD_5":104,
						"TEXCOORD_6":105
					},
					"indices":106,
					"material":4
				}
			]
		},
		{
			"name":"Object_73.010",
			"primitives":[
				{
					"attributes":{
						"POSITION":107,
						"NORMAL":108,
						"TEXCOORD_0":109,
						"TEXCOORD_1":110,
						"TEXCOORD_2":111,
						"TEXCOORD_3":112,
						"TEXCOORD_4":113,
						"TEXCOORD_5":114,
						"TEXCOORD_6":115
					},
					"indices":116,
					"material":4
				}
			]
		},
		{
			"name":"Object_70.003",
			"primitives":[
				{
					"attributes":{
						"POSITION":117,
						"NORMAL":118,
						"TEXCOORD_0":119,
						"TEXCOORD_1":120,
						"TEXCOORD_2":121
					},
					"indices":122,
					"material":5
				}
			]
		},
		{
			"name":"Object_70.004",
			"primitives":[
				{
					"attributes":{
						"POSITION":123,
						"NORMAL":124,
						"TEXCOORD_0":125,
						"TEXCOORD_1":126,
						"TEXCOORD_2":127
					},
					"indices":128,
					"material":5
				}
			]
		},
		{
			"name":"Object_68.010",
			"primitives":[
				{
					"attributes":{
						"POSITION":129,
						"NORMAL":130,
						"TEXCOORD_0":131
					},
					"indices":132,
					"material":6
				},
				{
					"attributes":{
						"POSITION":133,
						"NORMAL":134,
						"TEXCOORD_0":135
					},
					"indices":136,
					"material":7
				}
			]
		},
		{
			"name":"Object_68.011",
			"primitives":[
				{
					"attributes":{
						"POSITION":137,
						"NORMAL":138,
						"TEXCOORD_0":139
					},
					"indices":140,
					"material":6
				}
			]
		},
		{
			"name":"Object_68.012",
			"primitives":[
				{
					"attributes":{
						"POSITION":141,
						"NORMAL":142,
						"TEXCOORD_0":143
					},
					"indices":144,
					"material":6
				}
			]
		},
		{
			"name":"Object_68.013",
			"primitives":[
				{
					"attributes":{
						"POSITION":145,
						"NORMAL":146,
						"TEXCOORD_0":147
					},
					"indices":148,
					"material":6
				}
			]
		},
		{
			"name":"Object_68.014",
			"primitives":[
				{
					"attributes":{
						"POSITION":149,
						"NORMAL":150,
						"TEXCOORD_0":151
					},
					"indices":152,
					"material":6
				},
				{
					"attributes":{
						"POSITION":153,
						"NORMAL":154,
						"TEXCOORD_0":155
					},
					"indices":156,
					"material":7
				}
			]
		},
		{
			"name":"Object_68.015",
			"primitives":[
				{
					"attributes":{
						"POSITION":157,
						"NORMAL":158,
						"TEXCOORD_0":159
					},
					"indices":160,
					"material":6
				},
				{
					"attributes":{
						"POSITION":161,
						"NORMAL":162,
						"TEXCOORD_0":163
					},
					"indices":164,
					"material":7
				}
			]
		},
		{
			"name":"Object_68.016",
			"primitives":[
				{
					"attributes":{
						"POSITION":165,
						"NORMAL":166,
						"TEXCOORD_0":167
					},
					"indices":168,
					"material":6
				},
				{
					"attributes":{
						"POSITION":169,
						"NORMAL":170,
						"TEXCOORD_0":171
					},
					"indices":172,
					"material":7
				}
			]
		},
		{
			"name":"Object_68.017",
			"primitives":[
				{
					"attributes":{
						"POSITION":173,
						"NORMAL":174,
						"TEXCOORD_0":175
					},
					"indices":176,
					"material":6
				}
			]
		},
		{
			"name":"Object_68.018",
			"primitives":[
				{
					"attributes":{
						"POSITION":177,
						"NORMAL":178,
						"TEXCOORD_0":179
					},
					"indices":180,
					"material":6
				},
				{
					"attributes":{
						"POSITION":181,
						"NORMAL":182,
						"TEXCOORD_0":183
					},
					"indices":184,
					"material":7
				}
			]
		},
		{
			"name":"Object_67.010",
			"primitives":[
				{
					"attributes":{
						"POSITION":185,
						"NORMAL":186,
						"TEXCOORD_0":187,
						"TEXCOORD_1":188,
						"TEXCOORD_2":189,
						"TEXCOORD_3":190,
						"TEXCOORD_4":191,
						"TEXCOORD_5":192,
						"TEXCOORD_6":193
					},
					"indices":194,
					"material":8
				},
				{
					"attributes":{
						"POSITION":195,
						"NORMAL":196,
						"TEXCOORD_0":197,
						"TEXCOORD_1":198,
						"TEXCOORD_2":199,
						"TEXCOORD_3":200,
						"TEXCOORD_4":201,
						"TEXCOORD_5":202,
						"TEXCOORD_6":203
					},
					"indices":204,
					"material":0
				}
			]
		},
		{
			"name":"Object_65.003",
			"primitives":[
				{
					"attributes":{
						"POSITION":205,
						"NORMAL":206,
						"TEXCOORD_0":207
					},
					"indices":208,
					"material":9
				}
			]
		},
		{
			"name":"Object_64.004",
			"primitives":[
				{
					"attributes":{
						"POSITION":209,
						"NORMAL":210,
						"TEXCOORD_0":211
					},
					"indices":212,
					"material":10
				}
			]
		},
		{
			"name":"Object_64.007",
			"primitives":[
				{
					"attributes":{
						"POSITION":213,
						"NORMAL":214,
						"TEXCOORD_0":215
					},
					"indices":212,
					"material":10
				}
			]
		},
		{
			"name":"Object_64.008",
			"primitives":[
				{
					"attributes":{
						"POSITION":216,
						"NORMAL":217,
						"TEXCOORD_0":218
					},
					"indices":219,
					"material":10
				},
				{
					"attributes":{
						"POSITION":220,
						"NORMAL":221,
						"TEXCOORD_0":222
					},
					"indices":223,
					"material":11
				}
			]
		},
		{
			"name":"Object_62.003",
			"primitives":[
				{
					"attributes":{
						"POSITION":224,
						"NORMAL":225,
						"TEXCOORD_0":226,
						"TEXCOORD_1":227,
						"TEXCOORD_2":228
					},
					"indices":229,
					"material":12
				}
			]
		},
		{
			"name":"Object_62.004",
			"primitives":[
				{
					"attributes":{
						"POSITION":230,
						"NORMAL":231,
						"TEXCOORD_0":232,
						"TEXCOORD_1":233,
						"TEXCOORD_2":234
					},
					"indices":235,
					"material":12
				}
			]
		},
		{
			"name":"Object_54.019",
			"primitives":[
				{
					"attributes":{
						"POSITION":236,
						"NORMAL":237,
						"TEXCOORD_0":238,
						"TEXCOORD_1":239,
						"TEXCOORD_2":240,
						"TEXCOORD_3":241,
						"TEXCOORD_4":242,
						"TEXCOORD_5":243,
						"TEXCOORD_6":244,
						"TEXCOORD_7":245
					},
					"indices":246,
					"material":13
				},
				{
					"attributes":{
						"POSITION":247,
						"NORMAL":248,
						"TEXCOORD_0":249,
						"TEXCOORD_1":250,
						"TEXCOORD_2":251,
						"TEXCOORD_3":252,
						"TEXCOORD_4":253,
						"TEXCOORD_5":254,
						"TEXCOORD_6":255,
						"TEXCOORD_7":256
					},
					"indices":257,
					"material":14
				},
				{
					"attributes":{
						"POSITION":258,
						"NORMAL":259,
						"TEXCOORD_0":260,
						"TEXCOORD_1":261,
						"TEXCOORD_2":262,
						"TEXCOORD_3":263,
						"TEXCOORD_4":264,
						"TEXCOORD_5":265,
						"TEXCOORD_6":266,
						"TEXCOORD_7":267
					},
					"indices":268,
					"material":15
				},
				{
					"attributes":{
						"POSITION":269,
						"NORMAL":270,
						"TEXCOORD_0":271,
						"TEXCOORD_1":272,
						"TEXCOORD_2":273,
						"TEXCOORD_3":274,
						"TEXCOORD_4":275,
						"TEXCOORD_5":276,
						"TEXCOORD_6":277,
						"TEXCOORD_7":278
					},
					"indices":279,
					"material":16
				},
				{
					"attributes":{
						"POSITION":280,
						"NORMAL":281,
						"TEXCOORD_0":282,
						"TEXCOORD_1":283,
						"TEXCOORD_2":284,
						"TEXCOORD_3":285,
						"TEXCOORD_4":286,
						"TEXCOORD_5":287,
						"TEXCOORD_6":288,
						"TEXCOORD_7":289
					},
					"indices":290,
					"material":17
				},
				{
					"attributes":{
						"POSITION":291,
						"NORMAL":292,
						"TEXCOORD_0":293,
						"TEXCOORD_1":294,
						"TEXCOORD_2":295,
						"TEXCOORD_3":296,
						"TEXCOORD_4":297,
						"TEXCOORD_5":298,
						"TEXCOORD_6":299,
						"TEXCOORD_7":300
					},
					"indices":301,
					"material":18
				},
				{
					"attributes":{
						"POSITION":302,
						"NORMAL":303,
						"TEXCOORD_0":304,
						"TEXCOORD_1":305,
						"TEXCOORD_2":306,
						"TEXCOORD_3":307,
						"TEXCOORD_4":308,
						"TEXCOORD_5":309,
						"TEXCOORD_6":310,
						"TEXCOORD_7":311
					},
					"indices":312,
					"material":19
				}
			]
		},
		{
			"name":"Object_49.004",
			"primitives":[
				{
					"attributes":{
						"POSITION":313,
						"NORMAL":314,
						"TEXCOORD_0":315
					},
					"indices":316,
					"material":20
				},
				{
					"attributes":{
						"POSITION":317,
						"NORMAL":318,
						"TEXCOORD_0":319
					},
					"indices":320,
					"material":21
				}
			]
		}
	],
	"textures":[
		{
			"sampler":0,
			"source":0
		},
		{
			"sampler":0,
			"source":1
		},
		{
			"sampler":0,
			"source":2
		},
		{
			"sampler":0,
			"source":3
		},
		{
			"sampler":0,
			"source":4
		},
		{
			"sampler":0,
			"source":5
		},
		{
			"sampler":0,
			"source":6
		},
		{
			"sampler":0,
			"source":7
		},
		{
			"sampler":0,
			"source":8
		},
		{
			"sampler":0,
			"source":9
		},
		{
			"sampler":0,
			"source":10
		},
		{
			"sampler":0,
			"source":11
		},
		{
			"sampler":0,
			"source":12
		},
		{
			"sampler":0,
			"source":13
		},
		{
			"sampler":0,
			"source":14
		},
		{
			"sampler":0,
			"source":15
		},
		{
			"sampler":0,
			"source":16
		},
		{
			"sampler":0,
			"source":17
		},
		{
			"sampler":0,
			"source":18
		},
		{
			"sampler":1,
			"source":19
		},
		{
			"sampler":0,
			"source":20
		},
		{
			"sampler":0,
			"source":21
		},
		{
			"sampler":0,
			"source":22
		},
		{
			"sampler":0,
			"source":23
		},
		{
			"sampler":0,
			"source":24
		},
		{
			"sampler":0,
			"source":25
		},
		{
			"sampler":0,
			"source":26
		},
		{
			"sampler":0,
			"source":27
		},
		{
			"sampler":0,
			"source":28
		},
		{
			"sampler":0,
			"source":29
		},
		{
			"sampler":0,
			"source":30
		},
		{
			"sampler":0,
			"source":31
		}
	],
	"images":[
		{
			"mimeType":"image/jpeg",
			"name":"Image_52",
			"uri":"../textures/Image_52.jpg"
		},
		{
			"mimeType":"image/jpeg",
			"name":"Image_50",
			"uri":"../textures/Image_50.jpg"
		},
		{
			"mimeType":"image/png",
			"name":"Image_51",
			"uri":"../textures/Image_51.png"
		},
		{
			"mimeType":"image/jpeg",
			"name":"Image_61",
			"uri":"../textures/Image_61.jpg"
		},
		{
			"mimeType":"image/jpeg",
			"name":"Image_60",
			"uri":"../textures/Image_60.jpg"
		},
		{
			"mimeType":"image/jpeg",
			"name":"Image_58",
			"uri":"../textures/Image_58.jpg"
		},
		{
			"mimeType":"image/png",
			"name":"Image_59",
			"uri":"../textures/Image_59.png"
		},
		{
			"mimeType":"image/jpeg",
			"name":"Image_56",
			"uri":"../textures/Image_56.jpg"
		},
		{
			"mimeType":"image/png",
			"name":"Image_55",
			"uri":"../textures/Image_55.png"
		},
		{
			"mimeType":"image/jpeg",
			"name":"Image_53",
			"uri":"../textures/Image_53.jpg"
		},
		{
			"mimeType":"image/jpeg",
			"name":"Image_54",
			"uri":"../textures/Image_54.jpg"
		},
		{
			"mimeType":"image/jpeg",
			"name":"Image_49",
			"uri":"../textures/Image_49.jpg"
		},
		{
			"mimeType":"image/jpeg",
			"name":"Image_48",
			"uri":"../textures/Image_48.jpg"
		},
		{
			"mimeType":"image/jpeg",
			"name":"Image_47",
			"uri":"../textures/Image_47.jpg"
		},
		{
			"mimeType":"image/jpeg",
			"name":"Image_46",
			"uri":"../textures/Image_46.jpg"
		},
		{
			"mimeType":"image/jpeg",
			"name":"Image_36",
			"uri":"../textures/Image_36.jpg"
		},
		{
			"mimeType":"image/jpeg",
			"name":"Image_2",
			"uri":"../textures/Image_2.jpg"
		},
		{
			"mimeType":"image/jpeg",
			"name":"Image_0",
			"uri":"../textures/Image_0.jpg"
		},
		{
			"mimeType":"image/png",
			"name":"Image_1",
			"uri":"../textures/Image_1.png"
		},
		{
			"mimeType":"image/jpeg",
			"name":"Image_37",
			"uri":"../textures/Image_37.jpg"
		},
		{
			"mimeType":"image/png",
			"name":"Image_38",
			"uri":"../textures/Image_38.png"
		},
		{
			"mimeType":"image/jpeg",
			"name":"Image_39",
			"uri":"../textures/Image_39.jpg"
		},
		{
			"mimeType":"image/png",
			"name":"Image_40",
			"uri":"../textures/Image_40.png"
		},
		{
			"mimeType":"image/jpeg",
			"name":"Image_31",
			"uri":"../textures/Image_31.jpg"
		},
		{
			"mimeType":"image/jpeg",
			"name":"Image_30",
			"uri":"../textures/Image_30.jpg"
		},
		{
			"mimeType":"image/jpeg",
			"name":"Image_45",
			"uri":"../textures/Image_45.jpg"
		},
		{
			"mimeType":"image/jpeg",
			"name":"Image_43",
			"uri":"../textures/Image_43.jpg"
		},
		{
			"mimeType":"image/png",
			"name":"Image_44",
			"uri":"../textures/Image_44.png"
		},
		{
			"mimeType":"image/jpeg",
			"name":"Image_35",
			"uri":"../textures/Image_35.jpg"
		},
		{
			"mimeType":"image/jpeg",
			"name":"Image_34",
			"uri":"../textures/Image_34.jpg"
		},
		{
			"mimeType":"image/jpeg",
			"name":"Image_62",
			"uri":"../textures/Image_62.jpg"
		},
		{
			"mimeType":"image/png",
			"name":"Image_63",
			"uri":"../textures/Image_63.png"
		}
	],
	"accessors":[
		{
			"bufferView":0,
			"componentType":5126,
			"count":593,
			"max":[
				0.4538035988807678,
				0.3945593237876892,
				2.0349738597869873
			],
			"min":[
				-0.4557880759239197,
				-0.4431176781654358,
				-2.0348122119903564
			],
			"type":"VEC3"
		},
		{
			"bufferView":1,
			"componentType":5126,
			"count":593,
			"type":"VEC3"
		},
		{
			"bufferView":2,
			"componentType":5126,
			"count":593,
			"type":"VEC2"
		},
		{
			"bufferView":3,
			"componentType":5126,
			"count":593,
			"type":"VEC2"
		},
		{
			"bufferView":4,
			"componentType":5126,
			"count":593,
			"type":"VEC2"
		},
		{
			"bufferView":5,
			"componentType":5126,
			"count":593,
			"type":"VEC2"
		},
		{
			"bufferView":6,
			"componentType":5126,
			"count":593,
			"type":"VEC2"
		},
		{
			"bufferView":7,
			"componentType":5126,
			"count":593,
			"type":"VEC2"
		},
		{
			"bufferView":8,
			"componentType":5126,
			"count":593,
			"type":"VEC2"
		},
		{
			"bufferView":9,
			"componentType":5123,
			"count":825,
			"type":"SCALAR"
		},
		{
			"bufferView":10,
			"componentType":5126,
			"count":36,
			"max":[
				2.8985183238983154,
				0.12957072257995605,
				0.9781075716018677
			],
			"min":[
				-2.900408983230591,
				-0.2035515308380127,
				-1.2364461421966553
			],
			"type":"VEC3"
		},
		{
			"bufferView":11,
			"componentType":5126,
			"count":36,
			"type":"VEC3"
		},
		{
			"bufferView":12,
			"componentType":5126,
			"count":36,
			"type":"VEC2"
		},
		{
			"bufferView":13,
			"componentType":5123,
			"count":54,
			"type":"SCALAR"
		},
		{
			"bufferView":14,
			"componentType":5126,
			"count":44,
			"max":[
				2.889233350753784,
				0.22773051261901855,
				1.502971887588501
			],
			"min":[
				-2.8884384632110596,
				-0.19661641120910645,
				-1.3943212032318115
			],
			"type":"VEC3"
		},
		{
			"bufferView":15,
			"componentType":5126,
			"count":44,
			"type":"VEC3"
		},
		{
			"bufferView":16,
			"componentType":5126,
			"count":44,
			"type":"VEC2"
		},
		{
			"bufferView":17,
			"componentType":5123,
			"count":54,
			"type":"SCALAR"
		},
		{
			"bufferView":18,
			"componentType":5126,
			"count":36,
			"max":[
				3.538741111755371,
				0.15857170522212982,
				1.487268328666687
			],
			"min":[
				-3.538743019104004,
				-0.24910499155521393,
				-1.1711026430130005
			],
			"type":"VEC3"
		},
		{
			"bufferView":19,
			"componentType":5126,
			"count":36,
			"type":"VEC3"
		},
		{
			"bufferView":20,
			"componentType":5126,
			"count":36,
			"type":"VEC2"
		},
		{
			"bufferView":21,
			"componentType":5126,
			"count":36,
			"max":[
				3.5226736068725586,
				0.2786965072154999,
				1.6806048154830933
			],
			"min":[
				-3.5226755142211914,
				-0.24062110483646393,
				-1.813573956489563
			],
			"type":"VEC3"
		},
		{
			"bufferView":22,
			"componentType":5126,
			"count":36,
			"type":"VEC3"
		},
		{
			"bufferView":23,
			"componentType":5126,
			"count":36,
			"type":"VEC2"
		},
		{
			"bufferView":24,
			"componentType":5123,
			"count":54,
			"type":"SCALAR"
		},
		{
			"bufferView":25,
			"componentType":5126,
			"count":36,
			"max":[
				3.931342601776123,
				0.17562679946422577,
				1.6759353876113892
			],
			"min":[
				-3.9287800788879395,
				-0.27589985728263855,
				-1.3257735967636108
			],
			"type":"VEC3"
		},
		{
			"bufferView":26,
			"componentType":5126,
			"count":36,
			"type":"VEC3"
		},
		{
			"bufferView":27,
			"componentType":5126,
			"count":36,
			"type":"VEC2"
		},
		{
			"bufferView":28,
			"componentType":5126,
			"count":36,
			"max":[
				3.9151225090026855,
				0.3086757957935333,
				1.8899322748184204
			],
			"min":[
				-3.9162068367004395,
				-0.2665042579174042,
				-2.0371994972229004
			],
			"type":"VEC3"
		},
		{
			"bufferView":29,
			"componentType":5126,
			"count":36,
			"type":"VEC3"
		},
		{
			"bufferView":30,
			"componentType":5126,
			"count":36,
			"type":"VEC2"
		},
		{
			"bufferView":31,
			"componentType":5126,
			"count":36,
			"max":[
				3.3399038314819336,
				0.14920371770858765,
				1.4238008260726929
			],
			"min":[
				-3.3377084732055664,
				-0.23439079523086548,
				-1.1263166666030884
			],
			"type":"VEC3"
		},
		{
			"bufferView":32,
			"componentType":5126,
			"count":36,
			"type":"VEC3"
		},
		{
			"bufferView":33,
			"componentType":5126,
			"count":36,
			"type":"VEC2"
		},
		{
			"bufferView":34,
			"componentType":5126,
			"count":36,
			"max":[
				3.3261098861694336,
				0.262237012386322,
				1.6056016683578491
			],
			"min":[
				-3.3270273208618164,
				-0.22641044855117798,
				-1.7307096719741821
			],
			"type":"VEC3"
		},
		{
			"bufferView":35,
			"componentType":5126,
			"count":36,
			"type":"VEC3"
		},
		{
			"bufferView":36,
			"componentType":5126,
			"count":36,
			"type":"VEC2"
		},
		{
			"bufferView":37,
			"componentType":5126,
			"count":918,
			"max":[
				0.7482134103775024,
				0.5060862898826599,
				1.4331257343292236
			],
			"min":[
				-1.0911496877670288,
				-0.6336689591407776,
				-1.2327678203582764
			],
			"type":"VEC3"
		},
		{
			"bufferView":38,
			"componentType":5126,
			"count":918,
			"type":"VEC3"
		},
		{
			"bufferView":39,
			"componentType":5126,
			"count":918,
			"type":"VEC2"
		},
		{
			"bufferView":40,
			"componentType":5126,
			"count":918,
			"type":"VEC2"
		},
		{
			"bufferView":41,
			"componentType":5126,
			"count":918,
			"type":"VEC2"
		},
		{
			"bufferView":42,
			"componentType":5126,
			"count":918,
			"type":"VEC2"
		},
		{
			"bufferView":43,
			"componentType":5126,
			"count":918,
			"type":"VEC2"
		},
		{
			"bufferView":44,
			"componentType":5126,
			"count":918,
			"type":"VEC2"
		},
		{
			"bufferView":45,
			"componentType":5126,
			"count":918,
			"type":"VEC2"
		},
		{
			"bufferView":46,
			"componentType":5123,
			"count":1554,
			"type":"SCALAR"
		},
		{
			"bufferView":47,
			"componentType":5126,
			"count":149,
			"max":[
				0.6728655099868774,
				0.9934749007225037,
				1.2207310199737549
			],
			"min":[
				-1.0940412282943726,
				-0.4927693009376526,
				-1.2327678203582764
			],
			"type":"VEC3"
		},
		{
			"bufferView":48,
			"componentType":5126,
			"count":149,
			"type":"VEC3"
		},
		{
			"bufferView":49,
			"componentType":5126,
			"count":149,
			"type":"VEC2"
		},
		{
			"bufferView":50,
			"componentType":5126,
			"count":149,
			"type":"VEC2"
		},
		{
			"bufferView":51,
			"componentType":5126,
			"count":149,
			"type":"VEC2"
		},
		{
			"bufferView":52,
			"componentType":5126,
			"count":149,
			"type":"VEC2"
		},
		{
			"bufferView":53,
			"componentType":5126,
			"count":149,
			"type":"VEC2"
		},
		{
			"bufferView":54,
			"componentType":5126,
			"count":149,
			"type":"VEC2"
		},
		{
			"bufferView":55,
			"componentType":5126,
			"count":149,
			"type":"VEC2"
		},
		{
			"bufferView":56,
			"componentType":5123,
			"count":195,
			"type":"SCALAR"
		},
		{
			"bufferView":57,
			"componentType":5126,
			"count":603,
			"max":[
				1.3233026266098022,
				0.27508512139320374,
				0.7897586226463318
			],
			"min":[
				-1.3199774026870728,
				-0.24545703828334808,
				-0.5598660111427307
			],
			"type":"VEC3"
		},
		{
			"bufferView":58,
			"componentType":5126,
			"count":603,
			"type":"VEC3"
		},
		{
			"bufferView":59,
			"componentType":5126,
			"count":603,
			"type":"VEC2"
		},
		{
			"bufferView":60,
			"componentType":5126,
			"count":603,
			"type":"VEC2"
		},
		{
			"bufferView":61,
			"componentType":5126,
			"count":603,
			"type":"VEC2"
		},
		{
			"bufferView":62,
			"componentType":5126,
			"count":603,
			"type":"VEC2"
		},
		{
			"bufferView":63,
			"componentType":5126,
			"count":603,
			"type":"VEC2"
		},
		{
			"bufferView":64,
			"componentType":5126,
			"count":603,
			"type":"VEC2"
		},
		{
			"bufferView":65,
			"componentType":5126,
			"count":603,
			"type":"VEC2"
		},
		{
			"bufferView":66,
			"componentType":5123,
			"count":858,
			"type":"SCALAR"
		},
		{
			"bufferView":67,
			"componentType":5126,
			"count":570,
			"max":[
				0.8924739956855774,
				0.4097333550453186,
				0.9895074963569641
			],
			"min":[
				-0.6018497347831726,
				-0.5070528388023376,
				-1.1615926027297974
			],
			"type":"VEC3"
		},
		{
			"bufferView":68,
			"componentType":5126,
			"count":570,
			"type":"VEC3"
		},
		{
			"bufferView":69,
			"componentType":5126,
			"count":570,
			"type":"VEC2"
		},
		{
			"bufferView":70,
			"componentType":5126,
			"count":570,
			"type":"VEC2"
		},
		{
			"bufferView":71,
			"componentType":5126,
			"count":570,
			"type":"VEC2"
		},
		{
			"bufferView":72,
			"componentType":5126,
			"count":570,
			"type":"VEC2"
		},
		{
			"bufferView":73,
			"componentType":5126,
			"count":570,
			"type":"VEC2"
		},
		{
			"bufferView":74,
			"componentType":5126,
			"count":570,
			"type":"VEC2"
		},
		{
			"bufferView":75,
			"componentType":5126,
			"count":570,
			"type":"VEC2"
		},
		{
			"bufferView":76,
			"componentType":5123,
			"count":948,
			"type":"SCALAR"
		},
		{
			"bufferView":77,
			"componentType":5126,
			"count":114,
			"max":[
				0.5208461880683899,
				0.8017697930335999,
				0.9895074963569641
			],
			"min":[
				-0.5399906039237976,
				-0.3937181830406189,
				-0.9836065173149109
			],
			"type":"VEC3"
		},
		{
			"bufferView":78,
			"componentType":5126,
			"count":114,
			"type":"VEC3"
		},
		{
			"bufferView":79,
			"componentType":5126,
			"count":114,
			"type":"VEC2"
		},
		{
			"bufferView":80,
			"componentType":5126,
			"count":114,
			"type":"VEC2"
		},
		{
			"bufferView":81,
			"componentType":5126,
			"count":114,
			"type":"VEC2"
		},
		{
			"bufferView":82,
			"componentType":5126,
			"count":114,
			"type":"VEC2"
		},
		{
			"bufferView":83,
			"componentType":5126,
			"count":114,
			"type":"VEC2"
		},
		{
			"bufferView":84,
			"componentType":5126,
			"count":114,
			"type":"VEC2"
		},
		{
			"bufferView":85,
			"componentType":5126,
			"count":114,
			"type":"VEC2"
		},
		{
			"bufferView":86,
			"componentType":5123,
			"count":156,
			"type":"SCALAR"
		},
		{
			"bufferView":87,
			"componentType":5126,
			"count":882,
			"max":[
				1.7344061136245728,
				1.1565427780151367,
				3.2865071296691895
			],
			"min":[
				-2.513038158416748,
				-1.4493227005004883,
				-2.8277125358581543
			],
			"type":"VEC3"
		},
		{
			"bufferView":88,
			"componentType":5126,
			"count":882,
			"type":"VEC3"
		},
		{
			"bufferView":89,
			"componentType":5126,
			"count":882,
			"type":"VEC2"
		},
		{
			"bufferView":90,
			"componentType":5126,
			"count":882,
			"type":"VEC2"
		},
		{
			"bufferView":91,
			"componentType":5126,
			"count":882,
			"type":"VEC2"
		},
		{
			"bufferView":92,
			"componentType":5126,
			"count":882,
			"type":"VEC2"
		},
		{
			"bufferView":93,
			"componentType":5126,
			"count":882,
			"type":"VEC2"
		},
		{
			"bufferView":94,
			"componentType":5126,
			"count":882,
			"type":"VEC2"
		},
		{
			"bufferView":95,
			"componentType":5126,
			"count":882,
			"type":"VEC2"
		},
		{
			"bufferView":96,
			"componentType":5123,
			"count":1554,
			"type":"SCALAR"
		},
		{
			"bufferView":97,
			"componentType":5126,
			"count":216,
			"max":[
				1.5585790872573853,
				2.270876884460449,
				2.7805943489074707
			],
			"min":[
				-2.5134196281433105,
				-1.1271791458129883,
				-2.827819347381592
			],
			"type":"VEC3"
		},
		{
			"bufferView":98,
			"componentType":5126,
			"count":216,
			"type":"VEC3"
		},
		{
			"bufferView":99,
			"componentType":5126,
			"count":216,
			"type":"VEC2"
		},
		{
			"bufferView":100,
			"componentType":5126,
			"count":216,
			"type":"VEC2"
		},
		{
			"bufferView":101,
			"componentType":5126,
			"count":216,
			"type":"VEC2"
		},
		{
			"bufferView":102,
			"componentType":5126,
			"count":216,
			"type":"VEC2"
		},
		{
			"bufferView":103,
			"componentType":5126,
			"count":216,
			"type":"VEC2"
		},
		{
			"bufferView":104,
			"componentType":5126,
			"count":216,
			"type":"VEC2"
		},
		{
			"bufferView":105,
			"componentType":5126,
			"count":216,
			"type":"VEC2"
		},
		{
			"bufferView":106,
			"componentType":5123,
			"count":291,
			"type":"SCALAR"
		},
		{
			"bufferView":107,
			"componentType":5126,
			"count":517,
			"max":[
				0.46628472208976746,
				0.23697258532047272,
				1.1305965185165405
			],
			"min":[
				-0.6643305420875549,
				-0.21144507825374603,
				-1.1306339502334595
			],
			"type":"VEC3"
		},
		{
			"bufferView":108,
			"componentType":5126,
			"count":517,
			"type":"VEC3"
		},
		{
			"bufferView":109,
			"componentType":5126,
			"count":517,
			"type":"VEC2"
		},
		{
			"bufferView":110,
			"componentType":5126,
			"count":517,
			"type":"VEC2"
		},
		{
			"bufferView":111,
			"componentType":5126,
			"count":517,
			"type":"VEC2"
		},
		{
			"bufferView":112,
			"componentType":5126,
			"count":517,
			"type":"VEC2"
		},
		{
			"bufferView":113,
			"componentType":5126,
			"count":517,
			"type":"VEC2"
		},
		{
			"bufferView":114,
			"componentType":5126,
			"count":517,
			"type":"VEC2"
		},
		{
			"bufferView":115,
			"componentType":5126,
			"count":517,
			"type":"VEC2"
		},
		{
			"bufferView":116,
			"componentType":5123,
			"count":858,
			"type":"SCALAR"
		},
		{
			"bufferView":117,
			"componentType":5126,
			"count":511,
			"max":[
				0.700186550617218,
				3.1437883377075195,
				0.8659522533416748
			],
			"min":[
				-0.741769015789032,
				-3.0156240463256836,
				-0.8524620532989502
			],
			"type":"VEC3"
		},
		{
			"bufferView":118,
			"componentType":5126,
			"count":511,
			"type":"VEC3"
		},
		{
			"bufferView":119,
			"componentType":5126,
			"count":511,
			"type":"VEC2"
		},
		{
			"bufferView":120,
			"componentType":5126,
			"count":511,
			"type":"VEC2"
		},
		{
			"bufferView":121,
			"componentType":5126,
			"count":511,
			"type":"VEC2"
		},
		{
			"bufferView":122,
			"componentType":5123,
			"count":531,
			"type":"SCALAR"
		},
		{
			"bufferView":123,
			"componentType":5126,
			"count":515,
			"max":[
				0.6149687767028809,
				2.232611894607544,
				0.526775062084198
			],
			"min":[
				-0.6053833961486816,
				-2.141587018966675,
				-0.4972422420978546
			],
			"type":"VEC3"
		},
		{
			"bufferView":124,
			"componentType":5126,
			"count":515,
			"type":"VEC3"
		},
		{
			"bufferView":125,
			"componentType":5126,
			"count":515,
			"type":"VEC2"
		},
		{
			"bufferView":126,
			"componentType":5126,
			"count":515,
			"type":"VEC2"
		},
		{
			"bufferView":127,
			"componentType":5126,
			"count":515,
			"type":"VEC2"
		},
		{
			"bufferView":128,
			"componentType":5123,
			"count":531,
			"type":"SCALAR"
		},
		{
			"bufferView":129,
			"componentType":5126,
			"count":336,
			"max":[
				0.7539034485816956,
				0.35688257217407227,
				0.35008907318115234
			],
			"min":[
				-0.7515744566917419,
				-0.41678380966186523,
				-0.3499155044555664
			],
			"type":"VEC3"
		},
		{
			"bufferView":130,
			"componentType":5126,
			"count":336,
			"type":"VEC3"
		},
		{
			"bufferView":131,
			"componentType":5126,
			"count":336,
			"type":"VEC2"
		},
		{
			"bufferView":132,
			"componentType":5123,
			"count":480,
			"type":"SCALAR"
		},
		{
			"bufferView":133,
			"componentType":5126,
			"count":26,
			"max":[
				0.7193575501441956,
				0.29691553115844727,
				0.32237911224365234
			],
			"min":[
				-0.7211179137229919,
				-0.38263463973999023,
				-0.32221317291259766
			],
			"type":"VEC3"
		},
		{
			"bufferView":134,
			"componentType":5126,
			"count":26,
			"type":"VEC3"
		},
		{
			"bufferView":135,
			"componentType":5126,
			"count":26,
			"type":"VEC2"
		},
		{
			"bufferView":136,
			"componentType":5123,
			"count":36,
			"type":"SCALAR"
		},
		{
			"bufferView":137,
			"componentType":5126,
			"count":589,
			"max":[
				0.7170965075492859,
				0.7737773656845093,
				1.1406596899032593
			],
			"min":[
				-0.7026727795600891,
				-0.4813151955604553,
				-0.7941243052482605
			],
			"type":"VEC3"
		},
		{
			"bufferView":138,
			"componentType":5126,
			"count":589,
			"type":"VEC3"
		},
		{
			"bufferView":139,
			"componentType":5126,
			"count":589,
			"type":"VEC2"
		},
		{
			"bufferView":140,
			"componentType":5123,
			"count":858,
			"type":"SCALAR"
		},
		{
			"bufferView":141,
			"componentType":5126,
			"count":614,
			"max":[
				0.8263458013534546,
				0.7997854948043823,
				0.7449942827224731
			],
			"min":[
				-1.1830229759216309,
				-0.4976388216018677,
				-0.7332009077072144
			],
			"type":"VEC3"
		},
		{
			"bufferView":142,
			"componentType":5126,
			"count":614,
			"type":"VEC3"
		},
		{
			"bufferView":143,
			"componentType":5126,
			"count":614,
			"type":"VEC2"
		},
		{
			"bufferView":144,
			"componentType":5123,
			"count":858,
			"type":"SCALAR"
		},
		{
			"bufferView":145,
			"componentType":5126,
			"count":282,
			"max":[
				0.6018694043159485,
				0.5868881344795227,
				0.5414029955863953
			],
			"min":[
				-0.8670942187309265,
				-0.36516112089157104,
				-0.532243549823761
			],
			"type":"VEC3"
		},
		{
			"bufferView":146,
			"componentType":5126,
			"count":282,
			"type":"VEC3"
		},
		{
			"bufferView":147,
			"componentType":5126,
			"count":282,
			"type":"VEC2"
		},
		{
			"bufferView":148,
			"componentType":5123,
			"count":402,
			"type":"SCALAR"
		},
		{
			"bufferView":149,
			"componentType":5126,
			"count":290,
			"max":[
				0.944546639919281,
				0.4513859152793884,
				0.4287205934524536
			],
			"min":[
				-0.947207510471344,
				-0.5271449685096741,
				-0.42899882793426514
			],
			"type":"VEC3"
		},
		{
			"bufferView":150,
			"componentType":5126,
			"count":290,
			"type":"VEC3"
		},
		{
			"bufferView":151,
			"componentType":5126,
			"count":290,
			"type":"VEC2"
		},
		{
			"bufferView":152,
			"componentType":5123,
			"count":480,
			"type":"SCALAR"
		},
		{
			"bufferView":153,
			"componentType":5126,
			"count":24,
			"max":[
				0.9013490080833435,
				0.3755344748497009,
				0.39430439472198486
			],
			"min":[
				-0.9092589020729065,
				-0.4839549660682678,
				-0.3945826292037964
			],
			"type":"VEC3"
		},
		{
			"bufferView":154,
			"componentType":5126,
			"count":24,
			"type":"VEC3"
		},
		{
			"bufferView":155,
			"componentType":5126,
			"count":24,
			"type":"VEC2"
		},
		{
			"bufferView":156,
			"componentType":5123,
			"count":36,
			"type":"SCALAR"
		},
		{
			"bufferView":157,
			"componentType":5126,
			"count":302,
			"max":[
				0.22387538850307465,
				0.23559142649173737,
				0.49291369318962097
			],
			"min":[
				-0.22378696501255035,
				-0.27513548731803894,
				-0.49445202946662903
			],
			"type":"VEC3"
		},
		{
			"bufferView":158,
			"componentType":5126,
			"count":302,
			"type":"VEC3"
		},
		{
			"bufferView":159,
			"componentType":5126,
			"count":302,
			"type":"VEC2"
		},
		{
			"bufferView":160,
			"componentType":5123,
			"count":480,
			"type":"SCALAR"
		},
		{
			"bufferView":161,
			"componentType":5126,
			"count":24,
			"max":[
				0.20591579377651215,
				0.19600249826908112,
				0.4731001555919647
			],
			"min":[
				-0.20582737028598785,
				-0.2525906264781952,
				-0.47464612126350403
			],
			"type":"VEC3"
		},
		{
			"bufferView":162,
			"componentType":5126,
			"count":24,
			"type":"VEC3"
		},
		{
			"bufferView":163,
			"componentType":5126,
			"count":24,
			"type":"VEC2"
		},
		{
			"bufferView":164,
			"componentType":5123,
			"count":36,
			"type":"SCALAR"
		},
		{
			"bufferView":165,
			"componentType":5126,
			"count":329,
			"max":[
				0.849510133266449,
				0.4034149646759033,
				0.3895164132118225
			],
			"min":[
				-0.8467636704444885,
				-0.47111964225769043,
				-0.3894142508506775
			],
			"type":"VEC3"
		},
		{
			"bufferView":166,
			"componentType":5126,
			"count":329,
			"type":"VEC3"
		},
		{
			"bufferView":167,
			"componentType":5126,
			"count":329,
			"type":"VEC2"
		},
		{
			"bufferView":168,
			"componentType":5123,
			"count":480,
			"type":"SCALAR"
		},
		{
			"bufferView":169,
			"componentType":5126,
			"count":26,
			"max":[
				0.8106765151023865,
				0.3356201648712158,
				0.3584800362586975
			],
			"min":[
				-0.8125839829444885,
				-0.43251490592956543,
				-0.3583778738975525
			],
			"type":"VEC3"
		},
		{
			"bufferView":170,
			"componentType":5126,
			"count":26,
			"type":"VEC3"
		},
		{
			"bufferView":171,
			"componentType":5126,
			"count":26,
			"type":"VEC2"
		},
		{
			"bufferView":172,
			"componentType":5123,
			"count":36,
			"type":"SCALAR"
		},
		{
			"bufferView":173,
			"componentType":5126,
			"count":636,
			"max":[
				0.8961044549942017,
				0.8671063184738159,
				0.8080004453659058
			],
			"min":[
				-1.2826446294784546,
				-0.5396853685379028,
				-0.7947980165481567
			],
			"type":"VEC3"
		},
		{
			"bufferView":174,
			"componentType":5126,
			"count":636,
			"type":"VEC3"
		},
		{
			"bufferView":175,
			"componentType":5126,
			"count":636,
			"type":"VEC2"
		},
		{
			"bufferView":176,
			"componentType":5123,
			"count":864,
			"type":"SCALAR"
		},
		{
			"bufferView":177,
			"componentType":5126,
			"count":303,
			"max":[
				0.8857787251472473,
				0.42063766717910767,
				0.4061536192893982
			],
			"min":[
				-0.8829132914543152,
				-0.4912351965904236,
				-0.4060412049293518
			],
			"type":"VEC3"
		},
		{
			"bufferView":178,
			"componentType":5126,
			"count":303,
			"type":"VEC3"
		},
		{
			"bufferView":179,
			"componentType":5126,
			"count":303,
			"type":"VEC2"
		},
		{
			"bufferView":180,
			"componentType":5123,
			"count":480,
			"type":"SCALAR"
		},
		{
			"bufferView":181,
			"componentType":5126,
			"count":24,
			"max":[
				0.8452971577644348,
				0.3499513268470764,
				0.3737897276878357
			],
			"min":[
				-0.8472840189933777,
				-0.4509825110435486,
				-0.3736773133277893
			],
			"type":"VEC3"
		},
		{
			"bufferView":182,
			"componentType":5126,
			"count":24,
			"type":"VEC3"
		},
		{
			"bufferView":183,
			"componentType":5126,
			"count":24,
			"type":"VEC2"
		},
		{
			"bufferView":184,
			"componentType":5123,
			"count":36,
			"type":"SCALAR"
		},
		{
			"bufferView":185,
			"componentType":5126,
			"count":585,
			"max":[
				0.16082248091697693,
				2.0673434734344482,
				0.07293111830949783
			],
			"min":[
				-0.09850063920021057,
				-1.4392865896224976,
				-0.14729897677898407
			],
			"type":"VEC3"
		},
		{
			"bufferView":186,
			"componentType":5126,
			"count":585,
			"type":"VEC3"
		},
		{
			"bufferView":187,
			"componentType":5126,
			"count":585,
			"type":"VEC2"
		},
		{
			"bufferView":188,
			"componentType":5126,
			"count":585,
			"type":"VEC2"
		},
		{
			"bufferView":189,
			"componentType":5126,
			"count":585,
			"type":"VEC2"
		},
		{
			"bufferView":190,
			"componentType":5126,
			"count":585,
			"type":"VEC2"
		},
		{
			"bufferView":191,
			"componentType":5126,
			"count":585,
			"type":"VEC2"
		},
		{
			"bufferView":192,
			"componentType":5126,
			"count":585,
			"type":"VEC2"
		},
		{
			"bufferView":193,
			"componentType":5126,
			"count":585,
			"type":"VEC2"
		},
		{
			"bufferView":194,
			"componentType":5123,
			"count":705,
			"type":"SCALAR"
		},
		{
			"bufferView":195,
			"componentType":5126,
			"count":688,
			"max":[
				0.20592746138572693,
				1.1378237009048462,
				0.20847494900226593
			],
			"min":[
				-0.12107601761817932,
				-1.3948606252670288,
				-0.15499703586101532
			],
			"type":"VEC3"
		},
		{
			"bufferView":196,
			"componentType":5126,
			"count":688,
			"type":"VEC3"
		},
		{
			"bufferView":197,
			"componentType":5126,
			"count":688,
			"type":"VEC2"
		},
		{
			"bufferView":198,
			"componentType":5126,
			"count":688,
			"type":"VEC2"
		},
		{
			"bufferView":199,
			"componentType":5126,
			"count":688,
			"type":"VEC2"
		},
		{
			"bufferView":200,
			"componentType":5126,
			"count":688,
			"type":"VEC2"
		},
		{
			"bufferView":201,
			"componentType":5126,
			"count":688,
			"type":"VEC2"
		},
		{
			"bufferView":202,
			"componentType":5126,
			"count":688,
			"type":"VEC2"
		},
		{
			"bufferView":203,
			"componentType":5126,
			"count":688,
			"type":"VEC2"
		},
		{
			"bufferView":204,
			"componentType":5123,
			"count":927,
			"type":"SCALAR"
		},
		{
			"bufferView":205,
			"componentType":5126,
			"count":24,
			"max":[
				0.25347137451171875,
				0.3078422546386719,
				0.12123870849609375
			],
			"min":[
				-0.25347137451171875,
				-0.3078422546386719,
				-0.12123870849609375
			],
			"type":"VEC3"
		},
		{
			"bufferView":206,
			"componentType":5126,
			"count":24,
			"type":"VEC3"
		},
		{
			"bufferView":207,
			"componentType":5126,
			"count":24,
			"type":"VEC2"
		},
		{
			"bufferView":208,
			"componentType":5123,
			"count":36,
			"type":"SCALAR"
		},
		{
			"bufferView":209,
			"componentType":5126,
			"count":48,
			"max":[
				0.44640836119651794,
				0.1549701690673828,
				1.0958099365234375
			],
			"min":[
				-0.6420391798019409,
				-0.1545238494873047,
				-1.0958099365234375
			],
			"type":"VEC3"
		},
		{
			"bufferView":210,
			"componentType":5126,
			"count":48,
			"type":"VEC3"
		},
		{
			"bufferView":211,
			"componentType":5126,
			"count":48,
			"type":"VEC2"
		},
		{
			"bufferView":212,
			"componentType":5123,
			"count":72,
			"type":"SCALAR"
		},
		{
			"bufferView":213,
			"componentType":5126,
			"count":48,
			"max":[
				1.2643097639083862,
				0.17989395558834076,
				0.7635976076126099
			],
			"min":[
				-1.2795134782791138,
				-0.17937804758548737,
				-0.5368021726608276
			],
			"type":"VEC3"
		},
		{
			"bufferView":214,
			"componentType":5126,
			"count":48,
			"type":"VEC3"
		},
		{
			"bufferView":215,
			"componentType":5126,
			"count":48,
			"type":"VEC2"
		},
		{
			"bufferView":216,
			"componentType":5126,
			"count":40,
			"max":[
				1.269683837890625,
				0.32421520352363586,
				0.5612335205078125
			],
			"min":[
				-1.269683837890625,
				0.06802774220705032,
				-0.5612335205078125
			],
			"type":"VEC3"
		},
		{
			"bufferView":217,
			"componentType":5126,
			"count":40,
			"type":"VEC3"
		},
		{
			"bufferView":218,
			"componentType":5126,
			"count":40,
			"type":"VEC2"
		},
		{
			"bufferView":219,
			"componentType":5123,
			"count":60,
			"type":"SCALAR"
		},
		{
			"bufferView":220,
			"componentType":5126,
			"count":420,
			"max":[
				1.37109375,
				0.35595348477363586,
				0.6626434326171875
			],
			"min":[
				-1.37109375,
				-0.18459677696228027,
				-0.6626434326171875
			],
			"type":"VEC3"
		},
		{
			"bufferView":221,
			"componentType":5126,
			"count":420,
			"type":"VEC3"
		},
		{
			"bufferView":222,
			"componentType":5126,
			"count":420,
			"type":"VEC2"
		},
		{
			"bufferView":223,
			"componentType":5123,
			"count":708,
			"type":"SCALAR"
		},
		{
			"bufferView":224,
			"componentType":5126,
			"count":24,
			"max":[
				0.76220703125,
				1.0870933532714844,
				1.09259033203125
			],
			"min":[
				-0.76220703125,
				-1.0870933532714844,
				-1.09259033203125
			],
			"type":"VEC3"
		},
		{
			"bufferView":225,
			"componentType":5126,
			"count":24,
			"type":"VEC3"
		},
		{
			"bufferView":226,
			"componentType":5126,
			"count":24,
			"type":"VEC2"
		},
		{
			"bufferView":227,
			"componentType":5126,
			"count":24,
			"type":"VEC2"
		},
		{
			"bufferView":228,
			"componentType":5126,
			"count":24,
			"type":"VEC2"
		},
		{
			"bufferView":229,
			"componentType":5123,
			"count":36,
			"type":"SCALAR"
		},
		{
			"bufferView":230,
			"componentType":5126,
			"count":24,
			"max":[
				0.60406494140625,
				0.6040611267089844,
				0.4191131591796875
			],
			"min":[
				-0.60406494140625,
				-0.6040611267089844,
				-0.4191131591796875
			],
			"type":"VEC3"
		},
		{
			"bufferView":231,
			"componentType":5126,
			"count":24,
			"type":"VEC3"
		},
		{
			"bufferView":232,
			"componentType":5126,
			"count":24,
			"type":"VEC2"
		},
		{
			"bufferView":233,
			"componentType":5126,
			"count":24,
			"type":"VEC2"
		},
		{
			"bufferView":234,
			"componentType":5126,
			"count":24,
			"type":"VEC2"
		},
		{
			"bufferView":235,
			"componentType":5123,
			"count":36,
			"type":"SCALAR"
		},
		{
			"bufferView":236,
			"componentType":5126,
			"count":328,
			"max":[
				29.061779022216797,
				-41.16994094848633,
				16.667146682739258
			],
			"min":[
				-32.06095886230469,
				-45.035465240478516,
				-16.385251998901367
			],
			"type":"VEC3"
		},
		{
			"bufferView":237,
			"componentType":5126,
			"count":328,
			"type":"VEC3"
		},
		{
			"bufferView":238,
			"componentType":5126,
			"count":328,
			"type":"VEC2"
		},
		{
			"bufferView":239,
			"componentType":5126,
			"count":328,
			"type":"VEC2"
		},
		{
			"bufferView":240,
			"componentType":5126,
			"count":328,
			"type":"VEC2"
		},
		{
			"bufferView":241,
			"componentType":5126,
			"count":328,
			"type":"VEC2"
		},
		{
			"bufferView":242,
			"componentType":5126,
			"count":328,
			"type":"VEC2"
		},
		{
			"bufferView":243,
			"componentType":5126,
			"count":328,
			"type":"VEC2"
		},
		{
			"bufferView":244,
			"componentType":5126,
			"count":328,
			"type":"VEC2"
		},
		{
			"bufferView":245,
			"componentType":5126,
			"count":328,
			"type":"VEC2"
		},
		{
			"bufferView":246,
			"componentType":5123,
			"count":492,
			"type":"SCALAR"
		},
		{
			"bufferView":247,
			"componentType":5126,
			"count":820,
			"max":[
				29.061779022216797,
				-40.694679260253906,
				16.667146682739258
			],
			"min":[
				-32.06095886230469,
				-41.16994094848633,
				-16.385251998901367
			],
			"type":"VEC3"
		},
		{
			"bufferView":248,
			"componentType":5126,
			"count":820,
			"type":"VEC3"
		},
		{
			"bufferView":249,
			"componentType":5126,
			"count":820,
			"type":"VEC2"
		},
		{
			"bufferView":250,
			"componentType":5126,
			"count":820,
			"type":"VEC2"
		},
		{
			"bufferView":251,
			"componentType":5126,
			"count":820,
			"type":"VEC2"
		},
		{
			"bufferView":252,
			"componentType":5126,
			"count":820,
			"type":"VEC2"
		},
		{
			"bufferView":253,
			"componentType":5126,
			"count":820,
			"type":"VEC2"
		},
		{
			"bufferView":254,
			"componentType":5126,
			"count":820,
			"type":"VEC2"
		},
		{
			"bufferView":255,
			"componentType":5126,
			"count":820,
			"type":"VEC2"
		},
		{
			"bufferView":256,
			"componentType":5126,
			"count":820,
			"type":"VEC2"
		},
		{
			"bufferView":257,
			"componentType":5123,
			"count":1230,
			"type":"SCALAR"
		},
		{
			"bufferView":258,
			"componentType":5126,
			"count":5394,
			"max":[
				27.042339324951172,
				44.97224807739258,
				15.211678504943848
			],
			"min":[
				-29.75937271118164,
				-45.02992248535156,
				-14.668936729431152
			],
			"type":"VEC3"
		},
		{
			"bufferView":259,
			"componentType":5126,
			"count":5394,
			"type":"VEC3"
		},
		{
			"bufferView":260,
			"componentType":5126,
			"count":5394,
			"type":"VEC2"
		},
		{
			"bufferView":261,
			"componentType":5126,
			"count":5394,
			"type":"VEC2"
		},
		{
			"bufferView":262,
			"componentType":5126,
			"count":5394,
			"type":"VEC2"
		},
		{
			"bufferView":263,
			"componentType":5126,
			"count":5394,
			"type":"VEC2"
		},
		{
			"bufferView":264,
			"componentType":5126,
			"count":5394,
			"type":"VEC2"
		},
		{
			"bufferView":265,
			"componentType":5126,
			"count":5394,
			"type":"VEC2"
		},
		{
			"bufferView":266,
			"componentType":5126,
			"count":5394,
			"type":"VEC2"
		},
		{
			"bufferView":267,
			"componentType":5126,
			"count":5394,
			"type":"VEC2"
		},
		{
			"bufferView":268,
			"componentType":5123,
			"count":8520,
			"type":"SCALAR"
		},
		{
			"bufferView":269,
			"componentType":5126,
			"count":1584,
			"max":[
				27.18429183959961,
				27.54949951171875,
				15.353562355041504
			],
			"min":[
				-29.901126861572266,
				14.9715576171875,
				-14.394370079040527
			],
			"type":"VEC3"
		},
		{
			"bufferView":270,
			"componentType":5126,
			"count":1584,
			"type":"VEC3"
		},
		{
			"bufferView":271,
			"componentType":5126,
			"count":1584,
			"type":"VEC2"
		},
		{
			"bufferView":272,
			"componentType":5126,
			"count":1584,
			"type":"VEC2"
		},
		{
			"bufferView":273,
			"componentType":5126,
			"count":1584,
			"type":"VEC2"
		},
		{
			"bufferView":274,
			"componentType":5126,
			"count":1584,
			"type":"VEC2"
		},
		{
			"bufferView":275,
			"componentType":5126,
			"count":1584,
			"type":"VEC2"
		},
		{
			"bufferView":276,
			"componentType":5126,
			"count":1584,
			"type":"VEC2"
		},
		{
			"bufferView":277,
			"componentType":5126,
			"count":1584,
			"type":"VEC2"
		},
		{
			"bufferView":278,
			"componentType":5126,
			"count":1584,
			"type":"VEC2"
		},
		{
			"bufferView":279,
			"componentType":5123,
			"count":2364,
			"type":"SCALAR"
		},
		{
			"bufferView":280,
			"componentType":5126,
			"count":460,
			"max":[
				27.328845977783203,
				45.982791900634766,
				0.7651834487915039
			],
			"min":[
				-29.759174346923828,
				14.971305847167969,
				-14.95542049407959
			],
			"type":"VEC3"
		},
		{
			"bufferView":281,
			"componentType":5126,
			"count":460,
			"type":"VEC3"
		},
		{
			"bufferView":282,
			"componentType":5126,
			"count":460,
			"type":"VEC2"
		},
		{
			"bufferView":283,
			"componentType":5126,
			"count":460,
			"type":"VEC2"
		},
		{
			"bufferView":284,
			"componentType":5126,
			"count":460,
			"type":"VEC2"
		},
		{
			"bufferView":285,
			"componentType":5126,
			"count":460,
			"type":"VEC2"
		},
		{
			"bufferView":286,
			"componentType":5126,
			"count":460,
			"type":"VEC2"
		},
		{
			"bufferView":287,
			"componentType":5126,
			"count":460,
			"type":"VEC2"
		},
		{
			"bufferView":288,
			"componentType":5126,
			"count":460,
			"type":"VEC2"
		},
		{
			"bufferView":289,
			"componentType":5126,
			"count":460,
			"type":"VEC2"
		},
		{
			"bufferView":290,
			"componentType":5123,
			"count":810,
			"type":"SCALAR"
		},
		{
			"bufferView":291,
			"componentType":5126,
			"count":485,
			"max":[
				-1.0735050439834595,
				39.982669830322266,
				15.498185157775879
			],
			"min":[
				-30.045886993408203,
				38.97190475463867,
				0.19387149810791016
			],
			"type":"VEC3"
		},
		{
			"bufferView":292,
			"componentType":5126,
			"count":485,
			"type":"VEC3"
		},
		{
			"bufferView":293,
			"componentType":5126,
			"count":485,
			"type":"VEC2"
		},
		{
			"bufferView":294,
			"componentType":5126,
			"count":485,
			"type":"VEC2"
		},
		{
			"bufferView":295,
			"componentType":5126,
			"count":485,
			"type":"VEC2"
		},
		{
			"bufferView":296,
			"componentType":5126,
			"count":485,
			"type":"VEC2"
		},
		{
			"bufferView":297,
			"componentType":5126,
			"count":485,
			"type":"VEC2"
		},
		{
			"bufferView":298,
			"componentType":5126,
			"count":485,
			"type":"VEC2"
		},
		{
			"bufferView":299,
			"componentType":5126,
			"count":485,
			"type":"VEC2"
		},
		{
			"bufferView":300,
			"componentType":5126,
			"count":485,
			"type":"VEC2"
		},
		{
			"bufferView":301,
			"componentType":5123,
			"count":810,
			"type":"SCALAR"
		},
		{
			"bufferView":302,
			"componentType":5126,
			"count":13,
			"max":[
				27.042339324951172,
				44.97224044799805,
				15.211678504943848
			],
			"min":[
				-29.75937271118164,
				26.971603393554688,
				-14.659079551696777
			],
			"type":"VEC3"
		},
		{
			"bufferView":303,
			"componentType":5126,
			"count":13,
			"type":"VEC3"
		},
		{
			"bufferView":304,
			"componentType":5126,
			"count":13,
			"type":"VEC2"
		},
		{
			"bufferView":305,
			"componentType":5126,
			"count":13,
			"type":"VEC2"
		},
		{
			"bufferView":306,
			"componentType":5126,
			"count":13,
			"type":"VEC2"
		},
		{
			"bufferView":307,
			"componentType":5126,
			"count":13,
			"type":"VEC2"
		},
		{
			"bufferView":308,
			"componentType":5126,
			"count":13,
			"type":"VEC2"
		},
		{
			"bufferView":309,
			"componentType":5126,
			"count":13,
			"type":"VEC2"
		},
		{
			"bufferView":310,
			"componentType":5126,
			"count":13,
			"type":"VEC2"
		},
		{
			"bufferView":311,
			"componentType":5126,
			"count":13,
			"type":"VEC2"
		},
		{
			"bufferView":312,
			"componentType":5123,
			"count":21,
			"type":"SCALAR"
		},
		{
			"bufferView":313,
			"componentType":5126,
			"count":189,
			"max":[
				0.8032037615776062,
				3.2880895137786865,
				0.7822188138961792
			],
			"min":[
				-0.8027837872505188,
				0.8600461483001709,
				-0.7825547456741333
			],
			"type":"VEC3"
		},
		{
			"bufferView":314,
			"componentType":5126,
			"count":189,
			"type":"VEC3"
		},
		{
			"bufferView":315,
			"componentType":5126,
			"count":189,
			"type":"VEC2"
		},
		{
			"bufferView":316,
			"componentType":5123,
			"count":492,
			"type":"SCALAR"
		},
		{
			"bufferView":317,
			"componentType":5126,
			"count":100,
			"max":[
				1.252590298652649,
				0.8565709590911865,
				1.2522200345993042
			],
			"min":[
				-1.252170443534851,
				-2.5167009830474854,
				-1.252548336982727
			],
			"type":"VEC3"
		},
		{
			"bufferView":318,
			"componentType":5126,
			"count":100,
			"type":"VEC3"
		},
		{
			"bufferView":319,
			"componentType":5126,
			"count":100,
			"type":"VEC2"
		},
		{
			"bufferView":320,
			"componentType":5123,
			"count":120,
			"type":"SCALAR"
		}
	],
	"bufferViews":[
		{
			"buffer":0,
			"byteLength":7116,
			"byteOffset":0,
			"target":34962
		},
		{
			"buffer":0,
			"byteLength":7116,
			"byteOffset":7116,
			"target":34962
		},
		{
			"buffer":0,
			"byteLength":4744,
			"byteOffset":14232,
			"target":34962
		},
		{
			"buffer":0,
			"byteLength":4744,
			"byteOffset":18976,
			"target":34962
		},
		{
			"buffer":0,
			"byteLength":4744,
			"byteOffset":23720,
			"target":34962
		},
		{
			"buffer":0,
			"byteLength":4744,
			"byteOffset":28464,
			"target":34962
		},
		{
			"buffer":0,
			"byteLength":4744,
			"byteOffset":33208,
			"target":34962
		},
		{
			"buffer":0,
			"byteLength":4744,
			"byteOffset":37952,
			"target":34962
		},
		{
			"buffer":0,
			"byteLength":4744,
			"byteOffset":42696,
			"target":34962
		},
		{
			"buffer":0,
			"byteLength":1650,
			"byteOffset":47440,
			"target":34963
		},
		{
			"buffer":0,
			"byteLength":432,
			"byteOffset":49092,
			"target":34962
		},
		{
			"buffer":0,
			"byteLength":432,
			"byteOffset":49524,
			"target":34962
		},
		{
			"buffer":0,
			"byteLength":288,
			"byteOffset":49956,
			"target":34962
		},
		{
			"buffer":0,
			"byteLength":108,
			"byteOffset":50244,
			"target":34963
		},
		{
			"buffer":0,
			"byteLength":528,
			"byteOffset":50352,
			"target":34962
		},
		{
			"buffer":0,
			"byteLength":528,
			"byteOffset":50880,
			"target":34962
		},
		{
			"buffer":0,
			"byteLength":352,
			"byteOffset":51408,
			"target":34962
		},
		{
			"buffer":0,
			"byteLength":108,
			"byteOffset":51760,
			"target":34963
		},
		{
			"buffer":0,
			"byteLength":432,
			"byteOffset":51868,
			"target":34962
		},
		{
			"buffer":0,
			"byteLength":432,
			"byteOffset":52300,
			"target":34962
		},
		{
			"buffer":0,
			"byteLength":288,
			"byteOffset":52732,
			"target":34962
		},
		{
			"buffer":0,
			"byteLength":432,
			"byteOffset":53020,
			"target":34962
		},
		{
			"buffer":0,
			"byteLength":432,
			"byteOffset":53452,
			"target":34962
		},
		{
			"buffer":0,
			"byteLength":288,
			"byteOffset":53884,
			"target":34962
		},
		{
			"buffer":0,
			"byteLength":108,
			"byteOffset":54172,
			"target":34963
		},
		{
			"buffer":0,
			"byteLength":432,
			"byteOffset":54280,
			"target":34962
		},
		{
			"buffer":0,
			"byteLength":432,
			"byteOffset":54712,
			"target":34962
		},
		{
			"buffer":0,
			"byteLength":288,
			"byteOffset":55144,
			"target":34962
		},
		{
			"buffer":0,
			"byteLength":432,
			"byteOffset":55432,
			"target":34962
		},
		{
			"buffer":0,
			"byteLength":432,
			"byteOffset":55864,
			"target":34962
		},
		{
			"buffer":0,
			"byteLength":288,
			"byteOffset":56296,
			"target":34962
		},
		{
			"buffer":0,
			"byteLength":432,
			"byteOffset":56584,
			"target":34962
		},
		{
			"buffer":0,
			"byteLength":432,
			"byteOffset":57016,
			"target":34962
		},
		{
			"buffer":0,
			"byteLength":288,
			"byteOffset":57448,
			"target":34962
		},
		{
			"buffer":0,
			"byteLength":432,
			"byteOffset":57736,
			"target":34962
		},
		{
			"buffer":0,
			"byteLength":432,
			"byteOffset":58168,
			"target":34962
		},
		{
			"buffer":0,
			"byteLength":288,
			"byteOffset":58600,
			"target":34962
		},
		{
			"buffer":0,
			"byteLength":11016,
			"byteOffset":58888,
			"target":34962
		},
		{
			"buffer":0,
			"byteLength":11016,
			"byteOffset":69904,
			"target":34962
		},
		{
			"buffer":0,
			"byteLength":7344,
			"byteOffset":80920,
			"target":34962
		},
		{
			"buffer":0,
			"byteLength":7344,
			"byteOffset":88264,
			"target":34962
		},
		{
			"buffer":0,
			"byteLength":7344,
			"byteOffset":95608,
			"target":34962
		},
		{
			"buffer":0,
			"byteLength":7344,
			"byteOffset":102952,
			"target":34962
		},
		{
			"buffer":0,
			"byteLength":7344,
			"byteOffset":110296,
			"target":34962
		},
		{
			"buffer":0,
			"byteLength":7344,
			"byteOffset":117640,
			"target":34962
		},
		{
			"buffer":0,
			"byteLength":7344,
			"byteOffset":124984,
			"target":34962
		},
		{
			"buffer":0,
			"byteLength":3108,
			"byteOffset":132328,
			"target":34963
		},
		{
			"buffer":0,
			"byteLength":1788,
			"byteOffset":135436,
			"target":34962
		},
		{
			"buffer":0,
			"byteLength":1788,
			"byteOffset":137224,
			"target":34962
		},
		{
			"buffer":0,
			"byteLength":1192,
			"byteOffset":139012,
			"target":34962
		},
		{
			"buffer":0,
			"byteLength":1192,
			"byteOffset":140204,
			"target":34962
		},
		{
			"buffer":0,
			"byteLength":1192,
			"byteOffset":141396,
			"target":34962
		},
		{
			"buffer":0,
			"byteLength":1192,
			"byteOffset":142588,
			"target":34962
		},
		{
			"buffer":0,
			"byteLength":1192,
			"byteOffset":143780,
			"target":34962
		},
		{
			"buffer":0,
			"byteLength":1192,
			"byteOffset":144972,
			"target":34962
		},
		{
			"buffer":0,
			"byteLength":1192,
			"byteOffset":146164,
			"target":34962
		},
		{
			"buffer":0,
			"byteLength":390,
			"byteOffset":147356,
			"target":34963
		},
		{
			"buffer":0,
			"byteLength":7236,
			"byteOffset":147748,
			"target":34962
		},
		{
			"buffer":0,
			"byteLength":7236,
			"byteOffset":154984,
			"target":34962
		},
		{
			"buffer":0,
			"byteLength":4824,
			"byteOffset":162220,
			"target":34962
		},
		{
			"buffer":0,
			"byteLength":4824,
			"byteOffset":167044,
			"target":34962
		},
		{
			"buffer":0,
			"byteLength":4824,
			"byteOffset":171868,
			"target":34962
		},
		{
			"buffer":0,
			"byteLength":4824,
			"byteOffset":176692,
			"target":34962
		},
		{
			"buffer":0,
			"byteLength":4824,
			"byteOffset":181516,
			"target":34962
		},
		{
			"buffer":0,
			"byteLength":4824,
			"byteOffset":186340,
			"target":34962
		},
		{
			"buffer":0,
			"byteLength":4824,
			"byteOffset":191164,
			"target":34962
		},
		{
			"buffer":0,
			"byteLength":1716,
			"byteOffset":195988,
			"target":34963
		},
		{
			"buffer":0,
			"byteLength":6840,
			"byteOffset":197704,
			"target":34962
		},
		{
			"buffer":0,
			"byteLength":6840,
			"byteOffset":204544,
			"target":34962
		},
		{
			"buffer":0,
			"byteLength":4560,
			"byteOffset":211384,
			"target":34962
		},
		{
			"buffer":0,
			"byteLength":4560,
			"byteOffset":215944,
			"target":34962
		},
		{
			"buffer":0,
			"byteLength":4560,
			"byteOffset":220504,
			"target":34962
		},
		{
			"buffer":0,
			"byteLength":4560,
			"byteOffset":225064,
			"target":34962
		},
		{
			"buffer":0,
			"byteLength":4560,
			"byteOffset":229624,
			"target":34962
		},
		{
			"buffer":0,
			"byteLength":4560,
			"byteOffset":234184,
			"target":34962
		},
		{
			"buffer":0,
			"byteLength":4560,
			"byteOffset":238744,
			"target":34962
		},
		{
			"buffer":0,
			"byteLength":1896,
			"byteOffset":243304,
			"target":34963
		},
		{
			"buffer":0,
			"byteLength":1368,
			"byteOffset":245200,
			"target":34962
		},
		{
			"buffer":0,
			"byteLength":1368,
			"byteOffset":246568,
			"target":34962
		},
		{
			"buffer":0,
			"byteLength":912,
			"byteOffset":247936,
			"target":34962
		},
		{
			"buffer":0,
			"byteLength":912,
			"byteOffset":248848,
			"target":34962
		},
		{
			"buffer":0,
			"byteLength":912,
			"byteOffset":249760,
			"target":34962
		},
		{
			"buffer":0,
			"byteLength":912,
			"byteOffset":250672,
			"target":34962
		},
		{
			"buffer":0,
			"byteLength":912,
			"byteOffset":251584,
			"target":34962
		},
		{
			"buffer":0,
			"byteLength":912,
			"byteOffset":252496,
			"target":34962
		},
		{
			"buffer":0,
			"byteLength":912,
			"byteOffset":253408,
			"target":34962
		},
		{
			"buffer":0,
			"byteLength":312,
			"byteOffset":254320,
			"target":34963
		},
		{
			"buffer":0,
			"byteLength":10584,
			"byteOffset":254632,
			"target":34962
		},
		{
			"buffer":0,
			"byteLength":10584,
			"byteOffset":265216,
			"target":34962
		},
		{
			"buffer":0,
			"byteLength":7056,
			"byteOffset":275800,
			"target":34962
		},
		{
			"buffer":0,
			"byteLength":7056,
			"byteOffset":282856,
			"target":34962
		},
		{
			"buffer":0,
			"byteLength":7056,
			"byteOffset":289912,
			"target":34962
		},
		{
			"buffer":0,
			"byteLength":7056,
			"byteOffset":296968,
			"target":34962
		},
		{
			"buffer":0,
			"byteLength":7056,
			"byteOffset":304024,
			"target":34962
		},
		{
			"buffer":0,
			"byteLength":7056,
			"byteOffset":311080,
			"target":34962
		},
		{
			"buffer":0,
			"byteLength":7056,
			"byteOffset":318136,
			"target":34962
		},
		{
			"buffer":0,
			"byteLength":3108,
			"byteOffset":325192,
			"target":34963
		},
		{
			"buffer":0,
			"byteLength":2592,
			"byteOffset":328300,
			"target":34962
		},
		{
			"buffer":0,
			"byteLength":2592,
			"byteOffset":330892,
			"target":34962
		},
		{
			"buffer":0,
			"byteLength":1728,
			"byteOffset":333484,
			"target":34962
		},
		{
			"buffer":0,
			"byteLength":1728,
			"byteOffset":335212,
			"target":34962
		},
		{
			"buffer":0,
			"byteLength":1728,
			"byteOffset":336940,
			"target":34962
		},
		{
			"buffer":0,
			"byteLength":1728,
			"byteOffset":338668,
			"target":34962
		},
		{
			"buffer":0,
			"byteLength":1728,
			"byteOffset":340396,
			"target":34962
		},
		{
			"buffer":0,
			"byteLength":1728,
			"byteOffset":342124,
			"target":34962
		},
		{
			"buffer":0,
			"byteLength":1728,
			"byteOffset":343852,
			"target":34962
		},
		{
			"buffer":0,
			"byteLength":582,
			"byteOffset":345580,
			"target":34963
		},
		{
			"buffer":0,
			"byteLength":6204,
			"byteOffset":346164,
			"target":34962
		},
		{
			"buffer":0,
			"byteLength":6204,
			"byteOffset":352368,
			"target":34962
		},
		{
			"buffer":0,
			"byteLength":4136,
			"byteOffset":358572,
			"target":34962
		},
		{
			"buffer":0,
			"byteLength":4136,
			"byteOffset":362708,
			"target":34962
		},
		{
			"buffer":0,
			"byteLength":4136,
			"byteOffset":366844,
			"target":34962
		},
		{
			"buffer":0,
			"byteLength":4136,
			"byteOffset":370980,
			"target":34962
		},
		{
			"buffer":0,
			"byteLength":4136,
			"byteOffset":375116,
			"target":34962
		},
		{
			"buffer":0,
			"byteLength":4136,
			"byteOffset":379252,
			"target":34962
		},
		{
			"buffer":0,
			"byteLength":4136,
			"byteOffset":383388,
			"target":34962
		},
		{
			"buffer":0,
			"byteLength":1716,
			"byteOffset":387524,
			"target":34963
		},
		{
			"buffer":0,
			"byteLength":6132,
			"byteOffset":389240,
			"target":34962
		},
		{
			"buffer":0,
			"byteLength":6132,
			"byteOffset":395372,
			"target":34962
		},
		{
			"buffer":0,
			"byteLength":4088,
			"byteOffset":401504,
			"target":34962
		},
		{
			"buffer":0,
			"byteLength":4088,
			"byteOffset":405592,
			"target":34962
		},
		{
			"buffer":0,
			"byteLength":4088,
			"byteOffset":409680,
			"target":34962
		},
		{
			"buffer":0,
			"byteLength":1062,
			"byteOffset":413768,
			"target":34963
		},
		{
			"buffer":0,
			"byteLength":6180,
			"byteOffset":414832,
			"target":34962
		},
		{
			"buffer":0,
			"byteLength":6180,
			"byteOffset":421012,
			"target":34962
		},
		{
			"buffer":0,
			"byteLength":4120,
			"byteOffset":427192,
			"target":34962
		},
		{
			"buffer":0,
			"byteLength":4120,
			"byteOffset":431312,
			"target":34962
		},
		{
			"buffer":0,
			"byteLength":4120,
			"byteOffset":435432,
			"target":34962
		},
		{
			"buffer":0,
			"byteLength":1062,
			"byteOffset":439552,
			"target":34963
		},
		{
			"buffer":0,
			"byteLength":4032,
			"byteOffset":440616,
			"target":34962
		},
		{
			"buffer":0,
			"byteLength":4032,
			"byteOffset":444648,
			"target":34962
		},
		{
			"buffer":0,
			"byteLength":2688,
			"byteOffset":448680,
			"target":34962
		},
		{
			"buffer":0,
			"byteLength":960,
			"byteOffset":451368,
			"target":34963
		},
		{
			"buffer":0,
			"byteLength":312,
			"byteOffset":452328,
			"target":34962
		},
		{
			"buffer":0,
			"byteLength":312,
			"byteOffset":452640,
			"target":34962
		},
		{
			"buffer":0,
			"byteLength":208,
			"byteOffset":452952,
			"target":34962
		},
		{
			"buffer":0,
			"byteLength":72,
			"byteOffset":453160,
			"target":34963
		},
		{
			"buffer":0,
			"byteLength":7068,
			"byteOffset":453232,
			"target":34962
		},
		{
			"buffer":0,
			"byteLength":7068,
			"byteOffset":460300,
			"target":34962
		},
		{
			"buffer":0,
			"byteLength":4712,
			"byteOffset":467368,
			"target":34962
		},
		{
			"buffer":0,
			"byteLength":1716,
			"byteOffset":472080,
			"target":34963
		},
		{
			"buffer":0,
			"byteLength":7368,
			"byteOffset":473796,
			"target":34962
		},
		{
			"buffer":0,
			"byteLength":7368,
			"byteOffset":481164,
			"target":34962
		},
		{
			"buffer":0,
			"byteLength":4912,
			"byteOffset":488532,
			"target":34962
		},
		{
			"buffer":0,
			"byteLength":1716,
			"byteOffset":493444,
			"target":34963
		},
		{
			"buffer":0,
			"byteLength":3384,
			"byteOffset":495160,
			"target":34962
		},
		{
			"buffer":0,
			"byteLength":3384,
			"byteOffset":498544,
			"target":34962
		},
		{
			"buffer":0,
			"byteLength":2256,
			"byteOffset":501928,
			"target":34962
		},
		{
			"buffer":0,
			"byteLength":804,
			"byteOffset":504184,
			"target":34963
		},
		{
			"buffer":0,
			"byteLength":3480,
			"byteOffset":504988,
			"target":34962
		},
		{
			"buffer":0,
			"byteLength":3480,
			"byteOffset":508468,
			"target":34962
		},
		{
			"buffer":0,
			"byteLength":2320,
			"byteOffset":511948,
			"target":34962
		},
		{
			"buffer":0,
			"byteLength":960,
			"byteOffset":514268,
			"target":34963
		},
		{
			"buffer":0,
			"byteLength":288,
			"byteOffset":515228,
			"target":34962
		},
		{
			"buffer":0,
			"byteLength":288,
			"byteOffset":515516,
			"target":34962
		},
		{
			"buffer":0,
			"byteLength":192,
			"byteOffset":515804,
			"target":34962
		},
		{
			"buffer":0,
			"byteLength":72,
			"byteOffset":515996,
			"target":34963
		},
		{
			"buffer":0,
			"byteLength":3624,
			"byteOffset":516068,
			"target":34962
		},
		{
			"buffer":0,
			"byteLength":3624,
			"byteOffset":519692,
			"target":34962
		},
		{
			"buffer":0,
			"byteLength":2416,
			"byteOffset":523316,
			"target":34962
		},
		{
			"buffer":0,
			"byteLength":960,
			"byteOffset":525732,
			"target":34963
		},
		{
			"buffer":0,
			"byteLength":288,
			"byteOffset":526692,
			"target":34962
		},
		{
			"buffer":0,
			"byteLength":288,
			"byteOffset":526980,
			"target":34962
		},
		{
			"buffer":0,
			"byteLength":192,
			"byteOffset":527268,
			"target":34962
		},
		{
			"buffer":0,
			"byteLength":72,
			"byteOffset":527460,
			"target":34963
		},
		{
			"buffer":0,
			"byteLength":3948,
			"byteOffset":527532,
			"target":34962
		},
		{
			"buffer":0,
			"byteLength":3948,
			"byteOffset":531480,
			"target":34962
		},
		{
			"buffer":0,
			"byteLength":2632,
			"byteOffset":535428,
			"target":34962
		},
		{
			"buffer":0,
			"byteLength":960,
			"byteOffset":538060,
			"target":34963
		},
		{
			"buffer":0,
			"byteLength":312,
			"byteOffset":539020,
			"target":34962
		},
		{
			"buffer":0,
			"byteLength":312,
			"byteOffset":539332,
			"target":34962
		},
		{
			"buffer":0,
			"byteLength":208,
			"byteOffset":539644,
			"target":34962
		},
		{
			"buffer":0,
			"byteLength":72,
			"byteOffset":539852,
			"target":34963
		},
		{
			"buffer":0,
			"byteLength":7632,
			"byteOffset":539924,
			"target":34962
		},
		{
			"buffer":0,
			"byteLength":7632,
			"byteOffset":547556,
			"target":34962
		},
		{
			"buffer":0,
			"byteLength":5088,
			"byteOffset":555188,
			"target":34962
		},
		{
			"buffer":0,
			"byteLength":1728,
			"byteOffset":560276,
			"target":34963
		},
		{
			"buffer":0,
			"byteLength":3636,
			"byteOffset":562004,
			"target":34962
		},
		{
			"buffer":0,
			"byteLength":3636,
			"byteOffset":565640,
			"target":34962
		},
		{
			"buffer":0,
			"byteLength":2424,
			"byteOffset":569276,
			"target":34962
		},
		{
			"buffer":0,
			"byteLength":960,
			"byteOffset":571700,
			"target":34963
		},
		{
			"buffer":0,
			"byteLength":288,
			"byteOffset":572660,
			"target":34962
		},
		{
			"buffer":0,
			"byteLength":288,
			"byteOffset":572948,
			"target":34962
		},
		{
			"buffer":0,
			"byteLength":192,
			"byteOffset":573236,
			"target":34962
		},
		{
			"buffer":0,
			"byteLength":72,
			"byteOffset":573428,
			"target":34963
		},
		{
			"buffer":0,
			"byteLength":7020,
			"byteOffset":573500,
			"target":34962
		},
		{
			"buffer":0,
			"byteLength":7020,
			"byteOffset":580520,
			"target":34962
		},
		{
			"buffer":0,
			"byteLength":4680,
			"byteOffset":587540,
			"target":34962
		},
		{
			"buffer":0,
			"byteLength":4680,
			"byteOffset":592220,
			"target":34962
		},
		{
			"buffer":0,
			"byteLength":4680,
			"byteOffset":596900,
			"target":34962
		},
		{
			"buffer":0,
			"byteLength":4680,
			"byteOffset":601580,
			"target":34962
		},
		{
			"buffer":0,
			"byteLength":4680,
			"byteOffset":606260,
			"target":34962
		},
		{
			"buffer":0,
			"byteLength":4680,
			"byteOffset":610940,
			"target":34962
		},
		{
			"buffer":0,
			"byteLength":4680,
			"byteOffset":615620,
			"target":34962
		},
		{
			"buffer":0,
			"byteLength":1410,
			"byteOffset":620300,
			"target":34963
		},
		{
			"buffer":0,
			"byteLength":8256,
			"byteOffset":621712,
			"target":34962
		},
		{
			"buffer":0,
			"byteLength":8256,
			"byteOffset":629968,
			"target":34962
		},
		{
			"buffer":0,
			"byteLength":5504,
			"byteOffset":638224,
			"target":34962
		},
		{
			"buffer":0,
			"byteLength":5504,
			"byteOffset":643728,
			"target":34962
		},
		{
			"buffer":0,
			"byteLength":5504,
			"byteOffset":649232,
			"target":34962
		},
		{
			"buffer":0,
			"byteLength":5504,
			"byteOffset":654736,
			"target":34962
		},
		{
			"buffer":0,
			"byteLength":5504,
			"byteOffset":660240,
			"target":34962
		},
		{
			"buffer":0,
			"byteLength":5504,
			"byteOffset":665744,
			"target":34962
		},
		{
			"buffer":0,
			"byteLength":5504,
			"byteOffset":671248,
			"target":34962
		},
		{
			"buffer":0,
			"byteLength":1854,
			"byteOffset":676752,
			"target":34963
		},
		{
			"buffer":0,
			"byteLength":288,
			"byteOffset":678608,
			"target":34962
		},
		{
			"buffer":0,
			"byteLength":288,
			"byteOffset":678896,
			"target":34962
		},
		{
			"buffer":0,
			"byteLength":192,
			"byteOffset":679184,
			"target":34962
		},
		{
			"buffer":0,
			"byteLength":72,
			"byteOffset":679376,
			"target":34963
		},
		{
			"buffer":0,
			"byteLength":576,
			"byteOffset":679448,
			"target":34962
		},
		{
			"buffer":0,
			"byteLength":576,
			"byteOffset":680024,
			"target":34962
		},
		{
			"buffer":0,
			"byteLength":384,
			"byteOffset":680600,
			"target":34962
		},
		{
			"buffer":0,
			"byteLength":144,
			"byteOffset":680984,
			"target":34963
		},
		{
			"buffer":0,
			"byteLength":576,
			"byteOffset":681128,
			"target":34962
		},
		{
			"buffer":0,
			"byteLength":576,
			"byteOffset":681704,
			"target":34962
		},
		{
			"buffer":0,
			"byteLength":384,
			"byteOffset":682280,
			"target":34962
		},
		{
			"buffer":0,
			"byteLength":480,
			"byteOffset":682664,
			"target":34962
		},
		{
			"buffer":0,
			"byteLength":480,
			"byteOffset":683144,
			"target":34962
		},
		{
			"buffer":0,
			"byteLength":320,
			"byteOffset":683624,
			"target":34962
		},
		{
			"buffer":0,
			"byteLength":120,
			"byteOffset":683944,
			"target":34963
		},
		{
			"buffer":0,
			"byteLength":5040,
			"byteOffset":684064,
			"target":34962
		},
		{
			"buffer":0,
			"byteLength":5040,
			"byteOffset":689104,
			"target":34962
		},
		{
			"buffer":0,
			"byteLength":3360,
			"byteOffset":694144,
			"target":34962
		},
		{
			"buffer":0,
			"byteLength":1416,
			"byteOffset":697504,
			"target":34963
		},
		{
			"buffer":0,
			"byteLength":288,
			"byteOffset":698920,
			"target":34962
		},
		{
			"buffer":0,
			"byteLength":288,
			"byteOffset":699208,
			"target":34962
		},
		{
			"buffer":0,
			"byteLength":192,
			"byteOffset":699496,
			"target":34962
		},
		{
			"buffer":0,
			"byteLength":192,
			"byteOffset":699688,
			"target":34962
		},
		{
			"buffer":0,
			"byteLength":192,
			"byteOffset":699880,
			"target":34962
		},
		{
			"buffer":0,
			"byteLength":72,
			"byteOffset":700072,
			"target":34963
		},
		{
			"buffer":0,
			"byteLength":288,
			"byteOffset":700144,
			"target":34962
		},
		{
			"buffer":0,
			"byteLength":288,
			"byteOffset":700432,
			"target":34962
		},
		{
			"buffer":0,
			"byteLength":192,
			"byteOffset":700720,
			"target":34962
		},
		{
			"buffer":0,
			"byteLength":192,
			"byteOffset":700912,
			"target":34962
		},
		{
			"buffer":0,
			"byteLength":192,
			"byteOffset":701104,
			"target":34962
		},
		{
			"buffer":0,
			"byteLength":72,
			"byteOffset":701296,
			"target":34963
		},
		{
			"buffer":0,
			"byteLength":3936,
			"byteOffset":701368,
			"target":34962
		},
		{
			"buffer":0,
			"byteLength":3936,
			"byteOffset":705304,
			"target":34962
		},
		{
			"buffer":0,
			"byteLength":2624,
			"byteOffset":709240,
			"target":34962
		},
		{
			"buffer":0,
			"byteLength":2624,
			"byteOffset":711864,
			"target":34962
		},
		{
			"buffer":0,
			"byteLength":2624,
			"byteOffset":714488,
			"target":34962
		},
		{
			"buffer":0,
			"byteLength":2624,
			"byteOffset":717112,
			"target":34962
		},
		{
			"buffer":0,
			"byteLength":2624,
			"byteOffset":719736,
			"target":34962
		},
		{
			"buffer":0,
			"byteLength":2624,
			"byteOffset":722360,
			"target":34962
		},
		{
			"buffer":0,
			"byteLength":2624,
			"byteOffset":724984,
			"target":34962
		},
		{
			"buffer":0,
			"byteLength":2624,
			"byteOffset":727608,
			"target":34962
		},
		{
			"buffer":0,
			"byteLength":984,
			"byteOffset":730232,
			"target":34963
		},
		{
			"buffer":0,
			"byteLength":9840,
			"byteOffset":731216,
			"target":34962
		},
		{
			"buffer":0,
			"byteLength":9840,
			"byteOffset":741056,
			"target":34962
		},
		{
			"buffer":0,
			"byteLength":6560,
			"byteOffset":750896,
			"target":34962
		},
		{
			"buffer":0,
			"byteLength":6560,
			"byteOffset":757456,
			"target":34962
		},
		{
			"buffer":0,
			"byteLength":6560,
			"byteOffset":764016,
			"target":34962
		},
		{
			"buffer":0,
			"byteLength":6560,
			"byteOffset":770576,
			"target":34962
		},
		{
			"buffer":0,
			"byteLength":6560,
			"byteOffset":777136,
			"target":34962
		},
		{
			"buffer":0,
			"byteLength":6560,
			"byteOffset":783696,
			"target":34962
		},
		{
			"buffer":0,
			"byteLength":6560,
			"byteOffset":790256,
			"target":34962
		},
		{
			"buffer":0,
			"byteLength":6560,
			"byteOffset":796816,
			"target":34962
		},
		{
			"buffer":0,
			"byteLength":2460,
			"byteOffset":803376,
			"target":34963
		},
		{
			"buffer":0,
			"byteLength":64728,
			"byteOffset":805836,
			"target":34962
		},
		{
			"buffer":0,
			"byteLength":64728,
			"byteOffset":870564,
			"target":34962
		},
		{
			"buffer":0,
			"byteLength":43152,
			"byteOffset":935292,
			"target":34962
		},
		{
			"buffer":0,
			"byteLength":43152,
			"byteOffset":978444,
			"target":34962
		},
		{
			"buffer":0,
			"byteLength":43152,
			"byteOffset":1021596,
			"target":34962
		},
		{
			"buffer":0,
			"byteLength":43152,
			"byteOffset":1064748,
			"target":34962
		},
		{
			"buffer":0,
			"byteLength":43152,
			"byteOffset":1107900,
			"target":34962
		},
		{
			"buffer":0,
			"byteLength":43152,
			"byteOffset":1151052,
			"target":34962
		},
		{
			"buffer":0,
			"byteLength":43152,
			"byteOffset":1194204,
			"target":34962
		},
		{
			"buffer":0,
			"byteLength":43152,
			"byteOffset":1237356,
			"target":34962
		},
		{
			"buffer":0,
			"byteLength":17040,
			"byteOffset":1280508,
			"target":34963
		},
		{
			"buffer":0,
			"byteLength":19008,
			"byteOffset":1297548,
			"target":34962
		},
		{
			"buffer":0,
			"byteLength":19008,
			"byteOffset":1316556,
			"target":34962
		},
		{
			"buffer":0,
			"byteLength":12672,
			"byteOffset":1335564,
			"target":34962
		},
		{
			"buffer":0,
			"byteLength":12672,
			"byteOffset":1348236,
			"target":34962
		},
		{
			"buffer":0,
			"byteLength":12672,
			"byteOffset":1360908,
			"target":34962
		},
		{
			"buffer":0,
			"byteLength":12672,
			"byteOffset":1373580,
			"target":34962
		},
		{
			"buffer":0,
			"byteLength":12672,
			"byteOffset":1386252,
			"target":34962
		},
		{
			"buffer":0,
			"byteLength":12672,
			"byteOffset":1398924,
			"target":34962
		},
		{
			"buffer":0,
			"byteLength":12672,
			"byteOffset":1411596,
			"target":34962
		},
		{
			"buffer":0,
			"byteLength":12672,
			"byteOffset":1424268,
			"target":34962
		},
		{
			"buffer":0,
			"byteLength":4728,
			"byteOffset":1436940,
			"target":34963
		},
		{
			"buffer":0,
			"byteLength":5520,
			"byteOffset":1441668,
			"target":34962
		},
		{
			"buffer":0,
			"byteLength":5520,
			"byteOffset":1447188,
			"target":34962
		},
		{
			"buffer":0,
			"byteLength":3680,
			"byteOffset":1452708,
			"target":34962
		},
		{
			"buffer":0,
			"byteLength":3680,
			"byteOffset":1456388,
			"target":34962
		},
		{
			"buffer":0,
			"byteLength":3680,
			"byteOffset":1460068,
			"target":34962
		},
		{
			"buffer":0,
			"byteLength":3680,
			"byteOffset":1463748,
			"target":34962
		},
		{
			"buffer":0,
			"byteLength":3680,
			"byteOffset":1467428,
			"target":34962
		},
		{
			"buffer":0,
			"byteLength":3680,
			"byteOffset":1471108,
			"target":34962
		},
		{
			"buffer":0,
			"byteLength":3680,
			"byteOffset":1474788,
			"target":34962
		},
		{
			"buffer":0,
			"byteLength":3680,
			"byteOffset":1478468,
			"target":34962
		},
		{
			"buffer":0,
			"byteLength":1620,
			"byteOffset":1482148,
			"target":34963
		},
		{
			"buffer":0,
			"byteLength":5820,
			"byteOffset":1483768,
			"target":34962
		},
		{
			"buffer":0,
			"byteLength":5820,
			"byteOffset":1489588,
			"target":34962
		},
		{
			"buffer":0,
			"byteLength":3880,
			"byteOffset":1495408,
			"target":34962
		},
		{
			"buffer":0,
			"byteLength":3880,
			"byteOffset":1499288,
			"target":34962
		},
		{
			"buffer":0,
			"byteLength":3880,
			"byteOffset":1503168,
			"target":34962
		},
		{
			"buffer":0,
			"byteLength":3880,
			"byteOffset":1507048,
			"target":34962
		},
		{
			"buffer":0,
			"byteLength":3880,
			"byteOffset":1510928,
			"target":34962
		},
		{
			"buffer":0,
			"byteLength":3880,
			"byteOffset":1514808,
			"target":34962
		},
		{
			"buffer":0,
			"byteLength":3880,
			"byteOffset":1518688,
			"target":34962
		},
		{
			"buffer":0,
			"byteLength":3880,
			"byteOffset":1522568,
			"target":34962
		},
		{
			"buffer":0,
			"byteLength":1620,
			"byteOffset":1526448,
			"target":34963
		},
		{
			"buffer":0,
			"byteLength":156,
			"byteOffset":1528068,
			"target":34962
		},
		{
			"buffer":0,
			"byteLength":156,
			"byteOffset":1528224,
			"target":34962
		},
		{
			"buffer":0,
			"byteLength":104,
			"byteOffset":1528380,
			"target":34962
		},
		{
			"buffer":0,
			"byteLength":104,
			"byteOffset":1528484,
			"target":34962
		},
		{
			"buffer":0,
			"byteLength":104,
			"byteOffset":1528588,
			"target":34962
		},
		{
			"buffer":0,
			"byteLength":104,
			"byteOffset":1528692,
			"target":34962
		},
		{
			"buffer":0,
			"byteLength":104,
			"byteOffset":1528796,
			"target":34962
		},
		{
			"buffer":0,
			"byteLength":104,
			"byteOffset":1528900,
			"target":34962
		},
		{
			"buffer":0,
			"byteLength":104,
			"byteOffset":1529004,
			"target":34962
		},
		{
			"buffer":0,
			"byteLength":104,
			"byteOffset":1529108,
			"target":34962
		},
		{
			"buffer":0,
			"byteLength":42,
			"byteOffset":1529212,
			"target":34963
		},
		{
			"buffer":0,
			"byteLength":2268,
			"byteOffset":1529256,
			"target":34962
		},
		{
			"buffer":0,
			"byteLength":2268,
			"byteOffset":1531524,
			"target":34962
		},
		{
			"buffer":0,
			"byteLength":1512,
			"byteOffset":1533792,
			"target":34962
		},
		{
			"buffer":0,
			"byteLength":984,
			"byteOffset":1535304,
			"target":34963
		},
		{
			"buffer":0,
			"byteLength":1200,
			"byteOffset":1536288,
			"target":34962
		},
		{
			"buffer":0,
			"byteLength":1200,
			"byteOffset":1537488,
			"target":34962
		},
		{
			"buffer":0,
			"byteLength":800,
			"byteOffset":1538688,
			"target":34962
		},
		{
			"buffer":0,
			"byteLength":240,
			"byteOffset":1539488,
			"target":34963
		}
	],
	"samplers":[
		{
			"magFilter":9729,
			"minFilter":9987
		},
		{
			"magFilter":9729,
			"minFilter":9987,
			"wrapS":33071,
			"wrapT":33071
		}
	],
	"buffers":[
		{
			"byteLength":1539728,
			"uri":"building1.bin"
		}
	]
}
