{
	"asset":{
		"generator":"Khronos glTF Blender I/O v4.2.70",
		"version":"2.0"
	},
	"extensionsUsed":[
		"KHR_materials_transmission",
		"KHR_texture_transform"
	],
	"extensionsRequired":[
		"KHR_texture_transform"
	],
	"scene":0,
	"scenes":[
		{
			"name":"Scene",
			"nodes":[
				0,
				1,
				2,
				3,
				4,
				5,
				6,
				7,
				8,
				9,
				10,
				11,
				12,
				13,
				14,
				15,
				16
			]
		}
	],
	"nodes":[
		{
			"mesh":0,
			"name":"Object_67.005",
			"scale":[
				1,
				1.4863853454589844,
				1
			],
			"translation":[
				-52.41935729980469,
				35.99891662597656,
				103.68052673339844
			]
		},
		{
			"mesh":1,
			"name":"Object_79.003",
			"scale":[
				1,
				1.4863853454589844,
				1
			],
			"translation":[
				-65.02098083496094,
				104.44976043701172,
				78.66280364990234
			]
		},
		{
			"mesh":2,
			"name":"Object_79.004",
			"scale":[
				1,
				1.4863853454589844,
				1
			],
			"translation":[
				-51.43401336669922,
				104.32303619384766,
				81.99243927001953
			]
		},
		{
			"mesh":3,
			"name":"Object_81.013",
			"scale":[
				1,
				1.4863853454589844,
				1
			],
			"translation":[
				-72.4832992553711,
				102.7717056274414,
				94.28327941894531
			]
		},
		{
			"mesh":4,
			"name":"Object_81.014",
			"scale":[
				1,
				1.4863853454589844,
				1
			],
			"translation":[
				-71.16160583496094,
				103.27515411376953,
				81.56779479980469
			]
		},
		{
			"mesh":5,
			"name":"Object_81.015",
			"scale":[
				1,
				1.4863853454589844,
				1
			],
			"translation":[
				-56.645469665527344,
				102.78772735595703,
				91.32115173339844
			]
		},
		{
			"mesh":6,
			"name":"Object_81.016",
			"rotation":[
				0,
				-1,
				0,
				4.371138828673793e-08
			],
			"scale":[
				1,
				1.4863853454589844,
				1
			],
			"translation":[
				-51.502506256103516,
				37.697418212890625,
				108.4105224609375
			]
		},
		{
			"mesh":7,
			"name":"Object_87.003",
			"scale":[
				1,
				1.4863853454589844,
				1
			],
			"translation":[
				-74.8193588256836,
				36.25236511230469,
				106.75394439697266
			]
		},
		{
			"mesh":8,
			"name":"Object_87.004",
			"scale":[
				1,
				1.4863853454589844,
				1
			],
			"translation":[
				-66.65299987792969,
				103.14986419677734,
				92.24577331542969
			]
		},
		{
			"mesh":9,
			"name":"Object_87.005",
			"scale":[
				1,
				1.4863853454589844,
				1
			],
			"translation":[
				-63.85428237915039,
				103.16170501708984,
				88.04999542236328
			]
		},
		{
			"mesh":10,
			"name":"Object_87.006",
			"scale":[
				1,
				1.4863853454589844,
				1
			],
			"translation":[
				-68.6307144165039,
				102.91265106201172,
				85.41544342041016
			]
		},
		{
			"mesh":11,
			"name":"Object_91.012",
			"scale":[
				1,
				1.4863853454589844,
				1
			],
			"translation":[
				-71.3013916015625,
				103.06177520751953,
				78.2603759765625
			]
		},
		{
			"mesh":12,
			"name":"Object_91.013",
			"scale":[
				1,
				1.4863853454589844,
				1
			],
			"translation":[
				-71.73004913330078,
				103.31807708740234,
				89.69347381591797
			]
		},
		{
			"mesh":13,
			"name":"Object_91.014",
			"scale":[
				1,
				1.4863853454589844,
				1
			],
			"translation":[
				-55.385868072509766,
				103.07199096679688,
				86.4865951538086
			]
		},
		{
			"mesh":14,
			"name":"Object_95.005",
			"scale":[
				1,
				1.4863853454589844,
				1
			],
			"translation":[
				-66.99784088134766,
				108.50074768066406,
				88.5133056640625
			]
		},
		{
			"mesh":15,
			"name":"Object_107.001",
			"scale":[
				1,
				1.4863853454589844,
				1
			],
			"translation":[
				-54.35895538330078,
				110.18034362792969,
				80.1173324584961
			]
		},
		{
			"mesh":16,
			"name":"Object_122.005",
			"scale":[
				1,
				1.4863853454589844,
				1
			],
			"translation":[
				-62.06790542602539,
				50.146339416503906,
				90.52220916748047
			]
		}
	],
	"materials":[
		{
			"doubleSided":true,
			"name":"firescape",
			"pbrMetallicRoughness":{
				"baseColorFactor":[
					0.3023209869861603,
					0.3023209869861603,
					0.3023209869861603,
					1
				],
				"roughnessFactor":0.49351200461387634
			}
		},
		{
			"doubleSided":true,
			"name":"solar",
			"pbrMetallicRoughness":{
				"baseColorTexture":{
					"index":0
				},
				"metallicFactor":0.8799999952316284,
				"roughnessFactor":0
			}
		},
		{
			"doubleSided":true,
			"name":"material",
			"normalTexture":{
				"index":1
			},
			"pbrMetallicRoughness":{
				"baseColorTexture":{
					"index":2
				},
				"metallicFactor":0,
				"roughnessFactor":0.5
			}
		},
		{
			"alphaMode":"BLEND",
			"doubleSided":true,
			"extensions":{
				"KHR_materials_transmission":{
					"transmissionFactor":1
				}
			},
			"name":"CityGenGlass.001",
			"normalTexture":{
				"index":3,
				"scale":0.20000000298023224
			},
			"pbrMetallicRoughness":{
				"baseColorFactor":[
					1,
					1,
					1,
					0.25
				],
				"metallicFactor":0,
				"roughnessFactor":0
			}
		},
		{
			"doubleSided":true,
			"name":"CityGenbasic_rough_metal_dark_.001",
			"pbrMetallicRoughness":{
				"baseColorFactor":[
					0.13662800192832947,
					0.15541599690914154,
					0.13210399448871613,
					1
				],
				"roughnessFactor":0.4942860007286072
			}
		},
		{
			"doubleSided":true,
			"name":"CityGenconcrete.001",
			"normalTexture":{
				"index":4
			},
			"pbrMetallicRoughness":{
				"baseColorTexture":{
					"index":5
				},
				"metallicFactor":0,
				"metallicRoughnessTexture":{
					"index":6
				}
			}
		},
		{
			"doubleSided":true,
			"name":"CityGenbasic_metal.001",
			"pbrMetallicRoughness":{
				"baseColorFactor":[
					0.45012399554252625,
					0.45012399554252625,
					0.45012399554252625,
					1
				],
				"roughnessFactor":0.26060399413108826
			}
		},
		{
			"doubleSided":true,
			"name":"CityGentextured_metal",
			"normalTexture":{
				"index":7
			},
			"pbrMetallicRoughness":{
				"baseColorTexture":{
					"index":8
				},
				"metallicRoughnessTexture":{
					"index":9
				}
			}
		},
		{
			"doubleSided":true,
			"name":"CityGenAC",
			"pbrMetallicRoughness":{
				"baseColorTexture":{
					"index":10
				},
				"metallicFactor":0,
				"roughnessFactor":0.5
			}
		},
		{
			"alphaMode":"BLEND",
			"doubleSided":true,
			"name":"Material.002",
			"normalTexture":{
				"index":11
			},
			"pbrMetallicRoughness":{
				"baseColorTexture":{
					"index":12
				},
				"metallicFactor":0,
				"roughnessFactor":0.5
			}
		},
		{
			"doubleSided":true,
			"name":"rooftop_tank",
			"pbrMetallicRoughness":{
				"baseColorTexture":{
					"index":13
				},
				"metallicFactor":0,
				"roughnessFactor":0.5
			}
		},
		{
			"alphaMode":"BLEND",
			"doubleSided":true,
			"name":"Material.004",
			"pbrMetallicRoughness":{
				"baseColorTexture":{
					"index":14
				},
				"metallicFactor":0,
				"roughnessFactor":0.5
			}
		},
		{
			"doubleSided":true,
			"emissiveFactor":[
				5.96045985901128e-08,
				5.96045985901128e-08,
				5.96045985901128e-08
			],
			"name":"CityGen_LR_Facades",
			"pbrMetallicRoughness":{
				"baseColorTexture":{
					"index":15
				},
				"metallicFactor":0,
				"metallicRoughnessTexture":{
					"index":16
				}
			}
		},
		{
			"doubleSided":true,
			"name":"CityGenroof.002",
			"normalTexture":{
				"index":17
			},
			"pbrMetallicRoughness":{
				"baseColorTexture":{
					"index":18
				},
				"metallicFactor":0,
				"roughnessFactor":0.5
			}
		},
		{
			"doubleSided":true,
			"name":"CityGensimple_concrete_1",
			"pbrMetallicRoughness":{
				"baseColorTexture":{
					"index":19
				},
				"metallicFactor":0,
				"metallicRoughnessTexture":{
					"index":20
				}
			}
		},
		{
			"doubleSided":true,
			"name":"CityGenroof.001",
			"normalTexture":{
				"index":21
			},
			"pbrMetallicRoughness":{
				"baseColorTexture":{
					"index":22
				},
				"metallicFactor":0,
				"roughnessFactor":0.5
			}
		},
		{
			"doubleSided":true,
			"name":"CityGen_Curb",
			"normalTexture":{
				"index":23,
				"texCoord":2
			},
			"pbrMetallicRoughness":{
				"baseColorTexture":{
					"index":24
				},
				"metallicFactor":0,
				"metallicRoughnessTexture":{
					"index":25,
					"texCoord":1
				}
			}
		},
		{
			"doubleSided":true,
			"name":"CityGenwhite_marble_tiles",
			"normalTexture":{
				"extensions":{
					"KHR_texture_transform":{
						"offset":[
							0,
							0.8333330005407333
						],
						"scale":[
							0.16666699945926666,
							0.16666699945926666
						]
					}
				},
				"index":26
			},
			"pbrMetallicRoughness":{
				"baseColorTexture":{
					"extensions":{
						"KHR_texture_transform":{
							"offset":[
								0,
								0.8333330005407333
							],
							"scale":[
								0.16666699945926666,
								0.16666699945926666
							]
						}
					},
					"index":27
				},
				"metallicFactor":0,
				"metallicRoughnessTexture":{
					"extensions":{
						"KHR_texture_transform":{
							"offset":[
								0,
								0.8333330005407333
							],
							"scale":[
								0.16666699945926666,
								0.16666699945926666
							]
						}
					},
					"index":28
				}
			}
		},
		{
			"doubleSided":true,
			"name":"CityGenroof.003",
			"normalTexture":{
				"index":29
			},
			"pbrMetallicRoughness":{
				"baseColorTexture":{
					"index":30
				},
				"metallicFactor":0,
				"roughnessFactor":0.5
			}
		},
		{
			"doubleSided":true,
			"name":"Material.001",
			"normalTexture":{
				"index":31
			},
			"pbrMetallicRoughness":{
				"baseColorFactor":[
					0.800000011920929,
					0.800000011920929,
					0.800000011920929,
					1
				],
				"roughnessFactor":0.30000001192092896
			}
		},
		{
			"doubleSided":true,
			"name":"CityGenbasic_dark_green",
			"normalTexture":{
				"index":32
			},
			"pbrMetallicRoughness":{
				"baseColorTexture":{
					"index":33
				},
				"metallicFactor":0,
				"metallicRoughnessTexture":{
					"index":34
				}
			}
		}
	],
	"meshes":[
		{
			"name":"Object_29.003",
			"primitives":[
				{
					"attributes":{
						"POSITION":0,
						"NORMAL":1,
						"TEXCOORD_0":2
					},
					"indices":3,
					"material":0
				},
				{
					"attributes":{
						"POSITION":4,
						"NORMAL":5,
						"TEXCOORD_0":6
					},
					"indices":7,
					"material":1
				}
			]
		},
		{
			"name":"Object_35.003",
			"primitives":[
				{
					"attributes":{
						"POSITION":8,
						"NORMAL":9,
						"TEXCOORD_0":10,
						"TEXCOORD_1":11,
						"TEXCOORD_2":12
					},
					"indices":13,
					"material":2
				}
			]
		},
		{
			"name":"Object_35.004",
			"primitives":[
				{
					"attributes":{
						"POSITION":14,
						"NORMAL":15,
						"TEXCOORD_0":16,
						"TEXCOORD_1":17,
						"TEXCOORD_2":18
					},
					"indices":19,
					"material":2
				}
			]
		},
		{
			"name":"Object_36.013",
			"primitives":[
				{
					"attributes":{
						"POSITION":20,
						"NORMAL":21,
						"TEXCOORD_0":22,
						"TEXCOORD_1":23,
						"TEXCOORD_2":24,
						"TEXCOORD_3":25,
						"TEXCOORD_4":26,
						"TEXCOORD_5":27,
						"TEXCOORD_6":28
					},
					"indices":29,
					"material":3
				},
				{
					"attributes":{
						"POSITION":30,
						"NORMAL":31,
						"TEXCOORD_0":32,
						"TEXCOORD_1":33,
						"TEXCOORD_2":34,
						"TEXCOORD_3":35,
						"TEXCOORD_4":36,
						"TEXCOORD_5":37,
						"TEXCOORD_6":38
					},
					"indices":39,
					"material":4
				}
			]
		},
		{
			"name":"Object_36.014",
			"primitives":[
				{
					"attributes":{
						"POSITION":40,
						"NORMAL":41,
						"TEXCOORD_0":42,
						"TEXCOORD_1":43,
						"TEXCOORD_2":44,
						"TEXCOORD_3":45,
						"TEXCOORD_4":46,
						"TEXCOORD_5":47,
						"TEXCOORD_6":48
					},
					"indices":49,
					"material":4
				},
				{
					"attributes":{
						"POSITION":50,
						"NORMAL":51,
						"TEXCOORD_0":52,
						"TEXCOORD_1":53,
						"TEXCOORD_2":54,
						"TEXCOORD_3":55,
						"TEXCOORD_4":56,
						"TEXCOORD_5":57,
						"TEXCOORD_6":58
					},
					"indices":59,
					"material":5
				}
			]
		},
		{
			"name":"Object_36.015",
			"primitives":[
				{
					"attributes":{
						"POSITION":60,
						"NORMAL":61,
						"TEXCOORD_0":62,
						"TEXCOORD_1":63,
						"TEXCOORD_2":64,
						"TEXCOORD_3":65,
						"TEXCOORD_4":66,
						"TEXCOORD_5":67,
						"TEXCOORD_6":68
					},
					"indices":69,
					"material":6
				},
				{
					"attributes":{
						"POSITION":70,
						"NORMAL":71,
						"TEXCOORD_0":72,
						"TEXCOORD_1":73,
						"TEXCOORD_2":74,
						"TEXCOORD_3":75,
						"TEXCOORD_4":76,
						"TEXCOORD_5":77,
						"TEXCOORD_6":78
					},
					"indices":79,
					"material":3
				}
			]
		},
		{
			"name":"Object_36.016",
			"primitives":[
				{
					"attributes":{
						"POSITION":80,
						"NORMAL":81,
						"TEXCOORD_0":82,
						"TEXCOORD_1":83,
						"TEXCOORD_2":84,
						"TEXCOORD_3":85,
						"TEXCOORD_4":86,
						"TEXCOORD_5":87,
						"TEXCOORD_6":88
					},
					"indices":89,
					"material":4
				},
				{
					"attributes":{
						"POSITION":90,
						"NORMAL":91,
						"TEXCOORD_0":92,
						"TEXCOORD_1":93,
						"TEXCOORD_2":94,
						"TEXCOORD_3":95,
						"TEXCOORD_4":96,
						"TEXCOORD_5":97,
						"TEXCOORD_6":98
					},
					"indices":99,
					"material":5
				}
			]
		},
		{
			"name":"Object_39.003",
			"primitives":[
				{
					"attributes":{
						"POSITION":100,
						"NORMAL":101,
						"TEXCOORD_0":102,
						"TEXCOORD_1":103,
						"TEXCOORD_2":104,
						"TEXCOORD_3":105,
						"TEXCOORD_4":106,
						"TEXCOORD_5":107,
						"TEXCOORD_6":108
					},
					"indices":109,
					"material":7
				}
			]
		},
		{
			"name":"Object_39.004",
			"primitives":[
				{
					"attributes":{
						"POSITION":110,
						"NORMAL":111,
						"TEXCOORD_0":112,
						"TEXCOORD_1":113,
						"TEXCOORD_2":114,
						"TEXCOORD_3":115,
						"TEXCOORD_4":116,
						"TEXCOORD_5":117,
						"TEXCOORD_6":118
					},
					"indices":119,
					"material":7
				}
			]
		},
		{
			"name":"Object_39.005",
			"primitives":[
				{
					"attributes":{
						"POSITION":120,
						"NORMAL":121,
						"TEXCOORD_0":122,
						"TEXCOORD_1":123,
						"TEXCOORD_2":124,
						"TEXCOORD_3":125,
						"TEXCOORD_4":126,
						"TEXCOORD_5":127,
						"TEXCOORD_6":128
					},
					"indices":129,
					"material":7
				}
			]
		},
		{
			"name":"Object_39.006",
			"primitives":[
				{
					"attributes":{
						"POSITION":130,
						"NORMAL":131,
						"TEXCOORD_0":132,
						"TEXCOORD_1":133,
						"TEXCOORD_2":134,
						"TEXCOORD_3":135,
						"TEXCOORD_4":136,
						"TEXCOORD_5":137,
						"TEXCOORD_6":138
					},
					"indices":139,
					"material":7
				}
			]
		},
		{
			"name":"Object_41.012",
			"primitives":[
				{
					"attributes":{
						"POSITION":140,
						"NORMAL":141,
						"TEXCOORD_0":142
					},
					"indices":143,
					"material":8
				}
			]
		},
		{
			"name":"Object_41.013",
			"primitives":[
				{
					"attributes":{
						"POSITION":144,
						"NORMAL":145,
						"TEXCOORD_0":146
					},
					"indices":147,
					"material":8
				}
			]
		},
		{
			"name":"Object_41.014",
			"primitives":[
				{
					"attributes":{
						"POSITION":148,
						"NORMAL":149,
						"TEXCOORD_0":150
					},
					"indices":151,
					"material":8
				}
			]
		},
		{
			"name":"Object_43.005",
			"primitives":[
				{
					"attributes":{
						"POSITION":152,
						"NORMAL":153,
						"TEXCOORD_0":154,
						"TEXCOORD_1":155,
						"TEXCOORD_2":156
					},
					"indices":157,
					"material":9
				}
			]
		},
		{
			"name":"Object_49.001",
			"primitives":[
				{
					"attributes":{
						"POSITION":158,
						"NORMAL":159,
						"TEXCOORD_0":160
					},
					"indices":161,
					"material":10
				},
				{
					"attributes":{
						"POSITION":162,
						"NORMAL":163,
						"TEXCOORD_0":164
					},
					"indices":165,
					"material":11
				}
			]
		},
		{
			"name":"Object_56.005",
			"primitives":[
				{
					"attributes":{
						"POSITION":166,
						"NORMAL":167,
						"TEXCOORD_0":168,
						"TEXCOORD_1":169,
						"TEXCOORD_2":170,
						"TEXCOORD_3":171,
						"TEXCOORD_4":172,
						"TEXCOORD_5":173,
						"TEXCOORD_6":174
					},
					"indices":175,
					"material":12
				},
				{
					"attributes":{
						"POSITION":176,
						"NORMAL":177,
						"TEXCOORD_0":178,
						"TEXCOORD_1":179,
						"TEXCOORD_2":180,
						"TEXCOORD_3":181,
						"TEXCOORD_4":182,
						"TEXCOORD_5":183,
						"TEXCOORD_6":184
					},
					"indices":185,
					"material":13
				},
				{
					"attributes":{
						"POSITION":186,
						"NORMAL":187,
						"TEXCOORD_0":188,
						"TEXCOORD_1":189,
						"TEXCOORD_2":190,
						"TEXCOORD_3":191,
						"TEXCOORD_4":192,
						"TEXCOORD_5":193,
						"TEXCOORD_6":194
					},
					"indices":195,
					"material":14
				},
				{
					"attributes":{
						"POSITION":196,
						"NORMAL":197,
						"TEXCOORD_0":198,
						"TEXCOORD_1":199,
						"TEXCOORD_2":200,
						"TEXCOORD_3":201,
						"TEXCOORD_4":202,
						"TEXCOORD_5":203,
						"TEXCOORD_6":204
					},
					"indices":205,
					"material":15
				},
				{
					"attributes":{
						"POSITION":206,
						"NORMAL":207,
						"TEXCOORD_0":208,
						"TEXCOORD_1":209,
						"TEXCOORD_2":210,
						"TEXCOORD_3":211,
						"TEXCOORD_4":212,
						"TEXCOORD_5":213,
						"TEXCOORD_6":214
					},
					"indices":215,
					"material":16
				},
				{
					"attributes":{
						"POSITION":216,
						"NORMAL":217,
						"TEXCOORD_0":218,
						"TEXCOORD_1":219,
						"TEXCOORD_2":220,
						"TEXCOORD_3":221,
						"TEXCOORD_4":222,
						"TEXCOORD_5":223,
						"TEXCOORD_6":224
					},
					"indices":225,
					"material":17
				},
				{
					"attributes":{
						"POSITION":226,
						"NORMAL":227,
						"TEXCOORD_0":228,
						"TEXCOORD_1":229,
						"TEXCOORD_2":230,
						"TEXCOORD_3":231,
						"TEXCOORD_4":232,
						"TEXCOORD_5":233,
						"TEXCOORD_6":234
					},
					"indices":235,
					"material":18
				},
				{
					"attributes":{
						"POSITION":236,
						"NORMAL":237,
						"TEXCOORD_0":238,
						"TEXCOORD_1":239,
						"TEXCOORD_2":240,
						"TEXCOORD_3":241,
						"TEXCOORD_4":242,
						"TEXCOORD_5":243,
						"TEXCOORD_6":244
					},
					"indices":245,
					"material":19
				},
				{
					"attributes":{
						"POSITION":246,
						"NORMAL":247,
						"TEXCOORD_0":248,
						"TEXCOORD_1":249,
						"TEXCOORD_2":250,
						"TEXCOORD_3":251,
						"TEXCOORD_4":252,
						"TEXCOORD_5":253,
						"TEXCOORD_6":254
					},
					"indices":255,
					"material":20
				}
			]
		}
	],
	"textures":[
		{
			"sampler":0,
			"source":0
		},
		{
			"sampler":0,
			"source":1
		},
		{
			"sampler":0,
			"source":2
		},
		{
			"sampler":0,
			"source":3
		},
		{
			"sampler":0,
			"source":4
		},
		{
			"sampler":0,
			"source":5
		},
		{
			"sampler":0,
			"source":6
		},
		{
			"sampler":0,
			"source":7
		},
		{
			"sampler":0,
			"source":8
		},
		{
			"sampler":0,
			"source":9
		},
		{
			"sampler":0,
			"source":10
		},
		{
			"sampler":0,
			"source":11
		},
		{
			"sampler":0,
			"source":12
		},
		{
			"sampler":0,
			"source":13
		},
		{
			"sampler":0,
			"source":14
		},
		{
			"sampler":1,
			"source":15
		},
		{
			"sampler":0,
			"source":16
		},
		{
			"sampler":0,
			"source":17
		},
		{
			"sampler":0,
			"source":18
		},
		{
			"sampler":0,
			"source":19
		},
		{
			"sampler":0,
			"source":20
		},
		{
			"sampler":0,
			"source":21
		},
		{
			"sampler":0,
			"source":22
		},
		{
			"sampler":0,
			"source":23
		},
		{
			"sampler":0,
			"source":24
		},
		{
			"sampler":0,
			"source":25
		},
		{
			"sampler":0,
			"source":26
		},
		{
			"sampler":0,
			"source":27
		},
		{
			"sampler":0,
			"source":28
		},
		{
			"sampler":0,
			"source":29
		},
		{
			"sampler":0,
			"source":30
		},
		{
			"sampler":0,
			"source":31
		},
		{
			"sampler":0,
			"source":32
		},
		{
			"sampler":0,
			"source":33
		},
		{
			"sampler":0,
			"source":34
		}
	],
	"images":[
		{
			"mimeType":"image/jpeg",
			"name":"Image_61",
			"uri":"../textures/Image_61.jpg"
		},
		{
			"mimeType":"image/jpeg",
			"name":"Image_47",
			"uri":"../textures/Image_47.jpg"
		},
		{
			"mimeType":"image/jpeg",
			"name":"Image_46",
			"uri":"../textures/Image_46.jpg"
		},
		{
			"mimeType":"image/jpeg",
			"name":"Image_48",
			"uri":"../textures/Image_48.jpg"
		},
		{
			"mimeType":"image/jpeg",
			"name":"Image_60",
			"uri":"../textures/Image_60.jpg"
		},
		{
			"mimeType":"image/jpeg",
			"name":"Image_58",
			"uri":"../textures/Image_58.jpg"
		},
		{
			"mimeType":"image/png",
			"name":"Image_59",
			"uri":"../textures/Image_59.png"
		},
		{
			"mimeType":"image/jpeg",
			"name":"Image_52",
			"uri":"../textures/Image_52.jpg"
		},
		{
			"mimeType":"image/jpeg",
			"name":"Image_50",
			"uri":"../textures/Image_50.jpg"
		},
		{
			"mimeType":"image/png",
			"name":"Image_51",
			"uri":"../textures/Image_51.png"
		},
		{
			"mimeType":"image/jpeg",
			"name":"Image_53",
			"uri":"../textures/Image_53.jpg"
		},
		{
			"mimeType":"image/jpeg",
			"name":"Image_56",
			"uri":"../textures/Image_56.jpg"
		},
		{
			"mimeType":"image/png",
			"name":"Image_55",
			"uri":"../textures/Image_55.png"
		},
		{
			"mimeType":"image/jpeg",
			"name":"Image_62",
			"uri":"../textures/Image_62.jpg"
		},
		{
			"mimeType":"image/png",
			"name":"Image_63",
			"uri":"../textures/Image_63.png"
		},
		{
			"mimeType":"image/jpeg",
			"name":"Image_37",
			"uri":"../textures/Image_37.jpg"
		},
		{
			"mimeType":"image/png",
			"name":"Image_38",
			"uri":"../textures/Image_38.png"
		},
		{
			"mimeType":"image/jpeg",
			"name":"Image_33",
			"uri":"../textures/Image_33.jpg"
		},
		{
			"mimeType":"image/jpeg",
			"name":"Image_32",
			"uri":"../textures/Image_32.jpg"
		},
		{
			"mimeType":"image/jpeg",
			"name":"Image_39",
			"uri":"../textures/Image_39.jpg"
		},
		{
			"mimeType":"image/png",
			"name":"Image_40",
			"uri":"../textures/Image_40.png"
		},
		{
			"mimeType":"image/jpeg",
			"name":"Image_31",
			"uri":"../textures/Image_31.jpg"
		},
		{
			"mimeType":"image/jpeg",
			"name":"Image_30",
			"uri":"../textures/Image_30.jpg"
		},
		{
			"mimeType":"image/jpeg",
			"name":"Image_11",
			"uri":"../textures/Image_11.jpg"
		},
		{
			"mimeType":"image/jpeg",
			"name":"Image_9",
			"uri":"../textures/Image_9.jpg"
		},
		{
			"mimeType":"image/png",
			"name":"Image_10",
			"uri":"../textures/Image_10.png"
		},
		{
			"mimeType":"image/jpeg",
			"name":"Image_45",
			"uri":"../textures/Image_45.jpg"
		},
		{
			"mimeType":"image/jpeg",
			"name":"Image_43",
			"uri":"../textures/Image_43.jpg"
		},
		{
			"mimeType":"image/png",
			"name":"Image_44",
			"uri":"../textures/Image_44.png"
		},
		{
			"mimeType":"image/jpeg",
			"name":"Image_35",
			"uri":"../textures/Image_35.jpg"
		},
		{
			"mimeType":"image/jpeg",
			"name":"Image_34",
			"uri":"../textures/Image_34.jpg"
		},
		{
			"mimeType":"image/jpeg",
			"name":"Image_36",
			"uri":"../textures/Image_36.jpg"
		},
		{
			"mimeType":"image/jpeg",
			"name":"Image_2",
			"uri":"../textures/Image_2.jpg"
		},
		{
			"mimeType":"image/jpeg",
			"name":"Image_0",
			"uri":"../textures/Image_0.jpg"
		},
		{
			"mimeType":"image/png",
			"name":"Image_1",
			"uri":"../textures/Image_1.png"
		}
	],
	"accessors":[
		{
			"bufferView":0,
			"componentType":5126,
			"count":36,
			"max":[
				0.8755166530609131,
				0.11854800581932068,
				2.645554780960083
			],
			"min":[
				-1.1118797063827515,
				-0.18622912466526031,
				-2.645552396774292
			],
			"type":"VEC3"
		},
		{
			"bufferView":1,
			"componentType":5126,
			"count":36,
			"type":"VEC3"
		},
		{
			"bufferView":2,
			"componentType":5126,
			"count":36,
			"type":"VEC2"
		},
		{
			"bufferView":3,
			"componentType":5123,
			"count":54,
			"type":"SCALAR"
		},
		{
			"bufferView":4,
			"componentType":5126,
			"count":36,
			"max":[
				1.3558250665664673,
				0.20835362374782562,
				2.6335384845733643
			],
			"min":[
				-1.2564185857772827,
				-0.17988909780979156,
				-2.6335437297821045
			],
			"type":"VEC3"
		},
		{
			"bufferView":5,
			"componentType":5126,
			"count":36,
			"type":"VEC3"
		},
		{
			"bufferView":6,
			"componentType":5126,
			"count":36,
			"type":"VEC2"
		},
		{
			"bufferView":7,
			"componentType":5123,
			"count":54,
			"type":"SCALAR"
		},
		{
			"bufferView":8,
			"componentType":5126,
			"count":24,
			"max":[
				0.9288711547851562,
				1.3387603759765625,
				1.3387603759765625
			],
			"min":[
				-0.9288711547851562,
				-1.3387603759765625,
				-1.3387603759765625
			],
			"type":"VEC3"
		},
		{
			"bufferView":9,
			"componentType":5126,
			"count":24,
			"type":"VEC3"
		},
		{
			"bufferView":10,
			"componentType":5126,
			"count":24,
			"type":"VEC2"
		},
		{
			"bufferView":11,
			"componentType":5126,
			"count":24,
			"type":"VEC2"
		},
		{
			"bufferView":12,
			"componentType":5126,
			"count":24,
			"type":"VEC2"
		},
		{
			"bufferView":13,
			"componentType":5123,
			"count":36,
			"type":"SCALAR"
		},
		{
			"bufferView":14,
			"componentType":5126,
			"count":24,
			"max":[
				1.2534980773925781,
				1.2534980773925781,
				0.8697128295898438
			],
			"min":[
				-1.2534980773925781,
				-1.2534980773925781,
				-0.8697128295898438
			],
			"type":"VEC3"
		},
		{
			"bufferView":15,
			"componentType":5126,
			"count":24,
			"type":"VEC3"
		},
		{
			"bufferView":16,
			"componentType":5126,
			"count":24,
			"type":"VEC2"
		},
		{
			"bufferView":17,
			"componentType":5126,
			"count":24,
			"type":"VEC2"
		},
		{
			"bufferView":18,
			"componentType":5126,
			"count":24,
			"type":"VEC2"
		},
		{
			"bufferView":19,
			"componentType":5123,
			"count":36,
			"type":"SCALAR"
		},
		{
			"bufferView":20,
			"componentType":5126,
			"count":48,
			"max":[
				0.5700414180755615,
				0.16434608399868011,
				0.9723984003067017
			],
			"min":[
				-0.3958246111869812,
				-0.11029686778783798,
				-0.9723953008651733
			],
			"type":"VEC3"
		},
		{
			"bufferView":21,
			"componentType":5126,
			"count":48,
			"type":"VEC3"
		},
		{
			"bufferView":22,
			"componentType":5126,
			"count":48,
			"type":"VEC2"
		},
		{
			"bufferView":23,
			"componentType":5126,
			"count":48,
			"type":"VEC2"
		},
		{
			"bufferView":24,
			"componentType":5126,
			"count":48,
			"type":"VEC2"
		},
		{
			"bufferView":25,
			"componentType":5126,
			"count":48,
			"type":"VEC2"
		},
		{
			"bufferView":26,
			"componentType":5126,
			"count":48,
			"type":"VEC2"
		},
		{
			"bufferView":27,
			"componentType":5126,
			"count":48,
			"type":"VEC2"
		},
		{
			"bufferView":28,
			"componentType":5126,
			"count":48,
			"type":"VEC2"
		},
		{
			"bufferView":29,
			"componentType":5123,
			"count":72,
			"type":"SCALAR"
		},
		{
			"bufferView":30,
			"componentType":5126,
			"count":498,
			"max":[
				0.5895345211029053,
				0.18810401856899261,
				1.003289818763733
			],
			"min":[
				-0.41374605894088745,
				-0.20981468260288239,
				-1.0032867193222046
			],
			"type":"VEC3"
		},
		{
			"bufferView":31,
			"componentType":5126,
			"count":498,
			"type":"VEC3"
		},
		{
			"bufferView":32,
			"componentType":5126,
			"count":498,
			"type":"VEC2"
		},
		{
			"bufferView":33,
			"componentType":5126,
			"count":498,
			"type":"VEC2"
		},
		{
			"bufferView":34,
			"componentType":5126,
			"count":498,
			"type":"VEC2"
		},
		{
			"bufferView":35,
			"componentType":5126,
			"count":498,
			"type":"VEC2"
		},
		{
			"bufferView":36,
			"componentType":5126,
			"count":498,
			"type":"VEC2"
		},
		{
			"bufferView":37,
			"componentType":5126,
			"count":498,
			"type":"VEC2"
		},
		{
			"bufferView":38,
			"componentType":5126,
			"count":498,
			"type":"VEC2"
		},
		{
			"bufferView":39,
			"componentType":5123,
			"count":858,
			"type":"SCALAR"
		},
		{
			"bufferView":40,
			"componentType":5126,
			"count":138,
			"max":[
				1.0669529438018799,
				0.8670694231987,
				0.5764909982681274
			],
			"min":[
				-1.0675456523895264,
				-0.4259374737739563,
				-0.9613889455795288
			],
			"type":"VEC3"
		},
		{
			"bufferView":41,
			"componentType":5126,
			"count":138,
			"type":"VEC3"
		},
		{
			"bufferView":42,
			"componentType":5126,
			"count":138,
			"type":"VEC2"
		},
		{
			"bufferView":43,
			"componentType":5126,
			"count":138,
			"type":"VEC2"
		},
		{
			"bufferView":44,
			"componentType":5126,
			"count":138,
			"type":"VEC2"
		},
		{
			"bufferView":45,
			"componentType":5126,
			"count":138,
			"type":"VEC2"
		},
		{
			"bufferView":46,
			"componentType":5126,
			"count":138,
			"type":"VEC2"
		},
		{
			"bufferView":47,
			"componentType":5126,
			"count":138,
			"type":"VEC2"
		},
		{
			"bufferView":48,
			"componentType":5126,
			"count":138,
			"type":"VEC2"
		},
		{
			"bufferView":49,
			"componentType":5123,
			"count":192,
			"type":"SCALAR"
		},
		{
			"bufferView":50,
			"componentType":5126,
			"count":551,
			"max":[
				1.0669529438018799,
				0.4430505633354187,
				0.6420427560806274
			],
			"min":[
				-1.2523219585418701,
				-0.54851895570755,
				-0.9581769704818726
			],
			"type":"VEC3"
		},
		{
			"bufferView":51,
			"componentType":5126,
			"count":551,
			"type":"VEC3"
		},
		{
			"bufferView":52,
			"componentType":5126,
			"count":551,
			"type":"VEC2"
		},
		{
			"bufferView":53,
			"componentType":5126,
			"count":551,
			"type":"VEC2"
		},
		{
			"bufferView":54,
			"componentType":5126,
			"count":551,
			"type":"VEC2"
		},
		{
			"bufferView":55,
			"componentType":5126,
			"count":551,
			"type":"VEC2"
		},
		{
			"bufferView":56,
			"componentType":5126,
			"count":551,
			"type":"VEC2"
		},
		{
			"bufferView":57,
			"componentType":5126,
			"count":551,
			"type":"VEC2"
		},
		{
			"bufferView":58,
			"componentType":5126,
			"count":551,
			"type":"VEC2"
		},
		{
			"bufferView":59,
			"componentType":5123,
			"count":966,
			"type":"SCALAR"
		},
		{
			"bufferView":60,
			"componentType":5126,
			"count":448,
			"max":[
				1.627349853515625,
				0.42536020278930664,
				0.76806640625
			],
			"min":[
				-1.627349853515625,
				-0.22059011459350586,
				-0.76806640625
			],
			"type":"VEC3"
		},
		{
			"bufferView":61,
			"componentType":5126,
			"count":448,
			"type":"VEC3"
		},
		{
			"bufferView":62,
			"componentType":5126,
			"count":448,
			"type":"VEC2"
		},
		{
			"bufferView":63,
			"componentType":5126,
			"count":448,
			"type":"VEC2"
		},
		{
			"bufferView":64,
			"componentType":5126,
			"count":448,
			"type":"VEC2"
		},
		{
			"bufferView":65,
			"componentType":5126,
			"count":448,
			"type":"VEC2"
		},
		{
			"bufferView":66,
			"componentType":5126,
			"count":448,
			"type":"VEC2"
		},
		{
			"bufferView":67,
			"componentType":5126,
			"count":448,
			"type":"VEC2"
		},
		{
			"bufferView":68,
			"componentType":5126,
			"count":448,
			"type":"VEC2"
		},
		{
			"bufferView":69,
			"componentType":5123,
			"count":708,
			"type":"SCALAR"
		},
		{
			"bufferView":70,
			"componentType":5126,
			"count":40,
			"max":[
				1.5086631774902344,
				0.38742685317993164,
				0.649383544921875
			],
			"min":[
				-1.5086631774902344,
				0.08128976076841354,
				-0.649383544921875
			],
			"type":"VEC3"
		},
		{
			"bufferView":71,
			"componentType":5126,
			"count":40,
			"type":"VEC3"
		},
		{
			"bufferView":72,
			"componentType":5126,
			"count":40,
			"type":"VEC2"
		},
		{
			"bufferView":73,
			"componentType":5126,
			"count":40,
			"type":"VEC2"
		},
		{
			"bufferView":74,
			"componentType":5126,
			"count":40,
			"type":"VEC2"
		},
		{
			"bufferView":75,
			"componentType":5126,
			"count":40,
			"type":"VEC2"
		},
		{
			"bufferView":76,
			"componentType":5126,
			"count":40,
			"type":"VEC2"
		},
		{
			"bufferView":77,
			"componentType":5126,
			"count":40,
			"type":"VEC2"
		},
		{
			"bufferView":78,
			"componentType":5126,
			"count":40,
			"type":"VEC2"
		},
		{
			"bufferView":79,
			"componentType":5123,
			"count":60,
			"type":"SCALAR"
		},
		{
			"bufferView":80,
			"componentType":5126,
			"count":207,
			"max":[
				2.5555901527404785,
				2.0795187950134277,
				2.2924399375915527
			],
			"min":[
				-2.5811667442321777,
				-1.0321564674377441,
				-1.4085334539413452
			],
			"type":"VEC3"
		},
		{
			"bufferView":81,
			"componentType":5126,
			"count":207,
			"type":"VEC3"
		},
		{
			"bufferView":82,
			"componentType":5126,
			"count":207,
			"type":"VEC2"
		},
		{
			"bufferView":83,
			"componentType":5126,
			"count":207,
			"type":"VEC2"
		},
		{
			"bufferView":84,
			"componentType":5126,
			"count":207,
			"type":"VEC2"
		},
		{
			"bufferView":85,
			"componentType":5126,
			"count":207,
			"type":"VEC2"
		},
		{
			"bufferView":86,
			"componentType":5126,
			"count":207,
			"type":"VEC2"
		},
		{
			"bufferView":87,
			"componentType":5126,
			"count":207,
			"type":"VEC2"
		},
		{
			"bufferView":88,
			"componentType":5126,
			"count":207,
			"type":"VEC2"
		},
		{
			"bufferView":89,
			"componentType":5123,
			"count":267,
			"type":"SCALAR"
		},
		{
			"bufferView":90,
			"componentType":5126,
			"count":864,
			"max":[
				3.0002694129943848,
				1.05910062789917,
				2.284696102142334
			],
			"min":[
				-2.5811667442321777,
				-1.327150821685791,
				-1.5662940740585327
			],
			"type":"VEC3"
		},
		{
			"bufferView":91,
			"componentType":5126,
			"count":864,
			"type":"VEC3"
		},
		{
			"bufferView":92,
			"componentType":5126,
			"count":864,
			"type":"VEC2"
		},
		{
			"bufferView":93,
			"componentType":5126,
			"count":864,
			"type":"VEC2"
		},
		{
			"bufferView":94,
			"componentType":5126,
			"count":864,
			"type":"VEC2"
		},
		{
			"bufferView":95,
			"componentType":5126,
			"count":864,
			"type":"VEC2"
		},
		{
			"bufferView":96,
			"componentType":5126,
			"count":864,
			"type":"VEC2"
		},
		{
			"bufferView":97,
			"componentType":5126,
			"count":864,
			"type":"VEC2"
		},
		{
			"bufferView":98,
			"componentType":5126,
			"count":864,
			"type":"VEC2"
		},
		{
			"bufferView":99,
			"componentType":5123,
			"count":1554,
			"type":"SCALAR"
		},
		{
			"bufferView":100,
			"componentType":5126,
			"count":477,
			"max":[
				1.7943471670150757,
				0.3482094407081604,
				0.389912486076355
			],
			"min":[
				-1.7939401865005493,
				-0.39127153158187866,
				-0.39279472827911377
			],
			"type":"VEC3"
		},
		{
			"bufferView":101,
			"componentType":5126,
			"count":477,
			"type":"VEC3"
		},
		{
			"bufferView":102,
			"componentType":5126,
			"count":477,
			"type":"VEC2"
		},
		{
			"bufferView":103,
			"componentType":5126,
			"count":477,
			"type":"VEC2"
		},
		{
			"bufferView":104,
			"componentType":5126,
			"count":477,
			"type":"VEC2"
		},
		{
			"bufferView":105,
			"componentType":5126,
			"count":477,
			"type":"VEC2"
		},
		{
			"bufferView":106,
			"componentType":5126,
			"count":477,
			"type":"VEC2"
		},
		{
			"bufferView":107,
			"componentType":5126,
			"count":477,
			"type":"VEC2"
		},
		{
			"bufferView":108,
			"componentType":5126,
			"count":477,
			"type":"VEC2"
		},
		{
			"bufferView":109,
			"componentType":5123,
			"count":711,
			"type":"SCALAR"
		},
		{
			"bufferView":110,
			"componentType":5126,
			"count":588,
			"max":[
				0.4634341597557068,
				0.4134295582771301,
				2.1298861503601074
			],
			"min":[
				-0.4657345414161682,
				-0.4644314646720886,
				-2.129856586456299
			],
			"type":"VEC3"
		},
		{
			"bufferView":111,
			"componentType":5126,
			"count":588,
			"type":"VEC3"
		},
		{
			"bufferView":112,
			"componentType":5126,
			"count":588,
			"type":"VEC2"
		},
		{
			"bufferView":113,
			"componentType":5126,
			"count":588,
			"type":"VEC2"
		},
		{
			"bufferView":114,
			"componentType":5126,
			"count":588,
			"type":"VEC2"
		},
		{
			"bufferView":115,
			"componentType":5126,
			"count":588,
			"type":"VEC2"
		},
		{
			"bufferView":116,
			"componentType":5126,
			"count":588,
			"type":"VEC2"
		},
		{
			"bufferView":117,
			"componentType":5126,
			"count":588,
			"type":"VEC2"
		},
		{
			"bufferView":118,
			"componentType":5126,
			"count":588,
			"type":"VEC2"
		},
		{
			"bufferView":119,
			"componentType":5123,
			"count":828,
			"type":"SCALAR"
		},
		{
			"bufferView":120,
			"componentType":5126,
			"count":588,
			"max":[
				0.471382737159729,
				0.4205167293548584,
				2.166433811187744
			],
			"min":[
				-0.47372758388519287,
				-0.4723970890045166,
				-2.166390895843506
			],
			"type":"VEC3"
		},
		{
			"bufferView":121,
			"componentType":5126,
			"count":588,
			"type":"VEC3"
		},
		{
			"bufferView":122,
			"componentType":5126,
			"count":588,
			"type":"VEC2"
		},
		{
			"bufferView":123,
			"componentType":5126,
			"count":588,
			"type":"VEC2"
		},
		{
			"bufferView":124,
			"componentType":5126,
			"count":588,
			"type":"VEC2"
		},
		{
			"bufferView":125,
			"componentType":5126,
			"count":588,
			"type":"VEC2"
		},
		{
			"bufferView":126,
			"componentType":5126,
			"count":588,
			"type":"VEC2"
		},
		{
			"bufferView":127,
			"componentType":5126,
			"count":588,
			"type":"VEC2"
		},
		{
			"bufferView":128,
			"componentType":5126,
			"count":588,
			"type":"VEC2"
		},
		{
			"bufferView":129,
			"componentType":5123,
			"count":828,
			"type":"SCALAR"
		},
		{
			"bufferView":130,
			"componentType":5126,
			"count":417,
			"max":[
				1.3959410190582275,
				0.270733118057251,
				0.3039846420288086
			],
			"min":[
				-1.3966233730316162,
				-0.304767370223999,
				-0.3051462173461914
			],
			"type":"VEC3"
		},
		{
			"bufferView":131,
			"componentType":5126,
			"count":417,
			"type":"VEC3"
		},
		{
			"bufferView":132,
			"componentType":5126,
			"count":417,
			"type":"VEC2"
		},
		{
			"bufferView":133,
			"componentType":5126,
			"count":417,
			"type":"VEC2"
		},
		{
			"bufferView":134,
			"componentType":5126,
			"count":417,
			"type":"VEC2"
		},
		{
			"bufferView":135,
			"componentType":5126,
			"count":417,
			"type":"VEC2"
		},
		{
			"bufferView":136,
			"componentType":5126,
			"count":417,
			"type":"VEC2"
		},
		{
			"bufferView":137,
			"componentType":5126,
			"count":417,
			"type":"VEC2"
		},
		{
			"bufferView":138,
			"componentType":5126,
			"count":417,
			"type":"VEC2"
		},
		{
			"bufferView":139,
			"componentType":5123,
			"count":651,
			"type":"SCALAR"
		},
		{
			"bufferView":140,
			"componentType":5126,
			"count":266,
			"max":[
				0.6688984036445618,
				0.6504678726196289,
				0.6026471853256226
			],
			"min":[
				-0.9580928683280945,
				-0.4049597382545471,
				-0.5851122140884399
			],
			"type":"VEC3"
		},
		{
			"bufferView":141,
			"componentType":5126,
			"count":266,
			"type":"VEC3"
		},
		{
			"bufferView":142,
			"componentType":5126,
			"count":266,
			"type":"VEC2"
		},
		{
			"bufferView":143,
			"componentType":5123,
			"count":426,
			"type":"SCALAR"
		},
		{
			"bufferView":144,
			"componentType":5126,
			"count":593,
			"max":[
				0.860113263130188,
				0.9279082417488098,
				1.3679479360580444
			],
			"min":[
				-0.8426913022994995,
				-0.5773941874504089,
				-0.9525476694107056
			],
			"type":"VEC3"
		},
		{
			"bufferView":145,
			"componentType":5126,
			"count":593,
			"type":"VEC3"
		},
		{
			"bufferView":146,
			"componentType":5126,
			"count":593,
			"type":"VEC2"
		},
		{
			"bufferView":147,
			"componentType":5123,
			"count":864,
			"type":"SCALAR"
		},
		{
			"bufferView":148,
			"componentType":5126,
			"count":279,
			"max":[
				0.6012502908706665,
				0.6615670919418335,
				0.6798031330108643
			],
			"min":[
				-0.6129869222640991,
				-0.41183531284332275,
				-0.974898099899292
			],
			"type":"VEC3"
		},
		{
			"bufferView":149,
			"componentType":5126,
			"count":279,
			"type":"VEC3"
		},
		{
			"bufferView":150,
			"componentType":5126,
			"count":279,
			"type":"VEC2"
		},
		{
			"bufferView":151,
			"componentType":5123,
			"count":432,
			"type":"SCALAR"
		},
		{
			"bufferView":152,
			"componentType":5126,
			"count":515,
			"max":[
				0.9604071974754333,
				4.3121843338012695,
				1.1877853870391846
			],
			"min":[
				-1.0174371004104614,
				-4.136385917663574,
				-1.169285535812378
			],
			"type":"VEC3"
		},
		{
			"bufferView":153,
			"componentType":5126,
			"count":515,
			"type":"VEC3"
		},
		{
			"bufferView":154,
			"componentType":5126,
			"count":515,
			"type":"VEC2"
		},
		{
			"bufferView":155,
			"componentType":5126,
			"count":515,
			"type":"VEC2"
		},
		{
			"bufferView":156,
			"componentType":5126,
			"count":515,
			"type":"VEC2"
		},
		{
			"bufferView":157,
			"componentType":5123,
			"count":531,
			"type":"SCALAR"
		},
		{
			"bufferView":158,
			"componentType":5126,
			"count":200,
			"max":[
				1.6460700035095215,
				6.786527156829834,
				1.602440595626831
			],
			"min":[
				-1.6451973915100098,
				1.775189995765686,
				-1.603125810623169
			],
			"type":"VEC3"
		},
		{
			"bufferView":159,
			"componentType":5126,
			"count":200,
			"type":"VEC3"
		},
		{
			"bufferView":160,
			"componentType":5126,
			"count":200,
			"type":"VEC2"
		},
		{
			"bufferView":161,
			"componentType":5123,
			"count":492,
			"type":"SCALAR"
		},
		{
			"bufferView":162,
			"componentType":5126,
			"count":98,
			"max":[
				2.5669188499450684,
				1.768628716468811,
				2.5661399364471436
			],
			"min":[
				-2.5660462379455566,
				-5.194223880767822,
				-2.5668251514434814
			],
			"type":"VEC3"
		},
		{
			"bufferView":163,
			"componentType":5126,
			"count":98,
			"type":"VEC3"
		},
		{
			"bufferView":164,
			"componentType":5126,
			"count":98,
			"type":"VEC2"
		},
		{
			"bufferView":165,
			"componentType":5123,
			"count":120,
			"type":"SCALAR"
		},
		{
			"bufferView":166,
			"componentType":5126,
			"count":2984,
			"max":[
				15.591434478759766,
				35.19508743286133,
				20.374332427978516
			],
			"min":[
				-16.559978485107422,
				-33.775146484375,
				-16.898365020751953
			],
			"type":"VEC3"
		},
		{
			"bufferView":167,
			"componentType":5126,
			"count":2984,
			"type":"VEC3"
		},
		{
			"bufferView":168,
			"componentType":5126,
			"count":2984,
			"type":"VEC2"
		},
		{
			"bufferView":169,
			"componentType":5126,
			"count":2984,
			"type":"VEC2"
		},
		{
			"bufferView":170,
			"componentType":5126,
			"count":2984,
			"type":"VEC2"
		},
		{
			"bufferView":171,
			"componentType":5126,
			"count":2984,
			"type":"VEC2"
		},
		{
			"bufferView":172,
			"componentType":5126,
			"count":2984,
			"type":"VEC2"
		},
		{
			"bufferView":173,
			"componentType":5126,
			"count":2984,
			"type":"VEC2"
		},
		{
			"bufferView":174,
			"componentType":5126,
			"count":2984,
			"type":"VEC2"
		},
		{
			"bufferView":175,
			"componentType":5123,
			"count":4884,
			"type":"SCALAR"
		},
		{
			"bufferView":176,
			"componentType":5126,
			"count":8,
			"max":[
				14.581432342529297,
				35.195011138916016,
				8.41955852508545
			],
			"min":[
				-14.66385269165039,
				20.194629669189453,
				-15.898358345031738
			],
			"type":"VEC3"
		},
		{
			"bufferView":177,
			"componentType":5126,
			"count":8,
			"type":"VEC3"
		},
		{
			"bufferView":178,
			"componentType":5126,
			"count":8,
			"type":"VEC2"
		},
		{
			"bufferView":179,
			"componentType":5126,
			"count":8,
			"type":"VEC2"
		},
		{
			"bufferView":180,
			"componentType":5126,
			"count":8,
			"type":"VEC2"
		},
		{
			"bufferView":181,
			"componentType":5126,
			"count":8,
			"type":"VEC2"
		},
		{
			"bufferView":182,
			"componentType":5126,
			"count":8,
			"type":"VEC2"
		},
		{
			"bufferView":183,
			"componentType":5126,
			"count":8,
			"type":"VEC2"
		},
		{
			"bufferView":184,
			"componentType":5126,
			"count":8,
			"type":"VEC2"
		},
		{
			"bufferView":185,
			"componentType":5123,
			"count":12,
			"type":"SCALAR"
		},
		{
			"bufferView":186,
			"componentType":5126,
			"count":3026,
			"max":[
				15.733383178710938,
				35.77277755737305,
				9.561511039733887
			],
			"min":[
				-15.80581283569336,
				5.194443225860596,
				-17.04031753540039
			],
			"type":"VEC3"
		},
		{
			"bufferView":187,
			"componentType":5126,
			"count":3026,
			"type":"VEC3"
		},
		{
			"bufferView":188,
			"componentType":5126,
			"count":3026,
			"type":"VEC2"
		},
		{
			"bufferView":189,
			"componentType":5126,
			"count":3026,
			"type":"VEC2"
		},
		{
			"bufferView":190,
			"componentType":5126,
			"count":3026,
			"type":"VEC2"
		},
		{
			"bufferView":191,
			"componentType":5126,
			"count":3026,
			"type":"VEC2"
		},
		{
			"bufferView":192,
			"componentType":5126,
			"count":3026,
			"type":"VEC2"
		},
		{
			"bufferView":193,
			"componentType":5126,
			"count":3026,
			"type":"VEC2"
		},
		{
			"bufferView":194,
			"componentType":5126,
			"count":3026,
			"type":"VEC2"
		},
		{
			"bufferView":195,
			"componentType":5123,
			"count":4626,
			"type":"SCALAR"
		},
		{
			"bufferView":196,
			"componentType":5126,
			"count":8,
			"max":[
				15.581428527832031,
				5.194355487823486,
				20.374332427978516
			],
			"min":[
				-15.66385269165039,
				-9.702618598937988,
				-16.898365020751953
			],
			"type":"VEC3"
		},
		{
			"bufferView":197,
			"componentType":5126,
			"count":8,
			"type":"VEC3"
		},
		{
			"bufferView":198,
			"componentType":5126,
			"count":8,
			"type":"VEC2"
		},
		{
			"bufferView":199,
			"componentType":5126,
			"count":8,
			"type":"VEC2"
		},
		{
			"bufferView":200,
			"componentType":5126,
			"count":8,
			"type":"VEC2"
		},
		{
			"bufferView":201,
			"componentType":5126,
			"count":8,
			"type":"VEC2"
		},
		{
			"bufferView":202,
			"componentType":5126,
			"count":8,
			"type":"VEC2"
		},
		{
			"bufferView":203,
			"componentType":5126,
			"count":8,
			"type":"VEC2"
		},
		{
			"bufferView":204,
			"componentType":5126,
			"count":8,
			"type":"VEC2"
		},
		{
			"bufferView":205,
			"componentType":5123,
			"count":12,
			"type":"SCALAR"
		},
		{
			"bufferView":206,
			"componentType":5126,
			"count":230,
			"max":[
				14.565990447998047,
				-8.691910743713379,
				20.374332427978516
			],
			"min":[
				5.8777923583984375,
				-9.702658653259277,
				9.314486503601074
			],
			"type":"VEC3"
		},
		{
			"bufferView":207,
			"componentType":5126,
			"count":230,
			"type":"VEC3"
		},
		{
			"bufferView":208,
			"componentType":5126,
			"count":230,
			"type":"VEC2"
		},
		{
			"bufferView":209,
			"componentType":5126,
			"count":230,
			"type":"VEC2"
		},
		{
			"bufferView":210,
			"componentType":5126,
			"count":230,
			"type":"VEC2"
		},
		{
			"bufferView":211,
			"componentType":5126,
			"count":230,
			"type":"VEC2"
		},
		{
			"bufferView":212,
			"componentType":5126,
			"count":230,
			"type":"VEC2"
		},
		{
			"bufferView":213,
			"componentType":5126,
			"count":230,
			"type":"VEC2"
		},
		{
			"bufferView":214,
			"componentType":5126,
			"count":230,
			"type":"VEC2"
		},
		{
			"bufferView":215,
			"componentType":5123,
			"count":324,
			"type":"SCALAR"
		},
		{
			"bufferView":216,
			"componentType":5126,
			"count":200,
			"max":[
				-7.585277557373047,
				-8.728062629699707,
				20.660816192626953
			],
			"min":[
				-16.846485137939453,
				-9.73878002166748,
				8.4923734664917
			],
			"type":"VEC3"
		},
		{
			"bufferView":217,
			"componentType":5126,
			"count":200,
			"type":"VEC3"
		},
		{
			"bufferView":218,
			"componentType":5126,
			"count":200,
			"type":"VEC2"
		},
		{
			"bufferView":219,
			"componentType":5126,
			"count":200,
			"type":"VEC2"
		},
		{
			"bufferView":220,
			"componentType":5126,
			"count":200,
			"type":"VEC2"
		},
		{
			"bufferView":221,
			"componentType":5126,
			"count":200,
			"type":"VEC2"
		},
		{
			"bufferView":222,
			"componentType":5126,
			"count":200,
			"type":"VEC2"
		},
		{
			"bufferView":223,
			"componentType":5126,
			"count":200,
			"type":"VEC2"
		},
		{
			"bufferView":224,
			"componentType":5126,
			"count":200,
			"type":"VEC2"
		},
		{
			"bufferView":225,
			"componentType":5123,
			"count":324,
			"type":"SCALAR"
		},
		{
			"bufferView":226,
			"componentType":5126,
			"count":4,
			"max":[
				-7.881793975830078,
				-9.738682746887207,
				20.374309539794922
			],
			"min":[
				-16.559978485107422,
				-9.73878002166748,
				8.77888011932373
			],
			"type":"VEC3"
		},
		{
			"bufferView":227,
			"componentType":5126,
			"count":4,
			"type":"VEC3"
		},
		{
			"bufferView":228,
			"componentType":5126,
			"count":4,
			"type":"VEC2"
		},
		{
			"bufferView":229,
			"componentType":5126,
			"count":4,
			"type":"VEC2"
		},
		{
			"bufferView":230,
			"componentType":5126,
			"count":4,
			"type":"VEC2"
		},
		{
			"bufferView":231,
			"componentType":5126,
			"count":4,
			"type":"VEC2"
		},
		{
			"bufferView":232,
			"componentType":5126,
			"count":4,
			"type":"VEC2"
		},
		{
			"bufferView":233,
			"componentType":5126,
			"count":4,
			"type":"VEC2"
		},
		{
			"bufferView":234,
			"componentType":5126,
			"count":4,
			"type":"VEC2"
		},
		{
			"bufferView":235,
			"componentType":5123,
			"count":6,
			"type":"SCALAR"
		},
		{
			"bufferView":236,
			"componentType":5126,
			"count":80,
			"max":[
				17.05764389038086,
				-29.8791561126709,
				23.310359954833984
			],
			"min":[
				-16.55996322631836,
				-33.74467849731445,
				5.842861175537109
			],
			"type":"VEC3"
		},
		{
			"bufferView":237,
			"componentType":5126,
			"count":80,
			"type":"VEC3"
		},
		{
			"bufferView":238,
			"componentType":5126,
			"count":80,
			"type":"VEC2"
		},
		{
			"bufferView":239,
			"componentType":5126,
			"count":80,
			"type":"VEC2"
		},
		{
			"bufferView":240,
			"componentType":5126,
			"count":80,
			"type":"VEC2"
		},
		{
			"bufferView":241,
			"componentType":5126,
			"count":80,
			"type":"VEC2"
		},
		{
			"bufferView":242,
			"componentType":5126,
			"count":80,
			"type":"VEC2"
		},
		{
			"bufferView":243,
			"componentType":5126,
			"count":80,
			"type":"VEC2"
		},
		{
			"bufferView":244,
			"componentType":5126,
			"count":80,
			"type":"VEC2"
		},
		{
			"bufferView":245,
			"componentType":5123,
			"count":120,
			"type":"SCALAR"
		},
		{
			"bufferView":246,
			"componentType":5126,
			"count":200,
			"max":[
				17.05764389038086,
				-29.40389633178711,
				23.310359954833984
			],
			"min":[
				-16.55996322631836,
				-29.8791561126709,
				5.842861175537109
			],
			"type":"VEC3"
		},
		{
			"bufferView":247,
			"componentType":5126,
			"count":200,
			"type":"VEC3"
		},
		{
			"bufferView":248,
			"componentType":5126,
			"count":200,
			"type":"VEC2"
		},
		{
			"bufferView":249,
			"componentType":5126,
			"count":200,
			"type":"VEC2"
		},
		{
			"bufferView":250,
			"componentType":5126,
			"count":200,
			"type":"VEC2"
		},
		{
			"bufferView":251,
			"componentType":5126,
			"count":200,
			"type":"VEC2"
		},
		{
			"bufferView":252,
			"componentType":5126,
			"count":200,
			"type":"VEC2"
		},
		{
			"bufferView":253,
			"componentType":5126,
			"count":200,
			"type":"VEC2"
		},
		{
			"bufferView":254,
			"componentType":5126,
			"count":200,
			"type":"VEC2"
		},
		{
			"bufferView":255,
			"componentType":5123,
			"count":300,
			"type":"SCALAR"
		}
	],
	"bufferViews":[
		{
			"buffer":0,
			"byteLength":432,
			"byteOffset":0,
			"target":34962
		},
		{
			"buffer":0,
			"byteLength":432,
			"byteOffset":432,
			"target":34962
		},
		{
			"buffer":0,
			"byteLength":288,
			"byteOffset":864,
			"target":34962
		},
		{
			"buffer":0,
			"byteLength":108,
			"byteOffset":1152,
			"target":34963
		},
		{
			"buffer":0,
			"byteLength":432,
			"byteOffset":1260,
			"target":34962
		},
		{
			"buffer":0,
			"byteLength":432,
			"byteOffset":1692,
			"target":34962
		},
		{
			"buffer":0,
			"byteLength":288,
			"byteOffset":2124,
			"target":34962
		},
		{
			"buffer":0,
			"byteLength":108,
			"byteOffset":2412,
			"target":34963
		},
		{
			"buffer":0,
			"byteLength":288,
			"byteOffset":2520,
			"target":34962
		},
		{
			"buffer":0,
			"byteLength":288,
			"byteOffset":2808,
			"target":34962
		},
		{
			"buffer":0,
			"byteLength":192,
			"byteOffset":3096,
			"target":34962
		},
		{
			"buffer":0,
			"byteLength":192,
			"byteOffset":3288,
			"target":34962
		},
		{
			"buffer":0,
			"byteLength":192,
			"byteOffset":3480,
			"target":34962
		},
		{
			"buffer":0,
			"byteLength":72,
			"byteOffset":3672,
			"target":34963
		},
		{
			"buffer":0,
			"byteLength":288,
			"byteOffset":3744,
			"target":34962
		},
		{
			"buffer":0,
			"byteLength":288,
			"byteOffset":4032,
			"target":34962
		},
		{
			"buffer":0,
			"byteLength":192,
			"byteOffset":4320,
			"target":34962
		},
		{
			"buffer":0,
			"byteLength":192,
			"byteOffset":4512,
			"target":34962
		},
		{
			"buffer":0,
			"byteLength":192,
			"byteOffset":4704,
			"target":34962
		},
		{
			"buffer":0,
			"byteLength":72,
			"byteOffset":4896,
			"target":34963
		},
		{
			"buffer":0,
			"byteLength":576,
			"byteOffset":4968,
			"target":34962
		},
		{
			"buffer":0,
			"byteLength":576,
			"byteOffset":5544,
			"target":34962
		},
		{
			"buffer":0,
			"byteLength":384,
			"byteOffset":6120,
			"target":34962
		},
		{
			"buffer":0,
			"byteLength":384,
			"byteOffset":6504,
			"target":34962
		},
		{
			"buffer":0,
			"byteLength":384,
			"byteOffset":6888,
			"target":34962
		},
		{
			"buffer":0,
			"byteLength":384,
			"byteOffset":7272,
			"target":34962
		},
		{
			"buffer":0,
			"byteLength":384,
			"byteOffset":7656,
			"target":34962
		},
		{
			"buffer":0,
			"byteLength":384,
			"byteOffset":8040,
			"target":34962
		},
		{
			"buffer":0,
			"byteLength":384,
			"byteOffset":8424,
			"target":34962
		},
		{
			"buffer":0,
			"byteLength":144,
			"byteOffset":8808,
			"target":34963
		},
		{
			"buffer":0,
			"byteLength":5976,
			"byteOffset":8952,
			"target":34962
		},
		{
			"buffer":0,
			"byteLength":5976,
			"byteOffset":14928,
			"target":34962
		},
		{
			"buffer":0,
			"byteLength":3984,
			"byteOffset":20904,
			"target":34962
		},
		{
			"buffer":0,
			"byteLength":3984,
			"byteOffset":24888,
			"target":34962
		},
		{
			"buffer":0,
			"byteLength":3984,
			"byteOffset":28872,
			"target":34962
		},
		{
			"buffer":0,
			"byteLength":3984,
			"byteOffset":32856,
			"target":34962
		},
		{
			"buffer":0,
			"byteLength":3984,
			"byteOffset":36840,
			"target":34962
		},
		{
			"buffer":0,
			"byteLength":3984,
			"byteOffset":40824,
			"target":34962
		},
		{
			"buffer":0,
			"byteLength":3984,
			"byteOffset":44808,
			"target":34962
		},
		{
			"buffer":0,
			"byteLength":1716,
			"byteOffset":48792,
			"target":34963
		},
		{
			"buffer":0,
			"byteLength":1656,
			"byteOffset":50508,
			"target":34962
		},
		{
			"buffer":0,
			"byteLength":1656,
			"byteOffset":52164,
			"target":34962
		},
		{
			"buffer":0,
			"byteLength":1104,
			"byteOffset":53820,
			"target":34962
		},
		{
			"buffer":0,
			"byteLength":1104,
			"byteOffset":54924,
			"target":34962
		},
		{
			"buffer":0,
			"byteLength":1104,
			"byteOffset":56028,
			"target":34962
		},
		{
			"buffer":0,
			"byteLength":1104,
			"byteOffset":57132,
			"target":34962
		},
		{
			"buffer":0,
			"byteLength":1104,
			"byteOffset":58236,
			"target":34962
		},
		{
			"buffer":0,
			"byteLength":1104,
			"byteOffset":59340,
			"target":34962
		},
		{
			"buffer":0,
			"byteLength":1104,
			"byteOffset":60444,
			"target":34962
		},
		{
			"buffer":0,
			"byteLength":384,
			"byteOffset":61548,
			"target":34963
		},
		{
			"buffer":0,
			"byteLength":6612,
			"byteOffset":61932,
			"target":34962
		},
		{
			"buffer":0,
			"byteLength":6612,
			"byteOffset":68544,
			"target":34962
		},
		{
			"buffer":0,
			"byteLength":4408,
			"byteOffset":75156,
			"target":34962
		},
		{
			"buffer":0,
			"byteLength":4408,
			"byteOffset":79564,
			"target":34962
		},
		{
			"buffer":0,
			"byteLength":4408,
			"byteOffset":83972,
			"target":34962
		},
		{
			"buffer":0,
			"byteLength":4408,
			"byteOffset":88380,
			"target":34962
		},
		{
			"buffer":0,
			"byteLength":4408,
			"byteOffset":92788,
			"target":34962
		},
		{
			"buffer":0,
			"byteLength":4408,
			"byteOffset":97196,
			"target":34962
		},
		{
			"buffer":0,
			"byteLength":4408,
			"byteOffset":101604,
			"target":34962
		},
		{
			"buffer":0,
			"byteLength":1932,
			"byteOffset":106012,
			"target":34963
		},
		{
			"buffer":0,
			"byteLength":5376,
			"byteOffset":107944,
			"target":34962
		},
		{
			"buffer":0,
			"byteLength":5376,
			"byteOffset":113320,
			"target":34962
		},
		{
			"buffer":0,
			"byteLength":3584,
			"byteOffset":118696,
			"target":34962
		},
		{
			"buffer":0,
			"byteLength":3584,
			"byteOffset":122280,
			"target":34962
		},
		{
			"buffer":0,
			"byteLength":3584,
			"byteOffset":125864,
			"target":34962
		},
		{
			"buffer":0,
			"byteLength":3584,
			"byteOffset":129448,
			"target":34962
		},
		{
			"buffer":0,
			"byteLength":3584,
			"byteOffset":133032,
			"target":34962
		},
		{
			"buffer":0,
			"byteLength":3584,
			"byteOffset":136616,
			"target":34962
		},
		{
			"buffer":0,
			"byteLength":3584,
			"byteOffset":140200,
			"target":34962
		},
		{
			"buffer":0,
			"byteLength":1416,
			"byteOffset":143784,
			"target":34963
		},
		{
			"buffer":0,
			"byteLength":480,
			"byteOffset":145200,
			"target":34962
		},
		{
			"buffer":0,
			"byteLength":480,
			"byteOffset":145680,
			"target":34962
		},
		{
			"buffer":0,
			"byteLength":320,
			"byteOffset":146160,
			"target":34962
		},
		{
			"buffer":0,
			"byteLength":320,
			"byteOffset":146480,
			"target":34962
		},
		{
			"buffer":0,
			"byteLength":320,
			"byteOffset":146800,
			"target":34962
		},
		{
			"buffer":0,
			"byteLength":320,
			"byteOffset":147120,
			"target":34962
		},
		{
			"buffer":0,
			"byteLength":320,
			"byteOffset":147440,
			"target":34962
		},
		{
			"buffer":0,
			"byteLength":320,
			"byteOffset":147760,
			"target":34962
		},
		{
			"buffer":0,
			"byteLength":320,
			"byteOffset":148080,
			"target":34962
		},
		{
			"buffer":0,
			"byteLength":120,
			"byteOffset":148400,
			"target":34963
		},
		{
			"buffer":0,
			"byteLength":2484,
			"byteOffset":148520,
			"target":34962
		},
		{
			"buffer":0,
			"byteLength":2484,
			"byteOffset":151004,
			"target":34962
		},
		{
			"buffer":0,
			"byteLength":1656,
			"byteOffset":153488,
			"target":34962
		},
		{
			"buffer":0,
			"byteLength":1656,
			"byteOffset":155144,
			"target":34962
		},
		{
			"buffer":0,
			"byteLength":1656,
			"byteOffset":156800,
			"target":34962
		},
		{
			"buffer":0,
			"byteLength":1656,
			"byteOffset":158456,
			"target":34962
		},
		{
			"buffer":0,
			"byteLength":1656,
			"byteOffset":160112,
			"target":34962
		},
		{
			"buffer":0,
			"byteLength":1656,
			"byteOffset":161768,
			"target":34962
		},
		{
			"buffer":0,
			"byteLength":1656,
			"byteOffset":163424,
			"target":34962
		},
		{
			"buffer":0,
			"byteLength":534,
			"byteOffset":165080,
			"target":34963
		},
		{
			"buffer":0,
			"byteLength":10368,
			"byteOffset":165616,
			"target":34962
		},
		{
			"buffer":0,
			"byteLength":10368,
			"byteOffset":175984,
			"target":34962
		},
		{
			"buffer":0,
			"byteLength":6912,
			"byteOffset":186352,
			"target":34962
		},
		{
			"buffer":0,
			"byteLength":6912,
			"byteOffset":193264,
			"target":34962
		},
		{
			"buffer":0,
			"byteLength":6912,
			"byteOffset":200176,
			"target":34962
		},
		{
			"buffer":0,
			"byteLength":6912,
			"byteOffset":207088,
			"target":34962
		},
		{
			"buffer":0,
			"byteLength":6912,
			"byteOffset":214000,
			"target":34962
		},
		{
			"buffer":0,
			"byteLength":6912,
			"byteOffset":220912,
			"target":34962
		},
		{
			"buffer":0,
			"byteLength":6912,
			"byteOffset":227824,
			"target":34962
		},
		{
			"buffer":0,
			"byteLength":3108,
			"byteOffset":234736,
			"target":34963
		},
		{
			"buffer":0,
			"byteLength":5724,
			"byteOffset":237844,
			"target":34962
		},
		{
			"buffer":0,
			"byteLength":5724,
			"byteOffset":243568,
			"target":34962
		},
		{
			"buffer":0,
			"byteLength":3816,
			"byteOffset":249292,
			"target":34962
		},
		{
			"buffer":0,
			"byteLength":3816,
			"byteOffset":253108,
			"target":34962
		},
		{
			"buffer":0,
			"byteLength":3816,
			"byteOffset":256924,
			"target":34962
		},
		{
			"buffer":0,
			"byteLength":3816,
			"byteOffset":260740,
			"target":34962
		},
		{
			"buffer":0,
			"byteLength":3816,
			"byteOffset":264556,
			"target":34962
		},
		{
			"buffer":0,
			"byteLength":3816,
			"byteOffset":268372,
			"target":34962
		},
		{
			"buffer":0,
			"byteLength":3816,
			"byteOffset":272188,
			"target":34962
		},
		{
			"buffer":0,
			"byteLength":1422,
			"byteOffset":276004,
			"target":34963
		},
		{
			"buffer":0,
			"byteLength":7056,
			"byteOffset":277428,
			"target":34962
		},
		{
			"buffer":0,
			"byteLength":7056,
			"byteOffset":284484,
			"target":34962
		},
		{
			"buffer":0,
			"byteLength":4704,
			"byteOffset":291540,
			"target":34962
		},
		{
			"buffer":0,
			"byteLength":4704,
			"byteOffset":296244,
			"target":34962
		},
		{
			"buffer":0,
			"byteLength":4704,
			"byteOffset":300948,
			"target":34962
		},
		{
			"buffer":0,
			"byteLength":4704,
			"byteOffset":305652,
			"target":34962
		},
		{
			"buffer":0,
			"byteLength":4704,
			"byteOffset":310356,
			"target":34962
		},
		{
			"buffer":0,
			"byteLength":4704,
			"byteOffset":315060,
			"target":34962
		},
		{
			"buffer":0,
			"byteLength":4704,
			"byteOffset":319764,
			"target":34962
		},
		{
			"buffer":0,
			"byteLength":1656,
			"byteOffset":324468,
			"target":34963
		},
		{
			"buffer":0,
			"byteLength":7056,
			"byteOffset":326124,
			"target":34962
		},
		{
			"buffer":0,
			"byteLength":7056,
			"byteOffset":333180,
			"target":34962
		},
		{
			"buffer":0,
			"byteLength":4704,
			"byteOffset":340236,
			"target":34962
		},
		{
			"buffer":0,
			"byteLength":4704,
			"byteOffset":344940,
			"target":34962
		},
		{
			"buffer":0,
			"byteLength":4704,
			"byteOffset":349644,
			"target":34962
		},
		{
			"buffer":0,
			"byteLength":4704,
			"byteOffset":354348,
			"target":34962
		},
		{
			"buffer":0,
			"byteLength":4704,
			"byteOffset":359052,
			"target":34962
		},
		{
			"buffer":0,
			"byteLength":4704,
			"byteOffset":363756,
			"target":34962
		},
		{
			"buffer":0,
			"byteLength":4704,
			"byteOffset":368460,
			"target":34962
		},
		{
			"buffer":0,
			"byteLength":1656,
			"byteOffset":373164,
			"target":34963
		},
		{
			"buffer":0,
			"byteLength":5004,
			"byteOffset":374820,
			"target":34962
		},
		{
			"buffer":0,
			"byteLength":5004,
			"byteOffset":379824,
			"target":34962
		},
		{
			"buffer":0,
			"byteLength":3336,
			"byteOffset":384828,
			"target":34962
		},
		{
			"buffer":0,
			"byteLength":3336,
			"byteOffset":388164,
			"target":34962
		},
		{
			"buffer":0,
			"byteLength":3336,
			"byteOffset":391500,
			"target":34962
		},
		{
			"buffer":0,
			"byteLength":3336,
			"byteOffset":394836,
			"target":34962
		},
		{
			"buffer":0,
			"byteLength":3336,
			"byteOffset":398172,
			"target":34962
		},
		{
			"buffer":0,
			"byteLength":3336,
			"byteOffset":401508,
			"target":34962
		},
		{
			"buffer":0,
			"byteLength":3336,
			"byteOffset":404844,
			"target":34962
		},
		{
			"buffer":0,
			"byteLength":1302,
			"byteOffset":408180,
			"target":34963
		},
		{
			"buffer":0,
			"byteLength":3192,
			"byteOffset":409484,
			"target":34962
		},
		{
			"buffer":0,
			"byteLength":3192,
			"byteOffset":412676,
			"target":34962
		},
		{
			"buffer":0,
			"byteLength":2128,
			"byteOffset":415868,
			"target":34962
		},
		{
			"buffer":0,
			"byteLength":852,
			"byteOffset":417996,
			"target":34963
		},
		{
			"buffer":0,
			"byteLength":7116,
			"byteOffset":418848,
			"target":34962
		},
		{
			"buffer":0,
			"byteLength":7116,
			"byteOffset":425964,
			"target":34962
		},
		{
			"buffer":0,
			"byteLength":4744,
			"byteOffset":433080,
			"target":34962
		},
		{
			"buffer":0,
			"byteLength":1728,
			"byteOffset":437824,
			"target":34963
		},
		{
			"buffer":0,
			"byteLength":3348,
			"byteOffset":439552,
			"target":34962
		},
		{
			"buffer":0,
			"byteLength":3348,
			"byteOffset":442900,
			"target":34962
		},
		{
			"buffer":0,
			"byteLength":2232,
			"byteOffset":446248,
			"target":34962
		},
		{
			"buffer":0,
			"byteLength":864,
			"byteOffset":448480,
			"target":34963
		},
		{
			"buffer":0,
			"byteLength":6180,
			"byteOffset":449344,
			"target":34962
		},
		{
			"buffer":0,
			"byteLength":6180,
			"byteOffset":455524,
			"target":34962
		},
		{
			"buffer":0,
			"byteLength":4120,
			"byteOffset":461704,
			"target":34962
		},
		{
			"buffer":0,
			"byteLength":4120,
			"byteOffset":465824,
			"target":34962
		},
		{
			"buffer":0,
			"byteLength":4120,
			"byteOffset":469944,
			"target":34962
		},
		{
			"buffer":0,
			"byteLength":1062,
			"byteOffset":474064,
			"target":34963
		},
		{
			"buffer":0,
			"byteLength":2400,
			"byteOffset":475128,
			"target":34962
		},
		{
			"buffer":0,
			"byteLength":2400,
			"byteOffset":477528,
			"target":34962
		},
		{
			"buffer":0,
			"byteLength":1600,
			"byteOffset":479928,
			"target":34962
		},
		{
			"buffer":0,
			"byteLength":984,
			"byteOffset":481528,
			"target":34963
		},
		{
			"buffer":0,
			"byteLength":1176,
			"byteOffset":482512,
			"target":34962
		},
		{
			"buffer":0,
			"byteLength":1176,
			"byteOffset":483688,
			"target":34962
		},
		{
			"buffer":0,
			"byteLength":784,
			"byteOffset":484864,
			"target":34962
		},
		{
			"buffer":0,
			"byteLength":240,
			"byteOffset":485648,
			"target":34963
		},
		{
			"buffer":0,
			"byteLength":35808,
			"byteOffset":485888,
			"target":34962
		},
		{
			"buffer":0,
			"byteLength":35808,
			"byteOffset":521696,
			"target":34962
		},
		{
			"buffer":0,
			"byteLength":23872,
			"byteOffset":557504,
			"target":34962
		},
		{
			"buffer":0,
			"byteLength":23872,
			"byteOffset":581376,
			"target":34962
		},
		{
			"buffer":0,
			"byteLength":23872,
			"byteOffset":605248,
			"target":34962
		},
		{
			"buffer":0,
			"byteLength":23872,
			"byteOffset":629120,
			"target":34962
		},
		{
			"buffer":0,
			"byteLength":23872,
			"byteOffset":652992,
			"target":34962
		},
		{
			"buffer":0,
			"byteLength":23872,
			"byteOffset":676864,
			"target":34962
		},
		{
			"buffer":0,
			"byteLength":23872,
			"byteOffset":700736,
			"target":34962
		},
		{
			"buffer":0,
			"byteLength":9768,
			"byteOffset":724608,
			"target":34963
		},
		{
			"buffer":0,
			"byteLength":96,
			"byteOffset":734376,
			"target":34962
		},
		{
			"buffer":0,
			"byteLength":96,
			"byteOffset":734472,
			"target":34962
		},
		{
			"buffer":0,
			"byteLength":64,
			"byteOffset":734568,
			"target":34962
		},
		{
			"buffer":0,
			"byteLength":64,
			"byteOffset":734632,
			"target":34962
		},
		{
			"buffer":0,
			"byteLength":64,
			"byteOffset":734696,
			"target":34962
		},
		{
			"buffer":0,
			"byteLength":64,
			"byteOffset":734760,
			"target":34962
		},
		{
			"buffer":0,
			"byteLength":64,
			"byteOffset":734824,
			"target":34962
		},
		{
			"buffer":0,
			"byteLength":64,
			"byteOffset":734888,
			"target":34962
		},
		{
			"buffer":0,
			"byteLength":64,
			"byteOffset":734952,
			"target":34962
		},
		{
			"buffer":0,
			"byteLength":24,
			"byteOffset":735016,
			"target":34963
		},
		{
			"buffer":0,
			"byteLength":36312,
			"byteOffset":735040,
			"target":34962
		},
		{
			"buffer":0,
			"byteLength":36312,
			"byteOffset":771352,
			"target":34962
		},
		{
			"buffer":0,
			"byteLength":24208,
			"byteOffset":807664,
			"target":34962
		},
		{
			"buffer":0,
			"byteLength":24208,
			"byteOffset":831872,
			"target":34962
		},
		{
			"buffer":0,
			"byteLength":24208,
			"byteOffset":856080,
			"target":34962
		},
		{
			"buffer":0,
			"byteLength":24208,
			"byteOffset":880288,
			"target":34962
		},
		{
			"buffer":0,
			"byteLength":24208,
			"byteOffset":904496,
			"target":34962
		},
		{
			"buffer":0,
			"byteLength":24208,
			"byteOffset":928704,
			"target":34962
		},
		{
			"buffer":0,
			"byteLength":24208,
			"byteOffset":952912,
			"target":34962
		},
		{
			"buffer":0,
			"byteLength":9252,
			"byteOffset":977120,
			"target":34963
		},
		{
			"buffer":0,
			"byteLength":96,
			"byteOffset":986372,
			"target":34962
		},
		{
			"buffer":0,
			"byteLength":96,
			"byteOffset":986468,
			"target":34962
		},
		{
			"buffer":0,
			"byteLength":64,
			"byteOffset":986564,
			"target":34962
		},
		{
			"buffer":0,
			"byteLength":64,
			"byteOffset":986628,
			"target":34962
		},
		{
			"buffer":0,
			"byteLength":64,
			"byteOffset":986692,
			"target":34962
		},
		{
			"buffer":0,
			"byteLength":64,
			"byteOffset":986756,
			"target":34962
		},
		{
			"buffer":0,
			"byteLength":64,
			"byteOffset":986820,
			"target":34962
		},
		{
			"buffer":0,
			"byteLength":64,
			"byteOffset":986884,
			"target":34962
		},
		{
			"buffer":0,
			"byteLength":64,
			"byteOffset":986948,
			"target":34962
		},
		{
			"buffer":0,
			"byteLength":24,
			"byteOffset":987012,
			"target":34963
		},
		{
			"buffer":0,
			"byteLength":2760,
			"byteOffset":987036,
			"target":34962
		},
		{
			"buffer":0,
			"byteLength":2760,
			"byteOffset":989796,
			"target":34962
		},
		{
			"buffer":0,
			"byteLength":1840,
			"byteOffset":992556,
			"target":34962
		},
		{
			"buffer":0,
			"byteLength":1840,
			"byteOffset":994396,
			"target":34962
		},
		{
			"buffer":0,
			"byteLength":1840,
			"byteOffset":996236,
			"target":34962
		},
		{
			"buffer":0,
			"byteLength":1840,
			"byteOffset":998076,
			"target":34962
		},
		{
			"buffer":0,
			"byteLength":1840,
			"byteOffset":999916,
			"target":34962
		},
		{
			"buffer":0,
			"byteLength":1840,
			"byteOffset":1001756,
			"target":34962
		},
		{
			"buffer":0,
			"byteLength":1840,
			"byteOffset":1003596,
			"target":34962
		},
		{
			"buffer":0,
			"byteLength":648,
			"byteOffset":1005436,
			"target":34963
		},
		{
			"buffer":0,
			"byteLength":2400,
			"byteOffset":1006084,
			"target":34962
		},
		{
			"buffer":0,
			"byteLength":2400,
			"byteOffset":1008484,
			"target":34962
		},
		{
			"buffer":0,
			"byteLength":1600,
			"byteOffset":1010884,
			"target":34962
		},
		{
			"buffer":0,
			"byteLength":1600,
			"byteOffset":1012484,
			"target":34962
		},
		{
			"buffer":0,
			"byteLength":1600,
			"byteOffset":1014084,
			"target":34962
		},
		{
			"buffer":0,
			"byteLength":1600,
			"byteOffset":1015684,
			"target":34962
		},
		{
			"buffer":0,
			"byteLength":1600,
			"byteOffset":1017284,
			"target":34962
		},
		{
			"buffer":0,
			"byteLength":1600,
			"byteOffset":1018884,
			"target":34962
		},
		{
			"buffer":0,
			"byteLength":1600,
			"byteOffset":1020484,
			"target":34962
		},
		{
			"buffer":0,
			"byteLength":648,
			"byteOffset":1022084,
			"target":34963
		},
		{
			"buffer":0,
			"byteLength":48,
			"byteOffset":1022732,
			"target":34962
		},
		{
			"buffer":0,
			"byteLength":48,
			"byteOffset":1022780,
			"target":34962
		},
		{
			"buffer":0,
			"byteLength":32,
			"byteOffset":1022828,
			"target":34962
		},
		{
			"buffer":0,
			"byteLength":32,
			"byteOffset":1022860,
			"target":34962
		},
		{
			"buffer":0,
			"byteLength":32,
			"byteOffset":1022892,
			"target":34962
		},
		{
			"buffer":0,
			"byteLength":32,
			"byteOffset":1022924,
			"target":34962
		},
		{
			"buffer":0,
			"byteLength":32,
			"byteOffset":1022956,
			"target":34962
		},
		{
			"buffer":0,
			"byteLength":32,
			"byteOffset":1022988,
			"target":34962
		},
		{
			"buffer":0,
			"byteLength":32,
			"byteOffset":1023020,
			"target":34962
		},
		{
			"buffer":0,
			"byteLength":12,
			"byteOffset":1023052,
			"target":34963
		},
		{
			"buffer":0,
			"byteLength":960,
			"byteOffset":1023064,
			"target":34962
		},
		{
			"buffer":0,
			"byteLength":960,
			"byteOffset":1024024,
			"target":34962
		},
		{
			"buffer":0,
			"byteLength":640,
			"byteOffset":1024984,
			"target":34962
		},
		{
			"buffer":0,
			"byteLength":640,
			"byteOffset":1025624,
			"target":34962
		},
		{
			"buffer":0,
			"byteLength":640,
			"byteOffset":1026264,
			"target":34962
		},
		{
			"buffer":0,
			"byteLength":640,
			"byteOffset":1026904,
			"target":34962
		},
		{
			"buffer":0,
			"byteLength":640,
			"byteOffset":1027544,
			"target":34962
		},
		{
			"buffer":0,
			"byteLength":640,
			"byteOffset":1028184,
			"target":34962
		},
		{
			"buffer":0,
			"byteLength":640,
			"byteOffset":1028824,
			"target":34962
		},
		{
			"buffer":0,
			"byteLength":240,
			"byteOffset":1029464,
			"target":34963
		},
		{
			"buffer":0,
			"byteLength":2400,
			"byteOffset":1029704,
			"target":34962
		},
		{
			"buffer":0,
			"byteLength":2400,
			"byteOffset":1032104,
			"target":34962
		},
		{
			"buffer":0,
			"byteLength":1600,
			"byteOffset":1034504,
			"target":34962
		},
		{
			"buffer":0,
			"byteLength":1600,
			"byteOffset":1036104,
			"target":34962
		},
		{
			"buffer":0,
			"byteLength":1600,
			"byteOffset":1037704,
			"target":34962
		},
		{
			"buffer":0,
			"byteLength":1600,
			"byteOffset":1039304,
			"target":34962
		},
		{
			"buffer":0,
			"byteLength":1600,
			"byteOffset":1040904,
			"target":34962
		},
		{
			"buffer":0,
			"byteLength":1600,
			"byteOffset":1042504,
			"target":34962
		},
		{
			"buffer":0,
			"byteLength":1600,
			"byteOffset":1044104,
			"target":34962
		},
		{
			"buffer":0,
			"byteLength":600,
			"byteOffset":1045704,
			"target":34963
		}
	],
	"samplers":[
		{
			"magFilter":9729,
			"minFilter":9987
		},
		{
			"magFilter":9729,
			"minFilter":9987,
			"wrapS":33071,
			"wrapT":33071
		}
	],
	"buffers":[
		{
			"byteLength":1046304,
			"uri":"building8.bin"
		}
	]
}
