{
	"asset":{
		"generator":"Khronos glTF Blender I/O v4.2.70",
		"version":"2.0"
	},
	"scene":0,
	"scenes":[
		{
			"name":"Scene",
			"nodes":[
				0,
				1,
				2,
				3
			]
		}
	],
	"nodes":[
		{
			"mesh":0,
			"name":"Object_99.337",
			"translation":[
				-62.508506774902344,
				111.24844360351562,
				32.777137756347656
			]
		},
		{
			"mesh":1,
			"name":"Object_99.338",
			"translation":[
				-59.21133804321289,
				111.66578674316406,
				30.906261444091797
			]
		},
		{
			"name":"Object_99.339",
			"translation":[
				-71.53849029541016,
				108.66506958007812,
				34.325408935546875
			]
		},
		{
			"mesh":2,
			"name":"Object_118.018",
			"translation":[
				-62.49217987060547,
				53.94510269165039,
				30.00006103515625
			]
		}
	],
	"materials":[
		{
			"doubleSided":true,
			"name":"firescape.016",
			"pbrMetallicRoughness":{
				"baseColorFactor":[
					0.3023209869861603,
					0.3023209869861603,
					0.3023209869861603,
					1
				],
				"roughnessFactor":0.49351200461387634
			}
		},
		{
			"doubleSided":true,
			"name":"solar.016",
			"pbrMetallicRoughness":{
				"baseColorTexture":{
					"index":0
				},
				"metallicFactor":0.8799999952316284,
				"roughnessFactor":0
			}
		},
		{
			"doubleSided":true,
			"name":"material.015",
			"normalTexture":{
				"index":1
			},
			"pbrMetallicRoughness":{
				"baseColorTexture":{
					"index":2
				},
				"metallicFactor":0,
				"roughnessFactor":0.5
			}
		},
		{
			"doubleSided":true,
			"name":"Material.059",
			"normalTexture":{
				"index":3
			},
			"pbrMetallicRoughness":{
				"baseColorFactor":[
					0.800000011920929,
					0.800000011920929,
					0.800000011920929,
					1
				],
				"roughnessFactor":0.30000001192092896
			}
		},
		{
			"doubleSided":true,
			"name":"CityGenbasic_dark_green.015",
			"normalTexture":{
				"index":4
			},
			"pbrMetallicRoughness":{
				"baseColorTexture":{
					"index":5
				},
				"metallicFactor":0,
				"metallicRoughnessTexture":{
					"index":6
				}
			}
		},
		{
			"doubleSided":true,
			"emissiveFactor":[
				5.96045985901128e-08,
				5.96045985901128e-08,
				5.96045985901128e-08
			],
			"name":"CityGen_LR_Facades.016",
			"pbrMetallicRoughness":{
				"baseColorTexture":{
					"index":7
				},
				"metallicFactor":0,
				"metallicRoughnessTexture":{
					"index":8
				}
			}
		},
		{
			"doubleSided":true,
			"name":"CityGenroof.049",
			"normalTexture":{
				"index":9
			},
			"pbrMetallicRoughness":{
				"baseColorTexture":{
					"index":10
				},
				"metallicFactor":0,
				"roughnessFactor":0.5
			}
		},
		{
			"doubleSided":true,
			"name":"CityGenroof.050",
			"normalTexture":{
				"index":11
			},
			"pbrMetallicRoughness":{
				"baseColorTexture":{
					"index":12
				},
				"metallicFactor":0,
				"roughnessFactor":0.5
			}
		},
		{
			"doubleSided":true,
			"name":"CityGen_Curb.015",
			"normalTexture":{
				"index":13,
				"texCoord":2
			},
			"pbrMetallicRoughness":{
				"baseColorTexture":{
					"index":14
				},
				"metallicFactor":0,
				"metallicRoughnessTexture":{
					"index":15,
					"texCoord":1
				}
			}
		},
		{
			"doubleSided":true,
			"name":"CityGenroof.048",
			"normalTexture":{
				"index":16
			},
			"pbrMetallicRoughness":{
				"baseColorTexture":{
					"index":17
				},
				"metallicFactor":0,
				"roughnessFactor":0.5
			}
		}
	],
	"meshes":[
		{
			"name":"Object_45.344",
			"primitives":[
				{
					"attributes":{
						"POSITION":0,
						"NORMAL":1,
						"TEXCOORD_0":2,
						"TEXCOORD_1":3,
						"TEXCOORD_2":4,
						"TEXCOORD_3":5,
						"TEXCOORD_4":6,
						"TEXCOORD_5":7,
						"TEXCOORD_6":8
					},
					"indices":9,
					"material":0
				},
				{
					"attributes":{
						"POSITION":10,
						"NORMAL":11,
						"TEXCOORD_0":12,
						"TEXCOORD_1":13,
						"TEXCOORD_2":14,
						"TEXCOORD_3":15,
						"TEXCOORD_4":16,
						"TEXCOORD_5":17,
						"TEXCOORD_6":18
					},
					"indices":19,
					"material":1
				}
			]
		},
		{
			"name":"Object_45.345",
			"primitives":[
				{
					"attributes":{
						"POSITION":20,
						"NORMAL":21,
						"TEXCOORD_0":22,
						"TEXCOORD_1":23,
						"TEXCOORD_2":24,
						"TEXCOORD_3":25,
						"TEXCOORD_4":26,
						"TEXCOORD_5":27,
						"TEXCOORD_6":28
					},
					"indices":29,
					"material":2
				}
			]
		},
		{
			"name":"Object_54.018",
			"primitives":[
				{
					"attributes":{
						"POSITION":30,
						"NORMAL":31,
						"TEXCOORD_0":32,
						"TEXCOORD_1":33,
						"TEXCOORD_2":34,
						"TEXCOORD_3":35,
						"TEXCOORD_4":36,
						"TEXCOORD_5":37,
						"TEXCOORD_6":38,
						"TEXCOORD_7":39
					},
					"indices":40,
					"material":3
				},
				{
					"attributes":{
						"POSITION":41,
						"NORMAL":42,
						"TEXCOORD_0":43,
						"TEXCOORD_1":44,
						"TEXCOORD_2":45,
						"TEXCOORD_3":46,
						"TEXCOORD_4":47,
						"TEXCOORD_5":48,
						"TEXCOORD_6":49,
						"TEXCOORD_7":50
					},
					"indices":51,
					"material":4
				},
				{
					"attributes":{
						"POSITION":52,
						"NORMAL":53,
						"TEXCOORD_0":54,
						"TEXCOORD_1":55,
						"TEXCOORD_2":56,
						"TEXCOORD_3":57,
						"TEXCOORD_4":58,
						"TEXCOORD_5":59,
						"TEXCOORD_6":60,
						"TEXCOORD_7":61
					},
					"indices":62,
					"material":5
				},
				{
					"attributes":{
						"POSITION":63,
						"NORMAL":64,
						"TEXCOORD_0":65,
						"TEXCOORD_1":66,
						"TEXCOORD_2":67,
						"TEXCOORD_3":68,
						"TEXCOORD_4":69,
						"TEXCOORD_5":70,
						"TEXCOORD_6":71,
						"TEXCOORD_7":72
					},
					"indices":73,
					"material":6
				},
				{
					"attributes":{
						"POSITION":74,
						"NORMAL":75,
						"TEXCOORD_0":76,
						"TEXCOORD_1":77,
						"TEXCOORD_2":78,
						"TEXCOORD_3":79,
						"TEXCOORD_4":80,
						"TEXCOORD_5":81,
						"TEXCOORD_6":82,
						"TEXCOORD_7":83
					},
					"indices":84,
					"material":7
				},
				{
					"attributes":{
						"POSITION":85,
						"NORMAL":86,
						"TEXCOORD_0":87,
						"TEXCOORD_1":88,
						"TEXCOORD_2":89,
						"TEXCOORD_3":90,
						"TEXCOORD_4":91,
						"TEXCOORD_5":92,
						"TEXCOORD_6":93,
						"TEXCOORD_7":94
					},
					"indices":95,
					"material":8
				},
				{
					"attributes":{
						"POSITION":96,
						"NORMAL":97,
						"TEXCOORD_0":98,
						"TEXCOORD_1":99,
						"TEXCOORD_2":100,
						"TEXCOORD_3":101,
						"TEXCOORD_4":102,
						"TEXCOORD_5":103,
						"TEXCOORD_6":104,
						"TEXCOORD_7":105
					},
					"indices":106,
					"material":9
				}
			]
		}
	],
	"textures":[
		{
			"sampler":0,
			"source":0
		},
		{
			"sampler":0,
			"source":1
		},
		{
			"sampler":0,
			"source":2
		},
		{
			"sampler":0,
			"source":3
		},
		{
			"sampler":0,
			"source":4
		},
		{
			"sampler":0,
			"source":5
		},
		{
			"sampler":0,
			"source":6
		},
		{
			"sampler":1,
			"source":7
		},
		{
			"sampler":0,
			"source":8
		},
		{
			"sampler":0,
			"source":9
		},
		{
			"sampler":0,
			"source":10
		},
		{
			"sampler":0,
			"source":11
		},
		{
			"sampler":0,
			"source":12
		},
		{
			"sampler":0,
			"source":13
		},
		{
			"sampler":0,
			"source":14
		},
		{
			"sampler":0,
			"source":15
		},
		{
			"sampler":0,
			"source":16
		},
		{
			"sampler":0,
			"source":17
		}
	],
	"images":[
		{
			"mimeType":"image/jpeg",
			"name":"Image_61",
			"uri":"../textures/Image_61.jpg"
		},
		{
			"mimeType":"image/jpeg",
			"name":"Image_47",
			"uri":"../textures/Image_47.jpg"
		},
		{
			"mimeType":"image/jpeg",
			"name":"Image_46",
			"uri":"../textures/Image_46.jpg"
		},
		{
			"mimeType":"image/jpeg",
			"name":"Image_36",
			"uri":"../textures/Image_36.jpg"
		},
		{
			"mimeType":"image/jpeg",
			"name":"Image_2",
			"uri":"../textures/Image_2.jpg"
		},
		{
			"mimeType":"image/jpeg",
			"name":"Image_0",
			"uri":"../textures/Image_0.jpg"
		},
		{
			"mimeType":"image/png",
			"name":"Image_1",
			"uri":"../textures/Image_1.png"
		},
		{
			"mimeType":"image/jpeg",
			"name":"Image_37",
			"uri":"../textures/Image_37.jpg"
		},
		{
			"mimeType":"image/png",
			"name":"Image_38",
			"uri":"../textures/Image_38.png"
		},
		{
			"mimeType":"image/jpeg",
			"name":"Image_33",
			"uri":"../textures/Image_33.jpg"
		},
		{
			"mimeType":"image/jpeg",
			"name":"Image_32",
			"uri":"../textures/Image_32.jpg"
		},
		{
			"mimeType":"image/jpeg",
			"name":"Image_31",
			"uri":"../textures/Image_31.jpg"
		},
		{
			"mimeType":"image/jpeg",
			"name":"Image_30",
			"uri":"../textures/Image_30.jpg"
		},
		{
			"mimeType":"image/jpeg",
			"name":"Image_11",
			"uri":"../textures/Image_11.jpg"
		},
		{
			"mimeType":"image/jpeg",
			"name":"Image_9",
			"uri":"../textures/Image_9.jpg"
		},
		{
			"mimeType":"image/png",
			"name":"Image_10",
			"uri":"../textures/Image_10.png"
		},
		{
			"mimeType":"image/jpeg",
			"name":"Image_35",
			"uri":"../textures/Image_35.jpg"
		},
		{
			"mimeType":"image/jpeg",
			"name":"Image_34",
			"uri":"../textures/Image_34.jpg"
		}
	],
	"accessors":[
		{
			"bufferView":0,
			"componentType":5126,
			"count":36,
			"max":[
				1.767648696899414,
				0.08416390419006348,
				1.886305809020996
			],
			"min":[
				-1.886312484741211,
				-0.13221335411071777,
				-1.7676477432250977
			],
			"type":"VEC3"
		},
		{
			"bufferView":1,
			"componentType":5126,
			"count":36,
			"type":"VEC3"
		},
		{
			"bufferView":2,
			"componentType":5126,
			"count":36,
			"type":"VEC2"
		},
		{
			"bufferView":3,
			"componentType":5126,
			"count":36,
			"type":"VEC2"
		},
		{
			"bufferView":4,
			"componentType":5126,
			"count":36,
			"type":"VEC2"
		},
		{
			"bufferView":5,
			"componentType":5126,
			"count":36,
			"type":"VEC2"
		},
		{
			"bufferView":6,
			"componentType":5126,
			"count":36,
			"type":"VEC2"
		},
		{
			"bufferView":7,
			"componentType":5126,
			"count":36,
			"type":"VEC2"
		},
		{
			"bufferView":8,
			"componentType":5126,
			"count":36,
			"type":"VEC2"
		},
		{
			"bufferView":9,
			"componentType":5123,
			"count":54,
			"type":"SCALAR"
		},
		{
			"bufferView":10,
			"componentType":5126,
			"count":36,
			"max":[
				2.0027408599853516,
				0.14792275428771973,
				1.952834129333496
			],
			"min":[
				-1.952840805053711,
				-0.12771201133728027,
				-2.002739906311035
			],
			"type":"VEC3"
		},
		{
			"bufferView":11,
			"componentType":5126,
			"count":36,
			"type":"VEC3"
		},
		{
			"bufferView":12,
			"componentType":5126,
			"count":36,
			"type":"VEC2"
		},
		{
			"bufferView":13,
			"componentType":5126,
			"count":36,
			"type":"VEC2"
		},
		{
			"bufferView":14,
			"componentType":5126,
			"count":36,
			"type":"VEC2"
		},
		{
			"bufferView":15,
			"componentType":5126,
			"count":36,
			"type":"VEC2"
		},
		{
			"bufferView":16,
			"componentType":5126,
			"count":36,
			"type":"VEC2"
		},
		{
			"bufferView":17,
			"componentType":5126,
			"count":36,
			"type":"VEC2"
		},
		{
			"bufferView":18,
			"componentType":5126,
			"count":36,
			"type":"VEC2"
		},
		{
			"bufferView":19,
			"componentType":5123,
			"count":54,
			"type":"SCALAR"
		},
		{
			"bufferView":20,
			"componentType":5126,
			"count":24,
			"max":[
				0.5482988357543945,
				0.54830002784729,
				0.3804280757904053
			],
			"min":[
				-0.5482969284057617,
				-0.5482995510101318,
				-0.3804285526275635
			],
			"type":"VEC3"
		},
		{
			"bufferView":21,
			"componentType":5126,
			"count":24,
			"type":"VEC3"
		},
		{
			"bufferView":22,
			"componentType":5126,
			"count":24,
			"type":"VEC2"
		},
		{
			"bufferView":23,
			"componentType":5126,
			"count":24,
			"type":"VEC2"
		},
		{
			"bufferView":24,
			"componentType":5126,
			"count":24,
			"type":"VEC2"
		},
		{
			"bufferView":25,
			"componentType":5126,
			"count":24,
			"type":"VEC2"
		},
		{
			"bufferView":26,
			"componentType":5126,
			"count":24,
			"type":"VEC2"
		},
		{
			"bufferView":27,
			"componentType":5126,
			"count":24,
			"type":"VEC2"
		},
		{
			"bufferView":28,
			"componentType":5126,
			"count":24,
			"type":"VEC2"
		},
		{
			"bufferView":29,
			"componentType":5123,
			"count":36,
			"type":"SCALAR"
		},
		{
			"bufferView":30,
			"componentType":5126,
			"count":96,
			"max":[
				-3.5777859687805176,
				-49.97025680541992,
				15.933099746704102
			],
			"min":[
				-14.181109428405762,
				-53.83578109741211,
				-15.93321418762207
			],
			"type":"VEC3"
		},
		{
			"bufferView":31,
			"componentType":5126,
			"count":96,
			"type":"VEC3"
		},
		{
			"bufferView":32,
			"componentType":5126,
			"count":96,
			"type":"VEC2"
		},
		{
			"bufferView":33,
			"componentType":5126,
			"count":96,
			"type":"VEC2"
		},
		{
			"bufferView":34,
			"componentType":5126,
			"count":96,
			"type":"VEC2"
		},
		{
			"bufferView":35,
			"componentType":5126,
			"count":96,
			"type":"VEC2"
		},
		{
			"bufferView":36,
			"componentType":5126,
			"count":96,
			"type":"VEC2"
		},
		{
			"bufferView":37,
			"componentType":5126,
			"count":96,
			"type":"VEC2"
		},
		{
			"bufferView":38,
			"componentType":5126,
			"count":96,
			"type":"VEC2"
		},
		{
			"bufferView":39,
			"componentType":5126,
			"count":96,
			"type":"VEC2"
		},
		{
			"bufferView":40,
			"componentType":5123,
			"count":144,
			"type":"SCALAR"
		},
		{
			"bufferView":41,
			"componentType":5126,
			"count":240,
			"max":[
				-3.5777859687805176,
				-49.494998931884766,
				15.933099746704102
			],
			"min":[
				-14.181109428405762,
				-49.97025680541992,
				-15.93321418762207
			],
			"type":"VEC3"
		},
		{
			"bufferView":42,
			"componentType":5126,
			"count":240,
			"type":"VEC3"
		},
		{
			"bufferView":43,
			"componentType":5126,
			"count":240,
			"type":"VEC2"
		},
		{
			"bufferView":44,
			"componentType":5126,
			"count":240,
			"type":"VEC2"
		},
		{
			"bufferView":45,
			"componentType":5126,
			"count":240,
			"type":"VEC2"
		},
		{
			"bufferView":46,
			"componentType":5126,
			"count":240,
			"type":"VEC2"
		},
		{
			"bufferView":47,
			"componentType":5126,
			"count":240,
			"type":"VEC2"
		},
		{
			"bufferView":48,
			"componentType":5126,
			"count":240,
			"type":"VEC2"
		},
		{
			"bufferView":49,
			"componentType":5126,
			"count":240,
			"type":"VEC2"
		},
		{
			"bufferView":50,
			"componentType":5126,
			"count":240,
			"type":"VEC2"
		},
		{
			"bufferView":51,
			"componentType":5123,
			"count":360,
			"type":"SCALAR"
		},
		{
			"bufferView":52,
			"componentType":5126,
			"count":2840,
			"max":[
				12.933937072753906,
				57.17238998413086,
				14.495489120483398
			],
			"min":[
				-12.157809257507324,
				-53.83024215698242,
				-14.495609283447266
			],
			"type":"VEC3"
		},
		{
			"bufferView":53,
			"componentType":5126,
			"count":2840,
			"type":"VEC3"
		},
		{
			"bufferView":54,
			"componentType":5126,
			"count":2840,
			"type":"VEC2"
		},
		{
			"bufferView":55,
			"componentType":5126,
			"count":2840,
			"type":"VEC2"
		},
		{
			"bufferView":56,
			"componentType":5126,
			"count":2840,
			"type":"VEC2"
		},
		{
			"bufferView":57,
			"componentType":5126,
			"count":2840,
			"type":"VEC2"
		},
		{
			"bufferView":58,
			"componentType":5126,
			"count":2840,
			"type":"VEC2"
		},
		{
			"bufferView":59,
			"componentType":5126,
			"count":2840,
			"type":"VEC2"
		},
		{
			"bufferView":60,
			"componentType":5126,
			"count":2840,
			"type":"VEC2"
		},
		{
			"bufferView":61,
			"componentType":5126,
			"count":2840,
			"type":"VEC2"
		},
		{
			"bufferView":62,
			"componentType":5123,
			"count":4500,
			"type":"SCALAR"
		},
		{
			"bufferView":63,
			"componentType":5126,
			"count":10,
			"max":[
				6.825938701629639,
				57.17238998413086,
				8.387487411499023
			],
			"min":[
				-6.049808025360107,
				57.17226028442383,
				-8.387609481811523
			],
			"type":"VEC3"
		},
		{
			"bufferView":64,
			"componentType":5126,
			"count":10,
			"type":"VEC3"
		},
		{
			"bufferView":65,
			"componentType":5126,
			"count":10,
			"type":"VEC2"
		},
		{
			"bufferView":66,
			"componentType":5126,
			"count":10,
			"type":"VEC2"
		},
		{
			"bufferView":67,
			"componentType":5126,
			"count":10,
			"type":"VEC2"
		},
		{
			"bufferView":68,
			"componentType":5126,
			"count":10,
			"type":"VEC2"
		},
		{
			"bufferView":69,
			"componentType":5126,
			"count":10,
			"type":"VEC2"
		},
		{
			"bufferView":70,
			"componentType":5126,
			"count":10,
			"type":"VEC2"
		},
		{
			"bufferView":71,
			"componentType":5126,
			"count":10,
			"type":"VEC2"
		},
		{
			"bufferView":72,
			"componentType":5126,
			"count":10,
			"type":"VEC2"
		},
		{
			"bufferView":73,
			"componentType":5123,
			"count":18,
			"type":"SCALAR"
		},
		{
			"bufferView":74,
			"componentType":5126,
			"count":18,
			"max":[
				12.933937072753906,
				21.17157745361328,
				14.495489120483398
			],
			"min":[
				-12.157809257507324,
				3.1709864139556885,
				-14.488536834716797
			],
			"type":"VEC3"
		},
		{
			"bufferView":75,
			"componentType":5126,
			"count":18,
			"type":"VEC3"
		},
		{
			"bufferView":76,
			"componentType":5126,
			"count":18,
			"type":"VEC2"
		},
		{
			"bufferView":77,
			"componentType":5126,
			"count":18,
			"type":"VEC2"
		},
		{
			"bufferView":78,
			"componentType":5126,
			"count":18,
			"type":"VEC2"
		},
		{
			"bufferView":79,
			"componentType":5126,
			"count":18,
			"type":"VEC2"
		},
		{
			"bufferView":80,
			"componentType":5126,
			"count":18,
			"type":"VEC2"
		},
		{
			"bufferView":81,
			"componentType":5126,
			"count":18,
			"type":"VEC2"
		},
		{
			"bufferView":82,
			"componentType":5126,
			"count":18,
			"type":"VEC2"
		},
		{
			"bufferView":83,
			"componentType":5126,
			"count":18,
			"type":"VEC2"
		},
		{
			"bufferView":84,
			"componentType":5123,
			"count":36,
			"type":"SCALAR"
		},
		{
			"bufferView":85,
			"componentType":5126,
			"count":1722,
			"max":[
				12.933937072753906,
				58.182926177978516,
				14.495489120483398
			],
			"min":[
				-12.157809257507324,
				3.1709368228912354,
				-14.495609283447266
			],
			"type":"VEC3"
		},
		{
			"bufferView":86,
			"componentType":5126,
			"count":1722,
			"type":"VEC3"
		},
		{
			"bufferView":87,
			"componentType":5126,
			"count":1722,
			"type":"VEC2"
		},
		{
			"bufferView":88,
			"componentType":5126,
			"count":1722,
			"type":"VEC2"
		},
		{
			"bufferView":89,
			"componentType":5126,
			"count":1722,
			"type":"VEC2"
		},
		{
			"bufferView":90,
			"componentType":5126,
			"count":1722,
			"type":"VEC2"
		},
		{
			"bufferView":91,
			"componentType":5126,
			"count":1722,
			"type":"VEC2"
		},
		{
			"bufferView":92,
			"componentType":5126,
			"count":1722,
			"type":"VEC2"
		},
		{
			"bufferView":93,
			"componentType":5126,
			"count":1722,
			"type":"VEC2"
		},
		{
			"bufferView":94,
			"componentType":5126,
			"count":1722,
			"type":"VEC2"
		},
		{
			"bufferView":95,
			"componentType":5123,
			"count":2472,
			"type":"SCALAR"
		},
		{
			"bufferView":96,
			"componentType":5126,
			"count":8,
			"max":[
				8.8619384765625,
				39.1719856262207,
				10.423486709594727
			],
			"min":[
				-8.085803031921387,
				39.171817779541016,
				-10.423608779907227
			],
			"type":"VEC3"
		},
		{
			"bufferView":97,
			"componentType":5126,
			"count":8,
			"type":"VEC3"
		},
		{
			"bufferView":98,
			"componentType":5126,
			"count":8,
			"type":"VEC2"
		},
		{
			"bufferView":99,
			"componentType":5126,
			"count":8,
			"type":"VEC2"
		},
		{
			"bufferView":100,
			"componentType":5126,
			"count":8,
			"type":"VEC2"
		},
		{
			"bufferView":101,
			"componentType":5126,
			"count":8,
			"type":"VEC2"
		},
		{
			"bufferView":102,
			"componentType":5126,
			"count":8,
			"type":"VEC2"
		},
		{
			"bufferView":103,
			"componentType":5126,
			"count":8,
			"type":"VEC2"
		},
		{
			"bufferView":104,
			"componentType":5126,
			"count":8,
			"type":"VEC2"
		},
		{
			"bufferView":105,
			"componentType":5126,
			"count":8,
			"type":"VEC2"
		},
		{
			"bufferView":106,
			"componentType":5123,
			"count":18,
			"type":"SCALAR"
		}
	],
	"bufferViews":[
		{
			"buffer":0,
			"byteLength":432,
			"byteOffset":0,
			"target":34962
		},
		{
			"buffer":0,
			"byteLength":432,
			"byteOffset":432,
			"target":34962
		},
		{
			"buffer":0,
			"byteLength":288,
			"byteOffset":864,
			"target":34962
		},
		{
			"buffer":0,
			"byteLength":288,
			"byteOffset":1152,
			"target":34962
		},
		{
			"buffer":0,
			"byteLength":288,
			"byteOffset":1440,
			"target":34962
		},
		{
			"buffer":0,
			"byteLength":288,
			"byteOffset":1728,
			"target":34962
		},
		{
			"buffer":0,
			"byteLength":288,
			"byteOffset":2016,
			"target":34962
		},
		{
			"buffer":0,
			"byteLength":288,
			"byteOffset":2304,
			"target":34962
		},
		{
			"buffer":0,
			"byteLength":288,
			"byteOffset":2592,
			"target":34962
		},
		{
			"buffer":0,
			"byteLength":108,
			"byteOffset":2880,
			"target":34963
		},
		{
			"buffer":0,
			"byteLength":432,
			"byteOffset":2988,
			"target":34962
		},
		{
			"buffer":0,
			"byteLength":432,
			"byteOffset":3420,
			"target":34962
		},
		{
			"buffer":0,
			"byteLength":288,
			"byteOffset":3852,
			"target":34962
		},
		{
			"buffer":0,
			"byteLength":288,
			"byteOffset":4140,
			"target":34962
		},
		{
			"buffer":0,
			"byteLength":288,
			"byteOffset":4428,
			"target":34962
		},
		{
			"buffer":0,
			"byteLength":288,
			"byteOffset":4716,
			"target":34962
		},
		{
			"buffer":0,
			"byteLength":288,
			"byteOffset":5004,
			"target":34962
		},
		{
			"buffer":0,
			"byteLength":288,
			"byteOffset":5292,
			"target":34962
		},
		{
			"buffer":0,
			"byteLength":288,
			"byteOffset":5580,
			"target":34962
		},
		{
			"buffer":0,
			"byteLength":108,
			"byteOffset":5868,
			"target":34963
		},
		{
			"buffer":0,
			"byteLength":288,
			"byteOffset":5976,
			"target":34962
		},
		{
			"buffer":0,
			"byteLength":288,
			"byteOffset":6264,
			"target":34962
		},
		{
			"buffer":0,
			"byteLength":192,
			"byteOffset":6552,
			"target":34962
		},
		{
			"buffer":0,
			"byteLength":192,
			"byteOffset":6744,
			"target":34962
		},
		{
			"buffer":0,
			"byteLength":192,
			"byteOffset":6936,
			"target":34962
		},
		{
			"buffer":0,
			"byteLength":192,
			"byteOffset":7128,
			"target":34962
		},
		{
			"buffer":0,
			"byteLength":192,
			"byteOffset":7320,
			"target":34962
		},
		{
			"buffer":0,
			"byteLength":192,
			"byteOffset":7512,
			"target":34962
		},
		{
			"buffer":0,
			"byteLength":192,
			"byteOffset":7704,
			"target":34962
		},
		{
			"buffer":0,
			"byteLength":72,
			"byteOffset":7896,
			"target":34963
		},
		{
			"buffer":0,
			"byteLength":1152,
			"byteOffset":7968,
			"target":34962
		},
		{
			"buffer":0,
			"byteLength":1152,
			"byteOffset":9120,
			"target":34962
		},
		{
			"buffer":0,
			"byteLength":768,
			"byteOffset":10272,
			"target":34962
		},
		{
			"buffer":0,
			"byteLength":768,
			"byteOffset":11040,
			"target":34962
		},
		{
			"buffer":0,
			"byteLength":768,
			"byteOffset":11808,
			"target":34962
		},
		{
			"buffer":0,
			"byteLength":768,
			"byteOffset":12576,
			"target":34962
		},
		{
			"buffer":0,
			"byteLength":768,
			"byteOffset":13344,
			"target":34962
		},
		{
			"buffer":0,
			"byteLength":768,
			"byteOffset":14112,
			"target":34962
		},
		{
			"buffer":0,
			"byteLength":768,
			"byteOffset":14880,
			"target":34962
		},
		{
			"buffer":0,
			"byteLength":768,
			"byteOffset":15648,
			"target":34962
		},
		{
			"buffer":0,
			"byteLength":288,
			"byteOffset":16416,
			"target":34963
		},
		{
			"buffer":0,
			"byteLength":2880,
			"byteOffset":16704,
			"target":34962
		},
		{
			"buffer":0,
			"byteLength":2880,
			"byteOffset":19584,
			"target":34962
		},
		{
			"buffer":0,
			"byteLength":1920,
			"byteOffset":22464,
			"target":34962
		},
		{
			"buffer":0,
			"byteLength":1920,
			"byteOffset":24384,
			"target":34962
		},
		{
			"buffer":0,
			"byteLength":1920,
			"byteOffset":26304,
			"target":34962
		},
		{
			"buffer":0,
			"byteLength":1920,
			"byteOffset":28224,
			"target":34962
		},
		{
			"buffer":0,
			"byteLength":1920,
			"byteOffset":30144,
			"target":34962
		},
		{
			"buffer":0,
			"byteLength":1920,
			"byteOffset":32064,
			"target":34962
		},
		{
			"buffer":0,
			"byteLength":1920,
			"byteOffset":33984,
			"target":34962
		},
		{
			"buffer":0,
			"byteLength":1920,
			"byteOffset":35904,
			"target":34962
		},
		{
			"buffer":0,
			"byteLength":720,
			"byteOffset":37824,
			"target":34963
		},
		{
			"buffer":0,
			"byteLength":34080,
			"byteOffset":38544,
			"target":34962
		},
		{
			"buffer":0,
			"byteLength":34080,
			"byteOffset":72624,
			"target":34962
		},
		{
			"buffer":0,
			"byteLength":22720,
			"byteOffset":106704,
			"target":34962
		},
		{
			"buffer":0,
			"byteLength":22720,
			"byteOffset":129424,
			"target":34962
		},
		{
			"buffer":0,
			"byteLength":22720,
			"byteOffset":152144,
			"target":34962
		},
		{
			"buffer":0,
			"byteLength":22720,
			"byteOffset":174864,
			"target":34962
		},
		{
			"buffer":0,
			"byteLength":22720,
			"byteOffset":197584,
			"target":34962
		},
		{
			"buffer":0,
			"byteLength":22720,
			"byteOffset":220304,
			"target":34962
		},
		{
			"buffer":0,
			"byteLength":22720,
			"byteOffset":243024,
			"target":34962
		},
		{
			"buffer":0,
			"byteLength":22720,
			"byteOffset":265744,
			"target":34962
		},
		{
			"buffer":0,
			"byteLength":9000,
			"byteOffset":288464,
			"target":34963
		},
		{
			"buffer":0,
			"byteLength":120,
			"byteOffset":297464,
			"target":34962
		},
		{
			"buffer":0,
			"byteLength":120,
			"byteOffset":297584,
			"target":34962
		},
		{
			"buffer":0,
			"byteLength":80,
			"byteOffset":297704,
			"target":34962
		},
		{
			"buffer":0,
			"byteLength":80,
			"byteOffset":297784,
			"target":34962
		},
		{
			"buffer":0,
			"byteLength":80,
			"byteOffset":297864,
			"target":34962
		},
		{
			"buffer":0,
			"byteLength":80,
			"byteOffset":297944,
			"target":34962
		},
		{
			"buffer":0,
			"byteLength":80,
			"byteOffset":298024,
			"target":34962
		},
		{
			"buffer":0,
			"byteLength":80,
			"byteOffset":298104,
			"target":34962
		},
		{
			"buffer":0,
			"byteLength":80,
			"byteOffset":298184,
			"target":34962
		},
		{
			"buffer":0,
			"byteLength":80,
			"byteOffset":298264,
			"target":34962
		},
		{
			"buffer":0,
			"byteLength":36,
			"byteOffset":298344,
			"target":34963
		},
		{
			"buffer":0,
			"byteLength":216,
			"byteOffset":298380,
			"target":34962
		},
		{
			"buffer":0,
			"byteLength":216,
			"byteOffset":298596,
			"target":34962
		},
		{
			"buffer":0,
			"byteLength":144,
			"byteOffset":298812,
			"target":34962
		},
		{
			"buffer":0,
			"byteLength":144,
			"byteOffset":298956,
			"target":34962
		},
		{
			"buffer":0,
			"byteLength":144,
			"byteOffset":299100,
			"target":34962
		},
		{
			"buffer":0,
			"byteLength":144,
			"byteOffset":299244,
			"target":34962
		},
		{
			"buffer":0,
			"byteLength":144,
			"byteOffset":299388,
			"target":34962
		},
		{
			"buffer":0,
			"byteLength":144,
			"byteOffset":299532,
			"target":34962
		},
		{
			"buffer":0,
			"byteLength":144,
			"byteOffset":299676,
			"target":34962
		},
		{
			"buffer":0,
			"byteLength":144,
			"byteOffset":299820,
			"target":34962
		},
		{
			"buffer":0,
			"byteLength":72,
			"byteOffset":299964,
			"target":34963
		},
		{
			"buffer":0,
			"byteLength":20664,
			"byteOffset":300036,
			"target":34962
		},
		{
			"buffer":0,
			"byteLength":20664,
			"byteOffset":320700,
			"target":34962
		},
		{
			"buffer":0,
			"byteLength":13776,
			"byteOffset":341364,
			"target":34962
		},
		{
			"buffer":0,
			"byteLength":13776,
			"byteOffset":355140,
			"target":34962
		},
		{
			"buffer":0,
			"byteLength":13776,
			"byteOffset":368916,
			"target":34962
		},
		{
			"buffer":0,
			"byteLength":13776,
			"byteOffset":382692,
			"target":34962
		},
		{
			"buffer":0,
			"byteLength":13776,
			"byteOffset":396468,
			"target":34962
		},
		{
			"buffer":0,
			"byteLength":13776,
			"byteOffset":410244,
			"target":34962
		},
		{
			"buffer":0,
			"byteLength":13776,
			"byteOffset":424020,
			"target":34962
		},
		{
			"buffer":0,
			"byteLength":13776,
			"byteOffset":437796,
			"target":34962
		},
		{
			"buffer":0,
			"byteLength":4944,
			"byteOffset":451572,
			"target":34963
		},
		{
			"buffer":0,
			"byteLength":96,
			"byteOffset":456516,
			"target":34962
		},
		{
			"buffer":0,
			"byteLength":96,
			"byteOffset":456612,
			"target":34962
		},
		{
			"buffer":0,
			"byteLength":64,
			"byteOffset":456708,
			"target":34962
		},
		{
			"buffer":0,
			"byteLength":64,
			"byteOffset":456772,
			"target":34962
		},
		{
			"buffer":0,
			"byteLength":64,
			"byteOffset":456836,
			"target":34962
		},
		{
			"buffer":0,
			"byteLength":64,
			"byteOffset":456900,
			"target":34962
		},
		{
			"buffer":0,
			"byteLength":64,
			"byteOffset":456964,
			"target":34962
		},
		{
			"buffer":0,
			"byteLength":64,
			"byteOffset":457028,
			"target":34962
		},
		{
			"buffer":0,
			"byteLength":64,
			"byteOffset":457092,
			"target":34962
		},
		{
			"buffer":0,
			"byteLength":64,
			"byteOffset":457156,
			"target":34962
		},
		{
			"buffer":0,
			"byteLength":36,
			"byteOffset":457220,
			"target":34963
		}
	],
	"samplers":[
		{
			"magFilter":9729,
			"minFilter":9987
		},
		{
			"magFilter":9729,
			"minFilter":9987,
			"wrapS":33071,
			"wrapT":33071
		}
	],
	"buffers":[
		{
			"byteLength":457256,
			"uri":"building12.bin"
		}
	]
}
