{
	"asset":{
		"generator":"Khronos glTF Blender I/O v4.2.70",
		"version":"2.0"
	},
	"scene":0,
	"scenes":[
		{
			"name":"Scene",
			"nodes":[
				0
			]
		}
	],
	"nodes":[
		{
			"mesh":0,
			"name":"Object_24.001",
			"translation":[
				-62.279422760009766,
				0.0009635612368583679,
				19.146259307861328
			]
		}
	],
	"materials":[
		{
			"doubleSided":true,
			"name":"CityGen_Streets.001",
			"normalTexture":{
				"index":0
			},
			"pbrMetallicRoughness":{
				"baseColorTexture":{
					"index":1
				},
				"metallicFactor":0,
				"metallicRoughnessTexture":{
					"index":2
				}
			}
		}
	],
	"meshes":[
		{
			"name":"Object_8.001",
			"primitives":[
				{
					"attributes":{
						"POSITION":0,
						"NORMAL":1,
						"TEXCOORD_0":2,
						"TEXCOORD_1":3,
						"TEXCOORD_2":4,
						"TEXCOORD_3":5,
						"TEXCOORD_4":6,
						"TEXCOORD_5":7,
						"TEXCOORD_6":8
					},
					"indices":9,
					"material":0
				}
			]
		}
	],
	"textures":[
		{
			"sampler":0,
			"source":0
		},
		{
			"sampler":0,
			"source":1
		},
		{
			"sampler":0,
			"source":2
		}
	],
	"images":[
		{
			"mimeType":"image/jpeg",
			"name":"Image_3",
			"uri":"../textures/Image_3.jpg"
		},
		{
			"mimeType":"image/png",
			"name":"Image_4",
			"uri":"../textures/Image_4.png"
		},
		{
			"mimeType":"image/png",
			"name":"Image_5",
			"uri":"../textures/Image_5.png"
		}
	],
	"accessors":[
		{
			"bufferView":0,
			"componentType":5126,
			"count":16,
			"max":[
				124.97628784179688,
				-0.0010635629296302795,
				124.85528564453125
			],
			"min":[
				-125.02371215820312,
				-0.0010635629296302795,
				-125.14470672607422
			],
			"type":"VEC3"
		},
		{
			"bufferView":1,
			"componentType":5126,
			"count":16,
			"type":"VEC3"
		},
		{
			"bufferView":2,
			"componentType":5126,
			"count":16,
			"type":"VEC2"
		},
		{
			"bufferView":3,
			"componentType":5126,
			"count":16,
			"type":"VEC2"
		},
		{
			"bufferView":4,
			"componentType":5126,
			"count":16,
			"type":"VEC2"
		},
		{
			"bufferView":5,
			"componentType":5126,
			"count":16,
			"type":"VEC2"
		},
		{
			"bufferView":6,
			"componentType":5126,
			"count":16,
			"type":"VEC2"
		},
		{
			"bufferView":7,
			"componentType":5126,
			"count":16,
			"type":"VEC2"
		},
		{
			"bufferView":8,
			"componentType":5126,
			"count":16,
			"type":"VEC2"
		},
		{
			"bufferView":9,
			"componentType":5123,
			"count":54,
			"type":"SCALAR"
		}
	],
	"bufferViews":[
		{
			"buffer":0,
			"byteLength":192,
			"byteOffset":0,
			"target":34962
		},
		{
			"buffer":0,
			"byteLength":192,
			"byteOffset":192,
			"target":34962
		},
		{
			"buffer":0,
			"byteLength":128,
			"byteOffset":384,
			"target":34962
		},
		{
			"buffer":0,
			"byteLength":128,
			"byteOffset":512,
			"target":34962
		},
		{
			"buffer":0,
			"byteLength":128,
			"byteOffset":640,
			"target":34962
		},
		{
			"buffer":0,
			"byteLength":128,
			"byteOffset":768,
			"target":34962
		},
		{
			"buffer":0,
			"byteLength":128,
			"byteOffset":896,
			"target":34962
		},
		{
			"buffer":0,
			"byteLength":128,
			"byteOffset":1024,
			"target":34962
		},
		{
			"buffer":0,
			"byteLength":128,
			"byteOffset":1152,
			"target":34962
		},
		{
			"buffer":0,
			"byteLength":108,
			"byteOffset":1280,
			"target":34963
		}
	],
	"samplers":[
		{
			"magFilter":9729,
			"minFilter":9987
		}
	],
	"buffers":[
		{
			"byteLength":1388,
			"uri":"floor.bin"
		}
	]
}
