{
	"asset":{
		"generator":"Khronos glTF Blender I/O v4.2.70",
		"version":"2.0"
	},
	"scene":0,
	"scenes":[
		{
			"name":"Scene",
			"nodes":[
				0
			]
		}
	],
	"nodes":[
		{
			"mesh":0,
			"name":"Object_18.001",
			"translation":[
				-61.57478713989258,
				0.6145457625389099,
				29.655315399169922
			]
		}
	],
	"materials":[
		{
			"doubleSided":true,
			"name":"CityGenside_walks.001",
			"normalTexture":{
				"index":0
			},
			"pbrMetallicRoughness":{
				"baseColorTexture":{
					"index":1
				},
				"metallicFactor":0,
				"metallicRoughnessTexture":{
					"index":2
				}
			}
		},
		{
			"doubleSided":true,
			"name":"CityGen_Curb.016",
			"normalTexture":{
				"index":3,
				"texCoord":2
			},
			"pbrMetallicRoughness":{
				"baseColorTexture":{
					"index":4
				},
				"metallicFactor":0,
				"metallicRoughnessTexture":{
					"index":5,
					"texCoord":1
				}
			}
		},
		{
			"doubleSided":true,
			"name":"CityGen_Curb.019",
			"normalTexture":{
				"index":6,
				"texCoord":2
			},
			"pbrMetallicRoughness":{
				"baseColorTexture":{
					"index":7
				},
				"metallicFactor":0,
				"metallicRoughnessTexture":{
					"index":8,
					"texCoord":1
				}
			}
		}
	],
	"meshes":[
		{
			"name":"Object_5.001",
			"primitives":[
				{
					"attributes":{
						"POSITION":0,
						"NORMAL":1,
						"TEXCOORD_0":2,
						"TEXCOORD_1":3,
						"TEXCOORD_2":4,
						"TEXCOORD_3":5,
						"TEXCOORD_4":6,
						"TEXCOORD_5":7,
						"TEXCOORD_6":8
					},
					"indices":9,
					"material":0
				},
				{
					"attributes":{
						"POSITION":10,
						"NORMAL":11,
						"TEXCOORD_0":12,
						"TEXCOORD_1":13,
						"TEXCOORD_2":14,
						"TEXCOORD_3":15,
						"TEXCOORD_4":16,
						"TEXCOORD_5":17,
						"TEXCOORD_6":18
					},
					"indices":19,
					"material":1
				},
				{
					"attributes":{
						"POSITION":20,
						"NORMAL":21,
						"TEXCOORD_0":22,
						"TEXCOORD_1":23,
						"TEXCOORD_2":24,
						"TEXCOORD_3":25,
						"TEXCOORD_4":26,
						"TEXCOORD_5":27,
						"TEXCOORD_6":28
					},
					"indices":29,
					"material":2
				}
			]
		}
	],
	"textures":[
		{
			"sampler":0,
			"source":0
		},
		{
			"sampler":0,
			"source":1
		},
		{
			"sampler":0,
			"source":2
		},
		{
			"sampler":0,
			"source":3
		},
		{
			"sampler":0,
			"source":4
		},
		{
			"sampler":0,
			"source":5
		},
		{
			"sampler":0,
			"source":3
		},
		{
			"sampler":0,
			"source":4
		},
		{
			"sampler":0,
			"source":5
		}
	],
	"images":[
		{
			"mimeType":"image/jpeg",
			"name":"Image_8",
			"uri":"../textures/Image_8.jpg"
		},
		{
			"mimeType":"image/jpeg",
			"name":"Image_6",
			"uri":"../textures/Image_6.jpg"
		},
		{
			"mimeType":"image/png",
			"name":"Image_7",
			"uri":"../textures/Image_7.png"
		},
		{
			"mimeType":"image/jpeg",
			"name":"Image_11",
			"uri":"../textures/Image_11.jpg"
		},
		{
			"mimeType":"image/jpeg",
			"name":"Image_9",
			"uri":"../textures/Image_9.jpg"
		},
		{
			"mimeType":"image/png",
			"name":"Image_10",
			"uri":"../textures/Image_10.png"
		}
	],
	"accessors":[
		{
			"bufferView":0,
			"componentType":5126,
			"count":6573,
			"max":[
				108.65267944335938,
				0.0004542711831163615,
				87.70890808105469
			],
			"min":[
				-112.63800811767578,
				-0.11454572528600693,
				-85.90231323242188
			],
			"type":"VEC3"
		},
		{
			"bufferView":1,
			"componentType":5126,
			"count":6573,
			"type":"VEC3"
		},
		{
			"bufferView":2,
			"componentType":5126,
			"count":6573,
			"type":"VEC2"
		},
		{
			"bufferView":3,
			"componentType":5126,
			"count":6573,
			"type":"VEC2"
		},
		{
			"bufferView":4,
			"componentType":5126,
			"count":6573,
			"type":"VEC2"
		},
		{
			"bufferView":5,
			"componentType":5126,
			"count":6573,
			"type":"VEC2"
		},
		{
			"bufferView":6,
			"componentType":5126,
			"count":6573,
			"type":"VEC2"
		},
		{
			"bufferView":7,
			"componentType":5126,
			"count":6573,
			"type":"VEC2"
		},
		{
			"bufferView":8,
			"componentType":5126,
			"count":6573,
			"type":"VEC2"
		},
		{
			"bufferView":9,
			"componentType":5123,
			"count":10833,
			"type":"SCALAR"
		},
		{
			"bufferView":10,
			"componentType":5126,
			"count":17419,
			"max":[
				108.70267486572266,
				0.07442471385002136,
				87.75889587402344
			],
			"min":[
				-112.6880111694336,
				-0.37954574823379517,
				-85.95231628417969
			],
			"type":"VEC3"
		},
		{
			"bufferView":11,
			"componentType":5126,
			"count":17419,
			"type":"VEC3"
		},
		{
			"bufferView":12,
			"componentType":5126,
			"count":17419,
			"type":"VEC2"
		},
		{
			"bufferView":13,
			"componentType":5126,
			"count":17419,
			"type":"VEC2"
		},
		{
			"bufferView":14,
			"componentType":5126,
			"count":17419,
			"type":"VEC2"
		},
		{
			"bufferView":15,
			"componentType":5126,
			"count":17419,
			"type":"VEC2"
		},
		{
			"bufferView":16,
			"componentType":5126,
			"count":17419,
			"type":"VEC2"
		},
		{
			"bufferView":17,
			"componentType":5126,
			"count":17419,
			"type":"VEC2"
		},
		{
			"bufferView":18,
			"componentType":5126,
			"count":17419,
			"type":"VEC2"
		},
		{
			"bufferView":19,
			"componentType":5123,
			"count":32754,
			"type":"SCALAR"
		},
		{
			"bufferView":20,
			"componentType":5126,
			"count":24,
			"max":[
				-41.31687545776367,
				0.06447124481201172,
				20.84934425354004
			],
			"min":[
				-42.9371452331543,
				-0.08824505656957626,
				19.229066848754883
			],
			"type":"VEC3"
		},
		{
			"bufferView":21,
			"componentType":5126,
			"count":24,
			"type":"VEC3"
		},
		{
			"bufferView":22,
			"componentType":5126,
			"count":24,
			"type":"VEC2"
		},
		{
			"bufferView":23,
			"componentType":5126,
			"count":24,
			"type":"VEC2"
		},
		{
			"bufferView":24,
			"componentType":5126,
			"count":24,
			"type":"VEC2"
		},
		{
			"bufferView":25,
			"componentType":5126,
			"count":24,
			"type":"VEC2"
		},
		{
			"bufferView":26,
			"componentType":5126,
			"count":24,
			"type":"VEC2"
		},
		{
			"bufferView":27,
			"componentType":5126,
			"count":24,
			"type":"VEC2"
		},
		{
			"bufferView":28,
			"componentType":5126,
			"count":24,
			"type":"VEC2"
		},
		{
			"bufferView":29,
			"componentType":5123,
			"count":48,
			"type":"SCALAR"
		}
	],
	"bufferViews":[
		{
			"buffer":0,
			"byteLength":78876,
			"byteOffset":0,
			"target":34962
		},
		{
			"buffer":0,
			"byteLength":78876,
			"byteOffset":78876,
			"target":34962
		},
		{
			"buffer":0,
			"byteLength":52584,
			"byteOffset":157752,
			"target":34962
		},
		{
			"buffer":0,
			"byteLength":52584,
			"byteOffset":210336,
			"target":34962
		},
		{
			"buffer":0,
			"byteLength":52584,
			"byteOffset":262920,
			"target":34962
		},
		{
			"buffer":0,
			"byteLength":52584,
			"byteOffset":315504,
			"target":34962
		},
		{
			"buffer":0,
			"byteLength":52584,
			"byteOffset":368088,
			"target":34962
		},
		{
			"buffer":0,
			"byteLength":52584,
			"byteOffset":420672,
			"target":34962
		},
		{
			"buffer":0,
			"byteLength":52584,
			"byteOffset":473256,
			"target":34962
		},
		{
			"buffer":0,
			"byteLength":21666,
			"byteOffset":525840,
			"target":34963
		},
		{
			"buffer":0,
			"byteLength":209028,
			"byteOffset":547508,
			"target":34962
		},
		{
			"buffer":0,
			"byteLength":209028,
			"byteOffset":756536,
			"target":34962
		},
		{
			"buffer":0,
			"byteLength":139352,
			"byteOffset":965564,
			"target":34962
		},
		{
			"buffer":0,
			"byteLength":139352,
			"byteOffset":1104916,
			"target":34962
		},
		{
			"buffer":0,
			"byteLength":139352,
			"byteOffset":1244268,
			"target":34962
		},
		{
			"buffer":0,
			"byteLength":139352,
			"byteOffset":1383620,
			"target":34962
		},
		{
			"buffer":0,
			"byteLength":139352,
			"byteOffset":1522972,
			"target":34962
		},
		{
			"buffer":0,
			"byteLength":139352,
			"byteOffset":1662324,
			"target":34962
		},
		{
			"buffer":0,
			"byteLength":139352,
			"byteOffset":1801676,
			"target":34962
		},
		{
			"buffer":0,
			"byteLength":65508,
			"byteOffset":1941028,
			"target":34963
		},
		{
			"buffer":0,
			"byteLength":288,
			"byteOffset":2006536,
			"target":34962
		},
		{
			"buffer":0,
			"byteLength":288,
			"byteOffset":2006824,
			"target":34962
		},
		{
			"buffer":0,
			"byteLength":192,
			"byteOffset":2007112,
			"target":34962
		},
		{
			"buffer":0,
			"byteLength":192,
			"byteOffset":2007304,
			"target":34962
		},
		{
			"buffer":0,
			"byteLength":192,
			"byteOffset":2007496,
			"target":34962
		},
		{
			"buffer":0,
			"byteLength":192,
			"byteOffset":2007688,
			"target":34962
		},
		{
			"buffer":0,
			"byteLength":192,
			"byteOffset":2007880,
			"target":34962
		},
		{
			"buffer":0,
			"byteLength":192,
			"byteOffset":2008072,
			"target":34962
		},
		{
			"buffer":0,
			"byteLength":192,
			"byteOffset":2008264,
			"target":34962
		},
		{
			"buffer":0,
			"byteLength":96,
			"byteOffset":2008456,
			"target":34963
		}
	],
	"samplers":[
		{
			"magFilter":9729,
			"minFilter":9987
		}
	],
	"buffers":[
		{
			"byteLength":2008552,
			"uri":"sidewalk.bin"
		}
	]
}
